# prebaked split of model.obj material Beige
mtllib Beige.mtl
usemtl Beige
v 0.176173 1.229815 0.034941
v 0.226291 1.213741 0.067771
v 0.217180 1.268112 -0.005275
v 0.199143 1.211998 0.058401
v 0.252899 1.250853 0.029800
v 0.249972 1.230370 0.049865
v 0.235921 1.265229 0.003527
v 0.186375 1.252435 0.008999
v 0.152429 1.255076 0.047523
v 0.165764 1.283822 0.014118
v 0.179091 1.238279 0.078974
v 0.213062 1.244620 0.082432
v 0.246762 1.267474 0.071739
v 0.206776 1.305689 -0.003929
v 0.234250 1.303263 0.007862
v 0.253777 1.290584 0.044088
v 0.263441 1.266578 0.034209
v 0.214257 1.287726 -0.014284
v 0.258687 1.239596 0.061815
v 0.226691 1.213176 0.080655
v 0.188942 1.211752 0.071850
v 0.158238 1.234167 0.039896
v 0.240963 1.284209 -0.002235
v 0.172017 1.265294 0.004815
v 0.239350 1.301966 0.001795
v 0.163184 1.280596 0.008987
v 0.148294 1.248187 0.046498
v 0.178946 1.227947 0.081514
v 0.217736 1.233717 0.086659
v 0.254660 1.260035 0.072698
v 0.209051 1.304971 -0.011349
v 0.261816 1.286641 0.042048
v 0.238655 1.291391 0.001488
v 0.169743 1.272360 0.008260
v 0.156076 1.242131 0.042776
v 0.185289 1.221768 0.074500
v 0.221710 1.225154 0.081056
v 0.254331 1.250400 0.065616
v 0.211571 1.294522 -0.010463
v 0.259992 1.275797 0.037934
v -0.178538 1.225120 0.056487
v -0.228178 1.222079 0.085705
v -0.210407 1.255873 0.006917
v -0.202588 1.216113 0.078539
v -0.250218 1.250003 0.039624
v -0.250128 1.234739 0.064011
v -0.229342 1.256741 0.013507
v -0.183500 1.241633 0.027035
v -0.154463 1.248947 0.072189
v -0.157614 1.271366 0.032884
v -0.187550 1.241886 0.099816
v -0.220381 1.251911 0.096007
v -0.248716 1.275039 0.075449
v -0.191817 1.292942 0.003425
v -0.220861 1.295672 0.009876
v -0.247781 1.292623 0.043162
v -0.259124 1.267558 0.037854
v -0.201997 1.273337 -0.004808
v -0.260579 1.247008 0.070779
v -0.232496 1.223781 0.097677
v -0.196661 1.216955 0.093975
v -0.161531 1.228255 0.065098
v -0.229902 1.274950 0.003066
v -0.166230 1.251954 0.024341
v -0.225572 1.293414 0.003499
v -0.155131 1.266906 0.028530
v -0.151244 1.241865 0.072277
v -0.188561 1.232714 0.103494
v -0.226067 1.242983 0.100989
v -0.257162 1.268747 0.076701
v -0.193633 1.290719 -0.004096
v -0.256003 1.288958 0.040797
v -0.226910 1.282697 0.005510
v -0.163243 1.259337 0.027264
v -0.158979 1.236136 0.067651
v -0.193696 1.226219 0.096178
v -0.228996 1.234229 0.096448
v -0.256502 1.257888 0.072177
v -0.198471 1.280706 -0.001897
v -0.255132 1.277173 0.039710
v 0.075676 1.728226 0.045103
v 0.081771 1.726633 0.210372
v 0.092060 1.729319 0.137249
v 0.046589 1.729394 0.022566
v 0.054612 1.727459 0.231016
v 0.088548 1.726220 0.169897
v 0.087054 1.729508 0.094145
v 0.046294 1.781386 0.181706
v 0.046482 1.788715 0.137896
v 0.046723 1.786042 0.087063
v 0.046930 1.775197 0.047271
v 0.046144 1.773696 0.217373
v 0.071082 1.770835 0.206055
v 0.064902 1.771499 0.052410
v 0.078622 1.775664 0.139372
v 0.076895 1.772959 0.179020
v 0.074440 1.774114 0.090057
v 0.078133 1.686407 0.038059
v 0.084741 1.688660 0.217404
v 0.095886 1.701987 0.137972
v 0.046587 1.676568 0.013674
v 0.055305 1.669651 0.239944
v 0.092077 1.697354 0.173414
v 0.090460 1.698805 0.091214
v 0.126406 1.697828 0.003739
v 0.139382 1.693771 0.271391
v 0.179138 1.738411 0.152818
v 0.079281 1.677093 -0.032604
v 0.096322 1.682506 0.304910
v 0.165060 1.709551 0.205806
v 0.161808 1.715833 0.083128
v 0.102286 1.683702 0.020957
v 0.126165 1.689512 0.088455
v 0.112089 1.677900 0.244487
v 0.075828 1.668976 0.272474
v 0.137571 1.688648 0.146683
v 0.062934 1.676830 -0.009465
v 0.128621 1.677340 0.189785
v -0.067579 1.727930 0.044439
v 0.004154 1.731585 0.020326
v 0.003135 1.729919 0.241105
v -0.075200 1.726309 0.209645
v -0.084821 1.728954 0.136430
v -0.038291 1.729218 0.022172
v -0.048238 1.727246 0.230540
v -0.081599 1.725870 0.169108
v -0.079417 1.729164 0.093374
v 0.003280 1.792222 0.182001
v -0.039685 1.781208 0.181308
v 0.003478 1.799557 0.135939
v -0.039498 1.788538 0.137497
v 0.003709 1.796880 0.087361
v -0.039256 1.785865 0.086665
v 0.003932 1.778265 0.047518
v -0.039050 1.775020 0.046872
v 0.003145 1.776765 0.217735
v -0.039834 1.773519 0.216973
v -0.064654 1.770555 0.205426
v -0.057052 1.771247 0.051845
v -0.071596 1.775354 0.138676
v -0.070224 1.772656 0.178338
v -0.066951 1.773822 0.089402
v -0.069799 1.686101 0.037374
v 0.004315 1.673628 0.011297
v 0.003225 1.663786 0.250969
v -0.078078 1.688325 0.216649
v -0.088542 1.701607 0.137117
v -0.037988 1.676393 0.013282
v -0.048774 1.669435 0.239462
v -0.085042 1.696988 0.172592
v -0.082669 1.698447 0.090411
v -0.117797 1.697323 0.002608
v 0.004531 1.675883 -0.036227
v 0.002896 1.665043 0.321345
v -0.133239 1.693207 0.270128
v -0.172077 1.737686 0.151190
v -0.070253 1.676784 -0.033297
v -0.090445 1.682120 0.304044
v -0.158373 1.708884 0.204306
v -0.154009 1.715182 0.081665
v -0.093781 1.683298 0.020048
v -0.118308 1.689007 0.087323
v -0.105631 1.677451 0.243477
v -0.069596 1.668676 0.271800
v 0.003061 1.664070 0.286159
v -0.130250 1.688094 0.145441
v -0.054120 1.676589 -0.010007
v -0.121654 1.676823 0.188625
v 0.004424 1.674756 -0.012466
v 0.004235 1.702475 0.015791
v 0.046588 1.702860 0.018100
v 0.090321 1.711722 0.171664
v 0.083263 1.707560 0.213903
v 0.076909 1.707221 0.041565
v 0.088765 1.714086 0.092673
v 0.054960 1.698423 0.235501
v 0.003180 1.696701 0.246059
v 0.093982 1.715591 0.137613
v -0.038139 1.702685 0.017707
v -0.083328 1.711363 0.170858
v -0.076645 1.707230 0.213163
v -0.068695 1.706920 0.040891
v -0.081051 1.713736 0.091886
v -0.048507 1.698209 0.235021
v -0.086689 1.715218 0.136776
v 0.126438 1.685809 0.001888
v 0.139415 1.681752 0.269539
v 0.179170 1.726392 0.150966
v 0.079314 1.665075 -0.034456
v 0.096355 1.670488 0.303058
v 0.165094 1.697534 0.203954
v 0.161841 1.703816 0.081277
v -0.117764 1.685305 0.000756
v 0.004565 1.663865 -0.038079
v 0.002930 1.653025 0.319493
v -0.133205 1.681190 0.268275
v -0.172043 1.725668 0.149339
v -0.070220 1.664766 -0.035149
v -0.090411 1.670103 0.302192
v -0.158339 1.696866 0.202455
v -0.153976 1.703163 0.079813
v 0.103521 1.668588 0.024900
v 0.114070 1.665290 0.242473
v 0.146428 1.686817 0.143810
v 0.065215 1.651732 -0.004644
v 0.079067 1.656133 0.269720
v 0.134944 1.678119 0.189159
v 0.132300 1.683225 0.089435
v -0.094991 1.668179 0.023980
v 0.004451 1.650749 -0.007589
v 0.003122 1.641937 0.283080
v -0.107543 1.664833 0.241446
v -0.139073 1.686228 0.142487
v -0.056341 1.651482 -0.005207
v -0.072755 1.655819 0.269017
v -0.127974 1.677576 0.187940
v -0.124426 1.682695 0.088245
v 0.059429 1.667814 0.074061
v 0.065316 1.665974 0.195481
v 0.083374 1.677988 0.140421
v 0.038051 1.658409 0.057574
v 0.045782 1.660864 0.210687
v 0.076965 1.673133 0.165728
v 0.075489 1.675983 0.110076
v -0.051353 1.667586 0.073547
v 0.004142 1.657859 0.055930
v 0.003400 1.652942 0.218142
v -0.058357 1.665719 0.194908
v -0.075954 1.677659 0.139683
v -0.029785 1.658269 0.057260
v -0.038944 1.660689 0.210294
v -0.069759 1.672830 0.165048
v -0.067780 1.675687 0.109412
vt 0.000000 0.000000
vt 0.000000 0.000000
vn -0.168500 -0.446700 -0.878700
vn 0.707100 -0.341600 -0.619200
vn 0.627800 -0.777300 0.040600
vn -0.336900 -0.886500 -0.317300
vn 0.840100 -0.446000 -0.308700
vn 0.349000 -0.351600 -0.868600
vn 0.051900 -0.998600 -0.011400
vn -0.899200 -0.084700 -0.429300
vn -0.352000 -0.629400 -0.692700
vn -0.157100 0.269300 0.950200
vn -0.505100 0.252000 -0.825500
vn 0.844900 0.436800 -0.308800
vn 0.454700 0.022100 0.890400
vn -0.786200 -0.399300 0.471600
vn 0.903700 0.212600 0.371600
vn 0.397400 0.541700 -0.740700
vn -0.185600 -0.206100 0.960800
vn 0.126800 0.988800 -0.078300
vn 0.477200 0.608000 0.634500
vn -0.670600 0.228700 0.705700
vn 0.096700 0.331700 0.938400
vn 0.420800 0.901700 0.099100
vn -0.536800 0.808600 -0.240900
vn -0.855500 0.508500 0.098000
vn -0.035400 -0.664000 0.746900
vn 0.401500 0.009600 -0.915800
vn 0.985300 -0.149200 0.083400
vn -0.618000 -0.782300 0.078400
vn 0.585300 -0.381500 0.715400
vn 0.868400 0.000200 -0.495900
vn -0.326200 -0.166400 -0.930500
vn -0.635300 -0.440000 -0.634600
vn 0.242000 -0.613700 -0.751600
vn -0.663300 -0.393000 -0.636800
vn -0.630500 -0.772200 0.078800
vn 0.256700 -0.962700 -0.085600
vn -0.818700 -0.478000 -0.318200
vn -0.284100 -0.460200 -0.841200
vn -0.185500 -0.977400 0.101600
vn 0.935700 -0.250600 -0.248200
vn 0.390100 -0.774800 -0.497500
vn 0.039600 0.419400 0.907000
vn 0.641700 0.019900 -0.766700
vn -0.732800 0.426200 -0.530400
vn -0.569500 0.196000 0.798300
vn 0.652400 -0.390100 0.649700
vn -0.926300 0.338300 0.166100
vn -0.214700 0.407200 -0.887800
vn 0.042500 -0.063200 0.997100
vn 0.012600 0.949900 -0.312300
vn -0.487500 0.770000 0.411800
vn 0.584000 0.257700 0.769700
vn -0.196500 0.522300 0.829800
vn -0.319500 0.933900 -0.160300
vn 0.685600 0.650200 -0.327500
vn 0.907300 0.393600 0.148000
vn -0.163300 -0.550300 0.818800
vn -0.248200 -0.121200 -0.961100
vn -0.996500 -0.051000 -0.066300
vn 0.480500 -0.817100 0.318500
vn -0.725100 -0.218000 0.653200
vn -0.772400 -0.010000 -0.635100
vn 0.449900 -0.374500 -0.810700
vn 0.670200 -0.614000 -0.417000
vn 0.154300 0.939700 0.305200
vn 0.238500 0.958300 0.157400
vn 0.245000 0.968200 -0.051000
vn 0.147800 0.927800 -0.342400
vn 0.050400 0.488700 -0.871000
vn 0.123600 0.376300 0.918200
vn 0.517300 0.270800 0.811900
vn 0.956700 0.225300 0.184100
vn 0.964300 0.249100 0.089900
vn 0.502200 0.344000 -0.793400
vn 0.957200 0.272000 -0.099200
vn 0.936500 0.257900 -0.237600
vn 0.237700 0.955900 0.172200
vn 0.323600 0.938500 0.120300
vn 0.388000 0.920100 -0.054100
vn 0.348900 0.915300 -0.201100
vn -0.537500 0.839300 0.080900
vn -0.360900 0.918000 -0.164200
vn -0.160200 0.973900 -0.160700
vn -0.701600 0.711600 0.036800
vn -0.317700 0.948000 0.019400
vn -0.734400 0.670600 0.104300
vn -0.025700 0.999500 0.020600
vn -0.559400 0.823700 -0.092100
vn 0.339000 0.927400 0.158400
vn -0.050300 0.998700 0.011900
vn 0.315500 0.918700 0.237700
vn -0.104200 0.980900 -0.164300
vn 0.284800 0.956300 -0.066800
vn -0.080100 0.996300 0.029800
vn -0.160900 0.937400 0.309000
vn 0.133100 0.973300 -0.186800
vn -0.161000 0.939000 0.303800
vn -0.243900 0.957300 0.155200
vn -0.248500 0.967200 -0.053200
vn -0.148500 0.927200 -0.343800
vn -0.044300 0.488500 -0.871400
vn -0.133700 0.375800 0.917000
vn -0.525900 0.268600 0.807000
vn -0.959300 0.221400 0.175200
vn -0.966100 0.245100 0.080900
vn -0.496200 0.341900 -0.798000
vn -0.957300 0.268100 -0.108000
vn -0.935300 0.254100 -0.246200
vn -0.243200 0.955000 0.170000
vn -0.328600 0.937200 0.117200
vn -0.391300 0.918500 -0.057700
vn -0.350800 0.913900 -0.204400
vn 0.533300 0.841600 0.085800
vn 0.358600 0.919500 -0.160800
vn 0.157700 0.974600 -0.159200
vn 0.698300 0.714500 0.043300
vn 0.313500 0.949300 0.022400
vn 0.730600 0.673700 0.111100
vn 0.021300 0.999600 0.020800
vn 0.556900 0.826000 -0.086900
vn -0.344200 0.926000 0.155200
vn 0.046100 0.998900 0.012400
vn -0.321500 0.917400 0.234700
vn 0.101600 0.981300 -0.163400
vn -0.288100 0.955100 -0.069400
vn 0.075700 0.996700 0.030500
vn 0.154200 0.938000 0.310500
vn -0.135400 0.972800 -0.188100
vn -0.984800 0.133700 0.111000
vn -0.593800 0.145400 -0.791300
vn -0.984400 0.123100 -0.125400
vn -0.204500 0.147400 0.967700
vn -0.591800 0.152700 0.791500
vn -0.964400 0.106200 -0.242100
vn -0.980100 0.117700 0.160000
vn -0.047800 0.159300 -0.986100
vn 0.983200 0.137700 0.120100
vn 0.600500 0.147900 -0.785800
vn 0.985000 0.127200 -0.116300
vn 0.194900 0.148200 0.969600
vn 0.583800 0.155100 0.797000
vn 0.966200 0.110200 -0.233100
vn 0.978000 0.121800 0.169100
vn 0.056300 0.159500 -0.985600
vn 0.905500 0.067100 -0.419000
vn -0.901800 0.063400 -0.427400
vn 0.570200 0.126700 -0.811700
vn 0.966300 0.041800 -0.253800
vn -0.563200 0.124300 -0.816900
vn -0.964100 0.037800 -0.262800
vn 0.934100 -0.051800 0.353200
vn -0.937100 -0.055700 0.344600
vn 0.198200 -0.148700 0.968800
vn -0.206600 -0.149600 0.966900
vn 0.045400 0.152300 -0.987300
vn -0.036900 0.152100 -0.987700
vn 0.628900 -0.116700 0.768700
vn -0.635500 -0.119300 0.762800
vn 0.970400 -0.034200 0.239200
vn -0.972400 -0.038200 0.230200
vn -0.488000 -0.859000 -0.154900
vn -0.691100 -0.722100 -0.030800
vn 0.538600 -0.842500 0.008100
vn -0.535100 -0.844800 0.003200
vn 0.224300 -0.931900 0.284900
vn -0.223100 -0.932900 0.282900
vn 0.034000 -0.918100 -0.394800
vn -0.026500 -0.918300 -0.395100
vn 0.384100 -0.903500 0.189800
vn -0.382200 -0.905100 0.186300
vn 0.697900 -0.710500 -0.090000
vn -0.694100 -0.713400 -0.096400
vn 0.559200 -0.826700 -0.061800
vn -0.555200 -0.829000 -0.067000
vn 0.493000 -0.856900 -0.150300
vn 0.694400 -0.719200 -0.024400
vn -0.139600 -0.978400 -0.152200
vn 0.175900 -0.974000 0.142500
vn -0.173200 -0.974800 0.140800
vn 0.252400 -0.944200 0.211500
vn 0.137000 -0.990100 0.029800
vn -0.250400 -0.945300 0.209200
vn -0.133200 -0.990700 0.028500
vn 0.153900 -0.972700 -0.173800
vn -0.148200 -0.973300 -0.175200
vn 0.153200 -0.974400 -0.164500
vn -0.147600 -0.975000 -0.165900
vn 0.010700 -0.993700 0.111300
vn -0.007600 -0.993800 0.111200
vn 0.135500 -0.978600 -0.154800
vn -0.130000 -0.979200 -0.156000
vn 0.145000 -0.977900 -0.150800
f 24/1/1 18/1/1 3/1/1
f 24/1/1 3/1/1 8/1/1
f 23/1/2 17/1/2 5/1/2
f 23/1/2 5/1/2 7/1/2
f 19/1/3 20/1/3 2/1/3
f 19/1/3 2/1/3 6/1/3
f 21/1/4 22/1/4 1/1/4
f 21/1/4 1/1/4 4/1/4
f 17/1/5 19/1/5 6/1/5
f 17/1/5 6/1/5 5/1/5
f 18/1/6 23/1/6 7/1/6
f 18/1/6 7/1/6 3/1/6
f 20/1/7 21/1/7 4/1/7
f 20/1/7 4/1/7 2/1/7
f 35/1/8 34/1/8 24/1/8
f 35/1/8 24/1/8 22/1/8
f 22/1/9 24/1/9 8/1/9
f 22/1/9 8/1/9 1/1/9
f 12/1/10 11/1/10 28/1/10
f 12/1/10 28/1/10 29/1/10
f 34/1/11 39/1/11 18/1/11
f 34/1/11 18/1/11 24/1/11
f 33/1/12 40/1/12 17/1/12
f 33/1/12 17/1/12 23/1/12
f 38/1/13 37/1/13 20/1/13
f 38/1/13 20/1/13 19/1/13
f 36/1/14 35/1/14 22/1/14
f 36/1/14 22/1/14 21/1/14
f 40/1/15 38/1/15 19/1/15
f 40/1/15 19/1/15 17/1/15
f 39/1/16 33/1/16 23/1/16
f 39/1/16 23/1/16 18/1/16
f 37/1/17 36/1/17 21/1/17
f 37/1/17 21/1/17 20/1/17
f 14/1/18 15/1/18 25/1/18
f 14/1/18 25/1/18 31/1/18
f 16/1/19 13/1/19 30/1/19
f 16/1/19 30/1/19 32/1/19
f 11/1/20 9/1/20 27/1/20
f 11/1/20 27/1/20 28/1/20
f 13/1/21 12/1/21 29/1/21
f 13/1/21 29/1/21 30/1/21
f 15/1/22 16/1/22 32/1/22
f 15/1/22 32/1/22 25/1/22
f 10/1/23 14/1/23 31/1/23
f 10/1/23 31/1/23 26/1/23
f 9/1/24 10/1/24 26/1/24
f 9/1/24 26/1/24 27/1/24
f 29/1/25 28/1/25 36/1/25
f 29/1/25 36/1/25 37/1/25
f 31/1/26 25/1/26 33/1/26
f 31/1/26 33/1/26 39/1/26
f 32/1/27 30/1/27 38/1/27
f 32/1/27 38/1/27 40/1/27
f 28/1/28 27/1/28 35/1/28
f 28/1/28 35/1/28 36/1/28
f 30/1/29 29/1/29 37/1/29
f 30/1/29 37/1/29 38/1/29
f 25/1/30 32/1/30 40/1/30
f 25/1/30 40/1/30 33/1/30
f 26/1/31 31/1/31 39/1/31
f 26/1/31 39/1/31 34/1/31
f 27/1/32 26/1/32 34/1/32
f 27/1/32 34/1/32 35/1/32
f 64/1/33 48/1/33 43/1/33
f 64/1/33 43/1/33 58/1/33
f 63/1/34 47/1/34 45/1/34
f 63/1/34 45/1/34 57/1/34
f 59/1/35 46/1/35 42/1/35
f 59/1/35 42/1/35 60/1/35
f 61/1/36 44/1/36 41/1/36
f 61/1/36 41/1/36 62/1/36
f 57/1/37 45/1/37 46/1/37
f 57/1/37 46/1/37 59/1/37
f 58/1/38 43/1/38 47/1/38
f 58/1/38 47/1/38 63/1/38
f 60/1/39 42/1/39 44/1/39
f 60/1/39 44/1/39 61/1/39
f 75/1/40 62/1/40 64/1/40
f 75/1/40 64/1/40 74/1/40
f 62/1/41 41/1/41 48/1/41
f 62/1/41 48/1/41 64/1/41
f 52/1/42 69/1/42 68/1/42
f 52/1/42 68/1/42 51/1/42
f 74/1/43 64/1/43 58/1/43
f 74/1/43 58/1/43 79/1/43
f 73/1/44 63/1/44 57/1/44
f 73/1/44 57/1/44 80/1/44
f 78/1/45 59/1/45 60/1/45
f 78/1/45 60/1/45 77/1/45
f 76/1/46 61/1/46 62/1/46
f 76/1/46 62/1/46 75/1/46
f 80/1/47 57/1/47 59/1/47
f 80/1/47 59/1/47 78/1/47
f 79/1/48 58/1/48 63/1/48
f 79/1/48 63/1/48 73/1/48
f 77/1/49 60/1/49 61/1/49
f 77/1/49 61/1/49 76/1/49
f 54/1/50 71/1/50 65/1/50
f 54/1/50 65/1/50 55/1/50
f 56/1/51 72/1/51 70/1/51
f 56/1/51 70/1/51 53/1/51
f 51/1/52 68/1/52 67/1/52
f 51/1/52 67/1/52 49/1/52
f 53/1/53 70/1/53 69/1/53
f 53/1/53 69/1/53 52/1/53
f 55/1/54 65/1/54 72/1/54
f 55/1/54 72/1/54 56/1/54
f 50/1/55 66/1/55 71/1/55
f 50/1/55 71/1/55 54/1/55
f 49/1/56 67/1/56 66/1/56
f 49/1/56 66/1/56 50/1/56
f 69/1/57 77/1/57 76/1/57
f 69/1/57 76/1/57 68/1/57
f 71/1/58 79/1/58 73/1/58
f 71/1/58 73/1/58 65/1/58
f 72/1/59 80/1/59 78/1/59
f 72/1/59 78/1/59 70/1/59
f 68/1/60 76/1/60 75/1/60
f 68/1/60 75/1/60 67/1/60
f 70/1/61 78/1/61 77/1/61
f 70/1/61 77/1/61 69/1/61
f 65/1/62 73/1/62 80/1/62
f 65/1/62 80/1/62 72/1/62
f 66/1/63 74/1/63 79/1/63
f 66/1/63 79/1/63 71/1/63
f 67/1/64 75/1/64 74/1/64
f 67/1/64 74/1/64 66/1/64
f 136/2/65 92/2/65 88/2/65
f 136/2/65 88/2/65 128/2/65
f 128/2/66 88/2/66 89/2/66
f 128/2/66 89/2/66 130/2/66
f 130/2/67 89/2/67 90/2/67
f 130/2/67 90/2/67 132/2/67
f 132/2/68 90/2/68 91/2/68
f 132/2/68 91/2/68 134/2/68
f 134/2/69 91/2/69 84/2/69
f 134/2/69 84/2/69 120/2/69
f 121/2/70 85/2/70 92/2/70
f 121/2/70 92/2/70 136/2/70
f 85/2/71 82/2/71 93/2/71
f 85/2/71 93/2/71 92/2/71
f 82/2/72 86/2/72 96/2/72
f 82/2/72 96/2/72 93/2/72
f 86/2/73 83/2/73 95/2/73
f 86/2/73 95/2/73 96/2/73
f 81/2/74 84/2/74 91/2/74
f 81/2/74 91/2/74 94/2/74
f 83/2/75 87/2/75 97/2/75
f 83/2/75 97/2/75 95/2/75
f 87/2/76 81/2/76 94/2/76
f 87/2/76 94/2/76 97/2/76
f 92/2/77 93/2/77 96/2/77
f 92/2/77 96/2/77 88/2/77
f 88/2/78 96/2/78 95/2/78
f 88/2/78 95/2/78 89/2/78
f 89/2/79 95/2/79 97/2/79
f 89/2/79 97/2/79 90/2/79
f 90/2/80 97/2/80 94/2/80
f 90/2/80 94/2/80 91/2/80
f 112/2/81 113/2/81 111/2/81
f 112/2/81 111/2/81 105/2/81
f 114/2/82 115/2/82 109/2/82
f 114/2/82 109/2/82 106/2/82
f 115/2/83 165/2/83 154/2/83
f 115/2/83 154/2/83 109/2/83
f 113/2/84 116/2/84 107/2/84
f 113/2/84 107/2/84 111/2/84
f 117/2/85 112/2/85 105/2/85
f 117/2/85 105/2/85 108/2/85
f 116/2/86 118/2/86 110/2/86
f 116/2/86 110/2/86 107/2/86
f 169/2/87 117/2/87 108/2/87
f 169/2/87 108/2/87 153/2/87
f 118/2/88 114/2/88 106/2/88
f 118/2/88 106/2/88 110/2/88
f 103/2/89 99/2/89 114/2/89
f 103/2/89 114/2/89 118/2/89
f 144/2/90 101/2/90 117/2/90
f 144/2/90 117/2/90 169/2/90
f 100/2/91 103/2/91 118/2/91
f 100/2/91 118/2/91 116/2/91
f 101/2/92 98/2/92 112/2/92
f 101/2/92 112/2/92 117/2/92
f 104/2/93 100/2/93 116/2/93
f 104/2/93 116/2/93 113/2/93
f 102/2/94 145/2/94 165/2/94
f 102/2/94 165/2/94 115/2/94
f 99/2/95 102/2/95 115/2/95
f 99/2/95 115/2/95 114/2/95
f 98/2/96 104/2/96 113/2/96
f 98/2/96 113/2/96 112/2/96
f 136/2/97 128/2/97 129/2/97
f 136/2/97 129/2/97 137/2/97
f 128/2/98 130/2/98 131/2/98
f 128/2/98 131/2/98 129/2/98
f 130/2/99 132/2/99 133/2/99
f 130/2/99 133/2/99 131/2/99
f 132/2/100 134/2/100 135/2/100
f 132/2/100 135/2/100 133/2/100
f 134/2/101 120/2/101 124/2/101
f 134/2/101 124/2/101 135/2/101
f 121/2/102 136/2/102 137/2/102
f 121/2/102 137/2/102 125/2/102
f 125/2/103 137/2/103 138/2/103
f 125/2/103 138/2/103 122/2/103
f 122/2/104 138/2/104 141/2/104
f 122/2/104 141/2/104 126/2/104
f 126/2/105 141/2/105 140/2/105
f 126/2/105 140/2/105 123/2/105
f 119/2/106 139/2/106 135/2/106
f 119/2/106 135/2/106 124/2/106
f 123/2/107 140/2/107 142/2/107
f 123/2/107 142/2/107 127/2/107
f 127/2/108 142/2/108 139/2/108
f 127/2/108 139/2/108 119/2/108
f 137/2/109 129/2/109 141/2/109
f 137/2/109 141/2/109 138/2/109
f 129/2/110 131/2/110 140/2/110
f 129/2/110 140/2/110 141/2/110
f 131/2/111 133/2/111 142/2/111
f 131/2/111 142/2/111 140/2/111
f 133/2/112 135/2/112 139/2/112
f 133/2/112 139/2/112 142/2/112
f 161/2/113 152/2/113 160/2/113
f 161/2/113 160/2/113 162/2/113
f 163/2/114 155/2/114 158/2/114
f 163/2/114 158/2/114 164/2/114
f 164/2/115 158/2/115 154/2/115
f 164/2/115 154/2/115 165/2/115
f 162/2/116 160/2/116 156/2/116
f 162/2/116 156/2/116 166/2/116
f 167/2/117 157/2/117 152/2/117
f 167/2/117 152/2/117 161/2/117
f 166/2/118 156/2/118 159/2/118
f 166/2/118 159/2/118 168/2/118
f 169/2/119 153/2/119 157/2/119
f 169/2/119 157/2/119 167/2/119
f 168/2/120 159/2/120 155/2/120
f 168/2/120 155/2/120 163/2/120
f 150/2/121 168/2/121 163/2/121
f 150/2/121 163/2/121 146/2/121
f 144/2/122 169/2/122 167/2/122
f 144/2/122 167/2/122 148/2/122
f 147/2/123 166/2/123 168/2/123
f 147/2/123 168/2/123 150/2/123
f 148/2/124 167/2/124 161/2/124
f 148/2/124 161/2/124 143/2/124
f 151/2/125 162/2/125 166/2/125
f 151/2/125 166/2/125 147/2/125
f 149/2/126 164/2/126 165/2/126
f 149/2/126 165/2/126 145/2/126
f 146/2/127 163/2/127 164/2/127
f 146/2/127 164/2/127 149/2/127
f 143/2/128 161/2/128 162/2/128
f 143/2/128 162/2/128 151/2/128
f 123/2/129 185/2/129 180/2/129
f 123/2/129 180/2/129 126/2/129
f 124/2/130 179/2/130 182/2/130
f 124/2/130 182/2/130 119/2/130
f 127/2/131 183/2/131 185/2/131
f 127/2/131 185/2/131 123/2/131
f 125/2/132 184/2/132 177/2/132
f 125/2/132 177/2/132 121/2/132
f 122/2/133 181/2/133 184/2/133
f 122/2/133 184/2/133 125/2/133
f 119/2/134 182/2/134 183/2/134
f 119/2/134 183/2/134 127/2/134
f 126/2/135 180/2/135 181/2/135
f 126/2/135 181/2/135 122/2/135
f 120/2/136 170/2/136 179/2/136
f 120/2/136 179/2/136 124/2/136
f 83/2/137 86/2/137 172/2/137
f 83/2/137 172/2/137 178/2/137
f 84/2/138 81/2/138 174/2/138
f 84/2/138 174/2/138 171/2/138
f 87/2/139 83/2/139 178/2/139
f 87/2/139 178/2/139 175/2/139
f 85/2/140 121/2/140 177/2/140
f 85/2/140 177/2/140 176/2/140
f 82/2/141 85/2/141 176/2/141
f 82/2/141 176/2/141 173/2/141
f 81/2/142 87/2/142 175/2/142
f 81/2/142 175/2/142 174/2/142
f 86/2/143 82/2/143 173/2/143
f 86/2/143 173/2/143 172/2/143
f 120/2/144 84/2/144 171/2/144
f 120/2/144 171/2/144 170/2/144
f 105/2/145 111/2/145 192/2/145
f 105/2/145 192/2/145 186/2/145
f 160/2/146 152/2/146 193/2/146
f 160/2/146 193/2/146 201/2/146
f 108/2/147 105/2/147 186/2/147
f 108/2/147 186/2/147 189/2/147
f 111/2/148 107/2/148 188/2/148
f 111/2/148 188/2/148 192/2/148
f 152/2/149 157/2/149 198/2/149
f 152/2/149 198/2/149 193/2/149
f 156/2/150 160/2/150 201/2/150
f 156/2/150 201/2/150 197/2/150
f 110/2/151 106/2/151 187/2/151
f 110/2/151 187/2/151 191/2/151
f 155/2/152 159/2/152 200/2/152
f 155/2/152 200/2/152 196/2/152
f 109/2/153 154/2/153 195/2/153
f 109/2/153 195/2/153 190/2/153
f 154/2/154 158/2/154 199/2/154
f 154/2/154 199/2/154 195/2/154
f 153/2/155 108/2/155 189/2/155
f 153/2/155 189/2/155 194/2/155
f 157/2/156 153/2/156 194/2/156
f 157/2/156 194/2/156 198/2/156
f 106/2/157 109/2/157 190/2/157
f 106/2/157 190/2/157 187/2/157
f 158/2/158 155/2/158 196/2/158
f 158/2/158 196/2/158 199/2/158
f 107/2/159 110/2/159 191/2/159
f 107/2/159 191/2/159 188/2/159
f 159/2/160 156/2/160 197/2/160
f 159/2/160 197/2/160 200/2/160
f 193/2/161 198/2/161 214/2/161
f 193/2/161 214/2/161 209/2/161
f 197/2/162 201/2/162 217/2/162
f 197/2/162 217/2/162 213/2/162
f 191/2/163 187/2/163 203/2/163
f 191/2/163 203/2/163 207/2/163
f 196/2/164 200/2/164 216/2/164
f 196/2/164 216/2/164 212/2/164
f 190/2/165 195/2/165 211/2/165
f 190/2/165 211/2/165 206/2/165
f 195/2/166 199/2/166 215/2/166
f 195/2/166 215/2/166 211/2/166
f 194/2/167 189/2/167 205/2/167
f 194/2/167 205/2/167 210/2/167
f 198/2/168 194/2/168 210/2/168
f 198/2/168 210/2/168 214/2/168
f 187/2/169 190/2/169 206/2/169
f 187/2/169 206/2/169 203/2/169
f 199/2/170 196/2/170 212/2/170
f 199/2/170 212/2/170 215/2/170
f 188/2/171 191/2/171 207/2/171
f 188/2/171 207/2/171 204/2/171
f 200/2/172 197/2/172 213/2/172
f 200/2/172 213/2/172 216/2/172
f 186/2/173 192/2/173 208/2/173
f 186/2/173 208/2/173 202/2/173
f 201/2/174 193/2/174 209/2/174
f 201/2/174 209/2/174 217/2/174
f 189/2/175 186/2/175 202/2/175
f 189/2/175 202/2/175 205/2/175
f 192/2/176 188/2/176 204/2/176
f 192/2/176 204/2/176 208/2/176
f 216/2/177 213/2/177 229/2/177
f 216/2/177 229/2/177 232/2/177
f 202/2/178 208/2/178 224/2/178
f 202/2/178 224/2/178 218/2/178
f 217/2/179 209/2/179 225/2/179
f 217/2/179 225/2/179 233/2/179
f 205/2/180 202/2/180 218/2/180
f 205/2/180 218/2/180 221/2/180
f 208/2/181 204/2/181 220/2/181
f 208/2/181 220/2/181 224/2/181
f 209/2/182 214/2/182 230/2/182
f 209/2/182 230/2/182 225/2/182
f 213/2/183 217/2/183 233/2/183
f 213/2/183 233/2/183 229/2/183
f 207/2/184 203/2/184 219/2/184
f 207/2/184 219/2/184 223/2/184
f 212/2/185 216/2/185 232/2/185
f 212/2/185 232/2/185 228/2/185
f 206/2/186 211/2/186 227/2/186
f 206/2/186 227/2/186 222/2/186
f 211/2/187 215/2/187 231/2/187
f 211/2/187 231/2/187 227/2/187
f 210/2/188 205/2/188 221/2/188
f 210/2/188 221/2/188 226/2/188
f 214/2/189 210/2/189 226/2/189
f 214/2/189 226/2/189 230/2/189
f 203/2/190 206/2/190 222/2/190
f 203/2/190 222/2/190 219/2/190
f 215/2/191 212/2/191 228/2/191
f 215/2/191 228/2/191 231/2/191
f 204/2/192 207/2/192 223/2/192
f 204/2/192 223/2/192 220/2/192
