# prebaked split of model.obj material Eyebrows.004
mtllib Eyebrows_004.mtl
usemtl Eyebrows.004
v 0.064011 1.601245 0.055097
v 0.038052 1.600555 0.033056
v 0.075101 1.598825 0.084616
v 0.075892 1.637562 0.043242
v 0.083309 1.602661 0.174736
v 0.043972 1.636738 0.021338
v 0.089341 1.615905 0.151589
v 0.092780 1.634194 0.095284
v 0.079646 1.691475 0.045240
v 0.087215 1.659456 0.187613
v 0.095318 1.676634 0.132745
v 0.046444 1.690133 0.023030
v 0.091599 1.667124 0.160742
v 0.094079 1.679003 0.123420
v 0.076115 1.719048 0.053661
v 0.082043 1.687662 0.209370
v 0.091878 1.706792 0.141293
v 0.048171 1.725937 0.032845
v 0.055970 1.686551 0.229270
v 0.088537 1.693190 0.170895
v 0.087054 1.714382 0.100590
v 0.093740 1.652307 0.158380
v 0.097416 1.662444 0.131169
v 0.081734 1.677192 0.043529
v 0.089433 1.640827 0.178712
v 0.095494 1.666083 0.116791
v 0.046480 1.676289 0.021379
v 0.047928 1.744820 0.190699
v 0.048090 1.757802 0.150186
v 0.048303 1.763225 0.101620
v 0.048519 1.750233 0.060889
v 0.047844 1.717458 0.221082
v 0.071802 1.710704 0.209019
v 0.065800 1.738262 0.064006
v 0.078984 1.736201 0.148194
v 0.077358 1.721530 0.184434
v 0.074959 1.739785 0.100829
v -0.055482 1.600998 0.054541
v 0.004396 1.599518 0.027093
v -0.029318 1.600415 0.032742
v -0.066835 1.598533 0.083956
v -0.067405 1.637266 0.042577
v 0.004375 1.635599 0.015368
v -0.075894 1.602337 0.173996
v -0.035279 1.636573 0.020969
v -0.081767 1.615554 0.150793
v -0.084760 1.633828 0.094460
v -0.071399 1.691163 0.044540
v 0.004257 1.689007 0.017202
v -0.080156 1.659111 0.186837
v -0.087822 1.676255 0.131897
v -0.037988 1.689959 0.022639
v -0.084322 1.666760 0.159927
v -0.086505 1.678630 0.122584
v -0.068061 1.718751 0.052992
v 0.004100 1.732252 0.031658
v 0.003219 1.691580 0.239868
v -0.075302 1.687338 0.208641
v -0.084585 1.706428 0.140475
v -0.039953 1.725756 0.032437
v -0.049410 1.686333 0.228782
v -0.081461 1.692840 0.170107
v -0.079414 1.714039 0.099819
v -0.086381 1.651936 0.157545
v -0.089845 1.662058 0.130301
v -0.073412 1.676872 0.042810
v -0.082214 1.640472 0.177917
v -0.087806 1.665705 0.115941
v -0.037951 1.676115 0.020987
v 0.004293 1.675163 0.015551
v 0.003309 1.754075 0.192484
v -0.041252 1.744635 0.190286
v 0.003480 1.767403 0.149837
v -0.041091 1.757618 0.149773
v 0.003685 1.772480 0.103408
v -0.040877 1.763041 0.101207
v 0.003900 1.759502 0.062579
v -0.040662 1.750049 0.060476
v 0.003225 1.726711 0.222883
v -0.041336 1.717274 0.220669
v -0.065154 1.710421 0.208384
v -0.057921 1.738007 0.063433
v -0.071877 1.735890 0.147495
v -0.070527 1.721225 0.183749
v -0.067427 1.739491 0.100168
v 0.023530 1.640365 0.232318
v 0.067136 1.644718 0.218641
v 0.024861 1.632606 0.227541
v 0.067536 1.637334 0.215305
v 0.069808 1.641477 0.227652
v 0.026211 1.637417 0.239417
v 0.070208 1.634091 0.224318
v 0.027541 1.629659 0.234640
v -0.016810 1.640282 0.232132
v -0.060304 1.644455 0.218051
v -0.018064 1.632518 0.227341
v -0.060643 1.637069 0.214711
v -0.063047 1.641202 0.227037
v -0.019544 1.637323 0.239204
v -0.063386 1.633816 0.223698
v -0.020799 1.629559 0.234415
vt 0.000000 0.000000
vn 0.161700 -0.316400 -0.934700
vn 0.566300 -0.377300 -0.732800
vn 0.872300 -0.365100 -0.325100
vn 0.132800 0.117800 -0.984100
vn 0.535200 0.140000 -0.833000
vn 0.977600 0.119300 0.173400
vn 0.548600 -0.054400 -0.834300
vn 0.977300 0.058700 0.203800
vn 0.972800 0.172600 -0.154200
vn 0.094900 0.290500 -0.952200
vn 0.983600 0.155200 -0.091800
vn 0.142800 -0.001600 -0.989700
vn 0.986200 0.137400 -0.092200
vn 0.987000 0.065200 0.147200
vn 0.983700 0.047400 0.173300
vn 0.975800 0.122200 -0.181200
vn 0.573000 0.241600 -0.783100
vn 0.969400 -0.042200 -0.242000
vn 0.977100 -0.158400 0.142300
vn 0.178100 0.731000 0.658700
vn 0.202000 0.933500 0.296200
vn 0.207200 0.972300 0.108400
vn 0.182900 0.937100 -0.297400
vn 0.127500 0.746600 -0.653000
vn 0.170500 0.369200 0.913600
vn 0.536700 0.307100 0.785900
vn 0.913800 0.315100 0.256300
vn 0.927100 0.314000 0.204800
vn 0.553200 0.618800 -0.557700
vn 0.907400 0.418600 -0.038100
vn 0.859000 0.476100 -0.188300
vn 0.547900 0.659700 0.514500
vn 0.597100 0.750100 0.284200
vn 0.617000 0.785400 0.049200
vn 0.619900 0.755200 -0.212800
vn -0.151700 -0.317100 -0.936200
vn -0.557900 -0.379600 -0.738000
vn -0.867800 -0.368700 -0.333200
vn -0.124200 0.117200 -0.985300
vn -0.528100 0.137800 -0.838000
vn -0.979600 0.115300 0.164300
vn -0.540600 -0.056600 -0.839400
vn -0.979300 0.054700 0.194700
vn -0.972100 0.168600 -0.163300
vn -0.087300 0.290100 -0.953000
vn -0.983300 0.151200 -0.100900
vn -0.133600 -0.002100 -0.991000
vn -0.985900 0.133300 -0.101300
vn -0.988500 0.061100 0.138000
vn -0.985500 0.043300 0.164200
vn -0.974600 0.118100 -0.190200
vn -0.566700 0.239300 -0.788400
vn -0.966900 -0.046200 -0.251000
vn -0.977700 -0.162500 0.133200
vn -0.187200 0.730300 0.657000
vn -0.208600 0.932700 0.294300
vn -0.212200 0.971400 0.106400
vn -0.184000 0.936300 -0.299100
vn -0.124500 0.746100 -0.654100
vn -0.180500 0.368500 0.912000
vn -0.545200 0.304900 0.780900
vn -0.917400 0.311300 0.247800
vn -0.930200 0.310100 0.196200
vn -0.550500 0.616500 -0.562800
vn -0.908700 0.414900 -0.046500
vn -0.859200 0.472600 -0.196200
vn -0.555300 0.657400 0.509400
vn -0.602800 0.747700 0.278600
vn -0.620700 0.782800 0.043500
vn -0.621000 0.752700 -0.218600
vn -0.301200 0.423400 -0.854400
vn 0.263400 -0.432000 0.862600
vn 0.005000 -0.932900 -0.360000
vn 0.960900 0.155500 -0.229000
vn -0.927200 -0.298400 0.226300
vn 0.013300 0.934900 0.354700
vn 0.307300 0.424600 -0.851600
vn -0.269600 -0.433100 0.860100
vn 0.002200 -0.932900 -0.360100
vn -0.959400 0.151500 -0.237900
vn 0.926300 -0.294600 0.234900
vn -0.020400 0.934800 0.354600
f 39/1/1 43/1/1 6/1/1
f 39/1/1 6/1/1 2/1/1
f 1/1/2 2/1/2 6/1/2
f 1/1/2 6/1/2 4/1/2
f 3/1/3 1/1/3 4/1/3
f 3/1/3 4/1/3 8/1/3
f 70/1/4 49/1/4 12/1/4
f 70/1/4 12/1/4 27/1/4
f 27/1/5 12/1/5 9/1/5
f 27/1/5 9/1/5 24/1/5
f 22/1/6 23/1/6 11/1/6
f 22/1/6 11/1/6 13/1/6
f 4/1/7 6/1/7 27/1/7
f 4/1/7 27/1/7 24/1/7
f 25/1/8 22/1/8 13/1/8
f 25/1/8 13/1/8 10/1/8
f 26/1/9 24/1/9 9/1/9
f 26/1/9 9/1/9 14/1/9
f 12/1/10 49/1/10 56/1/10
f 12/1/10 56/1/10 18/1/10
f 23/1/11 26/1/11 14/1/11
f 23/1/11 14/1/11 11/1/11
f 6/1/12 43/1/12 70/1/12
f 6/1/12 70/1/12 27/1/12
f 11/1/13 14/1/13 21/1/13
f 11/1/13 21/1/13 17/1/13
f 13/1/14 11/1/14 17/1/14
f 13/1/14 17/1/14 20/1/14
f 10/1/15 13/1/15 20/1/15
f 10/1/15 20/1/15 16/1/15
f 14/1/16 9/1/16 15/1/16
f 14/1/16 15/1/16 21/1/16
f 9/1/17 12/1/17 18/1/17
f 9/1/17 18/1/17 15/1/17
f 8/1/18 4/1/18 24/1/18
f 8/1/18 24/1/18 26/1/18
f 5/1/19 7/1/19 22/1/19
f 5/1/19 22/1/19 25/1/19
f 79/1/20 32/1/20 28/1/20
f 79/1/20 28/1/20 71/1/20
f 71/1/21 28/1/21 29/1/21
f 71/1/21 29/1/21 73/1/21
f 73/1/22 29/1/22 30/1/22
f 73/1/22 30/1/22 75/1/22
f 75/1/23 30/1/23 31/1/23
f 75/1/23 31/1/23 77/1/23
f 77/1/24 31/1/24 18/1/24
f 77/1/24 18/1/24 56/1/24
f 57/1/25 19/1/25 32/1/25
f 57/1/25 32/1/25 79/1/25
f 19/1/26 16/1/26 33/1/26
f 19/1/26 33/1/26 32/1/26
f 16/1/27 20/1/27 36/1/27
f 16/1/27 36/1/27 33/1/27
f 20/1/28 17/1/28 35/1/28
f 20/1/28 35/1/28 36/1/28
f 15/1/29 18/1/29 31/1/29
f 15/1/29 31/1/29 34/1/29
f 17/1/30 21/1/30 37/1/30
f 17/1/30 37/1/30 35/1/30
f 21/1/31 15/1/31 34/1/31
f 21/1/31 34/1/31 37/1/31
f 32/1/32 33/1/32 36/1/32
f 32/1/32 36/1/32 28/1/32
f 28/1/33 36/1/33 35/1/33
f 28/1/33 35/1/33 29/1/33
f 29/1/34 35/1/34 37/1/34
f 29/1/34 37/1/34 30/1/34
f 30/1/35 37/1/35 34/1/35
f 30/1/35 34/1/35 31/1/35
f 39/1/36 40/1/36 45/1/36
f 39/1/36 45/1/36 43/1/36
f 38/1/37 42/1/37 45/1/37
f 38/1/37 45/1/37 40/1/37
f 41/1/38 47/1/38 42/1/38
f 41/1/38 42/1/38 38/1/38
f 70/1/39 69/1/39 52/1/39
f 70/1/39 52/1/39 49/1/39
f 69/1/40 66/1/40 48/1/40
f 69/1/40 48/1/40 52/1/40
f 64/1/41 53/1/41 51/1/41
f 64/1/41 51/1/41 65/1/41
f 42/1/42 66/1/42 69/1/42
f 42/1/42 69/1/42 45/1/42
f 67/1/43 50/1/43 53/1/43
f 67/1/43 53/1/43 64/1/43
f 68/1/44 54/1/44 48/1/44
f 68/1/44 48/1/44 66/1/44
f 52/1/45 60/1/45 56/1/45
f 52/1/45 56/1/45 49/1/45
f 65/1/46 51/1/46 54/1/46
f 65/1/46 54/1/46 68/1/46
f 45/1/47 69/1/47 70/1/47
f 45/1/47 70/1/47 43/1/47
f 51/1/48 59/1/48 63/1/48
f 51/1/48 63/1/48 54/1/48
f 53/1/49 62/1/49 59/1/49
f 53/1/49 59/1/49 51/1/49
f 50/1/50 58/1/50 62/1/50
f 50/1/50 62/1/50 53/1/50
f 54/1/51 63/1/51 55/1/51
f 54/1/51 55/1/51 48/1/51
f 48/1/52 55/1/52 60/1/52
f 48/1/52 60/1/52 52/1/52
f 47/1/53 68/1/53 66/1/53
f 47/1/53 66/1/53 42/1/53
f 44/1/54 67/1/54 64/1/54
f 44/1/54 64/1/54 46/1/54
f 79/1/55 71/1/55 72/1/55
f 79/1/55 72/1/55 80/1/55
f 71/1/56 73/1/56 74/1/56
f 71/1/56 74/1/56 72/1/56
f 73/1/57 75/1/57 76/1/57
f 73/1/57 76/1/57 74/1/57
f 75/1/58 77/1/58 78/1/58
f 75/1/58 78/1/58 76/1/58
f 77/1/59 56/1/59 60/1/59
f 77/1/59 60/1/59 78/1/59
f 57/1/60 79/1/60 80/1/60
f 57/1/60 80/1/60 61/1/60
f 61/1/61 80/1/61 81/1/61
f 61/1/61 81/1/61 58/1/61
f 58/1/62 81/1/62 84/1/62
f 58/1/62 84/1/62 62/1/62
f 62/1/63 84/1/63 83/1/63
f 62/1/63 83/1/63 59/1/63
f 55/1/64 82/1/64 78/1/64
f 55/1/64 78/1/64 60/1/64
f 59/1/65 83/1/65 85/1/65
f 59/1/65 85/1/65 63/1/65
f 63/1/66 85/1/66 82/1/66
f 63/1/66 82/1/66 55/1/66
f 80/1/67 72/1/67 84/1/67
f 80/1/67 84/1/67 81/1/67
f 72/1/68 74/1/68 83/1/68
f 72/1/68 83/1/68 84/1/68
f 74/1/69 76/1/69 85/1/69
f 74/1/69 85/1/69 83/1/69
f 76/1/70 78/1/70 82/1/70
f 76/1/70 82/1/70 85/1/70
f 88/1/71 86/1/71 87/1/71
f 88/1/71 87/1/71 89/1/71
f 93/1/72 92/1/72 90/1/72
f 93/1/72 90/1/72 91/1/72
f 88/1/73 89/1/73 92/1/73
f 88/1/73 92/1/73 93/1/73
f 89/1/74 87/1/74 90/1/74
f 89/1/74 90/1/74 92/1/74
f 86/1/75 88/1/75 93/1/75
f 86/1/75 93/1/75 91/1/75
f 87/1/76 86/1/76 91/1/76
f 87/1/76 91/1/76 90/1/76
f 96/1/77 97/1/77 95/1/77
f 96/1/77 95/1/77 94/1/77
f 101/1/78 99/1/78 98/1/78
f 101/1/78 98/1/78 100/1/78
f 96/1/79 101/1/79 100/1/79
f 96/1/79 100/1/79 97/1/79
f 97/1/80 100/1/80 98/1/80
f 97/1/80 98/1/80 95/1/80
f 94/1/81 99/1/81 101/1/81
f 94/1/81 101/1/81 96/1/81
f 95/1/82 98/1/82 99/1/82
f 95/1/82 99/1/82 94/1/82
