# prebaked split of model.obj material Eyes.007
mtllib Eyes_007.mtl
usemtl Eyes.007
v 0.040859 1.638593 0.151915
v 0.032930 1.647983 0.162146
v 0.027887 1.646570 0.147037
v 0.040760 1.645701 0.137592
v 0.053759 1.646577 0.146863
v 0.048920 1.647987 0.162038
v 0.027931 1.660895 0.154146
v 0.032771 1.659485 0.138970
v 0.048761 1.659489 0.138863
v 0.053804 1.660901 0.153971
v 0.040930 1.661770 0.163417
v 0.040832 1.668878 0.149092
v 0.033236 1.640624 0.149296
v 0.036201 1.641454 0.158177
v 0.028576 1.646143 0.155309
v 0.040939 1.646975 0.164127
v 0.045599 1.641456 0.158113
v 0.040803 1.640113 0.143744
v 0.033179 1.644801 0.140877
v 0.048444 1.640628 0.149193
v 0.048386 1.644806 0.140774
v 0.053182 1.646149 0.155143
v 0.036243 1.655077 0.164937
v 0.045641 1.655079 0.164874
v 0.025638 1.653732 0.150607
v 0.028602 1.654562 0.159488
v 0.036049 1.652392 0.136135
v 0.028482 1.652903 0.141687
v 0.053089 1.652909 0.141521
v 0.045448 1.652395 0.136072
v 0.053208 1.654568 0.159322
v 0.056053 1.653739 0.150402
v 0.033304 1.662666 0.160234
v 0.028508 1.661323 0.145865
v 0.040752 1.660496 0.136882
v 0.053114 1.661329 0.145699
v 0.048512 1.662670 0.160132
v 0.033246 1.666844 0.151815
v 0.040887 1.667358 0.157265
v 0.036091 1.666015 0.142896
v 0.045490 1.666018 0.142832
v 0.048454 1.666847 0.151713
v -0.044487 1.638571 0.152491
v -0.036425 1.647965 0.162613
v -0.031586 1.646555 0.147438
v -0.044585 1.645679 0.138167
v -0.057458 1.646548 0.147613
v -0.052415 1.647961 0.162721
v -0.031542 1.660879 0.154546
v -0.036585 1.659467 0.139438
v -0.052575 1.659463 0.139546
v -0.057414 1.660873 0.154721
v -0.044415 1.661748 0.163992
v -0.044513 1.668856 0.149668
v -0.036901 1.640606 0.149769
v -0.039746 1.641434 0.158688
v -0.032163 1.646127 0.155719
v -0.044406 1.646953 0.164702
v -0.049145 1.641432 0.158752
v -0.044542 1.640091 0.144319
v -0.036959 1.644784 0.141349
v -0.052109 1.640602 0.149871
v -0.052167 1.644780 0.141452
v -0.056769 1.646121 0.155885
v -0.039704 1.655057 0.165449
v -0.049103 1.655055 0.165512
v -0.029292 1.653717 0.150977
v -0.032137 1.654546 0.159897
v -0.039897 1.652373 0.136647
v -0.032257 1.652888 0.142096
v -0.056863 1.652881 0.142262
v -0.049296 1.652370 0.136710
v -0.056743 1.654540 0.160063
v -0.059707 1.653710 0.151182
v -0.036833 1.662648 0.160707
v -0.032231 1.661307 0.146274
v -0.044593 1.660474 0.137457
v -0.056837 1.661301 0.146440
v -0.052041 1.662644 0.160809
v -0.036891 1.666825 0.152287
v -0.044458 1.667336 0.157840
v -0.039855 1.665996 0.143407
v -0.049254 1.665993 0.143471
v -0.052098 1.666822 0.152390
vn -0.313600 -0.930000 0.191600
vn -0.262800 -0.593900 0.760400
vn -0.195700 -0.964400 -0.178100
vn 0.193800 -0.964300 -0.180700
vn 0.316600 -0.929900 0.187300
vn -0.261700 -0.245100 0.933500
vn -0.943000 -0.326900 0.061700
vn -0.320700 -0.411600 -0.853100
vn 0.745200 -0.382100 -0.546500
vn 0.781700 -0.279200 0.557700
vn -0.577700 -0.050800 0.814700
vn -0.945400 -0.153800 -0.287200
vn -0.006500 -0.217100 -0.976100
vn 0.941600 -0.153300 -0.299900
vn 0.588600 -0.050500 0.806900
vn -0.626200 0.696700 0.350000
vn -0.586900 0.615000 -0.526700
vn 0.262700 0.594000 -0.760400
vn 0.748400 0.662600 -0.028100
vn 0.199000 0.726100 0.658200
vn 0.195700 0.964400 0.178000
vn 0.359400 0.836900 0.412800
vn 0.630500 0.697000 0.341500
vn 0.313600 0.930000 -0.191600
vn 0.575400 0.774000 -0.264400
vn 0.579400 0.615300 -0.534600
vn -0.003000 0.908700 -0.417500
vn -0.004800 0.734900 -0.678200
vn -0.273300 0.593800 -0.756800
vn -0.316700 0.929900 -0.187300
vn -0.579300 0.773700 -0.256600
vn -0.749100 0.662300 -0.018000
vn -0.193800 0.964300 0.180600
vn -0.354300 0.836700 0.417600
vn -0.190500 0.726000 0.660800
vn 0.320700 0.411600 0.853100
vn 0.582500 0.260700 0.769900
vn 0.752300 0.382500 0.536400
vn 0.943000 0.326900 -0.061700
vn 0.932000 0.158900 -0.325900
vn 0.774000 0.279600 -0.568100
vn 0.261700 0.245000 -0.933500
vn -0.006700 0.095700 -0.995400
vn -0.274300 0.244900 -0.929900
vn -0.781700 0.279200 -0.557700
vn -0.936400 0.158400 -0.313300
vn -0.944000 0.326400 -0.049000
vn -0.745200 0.382100 0.546500
vn -0.572200 0.260400 0.777700
vn -0.309400 0.411400 0.857300
vn 0.945400 0.153800 0.287200
vn 0.936300 -0.158400 0.313300
vn 0.944000 -0.326400 0.049000
vn 0.577600 0.050800 -0.814700
vn 0.572200 -0.260400 -0.777700
vn 0.309500 -0.411400 -0.857300
vn -0.588600 0.050500 -0.806900
vn -0.582500 -0.260700 -0.769900
vn -0.752300 -0.382500 -0.536400
vn -0.941600 0.153300 0.299900
vn -0.932000 -0.158900 0.325900
vn -0.774000 -0.279600 0.568200
vn 0.006500 0.217100 0.976100
vn 0.006700 -0.095600 0.995400
vn 0.274400 -0.244900 0.929900
vn 0.586900 -0.615000 0.526700
vn 0.579300 -0.773700 0.256600
vn 0.749100 -0.662200 0.018000
vn 0.626200 -0.696700 -0.350000
vn 0.354300 -0.836700 -0.417700
vn 0.190500 -0.726000 -0.660800
vn -0.199000 -0.726100 -0.658200
vn -0.359400 -0.836900 -0.412800
vn -0.630500 -0.697000 -0.341500
vn 0.273300 -0.593800 0.756800
vn 0.004800 -0.734900 0.678200
vn 0.003000 -0.908700 0.417400
vn -0.748400 -0.662600 0.028100
vn -0.575400 -0.774000 0.264400
vn -0.579400 -0.615300 0.534600
vn 0.316700 -0.929900 0.187300
vn 0.273200 -0.593800 0.756800
vn -0.195700 -0.964400 -0.178000
vn 0.309400 -0.411400 -0.857300
vn -0.749000 0.662300 -0.018000
vn -0.354200 0.836700 0.417600
vn -0.316600 0.929900 -0.187300
vn -0.586800 0.615000 -0.526700
vn -0.003000 0.908700 -0.417400
vn -0.004700 0.734900 -0.678200
vn 0.262800 0.593900 -0.760400
vn -0.944000 0.326400 -0.048900
vn -0.936300 0.158400 -0.313300
vn 0.261700 0.245100 -0.933500
vn 0.320800 0.411600 0.853100
vn -0.320800 -0.411600 -0.853100
vn 0.006700 -0.095700 0.995400
vn 0.354200 -0.836700 -0.417600
vn -0.262700 -0.594000 0.760400
vn 0.004700 -0.734900 0.678200
vn 0.003100 -0.908700 0.417400
f 1//1 14//1 13//1
f 2//2 14//2 16//2
f 1//3 13//3 18//3
f 1//4 18//4 20//4
f 1//5 20//5 17//5
f 2//6 16//6 23//6
f 3//7 15//7 25//7
f 4//8 19//8 27//8
f 5//9 21//9 29//9
f 6//10 22//10 31//10
f 2//11 23//11 26//11
f 3//12 25//12 28//12
f 4//13 27//13 30//13
f 5//14 29//14 32//14
f 6//15 31//15 24//15
f 7//16 33//16 38//16
f 8//17 34//17 40//17
f 9//18 35//18 41//18
f 10//19 36//19 42//19
f 11//20 37//20 39//20
f 39//21 42//21 12//21
f 39//22 37//22 42//22
f 37//23 10//23 42//23
f 42//24 41//24 12//24
f 42//25 36//25 41//25
f 36//26 9//26 41//26
f 41//27 40//27 12//27
f 41//28 35//28 40//28
f 35//29 8//29 40//29
f 40//30 38//30 12//30
f 40//31 34//31 38//31
f 34//32 7//32 38//32
f 38//33 39//33 12//33
f 38//34 33//34 39//34
f 33//35 11//35 39//35
f 24//36 37//36 11//36
f 24//37 31//37 37//37
f 31//38 10//38 37//38
f 32//39 36//39 10//39
f 32//40 29//40 36//40
f 29//41 9//41 36//41
f 30//42 35//42 9//42
f 30//43 27//43 35//43
f 27//44 8//44 35//44
f 28//45 34//45 8//45
f 28//46 25//46 34//46
f 25//47 7//47 34//47
f 26//48 33//48 7//48
f 26//49 23//49 33//49
f 23//50 11//50 33//50
f 31//51 32//51 10//51
f 31//52 22//52 32//52
f 22//53 5//53 32//53
f 29//54 30//54 9//54
f 29//55 21//55 30//55
f 21//56 4//56 30//56
f 27//57 28//57 8//57
f 27//58 19//58 28//58
f 19//59 3//59 28//59
f 25//60 26//60 7//60
f 25//61 15//61 26//61
f 15//62 2//62 26//62
f 23//63 24//63 11//63
f 23//64 16//64 24//64
f 16//65 6//65 24//65
f 17//66 22//66 6//66
f 17//67 20//67 22//67
f 20//68 5//68 22//68
f 20//69 21//69 5//69
f 20//70 18//70 21//70
f 18//71 4//71 21//71
f 18//72 19//72 4//72
f 18//73 13//73 19//73
f 13//74 3//74 19//74
f 16//75 17//75 6//75
f 16//76 14//76 17//76
f 14//77 1//77 17//77
f 13//78 15//78 3//78
f 13//79 14//79 15//79
f 14//80 2//80 15//80
f 43//81 55//81 56//81
f 44//82 58//82 56//82
f 43//4 60//4 55//4
f 43//83 62//83 60//83
f 43//1 59//1 62//1
f 44//65 65//65 58//65
f 45//53 67//53 57//53
f 46//84 69//84 61//84
f 47//59 71//59 63//59
f 48//62 73//62 64//62
f 44//15 68//15 65//15
f 45//14 70//14 67//14
f 46//13 72//13 69//13
f 47//12 74//12 71//12
f 48//11 66//11 73//11
f 49//23 80//23 75//23
f 50//26 82//26 76//26
f 51//29 83//29 77//29
f 52//85 84//85 78//85
f 53//35 81//35 79//35
f 81//33 54//33 84//33
f 81//86 84//86 79//86
f 79//16 84//16 52//16
f 84//87 54//87 83//87
f 84//31 83//31 78//31
f 78//88 83//88 51//88
f 83//89 54//89 82//89
f 83//90 82//90 77//90
f 77//91 82//91 50//91
f 82//24 54//24 80//24
f 82//25 80//25 76//25
f 76//19 80//19 49//19
f 80//21 54//21 81//21
f 80//22 81//22 75//22
f 75//20 81//20 53//20
f 66//50 53//50 79//50
f 66//49 79//49 73//49
f 73//48 79//48 52//48
f 74//92 52//92 78//92
f 74//93 78//93 71//93
f 71//45 78//45 51//45
f 72//44 51//44 77//44
f 72//43 77//43 69//43
f 69//94 77//94 50//94
f 70//41 50//41 76//41
f 70//40 76//40 67//40
f 67//39 76//39 49//39
f 68//38 49//38 75//38
f 68//37 75//37 65//37
f 65//95 75//95 53//95
f 73//60 52//60 74//60
f 73//61 74//61 64//61
f 64//7 74//7 47//7
f 71//57 51//57 72//57
f 71//58 72//58 63//58
f 63//96 72//96 46//96
f 69//54 50//54 70//54
f 69//55 70//55 61//55
f 61//9 70//9 45//9
f 67//51 49//51 68//51
f 67//52 68//52 57//52
f 57//10 68//10 44//10
f 65//63 53//63 66//63
f 65//97 66//97 58//97
f 58//6 66//6 48//6
f 59//80 48//80 64//80
f 59//79 64//79 62//79
f 62//78 64//78 47//78
f 62//74 47//74 63//74
f 62//73 63//73 60//73
f 60//72 63//72 46//72
f 60//71 46//71 61//71
f 60//98 61//98 55//98
f 55//69 61//69 45//69
f 58//99 48//99 59//99
f 58//100 59//100 56//100
f 56//101 59//101 43//101
f 55//68 45//68 57//68
f 55//67 57//67 56//67
f 56//66 57//66 44//66
