# prebaked split of model.obj material HairBase.002
mtllib HairBase_002.mtl
usemtl HairBase.002
v 0.097260 1.670969 0.008971
v 0.069805 1.668387 -0.047964
v 0.099961 1.679104 0.046746
v 0.060140 1.695327 -0.045064
v 0.086571 1.705395 0.003564
v 0.092359 1.709970 0.045061
v 0.077309 1.724367 0.107278
v 0.065728 1.747277 0.040520
v 0.059305 1.740447 -0.002578
v 0.045539 1.666380 -0.058089
v 0.041167 1.692398 -0.059083
v 0.020689 1.740143 0.136914
v 0.020911 1.755926 0.102020
v 0.034216 1.758605 -0.003894
v 0.033777 1.763635 0.043179
v 0.030687 1.729635 -0.041269
v 0.084851 1.678745 0.111917
v 0.053483 1.738470 0.103539
v 0.054019 1.731701 0.129584
v -0.102826 1.670917 0.010321
v -0.076141 1.668349 -0.046979
v -0.105022 1.679051 0.048127
v -0.066450 1.695295 -0.044211
v -0.092229 1.705349 0.004769
v -0.097458 1.709921 0.046340
v -0.081580 1.724326 0.108349
v -0.070911 1.747242 0.041440
v -0.065066 1.740415 -0.001739
v -0.052014 1.666355 -0.057430
v -0.047667 1.692376 -0.058484
v -0.024574 1.740131 0.137219
v -0.025274 1.755914 0.102331
v -0.040006 1.758586 -0.003394
v -0.038935 1.763616 0.043669
v -0.036966 1.729618 -0.040813
v -0.089033 1.678700 0.113090
v -0.057813 1.738441 0.104289
v -0.057995 1.731672 0.130339
v -0.003334 1.666280 -0.071831
v -0.003323 1.692980 -0.069589
v -0.001908 1.743755 0.142257
v -0.002184 1.757864 0.101850
v -0.002570 1.768552 0.044970
v -0.003146 1.733380 -0.041936
v -0.002900 1.765296 -0.004185
vn 0.808900 0.584800 0.060300
vn 0.846500 0.261800 -0.463500
vn 0.957000 0.252600 -0.143000
vn 0.800400 0.567800 -0.192100
vn 0.148900 0.514400 -0.844500
vn 0.472900 0.855200 0.211900
vn 0.472800 0.855200 0.212500
vn 0.473100 0.855300 0.211400
vn 0.121500 0.768100 -0.628700
vn 0.509700 0.848000 -0.145300
vn 0.726200 0.478400 -0.493800
vn 0.456600 0.864200 0.211200
vn 0.251300 0.043700 -0.966900
vn 0.552500 0.601700 -0.576800
vn 0.470000 0.485100 -0.737400
vn 0.153800 0.984500 -0.084600
vn 0.152800 0.918600 0.364500
vn 0.468000 0.155400 -0.869900
vn 0.370800 0.871600 0.320600
vn 0.117500 0.978700 0.168300
vn 0.957000 0.206300 0.203800
vn -0.808400 0.584400 0.071200
vn -0.852800 0.261400 -0.452000
vn -0.958900 0.252100 -0.130100
vn -0.803200 0.567400 -0.181300
vn -0.160500 0.514300 -0.842500
vn -0.470500 0.855000 0.218300
vn -0.470300 0.854900 0.218900
vn -0.470600 0.855000 0.217800
vn -0.130300 0.768100 -0.627000
vn -0.512000 0.847700 -0.138500
vn -0.733000 0.478000 -0.483900
vn -0.454200 0.864000 0.217400
vn -0.264400 0.043600 -0.963400
vn -0.560600 0.601400 -0.569300
vn -0.480200 0.484800 -0.731000
vn -0.155500 0.984400 -0.082500
vn -0.148400 0.918500 0.366600
vn -0.479800 0.155100 -0.863500
vn -0.366900 0.871400 0.325600
vn -0.115700 0.978700 0.169800
vn -0.954300 0.205800 0.216700
f 8//1 7//1 6//1
f 5//2 1//2 2//2
f 5//2 2//2 4//2
f 1//3 5//3 6//3
f 1//3 6//3 3//3
f 5//4 9//4 8//4
f 5//4 8//4 6//4
f 44//5 16//5 11//5
f 44//5 11//5 40//5
f 7//6 18//6 19//7
f 8//8 18//6 7//6
f 45//9 14//9 16//9
f 45//9 16//9 44//9
f 8//10 9//10 14//10
f 8//10 14//10 15//10
f 4//11 9//11 5//11
f 8//12 15//12 13//12
f 8//12 13//12 18//12
f 10//13 39//13 40//13
f 10//13 40//13 11//13
f 16//14 14//14 9//14
f 16//14 9//14 4//14
f 11//15 16//15 4//15
f 15//16 14//16 45//16
f 15//16 45//16 43//16
f 12//17 13//17 42//17
f 12//17 42//17 41//17
f 2//18 10//18 11//18
f 2//18 11//18 4//18
f 19//19 18//19 13//19
f 19//19 13//19 12//19
f 13//20 15//20 43//20
f 13//20 43//20 42//20
f 17//21 3//21 6//21
f 17//21 6//21 7//21
f 27//22 25//22 26//22
f 24//23 23//23 21//23
f 24//23 21//23 20//23
f 20//24 22//24 25//24
f 20//24 25//24 24//24
f 24//25 25//25 27//25
f 24//25 27//25 28//25
f 44//26 40//26 30//26
f 44//26 30//26 35//26
f 26//27 38//28 37//27
f 27//29 26//27 37//27
f 45//30 44//30 35//30
f 45//30 35//30 33//30
f 27//31 34//31 33//31
f 27//31 33//31 28//31
f 23//32 24//32 28//32
f 27//33 37//33 32//33
f 27//33 32//33 34//33
f 29//34 30//34 40//34
f 29//34 40//34 39//34
f 35//35 23//35 28//35
f 35//35 28//35 33//35
f 30//36 23//36 35//36
f 34//37 43//37 45//37
f 34//37 45//37 33//37
f 31//38 41//38 42//38
f 31//38 42//38 32//38
f 21//39 23//39 30//39
f 21//39 30//39 29//39
f 38//40 31//40 32//40
f 38//40 32//40 37//40
f 32//41 42//41 43//41
f 32//41 43//41 34//41
f 36//42 26//42 25//42
f 36//42 25//42 22//42
