# prebaked split of model.obj material Eyebrows
mtllib Eyebrows.mtl
usemtl Eyebrows
v 0.024536 1.716069 0.243099
v 0.070043 1.715925 0.228108
v 0.025937 1.703289 0.237392
v 0.070460 1.708221 0.224627
v 0.072830 1.712543 0.237509
v 0.027333 1.712995 0.250504
v 0.073248 1.704838 0.234030
v 0.028734 1.700215 0.244798
v 0.038333 1.717447 0.238772
v 0.039440 1.704785 0.233521
v 0.041128 1.714279 0.246782
v 0.042234 1.701617 0.241532
v -0.017550 1.715982 0.242904
v -0.062915 1.715651 0.227491
v -0.018846 1.703197 0.237185
v -0.063268 1.707946 0.224007
v -0.065777 1.712257 0.236867
v -0.020403 1.712896 0.250283
v -0.066130 1.704551 0.233383
v -0.021699 1.700111 0.244564
v -0.031313 1.717303 0.238448
v -0.032319 1.704637 0.233189
v -0.034168 1.714123 0.246433
v -0.035174 1.701457 0.241173
vt 0.000000 0.000000
vn -0.287800 0.359100 -0.887800
vn 0.248600 -0.365800 0.896900
vn 0.006800 -0.935200 -0.354000
vn 0.960900 0.155500 -0.229000
vn -0.939200 -0.220500 0.263200
vn 0.018200 0.929000 0.369600
vn 0.144900 0.940500 0.307300
vn 0.000300 -0.926900 -0.375400
vn 0.264500 -0.359300 0.895000
vn -0.303000 0.351600 -0.885800
vn 0.294500 0.360300 -0.885100
vn -0.255400 -0.366800 0.894600
vn 0.000300 -0.935200 -0.354000
vn -0.959400 0.151500 -0.237900
vn 0.937600 -0.216600 0.271900
vn -0.025500 0.928900 0.369400
vn -0.151600 0.939900 0.306000
vn 0.007100 -0.926800 -0.375400
vn -0.271300 -0.360400 0.892500
vn 0.309800 0.352800 -0.882900
f 10/1/1 9/1/1 2/1/1
f 10/1/1 2/1/1 4/1/1
f 12/1/2 7/1/2 5/1/2
f 12/1/2 5/1/2 11/1/2
f 10/1/3 4/1/3 7/1/3
f 10/1/3 7/1/3 12/1/3
f 4/1/4 2/1/4 5/1/4
f 4/1/4 5/1/4 7/1/4
f 1/1/5 3/1/5 8/1/5
f 1/1/5 8/1/5 6/1/5
f 9/1/6 1/1/6 6/1/6
f 9/1/6 6/1/6 11/1/6
f 2/1/7 9/1/7 11/1/7
f 2/1/7 11/1/7 5/1/7
f 3/1/8 10/1/8 12/1/8
f 3/1/8 12/1/8 8/1/8
f 8/1/9 12/1/9 11/1/9
f 8/1/9 11/1/9 6/1/9
f 3/1/10 1/1/10 9/1/10
f 3/1/10 9/1/10 10/1/10
f 22/1/11 16/1/11 14/1/11
f 22/1/11 14/1/11 21/1/11
f 24/1/12 23/1/12 17/1/12
f 24/1/12 17/1/12 19/1/12
f 22/1/13 24/1/13 19/1/13
f 22/1/13 19/1/13 16/1/13
f 16/1/14 19/1/14 17/1/14
f 16/1/14 17/1/14 14/1/14
f 13/1/15 18/1/15 20/1/15
f 13/1/15 20/1/15 15/1/15
f 21/1/16 23/1/16 18/1/16
f 21/1/16 18/1/16 13/1/16
f 14/1/17 17/1/17 23/1/17
f 14/1/17 23/1/17 21/1/17
f 15/1/18 20/1/18 24/1/18
f 15/1/18 24/1/18 22/1/18
f 20/1/19 18/1/19 23/1/19
f 20/1/19 23/1/19 24/1/19
f 15/1/20 22/1/20 21/1/20
f 15/1/20 21/1/20 13/1/20
