# Blender 5.1.1
# www.blender.org
mtllib office_shell.mtl
o BAKE_shell
v -0.075000 -0.150000 0.000000
v -0.075000 -0.150000 3.000000
v -0.075000 0.000000 0.000000
v -0.075000 0.000000 3.000000
v 18.075001 -0.150000 0.000000
v 18.075001 -0.150000 3.000000
v 18.075001 0.000000 0.000000
v 18.075001 0.000000 3.000000
v 18.150002 -0.075000 0.000000
v 18.150002 -0.075000 3.000000
v 18.000000 -0.075000 0.000000
v 18.000000 -0.075000 3.000000
v 18.150002 7.675000 0.000000
v 18.150002 7.675000 3.000000
v 18.000000 7.675000 0.000000
v 18.000000 7.675000 3.000000
v 18.075001 7.750000 0.000000
v 18.075001 7.750000 3.000000
v 18.075001 7.600000 0.000000
v 18.075001 7.600000 3.000000
v 12.525000 7.750000 0.000000
v 12.525000 7.750000 3.000000
v 12.525000 7.600000 0.000000
v 12.525000 7.600000 3.000000
v 3.500000 5.125000 0.000000
v 3.500000 5.125000 3.000000
v 3.350000 5.125000 0.000000
v 3.350000 5.125000 3.000000
v 3.500000 7.175000 0.000000
v 3.500000 7.175000 3.000000
v 3.350000 7.175000 0.000000
v 3.350000 7.175000 3.000000
v 3.425000 7.250000 0.000000
v 3.425000 7.250000 3.000000
v 3.425000 7.100000 0.000000
v 3.425000 7.100000 3.000000
v 0.665000 7.250000 0.000000
v 0.665000 7.250000 3.000000
v 0.665000 7.100000 0.000000
v 0.665000 7.100000 3.000000
v 0.712263 7.265396 0.000000
v 0.712263 7.265396 3.000000
v 0.800611 7.144174 0.000000
v 0.800611 7.144174 3.000000
v -0.588959 6.317048 0.000000
v -0.588959 6.317048 3.000000
v -0.500611 6.195826 0.000000
v -0.500611 6.195826 3.000000
v -0.594904 6.304264 0.000000
v -0.594904 6.304264 3.000000
v -0.445275 6.314814 0.000000
v -0.445275 6.314814 3.000000
v -0.144353 -0.085365 0.000000
v -0.144353 -0.085365 3.000000
v 0.005275 -0.074814 0.000000
v 0.005275 -0.074814 3.000000
v 14.065000 5.775000 0.000000
v 14.065000 5.775000 3.000000
v 14.065000 6.145000 0.000000
v 14.065000 6.145000 3.000000
v 14.435000 5.775000 0.000000
v 14.435000 5.775000 3.000000
v 14.435000 6.145000 0.000000
v 14.435000 6.145000 3.000000
v 17.860001 2.650000 0.250000
v 17.860001 2.650000 0.850000
v 17.860001 4.950000 0.250000
v 17.860001 4.950000 0.850000
v 18.000000 2.650000 0.250000
v 18.000000 2.650000 0.850000
v 18.000000 4.950000 0.250000
v 18.000000 4.950000 0.850000
v 12.450000 5.050000 0.000000
v 12.450000 5.050000 3.000000
v 12.450000 7.750000 0.000000
v 12.450000 7.750000 3.000000
v 12.599999 5.050000 0.000000
v 12.599999 5.050000 3.000000
v 12.599999 7.750000 0.000000
v 12.599999 7.750000 3.000000
v 3.275000 5.200000 0.000000
v 3.275000 5.200000 3.000000
v 3.275000 5.350000 0.000000
v 3.275000 5.350000 3.000000
v 12.674999 5.200000 0.000000
v 12.674999 5.200000 3.000000
v 12.674999 5.350000 0.000000
v 12.674999 5.350000 3.000000
v 3.350000 5.200000 2.995000
v 3.350000 5.200000 3.045000
v 3.350000 7.600000 2.995000
v 3.350000 7.600000 3.045000
v 12.600000 5.200000 2.995000
v 12.600000 5.200000 3.045000
v 12.600000 7.600000 2.995000
v 12.600000 7.600000 3.045000
v 1.400000 0.000000 0.000000
v 1.400000 0.000000 3.000000
v 1.400000 0.300000 0.000000
v 1.400000 0.300000 3.000000
v 1.760000 0.000000 0.000000
v 1.760000 0.000000 3.000000
v 1.760000 0.300000 0.000000
v 1.760000 0.300000 3.000000
v 17.934999 2.550000 2.330000
v 17.934999 2.550000 2.400000
v 17.934999 5.050000 2.330000
v 17.934999 5.050000 2.400000
v 17.995001 2.550000 2.330000
v 17.995001 2.550000 2.400000
v 17.995001 5.050000 2.330000
v 17.995001 5.050000 2.400000
v 17.934999 2.550000 0.900000
v 17.934999 2.550000 0.970000
v 17.934999 5.050000 0.900000
v 17.934999 5.050000 0.970000
v 17.995001 2.550000 0.900000
v 17.995001 2.550000 0.970000
v 17.995001 5.050000 0.900000
v 17.995001 5.050000 0.970000
v 17.934999 2.550000 0.900000
v 17.934999 2.550000 2.400000
v 17.934999 2.620000 0.900000
v 17.934999 2.620000 2.400000
v 17.995001 2.550000 0.900000
v 17.995001 2.550000 2.400000
v 17.995001 2.620000 0.900000
v 17.995001 2.620000 2.400000
v 17.934999 4.980000 0.900000
v 17.934999 4.980000 2.400000
v 17.934999 5.050000 0.900000
v 17.934999 5.050000 2.400000
v 17.995001 4.980000 0.900000
v 17.995001 4.980000 2.400000
v 17.995001 5.050000 0.900000
v 17.995001 5.050000 2.400000
v 17.934999 3.760000 0.970000
v 17.934999 3.760000 2.330000
v 17.934999 3.840000 0.970000
v 17.934999 3.840000 2.330000
v 17.995001 3.760000 0.970000
v 17.995001 3.760000 2.330000
v 17.995001 3.840000 0.970000
v 17.995001 3.840000 2.330000
v 17.937500 2.605000 1.440000
v 17.937500 2.605000 1.500000
v 17.937500 3.745000 1.440000
v 17.937500 3.745000 1.500000
v 17.992500 2.605000 1.440000
v 17.992500 2.605000 1.500000
v 17.992500 3.745000 1.440000
v 17.992500 3.745000 1.500000
v 17.915001 3.162500 1.510000
v 17.915001 3.162500 1.610000
v 17.915001 3.187500 1.510000
v 17.915001 3.187500 1.610000
v 17.945000 3.162500 1.510000
v 17.945000 3.162500 1.610000
v 17.945000 3.187500 1.510000
v 17.945000 3.187500 1.610000
v 17.937500 3.855000 1.440000
v 17.937500 3.855000 1.500000
v 17.937500 4.995000 1.440000
v 17.937500 4.995000 1.500000
v 17.992500 3.855000 1.440000
v 17.992500 3.855000 1.500000
v 17.992500 4.995000 1.440000
v 17.992500 4.995000 1.500000
v 17.915001 4.412500 1.510000
v 17.915001 4.412500 1.610000
v 17.915001 4.437500 1.510000
v 17.915001 4.437500 1.610000
v 17.945000 4.412500 1.510000
v 17.945000 4.412500 1.610000
v 17.945000 4.437500 1.510000
v 17.945000 4.437500 1.610000
v 17.820000 2.500000 0.870000
v 17.820000 2.500000 0.900000
v 17.820000 5.100000 0.870000
v 17.820000 5.100000 0.900000
v 17.980000 2.500000 0.870000
v 17.980000 2.500000 0.900000
v 17.980000 5.100000 0.870000
v 17.980000 5.100000 0.900000
v 19.590000 1.050000 0.200000
v 19.590000 1.050000 2.800000
v 19.590000 6.550000 0.200000
v 19.590000 6.550000 2.800000
v 19.610001 1.050000 0.200000
v 19.610001 1.050000 2.800000
v 19.610001 6.550000 0.200000
v 19.610001 6.550000 2.800000
v 8.349999 5.160000 2.140000
v 8.349999 5.160000 2.200000
v 8.349999 5.210000 2.140000
v 8.349999 5.210000 2.200000
v 9.050000 5.160000 2.140000
v 9.050000 5.160000 2.200000
v 9.050000 5.210000 2.140000
v 9.050000 5.210000 2.200000
v 8.349999 5.160000 1.000000
v 8.349999 5.160000 1.060000
v 8.349999 5.210000 1.000000
v 8.349999 5.210000 1.060000
v 9.050000 5.160000 1.000000
v 9.050000 5.160000 1.060000
v 9.050000 5.210000 1.000000
v 9.050000 5.210000 1.060000
v 8.350000 5.160000 1.000000
v 8.350000 5.160000 2.200000
v 8.350000 5.210000 1.000000
v 8.350000 5.210000 2.200000
v 8.410000 5.160000 1.000000
v 8.410000 5.160000 2.200000
v 8.410000 5.210000 1.000000
v 8.410000 5.210000 2.200000
v 8.990001 5.160000 1.000000
v 8.990001 5.160000 2.200000
v 8.990001 5.210000 1.000000
v 8.990001 5.210000 2.200000
v 9.050000 5.160000 1.000000
v 9.050000 5.160000 2.200000
v 9.050000 5.210000 1.000000
v 9.050000 5.210000 2.200000
v 8.400000 5.191000 1.050000
v 8.400000 5.191000 2.150000
v 8.400000 5.203000 1.050000
v 8.400000 5.203000 2.150000
v 9.000000 5.191000 1.050000
v 9.000000 5.191000 2.150000
v 9.000000 5.203000 1.050000
v 9.000000 5.203000 2.150000
v 8.309999 5.120000 2.200000
v 8.309999 5.120000 2.340000
v 8.309999 5.210000 2.200000
v 8.309999 5.210000 2.340000
v 9.090000 5.120000 2.200000
v 9.090000 5.120000 2.340000
v 9.090000 5.210000 2.200000
v 9.090000 5.210000 2.340000
v 4.000000 5.155000 0.000000
v 4.000000 5.155000 2.100000
v 4.000000 5.205000 0.000000
v 4.000000 5.205000 2.100000
v 4.900000 5.155000 0.000000
v 4.900000 5.155000 2.100000
v 4.900000 5.205000 0.000000
v 4.900000 5.205000 2.100000
v 3.930000 5.150000 2.100000
v 3.930000 5.150000 2.170000
v 3.930000 5.210000 2.100000
v 3.930000 5.210000 2.170000
v 4.970000 5.150000 2.100000
v 4.970000 5.150000 2.170000
v 4.970000 5.210000 2.100000
v 4.970000 5.210000 2.170000
v 3.930000 5.150000 0.000000
v 3.930000 5.150000 2.100000
v 3.930000 5.210000 0.000000
v 3.930000 5.210000 2.100000
v 4.000000 5.150000 0.000000
v 4.000000 5.150000 2.100000
v 4.000000 5.210000 0.000000
v 4.000000 5.210000 2.100000
v 4.900000 5.150000 0.000000
v 4.900000 5.150000 2.100000
v 4.900000 5.210000 0.000000
v 4.900000 5.210000 2.100000
v 4.970000 5.150000 0.000000
v 4.970000 5.150000 2.100000
v 4.970000 5.210000 0.000000
v 4.970000 5.210000 2.100000
v 4.110000 5.146000 1.025000
v 4.110000 5.146000 1.875000
v 4.110000 5.162000 1.025000
v 4.110000 5.162000 1.875000
v 4.410000 5.146000 1.025000
v 4.410000 5.146000 1.875000
v 4.410000 5.162000 1.025000
v 4.410000 5.162000 1.875000
v 4.110000 5.146000 0.175000
v 4.110000 5.146000 0.725000
v 4.110000 5.162000 0.175000
v 4.110000 5.162000 0.725000
v 4.410000 5.146000 0.175000
v 4.410000 5.146000 0.725000
v 4.410000 5.162000 0.175000
v 4.410000 5.162000 0.725000
v 4.490000 5.146000 1.025000
v 4.490000 5.146000 1.875000
v 4.490000 5.162000 1.025000
v 4.490000 5.162000 1.875000
v 4.790000 5.146000 1.025000
v 4.790000 5.146000 1.875000
v 4.790000 5.162000 1.025000
v 4.790000 5.162000 1.875000
v 4.490000 5.146000 0.175000
v 4.490000 5.146000 0.725000
v 4.490000 5.162000 0.175000
v 4.490000 5.162000 0.725000
v 4.790000 5.146000 0.175000
v 4.790000 5.146000 0.725000
v 4.790000 5.162000 0.175000
v 4.790000 5.162000 0.725000
v 4.065000 5.125000 1.007500
v 4.065000 5.125000 1.032500
v 4.065000 5.145000 1.007500
v 4.065000 5.145000 1.032500
v 4.175000 5.125000 1.007500
v 4.175000 5.125000 1.032500
v 4.175000 5.145000 1.007500
v 4.175000 5.145000 1.032500
v 4.120000 5.150000 0.952000
v 4.120000 5.130000 0.952000
v 4.125206 5.150000 0.950812
v 4.125206 5.130000 0.950812
v 4.129382 5.150000 0.947482
v 4.129382 5.130000 0.947482
v 4.131699 5.150000 0.942670
v 4.131699 5.130000 0.942670
v 4.131699 5.150000 0.937330
v 4.131699 5.130000 0.937330
v 4.129382 5.150000 0.932518
v 4.129382 5.130000 0.932518
v 4.125206 5.150000 0.929188
v 4.125206 5.130000 0.929188
v 4.120000 5.150000 0.928000
v 4.120000 5.130000 0.928000
v 4.114793 5.150000 0.929188
v 4.114793 5.130000 0.929188
v 4.110618 5.150000 0.932518
v 4.110618 5.130000 0.932518
v 4.108301 5.150000 0.937330
v 4.108301 5.130000 0.937330
v 4.108301 5.150000 0.942670
v 4.108301 5.130000 0.942670
v 4.110618 5.150000 0.947482
v 4.110618 5.130000 0.947482
v 4.114793 5.150000 0.950812
v 4.114793 5.130000 0.950812
v 10.150001 5.155000 0.000000
v 10.150001 5.155000 2.100000
v 10.150001 5.205000 0.000000
v 10.150001 5.205000 2.100000
v 10.950000 5.155000 0.000000
v 10.950000 5.155000 2.100000
v 10.950000 5.205000 0.000000
v 10.950000 5.205000 2.100000
v 10.080000 5.150000 2.100000
v 10.080000 5.150000 2.170000
v 10.080000 5.210000 2.100000
v 10.080000 5.210000 2.170000
v 11.020000 5.150000 2.100000
v 11.020000 5.150000 2.170000
v 11.020000 5.210000 2.100000
v 11.020000 5.210000 2.170000
v 10.080000 5.150000 0.000000
v 10.080000 5.150000 2.100000
v 10.080000 5.210000 0.000000
v 10.080000 5.210000 2.100000
v 10.150000 5.150000 0.000000
v 10.150000 5.150000 2.100000
v 10.150000 5.210000 0.000000
v 10.150000 5.210000 2.100000
v 10.250000 5.146000 1.025000
v 10.250000 5.146000 1.875000
v 10.250000 5.162000 1.025000
v 10.250000 5.162000 1.875000
v 10.510000 5.146000 1.025000
v 10.510000 5.146000 1.875000
v 10.510000 5.162000 1.025000
v 10.510000 5.162000 1.875000
v 10.250000 5.146000 0.175000
v 10.250000 5.146000 0.725000
v 10.250000 5.162000 0.175000
v 10.250000 5.162000 0.725000
v 10.510000 5.146000 0.175000
v 10.510000 5.146000 0.725000
v 10.510000 5.162000 0.175000
v 10.510000 5.162000 0.725000
v 10.950000 5.150000 0.000000
v 10.950000 5.150000 2.100000
v 10.950000 5.210000 0.000000
v 10.950000 5.210000 2.100000
v 11.020000 5.150000 0.000000
v 11.020000 5.150000 2.100000
v 11.020000 5.210000 0.000000
v 11.020000 5.210000 2.100000
v 10.590000 5.146000 1.025000
v 10.590000 5.146000 1.875000
v 10.590000 5.162000 1.025000
v 10.590000 5.162000 1.875000
v 10.850000 5.146000 1.025000
v 10.850000 5.146000 1.875000
v 10.850000 5.162000 1.025000
v 10.850000 5.162000 1.875000
v 10.590000 5.146000 0.175000
v 10.590000 5.146000 0.725000
v 10.590000 5.162000 0.175000
v 10.590000 5.162000 0.725000
v 10.850000 5.146000 0.175000
v 10.850000 5.146000 0.725000
v 10.850000 5.162000 0.175000
v 10.850000 5.162000 0.725000
v 10.200000 5.125000 1.009000
v 10.200000 5.125000 1.031000
v 10.200000 5.145000 1.009000
v 10.200000 5.145000 1.031000
v 10.300000 5.125000 1.009000
v 10.300000 5.125000 1.031000
v 10.300000 5.145000 1.009000
v 10.300000 5.145000 1.031000
v 5.095000 5.152500 1.405000
v 5.095000 5.152500 1.595000
v 5.095000 5.197500 1.405000
v 5.095000 5.197500 1.595000
v 5.205000 5.152500 1.405000
v 5.205000 5.152500 1.595000
v 5.205000 5.197500 1.405000
v 5.205000 5.197500 1.595000
v 5.105000 5.142000 1.522500
v 5.105000 5.142000 1.567500
v 5.105000 5.154000 1.522500
v 5.105000 5.154000 1.567500
v 5.155000 5.142000 1.522500
v 5.155000 5.142000 1.567500
v 5.155000 5.154000 1.522500
v 5.155000 5.154000 1.567500
v 5.377500 5.169000 1.007500
v 5.377500 5.169000 1.092500
v 5.377500 5.187000 1.007500
v 5.377500 5.187000 1.092500
v 5.462500 5.169000 1.007500
v 5.462500 5.169000 1.092500
v 5.462500 5.187000 1.007500
v 5.462500 5.187000 1.092500
v 10.007501 5.169000 1.007500
v 10.007501 5.169000 1.092500
v 10.007501 5.187000 1.007500
v 10.007501 5.187000 1.092500
v 10.092500 5.169000 1.007500
v 10.092500 5.169000 1.092500
v 10.092500 5.187000 1.007500
v 10.092500 5.187000 1.092500
v 5.377500 5.169000 1.937500
v 5.377500 5.169000 2.022500
v 5.377500 5.187000 1.937500
v 5.377500 5.187000 2.022500
v 5.462500 5.169000 1.937500
v 5.462500 5.169000 2.022500
v 5.462500 5.187000 1.937500
v 5.462500 5.187000 2.022500
v 4.870000 5.170500 2.490000
v 4.870000 5.170500 2.750000
v 4.870000 5.185500 2.490000
v 4.870000 5.185500 2.750000
v 5.130000 5.170500 2.490000
v 5.130000 5.170500 2.750000
v 5.130000 5.185500 2.490000
v 5.130000 5.185500 2.750000
v 7.420000 5.170500 2.490000
v 7.420000 5.170500 2.750000
v 7.420000 5.185500 2.490000
v 7.420000 5.185500 2.750000
v 7.680000 5.170500 2.490000
v 7.680000 5.170500 2.750000
v 7.680000 5.185500 2.490000
v 7.680000 5.185500 2.750000
v 0.000000 0.044000 0.000000
v 0.000000 0.044000 0.080000
v 0.000000 0.056000 0.000000
v 0.000000 0.056000 0.080000
v 18.000000 0.044000 0.000000
v 18.000000 0.044000 0.080000
v 18.000000 0.056000 0.000000
v 18.000000 0.056000 0.080000
v 17.983999 0.020000 0.000000
v 17.983999 0.020000 0.080000
v 17.983999 7.580000 0.000000
v 17.983999 7.580000 0.080000
v 17.996000 0.020000 0.000000
v 17.996000 0.020000 0.080000
v 17.996000 7.580000 0.000000
v 17.996000 7.580000 0.080000
v 12.620000 7.579000 0.000000
v 12.620000 7.579000 0.080000
v 12.620000 7.591000 0.000000
v 12.620000 7.591000 0.080000
v 17.980000 7.579000 0.000000
v 17.980000 7.579000 0.080000
v 17.980000 7.591000 0.000000
v 17.980000 7.591000 0.080000
v 12.599000 5.220000 0.000000
v 12.599000 5.220000 0.080000
v 12.599000 7.580000 0.000000
v 12.599000 7.580000 0.080000
v 12.610999 5.220000 0.000000
v 12.610999 5.220000 0.080000
v 12.610999 7.580000 0.000000
v 12.610999 7.580000 0.080000
v 3.370000 5.184000 0.000000
v 3.370000 5.184000 0.080000
v 3.370000 5.196000 0.000000
v 3.370000 5.196000 0.080000
v 4.000000 5.184000 0.000000
v 4.000000 5.184000 0.080000
v 4.000000 5.196000 0.000000
v 4.000000 5.196000 0.080000
v 4.900000 5.184000 0.000000
v 4.900000 5.184000 0.080000
v 4.900000 5.196000 0.000000
v 4.900000 5.196000 0.080000
v 10.150000 5.184000 0.000000
v 10.150000 5.184000 0.080000
v 10.150000 5.196000 0.000000
v 10.150000 5.196000 0.080000
v 10.950001 5.184000 0.000000
v 10.950001 5.184000 0.080000
v 10.950001 5.196000 0.000000
v 10.950001 5.196000 0.080000
v 12.580000 5.184000 0.000000
v 12.580000 5.184000 0.080000
v 12.580000 5.196000 0.000000
v 12.580000 5.196000 0.080000
v 3.356000 5.220000 0.000000
v 3.356000 5.220000 0.080000
v 3.356000 7.080000 0.000000
v 3.356000 7.080000 0.080000
v 3.368000 5.220000 0.000000
v 3.368000 5.220000 0.080000
v 3.368000 7.080000 0.000000
v 3.368000 7.080000 0.080000
v 0.760000 7.082000 0.000000
v 0.760000 7.082000 0.080000
v 0.760000 7.094000 0.000000
v 0.760000 7.094000 0.080000
v 3.340000 7.082000 0.000000
v 3.340000 7.082000 0.080000
v 3.340000 7.094000 0.000000
v 3.340000 7.094000 0.080000
v 0.006000 0.020000 0.000000
v 0.006000 0.020000 0.080000
v 0.006000 6.220000 0.000000
v 0.006000 6.220000 0.080000
v 0.018000 0.020000 0.000000
v 0.018000 0.020000 0.080000
v 0.018000 6.220000 0.000000
v 0.018000 6.220000 0.080000
v 0.000000 0.000000 3.080000
v 18.000000 0.000000 3.080000
v 18.000000 7.600000 3.080000
v 12.600000 7.600000 3.080000
v 12.600000 7.100000 3.080000
v 10.950000 7.100000 3.080000
v 10.950000 5.200000 3.080000
v 3.350000 5.200000 3.080000
v 3.350000 7.100000 3.080000
v 0.740000 7.100000 3.080000
v -0.440000 6.240000 3.080000
v 0.000000 0.000000 3.000000
v 18.000000 0.000000 3.000000
v 18.000000 7.600000 3.000000
v 12.600000 7.600000 3.000000
v 12.600000 7.100000 3.000000
v 10.950000 7.100000 3.000000
v 10.950000 5.200000 3.000000
v 3.350000 5.200000 3.000000
v 3.350000 7.100000 3.000000
v 0.740000 7.100000 3.000000
v -0.440000 6.240000 3.000000
vn -1.0000 -0.0000 -0.0000
vn -0.0000 1.0000 -0.0000
vn 1.0000 -0.0000 -0.0000
vn -0.0000 -1.0000 -0.0000
vn -0.0000 -0.0000 -1.0000
vn -0.0000 -0.0000 1.0000
vn 0.8081 0.5890 -0.0000
vn 0.5890 -0.8081 -0.0000
vn -0.8081 -0.5890 -0.0000
vn -0.5890 0.8081 -0.0000
vn -0.0703 0.9975 -0.0000
vn 0.9975 0.0703 -0.0000
vn 0.0703 -0.9975 -0.0000
vn -0.9975 -0.0703 -0.0000
vn 0.2225 -0.0000 0.9749
vn 0.6235 -0.0000 0.7818
vn 0.9010 -0.0000 0.4339
vn 0.9010 -0.0000 -0.4339
vn 0.6235 -0.0000 -0.7818
vn 0.2225 -0.0000 -0.9749
vn -0.2225 -0.0000 -0.9749
vn -0.6235 -0.0000 -0.7818
vn -0.9010 -0.0000 -0.4339
vn -0.9010 -0.0000 0.4339
vn -0.6235 -0.0000 0.7818
vn -0.2225 -0.0000 0.9749
vt 0.689656 0.977915
vt 0.689656 0.877195
vt 0.694691 0.877195
vt 0.694691 0.977915
vt 0.722594 0.610808
vt 0.621874 0.610808
vt 0.621874 0.001549
vt 0.722594 0.001549
vt 0.681522 0.977915
vt 0.681522 0.877195
vt 0.686558 0.877195
vt 0.686558 0.977915
vt 0.618776 0.610903
vt 0.518057 0.610903
vt 0.518057 0.001549
vt 0.618776 0.001549
vt 0.918217 0.001549
vt 0.918217 0.610903
vt 0.913181 0.610903
vt 0.913181 0.001549
vt 0.926350 0.001549
vt 0.926350 0.610903
vt 0.921314 0.610903
vt 0.921314 0.001549
vt 0.697789 0.977915
vt 0.697789 0.877195
vt 0.702825 0.877195
vt 0.702825 0.977915
vt 0.618776 0.874192
vt 0.518057 0.874192
vt 0.518057 0.614000
vt 0.618776 0.614000
vt 0.542456 0.978009
vt 0.542456 0.877290
vt 0.547492 0.877290
vt 0.547492 0.978009
vt 0.722594 0.874098
vt 0.621874 0.874098
vt 0.621874 0.613905
vt 0.722594 0.613905
vt 0.934484 0.608964
vt 0.934484 0.869157
vt 0.929448 0.869157
vt 0.929448 0.608964
vt 0.937581 0.869157
vt 0.937581 0.608964
vt 0.942617 0.608964
vt 0.942617 0.869157
vt 0.406745 0.913856
vt 0.406745 0.813136
vt 0.411781 0.813136
vt 0.411781 0.913856
vt 0.309903 0.810068
vt 0.209183 0.810068
vt 0.209183 0.623737
vt 0.309903 0.623737
vt 0.518057 0.978009
vt 0.518057 0.877290
vt 0.523093 0.877290
vt 0.523093 0.978009
vt 0.413720 0.810039
vt 0.313000 0.810039
vt 0.313000 0.623737
vt 0.413720 0.623737
vt 0.958834 0.323516
vt 0.958834 0.509848
vt 0.953798 0.509848
vt 0.953798 0.323516
vt 0.959967 0.608964
vt 0.959967 0.795296
vt 0.954931 0.795296
vt 0.954931 0.608964
vt 0.199523 0.942090
vt 0.199523 0.841370
vt 0.204559 0.841370
vt 0.204559 0.942090
vt 0.725691 0.927340
vt 0.725691 0.826621
vt 0.794516 0.826621
vt 0.794516 0.927340
vt 0.550589 0.978009
vt 0.550589 0.877290
vt 0.555624 0.877290
vt 0.555624 0.978009
vt 0.209183 0.913885
vt 0.209183 0.813165
vt 0.278008 0.813165
vt 0.278008 0.913885
vt 0.978533 0.534768
vt 0.978533 0.603593
vt 0.973497 0.603593
vt 0.973497 0.534768
vt 0.009346 0.983811
vt 0.009346 0.914986
vt 0.014382 0.914986
vt 0.014382 0.983811
vt 0.967840 0.966595
vt 0.967840 0.865875
vt 0.972876 0.865875
vt 0.972876 0.966595
vt 0.816079 0.739591
vt 0.816079 0.638871
vt 0.908741 0.638871
vt 0.908741 0.739591
vt 0.526190 0.978009
vt 0.526190 0.877290
vt 0.531226 0.877290
vt 0.531226 0.978009
vt 0.816079 0.843408
vt 0.816079 0.742688
vt 0.908726 0.742688
vt 0.908726 0.843408
vt 0.953798 0.605607
vt 0.953798 0.512945
vt 0.958834 0.512945
vt 0.958834 0.605607
vt 0.588138 0.877290
vt 0.588138 0.969952
vt 0.583102 0.969952
vt 0.583102 0.877290
vt 0.296411 0.987486
vt 0.296411 0.886767
vt 0.300484 0.886767
vt 0.300484 0.987486
vt 0.152705 0.942090
vt 0.152705 0.841370
vt 0.196425 0.841370
vt 0.196425 0.942090
vt 0.289238 0.987486
vt 0.289238 0.886767
vt 0.293314 0.886767
vt 0.293314 0.987486
vt 0.105366 0.942090
vt 0.105366 0.841370
vt 0.149608 0.841370
vt 0.149608 0.942090
vt 0.037179 0.969043
vt 0.037179 0.914986
vt 0.042215 0.914986
vt 0.042215 0.969043
vt 0.034082 0.914986
vt 0.034082 0.969043
vt 0.029046 0.969043
vt 0.029046 0.914986
vt 0.566854 0.978009
vt 0.566854 0.877290
vt 0.571883 0.877290
vt 0.571883 0.978009
vt 0.206085 0.838273
vt 0.105366 0.838273
vt 0.105366 0.623737
vt 0.206085 0.623737
vt 0.574980 0.978009
vt 0.574980 0.877290
vt 0.580004 0.877290
vt 0.580004 0.978009
vt 0.102268 0.838287
vt 0.001549 0.838287
vt 0.001549 0.623737
vt 0.102268 0.623737
vt 0.946797 0.824018
vt 0.946797 0.608965
vt 0.951833 0.608965
vt 0.951833 0.824018
vt 0.958834 0.001549
vt 0.958834 0.216602
vt 0.953798 0.216602
vt 0.953798 0.001549
vt 0.878080 0.947225
vt 0.878080 0.846505
vt 0.890503 0.846505
vt 0.890503 0.947225
vt 0.893600 0.947225
vt 0.893600 0.846505
vt 0.906020 0.846505
vt 0.906020 0.947225
vt 0.862561 0.947225
vt 0.862561 0.846505
vt 0.874983 0.846505
vt 0.874983 0.947225
vt 0.797613 0.927340
vt 0.797613 0.826621
vt 0.810035 0.826621
vt 0.810035 0.927340
vt 0.738113 0.930438
vt 0.738113 0.942860
vt 0.725691 0.942860
vt 0.725691 0.930438
vt 0.753632 0.930438
vt 0.753632 0.942860
vt 0.741210 0.942860
vt 0.741210 0.930438
vt 0.859464 0.923723
vt 0.839320 0.923723
vt 0.839320 0.846505
vt 0.859464 0.846505
vt 0.105366 0.965331
vt 0.105366 0.945187
vt 0.110065 0.945187
vt 0.110065 0.965331
vt 0.836223 0.923723
vt 0.816079 0.923723
vt 0.816079 0.846505
vt 0.836223 0.846505
vt 0.954931 0.818537
vt 0.954931 0.798393
vt 0.959631 0.798393
vt 0.959631 0.818537
vt 0.308282 0.963985
vt 0.303582 0.963985
vt 0.303582 0.886767
vt 0.308282 0.886767
vt 0.006249 0.992204
vt 0.001549 0.992204
vt 0.001549 0.914986
vt 0.006249 0.914986
vt 0.313000 0.913856
vt 0.313000 0.813136
vt 0.403647 0.813136
vt 0.403647 0.913856
vt 0.558721 0.978009
vt 0.558721 0.877290
vt 0.563757 0.877290
vt 0.563757 0.978009
vt 0.416817 0.912207
vt 0.416817 0.811487
vt 0.507465 0.811487
vt 0.507465 0.912207
vt 0.705922 0.977915
vt 0.705922 0.877195
vt 0.710958 0.877195
vt 0.710958 0.977915
vt 0.613209 0.967937
vt 0.608173 0.967937
vt 0.608173 0.877290
vt 0.613209 0.877290
vt 0.286141 0.977414
vt 0.281105 0.977414
vt 0.281105 0.886767
vt 0.286141 0.886767
vt 0.534323 0.978009
vt 0.534323 0.877290
vt 0.539359 0.877290
vt 0.539359 0.978009
vt 0.826411 0.635774
vt 0.725691 0.635774
vt 0.725691 0.320234
vt 0.826411 0.320234
vt 0.714055 0.977915
vt 0.714055 0.877195
vt 0.719091 0.877195
vt 0.719091 0.977915
vt 0.826411 0.317137
vt 0.725691 0.317137
vt 0.725691 0.001549
vt 0.826411 0.001549
vt 0.926350 0.614000
vt 0.926350 0.929589
vt 0.921314 0.929589
vt 0.921314 0.614000
vt 0.918217 0.614000
vt 0.918217 0.929589
vt 0.913181 0.929589
vt 0.913181 0.614000
vt 0.461402 0.995879
vt 0.459723 0.995879
vt 0.459723 0.915304
vt 0.461402 0.915304
vt 0.964742 0.919469
vt 0.963064 0.919469
vt 0.963064 0.608964
vt 0.964742 0.608964
vt 0.456626 0.995880
vt 0.454947 0.995880
vt 0.454947 0.915304
vt 0.456626 0.915304
vt 0.514959 0.934289
vt 0.513281 0.934289
vt 0.513281 0.623737
vt 0.514959 0.623737
vt 0.910084 0.001549
vt 0.910084 0.312101
vt 0.829508 0.312101
vt 0.829508 0.001549
vt 0.910084 0.315199
vt 0.910084 0.625751
vt 0.829508 0.625751
vt 0.829508 0.315199
vt 0.621874 0.977915
vt 0.621874 0.877195
vt 0.631946 0.877195
vt 0.631946 0.977915
vt 0.953798 0.320419
vt 0.953798 0.219699
vt 0.965882 0.219699
vt 0.965882 0.320419
vt 0.929448 0.972974
vt 0.929448 0.872254
vt 0.939520 0.872254
vt 0.939520 0.972974
vt 0.946797 0.927835
vt 0.946797 0.827115
vt 0.958884 0.827115
vt 0.958884 0.927835
vt 0.240037 0.938545
vt 0.240037 0.950631
vt 0.229965 0.950631
vt 0.229965 0.938545
vt 0.253206 0.938545
vt 0.253206 0.950631
vt 0.243134 0.950631
vt 0.243134 0.938545
vt 0.994683 0.327271
vt 0.992333 0.327271
vt 0.992333 0.243338
vt 0.994683 0.243338
vt 0.235077 0.961526
vt 0.235077 0.959176
vt 0.237091 0.959176
vt 0.237091 0.961526
vt 0.618656 0.961223
vt 0.616306 0.961223
vt 0.616306 0.877290
vt 0.618656 0.877290
vt 0.229965 0.956079
vt 0.229965 0.953729
vt 0.231980 0.953729
vt 0.231980 0.956079
vt 0.996361 0.526039
vt 0.994347 0.526039
vt 0.994347 0.442105
vt 0.996361 0.442105
vt 0.997704 0.692898
vt 0.995690 0.692898
vt 0.995690 0.608964
vt 0.997704 0.608964
vt 0.994683 0.414301
vt 0.992333 0.414301
vt 0.992333 0.330368
vt 0.994683 0.330368
vt 0.240188 0.961526
vt 0.240188 0.959176
vt 0.242202 0.959176
vt 0.242202 0.961526
vt 0.994683 0.240241
vt 0.992333 0.240241
vt 0.992333 0.156308
vt 0.994683 0.156308
vt 0.245300 0.956079
vt 0.245300 0.953729
vt 0.247315 0.953729
vt 0.247315 0.956079
vt 0.997704 0.779928
vt 0.995690 0.779928
vt 0.995690 0.695995
vt 0.997704 0.695995
vt 0.997704 0.866958
vt 0.995690 0.866958
vt 0.995690 0.783025
vt 0.997704 0.783025
vt 0.406643 0.967313
vt 0.406643 0.916953
vt 0.408993 0.916953
vt 0.408993 0.967313
vt 0.656161 0.967583
vt 0.656161 0.917223
vt 0.658175 0.917223
vt 0.658175 0.967583
vt 0.401196 0.967313
vt 0.401196 0.916953
vt 0.403546 0.916953
vt 0.403546 0.967313
vt 0.640826 0.967583
vt 0.640826 0.917223
vt 0.642841 0.917223
vt 0.642841 0.967583
vt 0.237091 0.956079
vt 0.235077 0.956079
vt 0.235077 0.953729
vt 0.237091 0.953729
vt 0.242203 0.956079
vt 0.240189 0.956079
vt 0.240189 0.953729
vt 0.242203 0.953729
vt 0.209183 0.967342
vt 0.209183 0.916982
vt 0.211533 0.916982
vt 0.211533 0.967342
vt 0.651050 0.967583
vt 0.651050 0.917223
vt 0.653064 0.917223
vt 0.653064 0.967583
vt 0.214630 0.967342
vt 0.214630 0.916982
vt 0.216980 0.916982
vt 0.216980 0.967342
vt 0.645938 0.967583
vt 0.645938 0.917223
vt 0.647952 0.917223
vt 0.647952 0.967583
vt 0.252426 0.956079
vt 0.250412 0.956079
vt 0.250412 0.953729
vt 0.252426 0.953729
vt 0.956945 0.823985
vt 0.954931 0.823985
vt 0.954931 0.821635
vt 0.956945 0.821635
vt 0.635043 0.962883
vt 0.635043 0.917223
vt 0.637729 0.917223
vt 0.637729 0.962883
vt 0.962728 0.968225
vt 0.962728 0.922566
vt 0.964743 0.922566
vt 0.964743 0.968225
vt 0.272751 0.962642
vt 0.272751 0.916982
vt 0.275437 0.916982
vt 0.275437 0.962642
vt 0.673099 0.962883
vt 0.673099 0.917223
vt 0.675113 0.917223
vt 0.675113 0.962883
vt 0.897991 0.953008
vt 0.895976 0.953008
vt 0.895976 0.950322
vt 0.897991 0.950322
vt 0.903102 0.953008
vt 0.901088 0.953008
vt 0.901088 0.950322
vt 0.903102 0.950322
vt 0.805008 0.968711
vt 0.802994 0.968711
vt 0.802994 0.930438
vt 0.805008 0.930438
vt 0.895976 0.963567
vt 0.895976 0.961553
vt 0.897822 0.961553
vt 0.897822 0.963567
vt 0.794785 0.968711
vt 0.792771 0.968711
vt 0.792771 0.930438
vt 0.794785 0.930438
vt 0.839730 0.963567
vt 0.839730 0.961552
vt 0.841576 0.961552
vt 0.841576 0.963567
vt 0.221924 0.976819
vt 0.220078 0.976819
vt 0.220078 0.938545
vt 0.221924 0.938545
vt 0.226868 0.976819
vt 0.225021 0.976819
vt 0.225021 0.938545
vt 0.226868 0.938545
vt 0.353037 0.963772
vt 0.353037 0.960414
vt 0.353877 0.960414
vt 0.353877 0.963772
vt 0.756730 0.963079
vt 0.756730 0.959722
vt 0.757737 0.959722
vt 0.757737 0.963079
vt 0.356974 0.963772
vt 0.356974 0.960414
vt 0.357813 0.960414
vt 0.357813 0.963772
vt 0.249237 0.962533
vt 0.249237 0.959176
vt 0.250244 0.959176
vt 0.250244 0.962533
vt 0.896815 0.966664
vt 0.896815 0.967671
vt 0.895976 0.967671
vt 0.895976 0.966664
vt 0.900752 0.966664
vt 0.900752 0.967671
vt 0.899913 0.967671
vt 0.899913 0.966664
vt 0.799897 0.968711
vt 0.797882 0.968711
vt 0.797882 0.930438
vt 0.799897 0.930438
vt 0.901088 0.963567
vt 0.901088 0.961553
vt 0.902934 0.961553
vt 0.902934 0.963567
vt 0.789673 0.968711
vt 0.787659 0.968711
vt 0.787659 0.930438
vt 0.789673 0.930438
vt 0.844674 0.963567
vt 0.844674 0.961552
vt 0.846520 0.961552
vt 0.846520 0.963567
vt 0.975344 0.039822
vt 0.973497 0.039822
vt 0.973497 0.001549
vt 0.975344 0.001549
vt 0.975470 0.858489
vt 0.973623 0.858489
vt 0.973623 0.820215
vt 0.975470 0.820215
vt 0.360911 0.963772
vt 0.360911 0.960414
vt 0.361750 0.960414
vt 0.361750 0.963772
vt 0.341395 0.963772
vt 0.341395 0.960414
vt 0.342402 0.960414
vt 0.342402 0.963772
vt 0.364847 0.963772
vt 0.364847 0.960414
vt 0.365686 0.960414
vt 0.365686 0.963772
vt 0.764527 0.963075
vt 0.764527 0.959718
vt 0.765534 0.959718
vt 0.765534 0.963075
vt 0.904689 0.966664
vt 0.904689 0.967671
vt 0.903849 0.967671
vt 0.903849 0.966664
vt 0.331734 0.966869
vt 0.331734 0.967876
vt 0.330895 0.967876
vt 0.330895 0.966869
vt 0.996697 0.957346
vt 0.995690 0.957346
vt 0.995690 0.870056
vt 0.996697 0.870056
vt 0.905358 0.634219
vt 0.904351 0.634219
vt 0.904351 0.628848
vt 0.905358 0.628848
vt 0.943624 0.959545
vt 0.942617 0.959545
vt 0.942617 0.872254
vt 0.943624 0.872254
vt 0.901254 0.634220
vt 0.900246 0.634220
vt 0.900246 0.628848
vt 0.901254 0.628848
vt 0.596606 0.964580
vt 0.591235 0.964580
vt 0.591235 0.877290
vt 0.596606 0.877290
vt 0.605075 0.964580
vt 0.599704 0.964580
vt 0.599704 0.877290
vt 0.605075 0.877290
vt 0.812981 0.823523
vt 0.725691 0.823523
vt 0.725691 0.638871
vt 0.812981 0.638871
vt 0.997780 0.243598
vt 0.997780 0.156308
vt 0.998451 0.156308
vt 0.998451 0.243598
vt 0.504107 0.808389
vt 0.416817 0.808389
vt 0.416817 0.623737
vt 0.504107 0.623737
vt 0.909117 0.933795
vt 0.909117 0.846505
vt 0.909789 0.846505
vt 0.909789 0.933795
vt 0.989235 0.251258
vt 0.988564 0.251258
vt 0.988564 0.066605
vt 0.989235 0.066605
vt 0.989235 0.439008
vt 0.988564 0.439008
vt 0.988564 0.254355
vt 0.989235 0.254355
vt 0.961931 0.216187
vt 0.961931 0.214172
vt 0.963610 0.214172
vt 0.963610 0.216187
vt 0.737929 0.969455
vt 0.735914 0.969455
vt 0.735914 0.945957
vt 0.737929 0.945957
vt 0.330895 0.963772
vt 0.330895 0.961757
vt 0.332574 0.961757
vt 0.332574 0.963772
vt 0.202433 0.968688
vt 0.200418 0.968688
vt 0.200418 0.945187
vt 0.202433 0.945187
vt 0.969393 0.581730
vt 0.969393 0.605232
vt 0.967714 0.605232
vt 0.967714 0.581730
vt 0.742889 0.945957
vt 0.742889 0.969459
vt 0.741210 0.969459
vt 0.741210 0.945957
vt 0.335671 0.963772
vt 0.335671 0.961757
vt 0.337350 0.961757
vt 0.337350 0.963772
vt 0.732817 0.969455
vt 0.730803 0.969455
vt 0.730803 0.945957
vt 0.732817 0.945957
vt 0.862561 0.964163
vt 0.862561 0.962148
vt 0.864240 0.962148
vt 0.864240 0.964163
vt 0.727705 0.969458
vt 0.725691 0.969458
vt 0.725691 0.945957
vt 0.727705 0.945957
vt 0.747665 0.945957
vt 0.747665 0.969458
vt 0.745986 0.969458
vt 0.745986 0.945957
vt 0.752441 0.945957
vt 0.752441 0.969459
vt 0.750762 0.969459
vt 0.750762 0.945957
vt 0.951573 0.971220
vt 0.951573 0.930932
vt 0.953252 0.930932
vt 0.953252 0.971220
vt 0.777436 0.970726
vt 0.777436 0.930438
vt 0.779450 0.930438
vt 0.779450 0.970726
vt 0.808106 0.970726
vt 0.808106 0.930438
vt 0.809784 0.930438
vt 0.809784 0.970726
vt 0.855055 0.967109
vt 0.855055 0.926821
vt 0.857069 0.926821
vt 0.857069 0.967109
vt 0.869016 0.962148
vt 0.869016 0.964163
vt 0.867337 0.964163
vt 0.867337 0.962148
vt 0.873792 0.962148
vt 0.873792 0.964163
vt 0.872113 0.964163
vt 0.872113 0.962148
vt 0.956349 0.971220
vt 0.956349 0.930932
vt 0.958028 0.930932
vt 0.958028 0.971220
vt 0.782548 0.970726
vt 0.782548 0.930438
vt 0.784562 0.930438
vt 0.784562 0.970726
vt 0.946797 0.971220
vt 0.946797 0.930932
vt 0.948476 0.930932
vt 0.948476 0.971220
vt 0.772325 0.970726
vt 0.772325 0.930438
vt 0.774339 0.930438
vt 0.774339 0.970726
vt 0.878643 0.962148
vt 0.878643 0.964163
vt 0.876965 0.964163
vt 0.876965 0.962148
vt 0.883419 0.962148
vt 0.883419 0.964163
vt 0.881740 0.964163
vt 0.881740 0.962148
vt 0.149616 0.982118
vt 0.149616 0.945187
vt 0.150018 0.945187
vt 0.150018 0.982118
vt 0.658284 0.914126
vt 0.658284 0.877195
vt 0.678425 0.877195
vt 0.678425 0.914126
vt 0.909117 0.973823
vt 0.909117 0.936893
vt 0.909520 0.936893
vt 0.909520 0.973823
vt 0.635043 0.914126
vt 0.635043 0.877195
vt 0.655187 0.877195
vt 0.655187 0.914126
vt 0.084057 0.946620
vt 0.084057 0.966764
vt 0.083654 0.966764
vt 0.083654 0.946620
vt 0.087557 0.946620
vt 0.087557 0.966764
vt 0.087154 0.966764
vt 0.087154 0.946620
vt 0.843088 0.633549
vt 0.843088 0.628848
vt 0.846110 0.628848
vt 0.846110 0.633549
vt 0.769227 0.956621
vt 0.764527 0.956621
vt 0.764527 0.930438
vt 0.769227 0.930438
vt 0.849207 0.633549
vt 0.849207 0.628848
vt 0.852228 0.628848
vt 0.852228 0.633549
vt 0.761430 0.956625
vt 0.756730 0.956625
vt 0.756730 0.930438
vt 0.761430 0.930438
vt 0.669741 0.938785
vt 0.669741 0.964973
vt 0.666720 0.964973
vt 0.666720 0.938785
vt 0.116184 0.945187
vt 0.116184 0.971374
vt 0.113162 0.971374
vt 0.113162 0.945187
vt 0.380078 0.987457
vt 0.380078 0.916953
vt 0.381756 0.916953
vt 0.381756 0.987457
vt 0.034862 0.911888
vt 0.034862 0.841385
vt 0.065073 0.841385
vt 0.065073 0.911888
vt 0.370526 0.987457
vt 0.370526 0.916953
vt 0.372204 0.916953
vt 0.372204 0.987457
vt 0.001549 0.911888
vt 0.001549 0.841385
vt 0.031765 0.841385
vt 0.031765 0.911888
vt 0.514959 0.937386
vt 0.514959 0.967602
vt 0.513281 0.967602
vt 0.513281 0.937386
vt 0.131183 0.945187
vt 0.131183 0.975403
vt 0.129505 0.975403
vt 0.129505 0.945187
vt 0.895976 0.958455
vt 0.895976 0.956105
vt 0.897991 0.956105
vt 0.897991 0.958455
vt 0.923665 0.967597
vt 0.921314 0.967597
vt 0.921314 0.932686
vt 0.923665 0.932686
vt 0.901088 0.958455
vt 0.901088 0.956105
vt 0.903102 0.956105
vt 0.903102 0.958455
vt 0.915531 0.967602
vt 0.913181 0.967602
vt 0.913181 0.932686
vt 0.915531 0.932686
vt 0.258318 0.938545
vt 0.258318 0.973461
vt 0.256304 0.973461
vt 0.256304 0.938545
vt 0.263430 0.938545
vt 0.263430 0.973461
vt 0.261415 0.973461
vt 0.261415 0.938545
vt 0.508078 0.985808
vt 0.508078 0.915304
vt 0.510093 0.915304
vt 0.510093 0.985808
vt 0.433159 0.985808
vt 0.433159 0.915304
vt 0.435509 0.915304
vt 0.435509 0.985808
vt 0.487632 0.985808
vt 0.487632 0.915304
vt 0.489646 0.915304
vt 0.489646 0.985808
vt 0.974763 0.320159
vt 0.974763 0.249655
vt 0.977113 0.249655
vt 0.977113 0.320159
vt 0.155130 0.957013
vt 0.155130 0.959363
vt 0.153116 0.959363
vt 0.153116 0.957013
vt 0.160242 0.957013
vt 0.160242 0.959363
vt 0.158227 0.959363
vt 0.158227 0.957013
vt 0.985064 0.605271
vt 0.985064 0.534768
vt 0.987078 0.534768
vt 0.987078 0.605271
vt 0.444053 0.985808
vt 0.444053 0.915304
vt 0.446403 0.915304
vt 0.446403 0.985808
vt 0.492743 0.985808
vt 0.492743 0.915304
vt 0.494758 0.915304
vt 0.494758 0.985808
vt 0.416817 0.985808
vt 0.416817 0.915304
vt 0.419167 0.915304
vt 0.419167 0.985808
vt 0.175577 0.957013
vt 0.175577 0.959363
vt 0.173562 0.959363
vt 0.173562 0.957013
vt 0.180689 0.957013
vt 0.180689 0.959363
vt 0.178674 0.959363
vt 0.178674 0.957013
vt 0.062116 0.975158
vt 0.062116 0.946620
vt 0.062653 0.946620
vt 0.062653 0.975158
vt 0.071651 0.943523
vt 0.071651 0.914986
vt 0.081721 0.914986
vt 0.081721 0.943523
vt 0.205530 0.973724
vt 0.205530 0.945187
vt 0.206067 0.945187
vt 0.206067 0.973724
vt 0.045312 0.943523
vt 0.045312 0.914986
vt 0.055384 0.914986
vt 0.055384 0.943523
vt 0.840267 0.948383
vt 0.840267 0.958455
vt 0.839730 0.958455
vt 0.839730 0.948383
vt 0.843901 0.948383
vt 0.843901 0.958455
vt 0.843364 0.958455
vt 0.843364 0.948383
vt 0.090654 0.965086
vt 0.090654 0.946620
vt 0.091191 0.946620
vt 0.091191 0.965086
vt 0.246416 0.935448
vt 0.246416 0.916982
vt 0.256486 0.916982
vt 0.256486 0.935448
vt 0.094289 0.965086
vt 0.094289 0.946620
vt 0.094826 0.946620
vt 0.094826 0.965086
vt 0.220078 0.935448
vt 0.220078 0.916982
vt 0.230150 0.916982
vt 0.230150 0.935448
vt 0.847536 0.948383
vt 0.847536 0.958455
vt 0.846999 0.958455
vt 0.846999 0.948383
vt 0.323760 0.948588
vt 0.323760 0.958660
vt 0.323223 0.958660
vt 0.323223 0.948588
vt 0.065750 0.975158
vt 0.065750 0.946620
vt 0.066288 0.946620
vt 0.066288 0.975158
vt 0.084818 0.943523
vt 0.084818 0.914986
vt 0.094889 0.914986
vt 0.094889 0.943523
vt 0.051095 0.975158
vt 0.051095 0.946620
vt 0.051633 0.946620
vt 0.051633 0.975158
vt 0.058481 0.943523
vt 0.058481 0.914986
vt 0.068553 0.914986
vt 0.068553 0.943523
vt 0.327395 0.948588
vt 0.327395 0.958660
vt 0.326858 0.958660
vt 0.326858 0.948588
vt 0.331029 0.948588
vt 0.331029 0.958660
vt 0.330492 0.958660
vt 0.330492 0.948588
vt 0.816079 0.966848
vt 0.816079 0.948383
vt 0.816616 0.948383
vt 0.816616 0.966848
vt 0.259584 0.935448
vt 0.259584 0.916982
vt 0.269654 0.916982
vt 0.269654 0.935448
vt 0.819713 0.966848
vt 0.819713 0.948383
vt 0.820250 0.948383
vt 0.820250 0.966848
vt 0.233247 0.935448
vt 0.233247 0.916982
vt 0.243319 0.916982
vt 0.243319 0.935448
vt 0.334664 0.948588
vt 0.334664 0.958660
vt 0.334127 0.958660
vt 0.334127 0.948588
vt 0.338298 0.948588
vt 0.338298 0.958660
vt 0.337761 0.958660
vt 0.337761 0.948588
vt 0.872308 0.635639
vt 0.872308 0.634799
vt 0.872979 0.634799
vt 0.872979 0.635639
vt 0.246140 0.962869
vt 0.245300 0.962869
vt 0.245300 0.959176
vt 0.246140 0.959176
vt 0.876076 0.635639
vt 0.876076 0.634799
vt 0.876748 0.634799
vt 0.876748 0.635639
vt 0.892207 0.960805
vt 0.891368 0.960805
vt 0.891368 0.957112
vt 0.892207 0.957112
vt 0.346171 0.960414
vt 0.346171 0.964107
vt 0.345500 0.964107
vt 0.345500 0.960414
vt 0.349940 0.960414
vt 0.349940 0.964108
vt 0.349269 0.964108
vt 0.349269 0.960414
vt 0.887698 0.635471
vt 0.887698 0.634799
vt 0.887872 0.634799
vt 0.887872 0.635471
vt 0.888013 0.634799
vt 0.888013 0.635471
vt 0.353037 0.967541
vt 0.353037 0.966869
vt 0.353199 0.966869
vt 0.353199 0.967541
vt 0.353378 0.966869
vt 0.353378 0.967541
vt 0.353540 0.966869
vt 0.353540 0.967541
vt 0.891110 0.635471
vt 0.891110 0.634799
vt 0.891250 0.634799
vt 0.891250 0.635471
vt 0.891425 0.634799
vt 0.891425 0.635471
vt 0.891600 0.634799
vt 0.891600 0.635471
vt 0.891740 0.634799
vt 0.891740 0.635471
vt 0.895339 0.634800
vt 0.895339 0.635471
vt 0.895178 0.635471
vt 0.895178 0.634799
vt 0.894999 0.635471
vt 0.894999 0.634799
vt 0.894837 0.635471
vt 0.894837 0.634800
vt 0.864935 0.634799
vt 0.865110 0.634839
vt 0.865250 0.634951
vt 0.865327 0.635113
vt 0.865327 0.635292
vt 0.865250 0.635454
vt 0.865109 0.635565
vt 0.864935 0.635605
vt 0.864760 0.635565
vt 0.864620 0.635453
vt 0.864542 0.635292
vt 0.864542 0.635113
vt 0.864620 0.634951
vt 0.864760 0.634839
vt 0.887383 0.635471
vt 0.887383 0.634799
vt 0.887523 0.634799
vt 0.887523 0.635471
vt 0.869132 0.634951
vt 0.869210 0.635113
vt 0.869210 0.635292
vt 0.869132 0.635453
vt 0.868992 0.635565
vt 0.868817 0.635605
vt 0.868643 0.635565
vt 0.868502 0.635454
vt 0.868425 0.635292
vt 0.868425 0.635113
vt 0.868502 0.634951
vt 0.868643 0.634839
vt 0.868817 0.634799
vt 0.868992 0.634839
vt 0.384854 0.987457
vt 0.384854 0.916953
vt 0.386532 0.916953
vt 0.386532 0.987457
vt 0.068170 0.911888
vt 0.068170 0.841385
vt 0.095025 0.841385
vt 0.095025 0.911888
vt 0.375302 0.987457
vt 0.375302 0.916953
vt 0.376980 0.916953
vt 0.376980 0.987457
vt 0.281105 0.883669
vt 0.281105 0.813165
vt 0.307964 0.813165
vt 0.307964 0.883669
vt 0.135959 0.945187
vt 0.135959 0.972046
vt 0.134281 0.972046
vt 0.134281 0.945187
vt 0.140735 0.945187
vt 0.140735 0.972046
vt 0.139057 0.972046
vt 0.139057 0.945187
vt 0.163339 0.959363
vt 0.163339 0.957013
vt 0.165354 0.957013
vt 0.165354 0.959363
vt 0.663623 0.970340
vt 0.661272 0.970340
vt 0.661272 0.938786
vt 0.663623 0.938786
vt 0.168451 0.959363
vt 0.168451 0.957013
vt 0.170465 0.957013
vt 0.170465 0.959363
vt 0.268877 0.970104
vt 0.266527 0.970104
vt 0.266527 0.938545
vt 0.268877 0.938545
vt 0.121296 0.945187
vt 0.121296 0.976746
vt 0.119281 0.976746
vt 0.119281 0.945187
vt 0.126407 0.945187
vt 0.126407 0.976746
vt 0.124393 0.976746
vt 0.124393 0.945187
vt 0.313000 0.987457
vt 0.313000 0.916953
vt 0.315014 0.916953
vt 0.315014 0.987457
vt 0.438606 0.985808
vt 0.438606 0.915304
vt 0.440956 0.915304
vt 0.440956 0.985808
vt 0.497855 0.985808
vt 0.497855 0.915304
vt 0.499869 0.915304
vt 0.499869 0.985808
vt 0.422264 0.985808
vt 0.422264 0.915304
vt 0.424614 0.915304
vt 0.424614 0.985808
vt 0.185800 0.957013
vt 0.185800 0.959363
vt 0.183786 0.959363
vt 0.183786 0.957013
vt 0.190912 0.957013
vt 0.190912 0.959363
vt 0.188898 0.959363
vt 0.188898 0.957013
vt 0.069385 0.975158
vt 0.069385 0.946620
vt 0.069922 0.946620
vt 0.069922 0.975158
vt 0.346876 0.945491
vt 0.346876 0.916953
vt 0.355604 0.916953
vt 0.355604 0.945491
vt 0.054730 0.975158
vt 0.054730 0.946620
vt 0.055267 0.946620
vt 0.055267 0.975158
vt 0.323223 0.945491
vt 0.323223 0.916953
vt 0.331952 0.916953
vt 0.331952 0.945491
vt 0.341933 0.948588
vt 0.341933 0.957317
vt 0.341395 0.957317
vt 0.341395 0.948588
vt 0.345567 0.948588
vt 0.345567 0.957317
vt 0.345030 0.957317
vt 0.345030 0.948588
vt 0.823347 0.966848
vt 0.823347 0.948383
vt 0.823885 0.948383
vt 0.823885 0.966848
vt 0.827905 0.945286
vt 0.827905 0.926821
vt 0.836633 0.926821
vt 0.836633 0.945286
vt 0.827905 0.966848
vt 0.827905 0.948383
vt 0.828442 0.948383
vt 0.828442 0.966848
vt 0.661272 0.935688
vt 0.661272 0.917223
vt 0.670002 0.917223
vt 0.670002 0.935688
vt 0.349202 0.948588
vt 0.349202 0.957317
vt 0.348664 0.957317
vt 0.348664 0.948588
vt 0.352836 0.948588
vt 0.352836 0.957317
vt 0.352299 0.957317
vt 0.352299 0.948588
vt 0.318111 0.987457
vt 0.318111 0.916953
vt 0.320126 0.916953
vt 0.320126 0.987457
vt 0.449500 0.985808
vt 0.449500 0.915304
vt 0.451850 0.915304
vt 0.451850 0.985808
vt 0.502967 0.985808
vt 0.502967 0.915304
vt 0.504981 0.915304
vt 0.504981 0.985808
vt 0.427712 0.985808
vt 0.427712 0.915304
vt 0.430062 0.915304
vt 0.430062 0.985808
vt 0.196024 0.957013
vt 0.196024 0.959363
vt 0.194009 0.959363
vt 0.194009 0.957013
vt 0.231980 0.959176
vt 0.231980 0.961526
vt 0.229965 0.961526
vt 0.229965 0.959176
vt 0.073019 0.975158
vt 0.073019 0.946620
vt 0.073556 0.946620
vt 0.073556 0.975158
vt 0.358701 0.945491
vt 0.358701 0.916953
vt 0.367429 0.916953
vt 0.367429 0.945491
vt 0.058481 0.975158
vt 0.058481 0.946620
vt 0.059019 0.946620
vt 0.059019 0.975158
vt 0.335050 0.945491
vt 0.335050 0.916953
vt 0.343779 0.916953
vt 0.343779 0.945491
vt 0.356470 0.948588
vt 0.356470 0.957317
vt 0.355933 0.957317
vt 0.355933 0.948588
vt 0.360105 0.948588
vt 0.360105 0.957317
vt 0.359568 0.957317
vt 0.359568 0.948588
vt 0.831539 0.966848
vt 0.831539 0.948383
vt 0.832077 0.948383
vt 0.832077 0.966848
vt 0.839730 0.945286
vt 0.839730 0.926821
vt 0.848458 0.926821
vt 0.848458 0.945286
vt 0.835174 0.966848
vt 0.835174 0.948383
vt 0.835711 0.948383
vt 0.835711 0.966848
vt 0.816079 0.945286
vt 0.816079 0.926821
vt 0.824808 0.926821
vt 0.824808 0.945286
vt 0.363739 0.948588
vt 0.363739 0.957317
vt 0.363202 0.957317
vt 0.363202 0.948588
vt 0.367374 0.948588
vt 0.367374 0.957317
vt 0.366837 0.957317
vt 0.366837 0.948588
vt 0.879845 0.635538
vt 0.879845 0.634799
vt 0.880517 0.634799
vt 0.880517 0.635538
vt 0.327798 0.965114
vt 0.327059 0.965114
vt 0.327059 0.961757
vt 0.327798 0.961757
vt 0.883614 0.635538
vt 0.883614 0.634799
vt 0.884285 0.634799
vt 0.884285 0.635538
vt 0.323962 0.965115
vt 0.323223 0.965115
vt 0.323223 0.961757
vt 0.323962 0.961757
vt 0.887188 0.962148
vt 0.887188 0.965506
vt 0.886517 0.965506
vt 0.886517 0.962148
vt 0.153787 0.962461
vt 0.153787 0.965818
vt 0.153116 0.965818
vt 0.153116 0.962461
vt 0.859934 0.635227
vt 0.859934 0.628848
vt 0.861445 0.628848
vt 0.861445 0.635227
vt 0.836298 0.635227
vt 0.836298 0.628848
vt 0.839991 0.628848
vt 0.839991 0.635227
vt 0.855326 0.635227
vt 0.855326 0.628848
vt 0.856836 0.628848
vt 0.856836 0.635227
vt 0.829508 0.635227
vt 0.829508 0.628848
vt 0.833201 0.628848
vt 0.833201 0.635227
vt 0.909966 0.628848
vt 0.909966 0.632541
vt 0.908455 0.632541
vt 0.908455 0.628848
vt 0.892879 0.950322
vt 0.892879 0.954015
vt 0.891368 0.954015
vt 0.891368 0.950322
vt 0.335671 0.968380
vt 0.335671 0.966869
vt 0.336074 0.966869
vt 0.336074 0.968380
vt 0.617817 0.965998
vt 0.616306 0.965998
vt 0.616306 0.964320
vt 0.617817 0.964320
vt 0.341395 0.968380
vt 0.341395 0.966869
vt 0.341798 0.966869
vt 0.341798 0.968380
vt 0.892879 0.965581
vt 0.891368 0.965581
vt 0.891368 0.963903
vt 0.892879 0.963903
vt 0.840133 0.966664
vt 0.840133 0.968343
vt 0.839730 0.968343
vt 0.839730 0.966664
vt 0.845077 0.966664
vt 0.845077 0.968343
vt 0.844674 0.968343
vt 0.844674 0.966664
vt 0.156885 0.965314
vt 0.156885 0.962461
vt 0.157489 0.962461
vt 0.157489 0.965314
vt 0.888345 0.631702
vt 0.888345 0.628848
vt 0.891199 0.628848
vt 0.891199 0.631702
vt 0.160586 0.965314
vt 0.160586 0.962461
vt 0.161190 0.962461
vt 0.161190 0.965314
vt 0.873347 0.631702
vt 0.870493 0.631702
vt 0.870493 0.628848
vt 0.873347 0.628848
vt 0.164892 0.962461
vt 0.164892 0.965314
vt 0.164288 0.965314
vt 0.164288 0.962461
vt 0.168594 0.962461
vt 0.168594 0.965314
vt 0.167989 0.965314
vt 0.167989 0.962461
vt 0.171691 0.965314
vt 0.171691 0.962461
vt 0.172295 0.962461
vt 0.172295 0.965314
vt 0.894296 0.631702
vt 0.894296 0.628848
vt 0.897149 0.628848
vt 0.897149 0.631702
vt 0.175392 0.965314
vt 0.175392 0.962461
vt 0.175997 0.962461
vt 0.175997 0.965314
vt 0.876444 0.631702
vt 0.876444 0.628848
vt 0.879297 0.628848
vt 0.879297 0.631702
vt 0.194614 0.962461
vt 0.194614 0.965314
vt 0.194009 0.965314
vt 0.194009 0.962461
vt 0.943221 0.962642
vt 0.943221 0.965496
vt 0.942617 0.965496
vt 0.942617 0.962642
vt 0.179094 0.965314
vt 0.179094 0.962461
vt 0.179698 0.962461
vt 0.179698 0.965314
vt 0.882395 0.631702
vt 0.882395 0.628848
vt 0.885248 0.628848
vt 0.885248 0.631702
vt 0.182796 0.965314
vt 0.182796 0.962461
vt 0.183400 0.962461
vt 0.183400 0.965314
vt 0.867396 0.631702
vt 0.864542 0.631702
vt 0.864542 0.628848
vt 0.867396 0.628848
vt 0.187101 0.962461
vt 0.187101 0.965314
vt 0.186497 0.965314
vt 0.186497 0.962461
vt 0.190803 0.962461
vt 0.190803 0.965314
vt 0.190199 0.965314
vt 0.190199 0.962461
vt 0.862561 0.959051
vt 0.862561 0.950322
vt 0.863065 0.950322
vt 0.863065 0.959051
vt 0.176768 0.953916
vt 0.176768 0.945187
vt 0.185496 0.945187
vt 0.185496 0.953916
vt 0.866162 0.959051
vt 0.866162 0.950322
vt 0.866666 0.950322
vt 0.866666 0.959051
vt 0.161845 0.953916
vt 0.153116 0.953916
vt 0.153116 0.945187
vt 0.161845 0.945187
vt 0.870266 0.950322
vt 0.870266 0.959051
vt 0.869763 0.959051
vt 0.869763 0.950322
vt 0.873867 0.950322
vt 0.873867 0.959051
vt 0.873364 0.959051
vt 0.873364 0.950322
vt 0.876965 0.959051
vt 0.876965 0.950322
vt 0.877468 0.950322
vt 0.877468 0.959051
vt 0.188593 0.953916
vt 0.188593 0.945187
vt 0.197321 0.945187
vt 0.197321 0.953916
vt 0.880565 0.959051
vt 0.880565 0.950322
vt 0.881069 0.950322
vt 0.881069 0.959051
vt 0.164942 0.953916
vt 0.164942 0.945187
vt 0.173671 0.945187
vt 0.173671 0.953916
vt 0.884670 0.950322
vt 0.884670 0.959051
vt 0.884166 0.959051
vt 0.884166 0.950322
vt 0.888271 0.950322
vt 0.888271 0.959051
vt 0.887767 0.959051
vt 0.887767 0.950322
vt 0.635043 0.968666
vt 0.635043 0.965980
vt 0.635446 0.965980
vt 0.635446 0.968666
vt 0.941014 0.001549
vt 0.943700 0.001549
vt 0.943700 0.605773
vt 0.941014 0.605773
vt 0.276252 0.968425
vt 0.276252 0.965739
vt 0.276654 0.965739
vt 0.276654 0.968425
vt 0.932134 0.605867
vt 0.929448 0.605867
vt 0.929448 0.001549
vt 0.932134 0.001549
vt 0.947200 0.001549
vt 0.947200 0.605867
vt 0.946797 0.605867
vt 0.946797 0.001549
vt 0.950700 0.001549
vt 0.950700 0.605867
vt 0.950298 0.605867
vt 0.950298 0.001549
vt 0.971665 0.320419
vt 0.968979 0.320419
vt 0.968979 0.066606
vt 0.971665 0.066606
vt 0.673099 0.968666
vt 0.673099 0.965980
vt 0.673502 0.965980
vt 0.673502 0.968666
vt 0.970526 0.862778
vt 0.967840 0.862778
vt 0.967840 0.608965
vt 0.970526 0.608965
vt 0.768632 0.962404
vt 0.768632 0.959718
vt 0.769034 0.959718
vt 0.769034 0.962404
vt 0.981966 0.320419
vt 0.981563 0.320419
vt 0.981563 0.066605
vt 0.981966 0.066605
vt 0.985466 0.320419
vt 0.985064 0.320419
vt 0.985064 0.066605
vt 0.985466 0.066605
vt 0.768632 0.968187
vt 0.768632 0.965501
vt 0.769034 0.965501
vt 0.769034 0.968187
vt 0.979280 0.323516
vt 0.981966 0.323516
vt 0.981966 0.503441
vt 0.979280 0.503441
vt 0.760834 0.962408
vt 0.760834 0.959722
vt 0.761237 0.959722
vt 0.761237 0.962408
vt 0.977449 0.246558
vt 0.974763 0.246558
vt 0.974763 0.066606
vt 0.977449 0.066606
vt 0.989092 0.792014
vt 0.989092 0.971967
vt 0.988689 0.971967
vt 0.988689 0.792014
vt 0.989092 0.608965
vt 0.989092 0.788917
vt 0.988689 0.788917
vt 0.988689 0.608965
vt 0.025948 0.994218
vt 0.023263 0.994218
vt 0.023263 0.914986
vt 0.025948 0.914986
vt 0.045312 0.969190
vt 0.045312 0.966504
vt 0.045715 0.966504
vt 0.045715 0.969190
vt 0.020165 0.994219
vt 0.017479 0.994219
vt 0.017479 0.914986
vt 0.020165 0.914986
vt 0.676599 0.968666
vt 0.676599 0.965980
vt 0.677002 0.965980
vt 0.677002 0.968666
vt 0.985592 0.899449
vt 0.985189 0.899449
vt 0.985189 0.820216
vt 0.985592 0.820216
vt 0.985592 0.981779
vt 0.985189 0.981779
vt 0.985189 0.902546
vt 0.985592 0.902546
vt 0.760834 0.968191
vt 0.760834 0.965505
vt 0.761237 0.965505
vt 0.761237 0.968191
vt 0.143832 0.945187
vt 0.146518 0.945187
vt 0.146518 0.966335
vt 0.143832 0.966335
vt 0.229965 0.967309
vt 0.229965 0.964624
vt 0.230368 0.964624
vt 0.230368 0.967309
vt 0.964617 0.602921
vt 0.961931 0.602921
vt 0.961931 0.581770
vt 0.964617 0.581770
vt 0.077057 0.946620
vt 0.077057 0.967772
vt 0.076654 0.967772
vt 0.076654 0.946620
vt 0.080557 0.946620
vt 0.080557 0.967772
vt 0.080154 0.967772
vt 0.080154 0.946620
vt 0.249237 0.968317
vt 0.249237 0.965631
vt 0.249640 0.965631
vt 0.249640 0.968317
vt 0.982092 0.964553
vt 0.979406 0.964553
vt 0.979406 0.788321
vt 0.982092 0.788321
vt 0.233465 0.967309
vt 0.233465 0.964624
vt 0.233868 0.964624
vt 0.233868 0.967309
vt 0.982092 0.785224
vt 0.979406 0.785224
vt 0.979406 0.608964
vt 0.982092 0.608964
vt 0.992593 0.788321
vt 0.992593 0.964581
vt 0.992190 0.964581
vt 0.992190 0.788321
vt 0.992593 0.608964
vt 0.992593 0.785224
vt 0.992190 0.785224
vt 0.992190 0.608964
vt 0.252737 0.968317
vt 0.252737 0.965631
vt 0.253140 0.965631
vt 0.253140 0.968317
vt 0.398099 0.971669
vt 0.395413 0.971669
vt 0.395413 0.916954
vt 0.398099 0.916954
vt 0.236965 0.967309
vt 0.236965 0.964624
vt 0.237368 0.964624
vt 0.237368 0.967309
vt 0.392315 0.971678
vt 0.389630 0.971678
vt 0.389630 0.916954
vt 0.392315 0.916954
vt 0.978844 0.001549
vt 0.978844 0.056273
vt 0.978441 0.056273
vt 0.978441 0.001549
vt 0.982344 0.001549
vt 0.982344 0.056273
vt 0.981941 0.056273
vt 0.981941 0.001549
vt 0.484534 0.977750
vt 0.481849 0.977750
vt 0.481849 0.915304
vt 0.484534 0.915304
vt 0.764527 0.968858
vt 0.764527 0.966173
vt 0.764930 0.966173
vt 0.764930 0.968858
vt 0.478751 0.977750
vt 0.476065 0.977750
vt 0.476065 0.915304
vt 0.478751 0.915304
vt 0.240466 0.967309
vt 0.240466 0.964624
vt 0.240868 0.964624
vt 0.240868 0.967309
vt 0.412494 0.979400
vt 0.412091 0.979400
vt 0.412091 0.916954
vt 0.412494 0.916954
vt 0.851958 0.989267
vt 0.851555 0.989267
vt 0.851555 0.926821
vt 0.851958 0.926821
vt 0.272751 0.968425
vt 0.272751 0.965739
vt 0.273154 0.965739
vt 0.273154 0.968425
vt 0.995018 0.153211
vt 0.992333 0.153211
vt 0.992333 0.066605
vt 0.995018 0.066605
vt 0.967714 0.062719
vt 0.967714 0.060033
vt 0.968117 0.060033
vt 0.968117 0.062719
vt 0.991250 0.528724
vt 0.988564 0.528724
vt 0.988564 0.442105
vt 0.991250 0.442105
vt 0.722592 0.877195
vt 0.722592 0.963814
vt 0.722189 0.963814
vt 0.722189 0.877195
vt 0.998183 0.246696
vt 0.998183 0.333315
vt 0.997780 0.333315
vt 0.997780 0.246696
vt 0.976309 0.817118
vt 0.973623 0.817118
vt 0.973623 0.608964
vt 0.976309 0.608964
vt 0.756730 0.968863
vt 0.756730 0.966177
vt 0.757132 0.966177
vt 0.757132 0.968863
vt 0.976183 0.531670
vt 0.973497 0.531670
vt 0.973497 0.323516
vt 0.976183 0.323516
vt 0.245300 0.968652
vt 0.245300 0.965966
vt 0.245703 0.965966
vt 0.245703 0.968652
vt 0.985466 0.531670
vt 0.985064 0.531670
vt 0.985064 0.323516
vt 0.985466 0.323516
vt 0.985592 0.817119
vt 0.985189 0.817119
vt 0.985189 0.608964
vt 0.985592 0.608964
vt 0.001549 0.605867
vt 0.001549 0.001549
vt 0.256705 0.001549
vt 0.256705 0.182844
vt 0.239919 0.182844
vt 0.239919 0.238240
vt 0.176130 0.238240
vt 0.176130 0.493397
vt 0.239919 0.493397
vt 0.239919 0.581023
vt 0.211046 0.620639
vt 0.259803 0.016321
vt 0.469300 0.001549
vt 0.498173 0.041165
vt 0.498173 0.128791
vt 0.434384 0.128791
vt 0.434384 0.383948
vt 0.498173 0.383948
vt 0.498173 0.439344
vt 0.514959 0.439344
vt 0.514959 0.620639
vt 0.259803 0.620639
vt 0.967714 0.323516
vt 0.970400 0.323516
vt 0.970400 0.578633
vt 0.967714 0.578633
vt 0.045312 0.946620
vt 0.047998 0.946620
vt 0.047998 0.963407
vt 0.045312 0.963407
vt 0.935231 0.001549
vt 0.937917 0.001549
vt 0.937917 0.605867
vt 0.935231 0.605867
vt 0.464499 0.915304
vt 0.467185 0.915304
vt 0.467185 0.979093
vt 0.464499 0.979093
vt 0.967714 0.001549
vt 0.970400 0.001549
vt 0.970400 0.056936
vt 0.967714 0.056936
vt 0.961931 0.323516
vt 0.964617 0.323516
vt 0.964617 0.578673
vt 0.961931 0.578673
vt 0.098122 0.841385
vt 0.100808 0.841385
vt 0.100808 0.928997
vt 0.098122 0.928997
vt 0.470282 0.915304
vt 0.472968 0.915304
vt 0.472968 0.979093
vt 0.470282 0.979093
vt 0.507205 0.623737
vt 0.509890 0.623737
vt 0.509890 0.805004
vt 0.507205 0.805004
vt 0.100808 0.969118
vt 0.098122 0.969118
vt 0.961931 0.001549
vt 0.964617 0.001549
vt 0.964617 0.211075
vt 0.961931 0.211075
s 0
usemtl exp_shell
f 1/1/1 2/2/1 4/3/1 3/4/1
f 3/5/2 4/6/2 8/7/2 7/8/2
f 7/9/3 8/10/3 6/11/3 5/12/3
f 5/13/4 6/14/4 2/15/4 1/16/4
f 3/17/5 7/18/5 5/19/5 1/20/5
f 8/21/6 4/22/6 2/23/6 6/24/6
f 9/25/4 10/26/4 12/27/4 11/28/4
f 11/29/1 12/30/1 16/31/1 15/32/1
f 15/33/2 16/34/2 14/35/2 13/36/2
f 13/37/3 14/38/3 10/39/3 9/40/3
f 11/41/5 15/42/5 13/43/5 9/44/5
f 16/45/6 12/46/6 10/47/6 14/48/6
f 17/49/3 18/50/3 20/51/3 19/52/3
f 19/53/4 20/54/4 24/55/4 23/56/4
f 23/57/1 24/58/1 22/59/1 21/60/1
f 21/61/2 22/62/2 18/63/2 17/64/2
f 19/65/5 23/66/5 21/67/5 17/68/5
f 24/69/6 20/70/6 18/71/6 22/72/6
f 25/73/4 26/74/4 28/75/4 27/76/4
f 27/77/1 28/78/1 32/79/1 31/80/1
f 31/81/2 32/82/2 30/83/2 29/84/2
f 29/85/3 30/86/3 26/87/3 25/88/3
f 27/89/5 31/90/5 29/91/5 25/92/5
f 32/93/6 28/94/6 26/95/6 30/96/6
f 33/97/3 34/98/3 36/99/3 35/100/3
f 35/101/4 36/102/4 40/103/4 39/104/4
f 39/105/1 40/106/1 38/107/1 37/108/1
f 37/109/2 38/110/2 34/111/2 33/112/2
f 35/113/5 39/114/5 37/115/5 33/116/5
f 40/117/6 36/118/6 34/119/6 38/120/6
f 41/121/7 42/122/7 44/123/7 43/124/7
f 43/125/8 44/126/8 48/127/8 47/128/8
f 47/129/9 48/130/9 46/131/9 45/132/9
f 45/133/10 46/134/10 42/135/10 41/136/10
f 43/137/5 47/138/5 45/139/5 41/140/5
f 48/141/6 44/142/6 42/143/6 46/144/6
f 49/145/11 50/146/11 52/147/11 51/148/11
f 51/149/12 52/150/12 56/151/12 55/152/12
f 55/153/13 56/154/13 54/155/13 53/156/13
f 53/157/14 54/158/14 50/159/14 49/160/14
f 51/161/5 55/162/5 53/163/5 49/164/5
f 56/165/6 52/166/6 50/167/6 54/168/6
f 57/169/1 58/170/1 60/171/1 59/172/1
f 59/173/2 60/174/2 64/175/2 63/176/2
f 63/177/3 64/178/3 62/179/3 61/180/3
f 61/181/4 62/182/4 58/183/4 57/184/4
f 59/185/5 63/186/5 61/187/5 57/188/5
f 64/189/6 60/190/6 58/191/6 62/192/6
f 65/193/1 66/194/1 68/195/1 67/196/1
f 67/197/2 68/198/2 72/199/2 71/200/2
f 71/201/3 72/202/3 70/203/3 69/204/3
f 69/205/4 70/206/4 66/207/4 65/208/4
f 67/209/5 71/210/5 69/211/5 65/212/5
f 72/213/6 68/214/6 66/215/6 70/216/6
f 73/217/1 74/218/1 76/219/1 75/220/1
f 75/221/2 76/222/2 80/223/2 79/224/2
f 79/225/3 80/226/3 78/227/3 77/228/3
f 77/229/4 78/230/4 74/231/4 73/232/4
f 75/233/5 79/234/5 77/235/5 73/236/5
f 80/237/6 76/238/6 74/239/6 78/240/6
f 81/241/1 82/242/1 84/243/1 83/244/1
f 83/245/2 84/246/2 88/247/2 87/248/2
f 87/249/3 88/250/3 86/251/3 85/252/3
f 85/253/4 86/254/4 82/255/4 81/256/4
f 83/257/5 87/258/5 85/259/5 81/260/5
f 88/261/6 84/262/6 82/263/6 86/264/6
f 89/265/1 90/266/1 92/267/1 91/268/1
f 91/269/2 92/270/2 96/271/2 95/272/2
f 95/273/3 96/274/3 94/275/3 93/276/3
f 93/277/4 94/278/4 90/279/4 89/280/4
f 91/281/5 95/282/5 93/283/5 89/284/5
f 96/285/6 92/286/6 90/287/6 94/288/6
f 97/289/1 98/290/1 100/291/1 99/292/1
f 99/293/2 100/294/2 104/295/2 103/296/2
f 103/297/3 104/298/3 102/299/3 101/300/3
f 101/301/4 102/302/4 98/303/4 97/304/4
f 99/305/5 103/306/5 101/307/5 97/308/5
f 104/309/6 100/310/6 98/311/6 102/312/6
f 105/313/1 106/314/1 108/315/1 107/316/1
f 107/317/2 108/318/2 112/319/2 111/320/2
f 111/321/3 112/322/3 110/323/3 109/324/3
f 109/325/4 110/326/4 106/327/4 105/328/4
f 107/329/5 111/330/5 109/331/5 105/332/5
f 112/333/6 108/334/6 106/335/6 110/336/6
f 113/337/1 114/338/1 116/339/1 115/340/1
f 115/341/2 116/342/2 120/343/2 119/344/2
f 119/345/3 120/346/3 118/347/3 117/348/3
f 117/349/4 118/350/4 114/351/4 113/352/4
f 115/353/5 119/354/5 117/355/5 113/356/5
f 120/357/6 116/358/6 114/359/6 118/360/6
f 121/361/1 122/362/1 124/363/1 123/364/1
f 123/365/2 124/366/2 128/367/2 127/368/2
f 127/369/3 128/370/3 126/371/3 125/372/3
f 125/373/4 126/374/4 122/375/4 121/376/4
f 123/377/5 127/378/5 125/379/5 121/380/5
f 128/381/6 124/382/6 122/383/6 126/384/6
f 129/385/1 130/386/1 132/387/1 131/388/1
f 131/389/2 132/390/2 136/391/2 135/392/2
f 135/393/3 136/394/3 134/395/3 133/396/3
f 133/397/4 134/398/4 130/399/4 129/400/4
f 131/401/5 135/402/5 133/403/5 129/404/5
f 136/405/6 132/406/6 130/407/6 134/408/6
f 137/409/1 138/410/1 140/411/1 139/412/1
f 139/413/2 140/414/2 144/415/2 143/416/2
f 143/417/3 144/418/3 142/419/3 141/420/3
f 141/421/4 142/422/4 138/423/4 137/424/4
f 139/425/5 143/426/5 141/427/5 137/428/5
f 144/429/6 140/430/6 138/431/6 142/432/6
f 145/433/1 146/434/1 148/435/1 147/436/1
f 147/437/2 148/438/2 152/439/2 151/440/2
f 151/441/3 152/442/3 150/443/3 149/444/3
f 149/445/4 150/446/4 146/447/4 145/448/4
f 147/449/5 151/450/5 149/451/5 145/452/5
f 152/453/6 148/454/6 146/455/6 150/456/6
f 153/457/1 154/458/1 156/459/1 155/460/1
f 155/461/2 156/462/2 160/463/2 159/464/2
f 159/465/3 160/466/3 158/467/3 157/468/3
f 157/469/4 158/470/4 154/471/4 153/472/4
f 155/473/5 159/474/5 157/475/5 153/476/5
f 160/477/6 156/478/6 154/479/6 158/480/6
f 161/481/1 162/482/1 164/483/1 163/484/1
f 163/485/2 164/486/2 168/487/2 167/488/2
f 167/489/3 168/490/3 166/491/3 165/492/3
f 165/493/4 166/494/4 162/495/4 161/496/4
f 163/497/5 167/498/5 165/499/5 161/500/5
f 168/501/6 164/502/6 162/503/6 166/504/6
f 169/505/1 170/506/1 172/507/1 171/508/1
f 171/509/2 172/510/2 176/511/2 175/512/2
f 175/513/3 176/514/3 174/515/3 173/516/3
f 173/517/4 174/518/4 170/519/4 169/520/4
f 171/521/5 175/522/5 173/523/5 169/524/5
f 176/525/6 172/526/6 170/527/6 174/528/6
f 177/529/1 178/530/1 180/531/1 179/532/1
f 179/533/2 180/534/2 184/535/2 183/536/2
f 183/537/3 184/538/3 182/539/3 181/540/3
f 181/541/4 182/542/4 178/543/4 177/544/4
f 179/545/5 183/546/5 181/547/5 177/548/5
f 184/549/6 180/550/6 178/551/6 182/552/6
f 185/553/1 186/554/1 188/555/1 187/556/1
f 187/557/2 188/558/2 192/559/2 191/560/2
f 191/561/3 192/562/3 190/563/3 189/564/3
f 189/565/4 190/566/4 186/567/4 185/568/4
f 187/569/5 191/570/5 189/571/5 185/572/5
f 192/573/6 188/574/6 186/575/6 190/576/6
f 193/577/1 194/578/1 196/579/1 195/580/1
f 195/581/2 196/582/2 200/583/2 199/584/2
f 199/585/3 200/586/3 198/587/3 197/588/3
f 197/589/4 198/590/4 194/591/4 193/592/4
f 195/593/5 199/594/5 197/595/5 193/596/5
f 200/597/6 196/598/6 194/599/6 198/600/6
f 201/601/1 202/602/1 204/603/1 203/604/1
f 203/605/2 204/606/2 208/607/2 207/608/2
f 207/609/3 208/610/3 206/611/3 205/612/3
f 205/613/4 206/614/4 202/615/4 201/616/4
f 203/617/5 207/618/5 205/619/5 201/620/5
f 208/621/6 204/622/6 202/623/6 206/624/6
f 209/625/1 210/626/1 212/627/1 211/628/1
f 211/629/2 212/630/2 216/631/2 215/632/2
f 215/633/3 216/634/3 214/635/3 213/636/3
f 213/637/4 214/638/4 210/639/4 209/640/4
f 211/641/5 215/642/5 213/643/5 209/644/5
f 216/645/6 212/646/6 210/647/6 214/648/6
f 217/649/1 218/650/1 220/651/1 219/652/1
f 219/653/2 220/654/2 224/655/2 223/656/2
f 223/657/3 224/658/3 222/659/3 221/660/3
f 221/661/4 222/662/4 218/663/4 217/664/4
f 219/665/5 223/666/5 221/667/5 217/668/5
f 224/669/6 220/670/6 218/671/6 222/672/6
f 225/673/1 226/674/1 228/675/1 227/676/1
f 227/677/2 228/678/2 232/679/2 231/680/2
f 231/681/3 232/682/3 230/683/3 229/684/3
f 229/685/4 230/686/4 226/687/4 225/688/4
f 227/689/5 231/690/5 229/691/5 225/692/5
f 232/693/6 228/694/6 226/695/6 230/696/6
f 233/697/1 234/698/1 236/699/1 235/700/1
f 235/701/2 236/702/2 240/703/2 239/704/2
f 239/705/3 240/706/3 238/707/3 237/708/3
f 237/709/4 238/710/4 234/711/4 233/712/4
f 235/713/5 239/714/5 237/715/5 233/716/5
f 240/717/6 236/718/6 234/719/6 238/720/6
f 241/721/1 242/722/1 244/723/1 243/724/1
f 243/725/2 244/726/2 248/727/2 247/728/2
f 247/729/3 248/730/3 246/731/3 245/732/3
f 245/733/4 246/734/4 242/735/4 241/736/4
f 243/737/5 247/738/5 245/739/5 241/740/5
f 248/741/6 244/742/6 242/743/6 246/744/6
f 249/745/1 250/746/1 252/747/1 251/748/1
f 251/749/2 252/750/2 256/751/2 255/752/2
f 255/753/3 256/754/3 254/755/3 253/756/3
f 253/757/4 254/758/4 250/759/4 249/760/4
f 251/761/5 255/762/5 253/763/5 249/764/5
f 256/765/6 252/766/6 250/767/6 254/768/6
f 257/769/1 258/770/1 260/771/1 259/772/1
f 259/773/2 260/774/2 264/775/2 263/776/2
f 263/777/3 264/778/3 262/779/3 261/780/3
f 261/781/4 262/782/4 258/783/4 257/784/4
f 259/785/5 263/786/5 261/787/5 257/788/5
f 264/789/6 260/790/6 258/791/6 262/792/6
f 265/793/1 266/794/1 268/795/1 267/796/1
f 267/797/2 268/798/2 272/799/2 271/800/2
f 271/801/3 272/802/3 270/803/3 269/804/3
f 269/805/4 270/806/4 266/807/4 265/808/4
f 267/809/5 271/810/5 269/811/5 265/812/5
f 272/813/6 268/814/6 266/815/6 270/816/6
f 273/817/1 274/818/1 276/819/1 275/820/1
f 275/821/2 276/822/2 280/823/2 279/824/2
f 279/825/3 280/826/3 278/827/3 277/828/3
f 277/829/4 278/830/4 274/831/4 273/832/4
f 275/833/5 279/834/5 277/835/5 273/836/5
f 280/837/6 276/838/6 274/839/6 278/840/6
f 281/841/1 282/842/1 284/843/1 283/844/1
f 283/845/2 284/846/2 288/847/2 287/848/2
f 287/849/3 288/850/3 286/851/3 285/852/3
f 285/853/4 286/854/4 282/855/4 281/856/4
f 283/857/5 287/858/5 285/859/5 281/860/5
f 288/861/6 284/862/6 282/863/6 286/864/6
f 289/865/1 290/866/1 292/867/1 291/868/1
f 291/869/2 292/870/2 296/871/2 295/872/2
f 295/873/3 296/874/3 294/875/3 293/876/3
f 293/877/4 294/878/4 290/879/4 289/880/4
f 291/881/5 295/882/5 293/883/5 289/884/5
f 296/885/6 292/886/6 290/887/6 294/888/6
f 297/889/1 298/890/1 300/891/1 299/892/1
f 299/893/2 300/894/2 304/895/2 303/896/2
f 303/897/3 304/898/3 302/899/3 301/900/3
f 301/901/4 302/902/4 298/903/4 297/904/4
f 299/905/5 303/906/5 301/907/5 297/908/5
f 304/909/6 300/910/6 298/911/6 302/912/6
f 305/913/1 306/914/1 308/915/1 307/916/1
f 307/917/2 308/918/2 312/919/2 311/920/2
f 311/921/3 312/922/3 310/923/3 309/924/3
f 309/925/4 310/926/4 306/927/4 305/928/4
f 307/929/5 311/930/5 309/931/5 305/932/5
f 312/933/6 308/934/6 306/935/6 310/936/6
f 313/937/15 314/938/15 316/939/15 315/940/15
f 315/940/16 316/939/16 318/941/16 317/942/16
f 317/943/17 318/944/17 320/945/17 319/946/17
f 319/946/3 320/945/3 322/947/3 321/948/3
f 321/948/18 322/947/18 324/949/18 323/950/18
f 323/951/19 324/952/19 326/953/19 325/954/19
f 325/954/20 326/953/20 328/955/20 327/956/20
f 327/956/21 328/955/21 330/957/21 329/958/21
f 329/958/22 330/957/22 332/959/22 331/960/22
f 331/961/23 332/962/23 334/963/23 333/964/23
f 333/964/1 334/963/1 336/965/1 335/966/1
f 335/966/24 336/965/24 338/967/24 337/968/24
f 316/969/4 314/970/4 340/971/4 338/972/4 336/973/4 334/974/4 332/975/4 330/976/4 328/977/4 326/978/4 324/979/4 322/980/4 320/981/4 318/982/4
f 337/983/25 338/984/25 340/985/25 339/986/25
f 339/986/26 340/985/26 314/938/26 313/937/26
f 313/987/2 315/988/2 317/989/2 319/990/2 321/991/2 323/992/2 325/993/2 327/994/2 329/995/2 331/996/2 333/997/2 335/998/2 337/999/2 339/1000/2
f 341/1001/1 342/1002/1 344/1003/1 343/1004/1
f 343/1005/2 344/1006/2 348/1007/2 347/1008/2
f 347/1009/3 348/1010/3 346/1011/3 345/1012/3
f 345/1013/4 346/1014/4 342/1015/4 341/1016/4
f 343/1017/5 347/1018/5 345/1019/5 341/1020/5
f 348/1021/6 344/1022/6 342/1023/6 346/1024/6
f 349/1025/1 350/1026/1 352/1027/1 351/1028/1
f 351/1029/2 352/1030/2 356/1031/2 355/1032/2
f 355/1033/3 356/1034/3 354/1035/3 353/1036/3
f 353/1037/4 354/1038/4 350/1039/4 349/1040/4
f 351/1041/5 355/1042/5 353/1043/5 349/1044/5
f 356/1045/6 352/1046/6 350/1047/6 354/1048/6
f 357/1049/1 358/1050/1 360/1051/1 359/1052/1
f 359/1053/2 360/1054/2 364/1055/2 363/1056/2
f 363/1057/3 364/1058/3 362/1059/3 361/1060/3
f 361/1061/4 362/1062/4 358/1063/4 357/1064/4
f 359/1065/5 363/1066/5 361/1067/5 357/1068/5
f 364/1069/6 360/1070/6 358/1071/6 362/1072/6
f 365/1073/1 366/1074/1 368/1075/1 367/1076/1
f 367/1077/2 368/1078/2 372/1079/2 371/1080/2
f 371/1081/3 372/1082/3 370/1083/3 369/1084/3
f 369/1085/4 370/1086/4 366/1087/4 365/1088/4
f 367/1089/5 371/1090/5 369/1091/5 365/1092/5
f 372/1093/6 368/1094/6 366/1095/6 370/1096/6
f 373/1097/1 374/1098/1 376/1099/1 375/1100/1
f 375/1101/2 376/1102/2 380/1103/2 379/1104/2
f 379/1105/3 380/1106/3 378/1107/3 377/1108/3
f 377/1109/4 378/1110/4 374/1111/4 373/1112/4
f 375/1113/5 379/1114/5 377/1115/5 373/1116/5
f 380/1117/6 376/1118/6 374/1119/6 378/1120/6
f 381/1121/1 382/1122/1 384/1123/1 383/1124/1
f 383/1125/2 384/1126/2 388/1127/2 387/1128/2
f 387/1129/3 388/1130/3 386/1131/3 385/1132/3
f 385/1133/4 386/1134/4 382/1135/4 381/1136/4
f 383/1137/5 387/1138/5 385/1139/5 381/1140/5
f 388/1141/6 384/1142/6 382/1143/6 386/1144/6
f 389/1145/1 390/1146/1 392/1147/1 391/1148/1
f 391/1149/2 392/1150/2 396/1151/2 395/1152/2
f 395/1153/3 396/1154/3 394/1155/3 393/1156/3
f 393/1157/4 394/1158/4 390/1159/4 389/1160/4
f 391/1161/5 395/1162/5 393/1163/5 389/1164/5
f 396/1165/6 392/1166/6 390/1167/6 394/1168/6
f 397/1169/1 398/1170/1 400/1171/1 399/1172/1
f 399/1173/2 400/1174/2 404/1175/2 403/1176/2
f 403/1177/3 404/1178/3 402/1179/3 401/1180/3
f 401/1181/4 402/1182/4 398/1183/4 397/1184/4
f 399/1185/5 403/1186/5 401/1187/5 397/1188/5
f 404/1189/6 400/1190/6 398/1191/6 402/1192/6
f 405/1193/1 406/1194/1 408/1195/1 407/1196/1
f 407/1197/2 408/1198/2 412/1199/2 411/1200/2
f 411/1201/3 412/1202/3 410/1203/3 409/1204/3
f 409/1205/4 410/1206/4 406/1207/4 405/1208/4
f 407/1209/5 411/1210/5 409/1211/5 405/1212/5
f 412/1213/6 408/1214/6 406/1215/6 410/1216/6
f 413/1217/1 414/1218/1 416/1219/1 415/1220/1
f 415/1221/2 416/1222/2 420/1223/2 419/1224/2
f 419/1225/3 420/1226/3 418/1227/3 417/1228/3
f 417/1229/4 418/1230/4 414/1231/4 413/1232/4
f 415/1233/5 419/1234/5 417/1235/5 413/1236/5
f 420/1237/6 416/1238/6 414/1239/6 418/1240/6
f 421/1241/1 422/1242/1 424/1243/1 423/1244/1
f 423/1245/2 424/1246/2 428/1247/2 427/1248/2
f 427/1249/3 428/1250/3 426/1251/3 425/1252/3
f 425/1253/4 426/1254/4 422/1255/4 421/1256/4
f 423/1257/5 427/1258/5 425/1259/5 421/1260/5
f 428/1261/6 424/1262/6 422/1263/6 426/1264/6
f 429/1265/1 430/1266/1 432/1267/1 431/1268/1
f 431/1269/2 432/1270/2 436/1271/2 435/1272/2
f 435/1273/3 436/1274/3 434/1275/3 433/1276/3
f 433/1277/4 434/1278/4 430/1279/4 429/1280/4
f 431/1281/5 435/1282/5 433/1283/5 429/1284/5
f 436/1285/6 432/1286/6 430/1287/6 434/1288/6
f 437/1289/1 438/1290/1 440/1291/1 439/1292/1
f 439/1293/2 440/1294/2 444/1295/2 443/1296/2
f 443/1297/3 444/1298/3 442/1299/3 441/1300/3
f 441/1301/4 442/1302/4 438/1303/4 437/1304/4
f 439/1305/5 443/1306/5 441/1307/5 437/1308/5
f 444/1309/6 440/1310/6 438/1311/6 442/1312/6
f 445/1313/1 446/1314/1 448/1315/1 447/1316/1
f 447/1317/2 448/1318/2 452/1319/2 451/1320/2
f 451/1321/3 452/1322/3 450/1323/3 449/1324/3
f 449/1325/4 450/1326/4 446/1327/4 445/1328/4
f 447/1329/5 451/1330/5 449/1331/5 445/1332/5
f 452/1333/6 448/1334/6 446/1335/6 450/1336/6
f 453/1337/1 454/1338/1 456/1339/1 455/1340/1
f 455/1341/2 456/1342/2 460/1343/2 459/1344/2
f 459/1345/3 460/1346/3 458/1347/3 457/1348/3
f 457/1349/4 458/1350/4 454/1351/4 453/1352/4
f 455/1353/5 459/1354/5 457/1355/5 453/1356/5
f 460/1357/6 456/1358/6 454/1359/6 458/1360/6
f 461/1361/1 462/1362/1 464/1363/1 463/1364/1
f 463/1365/2 464/1366/2 468/1367/2 467/1368/2
f 467/1369/3 468/1370/3 466/1371/3 465/1372/3
f 465/1373/4 466/1374/4 462/1375/4 461/1376/4
f 463/1377/5 467/1378/5 465/1379/5 461/1380/5
f 468/1381/6 464/1382/6 462/1383/6 466/1384/6
f 469/1385/1 470/1386/1 472/1387/1 471/1388/1
f 471/1389/2 472/1390/2 476/1391/2 475/1392/2
f 475/1393/3 476/1394/3 474/1395/3 473/1396/3
f 473/1397/4 474/1398/4 470/1399/4 469/1400/4
f 471/1401/5 475/1402/5 473/1403/5 469/1404/5
f 476/1405/6 472/1406/6 470/1407/6 474/1408/6
f 477/1409/1 478/1410/1 480/1411/1 479/1412/1
f 479/1413/2 480/1414/2 484/1415/2 483/1416/2
f 483/1417/3 484/1418/3 482/1419/3 481/1420/3
f 481/1421/4 482/1422/4 478/1423/4 477/1424/4
f 479/1425/5 483/1426/5 481/1427/5 477/1428/5
f 484/1429/6 480/1430/6 478/1431/6 482/1432/6
f 485/1433/1 486/1434/1 488/1435/1 487/1436/1
f 487/1437/2 488/1438/2 492/1439/2 491/1440/2
f 491/1441/3 492/1442/3 490/1443/3 489/1444/3
f 489/1445/4 490/1446/4 486/1447/4 485/1448/4
f 487/1449/5 491/1450/5 489/1451/5 485/1452/5
f 492/1453/6 488/1454/6 486/1455/6 490/1456/6
f 493/1457/1 494/1458/1 496/1459/1 495/1460/1
f 495/1461/2 496/1462/2 500/1463/2 499/1464/2
f 499/1465/3 500/1466/3 498/1467/3 497/1468/3
f 497/1469/4 498/1470/4 494/1471/4 493/1472/4
f 495/1473/5 499/1474/5 497/1475/5 493/1476/5
f 500/1477/6 496/1478/6 494/1479/6 498/1480/6
f 501/1481/1 502/1482/1 504/1483/1 503/1484/1
f 503/1485/2 504/1486/2 508/1487/2 507/1488/2
f 507/1489/3 508/1490/3 506/1491/3 505/1492/3
f 505/1493/4 506/1494/4 502/1495/4 501/1496/4
f 503/1497/5 507/1498/5 505/1499/5 501/1500/5
f 508/1501/6 504/1502/6 502/1503/6 506/1504/6
f 509/1505/1 510/1506/1 512/1507/1 511/1508/1
f 511/1509/2 512/1510/2 516/1511/2 515/1512/2
f 515/1513/3 516/1514/3 514/1515/3 513/1516/3
f 513/1517/4 514/1518/4 510/1519/4 509/1520/4
f 511/1521/5 515/1522/5 513/1523/5 509/1524/5
f 516/1525/6 512/1526/6 510/1527/6 514/1528/6
f 517/1529/1 518/1530/1 520/1531/1 519/1532/1
f 519/1533/2 520/1534/2 524/1535/2 523/1536/2
f 523/1537/3 524/1538/3 522/1539/3 521/1540/3
f 521/1541/4 522/1542/4 518/1543/4 517/1544/4
f 519/1545/5 523/1546/5 521/1547/5 517/1548/5
f 524/1549/6 520/1550/6 518/1551/6 522/1552/6
f 525/1553/1 526/1554/1 528/1555/1 527/1556/1
f 527/1557/2 528/1558/2 532/1559/2 531/1560/2
f 531/1561/3 532/1562/3 530/1563/3 529/1564/3
f 529/1565/4 530/1566/4 526/1567/4 525/1568/4
f 527/1569/5 531/1570/5 529/1571/5 525/1572/5
f 532/1573/6 528/1574/6 526/1575/6 530/1576/6
f 533/1577/1 534/1578/1 536/1579/1 535/1580/1
f 535/1581/2 536/1582/2 540/1583/2 539/1584/2
f 539/1585/3 540/1586/3 538/1587/3 537/1588/3
f 537/1589/4 538/1590/4 534/1591/4 533/1592/4
f 535/1593/5 539/1594/5 537/1595/5 533/1596/5
f 540/1597/6 536/1598/6 534/1599/6 538/1600/6
f 541/1601/1 542/1602/1 544/1603/1 543/1604/1
f 543/1605/2 544/1606/2 548/1607/2 547/1608/2
f 547/1609/3 548/1610/3 546/1611/3 545/1612/3
f 545/1613/4 546/1614/4 542/1615/4 541/1616/4
f 543/1617/5 547/1618/5 545/1619/5 541/1620/5
f 548/1621/6 544/1622/6 542/1623/6 546/1624/6
f 549/1625/6 550/1626/6 551/1627/6 552/1628/6 553/1629/6 554/1630/6 555/1631/6 556/1632/6 557/1633/6 558/1634/6 559/1635/6
f 560/1636/5 570/1637/5 569/1638/5 568/1639/5 567/1640/5 566/1641/5 565/1642/5 564/1643/5 563/1644/5 562/1645/5 561/1646/5
f 555/1647/2 566/1648/2 567/1649/2 556/1650/2
f 552/1651/1 563/1652/1 564/1653/1 553/1654/1
f 549/1655/4 560/1656/4 561/1657/4 550/1658/4
f 556/1659/3 567/1660/3 568/1661/3 557/1662/3
f 553/1663/2 564/1664/2 565/1665/2 554/1666/2
f 550/1667/3 561/1668/3 562/1669/3 551/1670/3
f 557/1671/2 568/1672/2 569/1673/2 558/1674/2
f 554/1675/1 565/1676/1 566/1677/1 555/1678/1
f 551/1679/2 562/1680/2 563/1681/2 552/1682/2
f 558/1674/10 569/1673/10 570/1683/10 559/1684/10
f 559/1685/14 570/1686/14 560/1687/14 549/1688/14
