# prebaked split of model.obj material Dress
mtllib Dress.mtl
usemtl Dress
v 0.091023 1.018036 0.106453
v 0.116657 1.014729 0.032810
v 0.122149 1.012634 -0.029682
v 0.157004 0.850375 0.010669
v 0.153751 0.866116 -0.052244
v 0.028300 0.827263 -0.070293
v 0.115773 0.842917 0.110056
v 0.068890 1.009227 -0.075563
v 0.024807 0.790870 0.032449
v 0.108443 0.856772 -0.072966
v 0.044407 0.802812 0.123286
v 0.149686 0.913875 -0.048229
v 0.150886 0.916827 0.026891
v 0.101634 0.909670 0.125772
v 0.049927 0.841580 0.148029
v 0.111500 0.924630 -0.096104
v 0.066658 0.940442 -0.118661
v 0.134903 1.327177 0.077474
v 0.143573 1.350631 -0.023268
v 0.084877 1.352617 -0.067524
v 0.089228 1.212692 0.103783
v 0.186015 1.425632 0.076013
v 0.177479 1.408424 0.114901
v 0.191819 1.418808 -0.035603
v 0.191584 1.431687 0.018958
v 0.169559 1.384927 -0.047773
v 0.142119 1.459212 0.071772
v 0.132035 1.464010 -0.023154
v 0.157875 1.461770 0.023971
v 0.086204 1.466244 -0.049039
v 0.161476 1.382247 0.120963
v 0.090370 1.390959 -0.065552
v 0.096663 1.434942 -0.060119
v 0.078661 1.257500 -0.060052
v 0.110637 1.147949 -0.019495
v 0.070184 1.143447 -0.053391
v 0.087475 1.132151 0.098487
v 0.114064 1.141534 0.030849
v 0.116959 1.231995 0.051330
v 0.115868 1.245687 -0.011658
v 0.154065 1.348780 0.116814
v 0.081010 1.437558 0.092425
v 0.051632 0.690321 -0.023035
v 0.078342 0.681604 0.120975
v 0.168272 0.721296 0.021749
v 0.163223 0.726457 -0.027406
v 0.045424 0.674131 0.070809
v 0.110692 0.716932 -0.038906
v 0.141410 0.708962 0.108972
v 0.098805 1.472884 0.065898
v 0.097717 1.479734 -0.008780
v 0.070518 1.480938 -0.038326
v 0.108608 1.477034 0.024985
v 0.061008 1.457514 0.084731
v 0.111815 0.931274 -0.100025
v 0.154601 0.921099 -0.049661
v 0.100944 0.917511 0.130006
v 0.154262 0.924127 0.028332
v 0.067206 0.946369 -0.122215
v 0.136341 1.334338 0.121917
v 0.132548 1.424720 0.106345
v 0.136511 1.373816 0.127373
v 0.159048 1.448913 0.073624
v 0.128383 1.301072 0.108960
v 0.082833 1.317319 -0.067487
v 0.124946 1.295654 0.070530
v 0.130481 1.316199 -0.021453
v 0.087484 1.250013 0.136415
v 0.052659 1.383838 0.136042
v 0.120728 1.297066 0.131901
v 0.120214 1.342752 0.132430
v 0.103051 1.385482 0.127397
v 0.051328 1.337959 0.148629
v 0.084468 1.260547 0.150157
v 0.104643 1.341102 0.141963
v 0.102230 1.291980 0.167060
v 0.057195 1.289857 0.179730
v 0.171911 0.716208 -0.151357
v 0.214282 0.713032 -0.074817
v 0.189120 0.701537 0.216973
v 0.222883 0.716390 0.017580
v 0.116062 0.723432 -0.174592
v 0.091124 0.845015 -0.145970
v 0.142475 0.834152 -0.123679
v 0.186199 0.820778 0.020801
v 0.178122 0.817635 -0.063933
v 0.149544 0.802650 0.171092
v -0.095013 1.018030 0.107806
v -0.122123 1.014708 0.034086
v -0.130001 1.012459 -0.028574
v -0.170491 0.847817 0.025803
v -0.184189 0.861872 -0.039126
v -0.044129 0.826927 -0.073592
v -0.105129 0.844640 0.110296
v -0.076704 1.009163 -0.075364
v -0.029437 0.791315 0.028165
v -0.141840 0.853491 -0.072050
v -0.041578 0.804038 0.119492
v -0.166963 0.912279 -0.044277
v -0.158854 0.916204 0.031037
v -0.101520 0.910213 0.126175
v -0.047861 0.842517 0.145885
v -0.129813 0.923453 -0.096736
v -0.080085 0.940012 -0.120786
v -0.138490 1.328796 0.079635
v -0.145747 1.357204 -0.020938
v -0.092067 1.356553 -0.066239
v -0.093274 1.212680 0.105118
v -0.189776 1.424747 0.075532
v -0.182911 1.408532 0.116084
v -0.186818 1.418549 -0.035313
v -0.191603 1.429531 0.017939
v -0.172879 1.382931 -0.045356
v -0.145803 1.458716 0.070515
v -0.132110 1.462160 -0.023640
v -0.159656 1.460110 0.022295
v -0.090037 1.465165 -0.048809
v -0.166192 1.382080 0.123592
v -0.096504 1.391150 -0.064438
v -0.100557 1.433382 -0.059552
v -0.085100 1.257493 -0.058859
v -0.116471 1.147938 -0.017841
v -0.076516 1.143438 -0.052323
v -0.091591 1.132143 0.099791
v -0.119164 1.141524 0.032548
v -0.121768 1.231982 0.053090
v -0.121597 1.245676 -0.009928
v -0.157987 1.348946 0.119617
v -0.084865 1.437338 0.092687
v -0.075677 0.689297 -0.034766
v -0.052833 0.686049 0.111162
v -0.171650 0.718778 0.047274
v -0.184766 0.721708 -0.000556
v -0.037480 0.677523 0.051908
v -0.138604 0.713361 -0.030416
v -0.116019 0.711284 0.119445
v -0.102690 1.472617 0.065338
v -0.100606 1.478775 -0.009004
v -0.074556 1.480162 -0.038156
v -0.111848 1.476253 0.024325
v -0.065027 1.457393 0.084821
v -0.128761 0.930257 -0.100487
v -0.170161 0.919743 -0.045816
v -0.101667 0.917930 0.130657
v -0.161705 0.923601 0.032295
v -0.080226 0.945970 -0.124077
v -0.001784 1.007363 0.136015
v -0.001973 1.424973 0.112614
v -0.003459 1.009481 -0.093861
v -0.001671 0.842526 0.150460
v -0.007506 0.828993 -0.082872
v -0.002623 0.797943 0.022464
v -0.001783 0.797031 0.134853
v -0.001639 0.900037 0.155329
v -0.005674 0.949662 -0.122802
v -0.003218 1.466968 -0.058256
v -0.003321 1.430098 -0.072433
v -0.003414 1.385333 -0.085396
v -0.003377 1.349246 -0.080481
v -0.003335 1.252957 -0.075298
v -0.003264 1.143298 -0.066356
v -0.001848 1.124892 0.128001
v -0.001782 1.197303 0.137399
v -0.002097 1.447203 0.096089
v -0.003141 1.481885 -0.047609
v -0.001598 0.907631 0.160945
v -0.005366 0.956988 -0.127028
v -0.140170 1.334504 0.124254
v -0.136338 1.424465 0.107180
v -0.140669 1.373576 0.129570
v -0.162639 1.448268 0.072509
v -0.132357 1.301061 0.110860
v -0.089281 1.319616 -0.066235
v -0.003381 1.313770 -0.081216
v -0.129480 1.295643 0.072384
v -0.133206 1.322750 -0.019500
v -0.091058 1.249983 0.137748
v -0.001724 1.244005 0.145734
v -0.001798 1.379406 0.136330
v -0.001682 1.335670 0.152054
v -0.056167 1.383603 0.136741
v -0.124369 1.297056 0.133687
v -0.124058 1.342679 0.134460
v -0.106858 1.385175 0.128817
v -0.054736 1.337954 0.149402
v -0.001646 1.266328 0.156543
v -0.087844 1.260539 0.151412
v -0.108293 1.340959 0.143657
v -0.105360 1.291971 0.168573
v -0.060144 1.289852 0.180585
v -0.001520 1.298678 0.174031
v -0.188485 0.714829 -0.145137
v -0.239895 0.708120 -0.048507
v -0.154485 0.704104 0.235536
v -0.229110 0.713555 0.044679
v -0.133336 0.722410 -0.170986
v 0.030155 0.687979 0.276403
v -0.007766 0.722004 -0.177175
v -0.107260 0.844250 -0.144543
v -0.158672 0.832989 -0.120461
v -0.194777 0.818709 0.037660
v -0.204652 0.813643 -0.047848
v -0.127114 0.804900 0.179334
v 0.021671 0.790442 0.220298
v -0.007680 0.849032 -0.148839
vn 0.287400 0.945300 0.154300
vn 0.382100 0.906600 0.179400
vn 0.336100 0.926600 0.168800
vn 0.498700 -0.097200 0.861300
vn 0.995400 0.092900 -0.023500
vn 0.628900 -0.121500 -0.767900
vn -0.016300 -0.998300 0.055800
vn -0.013700 -0.283000 -0.959000
vn 0.908000 0.038100 0.417200
vn 0.331800 0.861800 -0.383700
vn 0.432300 -0.528100 0.730900
vn 0.148600 -0.435200 0.888000
vn 0.186500 -0.397500 -0.898400
vn 0.171400 0.557000 -0.812600
vn 0.105700 -0.367100 -0.924200
vn 0.638200 0.115600 -0.761100
vn 0.915300 -0.084200 0.393900
vn 0.998300 -0.036100 -0.046200
vn 0.008200 0.330400 0.943800
vn 0.944100 -0.329500 -0.005600
vn 0.636400 -0.158200 -0.755000
vn 0.724700 -0.043100 -0.687700
vn 0.584300 0.778700 -0.228600
vn 0.320100 0.743800 0.586700
vn 0.097700 0.358800 -0.928300
vn 0.936800 0.038200 0.347900
vn 0.353500 -0.413500 -0.839100
vn 0.206500 0.177200 -0.962300
vn 0.150700 0.190300 -0.970100
vn 0.098700 0.530500 0.841900
vn 0.249000 0.125800 -0.960300
vn 0.343800 0.549800 -0.761300
vn 0.179600 -0.052000 -0.982400
vn 0.151000 0.005400 -0.988500
vn 0.876100 -0.479700 0.048900
vn 0.334800 -0.157100 0.929100
vn 0.656000 0.738100 0.157800
vn 0.180300 -0.075200 -0.980700
vn 0.855500 -0.307800 0.416400
vn 0.238300 -0.508300 -0.827500
vn 0.934200 0.355900 0.025800
vn 0.998400 0.053100 0.020300
vn 0.339400 -0.093900 0.935900
vn 0.257200 -0.419300 0.870600
vn -0.022500 -0.951100 -0.308100
vn 0.626800 -0.474800 -0.617800
vn 0.287000 -0.506800 0.812900
vn 0.301500 0.070300 0.950900
vn 0.924800 0.143100 0.352600
vn -0.973800 -0.203300 -0.102400
vn 0.171400 0.026900 0.984800
vn -0.970000 -0.098300 0.222200
vn 0.338900 -0.180400 -0.923400
vn 0.995800 0.068700 -0.061000
vn 0.119600 0.556900 0.821900
vn 0.095100 0.614900 -0.782900
vn 0.331000 0.939000 -0.093000
vn 0.199100 0.053400 0.978500
vn 0.264100 0.239500 0.934300
vn 0.647900 0.449400 -0.615000
vn 0.868400 -0.495700 0.014500
vn 0.879000 0.258600 0.400700
vn 0.515400 0.501800 -0.694700
vn -0.015900 -0.505400 -0.862700
vn -0.796600 -0.233700 0.557500
vn 0.491800 0.845700 0.207400
vn 0.070800 0.696300 0.714300
vn 0.926600 -0.319200 0.198900
vn 0.955400 -0.292000 -0.044300
vn 0.174000 -0.114200 -0.978100
vn 0.716800 -0.191900 -0.670400
vn 0.986200 -0.165500 -0.008300
vn 0.793300 -0.379300 0.476200
vn 0.072600 -0.592800 0.802100
vn 0.056200 0.549400 0.833700
vn 0.791500 -0.174700 0.585700
vn 0.787400 -0.525400 0.322500
vn 0.101000 0.287900 0.952300
vn 0.014100 0.301100 0.953500
vn 0.019100 0.562900 0.826300
vn 0.013700 0.529900 0.848000
vn 0.248200 -0.563800 0.787700
vn 0.141400 0.499200 0.854900
vn 0.776500 0.143400 0.613600
vn 0.747600 -0.588200 0.308300
vn -0.154900 -0.469300 0.869300
vn 0.127000 0.286100 0.949700
vn 0.477300 0.289500 0.829700
vn 0.004800 -0.708000 0.706200
vn 0.497100 -0.120900 0.859200
vn 0.415300 0.296400 -0.860100
vn 0.951500 0.297900 -0.077500
vn 0.937400 0.333500 -0.100500
vn 0.950000 0.301900 -0.080000
vn 0.272200 0.481600 0.833000
vn 0.026500 0.225800 -0.973800
vn 0.899700 0.378900 0.216900
vn 0.840700 0.323100 -0.434600
vn 0.807800 0.312700 -0.499600
vn 0.862300 0.371200 0.344400
vn 0.062300 0.218400 -0.973900
vn 0.254700 0.449500 0.856200
vn 0.962900 0.264100 -0.055800
vn 0.468700 0.325100 -0.821400
vn -0.306900 0.942500 0.132300
vn -0.353600 0.924400 0.142900
vn -0.400100 0.904100 0.150300
vn -0.524500 -0.173000 0.833700
vn -0.958300 0.232700 0.165800
vn -0.732000 0.009000 -0.681300
vn -0.013900 -0.998300 0.057100
vn -0.118600 -0.265100 -0.956900
vn -0.825600 0.005000 0.564200
vn -0.362700 0.848100 -0.386300
vn -0.454400 -0.553100 0.698200
vn -0.236400 -0.448500 0.862000
vn -0.183200 -0.380000 -0.906700
vn -0.160200 0.575300 -0.802100
vn -0.057300 -0.356000 -0.932700
vn -0.645600 0.127100 -0.753000
vn -0.909400 -0.084400 0.407200
vn -0.998800 -0.036200 -0.031700
vn 0.000700 0.360700 0.932700
vn -0.953100 -0.301000 -0.032400
vn -0.680400 -0.160500 -0.715000
vn -0.734600 -0.043100 -0.677100
vn -0.598800 0.756300 -0.263300
vn -0.322600 0.769300 0.551500
vn -0.109800 0.354100 -0.928700
vn -0.931000 0.039000 0.362800
vn -0.364300 -0.488000 -0.793200
vn -0.213400 0.181300 -0.960000
vn -0.163000 0.191200 -0.967900
vn -0.097900 0.531100 0.841600
vn -0.271400 0.120400 -0.954900
vn -0.366500 0.541900 -0.756300
vn -0.193700 -0.055400 -0.979500
vn -0.164800 0.003600 -0.986300
vn -0.879200 -0.475700 0.027800
vn -0.313200 -0.158200 0.936400
vn -0.672800 0.732200 0.105700
vn -0.194500 -0.075200 -0.978000
vn -0.812800 -0.340700 0.472500
vn -0.264900 -0.451300 -0.852100
vn -0.917100 0.388500 0.089600
vn -0.997000 0.061000 0.048000
vn -0.325700 -0.094000 0.940800
vn -0.244200 -0.419700 0.874200
vn 0.056700 -0.948800 -0.310800
vn -0.727400 -0.332000 -0.600500
vn -0.291200 -0.528100 0.797700
vn -0.287600 0.070300 0.955200
vn -0.783300 0.107400 0.612300
vn 0.922300 -0.223700 -0.315100
vn -0.005300 0.003700 1.000000
vn 0.989700 -0.041300 0.137300
vn -0.591600 -0.227000 -0.773600
vn -0.969100 0.059700 0.239400
vn -0.135100 0.563500 0.815000
vn -0.107200 0.613100 -0.782700
vn -0.357000 0.926200 -0.121300
vn -0.223600 0.019700 0.974500
vn -0.258500 0.232600 0.937600
vn -0.653300 0.492900 -0.574700
vn -0.920500 -0.372400 0.118300
vn -0.860800 0.256600 0.439500
vn -0.502600 0.545200 -0.670900
vn 0.039300 -0.492500 -0.869400
vn 0.958200 -0.110000 0.264100
vn -0.505100 0.846200 0.169600
vn -0.078400 0.718300 0.691300
vn -0.923600 -0.319200 0.212400
vn -0.966300 -0.254700 -0.036400
vn -0.189700 -0.112000 -0.975400
vn -0.747900 -0.163200 -0.643500
vn -0.990700 -0.135100 -0.012900
vn -0.786500 -0.379500 0.487200
vn -0.060700 -0.592100 0.803600
vn -0.051600 0.552700 0.831800
vn -0.783500 -0.180900 0.594400
vn -0.782600 -0.525000 0.334500
vn -0.083200 0.304100 0.949000
vn -0.001600 0.302700 0.953100
vn -0.010600 0.572400 0.819900
vn -0.001400 0.529900 0.848100
vn -0.236600 -0.563900 0.791200
vn -0.128300 0.498600 0.857300
vn -0.767000 0.138600 0.626500
vn -0.743000 -0.588300 0.319100
vn 0.167600 -0.469300 0.867000
vn -0.111800 0.290800 0.950200
vn -0.457000 0.296300 0.838700
vn 0.005500 -0.708000 0.706200
vn -0.485400 -0.124000 0.865500
vn -0.447600 0.284800 -0.847700
vn -0.946500 0.309800 0.090200
vn -0.946400 0.310200 0.090200
vn -0.944800 0.314800 0.090700
vn -0.165400 0.488700 0.856600
vn -0.049600 0.219700 -0.974300
vn -0.843800 0.371600 0.387100
vn -0.846800 0.296300 -0.441700
vn -0.816000 0.311100 -0.487200
vn -0.820200 0.335200 0.463600
vn -0.059200 0.205300 -0.976900
vn -0.211600 0.416800 0.884000
vn -0.948100 0.305000 0.089600
vn -0.475700 0.303900 -0.825400
f 53//1 50//1 27//2
f 53//1 27//2 29//3
f 7//4 14//4 15//4
f 13//5 4//5 5//5
f 13//5 5//5 12//5
f 12//6 5//6 10//6
f 12//6 10//6 16//6
f 152//7 9//7 11//7
f 152//7 11//7 153//7
f 43//8 6//8 10//8
f 43//8 10//8 48//8
f 14//9 7//9 4//9
f 14//9 4//9 13//9
f 51//10 28//10 30//10
f 51//10 30//10 52//10
f 11//11 7//11 15//11
f 153//12 11//12 15//12
f 153//12 15//12 150//12
f 6//13 17//13 16//13
f 6//13 16//13 10//13
f 149//14 8//14 59//14
f 149//14 59//14 167//14
f 6//15 151//15 155//15
f 6//15 155//15 17//15
f 35//16 3//16 8//16
f 35//16 8//16 36//16
f 39//17 21//17 37//17
f 39//17 37//17 38//17
f 38//18 35//18 40//18
f 38//18 40//18 39//18
f 61//19 62//19 31//19
f 61//19 31//19 23//19
f 67//20 19//20 18//20
f 67//20 18//20 66//20
f 65//21 20//21 19//21
f 65//21 19//21 67//21
f 35//22 36//22 34//22
f 35//22 34//22 40//22
f 24//23 28//23 29//23
f 24//23 29//23 25//23
f 22//24 63//24 61//24
f 22//24 61//24 23//24
f 30//25 33//25 157//25
f 30//25 157//25 156//25
f 1//26 2//26 38//26
f 1//26 38//26 37//26
f 20//27 32//27 26//27
f 20//27 26//27 19//27
f 8//28 149//28 161//28
f 8//28 161//28 36//28
f 33//29 32//29 158//29
f 33//29 158//29 157//29
f 54//30 164//30 148//30
f 54//30 148//30 42//30
f 24//31 26//31 32//31
f 24//31 32//31 33//31
f 28//32 24//32 33//32
f 28//32 33//32 30//32
f 159//33 158//33 32//33
f 159//33 32//33 20//33
f 174//34 159//34 20//34
f 174//34 20//34 65//34
f 18//35 41//35 60//35
f 18//35 60//35 64//35
f 60//36 41//36 31//36
f 60//36 31//36 62//36
f 25//37 29//37 63//37
f 25//37 63//37 22//37
f 36//38 161//38 160//38
f 36//38 160//38 34//38
f 57//39 14//39 13//39
f 57//39 13//39 58//39
f 16//40 17//40 59//40
f 16//40 59//40 55//40
f 56//41 3//41 2//41
f 56//41 2//41 58//41
f 2//42 3//42 35//42
f 2//42 35//42 38//42
f 37//43 21//43 163//43
f 37//43 163//43 162//43
f 21//44 68//44 178//44
f 21//44 178//44 163//44
f 151//45 6//45 9//45
f 151//45 9//45 152//45
f 56//46 12//46 16//46
f 56//46 16//46 55//46
f 166//47 154//47 14//47
f 166//47 14//47 57//47
f 37//48 162//48 147//48
f 37//48 147//48 1//48
f 7//49 49//49 45//49
f 7//49 45//49 4//49
f 6//50 43//50 47//50
f 6//50 47//50 9//50
f 7//51 11//51 44//51
f 7//51 44//51 49//51
f 9//52 47//52 11//52
f 5//53 46//53 48//53
f 5//53 48//53 10//53
f 4//54 45//54 46//54
f 4//54 46//54 5//54
f 27//55 50//55 54//55
f 27//55 54//55 42//55
f 156//56 165//56 52//56
f 156//56 52//56 30//56
f 28//57 51//57 53//57
f 28//57 53//57 29//57
f 154//58 150//58 15//58
f 154//58 15//58 14//58
f 147//59 166//59 57//59
f 147//59 57//59 1//59
f 3//60 56//60 55//60
f 3//60 55//60 8//60
f 12//61 56//61 58//61
f 12//61 58//61 13//61
f 1//62 57//62 58//62
f 1//62 58//62 2//62
f 55//63 59//63 8//63
f 167//64 59//64 17//64
f 167//64 17//64 155//64
f 11//65 47//65 44//65
f 63//66 29//3 27//2
f 61//67 63//67 27//67
f 61//67 27//67 42//67
f 64//68 21//68 39//68
f 64//68 39//68 66//68
f 64//69 66//69 18//69
f 160//70 174//70 65//70
f 160//70 65//70 34//70
f 34//71 65//71 67//71
f 34//71 67//71 40//71
f 40//72 67//72 66//72
f 40//72 66//72 39//72
f 64//73 68//73 21//73
f 178//74 68//74 74//74
f 178//74 74//74 186//74
f 42//75 148//75 179//75
f 42//75 179//75 69//75
f 64//76 60//76 71//76
f 64//76 71//76 70//76
f 68//77 64//77 70//77
f 68//77 70//77 74//77
f 62//78 61//78 72//78
f 62//78 72//78 71//78
f 69//79 179//79 180//79
f 69//79 180//79 73//79
f 61//80 42//80 69//80
f 61//80 69//80 72//80
f 77//81 73//81 180//81
f 77//81 180//81 191//81
f 76//82 77//82 74//82
f 76//83 75//83 73//83
f 76//83 73//83 77//83
f 70//84 71//84 75//84
f 70//84 75//84 76//84
f 70//85 76//85 74//85
f 77//86 191//86 186//86
f 72//87 69//87 73//87
f 72//87 73//87 75//87
f 72//88 75//88 71//88
f 74//89 77//89 186//89
f 71//90 60//90 62//90
f 83//91 84//91 78//91
f 83//91 78//91 82//91
f 85//92 81//93 79//93
f 85//92 79//93 86//94
f 87//95 204//95 197//95
f 87//95 197//95 80//95
f 83//96 82//96 198//96
f 83//96 198//96 205//96
f 85//97 87//97 80//97
f 85//97 80//97 81//97
f 84//98 86//98 79//98
f 84//98 79//98 78//98
f 55//99 56//99 86//99
f 55//99 86//99 84//99
f 58//100 57//100 87//100
f 58//100 87//100 85//100
f 59//101 83//101 205//101
f 59//101 205//101 167//101
f 57//102 166//102 204//102
f 57//102 204//102 87//102
f 58//103 85//92 86//94
f 58//103 86//94 56//103
f 59//104 55//104 84//104
f 59//104 84//104 83//104
f 140//105 116//106 114//107
f 140//105 114//107 137//105
f 94//108 102//108 101//108
f 100//109 99//109 92//109
f 100//109 92//109 91//109
f 99//110 103//110 97//110
f 99//110 97//110 92//110
f 152//111 153//111 98//111
f 152//111 98//111 96//111
f 130//112 135//112 97//112
f 130//112 97//112 93//112
f 101//113 100//113 91//113
f 101//113 91//113 94//113
f 138//114 139//114 117//114
f 138//114 117//114 115//114
f 98//115 102//115 94//115
f 153//116 150//116 102//116
f 153//116 102//116 98//116
f 93//117 97//117 103//117
f 93//117 103//117 104//117
f 149//118 167//118 146//118
f 149//118 146//118 95//118
f 93//119 104//119 155//119
f 93//119 155//119 151//119
f 122//120 123//120 95//120
f 122//120 95//120 90//120
f 126//121 125//121 124//121
f 126//121 124//121 108//121
f 125//122 126//122 127//122
f 125//122 127//122 122//122
f 169//123 110//123 118//123
f 169//123 118//123 170//123
f 176//124 175//124 105//124
f 176//124 105//124 106//124
f 173//125 176//125 106//125
f 173//125 106//125 107//125
f 122//126 127//126 121//126
f 122//126 121//126 123//126
f 111//127 112//127 116//127
f 111//127 116//127 115//127
f 109//128 110//128 169//128
f 109//128 169//128 171//128
f 117//129 156//129 157//129
f 117//129 157//129 120//129
f 88//130 124//130 125//130
f 88//130 125//130 89//130
f 107//131 106//131 113//131
f 107//131 113//131 119//131
f 95//132 123//132 161//132
f 95//132 161//132 149//132
f 120//133 157//133 158//133
f 120//133 158//133 119//133
f 141//134 129//134 148//134
f 141//134 148//134 164//134
f 111//135 120//135 119//135
f 111//135 119//135 113//135
f 115//136 117//136 120//136
f 115//136 120//136 111//136
f 159//137 107//137 119//137
f 159//137 119//137 158//137
f 174//138 173//138 107//138
f 174//138 107//138 159//138
f 105//139 172//139 168//139
f 105//139 168//139 128//139
f 168//140 170//140 118//140
f 168//140 118//140 128//140
f 112//141 109//141 171//141
f 112//141 171//141 116//141
f 123//142 121//142 160//142
f 123//142 160//142 161//142
f 144//143 145//143 100//143
f 144//143 100//143 101//143
f 103//144 142//144 146//144
f 103//144 146//144 104//144
f 143//145 145//145 89//145
f 143//145 89//145 90//145
f 89//146 125//146 122//146
f 89//146 122//146 90//146
f 124//147 162//147 163//147
f 124//147 163//147 108//147
f 108//148 163//148 178//148
f 108//148 178//148 177//148
f 151//149 152//149 96//149
f 151//149 96//149 93//149
f 143//150 142//150 103//150
f 143//150 103//150 99//150
f 166//151 144//151 101//151
f 166//151 101//151 154//151
f 124//152 88//152 147//152
f 124//152 147//152 162//152
f 94//153 91//153 132//153
f 94//153 132//153 136//153
f 93//154 96//154 134//154
f 93//154 134//154 130//154
f 94//155 136//155 131//155
f 94//155 131//155 98//155
f 96//156 98//156 134//156
f 92//157 97//157 135//157
f 92//157 135//157 133//157
f 91//158 92//158 133//158
f 91//158 133//158 132//158
f 114//159 129//159 141//159
f 114//159 141//159 137//159
f 156//160 117//160 139//160
f 156//160 139//160 165//160
f 115//161 116//161 140//161
f 115//161 140//161 138//161
f 154//162 101//162 102//162
f 154//162 102//162 150//162
f 147//163 88//163 144//163
f 147//163 144//163 166//163
f 90//164 95//164 142//164
f 90//164 142//164 143//164
f 99//165 100//165 145//165
f 99//165 145//165 143//165
f 88//166 89//166 145//166
f 88//166 145//166 144//166
f 142//167 95//167 146//167
f 167//168 155//168 104//168
f 167//168 104//168 146//168
f 98//169 131//169 134//169
f 171//170 114//107 116//106
f 169//171 129//171 114//171
f 169//171 114//171 171//171
f 172//172 175//172 126//172
f 172//172 126//172 108//172
f 172//173 105//173 175//173
f 160//174 121//174 173//174
f 160//174 173//174 174//174
f 121//175 127//175 176//175
f 121//175 176//175 173//175
f 127//176 126//176 175//176
f 127//176 175//176 176//176
f 172//177 108//177 177//177
f 178//178 186//178 187//178
f 178//178 187//178 177//178
f 129//179 181//179 179//179
f 129//179 179//179 148//179
f 172//180 182//180 183//180
f 172//180 183//180 168//180
f 177//181 187//181 182//181
f 177//181 182//181 172//181
f 170//182 183//182 184//182
f 170//182 184//182 169//182
f 181//183 185//183 180//183
f 181//183 180//183 179//183
f 169//184 184//184 181//184
f 169//184 181//184 129//184
f 190//185 191//185 180//185
f 190//185 180//185 185//185
f 189//186 187//186 190//186
f 189//187 190//187 185//187
f 189//187 185//187 188//187
f 182//188 189//188 188//188
f 182//188 188//188 183//188
f 182//189 187//189 189//189
f 190//190 186//190 191//190
f 184//191 188//191 185//191
f 184//191 185//191 181//191
f 184//192 183//192 188//192
f 187//193 186//193 190//193
f 183//194 170//194 168//194
f 199//195 196//195 192//195
f 199//195 192//195 200//195
f 201//196 202//197 193//198
f 201//196 193//198 195//198
f 203//199 194//199 197//199
f 203//199 197//199 204//199
f 199//200 205//200 198//200
f 199//200 198//200 196//200
f 201//201 195//201 194//201
f 201//201 194//201 203//201
f 200//202 192//202 193//202
f 200//202 193//202 202//202
f 142//203 200//203 202//203
f 142//203 202//203 143//203
f 145//204 201//204 203//204
f 145//204 203//204 144//204
f 146//205 167//205 205//205
f 146//205 205//205 199//205
f 144//206 203//206 204//206
f 144//206 204//206 166//206
f 145//207 143//207 202//197
f 145//207 202//197 201//196
f 146//208 199//208 200//208
f 146//208 200//208 142//208
