# prebaked split of model.obj material Hair.007
mtllib Hair_007.mtl
usemtl Hair.007
v 0.088067 1.591346 0.014117
v 0.066812 1.571417 -0.016900
v 0.099347 1.657240 0.047114
v 0.076908 1.704118 0.118054
v 0.040166 1.565903 -0.034680
v 0.020596 1.729372 0.141260
v 0.084303 1.667897 0.108328
v 0.094316 1.623090 0.014538
v 0.053719 1.720983 0.133976
v 0.039880 1.569858 -0.056471
v 0.090031 1.597819 0.005013
v 0.067047 1.575991 -0.038331
v 0.089053 1.711283 -0.002464
v 0.059968 1.694095 -0.051141
v 0.045169 1.664165 -0.065183
v 0.099896 1.671471 0.004529
v 0.069759 1.666484 -0.054595
v 0.096192 1.630570 0.006035
v 0.072885 1.615222 -0.059070
v 0.102629 1.673029 0.041880
v 0.056057 1.735170 0.123230
v 0.079732 1.720208 0.111693
v 0.094918 1.715919 0.039584
v 0.035558 1.770296 0.037677
v 0.036003 1.765200 -0.010021
v 0.024152 1.633521 -0.118164
v 0.067934 1.753721 0.034982
v 0.061426 1.746801 -0.008687
v 0.022522 1.762484 0.097299
v 0.030124 1.728858 -0.047296
v 0.035287 1.691508 -0.065916
v 0.041590 1.616179 -0.071501
v 0.022285 1.743724 0.130657
v 0.055526 1.744797 0.098839
v 0.087288 1.684057 0.104164
v 0.029257 1.708946 -0.058481
v 0.026872 1.675796 -0.069541
v 0.005377 1.676861 -0.097048
v 0.019842 1.690895 -0.106542
v 0.014067 1.704271 -0.115462
v 0.040451 1.642962 -0.147007
v 0.009230 1.584505 -0.112389
v 0.033852 1.648570 -0.164044
v 0.031396 1.561804 -0.147773
v 0.022419 1.553695 -0.173933
v 0.017915 1.513814 -0.071524
v 0.022976 1.508873 -0.113183
v 0.013989 1.513093 -0.140241
v 0.009199 1.453428 -0.096529
v 0.010915 1.459456 -0.116805
v 0.004985 1.464484 -0.130629
v -0.093495 1.591295 0.015339
v -0.072653 1.571373 -0.015953
v -0.104361 1.657194 0.048466
v -0.080992 1.704077 0.119118
v -0.046254 1.565874 -0.034089
v -0.024386 1.729361 0.141563
v -0.088499 1.667864 0.109480
v -0.099753 1.623037 0.015832
v -0.057599 1.720954 0.134726
v -0.003148 1.568405 -0.049289
v -0.001861 1.732962 0.146569
v -0.046262 1.569825 -0.055887
v -0.003297 1.571698 -0.071524
v -0.095585 1.597767 0.006264
v -0.073180 1.575943 -0.037383
v -0.094765 1.711236 -0.001225
v -0.066329 1.694062 -0.050290
v -0.051705 1.664140 -0.064530
v -0.003350 1.670523 -0.076765
v -0.105491 1.671418 0.005914
v -0.076151 1.666447 -0.053612
v -0.101747 1.630514 0.007353
v -0.079315 1.615170 -0.058053
v -0.003402 1.617370 -0.086118
v -0.107721 1.672974 0.043297
v -0.060090 1.735140 0.124013
v -0.083911 1.720166 0.112796
v -0.100065 1.715868 0.040898
v -0.002928 1.771979 -0.010306
v -0.002593 1.775278 0.039501
v -0.040764 1.770276 0.038192
v -0.041849 1.765180 -0.009496
v -0.031389 1.633506 -0.117790
v -0.003172 1.732652 -0.047978
v -0.073165 1.753684 0.035933
v -0.067242 1.746768 -0.007820
v -0.026921 1.762472 0.097633
v -0.002202 1.764448 0.097136
v -0.001936 1.747384 0.136080
v -0.036454 1.728841 -0.046847
v -0.041849 1.691488 -0.065396
v -0.048191 1.616146 -0.070902
v -0.026225 1.743712 0.130984
v -0.059893 1.744767 0.099616
v -0.091549 1.684010 0.105369
v -0.035728 1.708929 -0.058043
v -0.003236 1.715233 -0.058069
v -0.033475 1.675781 -0.069135
v -0.012353 1.676856 -0.096929
v -0.003472 1.673508 -0.094745
v -0.026952 1.690883 -0.106227
v -0.021304 1.704261 -0.115224
v -0.003635 1.707651 -0.117610
v -0.003619 1.633560 -0.118118
v -0.048080 1.642939 -0.146410
v -0.016365 1.584498 -0.112217
v -0.041714 1.648550 -0.163534
v -0.003974 1.650645 -0.170139
v -0.003529 1.578648 -0.106860
v -0.038994 1.561786 -0.147298
v -0.030366 1.553681 -0.173578
v -0.004020 1.548018 -0.180906
v -0.024461 1.513803 -0.071238
v -0.003256 1.506160 -0.069058
v -0.030081 1.508860 -0.112825
v -0.021463 1.513084 -0.140003
v -0.003796 1.511132 -0.149035
v -0.016053 1.453422 -0.096359
v -0.003403 1.450879 -0.093073
v -0.018045 1.459449 -0.116610
v -0.012305 1.464479 -0.130512
v -0.003697 1.466478 -0.136073
v -0.003699 1.436254 -0.137484
v 0.077235 1.662351 0.151615
v 0.021610 1.667021 0.167582
v 0.022648 1.678416 0.165596
v 0.048907 1.677662 0.157638
v 0.047849 1.667738 0.157991
v 0.075983 1.662151 0.147076
v 0.020357 1.666821 0.163043
v 0.021395 1.678216 0.161057
v 0.047655 1.677463 0.153099
v 0.046597 1.667538 0.153452
v -0.080823 1.659760 0.154477
v -0.025005 1.666037 0.168524
v -0.026068 1.676721 0.167149
v -0.052428 1.675505 0.159963
v -0.051363 1.665743 0.160044
v -0.079632 1.659649 0.149927
v -0.023814 1.665868 0.163971
v -0.024877 1.676574 0.162597
v -0.051237 1.675376 0.155412
v -0.050172 1.665609 0.155493
vn 0.323400 -0.928300 -0.183600
vn 0.625700 0.300100 0.720000
vn 0.824600 0.035700 0.564600
vn 0.309100 0.541300 0.782000
vn 0.267300 0.559900 0.784300
vn 0.960000 -0.113000 0.256000
vn 0.801300 -0.578800 -0.151700
vn 0.006200 -0.986700 -0.162500
vn 0.979800 -0.189900 0.063100
vn 0.980800 -0.189300 0.047600
vn 0.305300 0.106500 -0.946300
vn 0.798900 0.586500 0.133400
vn 0.832700 0.228300 -0.504400
vn 0.971400 0.204300 -0.121100
vn 0.800400 0.567800 -0.192100
vn 0.079000 0.492100 -0.866900
vn 0.606700 0.743800 0.280400
vn 0.632300 0.740900 0.226400
vn 0.111200 0.694800 -0.710600
vn 0.509700 0.848000 -0.145300
vn 0.694000 0.439900 -0.570000
vn 0.456600 0.864200 0.211200
vn 0.695100 -0.609800 -0.380900
vn 0.377000 0.098400 -0.921000
vn 0.502200 0.553500 -0.664400
vn 0.415000 0.474500 -0.776300
vn 0.148600 0.985300 -0.084700
vn 0.149000 0.886100 0.439000
vn 0.455100 -0.377400 -0.806500
vn 0.295300 -0.297500 -0.907900
vn 0.920000 -0.238500 -0.310900
vn 0.365600 0.241000 -0.899000
vn 0.364800 0.836300 0.409200
vn 0.112600 0.979400 0.167800
vn 0.964500 0.173100 0.199300
vn 0.918200 0.007000 -0.396100
vn 0.993300 -0.092500 -0.068800
vn 0.201000 0.169600 -0.964800
vn 0.796600 -0.062000 0.601300
vn 0.518200 -0.081100 -0.851400
vn 0.402800 0.434900 -0.805400
vn 0.837700 -0.133900 0.529400
vn 0.191800 0.973000 -0.128000
vn 0.895800 0.328800 -0.299000
vn 0.234900 -0.952000 -0.196400
vn 0.946800 0.169200 0.273900
vn 0.172900 0.674100 -0.718100
vn 0.892700 0.438200 -0.105100
vn 0.097800 -0.451800 0.886800
vn 0.193500 0.090900 -0.976900
vn 0.938600 -0.089100 -0.333300
vn 0.114400 0.144800 0.982800
vn 0.014400 0.482200 0.876000
vn 0.972100 -0.210700 0.102700
vn 0.891300 -0.360900 -0.274500
vn 0.355600 -0.625400 -0.694600
vn 0.871200 -0.485700 -0.070700
vn 0.272700 -0.393100 0.878100
vn 0.900400 -0.216500 -0.377500
vn 0.458400 -0.250200 -0.852800
vn 0.267400 -0.915800 0.299800
vn 0.883200 -0.165100 -0.438900
vn 0.537300 0.039300 -0.842500
vn -0.325300 -0.928500 -0.179000
vn -0.616100 0.299800 0.728400
vn -0.816800 0.035100 0.575900
vn -0.298800 0.541100 0.786100
vn -0.257000 0.559800 0.787800
vn -0.956400 -0.113800 0.269000
vn -0.803000 -0.579200 -0.140700
vn -0.007600 -0.986700 -0.162300
vn -0.978700 -0.190400 0.076400
vn -0.979900 -0.189900 0.060900
vn -0.318000 0.106400 -0.942100
vn -0.797300 0.586100 0.144100
vn -0.839500 0.227900 -0.493200
vn -0.973000 0.203800 -0.108000
vn -0.803200 0.567400 -0.181300
vn -0.090900 0.492100 -0.865800
vn -0.603300 0.743500 0.288500
vn -0.629600 0.740500 0.234900
vn -0.121100 0.694700 -0.709000
vn -0.512000 0.847700 -0.138500
vn -0.701800 0.439600 -0.560600
vn -0.454200 0.864000 0.217400
vn -0.699800 -0.610100 -0.371500
vn -0.389400 0.098400 -0.915800
vn -0.511400 0.553200 -0.657600
vn -0.425600 0.474300 -0.770600
vn -0.150300 0.985200 -0.082600
vn -0.143500 0.886000 0.440900
vn -0.465700 -0.377700 -0.800300
vn -0.307300 -0.297700 -0.903900
vn -0.924000 -0.239000 -0.298400
vn -0.377800 0.240800 -0.894000
vn -0.359600 0.836200 0.414100
vn -0.110800 0.979300 0.169300
vn -0.961800 0.172600 0.212300
vn -0.923400 0.006700 -0.383800
vn -0.994100 -0.093000 -0.055400
vn -0.214100 0.169500 -0.962000
vn -0.788400 -0.062400 0.612000
vn -0.529600 -0.081400 -0.844400
vn -0.413800 0.434600 -0.799900
vn -0.830500 -0.134400 0.540600
vn -0.194000 0.972900 -0.125400
vn -0.899900 0.328300 -0.286900
vn -0.237000 -0.952100 -0.193200
vn -0.943100 0.168700 0.286600
vn -0.182900 0.674000 -0.715800
vn -0.894300 0.437800 -0.093000
vn -0.085600 -0.451800 0.888000
vn -0.206700 0.090800 -0.974200
vn -0.943000 -0.089600 -0.320600
vn -0.101200 0.144700 0.984300
vn -0.002800 0.482200 0.876100
vn -0.970600 -0.211200 0.115800
vn -0.894700 -0.361400 -0.262400
vn -0.364600 -0.625500 -0.689700
vn -0.871900 -0.486200 -0.059000
vn -0.260600 -0.393200 0.881700
vn -0.905200 -0.217000 -0.365300
vn -0.469700 -0.250400 -0.846500
vn -0.262900 -0.915900 0.303400
vn -0.889000 -0.165600 -0.427000
vn -0.548600 0.039000 -0.835200
vn 0.214100 0.011900 0.976700
vn 0.316200 0.072700 0.945900
vn -0.214100 -0.011900 -0.976700
vn -0.316200 -0.072700 -0.945900
vn -0.161200 -0.983000 0.087700
vn -0.957000 0.132200 0.258200
vn 0.442600 0.882200 -0.160900
vn 0.039400 -0.998700 0.033100
vn 0.014200 0.998800 -0.047800
vn -0.183400 -0.011800 0.983000
vn -0.285700 0.038500 0.957600
vn 0.183300 0.011800 -0.983000
vn 0.285600 -0.038400 -0.957600
vn 0.184500 -0.980000 0.074700
vn 0.960700 0.127200 0.246900
vn -0.458400 0.877100 -0.143200
vn -0.000200 -0.999400 0.033200
vn -0.035000 0.998600 -0.039500
f 2//1 5//1 10//1
f 2//1 10//1 12//1
f 9//2 4//2 22//2
f 9//2 22//2 21//2
f 4//3 7//3 35//3
f 4//3 35//3 22//3
f 6//4 9//4 21//4
f 6//4 21//4 33//4
f 62//5 6//5 33//5
f 62//5 33//5 90//5
f 7//6 3//6 20//6
f 7//6 20//6 35//6
f 1//7 2//7 12//7
f 1//7 12//7 11//7
f 5//8 61//8 64//8
f 5//8 64//8 10//8
f 8//9 1//9 11//9
f 8//9 11//9 18//9
f 3//10 8//10 18//10
f 3//10 18//10 20//10
f 32//11 75//11 37//11
f 32//11 37//11 15//11
f 27//12 22//12 23//12
f 13//13 16//13 17//13
f 13//13 17//13 14//13
f 16//14 13//14 23//14
f 16//14 23//14 20//14
f 13//15 28//15 27//15
f 13//15 27//15 23//15
f 85//16 30//16 36//16
f 85//16 36//16 98//16
f 22//17 34//17 21//17
f 27//18 34//18 22//18
f 80//19 25//19 30//19
f 80//19 30//19 85//19
f 27//20 28//20 25//20
f 27//20 25//20 24//20
f 14//21 28//21 13//21
f 27//22 24//22 29//22
f 27//22 29//22 34//22
f 37//23 38//23 39//23
f 37//23 39//23 31//23
f 19//24 32//24 15//24
f 19//24 15//24 17//24
f 30//25 25//25 28//25
f 30//25 28//25 14//25
f 31//26 36//26 14//26
f 24//27 25//27 80//27
f 24//27 80//27 81//27
f 33//28 29//28 89//28
f 33//28 89//28 90//28
f 12//29 10//29 32//29
f 12//29 32//29 19//29
f 10//30 64//30 75//30
f 10//30 75//30 32//30
f 11//31 12//31 19//31
f 11//31 19//31 18//31
f 17//32 15//32 37//32
f 17//32 37//32 14//32
f 21//33 34//33 29//33
f 21//33 29//33 33//33
f 29//34 24//34 81//34
f 29//34 81//34 89//34
f 35//35 20//35 23//35
f 35//35 23//35 22//35
f 19//36 17//36 16//36
f 19//36 16//36 18//36
f 20//37 18//37 16//37
f 37//38 75//38 70//38
f 39//39 38//39 26//39
f 39//39 26//39 41//39
f 14//40 37//40 31//40
f 14//41 36//41 30//41
f 41//42 26//42 42//42
f 41//42 42//42 44//42
f 98//43 36//43 40//43
f 98//43 40//43 104//43
f 36//44 31//44 39//44
f 36//44 39//44 40//44
f 37//45 70//45 101//45
f 37//45 101//45 38//45
f 44//46 42//46 46//46
f 44//46 46//46 47//46
f 104//47 40//47 43//47
f 104//47 43//47 109//47
f 40//48 39//48 41//48
f 40//48 41//48 43//48
f 38//49 101//49 105//49
f 38//49 105//49 26//49
f 109//50 43//50 45//50
f 109//50 45//50 113//50
f 43//51 41//51 44//51
f 43//51 44//51 45//51
f 26//52 105//52 110//52
f 26//52 110//52 42//52
f 42//53 110//53 115//53
f 42//53 115//53 46//53
f 47//54 46//54 49//54
f 47//54 49//54 50//54
f 45//55 44//55 47//55
f 45//55 47//55 48//55
f 113//56 45//56 48//56
f 113//56 48//56 118//56
f 50//57 49//57 124//57
f 46//58 115//58 120//58
f 46//58 120//58 49//58
f 48//59 47//59 50//59
f 48//59 50//59 51//59
f 118//60 48//60 51//60
f 118//60 51//60 123//60
f 49//61 120//61 124//61
f 51//62 50//62 124//62
f 123//63 51//63 124//63
f 53//64 66//64 63//64
f 53//64 63//64 56//64
f 60//65 77//65 78//65
f 60//65 78//65 55//65
f 55//66 78//66 96//66
f 55//66 96//66 58//66
f 57//67 94//67 77//67
f 57//67 77//67 60//67
f 62//68 90//68 94//68
f 62//68 94//68 57//68
f 58//69 96//69 76//69
f 58//69 76//69 54//69
f 52//70 65//70 66//70
f 52//70 66//70 53//70
f 56//71 63//71 64//71
f 56//71 64//71 61//71
f 59//72 73//72 65//72
f 59//72 65//72 52//72
f 54//73 76//73 73//73
f 54//73 73//73 59//73
f 93//74 69//74 99//74
f 93//74 99//74 75//74
f 86//75 79//75 78//75
f 67//76 68//76 72//76
f 67//76 72//76 71//76
f 71//77 76//77 79//77
f 71//77 79//77 67//77
f 67//78 79//78 86//78
f 67//78 86//78 87//78
f 85//79 98//79 97//79
f 85//79 97//79 91//79
f 78//80 77//80 95//80
f 86//81 78//81 95//81
f 80//82 85//82 91//82
f 80//82 91//82 83//82
f 86//83 82//83 83//83
f 86//83 83//83 87//83
f 68//84 67//84 87//84
f 86//85 95//85 88//85
f 86//85 88//85 82//85
f 99//86 92//86 102//86
f 99//86 102//86 100//86
f 74//87 72//87 69//87
f 74//87 69//87 93//87
f 91//88 68//88 87//88
f 91//88 87//88 83//88
f 92//89 68//89 97//89
f 82//90 81//90 80//90
f 82//90 80//90 83//90
f 94//91 90//91 89//91
f 94//91 89//91 88//91
f 66//92 74//92 93//92
f 66//92 93//92 63//92
f 63//93 93//93 75//93
f 63//93 75//93 64//93
f 65//94 73//94 74//94
f 65//94 74//94 66//94
f 72//95 68//95 99//95
f 72//95 99//95 69//95
f 77//96 94//96 88//96
f 77//96 88//96 95//96
f 88//97 89//97 81//97
f 88//97 81//97 82//97
f 96//98 78//98 79//98
f 96//98 79//98 76//98
f 74//99 73//99 71//99
f 74//99 71//99 72//99
f 76//100 71//100 73//100
f 99//101 70//101 75//101
f 102//102 106//102 84//102
f 102//102 84//102 100//102
f 68//103 92//103 99//103
f 68//104 91//104 97//104
f 106//105 111//105 107//105
f 106//105 107//105 84//105
f 98//106 104//106 103//106
f 98//106 103//106 97//106
f 97//107 103//107 102//107
f 97//107 102//107 92//107
f 99//108 100//108 101//108
f 99//108 101//108 70//108
f 111//109 116//109 114//109
f 111//109 114//109 107//109
f 104//110 109//110 108//110
f 104//110 108//110 103//110
f 103//111 108//111 106//111
f 103//111 106//111 102//111
f 100//112 84//112 105//112
f 100//112 105//112 101//112
f 109//113 113//113 112//113
f 109//113 112//113 108//113
f 108//114 112//114 111//114
f 108//114 111//114 106//114
f 84//115 107//115 110//115
f 84//115 110//115 105//115
f 107//116 114//116 115//116
f 107//116 115//116 110//116
f 116//117 121//117 119//117
f 116//117 119//117 114//117
f 112//118 117//118 116//118
f 112//118 116//118 111//118
f 113//119 118//119 117//119
f 113//119 117//119 112//119
f 121//120 124//120 119//120
f 114//121 119//121 120//121
f 114//121 120//121 115//121
f 117//122 122//122 121//122
f 117//122 121//122 116//122
f 118//123 123//123 122//123
f 118//123 122//123 117//123
f 119//124 124//124 120//124
f 122//125 124//125 121//125
f 123//126 124//126 122//126
f 125//127 128//127 129//127
f 129//128 128//128 127//128
f 129//128 127//128 126//128
f 130//129 134//129 133//129
f 134//130 131//130 132//130
f 134//130 132//130 133//130
f 129//131 134//131 130//131
f 129//131 130//131 125//131
f 127//132 132//132 131//132
f 127//132 131//132 126//132
f 125//133 130//133 133//133
f 125//133 133//133 128//133
f 126//134 131//134 134//134
f 126//134 134//134 129//134
f 128//135 133//135 132//135
f 128//135 132//135 127//135
f 135//136 139//136 138//136
f 139//137 136//137 137//137
f 139//137 137//137 138//137
f 140//138 143//138 144//138
f 144//139 143//139 142//139
f 144//139 142//139 141//139
f 139//140 135//140 140//140
f 139//140 140//140 144//140
f 137//141 136//141 141//141
f 137//141 141//141 142//141
f 135//142 138//142 143//142
f 135//142 143//142 140//142
f 136//143 139//143 144//143
f 136//143 144//143 141//143
f 138//144 137//144 142//144
f 138//144 142//144 143//144
