# Blender 4.5.3 LTS
# www.blender.org
mtllib robot-arm-b-angled.mtl
o robot_arm_b
v 0.500000 0.000000 0.000000
v 0.353553 -0.000000 -0.353553
v 0.353553 0.000000 0.353553
v 0.000000 0.000000 0.500000
v 0.000000 -0.000000 -0.500000
v -0.353553 0.000000 0.353553
v -0.353553 -0.000000 -0.353553
v -0.500000 0.000000 0.000000
v 0.400000 0.300000 -0.000000
v 0.282843 0.300000 0.282843
v 0.282843 0.300000 -0.282843
v 0.000000 0.300000 -0.400000
v 0.000000 0.300000 0.400000
v -0.282843 0.300000 -0.282843
v -0.282843 0.300000 0.282843
v -0.400000 0.300000 -0.000000
v 0.100000 1.860190 0.862621
v 0.100000 1.900663 1.010247
v -0.100000 1.860190 0.862621
v -0.100000 1.900663 1.010247
v -0.100000 1.824894 1.143253
v 0.100000 1.824894 1.143253
v -0.100000 1.666930 1.265921
v 0.100000 1.666930 1.265921
v 0.100000 1.727184 0.786852
v -0.100000 1.727184 0.786852
v 0.100000 1.579558 0.827325
v -0.100000 1.579558 0.827325
v 0.100000 1.421595 0.949993
v -0.100000 1.421595 0.949993
v -0.144338 1.465281 1.169291
v -0.072169 1.388613 1.070564
v -0.144338 1.228335 1.353293
v -0.072169 1.151667 1.254565
v 0.072169 1.305002 1.452020
v -0.072169 1.305002 1.452020
v 0.108253 1.343336 1.501384
v -0.108253 1.343336 1.501384
v 0.144338 1.618616 1.366746
v 0.072169 1.541948 1.268018
v -0.072169 1.541948 1.268018
v -0.144338 1.618616 1.366746
v 0.108253 1.113334 1.205202
v 0.072169 1.151667 1.254565
v 0.216506 1.228335 1.353293
v 0.144338 1.228335 1.353293
v 0.144338 1.311946 0.971836
v 0.072169 1.388613 1.070564
v 0.288675 1.465281 1.169291
v 0.144338 1.465281 1.169291
v -0.144338 1.311946 0.971836
v -0.108253 1.113334 1.205202
v -0.216506 1.228335 1.353293
v -0.288675 1.465281 1.169291
v -0.144338 1.390928 0.910502
v -0.288675 1.544263 1.107957
v 0.288675 1.544263 1.107957
v 0.144338 1.390928 0.910502
v 0.144338 1.697597 1.305412
v -0.144338 1.697598 1.305412
v -0.100000 1.542587 0.939629
v -0.200000 1.542587 0.939629
v -0.100000 1.641029 1.056849
v -0.200000 1.641029 1.056849
v -0.100000 1.793525 1.070127
v -0.200000 1.793525 1.070127
v -0.100000 1.910746 0.971685
v -0.200000 1.910746 0.971685
v -0.200000 1.924023 0.819188
v -0.100000 1.924023 0.819188
v 0.100000 1.924023 0.819188
v 0.200000 1.924023 0.819188
v 0.100000 1.910746 0.971685
v 0.200000 1.910746 0.971685
v 0.200000 1.793525 1.070127
v 0.100000 1.793525 1.070127
v 0.200000 1.641029 1.056849
v 0.100000 1.641029 1.056849
v 0.200000 1.542587 0.939629
v 0.100000 1.542587 0.939629
v 0.200000 1.530046 0.733855
v 0.200000 1.816123 0.643525
v -0.200000 1.530046 0.733855
v -0.200000 1.816123 0.643525
v -0.100000 1.893913 0.723829
v -0.200000 1.878858 0.676149
v 0.200000 1.878858 0.676149
v 0.100000 1.893913 0.723829
v 0.100000 1.512476 0.844270
v 0.200000 1.497421 0.796590
v -0.200000 1.497421 0.796590
v -0.100000 1.512476 0.844270
v 0.200000 1.786013 0.548165
v 0.200000 1.499936 0.638496
v 0.150000 1.833693 0.533110
v 0.150000 1.452256 0.653551
v -0.150000 1.833693 0.533110
v -0.150000 1.452256 0.653551
v -0.200000 1.786013 0.548165
v -0.200000 1.499936 0.638496
v 0.200000 1.409605 0.352418
v 0.200000 1.695683 0.262088
v 0.150000 1.361925 0.367474
v 0.150000 1.743362 0.247033
v 0.100000 1.361925 0.367474
v 0.100000 1.743362 0.247033
v -0.100000 1.361925 0.367474
v -0.100000 1.743362 0.247033
v -0.150000 1.361925 0.367474
v -0.150000 1.743362 0.247033
v -0.200000 1.409605 0.352418
v -0.200000 1.695683 0.262088
v 0.100000 1.683142 0.056314
v 0.100000 1.584700 -0.060906
v 0.100000 1.432203 -0.074184
v 0.100000 1.314983 0.024259
v 0.100000 1.301705 0.176755
v -0.100000 1.683142 0.056314
v -0.100000 1.584700 -0.060906
v -0.100000 1.432203 -0.074184
v -0.100000 1.314983 0.024259
v -0.100000 1.301705 0.176755
v 0.100000 1.314983 0.024259
v -0.100000 1.314983 0.024259
v 0.100000 1.301705 0.176755
v -0.100000 1.301705 0.176755
v 0.100000 1.432203 -0.074184
v 0.100000 1.584700 -0.060906
v -0.100000 1.432203 -0.074184
v -0.100000 1.584700 -0.060906
v 0.100000 1.361925 0.367474
v -0.100000 1.361925 0.367474
v -0.100000 1.683142 0.056314
v 0.100000 1.683142 0.056314
v -0.100000 1.743362 0.247033
v 0.100000 1.743362 0.247033
v 0.150000 1.673085 0.688690
v 0.150000 1.642974 0.593331
v 0.106066 1.571941 0.720627
v 0.106066 1.541831 0.625267
v 0.000000 1.499936 0.638496
v 0.000000 1.530046 0.733855
v -0.106066 1.541831 0.625267
v -0.106066 1.571941 0.720627
v -0.150000 1.642974 0.593331
v -0.150000 1.673085 0.688690
v -0.106066 1.744118 0.561394
v -0.106066 1.774228 0.656753
v 0.000000 1.786013 0.548165
v 0.000000 1.816123 0.643525
v 0.106066 1.744118 0.561394
v 0.106066 1.774228 0.656753
v -0.100000 1.367369 0.301903
v -0.200000 1.367369 0.301903
v -0.100000 1.515184 0.262129
v -0.200000 1.515184 0.262129
v -0.100000 1.591582 0.129483
v -0.200000 1.591582 0.129483
v -0.100000 1.551808 -0.018333
v -0.200000 1.551808 -0.018333
v -0.200000 1.419162 -0.094730
v -0.100000 1.419162 -0.094730
v 0.100000 1.419162 -0.094730
v 0.200000 1.419162 -0.094730
v 0.100000 1.551808 -0.018333
v 0.200000 1.551808 -0.018333
v 0.200000 1.591582 0.129483
v 0.100000 1.591582 0.129483
v 0.200000 1.515184 0.262129
v 0.100000 1.515184 0.262129
v 0.200000 1.367369 0.301903
v 0.100000 1.367369 0.301903
v 0.200000 1.175526 0.226427
v 0.200000 1.214371 -0.071047
v -0.200000 1.175526 0.226427
v -0.200000 1.214371 -0.071047
v -0.100000 1.320004 -0.107678
v -0.200000 1.270425 -0.114152
v 0.200000 1.270425 -0.114152
v 0.100000 1.320004 -0.107678
v 0.100000 1.268211 0.288954
v 0.200000 1.218631 0.282480
v -0.200000 1.218631 0.282480
v -0.100000 1.268211 0.288954
v 0.100000 0.824213 -0.172420
v 0.100000 0.625897 -0.198316
v 0.100000 0.772420 0.224213
v 0.100000 0.478081 -0.158543
v 0.100000 0.401684 -0.025897
v 0.100000 0.441458 0.121919
v 0.100000 0.574103 0.198316
v -0.100000 0.824213 -0.172420
v -0.100000 0.772420 0.224213
v -0.100000 0.625897 -0.198316
v -0.100000 0.478081 -0.158543
v -0.100000 0.401684 -0.025897
v -0.100000 0.441458 0.121919
v -0.100000 0.574103 0.198316
v -0.100000 0.478081 -0.158543
v 0.100000 0.478081 -0.158543
v -0.100000 0.625897 -0.198316
v 0.100000 0.625897 -0.198316
v 0.100000 0.401684 -0.025897
v -0.100000 0.401684 -0.025897
v 0.100000 0.441458 0.121919
v -0.100000 0.441458 0.121919
v -0.100000 0.824213 -0.172420
v 0.100000 0.824213 -0.172420
v 0.100000 0.574103 0.198316
v -0.100000 0.574103 0.198316
v 0.100000 0.772420 0.224213
v -0.100000 0.772420 0.224213
v -0.200000 1.115213 -0.083996
v -0.200000 1.076368 0.213479
v -0.200000 0.817739 -0.122841
v -0.200000 0.778894 0.174634
v -0.150000 1.121687 -0.133575
v -0.150000 0.824213 -0.172420
v 0.150000 0.772420 0.224213
v 0.150000 1.069894 0.263058
v -0.150000 0.772420 0.224213
v -0.150000 1.069894 0.263058
v 0.150000 0.824213 -0.172420
v 0.200000 0.817739 -0.122841
v 0.150000 1.121687 -0.133575
v 0.200000 1.115213 -0.083996
v 0.200000 0.778894 0.174634
v 0.200000 1.076368 0.213479
v 0.150000 1.194949 0.077690
v 0.150000 1.095791 0.064742
v 0.106066 1.181215 0.182863
v 0.106066 1.082057 0.169915
v 0.000000 1.076368 0.213479
v 0.000000 1.175526 0.226427
v -0.106066 1.082057 0.169915
v -0.106066 1.181215 0.182863
v -0.150000 1.095791 0.064742
v -0.150000 1.194949 0.077690
v -0.106066 1.109524 -0.040432
v -0.106066 1.208683 -0.027483
v 0.000000 1.115213 -0.083996
v 0.000000 1.214371 -0.071047
v 0.106066 1.109524 -0.040432
v 0.106066 1.208683 -0.027483
v -0.100000 0.500000 0.200000
v -0.200000 0.500000 0.200000
v -0.100000 0.641421 0.141421
v -0.200000 0.641421 0.141421
v -0.100000 0.700000 -0.000000
v -0.200000 0.700000 -0.000000
v -0.100000 0.641421 -0.141421
v -0.200000 0.641421 -0.141421
v -0.200000 0.500000 -0.200000
v -0.100000 0.500000 -0.200000
v 0.100000 0.500000 -0.200000
v 0.200000 0.500000 -0.200000
v 0.100000 0.641421 -0.141421
v 0.200000 0.641421 -0.141421
v 0.200000 0.700000 -0.000000
v 0.100000 0.700000 -0.000000
v 0.200000 0.641421 0.141421
v 0.100000 0.641421 0.141421
v 0.200000 0.500000 0.200000
v 0.100000 0.500000 0.200000
v 0.100000 0.400000 0.200000
v 0.200000 0.300000 0.200000
v -0.200000 0.300000 0.200000
v -0.100000 0.400000 0.200000
v 0.200000 0.300000 -0.200000
v -0.200000 0.300000 -0.200000
v -0.100000 0.400000 -0.200000
v 0.100000 0.400000 -0.200000
vn -0.0000 -1.0000 -0.0000
vn -0.0000 1.0000 -0.0000
vn -0.6708 0.3162 -0.6708
vn -0.0000 0.3162 -0.9487
vn 0.6708 0.3162 -0.6708
vn 0.9487 0.3162 -0.0000
vn 0.6708 0.3162 0.6708
vn -0.0000 0.3162 0.9487
vn -0.6708 0.3162 0.6708
vn -0.9487 0.3162 -0.0000
vn -0.0000 0.7898 -0.6133
vn -0.0000 0.9922 0.1248
vn -0.0000 0.7556 0.6550
vn -0.0000 0.6133 0.7898
vn -0.0000 0.1248 -0.9922
vn -0.0000 -0.4475 -0.8943
vn -0.0000 -0.6133 -0.7898
vn 1.0000 -0.0000 -0.0000
vn -1.0000 -0.0000 -0.0000
vn 0.5000 0.5312 0.6840
vn -0.0000 -0.7898 0.6133
vn 0.8660 -0.3067 -0.3949
vn 0.5000 -0.5312 -0.6840
vn -0.5000 -0.5312 -0.6840
vn -0.8660 -0.3067 -0.3949
vn -0.5000 0.5312 0.6840
vn -0.8478 -0.4613 -0.2615
vn 0.8478 -0.4613 -0.2615
vn -0.0000 0.4394 0.8983
vn -0.4065 -0.9132 -0.0278
vn -0.0000 -0.8765 0.4814
vn -0.0000 -0.4614 0.8872
vn -0.0000 -0.8765 0.4813
vn -0.0000 0.3011 0.9536
vn -0.0000 0.8872 0.4614
vn -0.0000 0.9940 -0.1093
vn -0.0000 -0.6431 -0.7658
vn -0.0000 0.0867 -0.9962
vn -0.0000 0.9536 -0.3011
vn -0.0000 0.7658 -0.6431
vn -0.0000 -0.9536 0.3011
vn -0.0000 -0.9962 -0.0867
vn -0.0000 -0.9962 -0.0868
vn -0.0000 -0.3011 -0.9536
vn -0.0000 -0.8872 -0.4614
vn -0.0000 -0.9940 0.1093
vn -0.0000 0.4614 -0.8872
vn -0.0000 0.8765 -0.4814
vn -0.0000 0.8765 -0.4813
vn -0.7071 0.6743 -0.2129
vn -0.9239 0.3649 -0.1152
vn -0.9239 -0.3649 0.1152
vn -0.7071 -0.6743 0.2129
vn 0.9239 0.3649 -0.1152
vn 0.9239 -0.3649 0.1152
vn 0.7071 0.6743 -0.2129
vn 0.7071 -0.6743 0.2129
vn -0.0000 0.0665 0.9978
vn -0.0000 0.6096 0.7927
vn -0.0000 0.0664 0.9978
vn -0.0000 0.9916 0.1295
vn -0.0000 0.7927 -0.6096
vn -0.0000 0.3204 -0.9473
vn -0.0000 -0.9657 0.2598
vn -0.0000 -0.8666 -0.4991
vn -0.0000 0.1295 -0.9916
vn -0.0000 -0.2598 -0.9657
vn -0.0000 -0.2598 -0.9656
vn -0.0000 -0.1295 0.9916
vn -0.0000 -0.4991 0.8665
vn -0.0000 -0.6096 -0.7927
vn -0.0000 -0.0665 -0.9978
vn -0.0000 -0.0664 -0.9978
vn -0.0000 -0.9916 -0.1295
vn -0.0000 -0.7927 0.6096
vn -0.0000 -0.3204 0.9473
vn -0.9239 0.0496 -0.3795
vn -0.9239 0.0495 -0.3795
vn -0.9239 -0.0495 0.3795
vn -0.9239 -0.0496 0.3795
vn -0.7071 0.0916 -0.7012
vn -0.7071 -0.0916 0.7012
vn 0.7071 0.0916 -0.7012
vn 0.9239 0.0495 -0.3794
vn 0.9239 0.0496 -0.3795
vn 0.9239 -0.0496 0.3795
vn 0.9239 -0.0495 0.3794
vn 0.7071 -0.0916 0.7012
vn -0.0000 0.1951 0.9808
vn -0.0000 0.7071 0.7071
vn -0.0000 0.7071 -0.7071
vn -0.0000 0.1951 -0.9808
vn -0.0000 -0.0000 1.0000
vn -0.0000 -0.0000 -1.0000
vt 0.343750 0.025000
vt 0.343750 0.225000
vt 0.343750 0.054289
vt 0.343750 0.125000
vt 0.343750 0.075000
vt 0.218750 0.025000
vt 0.218750 0.075000
vt 0.343750 0.195711
vt 0.343750 0.050000
vt 0.218750 0.125000
vt 0.218750 0.195711
vt 0.218750 0.225000
vt 0.218750 0.105000
vt 0.343750 0.105000
vt 0.218750 0.475000
vt 0.218750 0.355000
vt 0.093750 0.225000
vt 0.093750 0.025000
s 1
usemtl colormap.001
f 1/1/1 3/1/1 2/1/1
f 4/1/1 2/1/1 3/1/1
f 5/1/1 2/1/1 4/1/1
f 6/1/1 5/1/1 4/1/1
f 7/1/1 5/1/1 6/1/1
f 8/1/1 7/1/1 6/1/1
f 9/2/2 11/2/2 10/2/2
f 12/2/2 10/2/2 11/2/2
f 13/2/2 10/2/2 12/2/2
f 14/2/2 13/2/2 12/2/2
f 15/2/2 13/2/2 14/2/2
f 16/2/2 15/2/2 14/2/2
f 7/1/3 14/2/3 5/1/4
f 12/2/4 5/1/4 14/2/3
f 5/1/4 12/2/4 2/1/5
f 11/2/5 2/1/5 12/2/4
f 2/1/5 11/2/5 1/1/6
f 9/2/6 1/1/6 11/2/5
f 3/1/7 10/2/7 4/1/8
f 13/2/8 4/1/8 10/2/7
f 4/1/8 13/2/8 6/1/9
f 15/2/9 6/1/9 13/2/8
f 8/1/10 6/1/9 16/2/10
f 15/2/9 16/2/10 6/1/9
f 7/1/3 8/1/10 14/2/3
f 16/2/10 14/2/3 8/1/10
f 9/2/6 10/2/7 1/1/6
f 3/1/7 1/1/6 10/2/7
f 17/1/11 19/1/11 18/3/12
f 20/3/12 18/3/12 19/1/11
f 21/4/13 23/2/14 22/4/13
f 24/2/14 22/4/13 23/2/14
f 25/3/15 26/3/15 17/1/11
f 19/1/11 17/1/11 26/3/15
f 25/3/15 27/4/16 26/3/15
f 28/4/16 26/3/15 27/4/16
f 27/4/16 29/2/17 28/4/16
f 30/2/17 28/4/16 29/2/17
f 20/3/12 21/4/13 18/3/12
f 22/4/13 18/3/12 21/4/13
f 24/2/18 29/2/18 22/4/18
f 18/3/18 22/4/18 29/2/18
f 17/1/18 18/3/18 29/2/18
f 25/3/18 17/1/18 29/2/18
f 27/4/18 25/3/18 29/2/18
f 23/2/19 21/4/19 30/2/19
f 20/3/19 30/2/19 21/4/19
f 19/1/19 30/2/19 20/3/19
f 26/3/19 30/2/19 19/1/19
f 28/4/19 30/2/19 26/3/19
f 31/5/20 33/2/20 32/5/18
f 34/2/18 32/5/18 33/2/20
f 35/2/21 37/2/21 36/2/21
f 38/2/21 36/2/21 37/2/21
f 39/5/22 37/2/22 40/5/23
f 35/2/23 40/5/23 37/2/22
f 41/5/24 36/2/24 42/5/25
f 38/2/25 42/5/25 36/2/24
f 35/2/23 36/2/24 40/5/23
f 41/5/24 40/5/23 36/2/24
f 43/2/21 45/2/21 44/2/21
f 46/2/21 44/2/21 45/2/21
f 47/5/25 43/2/25 48/5/19
f 44/2/19 48/5/19 43/2/25
f 49/5/14 50/5/26 45/2/14
f 46/2/26 45/2/14 50/5/26
f 48/5/19 44/2/19 50/5/26
f 46/2/26 50/5/26 44/2/19
f 32/5/18 34/2/18 51/5/22
f 52/2/22 51/5/22 34/2/18
f 52/2/21 34/2/21 53/2/21
f 33/2/21 53/2/21 34/2/21
f 31/5/20 54/5/14 33/2/20
f 53/2/14 33/2/20 54/5/14
f 51/5/27 52/2/27 54/5/27
f 53/2/27 54/5/27 52/2/27
f 49/5/28 45/2/28 47/5/28
f 43/2/28 47/5/28 45/2/28
f 39/5/29 42/5/29 37/2/29
f 38/2/29 37/2/29 42/5/29
f 55/6/24 51/7/24 56/6/19
f 54/7/19 56/6/19 51/7/24
f 57/6/18 49/7/18 58/6/23
f 47/7/23 58/6/23 49/7/18
f 59/6/20 60/6/26 39/7/20
f 42/7/26 39/7/20 60/6/26
f 59/6/20 39/7/20 57/6/18
f 49/7/18 57/6/18 39/7/20
f 56/6/19 54/7/19 60/6/26
f 42/7/26 60/6/26 54/7/19
f 47/7/23 51/7/24 58/6/23
f 55/6/24 58/6/23 51/7/24
f 55/6/11 56/6/11 58/6/11
f 57/6/11 58/6/11 56/6/11
f 60/6/11 57/6/11 56/6/11
f 59/6/11 57/6/11 60/6/11
f 49/7/21 39/7/21 50/7/21
f 40/7/21 50/7/21 39/7/21
f 40/7/21 41/7/21 50/7/21
f 41/7/21 54/7/21 50/7/21
f 42/7/21 54/7/21 41/7/21
f 54/7/21 31/7/30 50/7/21
f 50/7/21 31/7/30 48/7/21
f 31/7/30 32/7/21 48/7/21
f 48/7/21 32/7/21 47/7/21
f 51/7/21 47/7/21 32/7/21
f 61/4/31 63/8/32 62/4/33
f 64/8/32 62/4/33 63/8/32
f 65/2/34 66/2/34 63/8/32
f 64/8/32 63/8/32 66/2/34
f 67/8/35 68/8/35 65/2/34
f 66/2/34 65/2/34 68/8/35
f 69/4/36 68/8/35 70/4/36
f 67/8/35 70/4/36 68/8/35
f 71/4/36 73/8/35 72/4/36
f 74/8/35 72/4/36 73/8/35
f 74/8/35 73/8/35 75/2/34
f 76/2/34 75/2/34 73/8/35
f 75/2/34 76/2/34 77/8/32
f 78/8/32 77/8/32 76/2/34
f 79/4/33 77/8/32 80/4/31
f 78/8/32 80/4/31 77/8/32
f 81/1/37 83/1/37 82/1/38
f 84/1/38 82/1/38 83/1/37
f 70/4/36 85/5/39 69/4/36
f 69/4/36 85/5/39 86/9/40
f 87/9/40 86/9/40 85/5/39
f 85/5/39 88/5/39 87/9/40
f 72/4/36 87/9/40 88/5/39
f 71/4/36 72/4/36 88/5/39
f 84/1/38 86/9/40 82/1/38
f 87/9/40 82/1/38 86/9/40
f 80/4/31 89/5/41 79/4/33
f 79/4/33 89/5/41 90/9/42
f 91/9/43 90/9/42 89/5/41
f 89/5/41 92/5/41 91/9/43
f 62/4/33 91/9/43 92/5/41
f 61/4/31 62/4/33 92/5/41
f 81/1/37 90/9/42 83/1/37
f 91/9/43 83/1/37 90/9/42
f 86/9/19 84/1/19 69/4/19
f 68/8/19 69/4/19 84/1/19
f 83/1/19 68/8/19 84/1/19
f 66/2/19 68/8/19 83/1/19
f 64/8/19 66/2/19 83/1/19
f 62/4/19 64/8/19 83/1/19
f 91/9/19 62/4/19 83/1/19
f 72/4/18 74/8/18 87/9/18
f 82/1/18 87/9/18 74/8/18
f 81/1/18 82/1/18 74/8/18
f 75/2/18 81/1/18 74/8/18
f 77/8/18 81/1/18 75/2/18
f 79/4/18 81/1/18 77/8/18
f 90/9/18 81/1/18 79/4/18
f 70/10/18 67/11/18 85/7/18
f 92/7/18 85/7/18 67/11/18
f 65/12/18 92/7/18 67/11/18
f 63/11/18 92/7/18 65/12/18
f 61/10/18 92/7/18 63/11/18
f 88/7/19 89/7/19 71/10/19
f 73/11/19 71/10/19 89/7/19
f 76/12/19 73/11/19 89/7/19
f 78/11/19 76/12/19 89/7/19
f 80/10/19 78/11/19 89/7/19
f 88/7/34 85/7/34 89/7/34
f 92/7/34 89/7/34 85/7/34
f 93/12/34 95/12/34 94/12/34
f 96/12/34 94/12/34 95/12/34
f 97/12/34 96/12/34 95/12/34
f 98/12/34 96/12/34 97/12/34
f 99/12/34 98/12/34 97/12/34
f 100/12/34 98/12/34 99/12/34
f 101/13/44 103/13/44 102/13/44
f 104/13/44 102/13/44 103/13/44
f 105/13/44 104/13/44 103/13/44
f 106/13/44 104/13/44 105/13/44
f 107/13/44 109/13/44 108/13/44
f 110/13/44 108/13/44 109/13/44
f 111/13/44 110/13/44 109/13/44
f 112/13/44 110/13/44 111/13/44
f 106/14/18 105/14/18 113/1/18
f 114/1/18 113/1/18 105/14/18
f 115/1/18 114/1/18 105/14/18
f 116/1/18 115/1/18 105/14/18
f 117/1/18 116/1/18 105/14/18
f 108/14/19 118/1/19 107/14/19
f 119/1/19 107/14/19 118/1/19
f 120/1/19 107/14/19 119/1/19
f 121/1/19 107/14/19 120/1/19
f 122/1/19 107/14/19 121/1/19
f 123/3/45 125/4/46 124/3/45
f 126/4/46 124/3/45 125/4/46
f 127/1/44 129/1/44 128/3/47
f 130/3/47 128/3/47 129/1/44
f 125/4/46 131/2/41 126/4/46
f 132/2/41 126/4/46 131/2/41
f 123/3/45 124/3/45 127/1/44
f 129/1/44 127/1/44 124/3/45
f 130/3/47 133/4/48 128/3/47
f 134/4/49 128/3/47 133/4/48
f 133/4/48 135/2/39 134/4/49
f 136/2/39 134/4/49 135/2/39
f 97/15/50 110/16/50 99/15/51
f 112/16/51 99/15/51 110/16/50
f 111/16/52 109/16/53 100/15/52
f 98/15/53 100/15/52 109/16/53
f 103/16/41 96/15/41 105/16/41
f 107/16/41 105/16/41 96/15/41
f 109/16/41 107/16/41 96/15/41
f 98/15/41 109/16/41 96/15/41
f 93/15/54 94/15/55 102/16/54
f 101/16/55 102/16/54 94/15/55
f 104/16/56 95/15/56 102/16/54
f 93/15/54 102/16/54 95/15/56
f 99/15/51 112/16/51 100/15/52
f 111/16/52 100/15/52 112/16/51
f 101/16/55 94/15/55 103/16/57
f 96/15/57 103/16/57 94/15/55
f 110/16/39 97/15/39 108/16/39
f 106/16/39 108/16/39 97/15/39
f 104/16/39 106/16/39 97/15/39
f 95/15/39 104/16/39 97/15/39
f 137/17/18 139/17/57 138/18/18
f 140/18/57 138/18/18 139/17/57
f 140/18/57 139/17/57 141/18/41
f 142/17/41 141/18/41 139/17/57
f 141/18/41 142/17/41 143/18/53
f 144/17/53 143/18/53 142/17/41
f 145/18/19 143/18/53 146/17/19
f 144/17/53 146/17/19 143/18/53
f 147/18/50 145/18/19 148/17/50
f 146/17/19 148/17/50 145/18/19
f 147/18/50 148/17/50 149/18/39
f 150/17/39 149/18/39 148/17/50
f 149/18/39 150/17/39 151/18/56
f 152/17/56 151/18/56 150/17/39
f 152/17/56 137/17/18 151/18/56
f 138/18/18 151/18/56 137/17/18
f 153/4/58 155/8/59 154/4/60
f 156/8/59 154/4/60 155/8/59
f 157/2/61 158/2/61 155/8/59
f 156/8/59 155/8/59 158/2/61
f 159/8/62 160/8/62 157/2/61
f 158/2/61 157/2/61 160/8/62
f 161/4/63 160/8/62 162/4/63
f 159/8/62 162/4/63 160/8/62
f 163/4/63 165/8/62 164/4/63
f 166/8/62 164/4/63 165/8/62
f 166/8/62 165/8/62 167/2/61
f 168/2/61 167/2/61 165/8/62
f 167/2/61 168/2/61 169/8/59
f 170/8/59 169/8/59 168/2/61
f 171/4/60 169/8/59 172/4/58
f 170/8/59 172/4/58 169/8/59
f 173/1/64 175/1/64 174/1/65
f 176/1/65 174/1/65 175/1/64
f 162/4/63 177/5/66 161/4/63
f 161/4/63 177/5/66 178/9/67
f 179/9/68 178/9/67 177/5/66
f 177/5/66 180/5/66 179/9/68
f 164/4/63 179/9/68 180/5/66
f 163/4/63 164/4/63 180/5/66
f 174/1/65 176/1/65 179/9/68
f 178/9/67 179/9/68 176/1/65
f 172/4/58 181/5/69 171/4/60
f 171/4/60 181/5/69 182/9/70
f 183/9/70 182/9/70 181/5/69
f 181/5/69 184/5/69 183/9/70
f 154/4/60 183/9/70 184/5/69
f 153/4/58 154/4/60 184/5/69
f 182/9/70 183/9/70 173/1/64
f 175/1/64 173/1/64 183/9/70
f 164/4/18 166/8/18 179/9/18
f 174/1/18 179/9/18 166/8/18
f 173/1/18 174/1/18 166/8/18
f 167/2/18 173/1/18 166/8/18
f 169/8/18 173/1/18 167/2/18
f 171/4/18 173/1/18 169/8/18
f 182/9/18 173/1/18 171/4/18
f 178/9/19 176/1/19 161/4/19
f 160/8/19 161/4/19 176/1/19
f 175/1/19 160/8/19 176/1/19
f 158/2/19 160/8/19 175/1/19
f 156/8/19 158/2/19 175/1/19
f 154/4/19 156/8/19 175/1/19
f 183/9/19 154/4/19 175/1/19
f 162/10/18 159/11/18 177/7/18
f 184/7/18 177/7/18 159/11/18
f 157/12/18 184/7/18 159/11/18
f 155/11/18 184/7/18 157/12/18
f 153/10/18 184/7/18 155/11/18
f 180/7/19 181/7/19 163/10/19
f 165/11/19 163/10/19 181/7/19
f 168/12/19 165/11/19 181/7/19
f 170/11/19 168/12/19 181/7/19
f 172/10/19 170/11/19 181/7/19
f 180/7/61 177/7/61 181/7/61
f 184/7/61 181/7/61 177/7/61
f 185/14/18 187/14/18 186/1/18
f 188/1/18 186/1/18 187/14/18
f 189/1/18 188/1/18 187/14/18
f 190/1/18 189/1/18 187/14/18
f 191/1/18 190/1/18 187/14/18
f 192/14/19 194/1/19 193/14/19
f 195/1/19 193/14/19 194/1/19
f 196/1/19 193/14/19 195/1/19
f 197/1/19 193/14/19 196/1/19
f 198/1/19 193/14/19 197/1/19
f 199/3/71 201/4/72 200/3/71
f 202/4/73 200/3/71 201/4/72
f 203/1/74 204/1/74 200/3/71
f 199/3/71 200/3/71 204/1/74
f 205/3/75 206/3/75 203/1/74
f 204/1/74 203/1/74 206/3/75
f 201/4/72 207/2/66 202/4/73
f 208/2/66 202/4/73 207/2/66
f 205/3/75 209/4/76 206/3/75
f 210/4/76 206/3/75 209/4/76
f 209/4/76 211/2/69 210/4/76
f 212/2/69 210/4/76 211/2/69
f 213/15/77 215/16/78 214/15/79
f 216/16/80 214/15/79 215/16/78
f 217/15/81 218/16/81 213/15/77
f 215/16/78 213/15/77 218/16/81
f 219/16/69 220/15/69 187/16/69
f 193/16/69 187/16/69 220/15/69
f 221/16/69 193/16/69 220/15/69
f 222/15/69 221/16/69 220/15/69
f 214/15/79 216/16/80 222/15/82
f 221/16/82 222/15/82 216/16/80
f 223/16/83 225/15/83 224/16/84
f 226/15/85 224/16/84 225/15/83
f 227/16/86 228/15/87 219/16/88
f 220/15/88 219/16/88 228/15/87
f 226/15/85 228/15/87 224/16/84
f 227/16/86 224/16/84 228/15/87
f 218/16/66 217/15/66 192/16/66
f 185/16/66 192/16/66 217/15/66
f 223/16/66 185/16/66 217/15/66
f 225/15/66 223/16/66 217/15/66
f 226/12/61 225/12/61 228/12/61
f 220/12/61 228/12/61 225/12/61
f 217/12/61 220/12/61 225/12/61
f 222/12/61 220/12/61 217/12/61
f 213/12/61 222/12/61 217/12/61
f 214/12/61 222/12/61 213/12/61
f 193/13/74 221/13/74 192/13/74
f 218/13/74 192/13/74 221/13/74
f 216/13/74 218/13/74 221/13/74
f 215/13/74 218/13/74 216/13/74
f 227/13/74 219/13/74 224/13/74
f 223/13/74 224/13/74 219/13/74
f 187/13/74 223/13/74 219/13/74
f 185/13/74 223/13/74 187/13/74
f 229/17/18 231/17/88 230/18/18
f 232/18/88 230/18/18 231/17/88
f 232/18/88 231/17/88 233/18/69
f 234/17/69 233/18/69 231/17/88
f 233/18/69 234/17/69 235/18/82
f 236/17/82 235/18/82 234/17/69
f 237/18/19 235/18/82 238/17/19
f 236/17/82 238/17/19 235/18/82
f 239/18/81 237/18/19 240/17/81
f 238/17/19 240/17/81 237/18/19
f 239/18/81 240/17/81 241/18/66
f 242/17/66 241/18/66 240/17/81
f 241/18/66 242/17/66 243/18/83
f 244/17/83 243/18/83 242/17/66
f 244/17/83 229/17/18 243/18/83
f 230/18/18 243/18/83 229/17/18
f 245/4/89 247/8/90 246/4/89
f 248/8/90 246/4/89 247/8/90
f 249/2/2 250/2/2 247/8/90
f 248/8/90 247/8/90 250/2/2
f 251/8/91 252/8/91 249/2/2
f 250/2/2 249/2/2 252/8/91
f 253/4/92 252/8/91 254/4/92
f 251/8/91 254/4/92 252/8/91
f 255/4/92 257/8/91 256/4/92
f 258/8/91 256/4/92 257/8/91
f 258/8/91 257/8/91 259/2/2
f 260/2/2 259/2/2 257/8/91
f 259/2/2 260/2/2 261/8/90
f 262/8/90 261/8/90 260/2/2
f 263/4/89 261/8/90 264/4/89
f 262/8/90 264/4/89 261/8/90
f 264/4/89 265/5/93 263/4/89
f 263/4/89 265/5/93 266/1/93
f 267/1/93 266/1/93 265/5/93
f 265/5/93 268/5/93 267/1/93
f 246/4/89 267/1/93 268/5/93
f 245/4/89 246/4/89 268/5/93
f 256/4/18 258/8/18 269/1/18
f 266/1/18 269/1/18 258/8/18
f 259/2/18 266/1/18 258/8/18
f 261/8/18 266/1/18 259/2/18
f 263/4/18 266/1/18 261/8/18
f 270/1/19 267/1/19 253/4/19
f 252/8/19 253/4/19 267/1/19
f 250/2/19 252/8/19 267/1/19
f 248/8/19 250/2/19 267/1/19
f 246/4/19 248/8/19 267/1/19
f 254/4/92 271/5/94 253/4/92
f 253/4/92 271/5/94 270/1/94
f 269/1/94 270/1/94 271/5/94
f 271/5/94 272/5/94 269/1/94
f 256/4/92 269/1/94 272/5/94
f 255/4/92 256/4/92 272/5/94
f 254/10/18 251/11/18 271/7/18
f 268/7/18 271/7/18 251/11/18
f 249/12/18 268/7/18 251/11/18
f 247/11/18 268/7/18 249/12/18
f 245/10/18 268/7/18 247/11/18
f 272/7/19 265/7/19 255/10/19
f 257/11/19 255/10/19 265/7/19
f 260/12/19 257/11/19 265/7/19
f 262/11/19 260/12/19 265/7/19
f 264/10/19 262/11/19 265/7/19
f 272/7/2 271/7/2 265/7/2
f 268/7/2 265/7/2 271/7/2
