# material split: Material.002
v -0.422409 3.424792 0.000000
v -0.761306 3.173867 0.000000
v 0.870211 2.032732 0.000001
v 0.986935 2.361062 0.000000
v -0.435802 1.897667 0.000001
v -0.107675 1.763486 0.000001
v -0.066293 3.517874 0.000000
v -0.963019 2.788588 0.000000
v -0.995077 2.479265 0.000000
v -0.937991 2.174248 0.000001
v -0.704438 1.805549 0.000001
v -0.204699 1.531285 0.000001
v 0.617552 1.729218 0.000001
v 0.964170 2.801826 0.000000
v 0.733999 3.199111 0.000000
v 0.372980 3.451826 0.000000
v -0.554256 3.040616 0.000000
v -0.718175 2.770736 0.000000
v -0.758126 2.483771 0.000000
v -0.675750 2.163566 0.000001
v 0.378810 1.847063 0.000001
v 0.697367 2.208070 0.000001
v 0.759148 2.538358 0.000000
v 0.699210 2.817564 0.000000
v 0.527841 3.067395 0.000000
v 0.166513 3.272159 0.000000
v -0.277400 3.230093 0.000000
v 0.699548 1.805805 0.160001
v 1.003432 2.575060 0.160000
v -0.392912 3.175744 0.160000
v 0.398780 1.867512 0.160001
v 0.758126 2.556598 0.160000
v -0.983165 2.352364 0.160000
v -0.872959 2.033838 0.160001
v -0.654317 1.767327 0.160001
v -0.218731 1.532786 0.160001
v 0.869765 3.013258 0.160000
v 0.618892 3.304835 0.160000
v 0.175655 3.513647 0.160000
v -0.050382 3.278429 0.160000
v -0.653377 2.910592 0.160000
v -0.753603 2.616645 0.160000
v -0.728007 2.293732 0.160000
v 0.698670 2.203969 0.160000
v 0.664598 2.903113 0.160000
v -0.790663 3.147721 0.160000
v -0.302348 1.818225 0.160001
v 0.321305 3.215635 0.160000
v -0.348235 3.459301 0.160000
v -0.984360 2.694558 0.160000
v -0.568781 2.018008 0.160001
v 0.050382 1.761940 0.160001
v 0.248558 1.542728 0.160001
v 0.920013 2.128896 0.160001
v 0.163971 1.530339 0.000001
vt 0.000000 0.000000
vn -0.000000 -0.000000 -1.000000
vn -0.461700 0.393200 -0.795100
vn -0.254000 0.467200 -0.846800
vn 0.155900 -0.422300 -0.893000
vn -0.703300 0.205200 -0.680700
vn -0.665600 -0.240600 -0.706400
vn -0.417400 -0.422200 -0.804700
vn -0.122000 -0.491700 -0.862200
vn 0.075600 -0.484800 -0.871400
vn 0.343100 -0.454600 -0.822000
vn 0.750600 -0.112300 -0.651100
vn 0.719700 0.199000 -0.665200
vn 0.453600 0.399500 -0.796600
vn 0.213400 0.485900 -0.847500
vn -0.089000 -0.418500 -0.903900
vn -0.041300 0.504000 -0.862700
vn -0.186300 0.480000 0.857300
vn -0.000000 -0.000000 1.000000
vn 0.034800 -0.430100 0.902100
vn -0.519900 0.382100 0.764000
vn -0.734900 0.131300 0.665300
vn -0.732600 -0.116200 0.670700
vn -0.585700 -0.322000 0.743900
vn 0.396500 0.342500 0.851800
vn -0.346000 -0.439500 0.828900
vn 0.151900 -0.497400 0.854100
vn -0.279100 0.387500 0.878600
vn -0.045400 0.426400 0.903400
vn 0.421300 -0.411700 0.808100
vn 0.652700 -0.257400 0.712600
vn -0.373400 0.200200 0.905800
vn 0.778100 0.036000 0.627100
vn -0.477800 -0.248600 0.842500
vn 0.594900 0.320800 0.737000
vn 0.346100 0.443800 0.826600
vn -0.210800 -0.400400 0.891800
vn 0.086300 0.506400 0.858000
vn -0.750200 -0.027900 -0.660600
vn -0.136200 -0.490400 0.860800
vn 0.574200 -0.321200 -0.753100
vn 0.738600 -0.674200 0.004300
vn 0.866000 -0.499100 -0.030300
vn 0.949300 -0.312800 0.030000
vn 0.998000 0.050200 0.037700
vn 0.962700 0.268800 -0.031200
vn 0.893300 0.448500 0.028200
vn 0.594700 0.803700 0.021000
vn 0.182700 0.413300 0.892100
vn 0.127900 0.991800 0.000300
vn -0.532900 0.846200 -0.002300
vn -0.918100 0.395900 0.017600
vn -0.982900 0.183800 0.012700
vn -0.691400 -0.721600 -0.034100
vn -0.998800 -0.040500 -0.028700
vn -0.934700 -0.354700 0.022100
vn -0.996000 -0.083900 -0.029300
vn 0.537700 -0.843100 -0.005500
vn 0.992500 -0.114300 -0.043500
vn -0.985800 0.166200 -0.025200
f 17/1/1 2/1/2 1/1/3
f 17/1/1 1/1/3 27/1/4
f 18/1/1 2/1/2 17/1/1
f 19/1/1 8/1/5 18/1/1
f 19/1/1 10/1/6 8/1/5
f 20/1/1 11/1/7 10/1/6
f 5/1/1 12/1/8 11/1/7
f 6/1/1 55/1/9 12/1/8
f 21/1/1 55/1/9 6/1/1
f 13/1/10 55/1/9 21/1/1
f 22/1/1 13/1/10 21/1/1
f 23/1/1 4/1/11 22/1/1
f 23/1/1 14/1/12 4/1/11
f 24/1/1 15/1/13 14/1/12
f 25/1/1 16/1/14 15/1/13
f 26/1/15 7/1/16 16/1/14
f 49/1/17 30/1/18 40/1/19
f 46/1/20 30/1/18 49/1/17
f 46/1/20 41/1/18 30/1/18
f 50/1/21 33/1/22 34/1/23
f 43/1/18 34/1/23 51/1/24
f 34/1/23 35/1/25 51/1/24
f 53/1/26 31/1/27 52/1/28
f 28/1/29 54/1/30 44/1/31
f 32/1/18 29/1/32 45/1/33
f 37/1/34 38/1/35 45/1/33
f 48/1/36 38/1/35 39/1/37
f 39/1/37 49/1/17 40/1/19
f 1/1/3 49/1/17 7/1/16
f 2/1/2 46/1/20 1/1/3
f 8/1/5 46/1/20 2/1/2
f 8/1/5 50/1/21 46/1/20
f 9/1/38 50/1/21 8/1/5
f 10/1/6 33/1/22 9/1/38
f 9/1/38 33/1/22 50/1/21
f 11/1/7 34/1/23 10/1/6
f 11/1/7 35/1/25 34/1/23
f 12/1/8 36/1/39 11/1/7
f 13/1/10 53/1/26 55/1/9
f 3/1/40 28/1/29 13/1/10
f 15/1/13 37/1/34 14/1/12
f 16/1/14 38/1/35 15/1/13
f 16/1/14 39/1/37 38/1/35
f 7/1/16 39/1/37 16/1/14
f 26/1/15 40/1/19 27/1/4
f 17/1/41 41/1/42 18/1/43
f 19/1/44 43/1/45 20/1/46
f 20/1/46 51/1/24 5/1/47
f 5/1/47 47/1/48 6/1/49
f 6/1/49 52/1/28 21/1/50
f 21/1/50 44/1/31 22/1/51
f 21/1/50 31/1/27 44/1/31
f 22/1/51 44/1/31 23/1/52
f 25/1/53 48/1/36 26/1/15
f 42/1/18 41/1/18 46/1/20
f 42/1/18 46/1/20 50/1/21
f 27/1/4 1/1/3 7/1/16
f 18/1/1 8/1/5 2/1/2
f 8/1/5 10/1/6 9/1/38
f 19/1/1 20/1/1 10/1/6
f 20/1/1 5/1/1 11/1/7
f 5/1/1 6/1/1 12/1/8
f 22/1/1 3/1/40 13/1/10
f 22/1/1 4/1/11 3/1/40
f 23/1/1 24/1/1 14/1/12
f 24/1/1 25/1/1 15/1/13
f 25/1/1 26/1/15 16/1/14
f 27/1/4 7/1/16 26/1/15
f 34/1/23 43/1/18 42/1/18
f 34/1/23 42/1/18 50/1/21
f 53/1/26 52/1/28 47/1/48
f 53/1/26 47/1/48 36/1/39
f 47/1/48 51/1/24 36/1/39
f 51/1/24 35/1/25 36/1/39
f 32/1/18 44/1/31 54/1/30
f 32/1/18 54/1/30 29/1/32
f 53/1/26 28/1/29 31/1/27
f 28/1/29 44/1/31 31/1/27
f 32/1/54 45/1/33 24/1/55
f 32/1/54 24/1/55 23/1/56
f 45/1/33 29/1/32 37/1/34
f 45/1/33 38/1/35 48/1/36
f 40/1/19 48/1/36 39/1/37
f 7/1/16 49/1/17 39/1/37
f 1/1/3 46/1/20 49/1/17
f 10/1/6 34/1/23 33/1/22
f 11/1/7 36/1/39 35/1/25
f 13/1/10 28/1/29 53/1/26
f 3/1/40 54/1/30 28/1/29
f 4/1/11 29/1/32 54/1/30
f 3/1/40 4/1/11 54/1/30
f 4/1/11 14/1/12 29/1/32
f 14/1/12 37/1/34 29/1/32
f 15/1/13 38/1/35 37/1/34
f 27/1/4 40/1/19 30/1/57
f 17/1/41 27/1/4 30/1/57
f 17/1/41 30/1/57 41/1/42
f 18/1/43 41/1/42 42/1/58
f 19/1/44 18/1/43 42/1/58
f 19/1/44 42/1/58 43/1/45
f 20/1/46 43/1/45 51/1/24
f 5/1/47 51/1/24 47/1/48
f 6/1/49 47/1/48 52/1/28
f 21/1/50 52/1/28 31/1/27
f 23/1/56 44/1/59 32/1/54
f 55/1/9 53/1/26 36/1/39
f 55/1/9 36/1/39 12/1/8
f 25/1/53 24/1/55 45/1/33
f 25/1/53 45/1/33 48/1/36
f 26/1/15 48/1/36 40/1/19
