# prebaked split of model.obj material Brown.001
mtllib Brown_001.mtl
usemtl Brown.001
v 0.026409 1.621066 0.220286
v 0.025166 1.639751 0.226977
v 0.020310 1.627113 0.202309
v 0.019068 1.645800 0.209001
v 0.045713 1.624176 0.215042
v 0.044471 1.642863 0.221733
v 0.039616 1.630225 0.197065
v 0.038374 1.648911 0.203757
v -0.054247 1.621183 0.219912
v -0.053013 1.639866 0.226615
v -0.047965 1.627213 0.201993
v -0.046730 1.645895 0.208696
v -0.073493 1.624351 0.214489
v -0.072259 1.643033 0.221192
v -0.067211 1.630381 0.196570
v -0.065976 1.649063 0.203273
vt 0.000000 0.000000
vn -0.950000 -0.159300 0.268600
vn -0.295100 0.304700 -0.905600
vn 0.950000 0.159300 -0.268600
vn 0.295100 -0.304700 0.905600
vn 0.060100 -0.939800 -0.336500
vn -0.060100 0.939800 0.336500
vn 0.947000 -0.162100 0.277400
vn 0.304400 0.303800 -0.902800
vn -0.947000 0.162100 -0.277400
vn -0.304400 -0.303800 0.902800
vn -0.059700 -0.939600 -0.337100
vn 0.059700 0.939600 0.337100
f 1/1/1 2/1/1 4/1/1
f 1/1/1 4/1/1 3/1/1
f 3/1/2 4/1/2 8/1/2
f 3/1/2 8/1/2 7/1/2
f 7/1/3 8/1/3 6/1/3
f 7/1/3 6/1/3 5/1/3
f 5/1/4 6/1/4 2/1/4
f 5/1/4 2/1/4 1/1/4
f 3/1/5 7/1/5 5/1/5
f 3/1/5 5/1/5 1/1/5
f 8/1/6 4/1/6 2/1/6
f 8/1/6 2/1/6 6/1/6
f 9/1/7 11/1/7 12/1/7
f 9/1/7 12/1/7 10/1/7
f 11/1/8 15/1/8 16/1/8
f 11/1/8 16/1/8 12/1/8
f 15/1/9 13/1/9 14/1/9
f 15/1/9 14/1/9 16/1/9
f 13/1/10 9/1/10 10/1/10
f 13/1/10 10/1/10 14/1/10
f 11/1/11 9/1/11 13/1/11
f 11/1/11 13/1/11 15/1/11
f 16/1/12 14/1/12 10/1/12
f 16/1/12 10/1/12 12/1/12
