# prebaked split of model.obj material Gold.001
mtllib Gold_001.mtl
usemtl Gold.001
v 0.073035 1.117303 0.139038
v 0.079048 1.090757 0.139334
v -0.001938 1.088612 -0.004226
v 0.077293 1.114517 0.144812
v 0.081138 1.094749 0.145217
v 0.041785 1.118977 0.159138
v 0.006827 1.119578 0.167512
v 0.047387 1.092102 0.161758
v -0.032810 1.096788 0.004518
v 0.009689 1.094337 0.170612
v -0.062122 1.087929 0.020542
v 0.010258 1.117091 0.174014
v 0.046080 1.116307 0.165853
v 0.012179 1.098116 0.176214
v 0.049680 1.096203 0.167774
v 0.001347 1.236077 -0.183326
v -0.026079 1.234789 -0.182799
v -0.000779 1.239633 -0.182755
v -0.023866 1.238778 -0.182284
v -0.013750 1.262404 -0.183051
v -0.012752 1.251704 -0.176327
v -0.009847 1.262578 -0.182944
v -0.008710 1.251885 -0.176214
v -0.013027 1.266765 -0.184074
v -0.010744 1.266867 -0.184011
v 0.001728 1.258349 -0.181781
v -0.004514 1.269378 -0.180360
v -0.019064 1.268718 -0.179902
v -0.025681 1.256962 -0.181299
v -0.006870 1.266953 -0.180554
v -0.000423 1.256797 -0.181457
v -0.023485 1.256105 -0.181027
v -0.017248 1.266215 -0.180385
v -0.014916 1.308478 -0.171459
v -0.014577 1.305012 -0.170519
v -0.010052 1.308519 -0.171190
v -0.011024 1.305041 -0.170322
v -0.014039 1.312788 -0.167903
v -0.011194 1.312811 -0.167746
v 0.001655 1.235601 -0.179398
v -0.026177 1.234317 -0.178860
v -0.000337 1.239217 -0.178833
v -0.024119 1.238380 -0.178343
v -0.013927 1.263965 -0.179406
v -0.012946 1.253800 -0.172963
v -0.010024 1.264154 -0.179306
v -0.008903 1.253982 -0.172851
v -0.013179 1.267694 -0.180219
v -0.010897 1.267796 -0.180156
v 0.002198 1.258091 -0.177848
v -0.004252 1.269020 -0.176417
v -0.019036 1.268281 -0.175957
v -0.025964 1.256663 -0.177351
v -0.006647 1.266535 -0.176614
v 0.000134 1.256526 -0.177537
v -0.023798 1.255810 -0.177081
v -0.017210 1.265769 -0.176442
v -0.015134 1.307710 -0.167572
v -0.014806 1.306029 -0.166691
v -0.010265 1.307614 -0.167331
v -0.011253 1.306059 -0.166493
v -0.014194 1.310283 -0.164830
v -0.011348 1.310306 -0.164672
v -0.063034 1.359580 -0.137874
v -0.089386 1.357171 -0.130632
v -0.065054 1.363072 -0.136782
v -0.087238 1.361227 -0.130663
v -0.078386 1.385442 -0.133768
v -0.075360 1.374800 -0.127553
v -0.074589 1.385734 -0.134628
v -0.071427 1.375103 -0.128441
v -0.078085 1.389819 -0.134919
v -0.075864 1.389990 -0.135422
v -0.062963 1.381859 -0.136380
v -0.068979 1.392700 -0.133417
v -0.082914 1.391305 -0.129418
v -0.089306 1.379352 -0.129186
v -0.071232 1.390204 -0.133033
v -0.064912 1.380244 -0.135542
v -0.087086 1.378563 -0.129468
v -0.081203 1.388856 -0.130345
v 0.037638 1.359407 -0.137412
v 0.063913 1.356909 -0.129928
v 0.039660 1.362893 -0.136301
v 0.061780 1.360972 -0.129979
v 0.053040 1.385218 -0.133165
v 0.049920 1.374587 -0.126976
v 0.049251 1.385522 -0.134059
v 0.045996 1.374903 -0.127902
v 0.052763 1.389596 -0.134318
v 0.050548 1.389774 -0.134840
v 0.037629 1.381686 -0.135917
v 0.043654 1.392507 -0.132899
v 0.057547 1.391065 -0.128773
v 0.063896 1.379090 -0.128482
v 0.045895 1.390004 -0.132494
v 0.039565 1.380065 -0.135061
v 0.061675 1.378308 -0.128785
v 0.055836 1.388622 -0.129716
v -0.061713 1.359126 -0.134151
v -0.088455 1.356712 -0.126798
v -0.063606 1.362684 -0.133097
v -0.086456 1.360835 -0.126790
v -0.077670 1.387010 -0.130192
v -0.074748 1.376903 -0.124241
v -0.073874 1.387316 -0.131057
v -0.070816 1.377205 -0.125130
v -0.077271 1.390757 -0.131147
v -0.075050 1.390928 -0.131649
v -0.061489 1.381628 -0.132690
v -0.067699 1.392366 -0.129667
v -0.081858 1.390884 -0.125611
v -0.088558 1.379058 -0.125297
v -0.069990 1.389807 -0.129276
v -0.063357 1.380003 -0.131886
v -0.086366 1.378272 -0.125574
v -0.080140 1.388427 -0.126541
v 0.036281 1.358959 -0.133699
v 0.062945 1.356454 -0.126102
v 0.038175 1.362510 -0.132628
v 0.060961 1.360582 -0.126112
v 0.052295 1.386788 -0.129595
v 0.049284 1.376691 -0.123670
v 0.048510 1.387107 -0.130494
v 0.045362 1.377007 -0.124596
v 0.051919 1.390535 -0.130552
v 0.049703 1.390714 -0.131076
v 0.036120 1.381461 -0.132242
v 0.042339 1.392178 -0.129161
v 0.056454 1.390647 -0.124975
v 0.063110 1.378799 -0.124600
v 0.044617 1.389611 -0.128750
v 0.037975 1.379830 -0.131419
v 0.060919 1.378020 -0.124897
v 0.054737 1.388196 -0.125920
v 0.159568 1.067541 0.019353
v 0.160383 1.066114 0.044059
v 0.159418 1.070808 0.021323
v 0.160095 1.069818 0.042124
v 0.162080 1.091445 0.033097
v 0.154989 1.082181 0.032592
v 0.161794 1.091654 0.029593
v 0.154693 1.082398 0.028964
v 0.163321 1.095360 0.032400
v 0.163154 1.095482 0.030351
v 0.159806 1.088000 0.019233
v 0.159645 1.098111 0.025003
v 0.159912 1.097389 0.038122
v 0.160653 1.086480 0.043920
v 0.159760 1.095857 0.027098
v 0.159498 1.086584 0.021182
v 0.160224 1.085740 0.041958
v 0.160078 1.095086 0.036442
v 0.155878 1.067400 0.019337
v 0.156704 1.065974 0.044408
v 0.155730 1.070724 0.021187
v 0.156428 1.069743 0.042613
v 0.158831 1.093139 0.033508
v 0.152042 1.084344 0.033004
v 0.158553 1.093360 0.030004
v 0.151745 1.084560 0.029375
v 0.159828 1.096492 0.032800
v 0.159661 1.096614 0.030752
v 0.156119 1.088060 0.019073
v 0.155950 1.098079 0.025031
v 0.156224 1.097284 0.038359
v 0.156989 1.086496 0.044438
v 0.156067 1.095770 0.027158
v 0.155817 1.086632 0.020943
v 0.156563 1.085759 0.042502
v 0.156390 1.094972 0.036672
v -0.132660 1.067541 0.169833
v -0.113022 1.066114 0.184846
v -0.130969 1.070808 0.170856
v -0.114430 1.069818 0.183488
v -0.122931 1.091445 0.179860
v -0.119223 1.082181 0.173795
v -0.125618 1.091654 0.177593
v -0.122005 1.082398 0.171446
v -0.124219 1.095360 0.180465
v -0.125790 1.095482 0.179140
v -0.132895 1.088000 0.169957
v -0.128104 1.098111 0.173177
v -0.117581 1.097389 0.181015
v -0.113292 1.086480 0.184985
v -0.126467 1.095857 0.174488
v -0.131130 1.086584 0.170839
v -0.114640 1.085740 0.183496
v -0.119045 1.095086 0.180173
v -0.130529 1.067400 0.166820
v -0.110600 1.065974 0.182054
v -0.128938 1.070724 0.167775
v -0.111902 1.069743 0.180787
v -0.120710 1.093139 0.177455
v -0.117176 1.084344 0.171635
v -0.123400 1.093360 0.175193
v -0.119958 1.084560 0.169286
v -0.121864 1.096492 0.177855
v -0.123435 1.096614 0.176529
v -0.130885 1.088060 0.166863
v -0.125937 1.098079 0.170186
v -0.115246 1.097284 0.178150
v -0.110742 1.086496 0.182303
v -0.124273 1.095770 0.171517
v -0.129187 1.086632 0.167703
v -0.112070 1.085759 0.180833
v -0.116716 1.094972 0.177304
vt 0.000000 0.000000
vn 0.569700 0.153500 0.807400
vn 0.222300 0.940100 0.258400
vn 0.292100 -0.837400 0.462000
vn 0.223500 0.133400 0.965500
vn 0.092000 0.944700 0.314800
vn 0.077300 -0.839600 0.537700
vn -0.170700 0.074000 -0.982500
vn 0.129400 0.066500 -0.989400
vn -0.025600 0.142700 -0.989400
vn 0.047000 -0.528400 -0.847700
vn 0.037100 -0.234000 -0.971500
vn -0.081800 0.060200 -0.994800
vn 0.017000 0.082900 -0.996400
vn -0.032800 0.139500 -0.989700
vn 0.055600 -0.256300 -0.965000
vn 0.037700 0.631300 -0.774600
vn 0.174500 -0.074700 0.981800
vn -0.133200 -0.067100 0.988800
vn 0.025400 -0.139600 0.989900
vn -0.047400 0.531500 0.845700
vn -0.036100 0.219200 0.975000
vn 0.080800 -0.060800 0.994900
vn -0.016800 -0.083300 0.996400
vn 0.032900 -0.138800 0.989800
vn -0.041900 0.475700 0.878600
vn -0.042700 -0.716000 0.696800
vn 0.043800 -0.991700 -0.120700
vn -0.033800 0.994000 0.103700
vn -0.995400 -0.096000 -0.002400
vn 0.994400 0.105800 -0.002900
vn 0.023400 -0.847800 0.529800
vn -0.037000 0.971200 -0.235400
vn 0.977000 0.211300 -0.027700
vn -0.983000 0.157200 -0.095300
vn 0.862700 0.504000 -0.040700
vn -0.834200 -0.550400 0.034600
vn 0.843100 -0.537400 -0.020900
vn -0.866000 0.499700 0.018500
vn -0.044200 0.993800 0.101700
vn 0.069400 -0.991400 -0.110900
vn 0.994900 -0.013600 -0.099700
vn -0.991700 0.014200 0.127500
vn -0.998800 0.016800 -0.046500
vn 0.997300 -0.025200 0.069300
vn -0.987800 -0.146400 -0.052400
vn 0.936800 -0.344900 0.059000
vn -0.006400 -0.966600 0.256400
vn -0.041300 0.775500 0.630000
vn 0.972300 0.185000 0.142700
vn -0.975700 0.213500 0.048300
vn -0.411200 0.065300 -0.909200
vn -0.121200 0.066900 -0.990400
vn -0.274100 0.138400 -0.951700
vn -0.148100 -0.530000 -0.835000
vn -0.197200 -0.236500 -0.951400
vn -0.327300 0.054100 -0.943400
vn -0.232400 0.079900 -0.969300
vn -0.281200 0.135100 -0.950100
vn 0.419700 0.063800 -0.905400
vn 0.130500 0.066500 -0.989200
vn 0.283300 0.137400 -0.949100
vn 0.154000 -0.530500 -0.833600
vn 0.205100 -0.237100 -0.949600
vn 0.336100 0.052900 -0.940300
vn 0.241600 0.079100 -0.967200
vn 0.290400 0.134100 -0.947500
vn 0.414700 -0.065800 0.907600
vn 0.117400 -0.067600 0.990800
vn 0.273900 -0.135400 0.952200
vn 0.147200 0.533100 0.833200
vn 0.199500 0.221700 0.954500
vn 0.326300 -0.054800 0.943700
vn 0.232600 -0.080300 0.969300
vn 0.281300 -0.134300 0.950200
vn -0.423300 -0.064400 0.903700
vn -0.126800 -0.067200 0.989700
vn -0.283100 -0.134400 0.949600
vn -0.153000 0.533600 0.831800
vn -0.207500 0.222400 0.952600
vn -0.335200 -0.053600 0.940600
vn -0.241700 -0.079500 0.967100
vn -0.290400 -0.133300 0.947600
vn 0.052700 -0.989400 -0.135200
vn -0.049100 0.991900 0.116900
vn -0.959200 -0.126800 0.252600
vn 0.956600 0.136600 -0.257400
vn 0.179000 -0.845300 0.503400
vn -0.123000 0.969000 -0.214300
vn 0.930300 0.241200 -0.276400
vn -0.978900 0.126000 0.160900
vn 0.807900 0.529500 -0.258800
vn -0.780600 -0.575000 0.245000
vn 0.825900 -0.510600 -0.238900
vn -0.847400 0.472200 0.242700
vn -0.067100 0.990500 0.119700
vn 0.096600 -0.985800 -0.137200
vn 0.936100 0.017000 -0.351300
vn -0.925900 -0.016300 0.377400
vn -0.977300 -0.014500 0.211400
vn 0.981900 0.006300 -0.189400
vn -0.054800 -0.989200 -0.135700
vn 0.051400 0.991800 0.117300
vn 0.956400 -0.130100 0.261400
vn -0.953700 0.139800 -0.266200
vn -0.186500 -0.844700 0.501700
vn 0.128300 0.968600 -0.213100
vn -0.926900 0.244400 -0.285000
vn 0.977800 0.122700 0.169900
vn -0.803600 0.532300 -0.266200
vn 0.776300 -0.577700 0.252200
vn -0.825400 -0.507800 -0.246500
vn 0.846800 0.469300 0.250500
vn 0.069400 0.990300 0.120400
vn -0.098800 -0.985500 -0.138100
vn -0.932800 0.020200 -0.359900
vn 0.922300 -0.019500 0.385900
vn 0.975300 -0.017800 0.220400
vn -0.980100 0.009600 -0.198400
vn -0.122400 -0.990800 0.057200
vn 0.084900 -0.995700 -0.036400
vn 0.992800 -0.007800 0.119700
vn 0.981700 -0.012400 -0.190000
vn 0.997600 0.062800 -0.029400
vn 0.792700 -0.601300 -0.100500
vn 0.943900 -0.316200 -0.095700
vn 0.999400 -0.021800 0.027600
vn 0.997200 0.002300 -0.074100
vn 0.998000 0.059600 -0.022000
vn -0.992300 0.007200 -0.123600
vn -0.981000 0.011700 0.193900
vn -0.997800 -0.059800 0.029600
vn -0.790400 0.604300 0.100700
vn -0.948700 0.301600 0.094700
vn -0.999400 0.021100 -0.026600
vn -0.997300 -0.002700 0.073900
vn -0.998000 -0.058800 0.021900
vn 0.035300 -0.997700 -0.058400
vn -0.019300 0.998700 0.047200
vn 0.065800 -0.106000 0.992200
vn -0.059800 0.115200 -0.991500
vn -0.591500 -0.806300 0.000100
vn 0.311400 0.949800 0.031200
vn -0.026400 0.216700 -0.975900
vn 0.174100 0.134800 0.975500
vn 0.017500 0.503600 -0.863800
vn -0.017300 -0.549800 0.835100
vn -0.082800 -0.520900 -0.849600
vn 0.083700 0.482900 0.871700
vn -0.016600 0.998200 0.057700
vn 0.023900 -0.996200 -0.083700
vn 0.024000 -0.009600 -0.999700
vn -0.050900 0.012400 0.998600
vn 0.117300 0.001100 0.993100
vn -0.139700 -0.007400 -0.990200
vn -0.479200 -0.007800 0.877700
vn -0.724900 -0.012400 0.688800
vn -0.603300 0.062800 0.795000
vn -0.542200 -0.601300 0.586900
vn -0.626100 -0.316200 0.712800
vn -0.558000 -0.021800 0.829600
vn -0.639600 0.002300 0.768700
vn -0.597600 0.059600 0.799600
vn 0.475700 0.007200 -0.879600
vn 0.727600 0.011700 -0.685900
vn 0.603600 -0.059800 -0.795000
vn 0.541100 0.604300 -0.584900
vn 0.628100 0.301600 -0.717300
vn 0.558900 0.021200 -0.829000
vn 0.639400 -0.002700 -0.768800
vn 0.597500 -0.058800 -0.799700
vn -0.068000 -0.997700 -0.005200
vn 0.049600 0.998700 0.011700
vn 0.769500 -0.106000 0.629800
vn -0.772400 0.115200 -0.624600
vn 0.343700 -0.806300 -0.481500
vn -0.155500 0.949700 0.271700
vn -0.779100 0.216700 -0.588300
vn 0.692900 0.134800 0.708300
vn -0.713300 0.503600 -0.487500
vn 0.689900 -0.549800 0.471000
vn -0.643500 -0.520900 -0.560900
vn 0.661000 0.482900 0.574400
vn 0.056600 0.998200 0.020000
vn -0.082000 -0.996200 -0.029200
vn -0.827700 -0.009600 -0.561100
vn 0.842500 0.012400 0.538600
vn 0.740300 0.001100 0.672300
vn -0.724900 -0.007400 -0.688800
f 13/1/1 15/1/1 5/1/1
f 13/1/1 5/1/1 4/1/1
f 1/1/2 6/1/2 13/1/2
f 1/1/2 13/1/2 4/1/2
f 8/1/3 2/1/3 5/1/3
f 8/1/3 5/1/3 15/1/3
f 13/1/4 12/1/4 14/1/4
f 13/1/4 14/1/4 15/1/4
f 7/1/5 12/1/5 13/1/5
f 7/1/5 13/1/5 6/1/5
f 8/1/6 15/1/6 14/1/6
f 8/1/6 14/1/6 10/1/6
f 26/1/7 16/1/7 18/1/7
f 26/1/7 18/1/7 31/1/7
f 17/1/8 29/1/8 32/1/8
f 17/1/8 32/1/8 19/1/8
f 16/1/9 17/1/9 19/1/9
f 16/1/9 19/1/9 18/1/9
f 21/1/10 20/1/10 22/1/10
f 21/1/10 22/1/10 23/1/10
f 22/1/11 20/1/11 24/1/11
f 22/1/11 24/1/11 25/1/11
f 26/1/12 31/1/12 30/1/12
f 26/1/12 30/1/12 27/1/12
f 32/1/13 29/1/13 28/1/13
f 32/1/13 28/1/13 33/1/13
f 28/1/14 27/1/14 30/1/14
f 28/1/14 30/1/14 33/1/14
f 35/1/15 34/1/15 36/1/15
f 35/1/15 36/1/15 37/1/15
f 36/1/16 34/1/16 38/1/16
f 36/1/16 38/1/16 39/1/16
f 50/1/17 55/1/17 42/1/17
f 50/1/17 42/1/17 40/1/17
f 41/1/18 43/1/18 56/1/18
f 41/1/18 56/1/18 53/1/18
f 40/1/19 42/1/19 43/1/19
f 40/1/19 43/1/19 41/1/19
f 45/1/20 47/1/20 46/1/20
f 45/1/20 46/1/20 44/1/20
f 46/1/21 49/1/21 48/1/21
f 46/1/21 48/1/21 44/1/21
f 50/1/22 51/1/22 54/1/22
f 50/1/22 54/1/22 55/1/22
f 56/1/23 57/1/23 52/1/23
f 56/1/23 52/1/23 53/1/23
f 52/1/24 57/1/24 54/1/24
f 52/1/24 54/1/24 51/1/24
f 59/1/25 61/1/25 60/1/25
f 59/1/25 60/1/25 58/1/25
f 60/1/26 63/1/26 62/1/26
f 60/1/26 62/1/26 58/1/26
f 17/1/27 16/1/27 40/1/27
f 17/1/27 40/1/27 41/1/27
f 18/1/28 19/1/28 43/1/28
f 18/1/28 43/1/28 42/1/28
f 20/1/29 21/1/29 45/1/29
f 20/1/29 45/1/29 44/1/29
f 23/1/30 22/1/30 46/1/30
f 23/1/30 46/1/30 47/1/30
f 21/1/31 23/1/31 47/1/31
f 21/1/31 47/1/31 45/1/31
f 25/1/32 24/1/32 48/1/32
f 25/1/32 48/1/32 49/1/32
f 22/1/33 25/1/33 49/1/33
f 22/1/33 49/1/33 46/1/33
f 24/1/34 20/1/34 44/1/34
f 24/1/34 44/1/34 48/1/34
f 26/1/35 27/1/35 51/1/35
f 26/1/35 51/1/35 50/1/35
f 30/1/36 31/1/36 55/1/36
f 30/1/36 55/1/36 54/1/36
f 32/1/37 33/1/37 57/1/37
f 32/1/37 57/1/37 56/1/37
f 28/1/38 29/1/38 53/1/38
f 28/1/38 53/1/38 52/1/38
f 27/1/39 28/1/39 52/1/39
f 27/1/39 52/1/39 51/1/39
f 33/1/40 30/1/40 54/1/40
f 33/1/40 54/1/40 57/1/40
f 16/1/41 26/1/41 50/1/41
f 16/1/41 50/1/41 40/1/41
f 31/1/42 18/1/42 42/1/42
f 31/1/42 42/1/42 55/1/42
f 29/1/43 17/1/43 41/1/43
f 29/1/43 41/1/43 53/1/43
f 19/1/44 32/1/44 56/1/44
f 19/1/44 56/1/44 43/1/44
f 34/1/45 35/1/45 59/1/45
f 34/1/45 59/1/45 58/1/45
f 37/1/46 36/1/46 60/1/46
f 37/1/46 60/1/46 61/1/46
f 35/1/47 37/1/47 61/1/47
f 35/1/47 61/1/47 59/1/47
f 39/1/48 38/1/48 62/1/48
f 39/1/48 62/1/48 63/1/48
f 36/1/49 39/1/49 63/1/49
f 36/1/49 63/1/49 60/1/49
f 38/1/50 34/1/50 58/1/50
f 38/1/50 58/1/50 62/1/50
f 74/1/51 64/1/51 66/1/51
f 74/1/51 66/1/51 79/1/51
f 65/1/52 77/1/52 80/1/52
f 65/1/52 80/1/52 67/1/52
f 64/1/53 65/1/53 67/1/53
f 64/1/53 67/1/53 66/1/53
f 69/1/54 68/1/54 70/1/54
f 69/1/54 70/1/54 71/1/54
f 70/1/55 68/1/55 72/1/55
f 70/1/55 72/1/55 73/1/55
f 74/1/56 79/1/56 78/1/56
f 74/1/56 78/1/56 75/1/56
f 80/1/57 77/1/57 76/1/57
f 80/1/57 76/1/57 81/1/57
f 76/1/58 75/1/58 78/1/58
f 76/1/58 78/1/58 81/1/58
f 92/1/59 97/1/59 84/1/59
f 92/1/59 84/1/59 82/1/59
f 83/1/60 85/1/60 98/1/60
f 83/1/60 98/1/60 95/1/60
f 82/1/61 84/1/61 85/1/61
f 82/1/61 85/1/61 83/1/61
f 87/1/62 89/1/62 88/1/62
f 87/1/62 88/1/62 86/1/62
f 88/1/63 91/1/63 90/1/63
f 88/1/63 90/1/63 86/1/63
f 92/1/64 93/1/64 96/1/64
f 92/1/64 96/1/64 97/1/64
f 98/1/65 99/1/65 94/1/65
f 98/1/65 94/1/65 95/1/65
f 94/1/66 99/1/66 96/1/66
f 94/1/66 96/1/66 93/1/66
f 110/1/67 115/1/67 102/1/67
f 110/1/67 102/1/67 100/1/67
f 101/1/68 103/1/68 116/1/68
f 101/1/68 116/1/68 113/1/68
f 100/1/69 102/1/69 103/1/69
f 100/1/69 103/1/69 101/1/69
f 105/1/70 107/1/70 106/1/70
f 105/1/70 106/1/70 104/1/70
f 106/1/71 109/1/71 108/1/71
f 106/1/71 108/1/71 104/1/71
f 110/1/72 111/1/72 114/1/72
f 110/1/72 114/1/72 115/1/72
f 116/1/73 117/1/73 112/1/73
f 116/1/73 112/1/73 113/1/73
f 112/1/74 117/1/74 114/1/74
f 112/1/74 114/1/74 111/1/74
f 128/1/75 118/1/75 120/1/75
f 128/1/75 120/1/75 133/1/75
f 119/1/76 131/1/76 134/1/76
f 119/1/76 134/1/76 121/1/76
f 118/1/77 119/1/77 121/1/77
f 118/1/77 121/1/77 120/1/77
f 123/1/78 122/1/78 124/1/78
f 123/1/78 124/1/78 125/1/78
f 124/1/79 122/1/79 126/1/79
f 124/1/79 126/1/79 127/1/79
f 128/1/80 133/1/80 132/1/80
f 128/1/80 132/1/80 129/1/80
f 134/1/81 131/1/81 130/1/81
f 134/1/81 130/1/81 135/1/81
f 130/1/82 129/1/82 132/1/82
f 130/1/82 132/1/82 135/1/82
f 65/1/83 64/1/83 100/1/83
f 65/1/83 100/1/83 101/1/83
f 66/1/84 67/1/84 103/1/84
f 66/1/84 103/1/84 102/1/84
f 68/1/85 69/1/85 105/1/85
f 68/1/85 105/1/85 104/1/85
f 71/1/86 70/1/86 106/1/86
f 71/1/86 106/1/86 107/1/86
f 69/1/87 71/1/87 107/1/87
f 69/1/87 107/1/87 105/1/87
f 73/1/88 72/1/88 108/1/88
f 73/1/88 108/1/88 109/1/88
f 70/1/89 73/1/89 109/1/89
f 70/1/89 109/1/89 106/1/89
f 72/1/90 68/1/90 104/1/90
f 72/1/90 104/1/90 108/1/90
f 74/1/91 75/1/91 111/1/91
f 74/1/91 111/1/91 110/1/91
f 78/1/92 79/1/92 115/1/92
f 78/1/92 115/1/92 114/1/92
f 80/1/93 81/1/93 117/1/93
f 80/1/93 117/1/93 116/1/93
f 76/1/94 77/1/94 113/1/94
f 76/1/94 113/1/94 112/1/94
f 75/1/95 76/1/95 112/1/95
f 75/1/95 112/1/95 111/1/95
f 81/1/96 78/1/96 114/1/96
f 81/1/96 114/1/96 117/1/96
f 64/1/97 74/1/97 110/1/97
f 64/1/97 110/1/97 100/1/97
f 79/1/98 66/1/98 102/1/98
f 79/1/98 102/1/98 115/1/98
f 77/1/99 65/1/99 101/1/99
f 77/1/99 101/1/99 113/1/99
f 67/1/100 80/1/100 116/1/100
f 67/1/100 116/1/100 103/1/100
f 82/1/101 83/1/101 119/1/101
f 82/1/101 119/1/101 118/1/101
f 85/1/102 84/1/102 120/1/102
f 85/1/102 120/1/102 121/1/102
f 87/1/103 86/1/103 122/1/103
f 87/1/103 122/1/103 123/1/103
f 88/1/104 89/1/104 125/1/104
f 88/1/104 125/1/104 124/1/104
f 89/1/105 87/1/105 123/1/105
f 89/1/105 123/1/105 125/1/105
f 90/1/106 91/1/106 127/1/106
f 90/1/106 127/1/106 126/1/106
f 91/1/107 88/1/107 124/1/107
f 91/1/107 124/1/107 127/1/107
f 86/1/108 90/1/108 126/1/108
f 86/1/108 126/1/108 122/1/108
f 93/1/109 92/1/109 128/1/109
f 93/1/109 128/1/109 129/1/109
f 97/1/110 96/1/110 132/1/110
f 97/1/110 132/1/110 133/1/110
f 99/1/111 98/1/111 134/1/111
f 99/1/111 134/1/111 135/1/111
f 95/1/112 94/1/112 130/1/112
f 95/1/112 130/1/112 131/1/112
f 94/1/113 93/1/113 129/1/113
f 94/1/113 129/1/113 130/1/113
f 96/1/114 99/1/114 135/1/114
f 96/1/114 135/1/114 132/1/114
f 92/1/115 82/1/115 118/1/115
f 92/1/115 118/1/115 128/1/115
f 84/1/116 97/1/116 133/1/116
f 84/1/116 133/1/116 120/1/116
f 83/1/117 95/1/117 131/1/117
f 83/1/117 131/1/117 119/1/117
f 98/1/118 85/1/118 121/1/118
f 98/1/118 121/1/118 134/1/118
f 2/1/119 8/1/119 9/1/119
f 2/1/119 9/1/119 3/1/119
f 10/1/120 11/1/120 9/1/120
f 10/1/120 9/1/120 8/1/120
f 146/1/121 151/1/121 138/1/121
f 146/1/121 138/1/121 136/1/121
f 137/1/122 139/1/122 152/1/122
f 137/1/122 152/1/122 149/1/122
f 136/1/123 138/1/123 139/1/123
f 136/1/123 139/1/123 137/1/123
f 141/1/124 143/1/124 142/1/124
f 141/1/124 142/1/124 140/1/124
f 142/1/125 145/1/125 144/1/125
f 142/1/125 144/1/125 140/1/125
f 146/1/126 147/1/126 150/1/126
f 146/1/126 150/1/126 151/1/126
f 152/1/127 153/1/127 148/1/127
f 152/1/127 148/1/127 149/1/127
f 148/1/128 153/1/128 150/1/128
f 148/1/128 150/1/128 147/1/128
f 164/1/129 154/1/129 156/1/129
f 164/1/129 156/1/129 169/1/129
f 155/1/130 167/1/130 170/1/130
f 155/1/130 170/1/130 157/1/130
f 154/1/131 155/1/131 157/1/131
f 154/1/131 157/1/131 156/1/131
f 159/1/132 158/1/132 160/1/132
f 159/1/132 160/1/132 161/1/132
f 160/1/133 158/1/133 162/1/133
f 160/1/133 162/1/133 163/1/133
f 164/1/134 169/1/134 168/1/134
f 164/1/134 168/1/134 165/1/134
f 170/1/135 167/1/135 166/1/135
f 170/1/135 166/1/135 171/1/135
f 166/1/136 165/1/136 168/1/136
f 166/1/136 168/1/136 171/1/136
f 137/1/137 155/1/137 154/1/137
f 137/1/137 154/1/137 136/1/137
f 138/1/138 156/1/138 157/1/138
f 138/1/138 157/1/138 139/1/138
f 140/1/139 158/1/139 159/1/139
f 140/1/139 159/1/139 141/1/139
f 143/1/140 161/1/140 160/1/140
f 143/1/140 160/1/140 142/1/140
f 141/1/141 159/1/141 161/1/141
f 141/1/141 161/1/141 143/1/141
f 145/1/142 163/1/142 162/1/142
f 145/1/142 162/1/142 144/1/142
f 142/1/143 160/1/143 163/1/143
f 142/1/143 163/1/143 145/1/143
f 144/1/144 162/1/144 158/1/144
f 144/1/144 158/1/144 140/1/144
f 146/1/145 164/1/145 165/1/145
f 146/1/145 165/1/145 147/1/145
f 150/1/146 168/1/146 169/1/146
f 150/1/146 169/1/146 151/1/146
f 152/1/147 170/1/147 171/1/147
f 152/1/147 171/1/147 153/1/147
f 148/1/148 166/1/148 167/1/148
f 148/1/148 167/1/148 149/1/148
f 147/1/149 165/1/149 166/1/149
f 147/1/149 166/1/149 148/1/149
f 153/1/150 171/1/150 168/1/150
f 153/1/150 168/1/150 150/1/150
f 136/1/151 154/1/151 164/1/151
f 136/1/151 164/1/151 146/1/151
f 151/1/152 169/1/152 156/1/152
f 151/1/152 156/1/152 138/1/152
f 149/1/153 167/1/153 155/1/153
f 149/1/153 155/1/153 137/1/153
f 139/1/154 157/1/154 170/1/154
f 139/1/154 170/1/154 152/1/154
f 182/1/155 172/1/155 174/1/155
f 182/1/155 174/1/155 187/1/155
f 173/1/156 185/1/156 188/1/156
f 173/1/156 188/1/156 175/1/156
f 172/1/157 173/1/157 175/1/157
f 172/1/157 175/1/157 174/1/157
f 177/1/158 176/1/158 178/1/158
f 177/1/158 178/1/158 179/1/158
f 178/1/159 176/1/159 180/1/159
f 178/1/159 180/1/159 181/1/159
f 182/1/160 187/1/160 186/1/160
f 182/1/160 186/1/160 183/1/160
f 188/1/161 185/1/161 184/1/161
f 188/1/161 184/1/161 189/1/161
f 184/1/162 183/1/162 186/1/162
f 184/1/162 186/1/162 189/1/162
f 200/1/163 205/1/163 192/1/163
f 200/1/163 192/1/163 190/1/163
f 191/1/164 193/1/164 206/1/164
f 191/1/164 206/1/164 203/1/164
f 190/1/165 192/1/165 193/1/165
f 190/1/165 193/1/165 191/1/165
f 195/1/166 197/1/166 196/1/166
f 195/1/166 196/1/166 194/1/166
f 196/1/167 199/1/167 198/1/167
f 196/1/167 198/1/167 194/1/167
f 200/1/168 201/1/168 204/1/168
f 200/1/168 204/1/168 205/1/168
f 206/1/169 207/1/169 202/1/169
f 206/1/169 202/1/169 203/1/169
f 202/1/170 207/1/170 204/1/170
f 202/1/170 204/1/170 201/1/170
f 173/1/171 172/1/171 190/1/171
f 173/1/171 190/1/171 191/1/171
f 174/1/172 175/1/172 193/1/172
f 174/1/172 193/1/172 192/1/172
f 176/1/173 177/1/173 195/1/173
f 176/1/173 195/1/173 194/1/173
f 179/1/174 178/1/174 196/1/174
f 179/1/174 196/1/174 197/1/174
f 177/1/175 179/1/175 197/1/175
f 177/1/175 197/1/175 195/1/175
f 181/1/176 180/1/176 198/1/176
f 181/1/176 198/1/176 199/1/176
f 178/1/177 181/1/177 199/1/177
f 178/1/177 199/1/177 196/1/177
f 180/1/178 176/1/178 194/1/178
f 180/1/178 194/1/178 198/1/178
f 182/1/179 183/1/179 201/1/179
f 182/1/179 201/1/179 200/1/179
f 186/1/180 187/1/180 205/1/180
f 186/1/180 205/1/180 204/1/180
f 188/1/181 189/1/181 207/1/181
f 188/1/181 207/1/181 206/1/181
f 184/1/182 185/1/182 203/1/182
f 184/1/182 203/1/182 202/1/182
f 183/1/183 184/1/183 202/1/183
f 183/1/183 202/1/183 201/1/183
f 189/1/184 186/1/184 204/1/184
f 189/1/184 204/1/184 207/1/184
f 172/1/185 182/1/185 200/1/185
f 172/1/185 200/1/185 190/1/185
f 187/1/186 174/1/186 192/1/186
f 187/1/186 192/1/186 205/1/186
f 185/1/187 173/1/187 191/1/187
f 185/1/187 191/1/187 203/1/187
f 175/1/188 188/1/188 206/1/188
f 175/1/188 206/1/188 193/1/188
