# prebaked split of model.obj material Brown2
mtllib Brown2.mtl
usemtl Brown2
v 0.080776 1.030710 -0.045856
v 0.159710 1.042885 0.031858
v 0.131437 1.038931 -0.012416
v 0.104342 0.943805 0.131689
v 0.115617 1.037771 0.133138
v 0.145221 1.038431 0.102328
v 0.111284 0.999878 0.133361
v 0.004982 1.013614 -0.056023
v -0.027108 1.012489 -0.043956
v 0.080351 1.001078 -0.055614
v 0.019335 1.030401 -0.050802
v 0.028211 1.008093 -0.061887
v 0.156889 1.007327 0.006242
v 0.123953 1.011305 -0.027536
v 0.081904 0.972540 -0.058935
v 0.158418 0.966859 -0.010188
v 0.119740 0.965309 -0.046236
v 0.239575 0.580168 -0.039282
v 0.185397 0.586965 -0.073132
v 0.169098 0.659806 -0.075189
v 0.250243 0.672995 0.005996
v 0.264150 0.595534 0.000230
v 0.171482 0.977503 0.017671
v 0.167191 0.993206 0.027873
v 0.113576 1.017769 0.134021
v 0.165326 1.008396 0.068434
v 0.145892 1.014300 0.108915
v 0.153848 0.717774 -0.066039
v 0.202742 0.734194 -0.041082
v 0.231596 0.736039 0.007892
v 0.196051 0.593659 -0.079194
v 0.245367 0.588028 -0.048402
v 0.226764 0.672004 -0.055078
v 0.180575 0.661656 -0.081335
v 0.255642 0.673992 -0.006260
v 0.267759 0.602543 -0.012124
v 0.166711 0.715303 -0.072717
v 0.238439 0.732154 -0.004512
v 0.211820 0.730452 -0.049692
v 0.067243 0.942401 0.153973
v -0.117282 1.020673 0.041989
v -0.094239 1.050729 0.147135
v 0.071307 1.040875 0.163477
v -0.031610 1.031916 -0.032709
v -0.117265 1.037934 0.099533
v 0.026909 0.954257 0.170170
v 0.017766 1.045987 0.175943
v -0.025030 1.048107 0.180275
v 0.068649 1.005162 0.157871
v 0.021881 1.009049 0.174055
v -0.074544 1.010156 -0.019524
v -0.044874 1.010834 -0.038066
v -0.033627 1.009760 -0.036655
v -0.122520 0.989360 0.041023
v -0.079975 1.026152 -0.006322
v -0.094753 1.001344 -0.004651
v -0.110949 1.012787 0.135589
v -0.123333 1.007408 0.089715
v -0.123035 0.960621 0.045313
v -0.120559 0.970771 0.135654
v -0.131156 0.958371 0.085338
v -0.137024 0.595220 0.260807
v -0.138899 0.589375 0.196658
v -0.141648 0.659142 0.168903
v -0.115963 0.696057 0.275514
v -0.118018 0.620752 0.298505
v -0.105194 0.987193 0.158699
v -0.096315 1.003250 0.157889
v 0.020410 1.026503 0.175569
v -0.062745 1.021419 0.176935
v 0.070947 1.024542 0.162545
v -0.018580 1.025228 0.186035
v -0.133526 0.716190 0.149926
v -0.139496 0.741768 0.200850
v -0.112930 0.756182 0.249024
v -0.150362 0.595859 0.201663
v -0.148737 0.601622 0.259991
v -0.155667 0.680507 0.225874
v -0.152980 0.660782 0.175421
v -0.129264 0.695031 0.273969
v -0.131258 0.625375 0.294305
v -0.145467 0.713604 0.158105
v -0.126466 0.750500 0.249530
v -0.150975 0.737202 0.205087
vt 0.000000 0.000000
vn 0.481900 0.292400 -0.826000
vn 0.113200 0.385800 -0.915600
vn 0.502000 -0.075600 0.861600
vn 0.557300 -0.038000 0.829500
vn -0.301000 0.461400 -0.834600
vn -0.766100 0.179700 -0.617100
vn 0.759800 0.260200 -0.595800
vn 0.427300 0.242100 -0.871100
vn 0.678900 0.258200 -0.687300
vn 0.879000 0.247700 0.407400
vn 0.669200 0.103700 0.735800
vn 0.913200 0.300600 0.275300
vn 0.500500 -0.182700 0.846200
vn 0.978100 0.158100 -0.135400
vn 0.876100 0.277600 -0.394100
vn 0.231300 0.957500 -0.172300
vn -0.134700 0.397400 -0.907700
vn -0.065800 0.887900 -0.455300
vn 0.232900 -0.815600 -0.529700
vn 0.509400 0.064400 -0.858100
vn 0.831100 0.161500 -0.532100
vn 0.827300 0.258600 -0.498600
vn 0.416000 0.217200 -0.883000
vn -0.441400 -0.126100 -0.888400
vn -0.465700 0.019400 -0.884700
vn 0.706600 -0.687700 -0.166800
vn 0.916500 0.130600 0.378100
vn -0.979000 0.191400 -0.070900
vn -0.812300 0.283300 -0.509800
vn 0.339800 -0.051700 0.939100
vn 0.236500 -0.020300 0.971400
vn -0.468700 0.472600 -0.746300
vn 0.138100 0.161500 -0.977200
vn -0.926900 0.211600 0.310000
vn -0.987300 0.106000 -0.118300
vn -0.964400 0.175300 0.198000
vn -0.136200 0.405200 0.904000
vn 0.177300 0.161500 0.970800
vn -0.329500 0.356200 0.874400
vn 0.274400 -0.165300 0.947300
vn -0.658500 0.193500 0.727300
vn -0.821500 0.269100 0.502700
vn -0.388300 0.919500 -0.061000
vn -0.649100 0.340900 -0.680000
vn -0.467400 0.766800 -0.440000
vn -0.470300 -0.877200 0.096600
vn -0.997900 -0.064100 0.005300
vn -0.898600 0.124400 0.420700
vn -0.880500 0.226700 0.416300
vn -0.990900 0.070500 -0.114700
vn -0.517600 -0.336100 -0.786900
vn -0.517200 -0.201200 -0.831900
vn -0.413100 -0.640400 0.647500
vn -0.165400 0.286700 0.943600
f 1/1/1 3/1/1 14/1/1
f 1/1/1 14/1/1 10/1/1
f 1/1/2 10/1/2 12/1/2
f 1/1/2 12/1/2 11/1/2
f 4/1/3 7/1/3 49/1/3
f 4/1/3 49/1/3 40/1/3
f 71/1/4 25/1/4 5/1/4
f 71/1/4 5/1/4 43/1/4
f 44/1/5 11/1/5 8/1/5
f 44/1/5 8/1/5 9/1/5
f 44/1/6 9/1/6 53/1/6
f 3/1/7 2/1/7 13/1/7
f 3/1/7 13/1/7 14/1/7
f 10/1/8 14/1/8 17/1/8
f 10/1/8 17/1/8 15/1/8
f 14/1/9 13/1/9 16/1/9
f 14/1/9 16/1/9 17/1/9
f 30/1/10 21/1/10 35/1/10
f 30/1/10 35/1/10 38/1/10
f 5/1/11 25/1/11 27/1/11
f 5/1/11 27/1/11 6/1/11
f 6/1/12 27/1/12 26/1/12
f 6/1/12 26/1/12 2/1/12
f 49/1/13 7/1/13 25/1/13
f 49/1/13 25/1/13 71/1/13
f 2/1/14 26/1/14 24/1/14
f 2/1/14 24/1/14 13/1/14
f 13/1/15 24/1/15 23/1/15
f 13/1/15 23/1/15 16/1/15
f 29/1/16 30/1/16 38/1/16
f 29/1/16 38/1/16 39/1/16
f 8/1/17 11/1/17 12/1/17
f 28/1/18 29/1/18 39/1/18
f 28/1/18 39/1/18 37/1/18
f 18/1/19 19/1/19 31/1/19
f 18/1/19 31/1/19 32/1/19
f 34/1/20 33/1/20 32/1/20
f 34/1/20 32/1/20 31/1/20
f 33/1/21 35/1/21 36/1/21
f 33/1/21 36/1/21 32/1/21
f 35/1/22 33/1/22 39/1/22
f 35/1/22 39/1/22 38/1/22
f 33/1/23 34/1/23 37/1/23
f 33/1/23 37/1/23 39/1/23
f 19/1/24 20/1/24 34/1/24
f 19/1/24 34/1/24 31/1/24
f 20/1/25 28/1/25 37/1/25
f 20/1/25 37/1/25 34/1/25
f 22/1/26 18/1/26 32/1/26
f 22/1/26 32/1/26 36/1/26
f 21/1/27 22/1/27 36/1/27
f 21/1/27 36/1/27 35/1/27
f 41/1/28 54/1/28 58/1/28
f 41/1/28 58/1/28 45/1/28
f 41/1/29 55/1/29 56/1/29
f 41/1/29 56/1/29 54/1/29
f 46/1/30 40/1/30 49/1/30
f 46/1/30 49/1/30 50/1/30
f 71/1/31 43/1/31 47/1/31
f 71/1/31 47/1/31 69/1/31
f 44/1/32 52/1/32 51/1/32
f 44/1/32 51/1/32 55/1/32
f 44/1/33 53/1/33 52/1/33
f 45/1/34 58/1/34 57/1/34
f 45/1/34 57/1/34 42/1/34
f 54/1/35 59/1/35 61/1/35
f 54/1/35 61/1/35 58/1/35
f 58/1/36 61/1/36 60/1/36
f 58/1/36 60/1/36 57/1/36
f 75/1/37 83/1/37 80/1/37
f 75/1/37 80/1/37 65/1/37
f 47/1/38 48/1/38 72/1/38
f 47/1/38 72/1/38 69/1/38
f 48/1/39 42/1/39 70/1/39
f 48/1/39 70/1/39 72/1/39
f 49/1/40 71/1/40 69/1/40
f 49/1/40 69/1/40 50/1/40
f 42/1/41 57/1/41 68/1/41
f 42/1/41 68/1/41 70/1/41
f 57/1/42 60/1/42 67/1/42
f 57/1/42 67/1/42 68/1/42
f 74/1/43 84/1/43 83/1/43
f 74/1/43 83/1/43 75/1/43
f 51/1/44 56/1/44 55/1/44
f 73/1/45 82/1/45 84/1/45
f 73/1/45 84/1/45 74/1/45
f 62/1/46 77/1/46 76/1/46
f 62/1/46 76/1/46 63/1/46
f 79/1/47 76/1/47 77/1/47
f 79/1/47 77/1/47 78/1/47
f 78/1/48 77/1/48 81/1/48
f 78/1/48 81/1/48 80/1/48
f 80/1/49 83/1/49 84/1/49
f 80/1/49 84/1/49 78/1/49
f 78/1/50 84/1/50 82/1/50
f 78/1/50 82/1/50 79/1/50
f 63/1/51 76/1/51 79/1/51
f 63/1/51 79/1/51 64/1/51
f 64/1/52 79/1/52 82/1/52
f 64/1/52 82/1/52 73/1/52
f 66/1/53 81/1/53 77/1/53
f 66/1/53 77/1/53 62/1/53
f 65/1/54 80/1/54 81/1/54
f 65/1/54 81/1/54 66/1/54
