# prebaked split of model.obj material Gold
mtllib Gold.mtl
usemtl Gold
v -0.180649 1.278284 -0.131452
v -0.179884 1.273333 -0.102247
v -0.180506 1.281933 -0.128691
v -0.179862 1.278019 -0.104074
v -0.183898 1.304863 -0.111759
v -0.175108 1.294298 -0.114150
v -0.183808 1.305582 -0.115914
v -0.175013 1.295043 -0.118453
v -0.185606 1.309548 -0.111967
v -0.185552 1.309969 -0.114397
v -0.181972 1.302683 -0.128855
v -0.181907 1.314005 -0.120673
v -0.181309 1.311428 -0.105174
v -0.181242 1.297624 -0.099683
v -0.181790 1.311038 -0.118478
v -0.181408 1.300760 -0.126754
v -0.180830 1.297020 -0.102145
v -0.181500 1.308889 -0.107462
v -0.177466 1.356208 -0.104160
v -0.175971 1.352622 -0.104971
v -0.177180 1.356930 -0.109360
v -0.175761 1.353149 -0.108769
v -0.174165 1.361473 -0.104467
v -0.173997 1.361896 -0.107507
v -0.176295 1.278335 -0.131782
v -0.175518 1.273339 -0.102142
v -0.176165 1.282067 -0.129156
v -0.175504 1.278083 -0.103793
v -0.180129 1.307021 -0.111303
v -0.171718 1.296996 -0.113609
v -0.180047 1.307754 -0.115455
v -0.171623 1.297742 -0.117911
v -0.181521 1.311052 -0.111617
v -0.181466 1.311473 -0.114047
v -0.177642 1.302993 -0.129330
v -0.177552 1.314179 -0.120937
v -0.176942 1.311488 -0.105198
v -0.176890 1.297791 -0.099355
v -0.177430 1.311143 -0.118710
v -0.177089 1.301066 -0.127324
v -0.176482 1.297189 -0.101785
v -0.177133 1.308940 -0.107496
v -0.173115 1.355868 -0.103968
v -0.171927 1.354208 -0.104528
v -0.172843 1.356439 -0.109190
v -0.171716 1.354735 -0.108326
v -0.170468 1.359150 -0.104587
v -0.170302 1.359572 -0.107626
v 0.194536 1.278974 -0.129728
v 0.193520 1.274021 -0.100531
v 0.194354 1.282623 -0.126967
v 0.193498 1.278706 -0.102358
v 0.197506 1.305565 -0.110006
v 0.188778 1.294967 -0.112478
v 0.197451 1.306284 -0.114161
v 0.188719 1.295713 -0.116781
v 0.199198 1.310256 -0.110198
v 0.199166 1.310678 -0.112629
v 0.195746 1.303379 -0.127119
v 0.195565 1.314699 -0.118938
v 0.194833 1.312119 -0.103445
v 0.194766 1.298315 -0.097954
v 0.195438 1.311732 -0.116743
v 0.195170 1.301453 -0.125024
v 0.194379 1.297711 -0.100420
v 0.195054 1.309582 -0.105731
v 0.190815 1.356885 -0.102467
v 0.189341 1.353294 -0.103293
v 0.190575 1.357607 -0.107669
v 0.189165 1.353821 -0.107092
v 0.187498 1.362139 -0.102804
v 0.187357 1.362560 -0.105846
v 0.190185 1.279010 -0.130097
v 0.189154 1.274009 -0.100466
v 0.190017 1.282741 -0.127472
v 0.189138 1.278754 -0.102118
v 0.193726 1.307708 -0.109584
v 0.185373 1.297654 -0.111966
v 0.193678 1.308443 -0.113736
v 0.185314 1.298399 -0.116270
v 0.195105 1.311746 -0.109886
v 0.195072 1.312166 -0.112316
v 0.191419 1.303672 -0.127633
v 0.191211 1.314858 -0.119242
v 0.190467 1.312164 -0.103509
v 0.190412 1.298467 -0.097667
v 0.191080 1.311821 -0.117016
v 0.190855 1.301743 -0.125632
v 0.190027 1.297864 -0.100100
v 0.190688 1.309617 -0.105805
v 0.186465 1.356529 -0.102315
v 0.185287 1.354865 -0.102886
v 0.186239 1.357100 -0.107539
v 0.185111 1.355392 -0.106686
v 0.183812 1.359801 -0.102958
v 0.183671 1.360223 -0.106000
v 0.021740 1.293234 -0.247284
v -0.007847 1.291709 -0.246703
v 0.019432 1.297137 -0.246653
v -0.005475 1.296107 -0.246133
v 0.005348 1.322148 -0.246955
v 0.006466 1.310369 -0.239565
v 0.009559 1.322355 -0.246838
v 0.010826 1.310584 -0.239442
v 0.006112 1.326952 -0.248076
v 0.008575 1.327072 -0.248008
v 0.022064 1.317744 -0.245563
v 0.015286 1.329856 -0.243988
v -0.000410 1.329072 -0.243483
v -0.007504 1.316112 -0.245030
v 0.012754 1.327178 -0.244203
v 0.019749 1.316027 -0.245208
v -0.005130 1.315177 -0.244732
v 0.001560 1.326326 -0.244017
v 0.003910 1.372837 -0.234155
v 0.004289 1.369025 -0.233124
v 0.009159 1.372901 -0.233859
v 0.008123 1.369070 -0.232907
v 0.004840 1.377581 -0.230237
v 0.007910 1.377618 -0.230065
v 0.022073 1.292706 -0.242962
v -0.007950 1.291186 -0.242368
v 0.019910 1.296678 -0.242336
v -0.005746 1.295663 -0.241796
v 0.005151 1.323862 -0.242943
v 0.006248 1.312672 -0.235861
v 0.009362 1.324084 -0.242833
v 0.010609 1.312888 -0.235738
v 0.005944 1.327969 -0.243833
v 0.008406 1.328089 -0.243765
v 0.022572 1.317458 -0.241235
v 0.015570 1.329459 -0.239648
v -0.000379 1.328590 -0.239143
v -0.007808 1.315777 -0.240687
v 0.012996 1.326716 -0.239868
v 0.020351 1.315728 -0.240893
v -0.005467 1.314846 -0.240391
v 0.001601 1.325832 -0.239678
v 0.003678 1.371988 -0.229877
v 0.004038 1.370140 -0.228909
v 0.008932 1.371901 -0.229613
v 0.007872 1.370185 -0.228692
v 0.004683 1.374821 -0.226857
v 0.007752 1.374857 -0.226684
v -0.048207 1.428858 -0.197140
v -0.076631 1.426099 -0.189171
v -0.050400 1.432693 -0.195935
v -0.074329 1.430571 -0.189202
v -0.064872 1.457256 -0.192597
v -0.061566 1.445552 -0.185766
v -0.060776 1.457593 -0.193543
v -0.057324 1.445902 -0.186744
v -0.064563 1.462077 -0.193859
v -0.062168 1.462273 -0.194412
v -0.048216 1.453375 -0.195475
v -0.054750 1.465280 -0.192203
v -0.069780 1.463688 -0.187803
v -0.076631 1.450509 -0.187558
v -0.057171 1.462525 -0.191782
v -0.050313 1.451590 -0.194554
v -0.074232 1.449648 -0.187870
v -0.067924 1.461000 -0.188827
v 0.060413 1.429058 -0.196641
v 0.088771 1.426404 -0.188411
v 0.062581 1.432901 -0.195416
v 0.086453 1.430866 -0.188463
v 0.076930 1.457517 -0.191944
v 0.073604 1.445801 -0.185145
v 0.072842 1.457840 -0.192928
v 0.069370 1.446135 -0.186162
v 0.076616 1.462337 -0.193210
v 0.074225 1.462524 -0.193785
v 0.060316 1.453575 -0.194976
v 0.066775 1.465504 -0.191645
v 0.081769 1.463966 -0.187107
v 0.088667 1.450812 -0.186798
v 0.069203 1.462757 -0.191202
v 0.062411 1.451797 -0.194036
v 0.086274 1.449943 -0.187132
v 0.079933 1.461272 -0.188146
v -0.046780 1.428361 -0.193043
v -0.075625 1.425594 -0.184952
v -0.048836 1.432268 -0.191880
v -0.073484 1.430138 -0.184939
v -0.064105 1.458982 -0.188659
v -0.060914 1.447864 -0.182120
v -0.060011 1.459334 -0.189612
v -0.056672 1.448214 -0.183098
v -0.063690 1.463107 -0.189706
v -0.061293 1.463305 -0.190260
v -0.046626 1.453124 -0.191415
v -0.053368 1.464914 -0.188077
v -0.068639 1.463225 -0.183613
v -0.075821 1.450184 -0.183278
v -0.055829 1.462088 -0.187649
v -0.048636 1.451327 -0.190531
v -0.073454 1.449327 -0.183585
v -0.066776 1.460528 -0.184640
v 0.058949 1.428555 -0.192557
v 0.087728 1.425894 -0.184201
v 0.060980 1.432470 -0.191376
v 0.085571 1.430432 -0.184208
v 0.076120 1.459241 -0.188014
v 0.072910 1.448111 -0.181504
v 0.072035 1.459578 -0.189004
v 0.068676 1.448444 -0.182522
v 0.075700 1.463364 -0.189066
v 0.073309 1.463552 -0.189641
v 0.058690 1.453318 -0.190932
v 0.065357 1.465133 -0.187531
v 0.080592 1.463499 -0.182928
v 0.087820 1.450486 -0.182526
v 0.067825 1.462316 -0.187081
v 0.060698 1.451529 -0.190028
v 0.085458 1.449620 -0.182854
v 0.078749 1.460796 -0.183970
vt 0.000000 0.000000
vn -0.983500 -0.068200 0.167400
vn -0.989800 -0.039000 -0.137200
vn -0.999400 0.016600 0.028900
vn -0.776400 -0.617900 -0.124100
vn -0.935400 -0.344300 -0.080100
vn -0.994500 -0.072300 0.075700
vn -0.999100 -0.037700 -0.021600
vn -0.999300 0.012600 0.035800
vn -0.926200 -0.363200 -0.101500
vn -0.846300 0.532100 0.027400
vn 0.982900 0.068000 -0.171300
vn 0.989300 0.037900 0.141000
vn 0.999500 -0.013600 -0.028400
vn 0.774000 0.620700 0.124900
vn 0.940700 0.330300 0.077300
vn 0.994600 0.071500 -0.074700
vn 0.999100 0.037300 0.021300
vn 0.999300 -0.011800 -0.035800
vn 0.813500 0.570500 0.113000
vn 0.779500 -0.625500 -0.033700
vn 0.002000 -0.986000 -0.166700
vn -0.019200 0.987500 0.156600
vn 0.009500 -0.214900 0.976600
vn -0.015900 0.223600 -0.974600
vn 0.629900 -0.767500 -0.119100
vn -0.352900 0.923200 0.152100
vn -0.052700 0.320600 -0.945700
vn -0.111400 0.020100 0.993600
vn -0.101100 0.590400 -0.800800
vn 0.100700 -0.633200 0.767400
vn 0.044300 -0.420600 -0.906200
vn -0.042000 0.380500 0.923800
vn -0.021200 0.985700 0.167100
vn 0.011700 -0.981200 -0.192400
vn -0.095700 0.096700 -0.990700
vn 0.122700 -0.092500 0.988100
vn -0.046900 -0.111600 0.992600
vn 0.070100 0.106100 -0.991900
vn -0.033000 -0.268600 0.962700
vn 0.098900 -0.211800 -0.972300
vn 0.373200 -0.921500 -0.107300
vn 0.530000 0.835500 0.145200
vn 0.116400 0.315000 -0.941900
vn 0.021700 0.092600 0.995500
vn 0.982200 -0.064600 0.176500
vn 0.991100 -0.035300 -0.128100
vn 0.999100 0.020300 0.038100
vn 0.779800 -0.615100 -0.117000
vn 0.937400 -0.340900 -0.071500
vn 0.994000 -0.068600 0.084800
vn 0.999300 -0.034100 -0.012400
vn 0.998900 0.016300 0.044900
vn 0.928400 -0.359800 -0.093000
vn 0.844000 0.535200 0.035100
vn -0.981500 0.064300 -0.180400
vn -0.990700 0.034200 0.131900
vn -0.999100 -0.017300 -0.037500
vn -0.777400 0.617900 0.117800
vn -0.942600 0.326900 0.068700
vn -0.994200 0.067900 -0.083900
vn -0.999400 0.033600 0.012100
vn -0.998900 -0.015500 -0.045000
vn -0.816600 0.567500 0.105500
vn -0.776800 -0.628400 -0.040900
vn 0.003100 -0.986000 -0.166700
vn 0.014000 0.987500 0.156700
vn -0.017700 -0.214900 0.976500
vn 0.024000 0.223600 -0.974400
vn -0.626000 -0.769800 -0.124800
vn 0.348000 0.924500 0.155300
vn 0.060300 0.320800 -0.945200
vn 0.102200 0.020500 0.994600
vn 0.106300 0.590800 -0.799800
vn -0.105500 -0.633600 0.766400
vn -0.034400 -0.420800 -0.906500
vn 0.032100 0.380700 0.924200
vn 0.016000 0.985800 0.167300
vn -0.006300 -0.981300 -0.192500
vn 0.104500 0.097100 -0.989800
vn -0.131400 -0.093000 0.987000
vn 0.038200 -0.111400 0.993000
vn -0.061400 0.105800 -0.992500
vn 0.025100 -0.268500 0.962900
vn -0.089200 -0.212100 -0.973200
vn -0.368800 -0.922900 -0.110700
vn -0.534400 0.833500 0.140400
vn -0.108800 0.314600 -0.943000
vn -0.031100 0.092500 0.995200
vn -0.174400 0.074200 -0.981900
vn 0.131600 0.067800 -0.989000
vn -0.026700 0.143400 -0.989300
vn 0.049800 -0.527500 -0.848100
vn 0.038600 -0.233000 -0.971700
vn -0.083700 0.060700 -0.994600
vn 0.016900 0.083800 -0.996300
vn -0.034000 0.140200 -0.989500
vn 0.057600 -0.255300 -0.965100
vn 0.036100 0.632100 -0.774000
vn 0.178200 -0.074800 0.981100
vn -0.135500 -0.068400 0.988400
vn 0.026500 -0.140400 0.989700
vn -0.050100 0.530600 0.846100
vn -0.037500 0.218300 0.975200
vn 0.082700 -0.061400 0.994700
vn -0.016800 -0.084300 0.996300
vn 0.034100 -0.139500 0.989600
vn -0.044400 0.474800 0.879000
vn -0.040900 -0.716700 0.696200
vn 0.048300 -0.991400 -0.121600
vn -0.038000 0.993800 0.104600
vn -0.995200 -0.097600 -0.002600
vn 0.994200 0.107200 -0.002600
vn 0.027000 -0.848200 0.529100
vn -0.041200 0.971200 -0.234500
vn 0.977200 0.210800 -0.026900
vn -0.984100 0.150800 -0.093400
vn 0.865300 0.499700 -0.039600
vn -0.837200 -0.545800 0.033500
vn 0.849700 -0.526900 -0.021000
vn -0.872000 0.489200 0.018600
vn -0.048600 0.993500 0.102500
vn 0.074300 -0.991000 -0.111700
vn 0.995200 -0.009800 -0.097700
vn -0.992100 0.010300 0.124900
vn -0.998900 0.013000 -0.045700
vn 0.997500 -0.021200 0.068000
vn -0.987800 -0.147000 -0.051600
vn 0.940200 -0.335700 0.057800
vn -0.003000 -0.966800 0.255600
vn -0.044800 0.774800 0.630600
vn 0.972700 0.184800 0.140300
vn -0.977400 0.206100 0.047500
vn -0.418200 0.064300 -0.906100
vn -0.123900 0.067300 -0.990000
vn -0.279700 0.138000 -0.950100
vn -0.149200 -0.529500 -0.835100
vn -0.200200 -0.236200 -0.950900
vn -0.333400 0.053600 -0.941300
vn -0.237200 0.079800 -0.968200
vn -0.286900 0.134700 -0.948400
vn 0.426300 0.065900 -0.902200
vn 0.132700 0.067800 -0.988800
vn 0.287900 0.139000 -0.947500
vn 0.158800 -0.529000 -0.833700
vn 0.209800 -0.235400 -0.949000
vn 0.341800 0.054800 -0.938200
vn 0.245700 0.080700 -0.966000
vn 0.295100 0.135700 -0.945800
vn 0.421900 -0.064800 0.904300
vn 0.120100 -0.068000 0.990400
vn 0.279500 -0.135000 0.950600
vn 0.148200 0.532600 0.833300
vn 0.202600 0.221400 0.953900
vn 0.332400 -0.054300 0.941600
vn 0.237300 -0.080200 0.968100
vn 0.287000 -0.133900 0.948500
vn -0.429900 -0.066400 0.900400
vn -0.128900 -0.068500 0.989300
vn -0.287700 -0.136100 0.948000
vn -0.157800 0.532100 0.831900
vn -0.212200 0.220700 0.952000
vn -0.340800 -0.055500 0.938500
vn -0.245900 -0.081100 0.965900
vn -0.295200 -0.135000 0.945800
vn 0.057300 -0.989000 -0.136100
vn -0.053700 0.991600 0.117700
vn -0.960300 -0.128200 0.247900
vn 0.957700 0.137700 -0.252600
vn 0.185500 -0.844500 0.502400
vn -0.128900 0.968400 -0.213400
vn 0.931900 0.240600 -0.271400
vn -0.980100 0.120100 0.157900
vn 0.811500 0.525800 -0.255000
vn -0.784600 -0.571100 0.241500
vn 0.832900 -0.500600 -0.236100
vn -0.853800 0.462300 0.239600
vn -0.072000 0.990100 0.120600
vn 0.102100 -0.985200 -0.138100
vn 0.938300 0.020300 -0.345200
vn -0.928400 -0.019600 0.371000
vn -0.978100 -0.017800 0.207300
vn 0.982600 0.009800 -0.185700
vn -0.052400 -0.989300 -0.136500
vn 0.048900 0.991800 0.118100
vn 0.958400 -0.124600 0.256700
vn -0.955900 0.134200 -0.261400
vn -0.187000 -0.845200 0.500700
vn 0.127300 0.968900 -0.212200
vn -0.930200 0.237200 -0.280000
vn 0.978200 0.123700 0.167000
vn -0.811100 0.522800 -0.262400
vn 0.784400 -0.568200 0.248700
vn -0.828800 -0.503700 -0.243700
vn 0.849800 0.465400 0.247400
vn 0.067200 0.990300 0.121200
vn -0.097100 -0.985500 -0.139000
vn -0.935200 0.016900 -0.353800
vn 0.925100 -0.016200 0.379500
vn 0.976200 -0.014200 0.216300
vn -0.980800 0.006200 -0.194700
f 11/1/1 1/1/1 3/1/1
f 11/1/1 3/1/1 16/1/1
f 2/1/2 14/1/2 17/1/2
f 2/1/2 17/1/2 4/1/2
f 1/1/3 2/1/3 4/1/3
f 1/1/3 4/1/3 3/1/3
f 6/1/4 5/1/4 7/1/4
f 6/1/4 7/1/4 8/1/4
f 7/1/5 5/1/5 9/1/5
f 7/1/5 9/1/5 10/1/5
f 11/1/6 16/1/6 15/1/6
f 11/1/6 15/1/6 12/1/6
f 17/1/7 14/1/7 13/1/7
f 17/1/7 13/1/7 18/1/7
f 13/1/8 12/1/8 15/1/8
f 13/1/8 15/1/8 18/1/8
f 20/1/9 19/1/9 21/1/9
f 20/1/9 21/1/9 22/1/9
f 21/1/10 19/1/10 23/1/10
f 21/1/10 23/1/10 24/1/10
f 35/1/11 40/1/11 27/1/11
f 35/1/11 27/1/11 25/1/11
f 26/1/12 28/1/12 41/1/12
f 26/1/12 41/1/12 38/1/12
f 25/1/13 27/1/13 28/1/13
f 25/1/13 28/1/13 26/1/13
f 30/1/14 32/1/14 31/1/14
f 30/1/14 31/1/14 29/1/14
f 31/1/15 34/1/15 33/1/15
f 31/1/15 33/1/15 29/1/15
f 35/1/16 36/1/16 39/1/16
f 35/1/16 39/1/16 40/1/16
f 41/1/17 42/1/17 37/1/17
f 41/1/17 37/1/17 38/1/17
f 37/1/18 42/1/18 39/1/18
f 37/1/18 39/1/18 36/1/18
f 44/1/19 46/1/19 45/1/19
f 44/1/19 45/1/19 43/1/19
f 45/1/20 48/1/20 47/1/20
f 45/1/20 47/1/20 43/1/20
f 2/1/21 1/1/21 25/1/21
f 2/1/21 25/1/21 26/1/21
f 3/1/22 4/1/22 28/1/22
f 3/1/22 28/1/22 27/1/22
f 5/1/23 6/1/23 30/1/23
f 5/1/23 30/1/23 29/1/23
f 8/1/24 7/1/24 31/1/24
f 8/1/24 31/1/24 32/1/24
f 6/1/25 8/1/25 32/1/25
f 6/1/25 32/1/25 30/1/25
f 10/1/26 9/1/26 33/1/26
f 10/1/26 33/1/26 34/1/26
f 7/1/27 10/1/27 34/1/27
f 7/1/27 34/1/27 31/1/27
f 9/1/28 5/1/28 29/1/28
f 9/1/28 29/1/28 33/1/28
f 11/1/29 12/1/29 36/1/29
f 11/1/29 36/1/29 35/1/29
f 15/1/30 16/1/30 40/1/30
f 15/1/30 40/1/30 39/1/30
f 17/1/31 18/1/31 42/1/31
f 17/1/31 42/1/31 41/1/31
f 13/1/32 14/1/32 38/1/32
f 13/1/32 38/1/32 37/1/32
f 12/1/33 13/1/33 37/1/33
f 12/1/33 37/1/33 36/1/33
f 18/1/34 15/1/34 39/1/34
f 18/1/34 39/1/34 42/1/34
f 1/1/35 11/1/35 35/1/35
f 1/1/35 35/1/35 25/1/35
f 16/1/36 3/1/36 27/1/36
f 16/1/36 27/1/36 40/1/36
f 14/1/37 2/1/37 26/1/37
f 14/1/37 26/1/37 38/1/37
f 4/1/38 17/1/38 41/1/38
f 4/1/38 41/1/38 28/1/38
f 19/1/39 20/1/39 44/1/39
f 19/1/39 44/1/39 43/1/39
f 22/1/40 21/1/40 45/1/40
f 22/1/40 45/1/40 46/1/40
f 20/1/41 22/1/41 46/1/41
f 20/1/41 46/1/41 44/1/41
f 24/1/42 23/1/42 47/1/42
f 24/1/42 47/1/42 48/1/42
f 21/1/43 24/1/43 48/1/43
f 21/1/43 48/1/43 45/1/43
f 23/1/44 19/1/44 43/1/44
f 23/1/44 43/1/44 47/1/44
f 59/1/45 64/1/45 51/1/45
f 59/1/45 51/1/45 49/1/45
f 50/1/46 52/1/46 65/1/46
f 50/1/46 65/1/46 62/1/46
f 49/1/47 51/1/47 52/1/47
f 49/1/47 52/1/47 50/1/47
f 54/1/48 56/1/48 55/1/48
f 54/1/48 55/1/48 53/1/48
f 55/1/49 58/1/49 57/1/49
f 55/1/49 57/1/49 53/1/49
f 59/1/50 60/1/50 63/1/50
f 59/1/50 63/1/50 64/1/50
f 65/1/51 66/1/51 61/1/51
f 65/1/51 61/1/51 62/1/51
f 61/1/52 66/1/52 63/1/52
f 61/1/52 63/1/52 60/1/52
f 68/1/53 70/1/53 69/1/53
f 68/1/53 69/1/53 67/1/53
f 69/1/54 72/1/54 71/1/54
f 69/1/54 71/1/54 67/1/54
f 83/1/55 73/1/55 75/1/55
f 83/1/55 75/1/55 88/1/55
f 74/1/56 86/1/56 89/1/56
f 74/1/56 89/1/56 76/1/56
f 73/1/57 74/1/57 76/1/57
f 73/1/57 76/1/57 75/1/57
f 78/1/58 77/1/58 79/1/58
f 78/1/58 79/1/58 80/1/58
f 79/1/59 77/1/59 81/1/59
f 79/1/59 81/1/59 82/1/59
f 83/1/60 88/1/60 87/1/60
f 83/1/60 87/1/60 84/1/60
f 89/1/61 86/1/61 85/1/61
f 89/1/61 85/1/61 90/1/61
f 85/1/62 84/1/62 87/1/62
f 85/1/62 87/1/62 90/1/62
f 92/1/63 91/1/63 93/1/63
f 92/1/63 93/1/63 94/1/63
f 93/1/64 91/1/64 95/1/64
f 93/1/64 95/1/64 96/1/64
f 50/1/65 74/1/65 73/1/65
f 50/1/65 73/1/65 49/1/65
f 51/1/66 75/1/66 76/1/66
f 51/1/66 76/1/66 52/1/66
f 53/1/67 77/1/67 78/1/67
f 53/1/67 78/1/67 54/1/67
f 56/1/68 80/1/68 79/1/68
f 56/1/68 79/1/68 55/1/68
f 54/1/69 78/1/69 80/1/69
f 54/1/69 80/1/69 56/1/69
f 58/1/70 82/1/70 81/1/70
f 58/1/70 81/1/70 57/1/70
f 55/1/71 79/1/71 82/1/71
f 55/1/71 82/1/71 58/1/71
f 57/1/72 81/1/72 77/1/72
f 57/1/72 77/1/72 53/1/72
f 59/1/73 83/1/73 84/1/73
f 59/1/73 84/1/73 60/1/73
f 63/1/74 87/1/74 88/1/74
f 63/1/74 88/1/74 64/1/74
f 65/1/75 89/1/75 90/1/75
f 65/1/75 90/1/75 66/1/75
f 61/1/76 85/1/76 86/1/76
f 61/1/76 86/1/76 62/1/76
f 60/1/77 84/1/77 85/1/77
f 60/1/77 85/1/77 61/1/77
f 66/1/78 90/1/78 87/1/78
f 66/1/78 87/1/78 63/1/78
f 49/1/79 73/1/79 83/1/79
f 49/1/79 83/1/79 59/1/79
f 64/1/80 88/1/80 75/1/80
f 64/1/80 75/1/80 51/1/80
f 62/1/81 86/1/81 74/1/81
f 62/1/81 74/1/81 50/1/81
f 52/1/82 76/1/82 89/1/82
f 52/1/82 89/1/82 65/1/82
f 67/1/83 91/1/83 92/1/83
f 67/1/83 92/1/83 68/1/83
f 70/1/84 94/1/84 93/1/84
f 70/1/84 93/1/84 69/1/84
f 68/1/85 92/1/85 94/1/85
f 68/1/85 94/1/85 70/1/85
f 72/1/86 96/1/86 95/1/86
f 72/1/86 95/1/86 71/1/86
f 69/1/87 93/1/87 96/1/87
f 69/1/87 96/1/87 72/1/87
f 71/1/88 95/1/88 91/1/88
f 71/1/88 91/1/88 67/1/88
f 107/1/89 97/1/89 99/1/89
f 107/1/89 99/1/89 112/1/89
f 98/1/90 110/1/90 113/1/90
f 98/1/90 113/1/90 100/1/90
f 97/1/91 98/1/91 100/1/91
f 97/1/91 100/1/91 99/1/91
f 102/1/92 101/1/92 103/1/92
f 102/1/92 103/1/92 104/1/92
f 103/1/93 101/1/93 105/1/93
f 103/1/93 105/1/93 106/1/93
f 107/1/94 112/1/94 111/1/94
f 107/1/94 111/1/94 108/1/94
f 113/1/95 110/1/95 109/1/95
f 113/1/95 109/1/95 114/1/95
f 109/1/96 108/1/96 111/1/96
f 109/1/96 111/1/96 114/1/96
f 116/1/97 115/1/97 117/1/97
f 116/1/97 117/1/97 118/1/97
f 117/1/98 115/1/98 119/1/98
f 117/1/98 119/1/98 120/1/98
f 131/1/99 136/1/99 123/1/99
f 131/1/99 123/1/99 121/1/99
f 122/1/100 124/1/100 137/1/100
f 122/1/100 137/1/100 134/1/100
f 121/1/101 123/1/101 124/1/101
f 121/1/101 124/1/101 122/1/101
f 126/1/102 128/1/102 127/1/102
f 126/1/102 127/1/102 125/1/102
f 127/1/103 130/1/103 129/1/103
f 127/1/103 129/1/103 125/1/103
f 131/1/104 132/1/104 135/1/104
f 131/1/104 135/1/104 136/1/104
f 137/1/105 138/1/105 133/1/105
f 137/1/105 133/1/105 134/1/105
f 133/1/106 138/1/106 135/1/106
f 133/1/106 135/1/106 132/1/106
f 140/1/107 142/1/107 141/1/107
f 140/1/107 141/1/107 139/1/107
f 141/1/108 144/1/108 143/1/108
f 141/1/108 143/1/108 139/1/108
f 98/1/109 97/1/109 121/1/109
f 98/1/109 121/1/109 122/1/109
f 99/1/110 100/1/110 124/1/110
f 99/1/110 124/1/110 123/1/110
f 101/1/111 102/1/111 126/1/111
f 101/1/111 126/1/111 125/1/111
f 104/1/112 103/1/112 127/1/112
f 104/1/112 127/1/112 128/1/112
f 102/1/113 104/1/113 128/1/113
f 102/1/113 128/1/113 126/1/113
f 106/1/114 105/1/114 129/1/114
f 106/1/114 129/1/114 130/1/114
f 103/1/115 106/1/115 130/1/115
f 103/1/115 130/1/115 127/1/115
f 105/1/116 101/1/116 125/1/116
f 105/1/116 125/1/116 129/1/116
f 107/1/117 108/1/117 132/1/117
f 107/1/117 132/1/117 131/1/117
f 111/1/118 112/1/118 136/1/118
f 111/1/118 136/1/118 135/1/118
f 113/1/119 114/1/119 138/1/119
f 113/1/119 138/1/119 137/1/119
f 109/1/120 110/1/120 134/1/120
f 109/1/120 134/1/120 133/1/120
f 108/1/121 109/1/121 133/1/121
f 108/1/121 133/1/121 132/1/121
f 114/1/122 111/1/122 135/1/122
f 114/1/122 135/1/122 138/1/122
f 97/1/123 107/1/123 131/1/123
f 97/1/123 131/1/123 121/1/123
f 112/1/124 99/1/124 123/1/124
f 112/1/124 123/1/124 136/1/124
f 110/1/125 98/1/125 122/1/125
f 110/1/125 122/1/125 134/1/125
f 100/1/126 113/1/126 137/1/126
f 100/1/126 137/1/126 124/1/126
f 115/1/127 116/1/127 140/1/127
f 115/1/127 140/1/127 139/1/127
f 118/1/128 117/1/128 141/1/128
f 118/1/128 141/1/128 142/1/128
f 116/1/129 118/1/129 142/1/129
f 116/1/129 142/1/129 140/1/129
f 120/1/130 119/1/130 143/1/130
f 120/1/130 143/1/130 144/1/130
f 117/1/131 120/1/131 144/1/131
f 117/1/131 144/1/131 141/1/131
f 119/1/132 115/1/132 139/1/132
f 119/1/132 139/1/132 143/1/132
f 155/1/133 145/1/133 147/1/133
f 155/1/133 147/1/133 160/1/133
f 146/1/134 158/1/134 161/1/134
f 146/1/134 161/1/134 148/1/134
f 145/1/135 146/1/135 148/1/135
f 145/1/135 148/1/135 147/1/135
f 150/1/136 149/1/136 151/1/136
f 150/1/136 151/1/136 152/1/136
f 151/1/137 149/1/137 153/1/137
f 151/1/137 153/1/137 154/1/137
f 155/1/138 160/1/138 159/1/138
f 155/1/138 159/1/138 156/1/138
f 161/1/139 158/1/139 157/1/139
f 161/1/139 157/1/139 162/1/139
f 157/1/140 156/1/140 159/1/140
f 157/1/140 159/1/140 162/1/140
f 173/1/141 178/1/141 165/1/141
f 173/1/141 165/1/141 163/1/141
f 164/1/142 166/1/142 179/1/142
f 164/1/142 179/1/142 176/1/142
f 163/1/143 165/1/143 166/1/143
f 163/1/143 166/1/143 164/1/143
f 168/1/144 170/1/144 169/1/144
f 168/1/144 169/1/144 167/1/144
f 169/1/145 172/1/145 171/1/145
f 169/1/145 171/1/145 167/1/145
f 173/1/146 174/1/146 177/1/146
f 173/1/146 177/1/146 178/1/146
f 179/1/147 180/1/147 175/1/147
f 179/1/147 175/1/147 176/1/147
f 175/1/148 180/1/148 177/1/148
f 175/1/148 177/1/148 174/1/148
f 191/1/149 196/1/149 183/1/149
f 191/1/149 183/1/149 181/1/149
f 182/1/150 184/1/150 197/1/150
f 182/1/150 197/1/150 194/1/150
f 181/1/151 183/1/151 184/1/151
f 181/1/151 184/1/151 182/1/151
f 186/1/152 188/1/152 187/1/152
f 186/1/152 187/1/152 185/1/152
f 187/1/153 190/1/153 189/1/153
f 187/1/153 189/1/153 185/1/153
f 191/1/154 192/1/154 195/1/154
f 191/1/154 195/1/154 196/1/154
f 197/1/155 198/1/155 193/1/155
f 197/1/155 193/1/155 194/1/155
f 193/1/156 198/1/156 195/1/156
f 193/1/156 195/1/156 192/1/156
f 209/1/157 199/1/157 201/1/157
f 209/1/157 201/1/157 214/1/157
f 200/1/158 212/1/158 215/1/158
f 200/1/158 215/1/158 202/1/158
f 199/1/159 200/1/159 202/1/159
f 199/1/159 202/1/159 201/1/159
f 204/1/160 203/1/160 205/1/160
f 204/1/160 205/1/160 206/1/160
f 205/1/161 203/1/161 207/1/161
f 205/1/161 207/1/161 208/1/161
f 209/1/162 214/1/162 213/1/162
f 209/1/162 213/1/162 210/1/162
f 215/1/163 212/1/163 211/1/163
f 215/1/163 211/1/163 216/1/163
f 211/1/164 210/1/164 213/1/164
f 211/1/164 213/1/164 216/1/164
f 146/1/165 145/1/165 181/1/165
f 146/1/165 181/1/165 182/1/165
f 147/1/166 148/1/166 184/1/166
f 147/1/166 184/1/166 183/1/166
f 149/1/167 150/1/167 186/1/167
f 149/1/167 186/1/167 185/1/167
f 152/1/168 151/1/168 187/1/168
f 152/1/168 187/1/168 188/1/168
f 150/1/169 152/1/169 188/1/169
f 150/1/169 188/1/169 186/1/169
f 154/1/170 153/1/170 189/1/170
f 154/1/170 189/1/170 190/1/170
f 151/1/171 154/1/171 190/1/171
f 151/1/171 190/1/171 187/1/171
f 153/1/172 149/1/172 185/1/172
f 153/1/172 185/1/172 189/1/172
f 155/1/173 156/1/173 192/1/173
f 155/1/173 192/1/173 191/1/173
f 159/1/174 160/1/174 196/1/174
f 159/1/174 196/1/174 195/1/174
f 161/1/175 162/1/175 198/1/175
f 161/1/175 198/1/175 197/1/175
f 157/1/176 158/1/176 194/1/176
f 157/1/176 194/1/176 193/1/176
f 156/1/177 157/1/177 193/1/177
f 156/1/177 193/1/177 192/1/177
f 162/1/178 159/1/178 195/1/178
f 162/1/178 195/1/178 198/1/178
f 145/1/179 155/1/179 191/1/179
f 145/1/179 191/1/179 181/1/179
f 160/1/180 147/1/180 183/1/180
f 160/1/180 183/1/180 196/1/180
f 158/1/181 146/1/181 182/1/181
f 158/1/181 182/1/181 194/1/181
f 148/1/182 161/1/182 197/1/182
f 148/1/182 197/1/182 184/1/182
f 163/1/183 164/1/183 200/1/183
f 163/1/183 200/1/183 199/1/183
f 166/1/184 165/1/184 201/1/184
f 166/1/184 201/1/184 202/1/184
f 168/1/185 167/1/185 203/1/185
f 168/1/185 203/1/185 204/1/185
f 169/1/186 170/1/186 206/1/186
f 169/1/186 206/1/186 205/1/186
f 170/1/187 168/1/187 204/1/187
f 170/1/187 204/1/187 206/1/187
f 171/1/188 172/1/188 208/1/188
f 171/1/188 208/1/188 207/1/188
f 172/1/189 169/1/189 205/1/189
f 172/1/189 205/1/189 208/1/189
f 167/1/190 171/1/190 207/1/190
f 167/1/190 207/1/190 203/1/190
f 174/1/191 173/1/191 209/1/191
f 174/1/191 209/1/191 210/1/191
f 178/1/192 177/1/192 213/1/192
f 178/1/192 213/1/192 214/1/192
f 180/1/193 179/1/193 215/1/193
f 180/1/193 215/1/193 216/1/193
f 176/1/194 175/1/194 211/1/194
f 176/1/194 211/1/194 212/1/194
f 175/1/195 174/1/195 210/1/195
f 175/1/195 210/1/195 211/1/195
f 177/1/196 180/1/196 216/1/196
f 177/1/196 216/1/196 213/1/196
f 173/1/197 163/1/197 199/1/197
f 173/1/197 199/1/197 209/1/197
f 165/1/198 178/1/198 214/1/198
f 165/1/198 214/1/198 201/1/198
f 164/1/199 176/1/199 212/1/199
f 164/1/199 212/1/199 200/1/199
f 179/1/200 166/1/200 202/1/200
f 179/1/200 202/1/200 215/1/200
