# prebaked split of model.obj material Brown.002
mtllib Brown_002.mtl
usemtl Brown.002
v 0.026094 1.600639 0.217527
v 0.024867 1.619090 0.224134
v 0.020071 1.606611 0.199776
v 0.018844 1.625061 0.206384
v 0.045165 1.603711 0.212349
v 0.043937 1.622162 0.218956
v 0.039141 1.609683 0.194599
v 0.037913 1.628134 0.201206
v -0.053579 1.600756 0.217157
v -0.052360 1.619202 0.223775
v -0.047374 1.606709 0.199463
v -0.046155 1.625156 0.206082
v -0.072592 1.603883 0.211803
v -0.071372 1.622330 0.218421
v -0.066386 1.609837 0.194109
v -0.065167 1.628284 0.200727
vt 0.000000 0.000000
vn -0.949900 -0.159400 0.268700
vn -0.295000 0.304700 -0.905600
vn 0.949900 0.159400 -0.268700
vn 0.295000 -0.304700 0.905600
vn 0.060000 -0.939800 -0.336500
vn -0.060000 0.939800 0.336500
vn 0.946900 -0.162200 0.277500
vn 0.304200 0.303800 -0.902800
vn -0.946900 0.162200 -0.277500
vn -0.304200 -0.303800 0.902800
vn -0.059600 -0.939600 -0.337100
vn 0.059600 0.939600 0.337100
f 1/1/1 2/1/1 4/1/1
f 1/1/1 4/1/1 3/1/1
f 3/1/2 4/1/2 8/1/2
f 3/1/2 8/1/2 7/1/2
f 7/1/3 8/1/3 6/1/3
f 7/1/3 6/1/3 5/1/3
f 5/1/4 6/1/4 2/1/4
f 5/1/4 2/1/4 1/1/4
f 3/1/5 7/1/5 5/1/5
f 3/1/5 5/1/5 1/1/5
f 8/1/6 4/1/6 2/1/6
f 8/1/6 2/1/6 6/1/6
f 9/1/7 11/1/7 12/1/7
f 9/1/7 12/1/7 10/1/7
f 11/1/8 15/1/8 16/1/8
f 11/1/8 16/1/8 12/1/8
f 15/1/9 13/1/9 14/1/9
f 15/1/9 14/1/9 16/1/9
f 13/1/10 9/1/10 10/1/10
f 13/1/10 10/1/10 14/1/10
f 11/1/11 9/1/11 13/1/11
f 11/1/11 13/1/11 15/1/11
f 16/1/12 14/1/12 10/1/12
f 16/1/12 10/1/12 12/1/12
