# prebaked split of model.obj material Brown.003
mtllib Brown_003.mtl
usemtl Brown.003
v 0.005168 1.639440 0.228909
v 0.054300 1.639466 0.212169
v 0.005328 1.633756 0.224195
v 0.053424 1.632730 0.208868
v 0.057306 1.635833 0.222174
v 0.008145 1.636084 0.236782
v 0.056349 1.629003 0.218863
v 0.008223 1.630307 0.232057
v 0.026235 1.610376 0.218833
v 0.025000 1.628939 0.225480
v 0.020176 1.616384 0.200975
v 0.018942 1.634947 0.207622
v 0.045412 1.613467 0.213624
v 0.044178 1.632030 0.220271
v 0.039354 1.619475 0.195766
v 0.038120 1.638038 0.202413
v 0.031273 1.645554 0.224034
v 0.030915 1.639344 0.220026
v 0.034265 1.642060 0.232973
v 0.033825 1.635757 0.228955
v -0.032833 1.639495 0.228732
v -0.081806 1.639664 0.211537
v -0.032965 1.633812 0.224017
v -0.080920 1.632927 0.208244
v -0.084916 1.636040 0.221514
v -0.035892 1.636148 0.236578
v -0.083949 1.629208 0.218212
v -0.035944 1.630372 0.231852
v -0.053889 1.610493 0.218462
v -0.052663 1.629052 0.225120
v -0.047649 1.616483 0.200660
v -0.046422 1.635042 0.207319
v -0.073008 1.613640 0.213075
v -0.071782 1.632199 0.219733
v -0.066768 1.619630 0.195274
v -0.065541 1.638189 0.201932
v -0.058873 1.645686 0.223615
v -0.058496 1.639474 0.219611
v -0.061958 1.642200 0.232527
v -0.061499 1.635896 0.228513
vt 0.000000 0.000000
vn -0.279600 0.492100 -0.824400
vn 0.243000 -0.492300 0.835800
vn -0.375500 -0.897500 -0.231100
vn 0.959500 0.007700 -0.281700
vn -0.940500 -0.227500 0.252600
vn -0.139000 0.898900 0.415600
vn -0.950000 -0.159300 0.268600
vn -0.295100 0.304700 -0.905600
vn 0.950000 0.159300 -0.268600
vn 0.295100 -0.304700 0.905600
vn 0.060100 -0.939800 -0.336500
vn -0.060100 0.939800 0.336500
vn 0.354800 0.906500 0.228700
vn 0.133400 -0.896800 -0.421900
vn 0.231800 -0.574900 0.784700
vn -0.265400 0.573000 -0.775400
vn 0.288600 0.491300 -0.821800
vn -0.252200 -0.491500 0.833500
vn 0.375000 -0.898600 -0.227700
vn -0.956800 0.010500 -0.290600
vn 0.937400 -0.230300 0.261300
vn 0.137800 0.898500 0.416900
vn 0.947000 -0.162100 0.277400
vn 0.304400 0.303800 -0.902800
vn -0.947000 0.162100 -0.277400
vn -0.304400 -0.303800 0.902800
vn -0.059700 -0.939600 -0.337100
vn 0.059700 0.939600 0.337100
vn -0.354300 0.907600 0.225400
vn -0.132100 -0.896400 -0.423200
vn -0.240800 -0.574200 0.782500
vn 0.274200 0.572300 -0.772900
f 18/1/1 17/1/1 2/1/1
f 18/1/1 2/1/1 4/1/1
f 20/1/2 7/1/2 5/1/2
f 20/1/2 5/1/2 19/1/2
f 18/1/3 4/1/3 7/1/3
f 18/1/3 7/1/3 20/1/3
f 4/1/4 2/1/4 5/1/4
f 4/1/4 5/1/4 7/1/4
f 1/1/5 3/1/5 8/1/5
f 1/1/5 8/1/5 6/1/5
f 17/1/6 1/1/6 6/1/6
f 17/1/6 6/1/6 19/1/6
f 9/1/7 10/1/7 12/1/7
f 9/1/7 12/1/7 11/1/7
f 11/1/8 12/1/8 16/1/8
f 11/1/8 16/1/8 15/1/8
f 15/1/9 16/1/9 14/1/9
f 15/1/9 14/1/9 13/1/9
f 13/1/10 14/1/10 10/1/10
f 13/1/10 10/1/10 9/1/10
f 11/1/11 15/1/11 13/1/11
f 11/1/11 13/1/11 9/1/11
f 16/1/12 12/1/12 10/1/12
f 16/1/12 10/1/12 14/1/12
f 2/1/13 17/1/13 19/1/13
f 2/1/13 19/1/13 5/1/13
f 3/1/14 18/1/14 20/1/14
f 3/1/14 20/1/14 8/1/14
f 8/1/15 20/1/15 19/1/15
f 8/1/15 19/1/15 6/1/15
f 3/1/16 1/1/16 17/1/16
f 3/1/16 17/1/16 18/1/16
f 38/1/17 24/1/17 22/1/17
f 38/1/17 22/1/17 37/1/17
f 40/1/18 39/1/18 25/1/18
f 40/1/18 25/1/18 27/1/18
f 38/1/19 40/1/19 27/1/19
f 38/1/19 27/1/19 24/1/19
f 24/1/20 27/1/20 25/1/20
f 24/1/20 25/1/20 22/1/20
f 21/1/21 26/1/21 28/1/21
f 21/1/21 28/1/21 23/1/21
f 37/1/22 39/1/22 26/1/22
f 37/1/22 26/1/22 21/1/22
f 29/1/23 31/1/23 32/1/23
f 29/1/23 32/1/23 30/1/23
f 31/1/24 35/1/24 36/1/24
f 31/1/24 36/1/24 32/1/24
f 35/1/25 33/1/25 34/1/25
f 35/1/25 34/1/25 36/1/25
f 33/1/26 29/1/26 30/1/26
f 33/1/26 30/1/26 34/1/26
f 31/1/27 29/1/27 33/1/27
f 31/1/27 33/1/27 35/1/27
f 36/1/28 34/1/28 30/1/28
f 36/1/28 30/1/28 32/1/28
f 22/1/29 25/1/29 39/1/29
f 22/1/29 39/1/29 37/1/29
f 23/1/30 28/1/30 40/1/30
f 23/1/30 40/1/30 38/1/30
f 28/1/31 26/1/31 39/1/31
f 28/1/31 39/1/31 40/1/31
f 23/1/32 38/1/32 37/1/32
f 23/1/32 37/1/32 21/1/32
