# prebaked split of model.obj material HairBase
mtllib HairBase.mtl
usemtl HairBase
v 0.096604 1.659699 0.008881
v 0.069334 1.657049 -0.047787
v 0.099287 1.667785 0.046420
v 0.059735 1.683897 -0.044760
v 0.085987 1.693897 0.003540
v 0.091736 1.698440 0.044757
v 0.076788 1.712740 0.106555
v 0.065285 1.735496 0.040246
v 0.058905 1.728712 -0.002560
v 0.045230 1.654943 -0.057981
v 0.040890 1.680962 -0.058732
v 0.020550 1.728410 0.135991
v 0.020770 1.744086 0.101332
v 0.033986 1.746748 -0.003868
v 0.033549 1.751743 0.042888
v 0.030480 1.717973 -0.040991
v 0.084279 1.667428 0.111160
v 0.053122 1.726748 0.102841
v 0.053655 1.720025 0.128711
v -0.102133 1.659645 0.010192
v -0.075629 1.656997 -0.046833
v -0.104314 1.667739 0.047765
v -0.066002 1.683864 -0.043912
v -0.091607 1.693851 0.004737
v -0.096802 1.698392 0.046028
v -0.081030 1.712700 0.107618
v -0.070433 1.735461 0.041161
v -0.064627 1.728680 -0.001728
v -0.051664 1.654905 -0.057346
v -0.047346 1.680939 -0.058137
v -0.024408 1.728398 0.136294
v -0.025104 1.744074 0.101641
v -0.039736 1.746729 -0.003371
v -0.038673 1.751724 0.043374
v -0.036717 1.717956 -0.040538
v -0.088433 1.667396 0.112311
v -0.057423 1.726719 0.103586
v -0.057604 1.719996 0.129461
v -0.003314 1.654403 -0.072118
v -0.003304 1.681189 -0.069721
v -0.001895 1.731997 0.141298
v -0.002169 1.746011 0.101163
v -0.002553 1.756628 0.044667
v -0.003125 1.721692 -0.041653
v -0.002881 1.753394 -0.004156
vt 0.000000 0.000000
vn 0.808900 0.584800 0.060300
vn 0.846400 0.262700 -0.463200
vn 0.956900 0.252600 -0.143000
vn 0.800400 0.567800 -0.192100
vn 0.152300 0.517700 -0.841900
vn 0.473000 0.855200 0.211900
vn 0.472900 0.855200 0.211900
vn 0.472800 0.855200 0.212500
vn 0.473100 0.855300 0.211400
vn 0.121500 0.768100 -0.628700
vn 0.509700 0.848000 -0.145300
vn 0.726200 0.478400 -0.493800
vn 0.456600 0.864200 0.211200
vn 0.261000 0.051500 -0.964000
vn 0.552500 0.601700 -0.576800
vn 0.470600 0.485500 -0.736800
vn 0.153800 0.984500 -0.084600
vn 0.152800 0.918600 0.364500
vn 0.469500 0.161200 -0.868100
vn 0.370800 0.871600 0.320600
vn 0.117500 0.978700 0.168300
vn 0.957000 0.206300 0.203800
vn -0.808400 0.584400 0.071200
vn -0.852600 0.262600 -0.451800
vn -0.958900 0.252300 -0.130100
vn -0.803200 0.567400 -0.181300
vn -0.163900 0.517600 -0.839800
vn -0.470500 0.855000 0.218300
vn -0.470300 0.854900 0.218900
vn -0.470600 0.855000 0.217800
vn -0.130300 0.768100 -0.627000
vn -0.512000 0.847700 -0.138500
vn -0.733000 0.478000 -0.483900
vn -0.454200 0.864000 0.217400
vn -0.273800 0.051600 -0.960400
vn -0.560600 0.601400 -0.569300
vn -0.480700 0.485300 -0.730300
vn -0.155500 0.984400 -0.082500
vn -0.148400 0.918500 0.366600
vn -0.481100 0.161500 -0.861700
vn -0.366900 0.871400 0.325600
vn -0.115700 0.978700 0.169800
vn -0.954300 0.205700 0.216700
f 8/1/1 7/1/1 6/1/1
f 5/1/2 1/1/2 2/1/2
f 5/1/2 2/1/2 4/1/2
f 1/1/3 5/1/3 6/1/3
f 1/1/3 6/1/3 3/1/3
f 5/1/4 9/1/4 8/1/4
f 5/1/4 8/1/4 6/1/4
f 44/1/5 16/1/5 11/1/5
f 44/1/5 11/1/5 40/1/5
f 7/1/6 18/1/7 19/1/8
f 8/1/9 18/1/7 7/1/6
f 45/1/10 14/1/10 16/1/10
f 45/1/10 16/1/10 44/1/10
f 8/1/11 9/1/11 14/1/11
f 8/1/11 14/1/11 15/1/11
f 4/1/12 9/1/12 5/1/12
f 8/1/13 15/1/13 13/1/13
f 8/1/13 13/1/13 18/1/13
f 10/1/14 39/1/14 40/1/14
f 10/1/14 40/1/14 11/1/14
f 16/1/15 14/1/15 9/1/15
f 16/1/15 9/1/15 4/1/15
f 11/1/16 16/1/16 4/1/16
f 15/1/17 14/1/17 45/1/17
f 15/1/17 45/1/17 43/1/17
f 12/1/18 13/1/18 42/1/18
f 12/1/18 42/1/18 41/1/18
f 2/1/19 10/1/19 11/1/19
f 2/1/19 11/1/19 4/1/19
f 19/1/20 18/1/20 13/1/20
f 19/1/20 13/1/20 12/1/20
f 13/1/21 15/1/21 43/1/21
f 13/1/21 43/1/21 42/1/21
f 17/1/22 3/1/22 6/1/22
f 17/1/22 6/1/22 7/1/22
f 27/1/23 25/1/23 26/1/23
f 24/1/24 23/1/24 21/1/24
f 24/1/24 21/1/24 20/1/24
f 20/1/25 22/1/25 25/1/25
f 20/1/25 25/1/25 24/1/25
f 24/1/26 25/1/26 27/1/26
f 24/1/26 27/1/26 28/1/26
f 44/1/27 40/1/27 30/1/27
f 44/1/27 30/1/27 35/1/27
f 26/1/28 38/1/29 37/1/28
f 27/1/30 26/1/28 37/1/28
f 45/1/31 44/1/31 35/1/31
f 45/1/31 35/1/31 33/1/31
f 27/1/32 34/1/32 33/1/32
f 27/1/32 33/1/32 28/1/32
f 23/1/33 24/1/33 28/1/33
f 27/1/34 37/1/34 32/1/34
f 27/1/34 32/1/34 34/1/34
f 29/1/35 30/1/35 40/1/35
f 29/1/35 40/1/35 39/1/35
f 35/1/36 23/1/36 28/1/36
f 35/1/36 28/1/36 33/1/36
f 30/1/37 23/1/37 35/1/37
f 34/1/38 43/1/38 45/1/38
f 34/1/38 45/1/38 33/1/38
f 31/1/39 41/1/39 42/1/39
f 31/1/39 42/1/39 32/1/39
f 21/1/40 23/1/40 30/1/40
f 21/1/40 30/1/40 29/1/40
f 38/1/41 31/1/41 32/1/41
f 38/1/41 32/1/41 37/1/41
f 32/1/42 42/1/42 43/1/42
f 32/1/42 43/1/42 34/1/42
f 36/1/43 26/1/43 25/1/43
f 36/1/43 25/1/43 22/1/43
