# material split: forklight_yellow
v -0.486942 -0.333214 -1.261451
v -0.486942 -0.184821 -1.231934
v -0.486942 -0.059020 -1.147876
v -0.486942 0.025038 -1.022074
v -0.486942 0.054555 -0.873681
v -0.486942 0.025038 -0.725289
v -0.486942 -0.059020 -0.599487
v -0.486942 -0.184821 -0.515429
v 0.670660 -0.302598 -1.304347
v 0.915371 -0.450991 -1.271931
v 0.915371 -0.154205 -0.485073
v 0.915371 -0.028404 -0.577384
v 0.915371 0.055654 -0.715538
v 0.915371 0.085172 -0.878502
v 0.915371 0.055654 -1.041465
v -0.486942 -0.481607 -1.231934
v -0.892913 -0.333214 -1.261451
v -0.892913 -0.184821 -1.231934
v -0.892913 -0.059020 -1.147876
v -0.892913 0.025038 -1.022074
v -0.892913 0.054555 -0.873681
v -0.892913 0.025038 -0.725289
v -0.892913 -0.059020 -0.599487
v -0.892913 -0.184821 -0.515429
v 0.915371 -0.028404 -1.179620
v 0.915371 -0.154205 -1.271931
v 0.915371 -0.302598 -1.304347
v -0.892913 -0.450991 -1.271931
v -0.892913 -0.154205 -0.485073
v -0.892913 -0.028404 -0.577384
v -0.892913 0.055654 -0.715538
v -0.892913 -0.481607 -1.231934
v 0.915371 -0.333214 -1.261451
v 0.915371 -0.184821 -1.231934
v 0.915371 -0.059020 -1.147876
v 0.915371 0.025038 -1.022074
v 0.915371 0.054555 -0.873681
v 0.915371 0.025038 -0.725289
v 0.915371 -0.059020 -0.599487
v 0.915371 -0.184821 -0.515429
v -0.892913 0.085172 -0.878502
v -0.892913 0.055654 -1.041465
v -0.892913 -0.028404 -1.179620
v -0.892913 -0.154205 -1.271931
v -0.892913 -0.302598 -1.304347
v -0.654927 -0.450991 -1.271931
v -0.486942 -0.154205 -0.485073
v 0.915371 -0.481607 -1.231934
v 0.502675 -0.333214 -1.261451
v 0.502675 -0.184821 -1.231934
v 0.502675 -0.059020 -1.147876
v 0.502675 0.025038 -1.022074
v 0.502675 0.054555 -0.873681
v 0.502675 0.025038 -0.725289
v 0.502675 -0.059020 -0.599487
v 0.502675 -0.184821 -0.515429
v -0.486942 -0.028404 -0.577384
v -0.486942 0.055654 -0.715538
v -0.486942 0.085172 -0.878502
v -0.486942 0.055654 -1.041465
v -0.654927 -0.154205 -1.271931
v -0.654927 -0.302598 -1.304347
v 0.502675 -0.481607 -1.231934
v 0.670660 -0.154205 -1.271931
v 0.502675 0.055654 -1.041465
v 0.502675 0.085172 -0.878502
v 0.502675 0.055654 -0.715538
v 0.502675 -0.028404 -0.577384
v 0.502675 -0.154205 -0.485073
v 0.670660 -0.450991 -1.271931
v -0.390711 -0.300273 -1.142612
v -0.390711 -0.151880 -1.135038
v -0.390711 -0.059020 -1.147876
v -0.390711 0.025038 -1.022074
v -0.390711 0.054555 -0.873681
v -0.390711 -0.481607 -1.231934
v -0.390711 -0.450991 -1.271931
v 0.406443 -0.300273 -1.142612
v 0.406443 -0.151880 -1.135038
v 0.406443 -0.059020 -1.147876
v 0.406443 0.025038 -1.022074
v 0.406443 0.054555 -0.873681
v -0.390711 0.085172 -0.878502
v -0.390711 0.055654 -1.041465
v 0.406443 -0.481607 -1.231934
v 0.406443 0.055654 -1.041465
v 0.406443 0.085172 -0.878502
v 0.406443 -0.450991 -1.271931
v 0.670660 -0.223106 -2.352938
v -0.654927 -0.452031 -2.332757
v -0.654927 0.199893 -2.554462
v -0.654927 -0.075228 -2.542754
v -0.654927 -0.223106 -2.352938
v 0.670660 -0.075228 -2.542754
v 0.670660 0.199893 -2.554462
v 0.670660 -0.452031 -2.332757
v 0.279475 -0.223106 -2.352938
v -0.263743 -0.452031 -2.332757
v -0.654927 -0.114807 -1.587745
v -0.263743 -0.075228 -2.542754
v -0.263743 -0.223106 -2.352938
v 0.279475 -0.075228 -2.542754
v -0.654927 0.027803 -1.518107
v 0.279475 -0.452031 -2.332757
v 0.279475 -0.223106 -3.009865
v -0.263743 -0.452031 -3.004579
v -0.263743 0.199893 -3.062655
v -0.263743 -0.075228 -3.050784
v -0.263743 -0.223106 -3.009865
v 0.279475 -0.075228 -3.050784
v 0.279475 0.199893 -3.062655
v 0.279475 -0.452031 -3.004579
v -0.263743 0.445864 -3.014344
v 0.279475 0.445864 -3.014344
v 0.670660 -0.114807 -1.587745
v 0.670660 0.027803 -1.518107
v -0.359451 -0.451247 -1.533107
v 0.670660 -0.451247 -1.533107
v 0.375184 -0.451247 -1.533107
v -0.654927 -0.283027 -1.562510
v 0.670660 -0.283027 -1.562510
v -0.654927 -0.451247 -1.533107
v -0.359451 0.355240 -1.895520
v 0.375184 0.355240 -1.895520
v -0.359451 0.039012 -1.753068
v 0.375184 0.039012 -1.753068
v 0.655722 -0.020929 -1.167334
v 0.702156 -0.028404 -1.179620
v 0.670660 -0.045710 -1.192319
v 0.639163 -0.075228 -3.050784
v 0.670660 -0.075228 -3.035114
v 0.661435 -0.075228 -3.046194
v 0.670660 0.199893 -3.046985
v 0.639163 0.199893 -3.062655
v 0.661435 0.199893 -3.058065
v 0.639270 0.384488 -3.014344
v 0.670660 0.381149 -2.998131
v 0.661466 0.381292 -3.009594
v -0.654927 0.009644 -1.201420
v -0.654927 -0.049354 -1.194993
v -0.693055 -0.028404 -1.179620
v -0.636844 -0.019355 -1.164748
v -0.654927 0.199893 -3.043686
v -0.616799 0.199893 -3.062655
v -0.643760 0.199893 -3.057099
v -0.654927 -0.075228 -3.031815
v -0.616799 -0.075228 -3.050784
v -0.643760 -0.075228 -3.045228
v -0.654927 0.381573 -2.994717
v -0.616929 0.385615 -3.014344
v -0.643798 0.381746 -3.008595
v -0.486942 -0.184821 -1.231934
v -0.486942 -0.333214 -1.261451
v -0.486942 -0.333214 -1.261451
v -0.486942 -0.059020 -1.147876
v -0.486942 0.025038 -1.022074
v -0.486942 0.054555 -0.873681
v -0.486942 0.054555 -0.873681
v -0.486942 0.054555 -0.873681
v -0.486942 0.054555 -0.873681
v -0.486942 0.025038 -0.725289
v -0.486942 -0.059020 -0.599487
v -0.486942 -0.184821 -0.515429
v -0.486942 -0.184821 -0.515429
v 0.502675 -0.154205 -0.485073
v 0.502675 -0.154205 -0.485073
v 0.915371 -0.154205 -0.485073
v 0.915371 -0.154205 -0.485073
v 0.670660 -0.302598 -1.304347
v 0.670660 -0.302598 -1.304347
v 0.915371 -0.302598 -1.304347
v 0.915371 -0.302598 -1.304347
v 0.670660 -0.450991 -1.271931
v 0.502675 -0.028404 -0.577384
v 0.502675 0.055654 -0.715538
v -0.486942 -0.481607 -1.231934
v -0.486942 -0.481607 -1.231934
v -0.892913 -0.184821 -1.231934
v -0.892913 -0.333214 -1.261451
v -0.892913 -0.333214 -1.261451
v -0.892913 -0.059020 -1.147876
v -0.892913 0.025038 -1.022074
v -0.892913 0.054555 -0.873681
v -0.892913 0.025038 -0.725289
v -0.892913 -0.059020 -0.599487
v -0.892913 -0.184821 -0.515429
v -0.892913 -0.184821 -0.515429
v 0.502675 0.085172 -0.878502
v 0.502675 0.085172 -0.878502
v 0.670660 -0.154205 -1.271931
v 0.915371 -0.450991 -1.271931
v 0.915371 -0.028404 -0.577384
v 0.915371 0.055654 -0.715538
v -0.892913 -0.481607 -1.231934
v -0.892913 -0.481607 -1.231934
v 0.915371 0.085172 -0.878502
v 0.915371 0.055654 -1.041465
v 0.915371 -0.028404 -1.179620
v 0.915371 -0.154205 -1.271931
v 0.915371 -0.184821 -1.231934
v 0.915371 -0.333214 -1.261451
v 0.915371 -0.333214 -1.261451
v 0.915371 -0.059020 -1.147876
v 0.915371 0.025038 -1.022074
v 0.915371 0.054555 -0.873681
v 0.915371 0.025038 -0.725289
v 0.915371 -0.059020 -0.599487
v 0.915371 -0.184821 -0.515429
v 0.915371 -0.184821 -0.515429
v -0.892913 -0.154205 -0.485073
v -0.892913 -0.154205 -0.485073
v -0.486942 -0.154205 -0.485073
v -0.486942 -0.154205 -0.485073
v -0.892913 -0.302598 -1.304347
v -0.892913 -0.302598 -1.304347
v -0.654927 -0.302598 -1.304347
v -0.654927 -0.302598 -1.304347
v -0.892913 -0.450991 -1.271931
v 0.915371 -0.481607 -1.231934
v 0.915371 -0.481607 -1.231934
v 0.502675 -0.184821 -1.231934
v 0.502675 -0.333214 -1.261451
v 0.502675 -0.333214 -1.261451
v 0.502675 -0.059020 -1.147876
v 0.502675 0.025038 -1.022074
v 0.502675 0.054555 -0.873681
v 0.502675 0.054555 -0.873681
v 0.502675 0.054555 -0.873681
v 0.502675 0.054555 -0.873681
v 0.502675 0.025038 -0.725289
v 0.502675 -0.059020 -0.599487
v 0.502675 -0.184821 -0.515429
v 0.502675 -0.184821 -0.515429
v -0.892913 -0.028404 -0.577384
v -0.892913 0.055654 -0.715538
v -0.892913 0.085172 -0.878502
v -0.892913 0.055654 -1.041465
v -0.892913 -0.028404 -1.179620
v -0.892913 -0.154205 -1.271931
v -0.654927 -0.450991 -1.271931
v 0.502675 -0.481607 -1.231934
v 0.502675 -0.481607 -1.231934
v -0.486942 -0.028404 -0.577384
v -0.486942 0.055654 -0.715538
v -0.486942 0.085172 -0.878502
v -0.486942 0.085172 -0.878502
v -0.654927 -0.154205 -1.271931
v -0.390711 0.085172 -0.878502
v -0.390711 0.085172 -0.878502
v -0.390711 -0.151880 -1.135038
v -0.390711 -0.300273 -1.142612
v -0.390711 -0.300273 -1.142612
v -0.390711 -0.059020 -1.147876
v -0.390711 -0.481607 -1.231934
v -0.390711 -0.481607 -1.231934
v 0.406443 0.085172 -0.878502
v 0.406443 0.085172 -0.878502
v 0.406443 0.055654 -1.041465
v 0.406443 -0.028404 -1.179620
v 0.406443 -0.028404 -1.179620
v 0.406443 -0.028404 -1.179620
v 0.406443 -0.481607 -1.231934
v 0.406443 -0.481607 -1.231934
v 0.406443 -0.151880 -1.135038
v 0.406443 -0.300273 -1.142612
v 0.406443 -0.300273 -1.142612
v 0.406443 -0.059020 -1.147876
v -0.390711 0.055654 -1.041465
v -0.390711 -0.028404 -1.179620
v -0.390711 -0.028404 -1.179620
v -0.390711 -0.028404 -1.179620
v 0.279475 -0.075228 -2.542754
v 0.279475 -0.075228 -3.050784
v 0.279475 -0.075228 -3.050784
v -0.390711 0.054555 -0.873681
v -0.390711 0.054555 -0.873681
v 0.406443 0.054555 -0.873681
v 0.406443 0.054555 -0.873681
v 0.670660 -0.223106 -2.352938
v 0.670660 -0.223106 -2.352938
v 0.670660 -0.452031 -2.332757
v 0.670660 -0.452031 -2.332757
v 0.670660 -0.075228 -2.542754
v -0.654927 -0.223106 -2.352938
v -0.654927 -0.223106 -2.352938
v -0.654927 -0.452031 -2.332757
v -0.654927 -0.452031 -2.332757
v -0.654927 -0.075228 -2.542754
v -0.263743 -0.223106 -2.352938
v -0.263743 -0.223106 -2.352938
v -0.263743 -0.452031 -2.332757
v -0.263743 -0.452031 -2.332757
v 0.279475 -0.452031 -2.332757
v 0.279475 -0.452031 -2.332757
v 0.279475 -0.223106 -2.352938
v 0.279475 -0.223106 -2.352938
v -0.263743 -0.075228 -3.050784
v -0.263743 -0.075228 -3.050784
v -0.263743 -0.075228 -2.542754
v 0.670660 -0.451247 -1.533107
v -0.654927 -0.451247 -1.533107
v 0.279475 -0.452031 -3.004579
v 0.279475 -0.452031 -3.004579
v -0.263743 -0.452031 -3.004579
v -0.263743 -0.452031 -3.004579
v 0.279475 -0.223106 -3.009865
v -0.263743 -0.223106 -3.009865
v -0.390711 0.200371 -1.287031
v -0.390711 0.200371 -1.287031
v -0.390711 0.200371 -1.287031
v -0.654927 0.180122 -1.299101
v -0.654927 0.180122 -1.299101
v -0.654927 0.334991 -1.895520
v -0.654927 0.334991 -1.895520
v -0.654927 0.409204 -2.772427
v 0.670660 0.180122 -1.299101
v 0.670660 0.180122 -1.299101
v 0.406443 0.200371 -1.287031
v 0.406443 0.200371 -1.287031
v 0.406443 0.200371 -1.287031
v 0.670660 0.334991 -1.895520
v 0.670660 0.334991 -1.895520
v -0.359451 0.355240 -1.895520
v 0.375184 0.355240 -1.895520
v 0.670660 0.409204 -2.772427
v -0.236340 -0.151880 -1.115698
v -0.236340 -0.300273 -1.123273
v -0.236340 -0.300273 -1.123273
v -0.236340 -0.059020 -1.128536
v 0.252072 -0.151880 -1.115698
v 0.252072 -0.300273 -1.123273
v 0.252072 -0.300273 -1.123273
v 0.252072 -0.059020 -1.128536
v -0.236340 -0.028404 -1.160280
v 0.252072 -0.028404 -1.160280
v 0.406443 0.058241 -1.494831
v -0.390711 0.058241 -1.494831
v 0.670660 -0.026029 -1.193920
v 0.670660 0.003028 -1.197629
v 0.641316 -0.028404 -1.179620
v 0.670660 -0.045710 -1.192319
v 0.670660 -0.075228 -3.035114
v 0.661435 -0.075228 -3.046194
v 0.639163 -0.075228 -3.050784
v -0.619406 -0.028404 -1.179620
v -0.654927 -0.025529 -1.196931
v -0.654927 -0.049354 -1.194993
v -0.616799 -0.075228 -3.050784
v -0.643760 -0.075228 -3.045228
v -0.654927 -0.075228 -3.031815
vt 0.000000 0.000000
vn -1.000000 -0.000000 -0.000000
vn 1.000000 -0.000000 -0.000000
vn -0.000000 -0.555600 -0.831500
vn -0.000000 -0.195100 0.980800
vn -0.000000 0.195100 0.980800
vn -0.000000 -0.555600 0.831500
vn -0.000000 1.000000 -0.000000
vn -0.000000 -1.000000 -0.000000
vn -0.000000 -0.918600 0.395100
vn -0.000000 -0.345000 0.938600
vn -0.000000 -0.686400 0.727200
vn -0.000000 -0.686400 -0.727200
vn -0.000000 -0.918600 -0.395100
vn -0.000000 -0.436200 -0.899800
vn -0.000000 -0.674800 -0.738000
vn -0.000000 -0.213400 -0.977000
vn -0.000000 0.998200 -0.060300
vn -0.000000 0.931000 0.365100
vn -0.000000 0.718600 0.695500
vn -0.000000 0.591600 0.806200
vn -0.000000 0.931000 -0.365100
vn 0.095100 0.875700 -0.473500
vn 0.172200 0.885600 -0.431400
vn -0.000000 0.854300 -0.519800
vn -0.000000 0.213400 -0.977000
vn -0.000000 0.369500 -0.929200
vn -0.172200 0.885600 -0.431400
vn -0.095100 0.875700 -0.473500
vn -0.000000 0.155500 0.987800
vn -0.000000 -1.000000 0.001000
vn -0.000000 -1.000000 0.000700
vn -0.000000 0.984000 -0.178200
vn -0.000000 -0.704100 0.710100
vn -0.000000 -0.998100 -0.061200
vn -0.000000 -0.794100 -0.607800
vn -0.000000 -0.936500 -0.350600
vn 0.559400 0.572000 -0.599900
vn -0.000000 0.718600 -0.695500
vn -0.075300 0.772000 -0.631100
vn -0.127000 0.713500 -0.689100
vn 0.953100 0.024400 0.301700
vn 0.004400 0.075300 -0.997100
vn -0.004400 0.075200 -0.997200
vn -0.000700 0.516400 -0.856400
vn 0.000700 0.516000 -0.856600
vn -0.083600 0.592900 0.800900
vn 0.083600 0.592900 0.800900
vn -0.032300 0.965600 0.257900
vn 0.032300 0.965600 0.257900
vn 0.114600 0.387900 0.914500
vn 0.117600 0.324900 0.938400
vn -0.000000 -0.788900 -0.614600
vn -0.000000 -0.934400 -0.356200
vn 0.936600 -0.015100 -0.350000
vn 0.897400 0.056000 -0.437700
vn -0.895900 0.319200 -0.309000
vn -0.761700 0.534500 -0.366200
vn -0.000000 -0.087800 -0.996100
vn -0.114600 0.387900 0.914500
vn -0.117600 0.324900 0.938400
vn -0.000000 -0.441900 0.897100
vn -0.000000 -0.514100 0.857700
vn -0.000000 -0.135500 -0.990800
vn -0.000000 -0.023100 -0.999700
vn -0.000000 -0.110200 -0.993900
vn -0.897400 0.055900 -0.437700
vn 0.896100 0.318400 -0.309200
vn 0.137200 0.310500 -0.940600
vn 0.101400 0.083200 -0.991400
vn -0.099200 -0.042900 -0.994100
vn -0.101400 0.082900 -0.991400
vn 0.099200 -0.042900 -0.994100
vn -0.137200 0.311600 -0.940300
vn 0.022100 0.562100 0.826800
vn 0.031800 0.628200 0.777400
vn -0.022100 0.562100 0.826800
vn -0.053100 0.719800 0.692200
vn -0.109400 0.700300 0.705400
vn 0.109400 0.700300 0.705400
vn -0.936600 -0.015100 -0.350000
vn 0.075200 0.966200 0.246400
vn -0.075200 0.966200 0.246400
vn 0.127000 0.713500 -0.689100
vn 0.075300 0.772000 -0.631100
vn -0.953100 0.024400 0.301700
vn 0.124200 0.042500 0.991300
vn 0.124200 0.039200 0.991500
vn 0.124200 -0.050600 0.991000
vn -0.124200 0.042500 0.991300
vn -0.124200 0.039200 0.991500
vn -0.124200 -0.050600 0.991000
vn -0.997500 -0.010000 0.070400
vn 0.997500 -0.010000 0.070400
vn 0.486300 0.323800 -0.811600
vn 0.407100 0.090700 -0.908900
vn 0.450400 -0.038500 -0.892000
vn -0.450400 -0.038500 -0.892000
vn -0.407100 0.090400 -0.908900
vn -0.486200 0.324400 -0.811400
f 153/1/4 152/1/10 178/1/10
f 153/1/4 178/1/10 179/1/4
f 338/1/2 129/1/2 64/1/2
f 338/1/2 64/1/2 115/1/2
f 338/1/2 115/1/2 116/1/2
f 191/1/14 173/1/15 169/1/16
f 191/1/14 169/1/16 171/1/16
f 196/1/7 188/1/17 175/1/18
f 196/1/7 175/1/18 193/1/18
f 161/1/13 162/1/12 185/1/12
f 161/1/13 185/1/12 184/1/13
f 156/1/9 157/1/8 183/1/8
f 156/1/9 183/1/8 182/1/9
f 192/1/19 174/1/19 165/1/20
f 192/1/19 165/1/20 167/1/20
f 152/1/10 155/1/11 181/1/11
f 152/1/10 181/1/11 178/1/10
f 65/1/21 127/1/22 340/1/23
f 65/1/21 340/1/23 259/1/24
f 65/1/21 259/1/24 258/1/21
f 197/1/21 65/1/21 188/1/17
f 197/1/21 188/1/17 196/1/7
f 193/1/18 175/1/18 174/1/19
f 193/1/18 174/1/19 192/1/19
f 162/1/12 163/1/3 186/1/3
f 162/1/12 186/1/3 185/1/12
f 157/1/8 161/1/13 184/1/13
f 157/1/8 184/1/13 183/1/8
f 176/1/5 154/1/5 180/1/5
f 176/1/5 180/1/5 194/1/5
f 155/1/11 156/1/9 182/1/9
f 155/1/11 182/1/9 181/1/11
f 172/1/25 170/1/25 190/1/26
f 172/1/25 190/1/26 199/1/26
f 201/1/4 200/1/10 221/1/10
f 201/1/4 221/1/10 222/1/4
f 345/1/27 142/1/28 60/1/21
f 345/1/27 60/1/21 268/1/21
f 345/1/27 268/1/21 269/1/24
f 240/1/15 218/1/14 214/1/16
f 240/1/15 214/1/16 216/1/16
f 245/1/17 236/1/7 235/1/18
f 245/1/17 235/1/18 244/1/18
f 206/1/13 207/1/12 231/1/12
f 206/1/13 231/1/12 230/1/13
f 204/1/9 205/1/8 226/1/8
f 204/1/9 226/1/8 225/1/9
f 243/1/19 234/1/19 210/1/20
f 243/1/19 210/1/20 212/1/20
f 200/1/10 203/1/11 224/1/11
f 200/1/10 224/1/11 221/1/10
f 60/1/21 237/1/21 236/1/7
f 60/1/21 236/1/7 245/1/17
f 244/1/18 235/1/18 234/1/19
f 244/1/18 234/1/19 243/1/19
f 207/1/12 208/1/3 232/1/3
f 207/1/12 232/1/3 231/1/12
f 205/1/8 206/1/13 230/1/13
f 205/1/8 230/1/13 226/1/8
f 219/1/5 202/1/5 223/1/5
f 219/1/5 223/1/5 241/1/5
f 203/1/11 204/1/9 225/1/9
f 203/1/11 225/1/9 224/1/11
f 217/1/25 215/1/25 239/1/26
f 217/1/25 239/1/26 247/1/26
f 246/1/29 158/1/29 276/1/29
f 246/1/29 276/1/29 248/1/29
f 21/1/1 22/1/1 31/1/1
f 21/1/1 31/1/1 41/1/1
f 209/1/2 39/1/2 12/1/2
f 209/1/2 12/1/2 168/1/2
f 118/1/30 119/1/30 293/1/31
f 118/1/30 293/1/31 282/1/30
f 37/1/2 36/1/2 15/1/2
f 37/1/2 15/1/2 14/1/2
f 227/1/29 189/1/29 257/1/29
f 227/1/29 257/1/29 278/1/29
f 229/1/1 54/1/1 67/1/1
f 229/1/1 67/1/1 66/1/1
f 18/1/1 19/1/1 238/1/1
f 18/1/1 238/1/1 44/1/1
f 195/1/1 17/1/1 45/1/1
f 195/1/1 45/1/1 28/1/1
f 34/1/2 33/1/2 27/1/2
f 34/1/2 27/1/2 26/1/2
f 188/1/17 65/1/21 258/1/21
f 188/1/17 258/1/21 256/1/32
f 187/1/33 164/1/33 213/1/33
f 187/1/33 213/1/33 211/1/33
f 6/1/2 5/1/2 59/1/2
f 6/1/2 59/1/2 58/1/2
f 22/1/1 23/1/1 30/1/1
f 22/1/1 30/1/1 31/1/1
f 159/1/6 177/1/34 76/1/34
f 159/1/6 76/1/34 75/1/6
f 177/1/34 32/1/35 218/1/14
f 177/1/34 218/1/14 240/1/15
f 233/1/33 40/1/33 11/1/33
f 233/1/33 11/1/33 166/1/33
f 19/1/1 20/1/1 42/1/1
f 19/1/1 42/1/1 238/1/1
f 38/1/2 37/1/2 14/1/2
f 38/1/2 14/1/2 13/1/2
f 173/1/15 242/1/34 262/1/34
f 173/1/15 262/1/34 88/1/36
f 54/1/1 55/1/1 68/1/1
f 54/1/1 68/1/1 67/1/1
f 220/1/35 242/1/34 173/1/15
f 220/1/35 173/1/15 191/1/14
f 35/1/2 34/1/2 26/1/2
f 35/1/2 26/1/2 198/1/2
f 116/1/2 95/1/2 325/1/37
f 116/1/2 325/1/37 322/1/2
f 7/1/2 6/1/2 58/1/2
f 7/1/2 58/1/2 57/1/2
f 23/1/1 24/1/1 29/1/1
f 23/1/1 29/1/1 30/1/1
f 33/1/2 48/1/2 10/1/2
f 33/1/2 10/1/2 27/1/2
f 39/1/2 38/1/2 13/1/2
f 39/1/2 13/1/2 12/1/2
f 242/1/34 228/1/6 82/1/6
f 242/1/34 82/1/6 262/1/34
f 55/1/1 56/1/1 69/1/1
f 55/1/1 69/1/1 68/1/1
f 20/1/1 21/1/1 41/1/1
f 20/1/1 41/1/1 42/1/1
f 17/1/1 18/1/1 44/1/1
f 17/1/1 44/1/1 45/1/1
f 36/1/2 35/1/2 198/1/2
f 36/1/2 198/1/2 15/1/2
f 60/1/21 245/1/17 249/1/32
f 60/1/21 249/1/32 268/1/21
f 8/1/2 7/1/2 57/1/2
f 8/1/2 57/1/2 47/1/2
f 247/1/26 239/1/26 43/1/38
f 247/1/26 43/1/38 141/1/39
f 247/1/26 141/1/39 140/1/40
f 99/1/1 103/1/1 91/1/1
f 99/1/1 91/1/1 288/1/1
f 272/1/2 296/1/2 105/1/2
f 272/1/2 105/1/2 273/1/2
f 275/1/2 74/1/2 84/1/2
f 275/1/2 84/1/2 83/1/2
f 98/1/1 290/1/1 109/1/1
f 98/1/1 109/1/1 305/1/1
f 290/1/1 299/1/1 297/1/1
f 290/1/1 297/1/1 109/1/1
f 111/1/42 107/1/43 113/1/44
f 111/1/42 113/1/44 114/1/45
f 260/1/46 270/1/47 334/1/48
f 260/1/46 334/1/48 335/1/49
f 267/1/1 81/1/1 86/1/1
f 267/1/1 86/1/1 261/1/1
f 80/1/50 260/1/46 335/1/49
f 80/1/50 335/1/49 333/1/51
f 74/1/2 253/1/2 271/1/2
f 74/1/2 271/1/2 84/1/2
f 81/1/1 277/1/1 87/1/1
f 81/1/1 87/1/1 86/1/1
f 254/1/2 251/1/2 74/1/2
f 254/1/2 74/1/2 275/1/2
f 250/1/2 253/1/2 74/1/2
f 250/1/2 74/1/2 251/1/2
f 266/1/1 85/1/1 277/1/1
f 266/1/1 277/1/1 81/1/1
f 267/1/1 264/1/1 266/1/1
f 267/1/1 266/1/1 81/1/1
f 116/1/2 115/1/2 283/1/2
f 116/1/2 283/1/2 95/1/2
f 177/1/34 240/1/15 77/1/36
f 177/1/34 77/1/36 76/1/34
f 285/1/52 92/1/53 100/1/53
f 285/1/52 100/1/53 289/1/52
f 95/1/2 283/1/2 342/1/54
f 95/1/2 342/1/54 133/1/55
f 286/1/58 284/1/58 101/1/58
f 286/1/58 101/1/58 292/1/58
f 279/1/58 281/1/58 294/1/58
f 279/1/58 294/1/58 295/1/58
f 94/1/53 280/1/52 97/1/52
f 94/1/53 97/1/52 102/1/53
f 120/1/1 99/1/1 288/1/1
f 120/1/1 288/1/1 93/1/1
f 115/1/2 121/1/2 89/1/2
f 115/1/2 89/1/2 283/1/2
f 100/1/53 92/1/53 350/1/8
f 100/1/53 350/1/8 349/1/8
f 100/1/53 349/1/8 147/1/8
f 100/1/53 147/1/8 108/1/8
f 270/1/47 73/1/59 329/1/60
f 270/1/47 329/1/60 334/1/48
f 255/1/61 263/1/61 265/1/62
f 255/1/61 265/1/62 252/1/62
f 121/1/2 300/1/2 96/1/2
f 121/1/2 96/1/2 89/1/2
f 122/1/1 120/1/1 93/1/1
f 122/1/1 93/1/1 287/1/1
f 77/1/36 88/1/36 262/1/34
f 77/1/36 262/1/34 76/1/34
f 117/1/30 301/1/30 90/1/30
f 117/1/30 90/1/30 291/1/31
f 117/1/30 119/1/30 88/1/36
f 117/1/30 88/1/36 77/1/36
f 307/1/63 306/1/63 302/1/64
f 307/1/63 302/1/64 304/1/64
f 298/1/65 274/1/65 306/1/63
f 298/1/65 306/1/63 307/1/63
f 107/1/43 111/1/42 274/1/65
f 107/1/43 274/1/65 298/1/65
f 143/1/66 91/1/1 315/1/57
f 143/1/66 315/1/57 149/1/56
f 95/1/2 133/1/55 137/1/67
f 95/1/2 137/1/67 325/1/37
f 296/1/2 104/1/2 303/1/2
f 296/1/2 303/1/2 105/1/2
f 134/1/69 111/1/42 114/1/45
f 134/1/69 114/1/45 136/1/68
f 348/1/70 144/1/71 107/1/43
f 348/1/70 107/1/43 298/1/65
f 134/1/69 130/1/72 274/1/65
f 134/1/69 274/1/65 111/1/42
f 107/1/43 144/1/71 150/1/73
f 107/1/43 150/1/73 113/1/44
f 293/1/31 291/1/31 106/1/8
f 293/1/31 106/1/8 112/1/8
f 270/1/47 260/1/46 319/1/78
f 270/1/47 319/1/78 309/1/79
f 61/1/1 347/1/1 346/1/1
f 61/1/1 346/1/1 103/1/1
f 61/1/1 103/1/1 99/1/1
f 288/1/1 91/1/1 143/1/66
f 288/1/1 143/1/66 146/1/80
f 91/1/1 103/1/1 313/1/1
f 91/1/1 313/1/1 315/1/57
f 318/1/81 316/1/81 321/1/75
f 318/1/81 321/1/75 324/1/74
f 311/1/82 308/1/82 323/1/76
f 311/1/82 323/1/76 314/1/77
f 291/1/31 293/1/31 119/1/30
f 291/1/31 119/1/30 117/1/30
f 77/1/36 240/1/15 301/1/30
f 77/1/36 301/1/30 117/1/30
f 46/1/1 62/1/1 120/1/1
f 46/1/1 120/1/1 122/1/1
f 9/1/2 70/1/2 300/1/2
f 9/1/2 300/1/2 121/1/2
f 64/1/2 9/1/2 121/1/2
f 64/1/2 121/1/2 115/1/2
f 62/1/1 61/1/1 99/1/1
f 62/1/1 99/1/1 120/1/1
f 199/1/26 190/1/26 341/1/83
f 199/1/26 341/1/83 128/1/84
f 199/1/26 128/1/84 25/1/38
f 173/1/15 88/1/36 119/1/30
f 173/1/15 119/1/30 118/1/30
f 79/1/86 80/1/50 333/1/51
f 79/1/86 333/1/51 330/1/87
f 78/1/88 79/1/86 330/1/87
f 78/1/88 330/1/87 332/1/88
f 252/1/62 265/1/62 331/1/8
f 252/1/62 331/1/8 328/1/8
f 73/1/59 72/1/89 326/1/90
f 73/1/59 326/1/90 329/1/60
f 72/1/89 71/1/91 327/1/91
f 72/1/89 327/1/91 326/1/90
f 339/1/41 338/1/2 116/1/2
f 339/1/41 116/1/2 322/1/2
f 339/1/41 322/1/2 317/1/2
f 94/1/53 102/1/53 110/1/8
f 94/1/53 110/1/8 344/1/8
f 94/1/53 344/1/8 343/1/8
f 94/1/53 343/1/8 131/1/8
f 103/1/1 346/1/1 139/1/85
f 103/1/1 139/1/85 312/1/1
f 103/1/1 312/1/1 313/1/1
f 320/1/92 124/1/92 126/1/92
f 320/1/92 126/1/92 336/1/92
f 123/1/93 310/1/93 337/1/93
f 123/1/93 337/1/93 125/1/93
f 53/1/2 63/1/2 49/1/2
f 53/1/2 49/1/2 52/1/2
f 50/1/2 51/1/2 52/1/2
f 50/1/2 52/1/2 49/1/2
f 160/1/1 4/1/1 1/1/1
f 160/1/1 1/1/1 16/1/1
f 2/1/1 1/1/1 4/1/1
f 2/1/1 4/1/1 3/1/1
f 134/1/69 136/1/68 138/1/94
f 134/1/69 138/1/94 135/1/95
f 135/1/95 138/1/94 137/1/67
f 135/1/95 137/1/67 133/1/55
f 133/1/55 342/1/54 132/1/96
f 133/1/55 132/1/96 135/1/95
f 135/1/95 132/1/96 130/1/72
f 135/1/95 130/1/72 134/1/69
f 25/1/38 128/1/84 127/1/22
f 25/1/38 127/1/22 65/1/21
f 25/1/38 65/1/21 197/1/21
f 144/1/71 348/1/70 148/1/97
f 144/1/71 148/1/97 145/1/98
f 145/1/98 148/1/97 146/1/80
f 145/1/98 146/1/80 143/1/66
f 150/1/73 144/1/71 145/1/98
f 150/1/73 145/1/98 151/1/99
f 151/1/99 145/1/98 143/1/66
f 151/1/99 143/1/66 149/1/56
f 142/1/28 141/1/39 43/1/38
f 142/1/28 43/1/38 237/1/21
f 142/1/28 237/1/21 60/1/21
