# Blender 4.5.3 LTS
# www.blender.org
mtllib storage_rack_empty.mtl
o Cube.137
v -4.750053 -1.010704 -0.195926
v -4.659676 -1.010704 -0.195926
v -4.659676 -1.010704 -0.105549
v -4.750053 -1.010704 -0.105549
v -4.750053 3.313702 -0.195926
v -4.659676 3.313702 -0.195926
v -4.659676 3.313702 -0.105549
v -4.750053 3.313702 -0.105549
v -1.383679 -1.010704 -0.195926
v -1.293301 -1.010704 -0.195926
v -1.293301 -1.010704 -0.105549
v -1.383679 -1.010704 -0.105549
v -1.383679 3.313702 -0.195926
v -1.293301 3.313702 -0.195926
v -1.293301 3.313702 -0.105549
v -1.383679 3.313702 -0.105549
v -4.750053 -1.010704 -1.663971
v -4.659676 -1.010704 -1.663971
v -4.659676 -1.010704 -1.573593
v -4.750053 -1.010704 -1.573593
v -4.750053 3.313702 -1.663971
v -4.659676 3.313702 -1.663971
v -4.659676 3.313702 -1.573593
v -4.750053 3.313702 -1.573593
v -1.383679 -1.010704 -1.663971
v -1.293301 -1.010704 -1.663971
v -1.293301 -1.010704 -1.573593
v -1.383679 -1.010704 -1.573593
v -1.383679 3.313702 -1.663971
v -1.293301 3.313702 -1.663971
v -1.293301 3.313702 -1.573593
v -1.383679 3.313702 -1.573593
v -4.657469 1.018465 -0.167756
v -1.386783 1.018465 -0.167756
v -1.386783 1.018465 -0.118889
v -4.657469 1.018465 -0.118889
v -4.657469 1.172476 -0.167756
v -1.386783 1.172476 -0.167756
v -1.386783 1.172476 -0.118889
v -4.657469 1.172476 -0.118889
v -1.397007 1.037022 -0.118889
v -4.647244 1.037022 -0.118889
v -1.397007 1.081925 -0.118889
v -4.647244 1.081925 -0.118889
v -1.397007 1.037022 -0.142126
v -4.647244 1.037022 -0.142126
v -1.397007 1.081925 -0.142126
v -4.647244 1.081925 -0.142126
v -4.657469 1.018465 -1.640162
v -1.386783 1.018465 -1.640162
v -1.386783 1.018465 -1.591295
v -4.657469 1.018465 -1.591295
v -4.657469 1.172476 -1.640162
v -1.386783 1.172476 -1.640162
v -1.386783 1.172476 -1.591295
v -4.657469 1.172476 -1.591295
v -1.397007 1.037022 -1.591295
v -4.647244 1.037022 -1.591295
v -1.397007 1.081925 -1.591295
v -4.647244 1.081925 -1.591295
v -1.397007 1.037022 -1.614531
v -4.647244 1.037022 -1.614531
v -1.397007 1.081925 -1.614531
v -4.647244 1.081925 -1.614531
v -4.657469 3.143119 -0.167756
v -1.386783 3.143119 -0.167756
v -1.386783 3.143119 -0.118889
v -4.657469 3.143119 -0.118889
v -4.657469 3.297129 -0.167756
v -1.386783 3.297129 -0.167756
v -1.386783 3.297129 -0.118889
v -4.657469 3.297129 -0.118889
v -1.397007 3.161676 -0.118889
v -4.647244 3.161676 -0.118889
v -1.397007 3.206578 -0.118889
v -4.647244 3.206578 -0.118889
v -1.397007 3.161676 -0.142126
v -4.647244 3.161676 -0.142126
v -1.397007 3.206578 -0.142126
v -4.647244 3.206578 -0.142126
v -4.657469 3.143119 -1.640162
v -1.386783 3.143119 -1.640162
v -1.386783 3.143119 -1.591295
v -4.657469 3.143119 -1.591295
v -4.657469 3.297129 -1.640162
v -1.386783 3.297129 -1.640162
v -1.386783 3.297129 -1.591295
v -4.657469 3.297129 -1.591295
v -1.397007 3.161676 -1.591295
v -4.647244 3.161676 -1.591295
v -1.397007 3.206578 -1.591295
v -4.647244 3.206578 -1.591295
v -1.397007 3.161676 -1.614531
v -4.647244 3.161676 -1.614531
v -1.397007 3.206578 -1.614531
v -4.647244 3.206578 -1.614531
v -4.674474 1.018465 -1.570529
v -4.674475 1.018465 -0.193295
v -4.723341 1.018465 -0.193295
v -4.723341 1.018465 -1.570529
v -4.674474 1.172476 -1.570529
v -4.674475 1.172476 -0.193295
v -4.723341 1.172476 -0.193295
v -4.723341 1.172476 -1.570529
v -4.723341 1.037022 -0.198071
v -4.723341 1.037022 -1.565753
v -4.723341 1.081925 -0.198071
v -4.723341 1.081925 -1.565753
v -4.700105 1.037022 -0.198071
v -4.700104 1.037022 -1.565753
v -4.700105 1.081925 -0.198071
v -4.700104 1.081925 -1.565753
v -1.356849 1.018465 -0.193295
v -1.356848 1.018465 -1.570529
v -1.307982 1.018465 -1.570529
v -1.307983 1.018465 -0.193295
v -1.356849 1.172476 -0.193295
v -1.356848 1.172476 -1.570529
v -1.307982 1.172476 -1.570529
v -1.307983 1.172476 -0.193295
v -1.307982 1.037022 -1.565752
v -1.307983 1.037022 -0.198071
v -1.307982 1.081925 -1.565752
v -1.307983 1.081925 -0.198071
v -1.331218 1.037022 -1.565752
v -1.331219 1.037022 -0.198071
v -1.331218 1.081925 -1.565752
v -1.331219 1.081925 -0.198071
v -4.674474 3.142420 -1.570529
v -4.674475 3.142420 -0.193295
v -4.723341 3.142420 -0.193295
v -4.723341 3.142420 -1.570529
v -4.674474 3.296431 -1.570529
v -4.674475 3.296431 -0.193295
v -4.723341 3.296431 -0.193295
v -4.723341 3.296431 -1.570529
v -4.723341 3.160977 -0.198071
v -4.723341 3.160977 -1.565753
v -4.723341 3.205880 -0.198071
v -4.723341 3.205880 -1.565753
v -4.700105 3.160977 -0.198071
v -4.700104 3.160977 -1.565753
v -4.700105 3.205880 -0.198071
v -4.700104 3.205880 -1.565753
v -1.356849 3.142420 -0.193295
v -1.356848 3.142420 -1.570529
v -1.307982 3.142420 -1.570529
v -1.307983 3.142420 -0.193295
v -1.356849 3.296431 -0.193295
v -1.356848 3.296431 -1.570529
v -1.307982 3.296431 -1.570529
v -1.307983 3.296431 -0.193295
v -1.307982 3.160977 -1.565752
v -1.307983 3.160977 -0.198071
v -1.307982 3.205880 -1.565752
v -1.307983 3.205880 -0.198071
v -1.331218 3.160977 -1.565752
v -1.331219 3.160977 -0.198071
v -1.331218 3.205880 -1.565752
v -1.331219 3.205880 -0.198071
vn -0.0000 -0.0000 -1.0000
vn 1.0000 -0.0000 -0.0000
vn -0.0000 -0.0000 1.0000
vn -1.0000 -0.0000 -0.0000
vn -0.0000 -1.0000 -0.0000
vn -0.0000 1.0000 -0.0000
s 0
usemtl wood_pallet
f 5//1 6//1 2//1 1//1
f 6//2 7//2 3//2 2//2
f 7//3 8//3 4//3 3//3
f 8//4 5//4 1//4 4//4
f 1//5 2//5 3//5 4//5
f 8//6 7//6 6//6 5//6
f 13//1 14//1 10//1 9//1
f 14//2 15//2 11//2 10//2
f 15//3 16//3 12//3 11//3
f 16//4 13//4 9//4 12//4
f 9//5 10//5 11//5 12//5
f 16//6 15//6 14//6 13//6
f 21//1 22//1 18//1 17//1
f 22//2 23//2 19//2 18//2
f 23//3 24//3 20//3 19//3
f 24//4 21//4 17//4 20//4
f 17//5 18//5 19//5 20//5
f 24//6 23//6 22//6 21//6
f 29//1 30//1 26//1 25//1
f 30//2 31//2 27//2 26//2
f 31//3 32//3 28//3 27//3
f 32//4 29//4 25//4 28//4
f 25//5 26//5 27//5 28//5
f 32//6 31//6 30//6 29//6
f 37//1 38//1 34//1 33//1
f 38//2 39//2 35//2 34//2
f 36//3 35//3 41//3 42//3
f 40//4 37//4 33//4 36//4
f 33//5 34//5 35//5 36//5
f 40//6 39//6 38//6 37//6
f 42//6 41//6 45//6 46//6
f 40//3 36//3 42//3 44//3
f 39//3 40//3 44//3 43//3
f 35//3 39//3 43//3 41//3
f 47//3 48//3 46//3 45//3
f 44//2 42//2 46//2 48//2
f 43//5 44//5 48//5 47//5
f 41//4 43//4 47//4 45//4
f 53//1 54//1 50//1 49//1
f 54//2 55//2 51//2 50//2
f 52//3 51//3 57//3 58//3
f 56//4 53//4 49//4 52//4
f 49//5 50//5 51//5 52//5
f 56//6 55//6 54//6 53//6
f 58//6 57//6 61//6 62//6
f 56//3 52//3 58//3 60//3
f 55//3 56//3 60//3 59//3
f 51//3 55//3 59//3 57//3
f 63//3 64//3 62//3 61//3
f 60//2 58//2 62//2 64//2
f 59//5 60//5 64//5 63//5
f 57//4 59//4 63//4 61//4
f 69//1 70//1 66//1 65//1
f 70//2 71//2 67//2 66//2
f 68//3 67//3 73//3 74//3
f 72//4 69//4 65//4 68//4
f 65//5 66//5 67//5 68//5
f 72//6 71//6 70//6 69//6
f 74//6 73//6 77//6 78//6
f 72//3 68//3 74//3 76//3
f 71//3 72//3 76//3 75//3
f 67//3 71//3 75//3 73//3
f 79//3 80//3 78//3 77//3
f 76//2 74//2 78//2 80//2
f 75//5 76//5 80//5 79//5
f 73//4 75//4 79//4 77//4
f 85//1 86//1 82//1 81//1
f 86//2 87//2 83//2 82//2
f 84//3 83//3 89//3 90//3
f 88//4 85//4 81//4 84//4
f 81//5 82//5 83//5 84//5
f 88//6 87//6 86//6 85//6
f 90//6 89//6 93//6 94//6
f 88//3 84//3 90//3 92//3
f 87//3 88//3 92//3 91//3
f 83//3 87//3 91//3 89//3
f 95//3 96//3 94//3 93//3
f 92//2 90//2 94//2 96//2
f 91//5 92//5 96//5 95//5
f 89//4 91//4 95//4 93//4
f 101//2 102//2 98//2 97//2
f 102//3 103//3 99//3 98//3
f 100//4 99//4 105//4 106//4
f 104//1 101//1 97//1 100//1
f 97//5 98//5 99//5 100//5
f 104//6 103//6 102//6 101//6
f 106//6 105//6 109//6 110//6
f 104//4 100//4 106//4 108//4
f 103//4 104//4 108//4 107//4
f 99//4 103//4 107//4 105//4
f 111//4 112//4 110//4 109//4
f 108//3 106//3 110//3 112//3
f 107//5 108//5 112//5 111//5
f 105//1 107//1 111//1 109//1
f 117//4 118//4 114//4 113//4
f 118//1 119//1 115//1 114//1
f 116//2 115//2 121//2 122//2
f 120//3 117//3 113//3 116//3
f 113//5 114//5 115//5 116//5
f 120//6 119//6 118//6 117//6
f 122//6 121//6 125//6 126//6
f 120//2 116//2 122//2 124//2
f 119//2 120//2 124//2 123//2
f 115//2 119//2 123//2 121//2
f 127//2 128//2 126//2 125//2
f 124//1 122//1 126//1 128//1
f 123//5 124//5 128//5 127//5
f 121//3 123//3 127//3 125//3
f 133//2 134//2 130//2 129//2
f 134//3 135//3 131//3 130//3
f 132//4 131//4 137//4 138//4
f 136//1 133//1 129//1 132//1
f 129//5 130//5 131//5 132//5
f 136//6 135//6 134//6 133//6
f 138//6 137//6 141//6 142//6
f 136//4 132//4 138//4 140//4
f 135//4 136//4 140//4 139//4
f 131//4 135//4 139//4 137//4
f 143//4 144//4 142//4 141//4
f 140//3 138//3 142//3 144//3
f 139//5 140//5 144//5 143//5
f 137//1 139//1 143//1 141//1
f 149//4 150//4 146//4 145//4
f 150//1 151//1 147//1 146//1
f 148//2 147//2 153//2 154//2
f 152//3 149//3 145//3 148//3
f 145//5 146//5 147//5 148//5
f 152//6 151//6 150//6 149//6
f 154//6 153//6 157//6 158//6
f 152//2 148//2 154//2 156//2
f 151//2 152//2 156//2 155//2
f 147//2 151//2 155//2 153//2
f 159//2 160//2 158//2 157//2
f 156//1 154//1 158//1 160//1
f 155//5 156//5 160//5 159//5
f 153//3 155//3 159//3 157//3
