# prebaked split of model.obj material Brown2.001
mtllib Brown2_001.mtl
usemtl Brown2.001
v 0.062305 1.097777 -0.002346
v 0.110847 1.106503 0.054354
v 0.102419 1.104279 0.022534
v 0.072786 1.105869 0.137372
v 0.093128 1.104972 0.109767
v 0.000882 1.100898 -0.005913
v 0.201655 0.601674 -0.049776
v 0.228559 0.595389 0.039842
v 0.207861 0.587808 0.070811
v 0.158233 0.599910 0.067087
v 0.154893 0.603705 -0.074738
v 0.075720 0.589658 -0.005293
v 0.103246 0.588355 -0.044570
v 0.108123 0.592981 0.041971
v 0.232344 0.593696 -0.001989
v 0.192164 0.426450 0.003048
v 0.174293 0.433410 0.031116
v 0.158564 0.518593 -0.077277
v 0.198843 0.487909 -0.057276
v 0.141523 0.461643 0.042973
v 0.203783 0.460629 -0.037465
v 0.079958 0.519485 -0.011345
v 0.107954 0.524505 -0.048017
v 0.109853 0.477311 0.033129
v 0.061006 1.078655 -0.014140
v 0.116589 1.085612 0.046413
v 0.102132 1.080641 0.006977
v 0.087144 0.917088 0.127888
v 0.080752 0.955642 0.135785
v 0.076587 1.085296 0.138324
v 0.100915 1.085760 0.109826
v 0.081172 1.024565 0.140654
v -0.008233 1.045791 -0.016405
v -0.035702 1.046084 -0.003039
v 0.063343 1.044224 -0.038649
v -0.001795 1.083689 -0.004451
v 0.010591 1.041684 -0.026939
v 0.125693 1.042786 0.002854
v 0.104186 1.046592 -0.020835
v 0.138943 1.023324 0.024221
v 0.078810 1.055839 0.139199
v 0.128383 1.039566 0.065154
v 0.106297 1.053419 0.108918
v 0.136109 0.680496 -0.084202
v 0.218163 0.699313 0.046957
v 0.208311 0.540207 -0.048525
v 0.227894 0.497439 0.024722
v 0.207785 0.490067 0.055207
v 0.162587 0.510996 0.063698
v 0.165746 0.558127 -0.073687
v 0.085443 0.553988 -0.002265
v 0.115909 0.558802 -0.041007
v 0.115264 0.533974 0.044942
v 0.235136 0.513685 -0.013186
v 0.129501 0.718512 -0.084789
v 0.185768 0.731922 -0.060338
v 0.218730 0.740021 -0.003979
v 0.214586 0.737911 0.049102
v 0.211164 0.605060 -0.054894
v 0.166420 0.606814 -0.078798
v 0.240208 0.597906 -0.009318
v 0.236981 0.599373 0.031015
v 0.142149 0.717115 -0.088117
v 0.148477 0.680708 -0.087554
v 0.196035 0.729957 -0.064700
v 0.201803 0.686425 -0.062428
v 0.227602 0.737714 -0.010726
v 0.232664 0.695556 -0.009901
v 0.223633 0.735693 0.040109
v 0.227059 0.698728 0.038056
v -0.101727 1.095780 0.067260
v -0.084859 1.108125 0.140917
v 0.041988 1.107720 0.157367
v -0.031469 1.103725 0.004531
v -0.106250 1.104175 0.113622
v 0.006556 1.108385 0.165676
v -0.027872 1.107527 0.163649
v -0.062733 1.100355 0.020392
v -0.138657 0.609144 0.242418
v -0.073310 0.625209 0.307786
v -0.035446 0.623369 0.305031
v -0.016808 0.630670 0.258006
v -0.138065 0.602147 0.189772
v -0.037916 0.598449 0.154443
v -0.084762 0.590229 0.160837
v -0.013272 0.614732 0.203852
v -0.110914 0.614436 0.292226
v -0.059144 0.450826 0.292569
v -0.027591 0.462633 0.288025
v -0.127789 0.516374 0.207224
v -0.124725 0.495540 0.257979
v -0.006422 0.489192 0.258691
v -0.105407 0.474719 0.277124
v -0.033415 0.525687 0.167964
v -0.079276 0.524302 0.174929
v -0.002336 0.498488 0.223108
v 0.048786 0.951782 0.156507
v -0.112698 1.074052 0.060979
v -0.091612 1.088038 0.141936
v 0.045417 1.086534 0.159998
v -0.032279 1.085479 0.004428
v -0.117401 1.079609 0.106372
v 0.007690 0.930456 0.173564
v 0.049993 0.912728 0.154252
v 0.013007 0.964599 0.170975
v 0.008478 1.088612 0.168304
v -0.029021 1.089437 0.169547
v 0.049191 1.028064 0.160472
v 0.013193 1.030910 0.172199
v -0.070548 1.042951 0.006645
v -0.041934 1.045350 -0.007614
v -0.040013 1.038243 -0.007546
v -0.134229 1.033683 0.053620
v -0.061553 1.083000 0.019725
v -0.093570 1.034645 0.015208
v -0.129114 1.043631 0.127941
v -0.139394 1.041683 0.097320
v -0.114539 1.029573 0.152369
v 0.012242 1.060670 0.169349
v -0.076582 1.048490 0.163670
v 0.048193 1.061183 0.160731
v -0.028546 1.059730 0.172742
v -0.149782 0.673698 0.156586
v -0.079202 0.726886 0.284958
v -0.130652 0.549788 0.259176
v -0.069811 0.528226 0.318009
v -0.032663 0.526628 0.315669
v -0.007154 0.544081 0.275647
v -0.134872 0.558153 0.207248
v -0.034109 0.564372 0.170128
v -0.082908 0.562538 0.178353
v -0.004435 0.557932 0.221242
v -0.108652 0.535055 0.303919
v -0.153358 0.710080 0.144226
v -0.161485 0.732425 0.202349
v -0.130057 0.755135 0.255500
v -0.081973 0.764651 0.276396
v -0.148183 0.611975 0.247887
v -0.147602 0.605118 0.197531
v -0.121678 0.617384 0.295174
v -0.085608 0.627659 0.310507
v -0.162065 0.708844 0.154006
v -0.158641 0.674000 0.165843
v -0.169847 0.730243 0.209669
v -0.163511 0.688816 0.222978
v -0.139750 0.751992 0.260570
v -0.134548 0.711530 0.272374
v -0.093701 0.761106 0.280582
v -0.091047 0.724938 0.288783
v 0.009890 1.104454 0.088534
vt 0.000000 0.000000
vn 0.321400 0.587800 -0.742400
vn -0.147600 0.497300 -0.855000
vn 0.534900 -0.054300 0.843200
vn 0.566500 -0.052100 0.822400
vn 0.576800 0.076500 0.813300
vn -0.336600 0.269700 -0.902200
vn 0.637000 0.089800 -0.765600
vn 0.743400 0.509800 -0.432900
vn 0.748500 0.091800 0.656800
vn 0.919300 0.267200 0.289000
vn 0.555000 0.044400 0.830700
vn 0.938400 0.344900 -0.022700
vn -0.402800 0.336900 -0.851100
vn 0.555900 0.166100 0.814500
vn 0.760900 0.237000 0.604000
vn 0.928500 0.261300 0.264000
vn 0.905600 0.279300 -0.319100
vn 0.391800 0.485400 -0.781600
vn -0.029200 0.276400 -0.960600
vn -0.294400 -0.007700 -0.955600
vn 0.713000 0.022500 0.700800
vn 0.708000 0.026400 0.705700
vn -0.490100 -0.199600 -0.848500
vn -0.491000 -0.201400 -0.847500
vn 0.014900 -0.100900 0.994800
vn -0.415100 -0.034800 0.909100
vn 0.836500 0.093800 -0.539800
vn -0.493400 -0.206300 -0.845000
vn -0.754300 -0.317000 -0.574900
vn 0.990700 -0.008200 0.135500
vn 0.499100 0.063000 -0.864300
vn -0.838800 -0.115700 0.532000
vn 0.839500 -0.087400 0.536200
vn -0.844400 -0.021700 0.535300
vn -0.775500 0.283400 -0.564200
vn -0.501000 0.222800 -0.836300
vn 0.491100 0.028000 -0.870700
vn 0.800900 -0.126900 -0.585100
vn 0.888700 -0.452100 -0.077000
vn 0.705200 -0.545000 0.453500
vn -0.003900 -0.387700 0.921800
vn -0.409000 -0.172900 0.896000
vn 0.140900 -0.931200 -0.336000
vn 0.294400 0.953800 0.060900
vn 0.507500 -0.858300 0.076300
vn 0.101700 0.974600 -0.199500
vn 0.447600 -0.015100 -0.894100
vn 0.991900 0.084800 0.094800
vn 0.851600 0.056800 -0.521100
vn 0.408100 0.029400 -0.912500
vn 0.990000 0.104700 0.094700
vn 0.853000 0.089200 -0.514200
vn -0.260200 -0.060100 -0.963700
vn -0.268500 -0.179900 -0.946300
vn 0.206200 -0.936500 -0.283700
vn -0.018800 0.894300 -0.447100
vn -0.040200 0.997400 -0.059100
vn -0.084900 0.988900 -0.121600
vn 0.022400 0.998100 -0.057800
vn 0.009200 0.999100 -0.041200
vn 0.012800 0.998900 -0.045500
vn 0.062700 0.997100 -0.043500
vn 0.072700 0.996400 -0.044500
vn 0.060400 0.997200 -0.043300
vn -0.012300 0.999600 0.023700
vn 0.001700 0.999500 -0.031200
vn 0.053200 0.997700 -0.042600
vn -0.845600 0.505800 -0.170600
vn -0.611000 0.455500 -0.647500
vn 0.335700 -0.035700 0.941300
vn 0.391100 -0.017700 0.920200
vn 0.227000 0.060300 0.972000
vn -0.448100 0.360500 -0.818100
vn 0.513800 0.130800 -0.847900
vn -0.800800 0.477500 0.361600
vn 0.058800 0.077500 0.995300
vn -0.330400 0.253300 0.909200
vn 0.273200 0.048100 0.960700
vn -0.548600 0.350600 0.759000
vn -0.437600 0.366500 -0.821100
vn 0.226600 0.153100 0.961900
vn -0.010700 0.219500 0.975600
vn -0.378000 0.240300 0.894100
vn -0.798200 0.243100 0.551200
vn -0.872200 0.463000 -0.158100
vn -0.690800 0.290700 -0.662000
vn -0.458700 0.014500 -0.888500
vn 0.259300 0.225100 0.939200
vn 0.264200 0.231600 0.936200
vn -0.465600 -0.410900 -0.783800
vn -0.464000 -0.412600 -0.783900
vn 0.868200 0.132600 0.478100
vn 0.988600 0.140700 0.054200
vn -0.883300 0.030600 0.467800
vn -0.460700 -0.415300 -0.784400
vn -0.083500 -0.477700 -0.874500
vn -0.364300 0.103100 0.925600
vn -0.994800 -0.096800 0.033200
vn 0.880700 -0.048900 -0.471100
vn 0.072400 0.109100 0.991400
vn 0.871400 0.026300 -0.489900
vn -0.160200 0.062500 -0.985100
vn -0.517000 -0.032400 -0.855400
vn -0.990400 -0.134600 0.032000
vn -0.868800 -0.182000 0.460500
vn -0.419000 -0.358700 0.834200
vn 0.143000 -0.333900 0.931700
vn 0.860500 -0.141600 0.489300
vn 0.996800 0.014300 0.079000
vn -0.206400 -0.970100 0.128100
vn -0.245300 0.961100 0.126800
vn -0.033100 -0.787500 0.615400
vn -0.380800 0.910100 -0.163700
vn -0.983000 -0.182900 -0.013000
vn -0.408300 0.169600 0.897000
vn -0.866900 -0.003900 0.498500
vn -0.987100 -0.147200 -0.063500
vn -0.410600 0.190700 0.891700
vn -0.867100 0.030300 0.497200
vn -0.695900 -0.291400 -0.656400
vn -0.659600 -0.400700 -0.636000
vn -0.186300 -0.959800 0.209900
vn -0.523100 0.768500 -0.368600
vn -0.028600 0.992200 -0.121200
vn -0.041700 0.982400 -0.182000
vn 0.006900 0.998700 -0.050600
vn -0.006600 0.998700 -0.051200
vn -0.006200 0.998700 -0.051200
vn -0.085700 0.995800 0.031500
vn -0.085400 0.995900 0.031100
vn -0.089400 0.995400 0.035400
vn 0.022300 0.999300 -0.029700
vn -0.021800 0.998400 -0.051800
vn -0.082800 0.996200 0.028300
f 25/1/1 27/1/1 39/1/1
f 25/1/1 39/1/1 35/1/1
f 25/1/2 35/1/2 37/1/2
f 25/1/2 37/1/2 36/1/2
f 29/1/3 32/1/3 108/1/3
f 29/1/3 108/1/3 97/1/3
f 28/1/4 29/1/4 97/1/4
f 28/1/4 97/1/4 104/1/4
f 121/1/5 41/1/5 30/1/5
f 121/1/5 30/1/5 100/1/5
f 101/1/6 36/1/6 33/1/6
f 101/1/6 33/1/6 34/1/6
f 101/1/7 34/1/7 112/1/7
f 27/1/8 26/1/8 38/1/8
f 27/1/8 38/1/8 39/1/8
f 30/1/9 41/1/9 43/1/9
f 30/1/9 43/1/9 31/1/9
f 31/1/10 43/1/10 42/1/10
f 31/1/10 42/1/10 26/1/10
f 108/1/11 32/1/11 41/1/11
f 108/1/11 41/1/11 121/1/11
f 26/1/12 42/1/12 40/1/12
f 26/1/12 40/1/12 38/1/12
f 33/1/13 36/1/13 37/1/13
f 73/1/14 100/1/14 30/1/14
f 73/1/14 30/1/14 4/1/14
f 4/1/15 30/1/15 31/1/15
f 4/1/15 31/1/15 5/1/15
f 5/1/16 31/1/16 26/1/16
f 5/1/16 26/1/16 2/1/16
f 2/1/17 26/1/17 27/1/17
f 2/1/17 27/1/17 3/1/17
f 3/1/18 27/1/18 25/1/18
f 3/1/18 25/1/18 1/1/18
f 1/1/19 25/1/19 36/1/19
f 1/1/19 36/1/19 6/1/19
f 6/1/20 36/1/20 101/1/20
f 6/1/20 101/1/20 74/1/20
f 45/1/21 8/1/21 62/1/21
f 45/1/21 62/1/21 70/1/21
f 58/1/22 45/1/22 70/1/22
f 58/1/22 70/1/22 69/1/22
f 9/1/25 10/1/25 49/1/25
f 9/1/25 49/1/25 48/1/25
f 10/1/26 14/1/26 53/1/26
f 10/1/26 53/1/26 49/1/26
f 7/1/27 15/1/27 54/1/27
f 7/1/27 54/1/27 46/1/27
f 13/1/23 11/1/24 50/1/28
f 13/1/23 50/1/28 52/1/28
f 12/1/29 13/1/29 52/1/29
f 12/1/29 52/1/29 51/1/29
f 15/1/30 8/1/30 47/1/30
f 15/1/30 47/1/30 54/1/30
f 11/1/31 7/1/31 46/1/31
f 11/1/31 46/1/31 50/1/31
f 14/1/32 12/1/32 51/1/32
f 14/1/32 51/1/32 53/1/32
f 8/1/33 9/1/33 48/1/33
f 8/1/33 48/1/33 47/1/33
f 24/1/34 53/1/34 51/1/34
f 24/1/34 51/1/34 22/1/34
f 22/1/35 51/1/35 52/1/35
f 22/1/35 52/1/35 23/1/35
f 23/1/36 52/1/36 50/1/36
f 23/1/36 50/1/36 18/1/36
f 18/1/37 50/1/37 46/1/37
f 18/1/37 46/1/37 19/1/37
f 19/1/38 46/1/38 54/1/38
f 19/1/38 54/1/38 21/1/38
f 21/1/39 54/1/39 47/1/39
f 21/1/39 47/1/39 16/1/39
f 16/1/40 47/1/40 48/1/40
f 16/1/40 48/1/40 17/1/40
f 17/1/41 48/1/41 49/1/41
f 17/1/41 49/1/41 20/1/41
f 20/1/42 49/1/42 53/1/42
f 20/1/42 53/1/42 24/1/42
f 7/1/43 11/1/43 60/1/43
f 7/1/43 60/1/43 59/1/43
f 57/1/44 58/1/44 69/1/44
f 57/1/44 69/1/44 67/1/44
f 8/1/45 15/1/45 61/1/45
f 8/1/45 61/1/45 62/1/45
f 56/1/46 57/1/46 67/1/46
f 56/1/46 67/1/46 65/1/46
f 60/1/47 64/1/47 66/1/47
f 60/1/47 66/1/47 59/1/47
f 61/1/48 68/1/48 70/1/48
f 61/1/48 70/1/48 62/1/48
f 59/1/49 66/1/49 68/1/49
f 59/1/49 68/1/49 61/1/49
f 64/1/50 63/1/50 65/1/50
f 64/1/50 65/1/50 66/1/50
f 68/1/51 67/1/51 69/1/51
f 68/1/51 69/1/51 70/1/51
f 66/1/52 65/1/52 67/1/52
f 66/1/52 67/1/52 68/1/52
f 44/1/53 55/1/53 63/1/53
f 44/1/53 63/1/53 64/1/53
f 11/1/54 44/1/54 64/1/54
f 11/1/54 64/1/54 60/1/54
f 15/1/55 7/1/55 59/1/55
f 15/1/55 59/1/55 61/1/55
f 55/1/56 56/1/56 65/1/56
f 55/1/56 65/1/56 63/1/56
f 2/1/57 3/1/57 150/1/57
f 3/1/58 1/1/58 150/1/58
f 73/1/59 4/1/60 150/1/61
f 6/1/62 74/1/63 150/1/64
f 5/1/65 2/1/65 150/1/65
f 4/1/60 5/1/66 150/1/61
f 1/1/67 6/1/62 150/1/64
f 98/1/68 113/1/68 117/1/68
f 98/1/68 117/1/68 102/1/68
f 98/1/69 114/1/69 115/1/69
f 98/1/69 115/1/69 113/1/69
f 105/1/70 97/1/70 108/1/70
f 105/1/70 108/1/70 109/1/70
f 103/1/71 104/1/71 97/1/71
f 103/1/71 97/1/71 105/1/71
f 121/1/72 100/1/72 106/1/72
f 121/1/72 106/1/72 119/1/72
f 101/1/73 111/1/73 110/1/73
f 101/1/73 110/1/73 114/1/73
f 101/1/74 112/1/74 111/1/74
f 102/1/75 117/1/75 116/1/75
f 102/1/75 116/1/75 99/1/75
f 106/1/76 107/1/76 122/1/76
f 106/1/76 122/1/76 119/1/76
f 107/1/77 99/1/77 120/1/77
f 107/1/77 120/1/77 122/1/77
f 108/1/78 121/1/78 119/1/78
f 108/1/78 119/1/78 109/1/78
f 99/1/79 116/1/79 118/1/79
f 99/1/79 118/1/79 120/1/79
f 110/1/80 115/1/80 114/1/80
f 73/1/81 76/1/81 106/1/81
f 73/1/81 106/1/81 100/1/81
f 76/1/82 77/1/82 107/1/82
f 76/1/82 107/1/82 106/1/82
f 77/1/83 72/1/83 99/1/83
f 77/1/83 99/1/83 107/1/83
f 72/1/84 75/1/84 102/1/84
f 72/1/84 102/1/84 99/1/84
f 75/1/85 71/1/85 98/1/85
f 75/1/85 98/1/85 102/1/85
f 71/1/86 78/1/86 114/1/86
f 71/1/86 114/1/86 98/1/86
f 78/1/87 74/1/87 101/1/87
f 78/1/87 101/1/87 114/1/87
f 124/1/88 149/1/88 141/1/88
f 124/1/88 141/1/88 80/1/88
f 137/1/89 148/1/89 149/1/89
f 137/1/89 149/1/89 124/1/89
f 81/1/92 127/1/92 128/1/92
f 81/1/92 128/1/92 82/1/92
f 82/1/93 128/1/93 132/1/93
f 82/1/93 132/1/93 86/1/93
f 79/1/94 125/1/94 133/1/94
f 79/1/94 133/1/94 87/1/94
f 85/1/90 131/1/95 129/1/95
f 85/1/90 129/1/95 83/1/91
f 84/1/96 130/1/96 131/1/96
f 84/1/96 131/1/96 85/1/96
f 87/1/97 133/1/97 126/1/97
f 87/1/97 126/1/97 80/1/97
f 83/1/98 129/1/98 125/1/98
f 83/1/98 125/1/98 79/1/98
f 86/1/99 132/1/99 130/1/99
f 86/1/99 130/1/99 84/1/99
f 80/1/100 126/1/100 127/1/100
f 80/1/100 127/1/100 81/1/100
f 96/1/101 94/1/101 130/1/101
f 96/1/101 130/1/101 132/1/101
f 94/1/102 95/1/102 131/1/102
f 94/1/102 131/1/102 130/1/102
f 95/1/103 90/1/103 129/1/103
f 95/1/103 129/1/103 131/1/103
f 90/1/104 91/1/104 125/1/104
f 90/1/104 125/1/104 129/1/104
f 91/1/105 93/1/105 133/1/105
f 91/1/105 133/1/105 125/1/105
f 93/1/106 88/1/106 126/1/106
f 93/1/106 126/1/106 133/1/106
f 88/1/107 89/1/107 127/1/107
f 88/1/107 127/1/107 126/1/107
f 89/1/108 92/1/108 128/1/108
f 89/1/108 128/1/108 127/1/108
f 92/1/109 96/1/109 132/1/109
f 92/1/109 132/1/109 128/1/109
f 79/1/110 138/1/110 139/1/110
f 79/1/110 139/1/110 83/1/110
f 136/1/111 146/1/111 148/1/111
f 136/1/111 148/1/111 137/1/111
f 80/1/112 141/1/112 140/1/112
f 80/1/112 140/1/112 87/1/112
f 135/1/113 144/1/113 146/1/113
f 135/1/113 146/1/113 136/1/113
f 139/1/114 138/1/114 145/1/114
f 139/1/114 145/1/114 143/1/114
f 140/1/115 141/1/115 149/1/115
f 140/1/115 149/1/115 147/1/115
f 138/1/116 140/1/116 147/1/116
f 138/1/116 147/1/116 145/1/116
f 143/1/117 145/1/117 144/1/117
f 143/1/117 144/1/117 142/1/117
f 147/1/118 149/1/118 148/1/118
f 147/1/118 148/1/118 146/1/118
f 145/1/119 147/1/119 146/1/119
f 145/1/119 146/1/119 144/1/119
f 123/1/120 143/1/120 142/1/120
f 123/1/120 142/1/120 134/1/120
f 83/1/121 139/1/121 143/1/121
f 83/1/121 143/1/121 123/1/121
f 87/1/122 140/1/122 138/1/122
f 87/1/122 138/1/122 79/1/122
f 134/1/123 142/1/123 144/1/123
f 134/1/123 144/1/123 135/1/123
f 72/1/124 150/1/124 75/1/124
f 75/1/125 150/1/125 71/1/125
f 73/1/126 150/1/127 76/1/128
f 78/1/129 150/1/130 74/1/131
f 77/1/132 150/1/132 72/1/132
f 76/1/128 150/1/127 77/1/133
f 71/1/134 150/1/130 78/1/129
