# prebaked split of model.obj material Eye.002
mtllib Eye_002.mtl
usemtl Eye.002
v 0.041440 1.613297 0.223338
v 0.040557 1.631724 0.229943
v 0.035589 1.619359 0.205646
v 0.034706 1.637785 0.212252
v 0.060120 1.616069 0.218108
v 0.059236 1.634494 0.224715
v 0.054269 1.622129 0.200417
v 0.053385 1.640556 0.207024
v -0.034532 1.613140 0.222985
v -0.033786 1.631571 0.229599
v -0.028542 1.619227 0.205349
v -0.027796 1.637656 0.211962
v -0.053174 1.615835 0.217583
v -0.052426 1.634264 0.224196
v -0.047184 1.621920 0.199948
v -0.046438 1.640350 0.206561
vt 0.000000 0.000000
vn -0.953300 -0.141400 0.266800
vn -0.298600 0.309300 -0.902900
vn 0.953300 0.141400 -0.266800
vn 0.298600 -0.309300 0.902900
vn 0.045100 -0.940400 -0.337100
vn -0.045100 0.940400 0.337100
vn 0.951400 -0.137500 0.275700
vn 0.305700 0.310600 -0.900100
vn -0.951400 0.137500 -0.275700
vn -0.305700 -0.310600 0.900100
vn -0.038100 -0.940600 -0.337500
vn 0.038100 0.940600 0.337500
f 1/1/1 2/1/1 4/1/1
f 1/1/1 4/1/1 3/1/1
f 3/1/2 4/1/2 8/1/2
f 3/1/2 8/1/2 7/1/2
f 7/1/3 8/1/3 6/1/3
f 7/1/3 6/1/3 5/1/3
f 5/1/4 6/1/4 2/1/4
f 5/1/4 2/1/4 1/1/4
f 3/1/5 7/1/5 5/1/5
f 3/1/5 5/1/5 1/1/5
f 8/1/6 4/1/6 2/1/6
f 8/1/6 2/1/6 6/1/6
f 9/1/7 11/1/7 12/1/7
f 9/1/7 12/1/7 10/1/7
f 11/1/8 15/1/8 16/1/8
f 11/1/8 16/1/8 12/1/8
f 15/1/9 13/1/9 14/1/9
f 15/1/9 14/1/9 16/1/9
f 13/1/10 9/1/10 10/1/10
f 13/1/10 10/1/10 14/1/10
f 11/1/11 9/1/11 13/1/11
f 11/1/11 13/1/11 15/1/11
f 16/1/12 14/1/12 10/1/12
f 16/1/12 10/1/12 12/1/12
