# prebaked split of model.obj material Eyebrows.002
mtllib Eyebrows_002.mtl
usemtl Eyebrows.002
v 0.023518 1.639539 0.232201
v 0.067103 1.643890 0.218531
v 0.024848 1.631784 0.227427
v 0.067502 1.636510 0.215197
v 0.069773 1.640650 0.227538
v 0.026197 1.636593 0.239296
v 0.070173 1.633268 0.224205
v 0.027528 1.628839 0.234521
v -0.016801 1.639456 0.232015
v -0.060274 1.643627 0.217941
v -0.018055 1.631696 0.227227
v -0.060612 1.636245 0.214603
v -0.063016 1.640376 0.226922
v -0.019534 1.636499 0.239084
v -0.063354 1.632993 0.223586
v -0.020788 1.628739 0.234297
vt 0.000000 0.000000
vn -0.301200 0.423400 -0.854400
vn 0.263400 -0.432000 0.862600
vn 0.005000 -0.932900 -0.360000
vn 0.960900 0.155500 -0.229000
vn -0.927200 -0.298400 0.226300
vn 0.013300 0.934900 0.354700
vn 0.307300 0.424600 -0.851600
vn -0.269600 -0.433100 0.860100
vn 0.002200 -0.932900 -0.360100
vn -0.959400 0.151500 -0.237900
vn 0.926300 -0.294600 0.234900
vn -0.020400 0.934800 0.354600
f 3/1/1 1/1/1 2/1/1
f 3/1/1 2/1/1 4/1/1
f 8/1/2 7/1/2 5/1/2
f 8/1/2 5/1/2 6/1/2
f 3/1/3 4/1/3 7/1/3
f 3/1/3 7/1/3 8/1/3
f 4/1/4 2/1/4 5/1/4
f 4/1/4 5/1/4 7/1/4
f 1/1/5 3/1/5 8/1/5
f 1/1/5 8/1/5 6/1/5
f 2/1/6 1/1/6 6/1/6
f 2/1/6 6/1/6 5/1/6
f 11/1/7 12/1/7 10/1/7
f 11/1/7 10/1/7 9/1/7
f 16/1/8 14/1/8 13/1/8
f 16/1/8 13/1/8 15/1/8
f 11/1/9 16/1/9 15/1/9
f 11/1/9 15/1/9 12/1/9
f 12/1/10 15/1/10 13/1/10
f 12/1/10 13/1/10 10/1/10
f 9/1/11 14/1/11 16/1/11
f 9/1/11 16/1/11 11/1/11
f 10/1/12 13/1/12 14/1/12
f 10/1/12 14/1/12 9/1/12
