# prebaked split of model.obj material Red_Dark
mtllib Red_Dark.mtl
usemtl Red_Dark
v 0.071671 0.068934 -0.110533
v 0.074543 0.076295 -0.138968
v 0.103468 0.074797 -0.155918
v 0.067076 0.036600 -0.116824
v 0.069667 0.042426 -0.145735
v 0.098580 0.041730 -0.162742
v 0.195344 0.094487 -0.108818
v 0.153852 0.089093 -0.061906
v 0.222087 0.076284 -0.092077
v 0.196833 0.076735 -0.046484
v 0.263257 0.064950 -0.072962
v 0.246983 0.063626 -0.023031
v 0.307363 0.058299 -0.052364
v 0.294101 0.057219 -0.002457
v 0.128005 0.073478 -0.160630
v 0.289901 0.045649 -0.080994
v 0.221229 0.058230 -0.109688
v 0.266985 0.050857 -0.091544
v 0.182018 0.065231 -0.122874
v 0.178320 0.028432 -0.142140
v 0.122692 0.039208 -0.167923
v 0.216919 0.028240 -0.122698
v 0.270354 0.029201 -0.098986
v 0.302612 0.028370 -0.085478
v 0.156179 0.068335 -0.143477
v 0.159342 0.090155 -0.135747
v 0.149524 0.032766 -0.154672
v 0.078152 0.060662 -0.086490
v 0.267721 0.046095 0.006013
v 0.177509 0.052678 -0.035981
v 0.232980 0.051512 -0.004735
v 0.142310 0.054916 -0.060241
v 0.136764 0.028073 -0.057464
v 0.073530 0.030933 -0.090658
v 0.171872 0.029404 -0.037217
v 0.231749 0.029431 -0.002928
v 0.272240 0.028031 0.015215
v 0.111783 0.055773 -0.067014
v 0.107405 0.027379 -0.069619
v 0.328527 0.029477 -0.045020
v 0.301773 0.029455 0.007392
v 0.255748 0.066667 -0.047669
v 0.307655 0.060458 -0.025117
v 0.323267 0.029467 -0.019618
v 0.212345 0.082185 -0.068372
v 0.182234 0.098696 -0.078881
v 0.080216 0.114737 -0.099166
v 0.087428 0.130861 -0.123974
v 0.111752 0.123259 -0.140270
v 0.130979 0.105303 -0.147921
v 0.084884 0.088909 -0.083113
v 0.117744 0.073434 -0.066549
v 0.187405 0.112369 -0.107349
v 0.172610 0.115723 -0.084325
v 0.150623 0.104515 -0.065112
v 0.187117 0.094541 -0.107662
v 0.150734 0.089419 -0.066857
v 0.155813 0.091250 -0.131326
v 0.086991 0.112632 -0.099268
v 0.093302 0.126681 -0.120847
v 0.114498 0.120060 -0.135044
v 0.131152 0.104389 -0.141828
v 0.090949 0.090143 -0.085440
v 0.119452 0.076543 -0.071114
v 0.179733 0.110690 -0.107362
v 0.166962 0.113395 -0.087010
v 0.147707 0.103685 -0.070438
v 0.147248 0.079461 -0.072183
v 0.172204 0.094606 -0.085097
v 0.174595 0.082809 -0.108507
v 0.151579 0.082593 -0.127979
v 0.092738 0.100867 -0.101106
v 0.098306 0.112960 -0.119283
v 0.116321 0.107305 -0.131388
v 0.130339 0.093888 -0.137330
v 0.096015 0.081649 -0.089416
v 0.120459 0.069441 -0.076593
v 0.165431 0.084590 -0.088256
v 0.137649 0.233348 -0.078443
v 0.122976 0.243393 -0.085554
v 0.136414 0.173186 -0.056508
v 0.143881 0.188465 -0.109478
v 0.162441 0.181644 -0.100108
v 0.111510 0.189312 -0.080726
v 0.115488 0.195046 -0.096984
v 0.182913 0.175423 -0.080147
v 0.174655 0.173626 -0.063219
v 0.115485 0.181294 -0.068900
v 0.138483 0.241587 -0.094882
v 0.118999 0.237659 -0.069296
v 0.122973 0.229641 -0.057470
v 0.166440 0.219994 -0.038989
v 0.190401 0.223770 -0.068717
v 0.182143 0.221974 -0.051789
v 0.143902 0.221535 -0.045079
v 0.151369 0.236813 -0.098048
v 0.157217 0.225861 -0.067384
v 0.169929 0.229993 -0.088678
v 0.130995 0.193239 -0.106312
v 0.158952 0.171647 -0.050419
v -0.046741 0.062354 0.194726
v -0.073445 0.063563 0.181960
v -0.102347 0.062134 0.198979
v -0.046186 0.029701 0.194548
v -0.073023 0.029888 0.181959
v -0.101939 0.029275 0.199005
v -0.102221 0.099958 0.307163
v -0.040277 0.095505 0.292738
v -0.092625 0.078756 0.345050
v -0.039897 0.078740 0.341927
v -0.090476 0.064951 0.391747
v -0.038298 0.063626 0.397713
v -0.090087 0.058299 0.440424
v -0.039186 0.057220 0.449120
v -0.118545 0.063264 0.218290
v -0.108861 0.045649 0.412638
v -0.108097 0.060417 0.337049
v -0.108967 0.050932 0.387394
v -0.109172 0.069357 0.288756
v -0.119413 0.029173 0.284114
v -0.118111 0.028938 0.217992
v -0.117143 0.029374 0.328569
v -0.117094 0.029201 0.387378
v -0.118225 0.028370 0.422331
v -0.116912 0.065893 0.252706
v -0.113937 0.089385 0.255624
v -0.119042 0.028858 0.249291
v -0.028246 0.060319 0.213720
v -0.020512 0.046096 0.428653
v -0.021583 0.053677 0.329185
v -0.015837 0.051512 0.392588
v -0.030364 0.058319 0.286563
v -0.024094 0.029445 0.283574
v -0.026242 0.029943 0.213414
v -0.019963 0.029404 0.323507
v -0.013682 0.029431 0.392221
v -0.014023 0.028032 0.436589
v -0.026347 0.062081 0.253977
v -0.022908 0.029539 0.252390
v -0.092210 0.029478 0.462726
v -0.033419 0.029456 0.460193
v -0.064352 0.066667 0.395438
v -0.065430 0.060459 0.452021
v -0.066921 0.029468 0.468506
v -0.066730 0.084566 0.346436
v -0.067968 0.104656 0.310484
v -0.046919 0.110493 0.197885
v -0.073882 0.121723 0.188670
v -0.099121 0.113935 0.203416
v -0.112996 0.097483 0.220408
v -0.032052 0.089403 0.215419
v -0.030475 0.080219 0.256667
v -0.098667 0.117625 0.298715
v -0.070923 0.121878 0.296457
v -0.043182 0.111073 0.286481
v -0.098318 0.100047 0.299296
v -0.044354 0.096209 0.286732
v -0.108526 0.090870 0.254392
v -0.050146 0.109263 0.204090
v -0.073640 0.119047 0.196063
v -0.095631 0.112260 0.208911
v -0.107714 0.097928 0.223713
v -0.037182 0.090883 0.219363
v -0.035805 0.082894 0.255300
v -0.095174 0.115477 0.291913
v -0.071018 0.119178 0.289954
v -0.046840 0.109772 0.281259
v -0.048440 0.086867 0.280676
v -0.071463 0.101543 0.296278
v -0.094108 0.088043 0.287016
v -0.102999 0.082293 0.253121
v -0.053296 0.097980 0.210302
v -0.073303 0.106304 0.203475
v -0.092015 0.100520 0.214407
v -0.102287 0.088319 0.227000
v -0.042257 0.082340 0.223298
v -0.041126 0.075556 0.253905
v -0.071474 0.091381 0.288779
v -0.075638 0.236186 0.226388
v -0.075483 0.242176 0.208198
v -0.048294 0.183307 0.250011
v -0.099074 0.186528 0.227517
v -0.099747 0.184704 0.249313
v -0.058200 0.189718 0.213576
v -0.074792 0.191941 0.207854
v -0.092510 0.186215 0.277624
v -0.073682 0.187355 0.279109
v -0.049138 0.185333 0.224468
v -0.091108 0.240350 0.217323
v -0.058891 0.239953 0.213921
v -0.049829 0.235569 0.224813
v -0.055194 0.236567 0.272712
v -0.093201 0.236450 0.277969
v -0.074373 0.237591 0.279454
v -0.048985 0.233543 0.250356
v -0.099765 0.236764 0.227861
v -0.075308 0.234257 0.249999
v -0.100437 0.234939 0.249657
v -0.090417 0.190114 0.216978
v -0.054504 0.186332 0.272366
vt 0.000000 0.000000
vn -0.484500 0.241400 -0.840800
vn -0.986500 0.152700 -0.058800
vn 0.155300 0.986500 -0.051400
vn 0.388700 0.362700 -0.847000
vn 0.384700 0.333800 -0.860600
vn 0.401400 0.415700 -0.816100
vn 0.498000 0.374300 -0.782200
vn 0.403300 0.699800 -0.589600
vn 0.382600 0.751700 -0.537100
vn 0.601500 0.141200 -0.786300
vn 0.526200 0.264900 -0.808100
vn -0.516300 -0.019800 0.856200
vn -0.528000 0.143500 0.837000
vn -0.491600 0.085300 0.866700
vn -0.331600 0.224100 0.916400
vn -0.176700 0.227500 -0.957600
vn -0.364100 0.371500 0.854100
vn -0.234800 0.728600 0.643400
vn -0.097600 0.819700 0.564400
vn -0.957100 0.096100 0.273300
vn 0.501400 0.140100 -0.853800
vn -0.300700 0.057000 0.952000
vn 0.697200 0.479200 -0.533200
vn 0.844800 0.531900 0.058000
vn 0.167100 0.416000 0.893900
vn 0.502400 0.863100 0.051300
vn 0.317600 0.947600 -0.035500
vn 0.156100 0.848800 0.505100
vn 0.167700 0.950700 0.261000
vn 0.724900 0.428200 0.539500
vn 0.056900 0.985800 0.157700
vn -0.969900 0.228800 -0.082800
vn -0.111400 0.344800 -0.932000
vn -0.186700 0.085700 0.978700
vn -0.463000 0.053900 0.884700
vn -0.456000 0.338500 -0.823100
vn 0.515500 0.253000 -0.818700
vn -0.925700 0.119500 0.359000
vn 0.427200 0.387000 0.817200
vn 0.814500 0.451300 0.364700
vn 0.248000 0.777400 0.578000
vn 0.426600 0.896400 0.120600
vn 0.079900 0.800200 0.594400
vn -0.859100 -0.065000 0.507600
vn -0.073500 0.018800 -0.997100
vn -0.225700 0.934900 -0.274000
vn 0.698300 0.711500 0.078400
vn 0.191700 0.540800 0.819000
vn 0.015900 0.985400 -0.169600
vn -0.402200 0.912900 0.070100
vn 0.452500 0.846500 0.280600
vn -0.403600 0.839900 0.363000
vn -0.566300 -0.271000 -0.778400
vn -0.806800 -0.314600 -0.500100
vn 0.588300 0.290200 0.754800
vn -0.548100 0.529800 0.647200
vn 0.865200 0.362300 0.346800
vn -0.622400 0.554400 -0.552600
vn 0.594400 0.300300 0.746000
vn -0.089100 0.542100 -0.835600
vn 0.577500 0.575800 -0.578800
vn -0.650400 0.649500 -0.393800
vn 0.816400 0.339400 0.467100
vn -0.168600 0.411200 0.895800
vn -0.143300 0.248700 -0.957900
vn 0.069300 0.979300 0.189900
vn 0.190300 0.935800 0.296800
vn 0.191500 0.935300 0.297500
vn 0.379100 0.819400 0.429900
vn 0.189000 0.936300 0.296100
vn 0.389800 0.827000 0.405000
vn -0.933000 0.060700 0.354700
vn 0.883500 -0.232900 0.406300
vn -0.538500 -0.114000 0.834900
vn 0.705900 0.057600 -0.706000
vn 0.628600 -0.269800 0.729400
vn 0.023000 0.980500 0.195100
vn -0.967000 0.189900 -0.169600
vn -0.268100 -0.182100 0.946000
vn -0.472700 0.271400 -0.838400
vn 0.484400 0.129500 -0.865200
vn -0.507400 -0.006600 -0.861700
vn 0.428200 0.008700 -0.903700
vn -0.111400 0.986500 0.119800
vn -0.966300 0.250900 0.058500
vn -0.951700 0.306500 0.020000
vn -0.909700 0.414500 0.026600
vn -0.926300 0.305000 0.221400
vn -0.711600 0.681000 0.172800
vn -0.646800 0.752200 0.125800
vn -0.974600 0.099800 0.200500
vn -0.984500 0.147900 0.094500
vn 0.993900 0.088000 -0.067200
vn 0.975300 0.168100 -0.143000
vn 0.991800 0.092400 -0.088800
vn 0.971300 0.224100 0.079600
vn -0.763800 -0.007000 -0.645400
vn 0.911300 0.411700 0.005100
vn 0.687300 0.723700 0.062600
vn 0.553900 0.819700 0.146000
vn 0.702100 0.034000 -0.711300
vn -0.999700 0.023200 0.009800
vn 0.984800 0.149000 0.089400
vn -0.774800 0.479200 0.412300
vn -0.298600 0.531900 0.792400
vn 0.743400 0.416000 0.523700
vn -0.186900 0.845500 0.500200
vn -0.166000 0.933700 0.317200
vn 0.381200 0.851000 0.361100
vn 0.170100 0.941700 0.290200
vn 0.189200 0.428200 0.883700
vn 0.119800 0.985800 0.117300
vn 0.394800 0.087200 -0.914600
vn -0.789500 0.126300 -0.600700
vn 0.963000 0.219200 0.157000
vn 0.985400 0.168000 -0.026700
vn -0.516100 0.099300 -0.850800
vn -0.989300 0.144300 0.021200
vn 0.760700 0.079800 -0.644200
vn 0.524500 0.513700 0.679000
vn -0.092400 0.540400 0.836400
vn 0.268900 0.908400 0.320100
vn -0.213400 0.953300 0.213600
vn 0.401800 0.897000 0.184200
vn 0.823100 -0.074400 -0.563000
vn -0.894300 -0.032500 -0.446300
vn -0.170100 0.911100 -0.375400
vn -0.365400 0.799900 0.476100
vn 0.536200 0.730100 0.423600
vn -0.286600 0.949300 -0.129200
vn 0.215400 0.901100 -0.376400
vn -0.089100 0.935600 0.341600
vn 0.482100 0.846100 -0.227400
vn -0.401200 -0.346900 -0.847800
vn -0.051700 -0.377600 -0.924500
vn 0.384900 0.485800 0.784700
vn 0.774700 0.560000 -0.293800
vn -0.234300 0.518200 0.822600
vn -0.164200 0.586000 -0.793500
vn 0.326500 0.481600 0.813300
vn -0.688000 0.581800 -0.433700
vn -0.815100 0.558400 0.154700
vn -0.083000 0.654700 -0.751400
vn -0.086700 0.499100 0.862200
vn 0.840700 0.522200 0.142800
vn -0.771600 -0.006200 -0.636000
vn -0.007000 0.996600 -0.082600
vn 0.027300 0.996300 0.081000
vn 0.027400 0.996200 0.082600
vn 0.058900 0.941500 0.331900
vn 0.027300 0.996500 0.079500
vn 0.031200 0.944400 0.327300
vn 0.771600 0.015000 -0.636000
vn -0.078100 -0.007900 0.996900
vn 0.999400 0.014000 -0.031900
vn -0.968500 -0.015000 0.248400
vn 0.331600 -0.001900 0.943400
vn 0.021100 0.992600 -0.119600
vn 0.327400 0.011000 -0.944800
vn 0.963900 0.011400 0.266200
vn -0.504200 -0.001000 -0.863600
vn -0.999400 -0.013500 -0.032000
f 2/1/1 3/1/1 6/1/1
f 2/1/1 6/1/1 5/1/1
f 1/1/2 2/1/2 5/1/2
f 1/1/2 5/1/2 4/1/2
f 42/1/3 43/1/3 13/1/3
f 42/1/3 13/1/3 11/1/3
f 22/1/4 20/1/4 19/1/4
f 22/1/4 19/1/4 17/1/4
f 23/1/5 22/1/5 17/1/5
f 23/1/5 17/1/5 18/1/5
f 24/1/6 23/1/6 18/1/6
f 24/1/6 18/1/6 16/1/6
f 17/1/7 19/1/7 7/1/7
f 17/1/7 7/1/7 9/1/7
f 18/1/8 17/1/8 9/1/8
f 18/1/8 9/1/8 11/1/8
f 16/1/9 18/1/9 11/1/9
f 16/1/9 11/1/9 13/1/9
f 19/1/10 25/1/10 26/1/10
f 19/1/10 26/1/10 7/1/10
f 20/1/11 27/1/11 25/1/11
f 20/1/11 25/1/11 19/1/11
f 39/1/12 38/1/12 28/1/12
f 39/1/12 28/1/12 34/1/12
f 35/1/13 30/1/13 32/1/13
f 35/1/13 32/1/13 33/1/13
f 36/1/14 31/1/14 30/1/14
f 36/1/14 30/1/14 35/1/14
f 37/1/15 29/1/15 31/1/15
f 37/1/15 31/1/15 36/1/15
f 21/1/16 6/1/16 3/1/16
f 21/1/16 3/1/16 15/1/16
f 30/1/17 10/1/17 8/1/17
f 30/1/17 8/1/17 32/1/17
f 31/1/18 12/1/18 10/1/18
f 31/1/18 10/1/18 30/1/18
f 29/1/19 14/1/19 12/1/19
f 29/1/19 12/1/19 31/1/19
f 1/1/20 4/1/20 34/1/20
f 1/1/20 34/1/20 28/1/20
f 27/1/21 21/1/21 15/1/21
f 27/1/21 15/1/21 25/1/21
f 33/1/22 32/1/22 38/1/22
f 33/1/22 38/1/22 39/1/22
f 40/1/23 24/1/23 16/1/23
f 40/1/23 16/1/23 13/1/23
f 44/1/24 40/1/24 13/1/24
f 44/1/24 13/1/24 43/1/24
f 37/1/25 41/1/25 14/1/25
f 37/1/25 14/1/25 29/1/25
f 9/1/26 7/1/26 46/1/26
f 9/1/26 46/1/26 45/1/26
f 42/1/27 11/1/27 9/1/27
f 42/1/27 9/1/27 45/1/27
f 45/1/28 46/1/28 8/1/28
f 45/1/28 8/1/28 10/1/28
f 12/1/29 42/1/29 45/1/29
f 12/1/29 45/1/29 10/1/29
f 41/1/30 44/1/30 43/1/30
f 41/1/30 43/1/30 14/1/30
f 12/1/31 14/1/31 43/1/31
f 12/1/31 43/1/31 42/1/31
f 2/1/32 1/1/32 47/1/32
f 2/1/32 47/1/32 48/1/32
f 15/1/33 3/1/33 49/1/33
f 15/1/33 49/1/33 50/1/33
f 38/1/34 32/1/34 8/1/34
f 38/1/34 8/1/34 52/1/34
f 28/1/35 38/1/35 52/1/35
f 28/1/35 52/1/35 51/1/35
f 3/1/36 2/1/36 48/1/36
f 3/1/36 48/1/36 49/1/36
f 25/1/37 15/1/37 50/1/37
f 25/1/37 50/1/37 26/1/37
f 1/1/38 28/1/38 51/1/38
f 1/1/38 51/1/38 47/1/38
f 55/1/39 8/1/39 46/1/39
f 55/1/39 46/1/39 54/1/39
f 54/1/40 46/1/40 7/1/40
f 54/1/40 7/1/40 53/1/40
f 48/1/41 47/1/41 59/1/41
f 48/1/41 59/1/41 60/1/41
f 26/1/42 50/1/42 62/1/42
f 26/1/42 62/1/42 58/1/42
f 51/1/43 52/1/43 64/1/43
f 51/1/43 64/1/43 63/1/43
f 8/1/44 55/1/44 67/1/44
f 8/1/44 67/1/44 57/1/44
f 53/1/45 7/1/45 56/1/45
f 53/1/45 56/1/45 65/1/45
f 54/1/46 53/1/46 65/1/46
f 54/1/46 65/1/46 66/1/46
f 50/1/47 49/1/47 61/1/47
f 50/1/47 61/1/47 62/1/47
f 47/1/48 51/1/48 63/1/48
f 47/1/48 63/1/48 59/1/48
f 7/1/49 26/1/49 58/1/49
f 7/1/49 58/1/49 56/1/49
f 55/1/50 54/1/50 66/1/50
f 55/1/50 66/1/50 67/1/50
f 49/1/51 48/1/51 60/1/51
f 49/1/51 60/1/51 61/1/51
f 52/1/52 8/1/52 57/1/52
f 52/1/52 57/1/52 64/1/52
f 67/1/53 66/1/53 69/1/53
f 67/1/53 69/1/53 57/1/53
f 66/1/54 65/1/54 56/1/54
f 66/1/54 56/1/54 69/1/54
f 62/1/55 61/1/55 74/1/55
f 62/1/55 74/1/55 75/1/55
f 56/1/56 58/1/56 71/1/56
f 56/1/56 71/1/56 70/1/56
f 59/1/57 63/1/57 76/1/57
f 59/1/57 76/1/57 72/1/57
f 57/1/58 69/1/58 78/1/58
f 57/1/58 78/1/58 68/1/58
f 61/1/59 60/1/59 73/1/59
f 61/1/59 73/1/59 74/1/59
f 64/1/60 57/1/60 68/1/60
f 64/1/60 68/1/60 77/1/60
f 63/1/61 64/1/61 77/1/61
f 63/1/61 77/1/61 76/1/61
f 69/1/62 56/1/62 70/1/62
f 69/1/62 70/1/62 78/1/62
f 60/1/63 59/1/63 72/1/63
f 60/1/63 72/1/63 73/1/63
f 58/1/64 62/1/64 75/1/64
f 58/1/64 75/1/64 71/1/64
f 82/1/65 99/1/65 89/1/65
f 82/1/65 89/1/65 96/1/65
f 93/1/66 98/1/66 97/1/66
f 93/1/66 97/1/66 94/1/66
f 79/1/67 97/1/67 98/1/68
f 79/1/67 98/1/68 96/1/68
f 80/1/69 79/1/69 96/1/69
f 80/1/69 96/1/69 89/1/69
f 95/1/70 97/1/67 79/1/67
f 95/1/70 79/1/67 91/1/70
f 79/1/71 80/1/71 90/1/71
f 79/1/71 90/1/71 91/1/71
f 84/1/72 88/1/72 91/1/72
f 84/1/72 91/1/72 90/1/72
f 87/1/73 86/1/73 93/1/73
f 87/1/73 93/1/73 94/1/73
f 88/1/74 81/1/74 95/1/74
f 88/1/74 95/1/74 91/1/74
f 86/1/75 83/1/75 98/1/75
f 86/1/75 98/1/75 93/1/75
f 100/1/76 87/1/76 94/1/76
f 100/1/76 94/1/76 92/1/76
f 94/1/77 97/1/77 95/1/77
f 94/1/77 95/1/77 92/1/77
f 85/1/78 84/1/78 90/1/78
f 85/1/78 90/1/78 80/1/78
f 81/1/79 100/1/79 92/1/79
f 81/1/79 92/1/79 95/1/79
f 99/1/80 85/1/80 80/1/80
f 99/1/80 80/1/80 89/1/80
f 83/1/81 82/1/81 96/1/81
f 83/1/81 96/1/81 98/1/81
f 102/1/82 105/1/82 106/1/82
f 102/1/82 106/1/82 103/1/82
f 101/1/83 104/1/83 105/1/83
f 101/1/83 105/1/83 102/1/83
f 142/1/84 111/1/84 113/1/84
f 142/1/84 113/1/84 143/1/84
f 122/1/85 117/1/85 119/1/85
f 122/1/85 119/1/85 120/1/85
f 123/1/86 118/1/86 117/1/86
f 123/1/86 117/1/86 122/1/86
f 124/1/87 116/1/87 118/1/87
f 124/1/87 118/1/87 123/1/87
f 117/1/88 109/1/88 107/1/88
f 117/1/88 107/1/88 119/1/88
f 118/1/89 111/1/89 109/1/89
f 118/1/89 109/1/89 117/1/89
f 116/1/90 113/1/90 111/1/90
f 116/1/90 111/1/90 118/1/90
f 119/1/91 107/1/91 126/1/91
f 119/1/91 126/1/91 125/1/91
f 120/1/92 119/1/92 125/1/92
f 120/1/92 125/1/92 127/1/92
f 139/1/93 134/1/93 128/1/93
f 139/1/93 128/1/93 138/1/93
f 135/1/94 133/1/94 132/1/94
f 135/1/94 132/1/94 130/1/94
f 136/1/95 135/1/95 130/1/95
f 136/1/95 130/1/95 131/1/95
f 137/1/96 136/1/96 131/1/96
f 137/1/96 131/1/96 129/1/96
f 121/1/97 115/1/97 103/1/97
f 121/1/97 103/1/97 106/1/97
f 130/1/98 132/1/98 108/1/98
f 130/1/98 108/1/98 110/1/98
f 131/1/99 130/1/99 110/1/99
f 131/1/99 110/1/99 112/1/99
f 129/1/100 131/1/100 112/1/100
f 129/1/100 112/1/100 114/1/100
f 101/1/101 128/1/101 134/1/101
f 101/1/101 134/1/101 104/1/101
f 127/1/102 125/1/102 115/1/102
f 127/1/102 115/1/102 121/1/102
f 133/1/103 139/1/103 138/1/103
f 133/1/103 138/1/103 132/1/103
f 140/1/104 113/1/104 116/1/104
f 140/1/104 116/1/104 124/1/104
f 144/1/105 143/1/105 113/1/105
f 144/1/105 113/1/105 140/1/105
f 137/1/106 129/1/106 114/1/106
f 137/1/106 114/1/106 141/1/106
f 109/1/107 145/1/107 146/1/107
f 109/1/107 146/1/107 107/1/107
f 142/1/108 145/1/108 109/1/108
f 142/1/108 109/1/108 111/1/108
f 145/1/109 110/1/109 108/1/109
f 145/1/109 108/1/109 146/1/109
f 112/1/110 110/1/110 145/1/110
f 112/1/110 145/1/110 142/1/110
f 141/1/111 114/1/111 143/1/111
f 141/1/111 143/1/111 144/1/111
f 112/1/112 142/1/112 143/1/112
f 112/1/112 143/1/112 114/1/112
f 102/1/113 148/1/113 147/1/113
f 102/1/113 147/1/113 101/1/113
f 115/1/114 150/1/114 149/1/114
f 115/1/114 149/1/114 103/1/114
f 138/1/115 152/1/115 108/1/115
f 138/1/115 108/1/115 132/1/115
f 128/1/116 151/1/116 152/1/116
f 128/1/116 152/1/116 138/1/116
f 103/1/117 149/1/117 148/1/117
f 103/1/117 148/1/117 102/1/117
f 125/1/118 126/1/118 150/1/118
f 125/1/118 150/1/118 115/1/118
f 101/1/119 147/1/119 151/1/119
f 101/1/119 151/1/119 128/1/119
f 155/1/120 154/1/120 146/1/120
f 155/1/120 146/1/120 108/1/120
f 154/1/121 153/1/121 107/1/121
f 154/1/121 107/1/121 146/1/121
f 148/1/122 160/1/122 159/1/122
f 148/1/122 159/1/122 147/1/122
f 126/1/123 158/1/123 162/1/123
f 126/1/123 162/1/123 150/1/123
f 151/1/124 163/1/124 164/1/124
f 151/1/124 164/1/124 152/1/124
f 108/1/125 157/1/125 167/1/125
f 108/1/125 167/1/125 155/1/125
f 153/1/126 165/1/126 156/1/126
f 153/1/126 156/1/126 107/1/126
f 154/1/127 166/1/127 165/1/127
f 154/1/127 165/1/127 153/1/127
f 150/1/128 162/1/128 161/1/128
f 150/1/128 161/1/128 149/1/128
f 147/1/129 159/1/129 163/1/129
f 147/1/129 163/1/129 151/1/129
f 107/1/130 156/1/130 158/1/130
f 107/1/130 158/1/130 126/1/130
f 155/1/131 167/1/131 166/1/131
f 155/1/131 166/1/131 154/1/131
f 149/1/132 161/1/132 160/1/132
f 149/1/132 160/1/132 148/1/132
f 152/1/133 164/1/133 157/1/133
f 152/1/133 157/1/133 108/1/133
f 167/1/134 157/1/134 169/1/134
f 167/1/134 169/1/134 166/1/134
f 166/1/135 169/1/135 156/1/135
f 166/1/135 156/1/135 165/1/135
f 162/1/136 175/1/136 174/1/136
f 162/1/136 174/1/136 161/1/136
f 156/1/137 170/1/137 171/1/137
f 156/1/137 171/1/137 158/1/137
f 159/1/138 172/1/138 176/1/138
f 159/1/138 176/1/138 163/1/138
f 157/1/139 168/1/139 178/1/139
f 157/1/139 178/1/139 169/1/139
f 161/1/140 174/1/140 173/1/140
f 161/1/140 173/1/140 160/1/140
f 164/1/141 177/1/141 168/1/141
f 164/1/141 168/1/141 157/1/141
f 163/1/142 176/1/142 177/1/142
f 163/1/142 177/1/142 164/1/142
f 169/1/143 178/1/143 170/1/143
f 169/1/143 170/1/143 156/1/143
f 160/1/144 173/1/144 172/1/144
f 160/1/144 172/1/144 159/1/144
f 158/1/145 171/1/145 175/1/145
f 158/1/145 175/1/145 162/1/145
f 182/1/146 196/1/146 189/1/146
f 182/1/146 189/1/146 199/1/146
f 193/1/147 194/1/147 197/1/147
f 193/1/147 197/1/147 198/1/147
f 179/1/148 196/1/149 198/1/149
f 179/1/148 198/1/149 197/1/148
f 180/1/150 189/1/150 196/1/150
f 180/1/150 196/1/150 179/1/150
f 195/1/151 191/1/151 179/1/148
f 195/1/151 179/1/148 197/1/148
f 179/1/152 191/1/152 190/1/152
f 179/1/152 190/1/152 180/1/152
f 184/1/153 190/1/153 191/1/153
f 184/1/153 191/1/153 188/1/153
f 187/1/154 194/1/154 193/1/154
f 187/1/154 193/1/154 186/1/154
f 188/1/155 191/1/155 195/1/155
f 188/1/155 195/1/155 181/1/155
f 186/1/156 193/1/156 198/1/156
f 186/1/156 198/1/156 183/1/156
f 200/1/157 192/1/157 194/1/157
f 200/1/157 194/1/157 187/1/157
f 194/1/158 192/1/158 195/1/158
f 194/1/158 195/1/158 197/1/158
f 185/1/159 180/1/159 190/1/159
f 185/1/159 190/1/159 184/1/159
f 181/1/160 195/1/160 192/1/160
f 181/1/160 192/1/160 200/1/160
f 199/1/161 189/1/161 180/1/161
f 199/1/161 180/1/161 185/1/161
f 183/1/162 198/1/162 196/1/162
f 183/1/162 196/1/162 182/1/162
