# prebaked split of model.obj material Skin_Darker
mtllib Skin_Darker.mtl
usemtl Skin_Darker
v 0.040032 1.523931 0.142809
v 0.030595 1.517249 0.147410
v 0.042810 1.528580 0.132885
v 0.069156 1.564010 0.174296
v 0.048014 1.548803 0.201473
v 0.077411 1.577427 0.149668
v 0.083267 1.601851 0.174652
v 0.089296 1.615088 0.151518
v 0.093693 1.651476 0.158300
v 0.089388 1.640001 0.178622
v 0.059116 1.540383 0.165062
v 0.054754 1.533092 0.156945
v 0.039479 1.507080 0.188818
v 0.041248 1.513150 0.197595
v 0.067098 1.554450 0.146196
v 0.061158 1.545059 0.140450
v 0.004006 1.516043 0.147192
v -0.032008 1.523788 0.142476
v -0.022589 1.517142 0.147165
v -0.034714 1.528426 0.132526
v 0.003642 1.543342 0.213896
v -0.061587 1.563745 0.173690
v -0.040635 1.548623 0.201062
v -0.069668 1.577127 0.148985
v -0.075856 1.601526 0.173912
v -0.081726 1.614738 0.150722
v -0.086337 1.651104 0.157466
v -0.082173 1.639647 0.177827
v 0.003815 1.500295 0.195381
v 0.003760 1.506361 0.204622
v -0.051364 1.540159 0.164551
v -0.046898 1.532888 0.156474
v -0.031813 1.506936 0.188488
v -0.033688 1.512998 0.197248
v -0.059228 1.554195 0.145611
v -0.053197 1.544829 0.139921
vt 0.000000 0.000000
vn 0.880700 -0.325700 0.343900
vn 0.906100 -0.416200 0.075200
vn 0.680400 -0.703300 -0.205800
vn 0.600100 -0.753400 -0.268700
vn 0.940000 -0.326500 0.098900
vn 0.093400 -0.954000 -0.285000
vn 0.977100 -0.158400 0.142300
vn 0.859900 -0.509800 -0.025500
vn 0.877500 -0.476100 0.058000
vn 0.248600 -0.814200 0.524700
vn 0.254200 -0.194800 0.947300
vn -0.882500 -0.329300 0.335700
vn -0.905100 -0.420000 0.066800
vn -0.675600 -0.706100 -0.212200
vn -0.594600 -0.755800 -0.274300
vn -0.939500 -0.330400 0.090200
vn -0.086900 -0.954300 -0.285900
vn -0.977700 -0.162500 0.133200
vn -0.857500 -0.513300 -0.033500
vn -0.876100 -0.479600 0.049900
vn -0.250100 -0.815200 0.522400
vn -0.262200 -0.195800 0.944900
f 14/1/1 11/1/1 4/1/1
f 14/1/1 4/1/1 5/1/1
f 11/1/2 15/1/2 6/1/2
f 11/1/2 6/1/2 4/1/2
f 1/1/3 3/1/3 16/1/3
f 1/1/3 16/1/3 12/1/3
f 2/1/4 1/1/4 12/1/4
f 2/1/4 12/1/4 13/1/4
f 4/1/5 6/1/5 8/1/5
f 4/1/5 8/1/5 7/1/5
f 17/1/6 2/1/6 13/1/6
f 17/1/6 13/1/6 29/1/6
f 7/1/7 8/1/7 9/1/7
f 7/1/7 9/1/7 10/1/7
f 15/1/8 11/1/8 12/1/8
f 15/1/8 12/1/8 16/1/8
f 11/1/9 14/1/9 13/1/9
f 11/1/9 13/1/9 12/1/9
f 14/1/10 30/1/10 29/1/10
f 14/1/10 29/1/10 13/1/10
f 30/1/11 14/1/11 5/1/11
f 30/1/11 5/1/11 21/1/11
f 34/1/12 23/1/12 22/1/12
f 34/1/12 22/1/12 31/1/12
f 31/1/13 22/1/13 24/1/13
f 31/1/13 24/1/13 35/1/13
f 18/1/14 32/1/14 36/1/14
f 18/1/14 36/1/14 20/1/14
f 19/1/15 33/1/15 32/1/15
f 19/1/15 32/1/15 18/1/15
f 22/1/16 25/1/16 26/1/16
f 22/1/16 26/1/16 24/1/16
f 17/1/17 29/1/17 33/1/17
f 17/1/17 33/1/17 19/1/17
f 25/1/18 28/1/18 27/1/18
f 25/1/18 27/1/18 26/1/18
f 35/1/19 36/1/19 32/1/19
f 35/1/19 32/1/19 31/1/19
f 31/1/20 32/1/20 33/1/20
f 31/1/20 33/1/20 34/1/20
f 34/1/21 33/1/21 29/1/21
f 34/1/21 29/1/21 30/1/21
f 30/1/22 21/1/22 23/1/22
f 30/1/22 23/1/22 34/1/22
