# prebaked split of model.obj material Eye
mtllib Eye.mtl
usemtl Eye
v 0.043461 1.691955 0.234227
v 0.042533 1.711280 0.241154
v 0.037324 1.698312 0.215672
v 0.036398 1.717637 0.222601
v 0.063051 1.694862 0.228742
v 0.062125 1.714187 0.235671
v 0.056915 1.701219 0.210189
v 0.055988 1.720543 0.217117
v -0.036216 1.691791 0.233857
v -0.035433 1.711120 0.240793
v -0.029934 1.698174 0.215361
v -0.029151 1.717502 0.222297
v -0.055767 1.694616 0.228191
v -0.054983 1.713944 0.235127
v -0.049485 1.700999 0.209696
v -0.048702 1.720327 0.216631
vt 0.000000 0.000000
vn -0.953300 -0.141400 0.266800
vn -0.298600 0.309300 -0.902900
vn 0.953300 0.141400 -0.266800
vn 0.298600 -0.309300 0.902900
vn 0.045100 -0.940400 -0.337100
vn -0.045100 0.940400 0.337100
vn 0.951400 -0.137500 0.275700
vn 0.305700 0.310600 -0.900100
vn -0.951400 0.137500 -0.275700
vn -0.305700 -0.310600 0.900100
vn -0.038100 -0.940600 -0.337500
vn 0.038100 0.940600 0.337500
f 1/1/1 2/1/1 4/1/1
f 1/1/1 4/1/1 3/1/1
f 3/1/2 4/1/2 8/1/2
f 3/1/2 8/1/2 7/1/2
f 7/1/3 8/1/3 6/1/3
f 7/1/3 6/1/3 5/1/3
f 5/1/4 6/1/4 2/1/4
f 5/1/4 2/1/4 1/1/4
f 3/1/5 7/1/5 5/1/5
f 3/1/5 5/1/5 1/1/5
f 8/1/6 4/1/6 2/1/6
f 8/1/6 2/1/6 6/1/6
f 9/1/7 11/1/7 12/1/7
f 9/1/7 12/1/7 10/1/7
f 11/1/8 15/1/8 16/1/8
f 11/1/8 16/1/8 12/1/8
f 15/1/9 13/1/9 14/1/9
f 15/1/9 14/1/9 16/1/9
f 13/1/10 9/1/10 10/1/10
f 13/1/10 10/1/10 14/1/10
f 11/1/11 9/1/11 13/1/11
f 11/1/11 13/1/11 15/1/11
f 16/1/12 14/1/12 10/1/12
f 16/1/12 10/1/12 12/1/12
