# prebaked split of model.obj material Details
mtllib Details.mtl
usemtl Details
v 0.109625 0.977040 0.128096
v 0.258553 0.875126 0.050624
v 0.286249 0.880753 0.054515
v 0.247484 0.887857 0.114670
v 0.279545 0.888071 0.082564
v 0.271488 0.891148 0.117007
v 0.243916 0.878088 0.078075
v 0.243233 0.885748 0.103068
v 0.265598 0.877931 0.049951
v -0.111365 0.977895 0.128548
v -0.284581 0.868668 -0.000187
v -0.312010 0.875328 0.003954
v -0.273233 0.866574 0.066523
v -0.306076 0.876346 0.033091
v -0.296685 0.872180 0.070486
v -0.270947 0.864621 0.027660
v -0.269688 0.866389 0.054296
v -0.291401 0.872040 -0.000480
v -0.001681 0.956991 0.158938
v 0.240883 0.899058 0.074529
v -0.264900 0.882466 0.056303
v -0.310916 0.891587 0.002939
v -0.282667 0.885433 -0.001297
v -0.304779 0.892349 0.034009
v -0.295111 0.888658 0.072855
v -0.271392 0.883110 0.069726
v -0.289837 0.888376 -0.001643
v -0.267379 0.881255 0.028317
v -0.001711 0.968449 0.154930
v 0.265120 0.898067 0.044220
v 0.246074 0.909163 0.115437
v 0.270144 0.912890 0.117628
v 0.279298 0.908313 0.079526
v 0.257666 0.895838 0.044830
v 0.286353 0.900793 0.049016
v 0.238490 0.906453 0.102019
v 0.047592 1.567889 0.033039
v 0.048779 1.575197 -0.002029
v 0.036680 1.578445 -0.026695
v 0.026977 1.557099 0.071254
v 0.041846 1.563990 0.054756
v -0.003142 1.578034 -0.038146
v 0.101280 1.560755 0.059608
v 0.104494 1.568171 -0.015152
v 0.081086 1.570931 -0.045579
v 0.112155 1.565582 0.025366
v -0.003274 1.562183 -0.056405
v 0.064541 1.540146 0.077729
v 0.093705 1.526477 0.084471
v 0.106926 0.988154 0.123676
v -0.052506 1.567742 0.033358
v -0.054210 1.575040 -0.001684
v -0.042659 1.578369 -0.026314
v -0.031679 1.557091 0.071671
v -0.046489 1.563862 0.055094
v -0.104959 1.560249 0.059097
v -0.108198 1.566966 -0.015851
v -0.085506 1.569850 -0.046111
v -0.115621 1.564653 0.024558
v -0.068459 1.539769 0.077945
v -0.096819 1.525431 0.084484
v -0.109146 0.988850 0.124069
v 0.065872 1.565673 0.056291
v 0.071859 1.575315 -0.005899
v 0.055030 1.577939 -0.032456
v 0.073996 1.570148 0.030845
v -0.003184 1.573210 -0.043950
v 0.041411 1.552979 0.073093
v -0.069929 1.565323 0.055980
v -0.076381 1.574684 -0.006302
v -0.060206 1.577418 -0.032695
v -0.078113 1.569629 0.030370
v -0.045658 1.552776 0.073255
vt 0.000000 0.000000
vt 0.777054 0.594062
vt 0.602897 0.638276
vt 0.599462 0.619283
vt 0.777054 0.575026
vt 0.954643 0.619283
vt 0.951208 0.638276
vt 0.893376 0.504924
vt 0.865672 0.489288
vt 0.877160 0.433692
vt 0.909423 0.446544
vt 0.781038 0.555930
vt 0.781038 0.536924
vt 0.841823 0.524403
vt 0.862951 0.543412
vt 0.911107 0.400742
vt 0.878072 0.398539
vt 0.865810 0.367810
vt 0.893319 0.359408
vt 0.921080 0.520561
vt 0.884080 0.562421
vt 0.944143 0.402945
vt 0.941686 0.459396
vt 0.668700 0.504924
vt 0.652653 0.446544
vt 0.684916 0.433692
vt 0.696404 0.489288
vt 0.699124 0.543412
vt 0.720253 0.524403
vt 0.650968 0.400742
vt 0.668757 0.359408
vt 0.696266 0.367810
vt 0.684004 0.398539
vt 0.677995 0.562421
vt 0.640996 0.520561
vt 0.620390 0.459396
vt 0.617933 0.402945
vt 0.599462 0.327824
vt 0.641248 0.351005
vt 0.962614 0.327824
vt 0.920828 0.351005
vt 0.781038 0.574936
vn 0.976200 0.048300 0.211500
vn 0.975100 0.049300 0.216300
vn 0.245100 -0.258900 -0.934300
vn 0.245300 -0.258800 -0.934300
vn -0.091900 0.001300 0.995800
vn -0.097800 -0.002900 0.995200
vn -0.188100 0.363800 0.912300
vn 0.901200 -0.240700 0.360400
vn -0.979300 0.073200 0.188600
vn -0.978300 0.073100 0.193700
vn -0.220200 -0.047100 -0.974300
vn -0.220300 -0.047100 -0.974300
vn 0.087700 -0.170600 0.981400
vn 0.096300 -0.172000 0.980400
vn 0.191700 0.363600 0.911600
vn -0.088200 -0.037700 0.995400
vn -0.887000 -0.126900 0.444000
vn 0.968600 -0.243100 -0.053000
vn 0.874400 -0.149800 -0.461500
vn -0.966900 0.060400 0.247900
vn -0.978300 0.073100 0.194000
vn -0.218200 -0.047300 -0.974800
vn 0.014000 -0.070000 -0.997400
vn 0.105500 -0.176100 0.978700
vn 0.009100 -0.271200 -0.962500
vn 0.243200 -0.259000 -0.934800
vn 0.975000 0.049400 0.216600
vn 0.973000 0.049900 0.225600
vn -0.869600 -0.184400 -0.458100
vn -0.982900 -0.183900 -0.004800
vn -0.026300 0.984800 0.171400
vn 0.037600 0.928800 -0.368600
vn 0.009100 0.857200 0.514900
vn 0.213000 0.975300 -0.058200
vn 0.131000 0.972400 0.193200
vn 0.004600 0.985500 0.169800
vn -0.045600 0.926600 -0.373200
vn -0.030600 0.852500 0.521800
vn -0.233800 0.970200 -0.064200
vn -0.141600 0.972400 0.185200
vn -0.100600 0.570700 0.815000
vn 0.080300 0.573500 0.815200
vn 0.060800 0.986500 0.152300
vn -0.056900 0.994600 0.087300
vn -0.099500 0.645300 0.757400
vn -0.018500 0.820400 -0.571500
vn -0.194700 0.978300 0.070400
vn -0.075000 0.985400 0.152900
vn 0.031700 0.994900 0.096200
vn 0.089500 0.637800 0.765000
vn 0.011300 0.822600 -0.568600
vn 0.178100 0.981100 0.075900
f 29/2/7 62/3/7 10/4/7
f 29/2/7 10/4/7 19/5/7
f 13/1/8 17/1/8 21/1/8
f 13/1/8 21/1/8 26/1/8
f 29/2/15 19/5/15 1/6/15
f 29/2/15 1/6/15 50/7/15
f 6/1/16 32/1/5 31/1/6
f 6/1/16 31/1/6 4/1/16
f 4/1/17 31/1/17 36/1/17
f 4/1/17 36/1/17 8/1/17
f 17/1/18 16/1/18 28/1/18
f 17/1/18 28/1/18 21/1/18
f 16/1/19 11/1/19 23/1/19
f 16/1/19 23/1/19 28/1/19
f 14/1/20 15/1/20 25/1/20
f 14/1/20 25/1/20 24/1/20
f 12/1/21 14/1/21 24/1/10
f 12/1/21 24/1/10 22/1/9
f 18/1/22 12/1/22 22/1/12
f 18/1/22 22/1/12 27/1/11
f 11/1/23 18/1/23 27/1/23
f 11/1/23 27/1/23 23/1/23
f 15/1/24 13/1/24 26/1/14
f 15/1/24 26/1/14 25/1/13
f 2/1/25 34/1/25 30/1/25
f 2/1/25 30/1/25 9/1/25
f 9/1/26 30/1/3 35/1/4
f 9/1/26 35/1/4 3/1/26
f 3/1/27 35/1/1 33/1/2
f 3/1/27 33/1/2 5/1/27
f 5/1/28 33/1/28 32/1/28
f 5/1/28 32/1/28 6/1/28
f 7/1/29 20/1/29 34/1/29
f 7/1/29 34/1/29 2/1/29
f 8/1/30 36/1/30 20/1/30
f 8/1/30 20/1/30 7/1/30
f 64/8/31 38/9/31 37/10/31
f 64/8/31 37/10/31 66/11/31
f 67/12/32 42/13/32 39/14/32
f 67/12/32 39/14/32 65/15/32
f 63/16/33 41/17/33 40/18/33
f 63/16/33 40/18/33 68/19/33
f 64/8/34 44/20/34 45/21/34
f 64/8/34 45/21/34 65/15/34
f 66/11/35 63/16/35 43/22/35
f 66/11/35 43/22/35 46/23/35
f 70/24/36 72/25/36 51/26/36
f 70/24/36 51/26/36 52/27/36
f 67/12/37 71/28/37 53/29/37
f 67/12/37 53/29/37 42/13/37
f 69/30/38 73/31/38 54/32/38
f 69/30/38 54/32/38 55/33/38
f 70/24/39 71/28/39 58/34/39
f 70/24/39 58/34/39 57/35/39
f 72/25/40 59/36/40 56/37/40
f 72/25/40 56/37/40 69/30/40
f 56/37/41 61/38/41 60/39/41
f 49/40/42 43/22/42 48/41/42
f 51/26/43 72/25/43 69/30/43
f 51/26/43 69/30/43 55/33/43
f 52/27/44 53/29/44 71/28/44
f 52/27/44 71/28/44 70/24/44
f 56/37/45 60/39/45 73/31/45
f 56/37/45 73/31/45 69/30/45
f 47/42/46 58/34/46 71/28/46
f 47/42/46 71/28/46 67/12/46
f 57/35/47 59/36/47 72/25/47
f 57/35/47 72/25/47 70/24/47
f 37/10/48 41/17/48 63/16/48
f 37/10/48 63/16/48 66/11/48
f 38/9/49 64/8/49 65/15/49
f 38/9/49 65/15/49 39/14/49
f 43/22/50 63/16/50 68/19/50
f 43/22/50 68/19/50 48/41/50
f 47/42/51 67/12/51 65/15/51
f 47/42/51 65/15/51 45/21/51
f 44/20/52 64/8/52 66/11/52
f 44/20/52 66/11/52 46/23/52
