# prebaked split of model.obj material Pants.003
mtllib Pants_003.mtl
usemtl Pants.003
v 0.149092 0.914590 0.016686
v 0.152253 0.930769 -0.047995
v 0.030101 0.894038 -0.080448
v 0.109069 0.901616 0.136812
v 0.106191 0.625803 0.117774
v 0.179162 0.640268 0.021100
v 0.175911 0.643390 -0.016564
v 0.074285 0.623620 0.001582
v 0.024714 0.856545 0.029284
v 0.070756 0.622117 0.073505
v 0.098894 0.516715 0.001490
v 0.169229 0.518061 -0.009611
v 0.097249 0.475480 0.077091
v 0.128097 0.471500 0.112594
v 0.198446 0.483812 0.025721
v 0.130991 0.521645 -0.019324
v 0.114058 0.922176 -0.079714
v 0.119148 0.632701 -0.019034
v 0.117676 0.547492 0.109646
v 0.190521 0.553410 0.028239
v 0.089892 0.531102 0.081038
v 0.134502 0.063617 -0.057401
v 0.134414 0.054100 -0.015914
v 0.211606 0.056814 -0.031780
v 0.153829 0.055839 0.007746
v 0.188674 0.064679 -0.067621
v 0.189815 0.057608 0.015976
v 0.156556 0.066705 -0.070058
v 0.043335 0.867991 0.147563
v 0.151600 0.980813 -0.049320
v 0.150543 0.983936 0.027424
v 0.109625 0.977040 0.128096
v 0.048004 0.900851 0.151048
v 0.114705 0.991818 -0.099439
v 0.077982 1.007869 -0.122845
v 0.206217 0.077672 -0.029009
v 0.130802 0.073428 -0.015039
v 0.136486 0.079407 -0.045562
v 0.160342 0.082082 -0.058363
v 0.178831 0.074263 0.004224
v 0.193131 0.082542 -0.055238
v 0.150597 0.072034 0.005676
v 0.110453 0.383458 -0.016601
v 0.106793 0.373183 0.053621
v 0.198384 0.382779 0.008915
v 0.132757 0.371259 0.071501
v 0.176240 0.386801 -0.023568
v 0.138810 0.386638 -0.032386
v 0.181172 0.477520 0.107106
v 0.156556 0.639487 0.110065
v 0.175827 0.372395 0.072698
v 0.165223 0.555518 0.102952
v 0.144263 0.258897 0.050341
v 0.169810 0.303350 -0.048604
v 0.140095 0.292978 -0.055778
v 0.114450 0.291204 -0.042169
v 0.113395 0.268974 0.024014
v 0.196062 0.277337 -0.006650
v 0.177010 0.257911 0.054238
v 0.050329 0.752385 -0.025174
v 0.083300 0.743668 0.142444
v 0.168443 0.783737 0.022000
v 0.164068 0.788778 -0.027293
v 0.042886 0.735441 0.072631
v 0.110583 0.779238 -0.040022
v 0.145974 0.771645 0.129879
v -0.161969 0.912936 0.024385
v -0.176156 0.928086 -0.041631
v -0.033874 0.893805 -0.085743
v -0.107277 0.902441 0.137683
v -0.074870 0.629951 0.117578
v -0.178179 0.637589 0.053167
v -0.188769 0.638986 0.016769
v -0.086605 0.623106 -0.002167
v -0.020749 0.856926 0.025112
v -0.057502 0.625177 0.063685
v -0.104793 0.516021 0.010451
v -0.174415 0.515056 0.025373
v -0.074360 0.478426 0.081678
v -0.090202 0.475671 0.127312
v -0.187485 0.482162 0.069335
v -0.142395 0.519117 0.002426
v -0.132979 0.920871 -0.080183
v -0.136234 0.629860 -0.005574
v -0.084990 0.551028 0.116828
v -0.182326 0.551000 0.067090
v -0.068576 0.534194 0.080899
v -0.139014 0.063969 -0.031030
v -0.126457 0.055057 0.009525
v -0.207559 0.056267 0.012788
v -0.143465 0.056173 0.039077
v -0.193199 0.062874 -0.021803
v -0.178460 0.057465 0.054565
v -0.164237 0.065951 -0.034965
v -0.032828 0.868815 0.145278
v -0.167088 0.979574 -0.046716
v -0.158775 0.983432 0.030259
v -0.111365 0.977895 0.128548
v -0.049183 0.901355 0.150348
v -0.129176 0.991117 -0.099683
v -0.090153 1.007533 -0.123953
v -0.197302 0.075842 0.019859
v -0.121319 0.074656 0.007502
v -0.137326 0.079862 -0.019265
v -0.164272 0.081352 -0.022702
v -0.160642 0.073942 0.041987
v -0.193802 0.080573 -0.008278
v -0.133293 0.072771 0.033978
v -0.116061 0.384946 -0.001473
v -0.087135 0.376196 0.062524
v -0.188976 0.381316 0.053479
v -0.104898 0.373511 0.088501
v -0.180081 0.385687 0.015258
v -0.148294 0.386760 -0.006167
v -0.142012 0.478824 0.139347
v -0.125215 0.641763 0.128026
v -0.144711 0.372911 0.105004
v -0.132090 0.557325 0.127415
v -0.001708 0.901563 0.154886
v -0.004986 0.896794 -0.089119
v -0.002748 0.863698 0.019562
v -0.001829 0.861481 0.138079
v -0.001681 0.956991 0.158938
v -0.003769 1.017648 -0.127319
v -0.118248 0.260440 0.072940
v -0.179348 0.302181 -0.010388
v -0.153724 0.292911 -0.027694
v -0.124859 0.292407 -0.024143
v -0.099281 0.271332 0.037315
v -0.187730 0.275813 0.038198
v -0.147371 0.258185 0.088278
v -0.075864 0.751439 -0.038923
v -0.052319 0.748975 0.130482
v -0.174275 0.781187 0.045208
v -0.187601 0.784178 -0.003788
v -0.036962 0.738956 0.050510
v -0.140367 0.775771 -0.034305
v -0.116890 0.774627 0.138574
v -0.123032 0.088102 0.046093
v -0.202987 0.098744 -0.016187
v -0.165265 0.099826 -0.035402
v -0.158623 0.087952 0.058076
v -0.129932 0.097878 -0.030938
v -0.107058 0.091843 0.009942
v -0.207452 0.093625 0.025115
v 0.145330 0.086921 0.020846
v 0.198083 0.101145 -0.065822
v 0.155923 0.100611 -0.070409
v 0.182789 0.088234 0.019886
v 0.124618 0.097108 -0.053659
v 0.117857 0.089994 -0.007353
v 0.217094 0.096025 -0.028062
v 0.097146 0.946252 -0.164280
v 0.185258 0.914409 -0.078330
v 0.141039 0.927268 -0.136951
v 0.184007 0.918160 0.012875
v -0.000429 0.957724 -0.168889
v 0.134859 0.909782 0.132886
v -0.103575 0.945713 -0.164523
v -0.195755 0.912500 -0.071853
v -0.150248 0.926189 -0.135354
v -0.185864 0.917112 0.019727
v -0.128899 0.910569 0.135199
vt 0.000000 0.000000
vn 0.224300 0.110200 0.968300
vn 0.999500 -0.009000 0.029000
vn 0.729900 -0.118400 -0.673200
vn 0.951700 0.156900 0.263800
vn 0.994000 0.074900 -0.080100
vn -0.006100 -0.999100 0.041000
vn -0.019600 -0.999000 0.040600
vn -0.010300 -0.999100 0.040500
vn -0.674500 -0.266700 0.688400
vn 0.153200 -0.096100 -0.983500
vn -0.798600 -0.232500 0.555200
vn 0.816900 0.113500 -0.565500
vn -0.971700 -0.223000 -0.077400
vn -0.974500 -0.212600 -0.071600
vn -0.974100 -0.217600 -0.062100
vn 0.160900 -0.072500 0.984300
vn 0.129000 -0.025100 -0.991300
vn 0.225000 -0.141400 0.964000
vn 0.951000 0.000400 -0.309300
vn -0.724000 -0.103000 0.682100
vn -0.338000 -0.568800 -0.749800
vn -0.461900 -0.075700 -0.883700
vn 0.698000 -0.553700 0.454100
vn 0.027300 -0.315000 -0.948700
vn 0.083800 0.570900 -0.816800
vn -0.119600 0.340600 0.932600
vn 0.939300 -0.017800 0.342700
vn 0.864600 0.201000 -0.460500
vn -0.996400 -0.016000 -0.083300
vn -0.446900 0.590300 -0.672200
vn 0.094300 -0.519100 -0.849500
vn 0.241100 0.111300 -0.964100
vn -0.972100 -0.218000 -0.086500
vn 0.226600 -0.134500 0.964700
vn -0.041100 -0.265300 0.963300
vn 0.963100 -0.088400 0.254100
vn 0.217600 -0.364200 -0.905600
vn 0.069500 -0.337000 -0.938900
vn -0.787800 -0.573200 -0.225300
vn -0.994900 -0.077900 -0.063700
vn -0.109100 -0.574300 0.811300
vn 0.954000 0.111900 0.278300
vn -0.627400 -0.227100 0.744900
vn -0.065700 -0.175200 0.982300
vn 0.849400 0.073000 -0.522800
vn 0.067400 -0.344500 0.936400
vn -0.988200 -0.124400 -0.089300
vn -0.522900 0.061000 -0.850200
vn -0.729900 -0.134300 0.670200
vn 0.972300 0.058100 0.226400
vn -0.743400 -0.121100 0.657800
vn 0.927100 -0.365700 -0.081800
vn 0.819400 0.099300 -0.564600
vn 0.759000 0.445100 0.475200
vn -0.059900 -0.949600 -0.307800
vn 0.111000 0.064700 0.991700
vn 0.883900 0.158000 -0.440200
vn -0.040200 -0.184300 0.982000
vn -0.692600 -0.133800 0.708800
vn -0.998200 -0.041400 -0.044400
vn 0.186200 0.254100 -0.949100
vn 0.951000 -0.052100 0.304900
vn -0.482200 0.210300 -0.850400
vn 0.938900 0.200800 0.279400
vn -0.977000 -0.183500 -0.108500
vn -0.253300 -0.194300 -0.947700
vn 0.175700 0.006400 0.984400
vn -0.982600 -0.089000 0.163300
vn 0.457100 -0.171600 -0.872700
vn 0.993400 0.114500 0.010700
vn 0.205300 0.044300 0.977700
vn 0.756800 -0.486300 0.436700
vn -0.209900 0.106300 0.971900
vn -0.981900 0.097700 0.162200
vn -0.746000 -0.055200 -0.663600
vn -0.799800 0.138100 0.584200
vn -0.961400 0.043700 0.271500
vn -0.001000 -0.999200 0.040400
vn 0.887200 -0.232300 0.398700
vn -0.483400 -0.150900 -0.862300
vn 0.951600 -0.175800 0.252100
vn -0.968700 0.064800 -0.239500
vn 0.891900 -0.201000 -0.405000
vn 0.895700 -0.192700 -0.400700
vn 0.896500 -0.190500 -0.399900
vn 0.205700 -0.029500 0.978200
vn -0.474400 -0.078600 -0.876800
vn 0.124300 -0.107100 0.986500
vn -0.997700 -0.042700 0.053100
vn 0.926200 -0.045500 0.374200
vn 0.073400 -0.562800 -0.823300
vn 0.117400 -0.106600 -0.987400
vn -0.480100 -0.570300 0.666600
vn -0.147100 -0.280600 -0.948500
vn -0.382500 0.563200 -0.732400
vn 0.352800 0.191000 0.916000
vn -0.900500 0.004200 0.434900
vn -0.916700 0.347000 -0.198300
vn 0.913600 -0.065500 -0.401400
vn 0.151100 0.597000 -0.787900
vn -0.367200 -0.531300 -0.763500
vn -0.573500 0.083600 -0.815000
vn 0.892800 -0.198700 -0.404300
vn -0.210600 -0.253000 0.944300
vn 0.006400 -0.287100 0.957900
vn -0.803900 -0.124900 0.581500
vn -0.223400 -0.349200 -0.910000
vn -0.019800 -0.313900 -0.949300
vn 0.683200 -0.547100 -0.483600
vn 0.910000 -0.038800 -0.412800
vn -0.794700 0.097800 0.599100
vn 0.861200 -0.189000 0.471800
vn 0.419500 -0.156200 0.894200
vn -0.982300 0.029800 -0.185000
vn 0.271100 -0.339300 0.900800
vn 0.895100 -0.098900 -0.434700
vn 0.183200 0.064500 -0.981000
vn 0.926500 -0.079900 0.367700
vn -0.835500 0.031800 0.548500
vn 0.855400 -0.275500 0.438700
vn -0.970600 0.056500 -0.233800
vn -0.581300 0.545000 0.604200
vn 0.137000 -0.941000 -0.309500
vn 0.232100 0.117800 0.965500
vn -0.988100 0.116000 -0.100600
vn 0.388700 -0.169000 0.905700
vn 0.902500 -0.096900 0.419600
vn 0.917100 -0.000600 -0.398600
vn -0.521000 0.232300 -0.821400
vn -0.776300 -0.085800 0.624500
vn 0.138700 0.218500 -0.965900
vn -0.869400 0.113600 0.480900
vn 0.907300 -0.287900 -0.306600
vn -0.072900 -0.230000 -0.970500
vn -0.019400 -0.053800 0.998400
vn 0.987600 -0.112000 0.110300
vn -0.616600 -0.181700 -0.766000
vn -0.958500 0.135900 0.250700
vn -0.213000 0.031000 0.976600
vn 0.597800 -0.526400 0.604600
vn 0.961200 -0.181900 0.207400
vn -0.815300 -0.282900 0.505300
vn 0.711900 -0.652800 0.259000
vn 0.199100 -0.721200 0.663500
vn -0.863200 -0.476500 -0.166600
vn 0.904600 0.007900 -0.426200
vn -0.491000 0.073100 -0.868100
vn -0.685200 -0.029200 0.727800
vn 0.125000 0.031700 -0.991600
vn -0.561000 -0.674000 0.480600
vn 0.064300 -0.727200 0.683400
vn 0.769000 -0.448200 -0.455700
vn -0.996600 -0.030200 -0.077100
vn 0.146600 0.095800 -0.984500
vn 0.898000 -0.001300 0.439900
vn -0.472200 0.027800 -0.881000
vn -0.600800 -0.568400 0.562100
vn 0.858000 -0.273900 -0.434400
vn -0.724700 -0.545700 0.420800
vn -0.858100 -0.351200 -0.374500
vn 0.099100 -0.562200 0.821100
vn -0.890800 -0.454400 0.006400
f 4/1/1 32/1/1 33/1/1
f 31/1/2 1/1/2 2/1/2
f 31/1/2 2/1/2 30/1/2
f 30/1/3 2/1/3 17/1/3
f 30/1/3 17/1/3 34/1/3
f 49/1/4 15/1/4 20/1/4
f 49/1/4 20/1/4 52/1/4
f 62/1/5 6/1/5 7/1/5
f 62/1/5 7/1/5 63/1/5
f 121/1/6 9/1/7 29/1/7
f 121/1/6 29/1/7 122/1/8
f 13/1/9 44/1/9 46/1/9
f 13/1/9 46/1/9 14/1/9
f 63/1/10 7/1/10 18/1/10
f 63/1/10 18/1/10 65/1/10
f 64/1/11 10/1/11 5/1/11
f 64/1/11 5/1/11 61/1/11
f 12/1/12 20/1/12 15/1/12
f 10/1/13 8/1/14 11/1/15
f 10/1/13 11/1/15 21/1/15
f 52/1/16 50/1/16 5/1/16
f 52/1/16 5/1/16 19/1/16
f 18/1/17 7/1/17 12/1/17
f 18/1/17 12/1/17 16/1/17
f 66/1/18 61/1/18 5/1/18
f 66/1/18 5/1/18 50/1/18
f 7/1/19 6/1/19 20/1/19
f 7/1/19 20/1/19 12/1/19
f 19/1/20 21/1/20 13/1/20
f 19/1/20 13/1/20 14/1/20
f 150/1/21 148/1/21 39/1/21
f 150/1/21 39/1/21 38/1/21
f 8/1/22 18/1/22 16/1/22
f 8/1/22 16/1/22 11/1/22
f 152/1/23 149/1/23 40/1/23
f 152/1/23 40/1/23 36/1/23
f 60/1/24 3/1/24 17/1/24
f 60/1/24 17/1/24 65/1/24
f 39/1/25 41/1/25 26/1/25
f 39/1/25 26/1/25 28/1/25
f 40/1/26 42/1/26 25/1/26
f 40/1/26 25/1/26 27/1/26
f 32/1/27 4/1/27 1/1/27
f 32/1/27 1/1/27 31/1/27
f 41/1/28 36/1/28 24/1/28
f 41/1/28 24/1/28 26/1/28
f 37/1/29 38/1/29 22/1/29
f 37/1/29 22/1/29 23/1/29
f 38/1/30 39/1/30 28/1/30
f 38/1/30 28/1/30 22/1/30
f 148/1/31 147/1/31 41/1/31
f 148/1/31 41/1/31 39/1/31
f 16/1/32 12/1/32 47/1/32
f 16/1/32 47/1/32 48/1/32
f 60/1/33 8/1/14 10/1/13
f 60/1/33 10/1/13 64/1/33
f 29/1/34 4/1/34 33/1/34
f 122/1/35 29/1/35 33/1/35
f 122/1/35 33/1/35 119/1/35
f 45/1/36 15/1/36 49/1/36
f 45/1/36 49/1/36 51/1/36
f 3/1/37 35/1/37 34/1/37
f 3/1/37 34/1/37 17/1/37
f 3/1/38 120/1/38 124/1/38
f 3/1/38 124/1/38 35/1/38
f 151/1/39 150/1/39 38/1/39
f 151/1/39 38/1/39 37/1/39
f 11/1/40 43/1/40 44/1/40
f 11/1/40 44/1/40 13/1/40
f 35/1/41 124/1/41 157/1/41
f 35/1/41 157/1/41 153/1/41
f 20/1/42 6/1/42 50/1/42
f 20/1/42 50/1/42 52/1/42
f 53/1/43 46/1/43 44/1/43
f 53/1/43 44/1/43 57/1/43
f 53/1/44 59/1/44 51/1/44
f 53/1/44 51/1/44 46/1/44
f 58/1/45 54/1/45 47/1/45
f 58/1/45 47/1/45 45/1/45
f 51/1/46 49/1/46 14/1/46
f 51/1/46 14/1/46 46/1/46
f 21/1/47 11/1/47 13/1/47
f 11/1/48 16/1/48 48/1/48
f 11/1/48 48/1/48 43/1/48
f 5/1/49 10/1/49 21/1/49
f 5/1/49 21/1/49 19/1/49
f 66/1/50 50/1/50 6/1/50
f 66/1/50 6/1/50 62/1/50
f 42/1/51 37/1/51 23/1/51
f 42/1/51 23/1/51 25/1/51
f 96/1/52 97/1/52 162/1/52
f 96/1/52 162/1/52 160/1/52
f 12/1/53 15/1/53 45/1/53
f 12/1/53 45/1/53 47/1/53
f 27/1/54 24/1/54 36/1/54
f 27/1/54 36/1/54 40/1/54
f 120/1/55 3/1/55 9/1/55
f 120/1/55 9/1/55 121/1/55
f 49/1/56 52/1/56 19/1/56
f 49/1/56 19/1/56 14/1/56
f 152/1/57 147/1/57 54/1/57
f 152/1/57 54/1/57 58/1/57
f 146/1/58 149/1/58 59/1/58
f 146/1/58 59/1/58 53/1/58
f 146/1/59 53/1/59 57/1/59
f 146/1/59 57/1/59 151/1/59
f 44/1/60 43/1/60 56/1/60
f 44/1/60 56/1/60 57/1/60
f 48/1/61 47/1/61 54/1/61
f 48/1/61 54/1/61 55/1/61
f 45/1/62 51/1/62 59/1/62
f 45/1/62 59/1/62 58/1/62
f 43/1/63 48/1/63 55/1/63
f 43/1/63 55/1/63 56/1/63
f 4/1/64 66/1/64 62/1/64
f 4/1/64 62/1/64 1/1/64
f 3/1/65 60/1/65 64/1/65
f 3/1/65 64/1/65 9/1/65
f 8/1/66 60/1/66 65/1/66
f 8/1/66 65/1/66 18/1/66
f 4/1/67 29/1/67 61/1/67
f 4/1/67 61/1/67 66/1/67
f 9/1/68 64/1/68 29/1/68
f 2/1/69 63/1/69 65/1/69
f 2/1/69 65/1/69 17/1/69
f 1/1/70 62/1/70 63/1/70
f 1/1/70 63/1/70 2/1/70
f 123/1/71 119/1/71 33/1/71
f 123/1/71 33/1/71 32/1/71
f 100/1/72 96/1/72 160/1/72
f 100/1/72 160/1/72 161/1/72
f 70/1/73 99/1/73 98/1/73
f 97/1/74 96/1/74 68/1/74
f 97/1/74 68/1/74 67/1/74
f 96/1/75 100/1/75 83/1/75
f 96/1/75 83/1/75 68/1/75
f 115/1/76 118/1/76 86/1/76
f 115/1/76 86/1/76 81/1/76
f 134/1/77 135/1/77 73/1/77
f 134/1/77 73/1/77 72/1/77
f 121/1/6 122/1/8 95/1/78
f 121/1/6 95/1/78 75/1/78
f 79/1/79 80/1/79 112/1/79
f 79/1/79 112/1/79 110/1/79
f 135/1/80 137/1/80 84/1/80
f 135/1/80 84/1/80 73/1/80
f 136/1/81 133/1/81 71/1/81
f 136/1/81 71/1/81 76/1/81
f 78/1/82 81/1/82 86/1/82
f 76/1/83 87/1/84 77/1/84
f 76/1/83 77/1/84 74/1/85
f 118/1/86 85/1/86 71/1/86
f 118/1/86 71/1/86 116/1/86
f 84/1/87 82/1/87 78/1/87
f 84/1/87 78/1/87 73/1/87
f 138/1/88 116/1/88 71/1/88
f 138/1/88 71/1/88 133/1/88
f 73/1/89 78/1/89 86/1/89
f 73/1/89 86/1/89 72/1/89
f 85/1/90 80/1/90 79/1/90
f 85/1/90 79/1/90 87/1/90
f 143/1/91 104/1/91 105/1/91
f 143/1/91 105/1/91 141/1/91
f 74/1/92 77/1/92 82/1/92
f 74/1/92 82/1/92 84/1/92
f 145/1/93 102/1/93 106/1/93
f 145/1/93 106/1/93 142/1/93
f 132/1/94 137/1/94 83/1/94
f 132/1/94 83/1/94 69/1/94
f 105/1/95 94/1/95 92/1/95
f 105/1/95 92/1/95 107/1/95
f 106/1/96 93/1/96 91/1/96
f 106/1/96 91/1/96 108/1/96
f 98/1/97 97/1/97 67/1/97
f 98/1/97 67/1/97 70/1/97
f 107/1/98 92/1/98 90/1/98
f 107/1/98 90/1/98 102/1/98
f 103/1/99 89/1/99 88/1/99
f 103/1/99 88/1/99 104/1/99
f 104/1/100 88/1/100 94/1/100
f 104/1/100 94/1/100 105/1/100
f 141/1/101 105/1/101 107/1/101
f 141/1/101 107/1/101 140/1/101
f 82/1/102 114/1/102 113/1/102
f 82/1/102 113/1/102 78/1/102
f 132/1/103 136/1/103 76/1/83
f 132/1/103 76/1/83 74/1/85
f 95/1/104 99/1/104 70/1/104
f 122/1/105 119/1/105 99/1/105
f 122/1/105 99/1/105 95/1/105
f 111/1/106 117/1/106 115/1/106
f 111/1/106 115/1/106 81/1/106
f 69/1/107 83/1/107 100/1/107
f 69/1/107 100/1/107 101/1/107
f 69/1/108 101/1/108 124/1/108
f 69/1/108 124/1/108 120/1/108
f 144/1/109 103/1/109 104/1/109
f 144/1/109 104/1/109 143/1/109
f 77/1/110 79/1/110 110/1/110
f 77/1/110 110/1/110 109/1/110
f 86/1/111 118/1/111 116/1/111
f 86/1/111 116/1/111 72/1/111
f 125/1/112 129/1/112 110/1/112
f 125/1/112 110/1/112 112/1/112
f 125/1/113 112/1/113 117/1/113
f 125/1/113 117/1/113 131/1/113
f 130/1/114 111/1/114 113/1/114
f 130/1/114 113/1/114 126/1/114
f 117/1/115 112/1/115 80/1/115
f 117/1/115 80/1/115 115/1/115
f 87/1/116 79/1/116 77/1/116
f 77/1/117 109/1/117 114/1/117
f 77/1/117 114/1/117 82/1/117
f 71/1/118 85/1/118 87/1/118
f 71/1/118 87/1/118 76/1/118
f 138/1/119 134/1/119 72/1/119
f 138/1/119 72/1/119 116/1/119
f 108/1/120 91/1/120 89/1/120
f 108/1/120 89/1/120 103/1/120
f 78/1/121 113/1/121 111/1/121
f 78/1/121 111/1/121 81/1/121
f 93/1/122 106/1/122 102/1/122
f 93/1/122 102/1/122 90/1/122
f 120/1/123 121/1/123 75/1/123
f 120/1/123 75/1/123 69/1/123
f 115/1/124 80/1/124 85/1/124
f 115/1/124 85/1/124 118/1/124
f 145/1/125 130/1/125 126/1/125
f 145/1/125 126/1/125 140/1/125
f 139/1/126 125/1/126 131/1/126
f 139/1/126 131/1/126 142/1/126
f 139/1/127 144/1/127 129/1/127
f 139/1/127 129/1/127 125/1/127
f 110/1/128 129/1/128 128/1/128
f 110/1/128 128/1/128 109/1/128
f 114/1/129 127/1/129 126/1/129
f 114/1/129 126/1/129 113/1/129
f 111/1/130 130/1/130 131/1/130
f 111/1/130 131/1/130 117/1/130
f 109/1/131 128/1/131 127/1/131
f 109/1/131 127/1/131 114/1/131
f 70/1/132 67/1/132 134/1/132
f 70/1/132 134/1/132 138/1/132
f 69/1/133 75/1/133 136/1/133
f 69/1/133 136/1/133 132/1/133
f 74/1/134 84/1/134 137/1/134
f 74/1/134 137/1/134 132/1/134
f 70/1/135 138/1/135 133/1/135
f 70/1/135 133/1/135 95/1/135
f 75/1/136 95/1/136 136/1/136
f 68/1/137 83/1/137 137/1/137
f 68/1/137 137/1/137 135/1/137
f 67/1/138 68/1/138 135/1/138
f 67/1/138 135/1/138 134/1/138
f 123/1/139 98/1/139 99/1/139
f 123/1/139 99/1/139 119/1/139
f 101/1/140 100/1/140 161/1/140
f 101/1/140 161/1/140 159/1/140
f 136/1/141 95/1/141 133/1/141
f 29/1/142 64/1/142 61/1/142
f 108/1/143 103/1/143 144/1/143
f 108/1/143 144/1/143 139/1/143
f 108/1/144 139/1/144 142/1/144
f 108/1/144 142/1/144 106/1/144
f 102/1/145 145/1/145 140/1/145
f 102/1/145 140/1/145 107/1/145
f 129/1/146 144/1/146 143/1/146
f 129/1/146 143/1/146 128/1/146
f 127/1/147 141/1/147 140/1/147
f 127/1/147 140/1/147 126/1/147
f 130/1/148 145/1/148 142/1/148
f 130/1/148 142/1/148 131/1/148
f 128/1/149 143/1/149 141/1/149
f 128/1/149 141/1/149 127/1/149
f 42/1/150 146/1/150 151/1/150
f 42/1/150 151/1/150 37/1/150
f 42/1/151 40/1/151 149/1/151
f 42/1/151 149/1/151 146/1/151
f 36/1/152 41/1/152 147/1/152
f 36/1/152 147/1/152 152/1/152
f 57/1/153 56/1/153 150/1/153
f 57/1/153 150/1/153 151/1/153
f 55/1/154 54/1/154 147/1/154
f 55/1/154 147/1/154 148/1/154
f 58/1/155 59/1/155 149/1/155
f 58/1/155 149/1/155 152/1/155
f 56/1/156 55/1/156 148/1/156
f 56/1/156 148/1/156 150/1/156
f 34/1/157 35/1/157 153/1/157
f 34/1/157 153/1/157 155/1/157
f 97/1/158 98/1/158 163/1/158
f 97/1/158 163/1/158 162/1/158
f 30/1/159 34/1/159 155/1/159
f 30/1/159 155/1/159 154/1/159
f 32/1/160 31/1/160 156/1/160
f 32/1/160 156/1/160 158/1/160
f 124/1/161 101/1/161 159/1/161
f 124/1/161 159/1/161 157/1/161
f 31/1/162 30/1/162 154/1/162
f 31/1/162 154/1/162 156/1/162
