# prebaked split of model.obj material Brown
mtllib Brown.mtl
usemtl Brown
v 0.026163 1.606003 0.218239
v 0.024932 1.624515 0.224868
v 0.020122 1.611995 0.200429
v 0.018891 1.630508 0.207058
v 0.045288 1.609085 0.213044
v 0.044058 1.627598 0.219673
v 0.039248 1.615077 0.195234
v 0.038017 1.633590 0.201863
v -0.053743 1.606119 0.217868
v -0.052520 1.624629 0.224509
v -0.047519 1.612094 0.200115
v -0.046296 1.630602 0.206756
v -0.072810 1.609258 0.212496
v -0.071588 1.627767 0.219137
v -0.066587 1.615232 0.194743
v -0.065363 1.633740 0.201384
vt 0.000000 0.000000
vn -0.950000 -0.159300 0.268600
vn -0.295100 0.304700 -0.905600
vn 0.950000 0.159300 -0.268600
vn 0.295100 -0.304700 0.905600
vn 0.060100 -0.939800 -0.336500
vn -0.060100 0.939800 0.336500
vn 0.947000 -0.162100 0.277400
vn 0.304400 0.303800 -0.902800
vn -0.947000 0.162100 -0.277400
vn -0.304400 -0.303800 0.902800
vn -0.059700 -0.939600 -0.337100
vn 0.059700 0.939600 0.337100
f 1/1/1 2/1/1 4/1/1
f 1/1/1 4/1/1 3/1/1
f 3/1/2 4/1/2 8/1/2
f 3/1/2 8/1/2 7/1/2
f 7/1/3 8/1/3 6/1/3
f 7/1/3 6/1/3 5/1/3
f 5/1/4 6/1/4 2/1/4
f 5/1/4 2/1/4 1/1/4
f 3/1/5 7/1/5 5/1/5
f 3/1/5 5/1/5 1/1/5
f 8/1/6 4/1/6 2/1/6
f 8/1/6 2/1/6 6/1/6
f 9/1/7 11/1/7 12/1/7
f 9/1/7 12/1/7 10/1/7
f 11/1/8 15/1/8 16/1/8
f 11/1/8 16/1/8 12/1/8
f 15/1/9 13/1/9 14/1/9
f 15/1/9 14/1/9 16/1/9
f 13/1/10 9/1/10 10/1/10
f 13/1/10 10/1/10 14/1/10
f 11/1/11 9/1/11 13/1/11
f 11/1/11 13/1/11 15/1/11
f 16/1/12 14/1/12 10/1/12
f 16/1/12 10/1/12 12/1/12
