# prebaked split of model.obj material model.003
mtllib model_003.mtl
usemtl model.003
v -0.046362 0.137418 -0.681690
v -0.057360 0.142732 -0.672048
v -0.049439 0.153211 -0.658999
v -0.068921 0.158201 -0.646194
v -0.088972 0.146571 -0.647570
v -0.057971 0.169045 -0.646156
v -0.040708 0.170742 -0.657236
v -0.017046 0.140788 -0.668022
v -0.045391 0.178370 -0.639664
v -0.094270 0.148450 -0.632613
v -0.032991 0.163296 -0.660524
v -0.060988 0.178268 -0.611279
v -0.053647 0.183318 -0.623050
v -0.079852 0.164279 -0.631501
v -0.030389 0.152309 -0.658635
v -0.041139 0.188359 -0.626931
v -0.056926 0.183995 -0.604608
v -0.118130 0.147368 -0.604690
v -0.020062 0.174322 -0.650659
v -0.073624 0.175786 -0.612879
v -0.012538 0.142166 -0.663411
v -0.011861 0.167355 -0.649308
v -0.038178 0.188840 -0.608216
v -0.101761 0.157436 -0.609660
v -0.049469 0.194453 -0.589643
v -0.048443 0.187346 -0.591320
v 0.005411 0.156034 -0.650538
v -0.054969 0.181146 -0.581974
v -0.086914 0.169732 -0.591863
v -0.051979 0.194233 -0.565189
v -0.109172 0.158495 -0.592893
v -0.026001 0.187130 -0.626049
v -0.018480 0.185880 -0.612442
v -0.036402 0.191801 -0.592344
v -0.045158 0.197932 -0.584160
v -0.070816 0.183295 -0.574089
v -0.067738 0.188536 -0.563468
v -0.063221 0.170846 -0.577107
v -0.042520 0.196192 -0.574145
v -0.123627 0.148326 -0.589486
v -0.011838 0.181537 -0.625606
v -0.031111 0.198040 -0.576172
v -0.037581 0.200198 -0.568252
v -0.054529 0.186921 -0.557392
v -0.070904 0.181805 -0.559385
v -0.107454 0.155212 -0.572754
v 0.005444 0.161074 -0.641721
v 0.000687 0.162004 -0.630028
v -0.030189 0.189220 -0.578762
v -0.064744 0.167606 -0.560963
v -0.017412 0.182935 -0.588621
v -0.065740 0.177641 -0.548524
v -0.062096 0.176206 -0.555285
v -0.096461 0.161310 -0.584906
v -0.120715 0.153972 -0.573070
v -0.037482 0.185705 -0.560162
v -0.074724 0.163526 -0.569623
v -0.010862 0.179200 -0.598887
v -0.021207 0.176078 -0.586576
v -0.021571 0.193127 -0.577506
v -0.056081 0.171721 -0.554731
v -0.061064 0.166114 -0.569254
v -0.025200 0.180629 -0.573599
v -0.084376 0.166000 -0.573477
v 0.014954 0.154116 -0.625175
v 0.005287 0.161670 -0.615369
v 0.009359 0.149782 -0.632112
v -0.000849 0.176210 -0.605275
v 0.006178 0.170549 -0.604217
v -0.017779 0.178827 -0.581012
v -0.017825 0.169344 -0.593488
v -0.080116 0.163458 -0.558356
v -0.091466 0.165229 -0.563181
v 0.010384 0.151653 -0.618621
v -0.001980 0.161540 -0.601871
v -0.015908 0.165131 -0.589151
v -0.055410 0.152976 -0.566496
v -0.073186 0.152952 -0.565156
v -0.106088 0.158604 -0.547367
v -0.073689 0.146438 -0.556617
v -0.092317 0.157586 -0.546525
vt 0.191982 0.055527
vt 0.191553 0.048879
vt 0.188365 0.032673
vt 0.188960 0.025786
vt 0.204278 0.059375
vt 0.765238 0.239115
vt 0.776536 0.231893
vt 0.782325 0.230241
vt 0.207010 0.058984
vt 0.217170 0.057043
vt 0.444340 0.944764
vt 0.443469 0.947646
vt 0.439771 0.948905
vt 0.788503 0.232061
vt 0.219149 0.053545
vt 0.223187 0.050527
vt 0.225501 0.056108
vt 0.437599 0.948342
vt 0.229696 0.029481
vt 0.232522 0.029626
vt 0.229149 0.034318
vt 0.233739 0.033984
vt 0.236391 0.035250
vt 0.233984 0.028795
vt 0.234345 0.023295
vt 0.227324 0.052819
vt 0.230167 0.052268
vt 0.466247 0.944215
vt 0.456831 0.948080
vt 0.788294 0.237456
vt 0.228354 0.047583
vt 0.230082 0.042417
vt 0.233235 0.043106
vt 0.797314 0.238752
vt 0.795528 0.254174
vt 0.793516 0.249469
vt 0.800647 0.253670
vt 0.797863 0.244507
vt 0.793514 0.260436
vt 0.197620 0.046410
vt 0.195238 0.036022
vt 0.204186 0.042925
vt 0.200547 0.036380
vt 0.206721 0.035543
vt 0.204733 0.047141
vt 0.203725 0.051551
vt 0.206437 0.021664
vt 0.195461 0.026946
vt 0.208574 0.027482
vt 0.212169 0.031658
vt 0.212011 0.045529
vt 0.773517 0.255407
vt 0.766865 0.246107
vt 0.773783 0.250777
vt 0.210892 0.020576
vt 0.774870 0.239406
vt 0.217717 0.026544
vt 0.216856 0.035290
vt 0.214025 0.049452
vt 0.218006 0.019075
vt 0.222930 0.022976
vt 0.455948 0.962414
vt 0.448089 0.962411
vt 0.452345 0.955114
vt 0.454029 0.964739
vt 0.450794 0.971252
vt 0.461798 0.963926
vt 0.437922 0.955588
vt 0.208836 0.010028
vt 0.781319 0.247355
vt 0.220865 0.040853
vt 0.458388 0.960159
vt 0.443770 0.955971
vt 0.446935 0.953272
vt 0.222635 0.034194
vt 0.444808 0.951743
vt 0.450523 0.950211
vt 0.786385 0.256451
vt 0.467384 0.953811
vt 0.458971 0.956952
vt 0.461918 0.953609
vt 0.458032 0.953898
vt 0.781153 0.237696
vt 0.445404 0.949107
vt 0.229423 0.021918
vt 0.783784 0.242974
vt 0.464060 0.951046
vt 0.789632 0.252136
vt 0.228868 0.038773
vt 0.787876 0.248244
vt 0.789436 0.257523
vt 0.791449 0.245447
vn -0.148000 0.813100 -0.563100
vn -0.174900 0.796300 -0.579100
vn -0.315700 0.745400 -0.587100
vn -0.116400 0.807700 -0.578000
vn -0.372900 0.713200 -0.593500
vn -0.463900 0.314300 -0.828300
vn -0.528900 0.506300 -0.681100
vn -0.478000 0.376700 -0.793500
vn -0.511800 0.519200 -0.684400
vn -0.369400 0.812400 -0.451100
vn -0.406500 0.823700 -0.395300
vn -0.399600 0.843800 -0.358300
vn 0.161600 0.820100 -0.548900
vn -0.212400 0.201900 -0.956100
vn -0.468800 0.840500 -0.271700
vn 0.045600 0.662200 -0.747900
vn -0.413900 0.882300 -0.224300
vn -0.418200 0.868400 -0.266300
vn 0.011000 -0.166800 -0.985900
vn -0.866500 0.151300 -0.475600
vn -0.576300 0.639700 -0.508600
vn -0.606400 0.617300 -0.501300
vn -0.450600 0.769200 -0.453000
vn 0.305200 0.788500 -0.534000
vn 0.169200 0.539500 -0.824800
vn -0.106300 0.861400 -0.496700
vn 0.603400 0.005800 -0.797400
vn -0.713900 0.683500 -0.152100
vn -0.590600 0.744200 -0.312100
vn -0.364600 0.930600 0.033800
vn -0.315900 0.948500 -0.023700
vn -0.306500 0.949500 -0.066700
vn -0.263600 0.961400 -0.078600
vn -0.029600 0.914000 -0.404600
vn -0.014300 0.870800 -0.491500
vn -0.048800 0.895600 -0.442200
vn -0.564500 0.766300 -0.306900
vn -0.000800 0.841500 -0.540200
vn 0.099300 0.766500 -0.634500
vn 0.161100 0.478800 -0.863000
vn 0.130500 0.481600 -0.866600
vn 0.043500 0.487100 -0.872200
vn -0.550400 0.805600 -0.219200
vn 0.314200 0.189700 -0.930200
vn -0.304800 0.947000 -0.101400
vn 0.246600 0.468400 -0.848400
vn -0.353900 0.925800 -0.133100
vn -0.938000 0.333900 -0.093200
vn -0.558500 0.815600 0.151000
vn -0.781800 0.616600 0.092900
vn -0.691300 0.707000 0.148800
vn 0.247300 0.958900 -0.139300
vn 0.083100 0.995800 -0.038800
vn 0.111000 0.987700 -0.110100
vn -0.158100 0.205200 -0.965900
vn -0.824300 0.014600 -0.565900
vn -0.768500 0.627700 0.124200
vn -0.845800 0.530200 0.059900
vn -0.187800 0.966600 0.174200
vn -0.208600 0.967000 0.146600
vn -0.210200 0.945900 0.247000
vn 0.351900 0.862400 -0.363900
vn 0.405100 0.894000 -0.191400
vn 0.051000 0.824700 -0.563300
vn -0.585500 0.808900 -0.052800
vn -0.352600 0.875700 -0.329800
vn -0.183200 0.790800 -0.583900
vn -0.588800 0.807600 0.033000
vn 0.310200 0.948300 -0.067700
vn 0.105000 0.975400 -0.193700
vn -0.255000 0.640500 0.724400
vn -0.276700 0.590200 0.758300
vn -0.221900 0.708100 0.670400
vn -0.214900 0.897300 0.385700
vn -0.578000 0.766400 -0.280400
vn 0.685200 0.624700 -0.374400
vn 0.631000 0.665400 -0.398800
vn 0.758500 0.572100 -0.312000
vn -0.082700 0.272900 -0.958500
vn -0.209100 0.255400 -0.944000
vn -0.124800 0.267600 -0.955400
vn -0.217200 0.882200 -0.417800
vn -0.033600 0.983200 0.179700
vn -0.594800 0.741800 -0.309700
vn -0.415300 0.875500 -0.247100
vn -0.200600 0.746600 0.634300
vn -0.215700 0.332800 0.918000
vn 0.470400 0.765400 -0.439200
vn 0.515300 0.853000 0.082300
vn 0.459500 0.881300 0.109900
vn 0.460900 0.887400 0.007600
vn 0.417100 0.908700 -0.018200
vn 0.510600 0.859400 -0.028900
vn 0.497600 0.867200 0.019600
vn -0.562000 -0.328200 0.759200
vn -0.894700 0.444900 0.039800
vn -0.451100 -0.059400 -0.890500
vn 0.319400 0.946000 0.054600
vn 0.777700 0.562300 -0.280900
vn -0.602000 0.788200 0.128200
vn -0.139700 0.982400 -0.123800
vn 0.011600 0.282900 -0.959100
vn 0.469100 0.871000 0.146000
vn -0.081200 0.946900 -0.311200
vn 0.163600 0.692400 0.702700
vn -0.691700 0.534000 -0.486200
vn -0.918300 -0.393300 -0.045300
vn -0.890500 -0.440300 -0.114300
vn -0.857600 -0.496400 -0.134400
vn -0.254000 0.857200 0.447900
vn -0.488300 0.853800 0.180800
vn -0.537200 0.824000 0.180100
vn -0.455900 0.871400 0.180900
vn 0.583300 -0.081800 0.808100
vn -0.016200 0.487300 0.873100
vn 0.137600 0.157100 0.977900
vn 0.035100 0.168800 0.985000
vn 0.094400 0.162300 0.982200
vn 0.583000 0.799600 0.144400
vn -0.829700 -0.527000 -0.184000
vn 0.293000 -0.361800 -0.885000
vn -0.721600 -0.662500 -0.201000
vn 0.793600 0.548900 -0.262400
vn 0.401800 0.890600 0.213100
vn 0.500700 0.854300 0.139600
vn 0.584500 0.398500 0.706800
vn 0.169200 0.153100 0.973600
vn 0.198900 0.971900 0.125700
vn 0.179600 0.968600 0.171900
vn 0.167100 0.974600 0.149200
vn -0.170500 0.822600 0.542500
vn -0.539000 0.807900 0.238400
vn 0.515600 0.844900 -0.142500
vn 0.492500 0.869500 -0.038400
vn 0.843000 0.533000 0.072500
vn 0.509300 0.482900 -0.712300
vn -0.142700 0.919500 -0.366300
vn 0.737500 -0.003100 0.675300
vn 0.095600 0.881300 -0.462700
vn 0.577000 0.615900 -0.536400
vn 0.793700 0.535400 -0.288800
vn 0.550700 0.066800 0.832000
vn 0.639800 0.455300 -0.619200
vn 0.901800 0.431600 0.020800
vn 0.094700 0.985800 0.139000
vn 0.146100 0.981500 0.123800
vn -0.411800 0.893200 0.180700
vn -0.013300 0.308400 0.951200
vn 0.009000 0.289700 0.957100
vn -0.096000 0.375500 0.921800
vn -0.418500 0.880600 -0.222300
vn 0.791700 0.217600 0.570900
vn 0.769100 0.193700 0.609100
vn 0.830500 0.263300 0.490800
vn 0.153300 0.741800 0.652900
vn 0.072700 0.234800 0.969300
vn 0.033400 0.223400 0.974100
vn 0.685800 0.113900 0.718800
vn 0.081200 0.987300 -0.136200
vn 0.044700 0.793000 0.607600
vn 0.859900 0.299700 0.413300
vn -0.628400 0.718700 0.297600
vn 0.843900 0.281100 0.457000
vn -0.034700 0.909000 0.415300
f 3/40/1 2/2/2 4/41/3
f 2/2/2 3/40/1 1/1/4
f 4/41/3 2/2/2 5/3/5
f 3/40/6 4/41/7 7/42/8
f 4/41/7 6/43/9 7/42/8
f 7/42/10 6/43/11 9/44/12
f 1/1/13 3/40/13 8/5/13
f 3/40/14 7/42/14 11/45/14
f 4/41/15 5/3/15 10/4/15
f 8/5/16 3/40/16 15/46/16
f 12/47/17 9/44/12 14/48/18
f 14/48/18 9/44/12 6/43/11
f 3/40/19 11/45/19 15/46/19
f 13/49/20 9/44/20 12/47/20
f 6/43/9 4/41/7 14/48/21
f 4/41/7 10/4/22 14/48/21
f 9/44/23 13/49/23 16/50/23
f 8/5/24 15/46/24 21/9/24
f 19/51/25 11/45/25 7/42/25
f 12/52/26 14/53/26 20/54/26
f 15/46/27 11/45/27 19/51/27
f 17/55/28 13/49/28 12/47/28
f 14/53/21 10/6/22 24/56/29
f 16/50/30 13/49/31 23/57/32
f 23/57/32 13/49/31 17/55/33
f 7/42/34 9/44/35 19/51/36
f 24/56/29 10/6/22 18/7/37
f 19/51/36 9/44/35 32/58/38
f 9/44/35 16/50/39 32/58/38
f 22/59/40 21/9/41 15/46/42
f 20/54/43 14/53/21 24/56/29
f 15/46/44 19/51/44 22/59/44
f 23/57/32 17/55/33 26/60/45
f 21/9/41 22/59/40 27/10/46
f 23/57/32 26/60/45 34/61/47
f 25/62/48 28/63/48 30/64/48
f 26/65/49 17/66/50 28/63/51
f 32/58/52 16/50/53 23/57/54
f 34/67/55 26/65/55 25/62/55
f 28/63/56 25/62/56 26/65/56
f 28/63/51 17/66/50 38/68/57
f 17/55/50 12/47/58 38/69/57
f 12/52/59 20/54/60 29/70/61
f 19/51/62 32/58/52 41/71/63
f 34/67/64 25/62/64 35/72/64
f 35/72/65 25/62/65 30/64/65
f 30/64/66 36/73/66 37/74/66
f 30/64/67 28/63/67 36/73/67
f 20/54/43 24/56/29 29/70/68
f 32/58/52 23/57/54 33/75/69
f 23/57/54 34/61/70 33/75/69
f 37/74/71 45/76/72 44/77/73
f 12/52/59 29/70/61 38/78/74
f 24/56/29 18/7/37 40/8/75
f 22/59/76 19/51/77 41/71/78
f 49/79/79 39/80/80 42/81/81
f 43/82/82 42/81/82 39/80/82
f 39/80/83 35/72/83 30/64/83
f 31/83/84 24/56/29 40/8/75
f 41/71/63 32/58/52 33/75/69
f 43/82/85 39/80/85 30/64/85
f 30/64/86 37/74/71 44/77/73
f 44/77/87 45/76/87 53/84/87
f 27/10/88 22/59/88 47/15/88
f 51/19/89 33/75/90 49/85/91
f 33/75/90 34/61/92 49/85/91
f 35/72/93 39/80/94 49/79/91
f 53/84/95 45/76/95 50/13/95
f 45/76/96 37/74/96 36/73/96
f 36/73/97 28/63/97 38/68/97
f 47/15/98 22/59/98 48/16/98
f 48/16/99 22/59/76 41/71/78
f 34/67/92 35/72/93 49/79/91
f 29/70/68 24/56/29 54/86/100
f 24/56/101 31/83/101 54/86/101
f 60/87/102 49/79/79 42/81/81
f 42/81/103 43/82/103 60/87/103
f 46/30/104 40/8/104 55/14/104
f 56/29/105 30/64/105 44/77/105
f 53/84/106 50/13/106 52/12/106
f 45/76/107 36/73/108 50/13/109
f 38/78/74 29/70/61 57/88/110
f 31/83/111 40/8/112 46/30/113
f 51/19/114 49/85/114 59/20/114
f 43/82/115 30/64/115 56/29/115
f 44/77/116 53/84/117 61/11/118
f 53/84/119 52/12/119 61/11/119
f 36/73/108 38/68/120 50/13/109
f 49/79/121 60/87/121 63/28/121
f 50/13/109 38/68/120 62/18/122
f 48/16/99 41/71/78 66/31/123
f 68/89/124 33/75/90 58/21/125
f 58/21/125 33/75/90 51/19/89
f 60/87/126 43/82/126 56/29/126
f 56/29/127 44/77/116 61/11/118
f 57/88/128 29/70/129 64/90/130
f 62/91/131 38/78/74 57/88/110
f 64/90/132 29/70/68 54/86/100
f 65/26/133 48/16/133 66/31/133
f 41/71/63 33/75/69 68/89/134
f 59/20/135 49/85/135 63/25/135
f 48/16/136 65/26/136 67/17/136
f 59/20/137 63/25/137 70/24/137
f 60/87/138 56/29/138 63/28/138
f 64/90/139 54/86/139 31/83/139
f 69/32/140 66/31/140 68/89/140
f 66/31/123 41/71/78 68/89/141
f 68/89/142 58/21/142 71/22/142
f 76/23/143 59/20/143 70/24/143
f 71/22/144 59/20/144 76/23/144
f 64/90/130 73/92/145 72/36/146
f 64/90/147 31/83/111 46/30/113
f 78/35/148 62/91/149 57/88/150
f 73/92/151 64/90/151 46/30/151
f 74/27/152 65/26/153 66/31/154
f 68/89/155 71/22/155 76/23/155
f 77/39/156 62/91/149 78/35/148
f 72/36/146 57/88/128 64/90/130
f 69/32/157 68/89/157 75/33/157
f 68/89/158 76/23/158 75/33/158
f 81/38/159 46/30/159 79/34/159
f 77/39/160 78/35/160 80/37/160
f 57/88/161 72/36/161 78/35/161
f 73/92/162 46/30/162 81/38/162
f 74/27/152 66/31/154 75/33/163
f 72/36/164 73/92/164 81/38/164
