# prebaked split of model.obj material model.002
mtllib model_002.mtl
usemtl model.002
v 0.088331 0.148988 -0.654431
v 0.072910 0.148702 -0.656496
v 0.064867 0.159254 -0.643579
v 0.042108 0.155273 -0.649463
v 0.034789 0.137758 -0.662838
v 0.045083 0.169106 -0.643358
v 0.062977 0.178265 -0.638927
v 0.095351 0.160258 -0.624745
v 0.044965 0.181154 -0.631433
v 0.020226 0.135487 -0.656664
v 0.072579 0.174513 -0.634512
v 0.015189 0.171527 -0.623083
v 0.026366 0.180462 -0.626714
v 0.022859 0.154983 -0.648142
v 0.076562 0.164954 -0.629632
v 0.035070 0.190027 -0.621268
v 0.010959 0.177267 -0.616529
v -0.013939 0.122160 -0.654354
v 0.069685 0.187766 -0.620298
v 0.009450 0.165088 -0.632779
v 0.094345 0.162423 -0.618598
v 0.076110 0.183948 -0.612438
v 0.023352 0.188769 -0.606423
v -0.003807 0.137878 -0.647699
v 0.001270 0.187359 -0.602628
v 0.005517 0.181369 -0.601924
v 0.091406 0.179609 -0.599201
v -0.003038 0.172004 -0.599191
v -0.011624 0.151818 -0.626891
v -0.017652 0.182720 -0.587637
v -0.020675 0.133852 -0.641660
v 0.044116 0.193995 -0.609697
v 0.039423 0.193455 -0.594832
v 0.012094 0.189813 -0.594761
v -0.001193 0.191274 -0.596356
v -0.019093 0.167365 -0.605409
v -0.026580 0.171738 -0.596774
v -0.008053 0.158893 -0.600104
v -0.006139 0.189114 -0.587348
v -0.028485 0.118930 -0.648009
v 0.054367 0.193645 -0.598434
v 0.001656 0.195070 -0.580909
v -0.008692 0.193677 -0.580432
v -0.022292 0.173926 -0.582959
v -0.029140 0.163810 -0.595168
v -0.032889 0.128469 -0.626132
v 0.083412 0.183006 -0.593939
v 0.071836 0.180519 -0.589464
v 0.007073 0.187591 -0.580634
v -0.019410 0.153010 -0.589625
v 0.024068 0.187622 -0.577300
v -0.032321 0.160154 -0.583401
v -0.024774 0.161069 -0.585211
v -0.019563 0.139694 -0.627591
v -0.040349 0.122777 -0.635589
v -0.009474 0.179098 -0.572534
v -0.017940 0.147038 -0.602011
v 0.036677 0.187922 -0.579077
v 0.022621 0.179656 -0.577517
v 0.010115 0.194010 -0.574258
v -0.019964 0.158912 -0.579843
v -0.010730 0.154108 -0.592447
v 0.009362 0.180600 -0.572193
v -0.021933 0.146554 -0.611908
v 0.079780 0.177435 -0.574744
v 0.064294 0.179663 -0.576103
v 0.082790 0.172494 -0.582791
v 0.048381 0.189546 -0.575853
v 0.053851 0.186575 -0.569235
v 0.019808 0.182578 -0.571702
v 0.031919 0.175592 -0.578779
v -0.029260 0.143468 -0.598123
v -0.033359 0.141888 -0.609782
v 0.073145 0.172615 -0.573120
v 0.050254 0.175061 -0.572012
v 0.031429 0.171717 -0.573781
v -0.004768 0.143485 -0.584461
v -0.016587 0.137119 -0.596188
v -0.051339 0.128383 -0.608315
v -0.020775 0.129662 -0.589672
v -0.043171 0.132081 -0.597780
vt 0.191982 0.055527
vt 0.191553 0.048879
vt 0.188365 0.032673
vt 0.188960 0.025786
vt 0.204278 0.059375
vt 0.765238 0.239115
vt 0.776536 0.231893
vt 0.782325 0.230241
vt 0.207010 0.058984
vt 0.217170 0.057043
vt 0.444340 0.944764
vt 0.443469 0.947646
vt 0.439771 0.948905
vt 0.788503 0.232061
vt 0.219149 0.053545
vt 0.223187 0.050527
vt 0.225501 0.056108
vt 0.437599 0.948342
vt 0.229696 0.029481
vt 0.232522 0.029626
vt 0.229149 0.034318
vt 0.233739 0.033984
vt 0.236391 0.035250
vt 0.233984 0.028795
vt 0.234345 0.023295
vt 0.227324 0.052819
vt 0.230167 0.052268
vt 0.466247 0.944215
vt 0.456831 0.948080
vt 0.788294 0.237456
vt 0.228354 0.047583
vt 0.230082 0.042417
vt 0.233235 0.043106
vt 0.797314 0.238752
vt 0.795528 0.254174
vt 0.793516 0.249469
vt 0.800647 0.253670
vt 0.797863 0.244507
vt 0.793514 0.260436
vt 0.197620 0.046410
vt 0.195238 0.036022
vt 0.204186 0.042925
vt 0.200547 0.036380
vt 0.206721 0.035543
vt 0.204733 0.047141
vt 0.203725 0.051551
vt 0.206437 0.021664
vt 0.195461 0.026946
vt 0.208574 0.027482
vt 0.212169 0.031658
vt 0.212011 0.045529
vt 0.773517 0.255407
vt 0.766865 0.246107
vt 0.773783 0.250777
vt 0.210892 0.020576
vt 0.774870 0.239406
vt 0.217717 0.026544
vt 0.216856 0.035290
vt 0.214025 0.049452
vt 0.218006 0.019075
vt 0.222930 0.022976
vt 0.455948 0.962414
vt 0.448089 0.962411
vt 0.452345 0.955114
vt 0.454029 0.964739
vt 0.450794 0.971252
vt 0.461798 0.963926
vt 0.437922 0.955588
vt 0.208836 0.010028
vt 0.781319 0.247355
vt 0.220865 0.040853
vt 0.458388 0.960159
vt 0.443770 0.955971
vt 0.446935 0.953272
vt 0.222635 0.034194
vt 0.444808 0.951743
vt 0.450523 0.950211
vt 0.786385 0.256451
vt 0.467384 0.953811
vt 0.458971 0.956952
vt 0.461918 0.953609
vt 0.458032 0.953898
vt 0.781153 0.237696
vt 0.445404 0.949107
vt 0.229423 0.021918
vt 0.783784 0.242974
vt 0.464060 0.951046
vt 0.789632 0.252136
vt 0.228868 0.038773
vt 0.787876 0.248244
vt 0.789436 0.257523
vt 0.791449 0.245447
vn 0.034700 0.784500 -0.619200
vn 0.035400 0.762000 -0.646700
vn -0.027600 0.667200 -0.744300
vn 0.066500 0.792700 -0.606000
vn -0.047100 0.618600 -0.784300
vn 0.200800 0.251600 -0.946800
vn -0.009500 0.385700 -0.922600
vn 0.146100 0.299500 -0.942900
vn -0.001000 0.404000 -0.914800
vn -0.180400 0.691000 -0.700000
vn -0.246800 0.680500 -0.690000
vn -0.275900 0.696100 -0.662800
vn 0.211600 0.896100 -0.390200
vn 0.484100 0.253100 -0.837600
vn -0.378900 0.656500 -0.652300
vn 0.336500 0.738600 -0.584100
vn -0.393400 0.707300 -0.587300
vn -0.361300 0.699100 -0.617000
vn 0.767600 -0.007100 -0.640800
vn -0.241800 -0.090100 -0.966100
vn -0.207100 0.467800 -0.859200
vn -0.223100 0.435500 -0.872100
vn -0.214000 0.623100 -0.752200
vn 0.299500 0.914200 -0.272900
vn 0.508800 0.678800 -0.529400
vn -0.003600 0.834000 -0.551700
vn 0.936500 0.330400 -0.117400
vn -0.560700 0.408800 -0.720000
vn -0.391800 0.531000 -0.751400
vn -0.564000 0.731500 -0.383200
vn -0.499300 0.773300 -0.390800
vn -0.463200 0.783800 -0.413700
vn -0.432500 0.811400 -0.393100
vn -0.040400 0.895900 -0.442400
vn 0.045700 0.873800 -0.484100
vn -0.019000 0.877700 -0.478900
vn -0.387000 0.559700 -0.732800
vn 0.098700 0.858500 -0.503300
vn 0.252800 0.837300 -0.484800
vn 0.551800 0.625300 -0.551800
vn 0.534700 0.617900 -0.576500
vn 0.483600 0.593700 -0.643100
vn -0.454400 0.588200 -0.669000
vn 0.791900 0.420100 -0.443200
vn -0.436500 0.787100 -0.435800
vn 0.597200 0.643100 -0.479300
vn -0.436700 0.755100 -0.489100
vn -0.620800 -0.001300 -0.784000
vn -0.727200 0.540800 -0.422800
vn -0.754400 0.287500 -0.590100
vn -0.769800 0.394500 -0.501700
vn -0.075800 0.994600 -0.070800
vn -0.260600 0.957400 -0.124600
vn -0.189900 0.969900 -0.152300
vn 0.523300 0.276300 -0.806100
vn -0.104900 -0.189100 -0.976300
vn -0.772500 0.297900 -0.560900
vn -0.740600 0.190100 -0.644500
vn -0.568400 0.805600 -0.167000
vn -0.561600 0.802700 -0.200700
vn -0.627100 0.768000 -0.129800
vn 0.181400 0.974100 -0.134800
vn 0.080000 0.996700 0.016100
vn 0.152600 0.864100 -0.479600
vn -0.595900 0.555000 -0.580500
vn -0.278300 0.737800 -0.615000
vn 0.035600 0.754800 -0.655000
vn -0.658700 0.540000 -0.523900
vn -0.084900 0.996100 0.024700
vn -0.129600 0.968700 -0.211800
vn -0.891400 0.399800 0.213400
vn -0.911800 0.340800 0.229100
vn -0.855600 0.481800 0.189300
vn -0.712400 0.701100 -0.030500
vn -0.414200 0.551300 -0.724200
vn 0.473700 0.870600 0.132600
vn 0.444100 0.893200 0.070900
vn 0.491900 0.838100 0.235800
vn 0.541000 0.364000 -0.758200
vn 0.459300 0.302000 -0.835400
vn 0.514900 0.344100 -0.785200
vn -0.134900 0.803500 -0.579800
vn -0.483700 0.873500 -0.056100
vn -0.395200 0.527000 -0.752400
vn -0.375700 0.703800 -0.602900
vn -0.829900 0.530100 0.173700
vn -0.900900 0.100000 0.422400
vn 0.340700 0.936200 -0.086800
vn -0.034200 0.956900 0.288400
vn -0.097600 0.959800 0.263100
vn -0.025800 0.980800 0.193100
vn -0.041400 0.989200 0.140900
vn 0.040200 0.977300 0.207800
vn -0.005000 0.973000 0.230600
vn -0.774100 -0.609300 0.171700
vn -0.727100 0.097100 -0.679600
vn 0.380300 -0.081200 -0.921300
vn -0.165900 0.979400 0.115400
vn 0.484700 0.831200 0.272300
vn -0.728100 0.503600 -0.465000
vn -0.331600 0.880300 -0.339300
vn 0.595700 0.406100 -0.693000
vn -0.114000 0.948300 0.296200
vn -0.149900 0.894900 -0.420300
vn -0.637600 0.595900 0.488200
vn -0.257700 0.326500 -0.909400
vn -0.395300 -0.675600 -0.622300
vn -0.313000 -0.699500 -0.642400
vn -0.259400 -0.737200 -0.623900
vn -0.767200 0.641400 -0.009400
vn -0.718500 0.596100 -0.358400
vn -0.737800 0.551700 -0.389000
vn -0.704800 0.623600 -0.338100
vn -0.192600 0.008200 0.981300
vn -0.799400 0.318800 0.509300
vn -0.667800 0.050600 0.742600
vn -0.739500 0.025000 0.672700
vn -0.699000 0.039800 0.714000
vn -0.018900 0.921700 0.387500
vn -0.196600 -0.748600 -0.633200
vn 0.934500 -0.104900 -0.340300
vn -0.072100 -0.834300 -0.546500
vn 0.485800 0.821500 0.298400
vn -0.209800 0.933400 0.291200
vn -0.084400 0.944600 0.317000
vn -0.283000 0.468500 0.836900
vn -0.644000 0.058500 0.762800
vn -0.299100 0.951300 0.074100
vn -0.342700 0.934900 0.092600
vn -0.336200 0.939400 0.067200
vn -0.771800 0.624400 0.120200
vn -0.775000 0.527600 -0.347900
vn 0.129400 0.982200 0.135900
vn 0.032500 0.981800 0.186900
vn 0.282200 0.775100 0.565300
vn 0.655800 0.727600 -0.201500
vn -0.138800 0.856300 -0.497500
vn -0.030200 0.153800 0.987600
vn 0.088800 0.917400 -0.387900
vn 0.526200 0.848600 -0.053900
vn 0.509300 0.812900 0.282600
vn -0.280200 0.131100 0.950900
vn 0.678400 0.733600 -0.040600
vn 0.389700 0.709000 0.587800
vn -0.377000 0.926200 0.006900
vn -0.333300 0.942200 0.033800
vn -0.685100 0.659100 -0.310300
vn -0.792400 0.142600 0.593100
vn -0.776700 0.132100 0.615900
vn -0.844900 0.180400 0.503500
vn -0.397100 0.703800 -0.589100
vn 0.002400 0.392300 0.919800
vn -0.030600 0.356800 0.933700
vn 0.067700 0.459800 0.885400
vn -0.625100 0.645400 0.439000
vn -0.727700 0.101500 0.678300
vn -0.751400 0.076600 0.655400
vn -0.132700 0.238000 0.962200
vn -0.189300 0.963100 -0.191400
vn -0.676600 0.661900 0.322600
vn 0.128600 0.515000 0.847500
vn -0.841600 0.405400 -0.356900
vn 0.094000 0.485800 0.869000
vn -0.627400 0.770000 0.116100
f 3/40/1 2/2/2 4/41/3
f 2/2/2 3/40/1 1/1/4
f 4/41/3 2/2/2 5/3/5
f 3/40/6 4/41/7 7/42/8
f 4/41/7 6/43/9 7/42/8
f 7/42/10 6/43/11 9/44/12
f 1/1/13 3/40/13 8/5/13
f 3/40/14 7/42/14 11/45/14
f 4/41/15 5/3/15 10/4/15
f 8/5/16 3/40/16 15/46/16
f 12/47/17 9/44/12 14/48/18
f 14/48/18 9/44/12 6/43/11
f 3/40/19 11/45/19 15/46/19
f 13/49/20 9/44/20 12/47/20
f 6/43/9 4/41/7 14/48/21
f 4/41/7 10/4/22 14/48/21
f 9/44/23 13/49/23 16/50/23
f 8/5/24 15/46/24 21/9/24
f 19/51/25 11/45/25 7/42/25
f 12/52/26 14/53/26 20/54/26
f 15/46/27 11/45/27 19/51/27
f 17/55/28 13/49/28 12/47/28
f 14/53/21 10/6/22 24/56/29
f 16/50/30 13/49/31 23/57/32
f 23/57/32 13/49/31 17/55/33
f 7/42/34 9/44/35 19/51/36
f 24/56/29 10/6/22 18/7/37
f 19/51/36 9/44/35 32/58/38
f 9/44/35 16/50/39 32/58/38
f 22/59/40 21/9/41 15/46/42
f 20/54/43 14/53/21 24/56/29
f 15/46/44 19/51/44 22/59/44
f 23/57/32 17/55/33 26/60/45
f 21/9/41 22/59/40 27/10/46
f 23/57/32 26/60/45 34/61/47
f 25/62/48 28/63/48 30/64/48
f 26/65/49 17/66/50 28/63/51
f 32/58/52 16/50/53 23/57/54
f 34/67/55 26/65/55 25/62/55
f 28/63/56 25/62/56 26/65/56
f 28/63/51 17/66/50 38/68/57
f 17/55/50 12/47/58 38/69/57
f 12/52/59 20/54/60 29/70/61
f 19/51/62 32/58/52 41/71/63
f 34/67/64 25/62/64 35/72/64
f 35/72/65 25/62/65 30/64/65
f 30/64/66 36/73/66 37/74/66
f 30/64/67 28/63/67 36/73/67
f 20/54/43 24/56/29 29/70/68
f 32/58/52 23/57/54 33/75/69
f 23/57/54 34/61/70 33/75/69
f 37/74/71 45/76/72 44/77/73
f 12/52/59 29/70/61 38/78/74
f 24/56/29 18/7/37 40/8/75
f 22/59/76 19/51/77 41/71/78
f 49/79/79 39/80/80 42/81/81
f 43/82/82 42/81/82 39/80/82
f 39/80/83 35/72/83 30/64/83
f 31/83/84 24/56/29 40/8/75
f 41/71/63 32/58/52 33/75/69
f 43/82/85 39/80/85 30/64/85
f 30/64/86 37/74/71 44/77/73
f 44/77/87 45/76/87 53/84/87
f 27/10/88 22/59/88 47/15/88
f 51/19/89 33/75/90 49/85/91
f 33/75/90 34/61/92 49/85/91
f 35/72/93 39/80/94 49/79/91
f 53/84/95 45/76/95 50/13/95
f 45/76/96 37/74/96 36/73/96
f 36/73/97 28/63/97 38/68/97
f 47/15/98 22/59/98 48/16/98
f 48/16/99 22/59/76 41/71/78
f 34/67/92 35/72/93 49/79/91
f 29/70/68 24/56/29 54/86/100
f 24/56/101 31/83/101 54/86/101
f 60/87/102 49/79/79 42/81/81
f 42/81/103 43/82/103 60/87/103
f 46/30/104 40/8/104 55/14/104
f 56/29/105 30/64/105 44/77/105
f 53/84/106 50/13/106 52/12/106
f 45/76/107 36/73/108 50/13/109
f 38/78/74 29/70/61 57/88/110
f 31/83/111 40/8/112 46/30/113
f 51/19/114 49/85/114 59/20/114
f 43/82/115 30/64/115 56/29/115
f 44/77/116 53/84/117 61/11/118
f 53/84/119 52/12/119 61/11/119
f 36/73/108 38/68/120 50/13/109
f 49/79/121 60/87/121 63/28/121
f 50/13/109 38/68/120 62/18/122
f 48/16/99 41/71/78 66/31/123
f 68/89/124 33/75/90 58/21/125
f 58/21/125 33/75/90 51/19/89
f 60/87/126 43/82/126 56/29/126
f 56/29/127 44/77/116 61/11/118
f 57/88/128 29/70/129 64/90/130
f 62/91/131 38/78/74 57/88/110
f 64/90/132 29/70/68 54/86/100
f 65/26/133 48/16/133 66/31/133
f 41/71/63 33/75/69 68/89/134
f 59/20/135 49/85/135 63/25/135
f 48/16/136 65/26/136 67/17/136
f 59/20/137 63/25/137 70/24/137
f 60/87/138 56/29/138 63/28/138
f 64/90/139 54/86/139 31/83/139
f 69/32/140 66/31/140 68/89/140
f 66/31/123 41/71/78 68/89/141
f 68/89/142 58/21/142 71/22/142
f 76/23/143 59/20/143 70/24/143
f 71/22/144 59/20/144 76/23/144
f 64/90/130 73/92/145 72/36/146
f 64/90/147 31/83/111 46/30/113
f 78/35/148 62/91/149 57/88/150
f 73/92/151 64/90/151 46/30/151
f 74/27/152 65/26/153 66/31/154
f 68/89/155 71/22/155 76/23/155
f 77/39/156 62/91/149 78/35/148
f 72/36/146 57/88/128 64/90/130
f 69/32/157 68/89/157 75/33/157
f 68/89/158 76/23/158 75/33/158
f 81/38/159 46/30/159 79/34/159
f 77/39/160 78/35/160 80/37/160
f 57/88/161 72/36/161 78/35/161
f 73/92/162 46/30/162 81/38/162
f 74/27/152 66/31/154 75/33/163
f 72/36/164 73/92/164 81/38/164
