# prebaked split of model.obj material Eyes.001
mtllib Eyes_001.mtl
usemtl Eyes.001
v 0.040289 1.728356 0.148684
v 0.031565 1.738575 0.160044
v 0.026016 1.737188 0.143405
v 0.040181 1.736335 0.133003
v 0.054485 1.737195 0.143213
v 0.049160 1.738580 0.159926
v 0.026066 1.752870 0.151384
v 0.031391 1.751486 0.134671
v 0.048985 1.751491 0.134552
v 0.054534 1.752878 0.151192
v 0.040369 1.753731 0.161594
v 0.040262 1.761710 0.145913
v 0.031902 1.730620 0.145824
v 0.035164 1.731435 0.155604
v 0.026774 1.736626 0.152502
v 0.040378 1.737444 0.162212
v 0.045505 1.731438 0.155535
v 0.040228 1.730119 0.139710
v 0.031839 1.735310 0.136607
v 0.048635 1.730624 0.145711
v 0.048572 1.735314 0.136494
v 0.053849 1.736633 0.152319
v 0.035211 1.746349 0.163193
v 0.045553 1.746352 0.163123
v 0.023542 1.745029 0.147411
v 0.026803 1.745844 0.157192
v 0.034998 1.743714 0.131473
v 0.026672 1.744215 0.137587
v 0.053747 1.744222 0.137405
v 0.045340 1.743716 0.131404
v 0.053879 1.745851 0.157009
v 0.057009 1.745037 0.147186
v 0.031978 1.754752 0.158103
v 0.026701 1.753433 0.142278
v 0.040173 1.752622 0.132384
v 0.053776 1.753440 0.142095
v 0.048712 1.754756 0.157990
v 0.031915 1.759442 0.148885
v 0.040322 1.759947 0.154887
v 0.035045 1.758628 0.139062
v 0.045387 1.758631 0.138992
v 0.048648 1.759446 0.148772
v -0.044060 1.728335 0.149252
v -0.035189 1.738558 0.160494
v -0.029864 1.737173 0.143781
v -0.044167 1.736314 0.133571
v -0.058332 1.737166 0.143973
v -0.052784 1.738553 0.160613
v -0.029814 1.752856 0.151760
v -0.035363 1.751469 0.135121
v -0.052957 1.751465 0.135239
v -0.058283 1.752849 0.151952
v -0.043979 1.753709 0.162163
v -0.044087 1.761688 0.146481
v -0.035713 1.730602 0.146280
v -0.038843 1.731416 0.156103
v -0.030499 1.736611 0.152888
v -0.043971 1.737422 0.162781
v -0.049185 1.731413 0.156173
v -0.044120 1.730097 0.140278
v -0.035776 1.735292 0.137062
v -0.052447 1.730598 0.146392
v -0.052510 1.735288 0.137175
v -0.057574 1.736604 0.153070
v -0.038796 1.746330 0.163692
v -0.049138 1.746327 0.163762
v -0.027339 1.745015 0.147754
v -0.030470 1.745829 0.157577
v -0.039009 1.743695 0.131972
v -0.030601 1.744200 0.137974
v -0.057677 1.744193 0.138156
v -0.049351 1.743692 0.132042
v -0.057545 1.745822 0.157760
v -0.060807 1.745007 0.147980
v -0.035636 1.754735 0.158558
v -0.030572 1.753418 0.142663
v -0.044176 1.752600 0.132953
v -0.057648 1.753411 0.142846
v -0.052370 1.754730 0.158671
v -0.035700 1.759424 0.149341
v -0.044026 1.759926 0.155455
v -0.038962 1.758609 0.139560
v -0.049303 1.758606 0.139630
v -0.052433 1.759420 0.149454
vn -0.313600 -0.931900 0.182300
vn -0.262800 -0.601500 0.754400
vn -0.195800 -0.962500 -0.187700
vn 0.193700 -0.962400 -0.190300
vn 0.316500 -0.931700 0.178000
vn -0.261700 -0.254400 0.931000
vn -0.943100 -0.327400 0.058400
vn -0.320800 -0.403000 -0.857100
vn 0.745200 -0.376600 -0.550300
vn 0.781700 -0.284800 0.554800
vn -0.577600 -0.058900 0.814200
vn -0.945400 -0.150800 -0.288800
vn -0.006500 -0.207300 -0.978200
vn 0.941600 -0.150300 -0.301500
vn 0.588600 -0.058600 0.806300
vn -0.626200 0.693100 0.357000
vn -0.586800 0.620300 -0.520500
vn 0.262800 0.601500 -0.754400
vn 0.748500 0.662800 -0.021400
vn 0.199100 0.719400 0.665400
vn 0.195800 0.962500 0.187700
vn 0.359400 0.832700 0.421200
vn 0.630600 0.693400 0.348500
vn 0.313700 0.931900 -0.182300
vn 0.575400 0.776600 -0.256600
vn 0.579400 0.620600 -0.528400
vn -0.003000 0.912800 -0.408300
vn -0.004700 0.741700 -0.670700
vn -0.273200 0.601400 -0.750800
vn -0.316500 0.931700 -0.178000
vn -0.579200 0.776300 -0.248800
vn -0.749000 0.662400 -0.011300
vn -0.193700 0.962400 0.190300
vn -0.354200 0.832500 0.426000
vn -0.190400 0.719300 0.668100
vn 0.320800 0.403000 0.857100
vn 0.582500 0.252900 0.772500
vn 0.752300 0.377000 0.540200
vn 0.943100 0.327400 -0.058400
vn 0.932000 0.162100 -0.324300
vn 0.774000 0.285200 -0.565300
vn 0.261700 0.254400 -0.931000
vn -0.006700 0.105600 -0.994400
vn -0.274400 0.254200 -0.927400
vn -0.781700 0.284800 -0.554800
vn -0.936300 0.161600 -0.311700
vn -0.943900 0.327000 -0.045700
vn -0.745200 0.376600 0.550300
vn -0.572200 0.252600 0.780300
vn -0.309400 0.402800 0.861400
vn 0.945400 0.150800 0.288800
vn 0.936300 -0.161600 0.311700
vn 0.943900 -0.327000 0.045700
vn 0.577600 0.058900 -0.814200
vn 0.572200 -0.252600 -0.780300
vn 0.309400 -0.402800 -0.861400
vn -0.588600 0.058600 -0.806300
vn -0.582500 -0.252900 -0.772500
vn -0.752300 -0.377000 -0.540200
vn -0.941500 0.150300 0.301500
vn -0.932000 -0.162100 0.324300
vn -0.774000 -0.285200 0.565300
vn 0.006500 0.207300 0.978200
vn 0.006700 -0.105600 0.994400
vn 0.274300 -0.254200 0.927400
vn 0.586800 -0.620300 0.520500
vn 0.579200 -0.776200 0.248800
vn 0.749000 -0.662400 0.011300
vn 0.626200 -0.693100 -0.357000
vn 0.354200 -0.832500 -0.426000
vn 0.190400 -0.719300 -0.668100
vn -0.199000 -0.719400 -0.665400
vn -0.359500 -0.832700 -0.421200
vn -0.630600 -0.693500 -0.348500
vn 0.273300 -0.601400 0.750800
vn 0.004700 -0.741700 0.670800
vn 0.003000 -0.912800 0.408300
vn -0.748500 -0.662800 0.021400
vn -0.575400 -0.776500 0.256600
vn -0.579400 -0.620600 0.528400
vn 0.316600 -0.931700 0.178000
vn 0.273200 -0.601400 0.750800
vn -0.195700 -0.962500 -0.187700
vn 0.274400 -0.254200 0.927400
vn 0.941500 -0.150300 -0.301500
vn -0.749000 0.662400 -0.011400
vn -0.579200 0.776300 -0.248900
vn 0.199000 0.719400 0.665400
vn 0.354100 -0.832500 -0.426000
vn 0.004700 -0.741700 0.670700
vn 0.749000 -0.662400 0.011400
f 1//1 14//1 13//1
f 2//2 14//2 16//2
f 1//3 13//3 18//3
f 1//4 18//4 20//4
f 1//5 20//5 17//5
f 2//6 16//6 23//6
f 3//7 15//7 25//7
f 4//8 19//8 27//8
f 5//9 21//9 29//9
f 6//10 22//10 31//10
f 2//11 23//11 26//11
f 3//12 25//12 28//12
f 4//13 27//13 30//13
f 5//14 29//14 32//14
f 6//15 31//15 24//15
f 7//16 33//16 38//16
f 8//17 34//17 40//17
f 9//18 35//18 41//18
f 10//19 36//19 42//19
f 11//20 37//20 39//20
f 39//21 42//21 12//21
f 39//22 37//22 42//22
f 37//23 10//23 42//23
f 42//24 41//24 12//24
f 42//25 36//25 41//25
f 36//26 9//26 41//26
f 41//27 40//27 12//27
f 41//28 35//28 40//28
f 35//29 8//29 40//29
f 40//30 38//30 12//30
f 40//31 34//31 38//31
f 34//32 7//32 38//32
f 38//33 39//33 12//33
f 38//34 33//34 39//34
f 33//35 11//35 39//35
f 24//36 37//36 11//36
f 24//37 31//37 37//37
f 31//38 10//38 37//38
f 32//39 36//39 10//39
f 32//40 29//40 36//40
f 29//41 9//41 36//41
f 30//42 35//42 9//42
f 30//43 27//43 35//43
f 27//44 8//44 35//44
f 28//45 34//45 8//45
f 28//46 25//46 34//46
f 25//47 7//47 34//47
f 26//48 33//48 7//48
f 26//49 23//49 33//49
f 23//50 11//50 33//50
f 31//51 32//51 10//51
f 31//52 22//52 32//52
f 22//53 5//53 32//53
f 29//54 30//54 9//54
f 29//55 21//55 30//55
f 21//56 4//56 30//56
f 27//57 28//57 8//57
f 27//58 19//58 28//58
f 19//59 3//59 28//59
f 25//60 26//60 7//60
f 25//61 15//61 26//61
f 15//62 2//62 26//62
f 23//63 24//63 11//63
f 23//64 16//64 24//64
f 16//65 6//65 24//65
f 17//66 22//66 6//66
f 17//67 20//67 22//67
f 20//68 5//68 22//68
f 20//69 21//69 5//69
f 20//70 18//70 21//70
f 18//71 4//71 21//71
f 18//72 19//72 4//72
f 18//73 13//73 19//73
f 13//74 3//74 19//74
f 16//75 17//75 6//75
f 16//76 14//76 17//76
f 14//77 1//77 17//77
f 13//78 15//78 3//78
f 13//79 14//79 15//79
f 14//80 2//80 15//80
f 43//81 55//81 56//81
f 44//82 58//82 56//82
f 43//4 60//4 55//4
f 43//83 62//83 60//83
f 43//1 59//1 62//1
f 44//84 65//84 58//84
f 45//53 67//53 57//53
f 46//56 69//56 61//56
f 47//59 71//59 63//59
f 48//62 73//62 64//62
f 44//15 68//15 65//15
f 45//85 70//85 67//85
f 46//13 72//13 69//13
f 47//12 74//12 71//12
f 48//11 66//11 73//11
f 49//23 80//23 75//23
f 50//26 82//26 76//26
f 51//29 83//29 77//29
f 52//86 84//86 78//86
f 53//35 81//35 79//35
f 81//33 54//33 84//33
f 81//34 84//34 79//34
f 79//16 84//16 52//16
f 84//30 54//30 83//30
f 84//87 83//87 78//87
f 78//17 83//17 51//17
f 83//27 54//27 82//27
f 83//28 82//28 77//28
f 77//18 82//18 50//18
f 82//24 54//24 80//24
f 82//25 80//25 76//25
f 76//19 80//19 49//19
f 80//21 54//21 81//21
f 80//22 81//22 75//22
f 75//88 81//88 53//88
f 66//50 53//50 79//50
f 66//49 79//49 73//49
f 73//48 79//48 52//48
f 74//47 52//47 78//47
f 74//46 78//46 71//46
f 71//45 78//45 51//45
f 72//44 51//44 77//44
f 72//43 77//43 69//43
f 69//42 77//42 50//42
f 70//41 50//41 76//41
f 70//40 76//40 67//40
f 67//39 76//39 49//39
f 68//38 49//38 75//38
f 68//37 75//37 65//37
f 65//36 75//36 53//36
f 73//60 52//60 74//60
f 73//61 74//61 64//61
f 64//7 74//7 47//7
f 71//57 51//57 72//57
f 71//58 72//58 63//58
f 63//8 72//8 46//8
f 69//54 50//54 70//54
f 69//55 70//55 61//55
f 61//9 70//9 45//9
f 67//51 49//51 68//51
f 67//52 68//52 57//52
f 57//10 68//10 44//10
f 65//63 53//63 66//63
f 65//64 66//64 58//64
f 58//6 66//6 48//6
f 59//80 48//80 64//80
f 59//79 64//79 62//79
f 62//78 64//78 47//78
f 62//74 47//74 63//74
f 62//73 63//73 60//73
f 60//72 63//72 46//72
f 60//71 46//71 61//71
f 60//89 61//89 55//89
f 55//69 61//69 45//69
f 58//2 48//2 59//2
f 58//90 59//90 56//90
f 56//77 59//77 43//77
f 55//91 45//91 57//91
f 55//67 57//67 56//67
f 56//66 57//66 44//66
