# prebaked split of model.obj material Pants.001
mtllib Pants_001.mtl
usemtl Pants.001
v 0.148788 0.912726 0.016652
v 0.151943 0.928872 -0.047897
v 0.030040 0.892216 -0.080284
v 0.108846 0.899779 0.136533
v 0.105974 0.624527 0.117534
v 0.178797 0.638963 0.021057
v 0.175553 0.642079 -0.016531
v 0.074133 0.622349 0.001579
v 0.024664 0.854799 0.029225
v 0.070612 0.620849 0.073356
v 0.098692 0.515662 0.001487
v 0.168884 0.517005 -0.009591
v 0.097050 0.474511 0.076933
v 0.127836 0.470539 0.112364
v 0.198042 0.482826 0.025669
v 0.130724 0.520581 -0.019285
v 0.113826 0.920297 -0.079551
v 0.118905 0.631411 -0.018995
v 0.117436 0.546376 0.109423
v 0.190133 0.552282 0.028181
v 0.089708 0.530019 0.080873
v 0.043246 0.866222 0.147262
v 0.151291 0.978814 -0.049220
v 0.150236 0.981930 0.027368
v 0.109401 0.975049 0.127835
v 0.047906 0.899015 0.150740
v 0.114471 0.989797 -0.099236
v 0.077823 1.005815 -0.122595
v 0.205796 0.077514 -0.028950
v 0.130535 0.073278 -0.015009
v 0.136208 0.079245 -0.045469
v 0.160015 0.081915 -0.058244
v 0.178467 0.074111 0.004215
v 0.192737 0.082374 -0.055125
v 0.150290 0.071888 0.005664
v 0.110228 0.382676 -0.016567
v 0.106575 0.372422 0.053511
v 0.197980 0.381999 0.008897
v 0.132487 0.370503 0.071356
v 0.175880 0.386013 -0.023520
v 0.138527 0.385850 -0.032320
v 0.180803 0.476547 0.106888
v 0.156237 0.638183 0.109841
v 0.175469 0.371636 0.072550
v 0.164886 0.554386 0.102743
v 0.143969 0.258369 0.050239
v 0.169464 0.302732 -0.048505
v 0.139809 0.292381 -0.055664
v 0.114217 0.290610 -0.042083
v 0.113164 0.268426 0.023965
v 0.195662 0.276771 -0.006636
v 0.176649 0.257385 0.054127
v 0.050227 0.750851 -0.025122
v 0.083130 0.742152 0.142154
v 0.168100 0.782140 0.021955
v 0.163733 0.787171 -0.027237
v 0.042799 0.733942 0.072483
v 0.110357 0.777650 -0.039940
v 0.145677 0.770072 0.129614
v -0.161639 0.911075 0.024335
v -0.175797 0.926194 -0.041546
v -0.033805 0.891983 -0.085568
v -0.107058 0.900602 0.137402
v -0.074717 0.628667 0.117338
v -0.177815 0.636289 0.053059
v -0.188384 0.637683 0.016735
v -0.086429 0.621836 -0.002162
v -0.020706 0.855179 0.025061
v -0.057385 0.623903 0.063555
v -0.104579 0.514969 0.010430
v -0.174059 0.514006 0.025321
v -0.074208 0.477451 0.081512
v -0.090018 0.474701 0.127053
v -0.187103 0.481179 0.069193
v -0.142105 0.518059 0.002421
v -0.132708 0.918994 -0.080020
v -0.135956 0.628577 -0.005563
v -0.084816 0.549905 0.116590
v -0.181954 0.549877 0.066953
v -0.068436 0.533105 0.080734
v -0.032761 0.867044 0.144981
v -0.166747 0.977578 -0.046621
v -0.158452 0.981427 0.030197
v -0.111138 0.975902 0.128286
v -0.049083 0.899518 0.150042
v -0.128913 0.989097 -0.099480
v -0.089969 1.005479 -0.123701
v -0.196900 0.075688 0.019819
v -0.121071 0.074504 0.007487
v -0.137046 0.079699 -0.019226
v -0.163937 0.081186 -0.022656
v -0.160314 0.073792 0.041901
v -0.193407 0.080409 -0.008261
v -0.133021 0.072623 0.033909
v -0.115825 0.384162 -0.001470
v -0.086957 0.375430 0.062396
v -0.188591 0.380539 0.053370
v -0.104684 0.372750 0.088321
v -0.179714 0.384901 0.015227
v -0.147992 0.385972 -0.006155
v -0.141722 0.477848 0.139063
v -0.124960 0.640455 0.127765
v -0.144416 0.372151 0.104790
v -0.131820 0.556189 0.127155
v -0.001704 0.899725 0.154570
v -0.004976 0.894966 -0.088937
v -0.002742 0.861937 0.019522
v -0.001825 0.859725 0.137798
v -0.001678 0.955041 0.158614
v -0.003761 1.015574 -0.127059
v -0.118007 0.259909 0.072792
v -0.178983 0.301565 -0.010367
v -0.153411 0.292314 -0.027638
v -0.124605 0.291811 -0.024093
v -0.099079 0.270779 0.037239
v -0.187347 0.275251 0.038121
v -0.147070 0.257658 0.088098
v -0.075709 0.749907 -0.038843
v -0.052212 0.747448 0.130216
v -0.173920 0.779595 0.045116
v -0.187219 0.782579 -0.003781
v -0.036887 0.737450 0.050407
v -0.140081 0.774190 -0.034235
v -0.116651 0.773048 0.138292
vn 0.224300 0.110200 0.968300
vn 0.999500 -0.009000 0.029000
vn 0.729900 -0.118400 -0.673200
vn 0.951700 0.156900 0.263800
vn 0.994000 0.074900 -0.080100
vn -0.006100 -0.999100 0.041000
vn -0.019600 -0.999000 0.040600
vn -0.010300 -0.999100 0.040500
vn -0.674500 -0.266700 0.688400
vn 0.153200 -0.096100 -0.983500
vn -0.798600 -0.232500 0.555200
vn 0.816900 0.113500 -0.565500
vn -0.971700 -0.223000 -0.077400
vn -0.974500 -0.212600 -0.071600
vn -0.974100 -0.217600 -0.062100
vn 0.160900 -0.072500 0.984300
vn 0.129000 -0.025100 -0.991300
vn 0.225000 -0.141400 0.964000
vn 0.951000 0.000400 -0.309300
vn -0.724000 -0.103000 0.682100
vn -0.468000 -0.034300 -0.883000
vn -0.461900 -0.075700 -0.883700
vn 0.900600 -0.053300 0.431400
vn 0.027300 -0.315000 -0.948700
vn 0.939300 -0.017800 0.342700
vn 0.156200 0.036800 -0.987000
vn 0.241100 0.111300 -0.964100
vn -0.972100 -0.218000 -0.086500
vn 0.226600 -0.134500 0.964700
vn -0.041100 -0.265300 0.963300
vn 0.963100 -0.088400 0.254100
vn 0.217600 -0.364200 -0.905600
vn 0.069500 -0.337000 -0.938900
vn -0.991800 -0.086200 -0.094300
vn -0.994900 -0.077900 -0.063700
vn 0.954000 0.111900 0.278300
vn -0.627400 -0.227100 0.744900
vn -0.065700 -0.175200 0.982300
vn 0.849400 0.073000 -0.522800
vn 0.067400 -0.344500 0.936400
vn -0.988200 -0.124400 -0.089300
vn -0.522900 0.061000 -0.850200
vn -0.729900 -0.134300 0.670200
vn 0.972300 0.058100 0.226400
vn 0.819400 0.099300 -0.564600
vn -0.059900 -0.949600 -0.307800
vn 0.111000 0.064700 0.991700
vn 0.881000 0.102000 -0.462100
vn -0.033800 -0.248100 0.968100
vn -0.690700 -0.195300 0.696300
vn -0.998200 -0.041400 -0.044400
vn 0.186200 0.254100 -0.949100
vn 0.951000 -0.052100 0.304900
vn -0.482200 0.210300 -0.850400
vn 0.938900 0.200800 0.279400
vn -0.977000 -0.183500 -0.108500
vn -0.253300 -0.194300 -0.947700
vn 0.175700 0.006400 0.984400
vn -0.982600 -0.089000 0.163300
vn 0.457100 -0.171600 -0.872700
vn 0.993400 0.114500 0.010700
vn 0.205300 0.044300 0.977700
vn -0.209900 0.106300 0.971900
vn -0.981900 0.097700 0.162200
vn -0.746000 -0.055200 -0.663600
vn -0.799800 0.138100 0.584200
vn -0.961400 0.043700 0.271500
vn -0.001000 -0.999200 0.040400
vn 0.887200 -0.232300 0.398700
vn -0.483400 -0.150900 -0.862300
vn 0.951600 -0.175800 0.252100
vn -0.968700 0.064800 -0.239500
vn 0.891900 -0.201000 -0.405000
vn 0.895700 -0.192700 -0.400700
vn 0.896500 -0.190500 -0.399900
vn 0.205700 -0.029500 0.978200
vn -0.474400 -0.078600 -0.876800
vn 0.124300 -0.107100 0.986500
vn -0.997700 -0.042700 0.053100
vn 0.926200 -0.045500 0.374200
vn 0.123100 -0.029800 -0.991900
vn 0.117400 -0.106600 -0.987400
vn -0.692400 -0.079500 0.717100
vn -0.147100 -0.280600 -0.948500
vn -0.900500 0.004200 0.434900
vn -0.497000 0.014500 -0.867700
vn -0.573500 0.083600 -0.815000
vn 0.892800 -0.198700 -0.404300
vn -0.210600 -0.253000 0.944300
vn 0.006400 -0.287100 0.957900
vn -0.803900 -0.124900 0.581500
vn -0.223400 -0.349200 -0.910000
vn -0.019800 -0.313900 -0.949300
vn 0.897800 -0.049000 -0.437800
vn 0.910000 -0.038800 -0.412800
vn -0.794700 0.097800 0.599100
vn 0.861200 -0.189000 0.471800
vn 0.419500 -0.156200 0.894200
vn -0.982300 0.029800 -0.185000
vn 0.271100 -0.339300 0.900800
vn 0.895100 -0.098900 -0.434700
vn 0.183200 0.064500 -0.981000
vn 0.926500 -0.079900 0.367700
vn -0.835500 0.031800 0.548500
vn -0.970600 0.056500 -0.233800
vn 0.137000 -0.941000 -0.309500
vn 0.232100 0.117800 0.965500
vn -0.989800 0.061400 -0.128400
vn 0.375300 -0.234200 0.896800
vn 0.896200 -0.160500 0.413500
vn 0.917100 -0.000600 -0.398600
vn -0.521000 0.232300 -0.821400
vn -0.776300 -0.085800 0.624500
vn 0.138700 0.218500 -0.965900
vn -0.869400 0.113600 0.480900
vn 0.907300 -0.287900 -0.306600
vn -0.072900 -0.230000 -0.970500
vn -0.019400 -0.053800 0.998400
vn 0.987600 -0.112000 0.110300
vn -0.616600 -0.181700 -0.766000
vn -0.958500 0.135900 0.250700
vn -0.213000 0.031000 0.976600
vn 0.961200 -0.181900 0.207400
vn -0.815300 -0.282900 0.505300
f 4//1 25//1 26//1
f 24//2 1//2 2//2
f 24//2 2//2 23//2
f 23//3 2//3 17//3
f 23//3 17//3 27//3
f 42//4 15//4 20//4
f 42//4 20//4 45//4
f 55//5 6//5 7//5
f 55//5 7//5 56//5
f 107//6 9//7 22//7
f 107//6 22//7 108//8
f 13//9 37//9 39//9
f 13//9 39//9 14//9
f 56//10 7//10 18//10
f 56//10 18//10 58//10
f 57//11 10//11 5//11
f 57//11 5//11 54//11
f 12//12 20//12 15//12
f 10//13 8//14 11//15
f 10//13 11//15 21//15
f 45//16 43//16 5//16
f 45//16 5//16 19//16
f 18//17 7//17 12//17
f 18//17 12//17 16//17
f 59//18 54//18 5//18
f 59//18 5//18 43//18
f 7//19 6//19 20//19
f 7//19 20//19 12//19
f 19//20 21//20 13//20
f 19//20 13//20 14//20
f 49//21 48//21 32//21
f 49//21 32//21 31//21
f 8//22 18//22 16//22
f 8//22 16//22 11//22
f 51//23 52//23 33//23
f 51//23 33//23 29//23
f 53//24 3//24 17//24
f 53//24 17//24 58//24
f 25//25 4//25 1//25
f 25//25 1//25 24//25
f 48//26 47//26 34//26
f 48//26 34//26 32//26
f 16//27 12//27 40//27
f 16//27 40//27 41//27
f 53//28 8//14 10//13
f 53//28 10//13 57//28
f 22//29 4//29 26//29
f 108//30 22//30 26//30
f 108//30 26//30 105//30
f 38//31 15//31 42//31
f 38//31 42//31 44//31
f 3//32 28//32 27//32
f 3//32 27//32 17//32
f 3//33 106//33 110//33
f 3//33 110//33 28//33
f 50//34 49//34 31//34
f 50//34 31//34 30//34
f 11//35 36//35 37//35
f 11//35 37//35 13//35
f 20//36 6//36 43//36
f 20//36 43//36 45//36
f 46//37 39//37 37//37
f 46//37 37//37 50//37
f 46//38 52//38 44//38
f 46//38 44//38 39//38
f 51//39 47//39 40//39
f 51//39 40//39 38//39
f 44//40 42//40 14//40
f 44//40 14//40 39//40
f 21//41 11//41 13//41
f 11//42 16//42 41//42
f 11//42 41//42 36//42
f 5//43 10//43 21//43
f 5//43 21//43 19//43
f 59//44 43//44 6//44
f 59//44 6//44 55//44
f 12//45 15//45 38//45
f 12//45 38//45 40//45
f 106//46 3//46 9//46
f 106//46 9//46 107//46
f 42//47 45//47 19//47
f 42//47 19//47 14//47
f 29//48 34//48 47//48
f 29//48 47//48 51//48
f 35//49 33//49 52//49
f 35//49 52//49 46//49
f 35//50 46//50 50//50
f 35//50 50//50 30//50
f 37//51 36//51 49//51
f 37//51 49//51 50//51
f 41//52 40//52 47//52
f 41//52 47//52 48//52
f 38//53 44//53 52//53
f 38//53 52//53 51//53
f 36//54 41//54 48//54
f 36//54 48//54 49//54
f 4//55 59//55 55//55
f 4//55 55//55 1//55
f 3//56 53//56 57//56
f 3//56 57//56 9//56
f 8//57 53//57 58//57
f 8//57 58//57 18//57
f 4//58 22//58 54//58
f 4//58 54//58 59//58
f 9//59 57//59 22//59
f 2//60 56//60 58//60
f 2//60 58//60 17//60
f 1//61 55//61 56//61
f 1//61 56//61 2//61
f 109//62 105//62 26//62
f 109//62 26//62 25//62
f 63//63 85//63 84//63
f 83//64 82//64 61//64
f 83//64 61//64 60//64
f 82//65 86//65 76//65
f 82//65 76//65 61//65
f 101//66 104//66 79//66
f 101//66 79//66 74//66
f 120//67 121//67 66//67
f 120//67 66//67 65//67
f 107//6 108//8 81//68
f 107//6 81//68 68//68
f 72//69 73//69 98//69
f 72//69 98//69 96//69
f 121//70 123//70 77//70
f 121//70 77//70 66//70
f 122//71 119//71 64//71
f 122//71 64//71 69//71
f 71//72 74//72 79//72
f 69//73 80//74 70//74
f 69//73 70//74 67//75
f 104//76 78//76 64//76
f 104//76 64//76 102//76
f 77//77 75//77 71//77
f 77//77 71//77 66//77
f 124//78 102//78 64//78
f 124//78 64//78 119//78
f 66//79 71//79 79//79
f 66//79 79//79 65//79
f 78//80 73//80 72//80
f 78//80 72//80 80//80
f 114//81 90//81 91//81
f 114//81 91//81 113//81
f 67//82 70//82 75//82
f 67//82 75//82 77//82
f 116//83 88//83 92//83
f 116//83 92//83 117//83
f 118//84 123//84 76//84
f 118//84 76//84 62//84
f 84//85 83//85 60//85
f 84//85 60//85 63//85
f 113//86 91//86 93//86
f 113//86 93//86 112//86
f 75//87 100//87 99//87
f 75//87 99//87 71//87
f 118//88 122//88 69//73
f 118//88 69//73 67//75
f 81//89 85//89 63//89
f 108//90 105//90 85//90
f 108//90 85//90 81//90
f 97//91 103//91 101//91
f 97//91 101//91 74//91
f 62//92 76//92 86//92
f 62//92 86//92 87//92
f 62//93 87//93 110//93
f 62//93 110//93 106//93
f 115//94 89//94 90//94
f 115//94 90//94 114//94
f 70//95 72//95 96//95
f 70//95 96//95 95//95
f 79//96 104//96 102//96
f 79//96 102//96 65//96
f 111//97 115//97 96//97
f 111//97 96//97 98//97
f 111//98 98//98 103//98
f 111//98 103//98 117//98
f 116//99 97//99 99//99
f 116//99 99//99 112//99
f 103//100 98//100 73//100
f 103//100 73//100 101//100
f 80//101 72//101 70//101
f 70//102 95//102 100//102
f 70//102 100//102 75//102
f 64//103 78//103 80//103
f 64//103 80//103 69//103
f 124//104 120//104 65//104
f 124//104 65//104 102//104
f 71//105 99//105 97//105
f 71//105 97//105 74//105
f 106//106 107//106 68//106
f 106//106 68//106 62//106
f 101//107 73//107 78//107
f 101//107 78//107 104//107
f 88//108 116//108 112//108
f 88//108 112//108 93//108
f 94//109 111//109 117//109
f 94//109 117//109 92//109
f 94//110 89//110 115//110
f 94//110 115//110 111//110
f 96//111 115//111 114//111
f 96//111 114//111 95//111
f 100//112 113//112 112//112
f 100//112 112//112 99//112
f 97//113 116//113 117//113
f 97//113 117//113 103//113
f 95//114 114//114 113//114
f 95//114 113//114 100//114
f 63//115 60//115 120//115
f 63//115 120//115 124//115
f 62//116 68//116 122//116
f 62//116 122//116 118//116
f 67//117 77//117 123//117
f 67//117 123//117 118//117
f 63//118 124//118 119//118
f 63//118 119//118 81//118
f 68//119 81//119 122//119
f 61//120 76//120 123//120
f 61//120 123//120 121//120
f 60//121 61//121 121//121
f 60//121 121//121 120//121
f 109//122 84//122 85//122
f 109//122 85//122 105//122
f 122//123 81//123 119//123
f 22//124 57//124 54//124
