# prebaked split of model.obj material Shirt.001
mtllib Shirt_001.mtl
usemtl Shirt.001
v 0.102827 1.086498 0.108556
v 0.141534 1.082313 0.032886
v 0.147217 1.079199 -0.030862
v 0.080672 1.074459 -0.077192
v 0.151291 0.978814 -0.049220
v 0.150236 0.981930 0.027368
v 0.109401 0.975049 0.127835
v 0.114471 0.989797 -0.099236
v 0.077823 1.005815 -0.122595
v 0.174927 1.417486 0.076409
v 0.119704 1.406980 0.133399
v 0.176229 1.424726 -0.021800
v 0.110318 1.370098 -0.082729
v 0.096349 1.238960 0.105638
v 0.240892 1.470207 0.082324
v 0.215062 1.459486 0.121997
v 0.226641 1.483337 -0.045382
v 0.251254 1.473650 0.023545
v 0.197738 1.463628 -0.060268
v 0.191496 1.543089 0.073670
v 0.191408 1.551641 -0.022474
v 0.207322 1.543733 0.025269
v 0.153499 1.561539 -0.053754
v 0.250208 1.423128 -0.026881
v 0.179343 1.442468 0.124457
v 0.196444 1.398140 0.116181
v 0.215159 1.414650 -0.036412
v 0.245912 1.414315 0.068703
v 0.226807 1.405818 0.107709
v 0.255723 1.420925 0.024411
v 0.142363 1.463208 -0.081774
v 0.154085 1.523017 -0.067497
v 0.100179 1.284749 -0.074242
v 0.117747 1.173404 -0.025741
v 0.084977 1.165698 -0.059398
v 0.098653 1.171161 0.096137
v 0.121638 1.171889 0.026118
v 0.124813 1.255882 0.039304
v 0.120220 1.269319 -0.025263
v 0.160760 1.432310 0.112973
v 0.170291 1.390353 0.100420
v 0.167157 1.313748 0.037428
v 0.239724 1.332294 0.092262
v 0.260720 1.341513 -0.017441
v 0.206695 1.323153 0.091165
v 0.255611 1.338250 0.047636
v 0.262818 1.341132 0.020782
v 0.232920 1.333836 -0.023571
v 0.192942 1.322794 -0.026863
v 0.171256 1.313832 0.072616
v 0.125850 1.527567 0.092349
v 0.122822 1.501564 0.119758
v 0.122234 1.454607 0.134188
v 0.113798 0.996386 -0.103048
v 0.155281 0.986137 -0.050826
v 0.110287 0.983141 0.132084
v 0.153493 0.989454 0.028620
v 0.078107 1.011608 -0.125948
v -0.106913 1.086555 0.109919
v -0.147492 1.082237 0.034531
v -0.155605 1.078925 -0.029235
v -0.088225 1.074413 -0.076476
v -0.166747 0.977578 -0.046621
v -0.158452 0.981427 0.030197
v -0.111138 0.975902 0.128286
v -0.128913 0.989097 -0.099480
v -0.089969 1.005479 -0.123701
v -0.179375 1.416924 0.079869
v -0.123725 1.406418 0.135410
v -0.180728 1.423732 -0.018542
v -0.116810 1.370634 -0.081080
v -0.100491 1.238964 0.107066
v -0.246018 1.469957 0.080399
v -0.223816 1.460821 0.123015
v -0.224016 1.476492 -0.045218
v -0.251503 1.470094 0.020943
v -0.199687 1.459348 -0.056865
v -0.194829 1.542646 0.071524
v -0.191785 1.548346 -0.024895
v -0.208643 1.541672 0.022375
v -0.155227 1.558655 -0.055283
v -0.248275 1.415807 -0.025396
v -0.188430 1.442468 0.129885
v -0.207315 1.398383 0.123224
v -0.213757 1.405931 -0.030569
v -0.251947 1.413260 0.069649
v -0.236748 1.406682 0.111158
v -0.257572 1.417241 0.024485
v -0.146940 1.461429 -0.079631
v -0.156658 1.520093 -0.067011
v -0.106946 1.284729 -0.072741
v -0.123795 1.173386 -0.023977
v -0.091519 1.165680 -0.058108
v -0.102928 1.171160 0.097489
v -0.126930 1.171877 0.027934
v -0.129920 1.255872 0.041154
v -0.126270 1.269301 -0.023475
v -0.167646 1.430915 0.120206
v -0.179643 1.388367 0.110821
v -0.174676 1.307466 0.054350
v -0.251055 1.332295 0.100994
v -0.261721 1.335271 -0.010675
v -0.218429 1.321786 0.103692
v -0.262758 1.336011 0.054252
v -0.267355 1.337362 0.026781
v -0.233781 1.326236 -0.013488
v -0.194115 1.313520 -0.012148
v -0.181901 1.309958 0.089064
v -0.129315 1.527093 0.092817
v -0.126598 1.501113 0.120987
v -0.126438 1.454018 0.136319
v -0.003532 1.073892 -0.095200
v -0.003761 1.015574 -0.127059
v -0.003378 1.556382 -0.071324
v -0.003510 1.527616 -0.089435
v -0.003528 1.457043 -0.092218
v -0.003545 1.371052 -0.095106
v -0.003494 1.286562 -0.088694
v -0.003369 1.164087 -0.072241
v -0.127827 0.995738 -0.103246
v -0.169992 0.984986 -0.048107
v -0.112147 0.983893 0.132677
v -0.161335 0.988999 0.031515
v -0.090112 1.011285 -0.126944
v -0.003790 1.022483 -0.130859
v 0.260548 1.220152 -0.029095
v 0.287811 1.224955 0.018422
v 0.201334 1.212641 0.019792
v 0.285307 1.224097 -0.024638
v 0.284614 1.225535 0.031816
v 0.220784 1.217115 -0.032220
v 0.273015 1.214572 0.078842
v 0.205325 1.202700 0.057593
v 0.243161 1.210446 0.075150
v -0.263671 1.218130 -0.011968
v -0.293850 1.221302 0.033819
v -0.208221 1.203754 0.041150
v -0.288528 1.223129 -0.009246
v -0.291526 1.220844 0.047554
v -0.223988 1.212868 -0.012286
v -0.283408 1.205725 0.095038
v -0.215050 1.191223 0.078035
v -0.253581 1.200067 0.093333
v 0.151125 1.446559 0.122795
v 0.178552 1.500203 0.121025
v 0.158722 1.466663 0.129372
v -0.156471 1.445921 0.126916
v -0.184268 1.500531 0.122037
v -0.165026 1.466360 0.133130
v 0.186875 1.508732 0.108475
v 0.208138 1.529757 0.076035
v -0.190580 1.509943 0.108075
v -0.205867 1.534440 0.072892
v -0.158389 1.408005 0.122249
v -0.120301 1.244463 0.096336
v 0.154143 1.408351 0.119311
v 0.116032 1.244483 0.094547
vn 0.991500 -0.028100 -0.127200
vn 0.919000 0.043300 0.392000
vn 0.968400 0.066200 0.240500
vn -0.999400 0.035100 0.007000
vn -0.140900 -0.068600 -0.987700
vn 0.173300 -0.233600 0.956800
vn 0.146400 0.585500 -0.797400
vn -0.388200 -0.328900 0.860900
vn 0.261700 -0.086300 -0.961300
vn 0.010700 -0.009700 -0.999900
vn 0.603600 0.177900 -0.777200
vn 0.962600 -0.142700 0.230300
vn 0.996800 -0.025500 -0.075900
vn 0.137200 0.060700 0.988700
vn 0.948900 -0.310200 -0.058600
vn 0.804600 -0.232500 -0.546400
vn -0.414800 -0.513400 -0.751200
vn 0.833500 -0.104800 -0.542500
vn 0.831700 0.513400 -0.211500
vn 0.632300 0.466800 0.618400
vn 0.112000 0.425800 -0.897900
vn 0.909200 0.167600 0.381000
vn 0.955000 0.199400 -0.219600
vn 0.978300 0.062300 0.197600
vn 0.421000 -0.186300 -0.887700
vn 0.218200 -0.157500 0.963100
vn 0.632800 -0.438100 -0.638400
vn 0.169400 0.212000 -0.962500
vn 0.104700 0.119800 -0.987300
vn 0.360700 0.153200 -0.920000
vn 0.541900 0.429500 -0.722400
vn 0.087400 0.005700 -0.996200
vn 0.120700 -0.093900 -0.988200
vn -0.941100 -0.119100 -0.316300
vn 0.857200 -0.103300 0.504600
vn -0.115500 -0.433500 0.893700
vn -0.391700 -0.328400 0.859500
vn 0.867700 0.006200 0.497100
vn 0.847900 0.507100 0.154500
vn 0.031900 0.751700 0.658700
vn 0.264500 0.663600 0.699800
vn 0.271000 0.660400 0.700300
vn 0.139300 -0.135800 -0.980900
vn 0.873700 -0.350600 0.337400
vn 0.325000 -0.466000 -0.822900
vn 0.993800 0.100900 0.047300
vn 0.965700 0.259500 0.011400
vn 0.925200 0.210000 0.316200
vn -0.947300 -0.314200 0.062600
vn 0.976200 0.209500 -0.056500
vn 0.434400 -0.218700 0.873800
vn 0.685500 -0.400300 -0.608100
vn 0.991100 0.105200 -0.081300
vn 0.643500 0.338700 -0.686400
vn 0.898500 -0.437700 0.034400
vn 0.901200 0.129800 0.413600
vn 0.609900 0.470100 -0.638000
vn -0.011900 -0.490400 -0.871400
vn -0.947600 0.106200 0.301300
vn -0.982300 0.116500 0.146800
vn 0.994100 -0.014200 0.107800
vn 0.189100 -0.153200 -0.969900
vn -0.269600 -0.141900 0.952500
vn -0.141800 0.596600 -0.789900
vn 0.294300 -0.269600 0.916900
vn -0.171900 -0.157100 -0.972500
vn -0.606600 0.191300 -0.771600
vn -0.959000 -0.142900 0.244600
vn -0.997800 -0.025600 -0.061400
vn -0.181000 0.144500 0.972800
vn -0.950600 -0.306000 -0.051400
vn -0.816300 -0.226000 -0.531600
vn 0.517700 -0.483800 -0.705700
vn -0.841300 -0.104900 -0.530300
vn -0.835200 0.478400 -0.271400
vn -0.652400 0.528700 0.543000
vn -0.121300 0.404500 -0.906400
vn -0.901600 0.170400 0.397500
vn -0.938000 0.191100 -0.289200
vn -0.988900 0.101100 0.109000
vn -0.367100 -0.240000 -0.898700
vn -0.309200 -0.078500 0.947800
vn -0.647700 -0.434100 -0.626100
vn -0.179800 0.215500 -0.959800
vn -0.117700 0.108800 -0.987100
vn -0.385100 0.120000 -0.915000
vn -0.565700 0.384300 -0.729600
vn -0.103000 0.006900 -0.994700
vn -0.135500 -0.093300 -0.986400
vn 0.953800 -0.225000 -0.199300
vn -0.789700 -0.270000 0.550900
vn 0.123900 -0.348000 0.929300
vn 0.294800 -0.274600 0.915200
vn -0.906700 0.069400 0.416100
vn -0.847500 0.521500 0.098600
vn -0.025100 0.762800 0.646200
vn -0.254700 0.704400 0.662500
vn -0.282400 0.694300 0.662000
vn -0.153500 -0.135900 -0.978800
vn -0.848400 -0.355900 0.391900
vn -0.335300 -0.442900 -0.831500
vn -0.984800 0.135900 0.108200
vn -0.961100 0.273700 0.037100
vn -0.943300 0.225700 0.243500
vn 0.943600 -0.298500 0.143300
vn -0.966300 0.220800 -0.132200
vn -0.415700 -0.221600 0.882100
vn -0.722100 -0.336800 -0.604300
vn -0.977300 0.123300 -0.172100
vn -0.643700 0.377400 -0.665800
vn -0.919500 -0.374800 0.118500
vn -0.883400 0.131400 0.449800
vn -0.598400 0.511100 -0.617000
vn 0.022900 -0.484200 -0.874700
vn 0.176600 0.093800 -0.979800
vn -0.045700 -0.140200 0.989100
vn 0.945200 0.202700 0.255900
vn -0.898300 -0.227600 -0.375900
vn -0.382300 -0.244100 0.891200
vn -0.100900 0.012700 -0.994800
vn -0.030700 -0.057200 0.997900
vn -0.958200 0.229300 0.171000
vn 0.915800 -0.264500 -0.302300
vn 0.322800 -0.174400 0.930200
vn 0.068300 0.066700 -0.995400
vn -0.986200 -0.007500 -0.165200
vn 0.326200 -0.150300 0.933300
vn 0.005600 0.270900 0.962600
vn -0.260400 -0.143100 0.954800
vn 0.017100 0.312900 0.949600
vn 0.594100 0.777900 0.204600
vn 0.121300 0.698300 0.705400
vn 0.532000 0.493400 0.688100
vn -0.546000 0.559200 0.623800
vn -0.578400 0.802500 0.146700
vn -0.103800 0.735200 0.669900
vn -0.495800 -0.104000 0.862200
vn -0.357100 -0.096300 0.929100
vn -0.927300 -0.295800 0.229300
vn 0.930500 -0.293800 0.218800
vn 0.510000 -0.102400 0.854100
vn 0.379900 -0.054200 0.923400
f 70//1 68//1 100//1
f 70//1 100//1 107//1
f 43//2 46//2 28//2
f 43//2 28//2 29//2
f 46//3 47//3 30//3
f 46//3 30//3 28//3
f 42//4 50//4 41//4
f 42//4 41//4 10//4
f 27//5 48//5 49//5
f 27//5 49//5 12//5
f 26//6 45//6 43//6
f 26//6 43//6 29//6
f 112//7 4//7 58//7
f 112//7 58//7 125//7
f 41//8 50//8 45//8
f 41//8 45//8 26//8
f 44//9 48//9 27//9
f 44//9 27//9 24//9
f 106//10 107//10 140//10
f 106//10 140//10 135//10
f 34//11 3//11 4//11
f 34//11 4//11 35//11
f 38//12 157//12 36//12
f 38//12 36//12 37//12
f 37//13 34//13 39//13
f 37//13 39//13 38//13
f 145//14 146//14 25//14
f 145//14 25//14 16//14
f 39//15 12//15 10//15
f 39//15 10//15 38//15
f 33//16 13//16 12//16
f 33//16 12//16 39//16
f 27//17 12//17 19//17
f 34//18 35//18 33//18
f 34//18 33//18 39//18
f 17//19 21//19 22//19
f 17//19 22//19 18//19
f 15//20 151//20 150//20
f 15//20 150//20 16//20
f 23//21 32//21 115//21
f 23//21 115//21 114//21
f 1//22 2//22 37//22
f 1//22 37//22 36//22
f 18//23 30//23 24//23
f 18//23 24//23 17//23
f 15//24 28//24 30//24
f 15//24 30//24 18//24
f 17//25 24//25 27//25
f 17//25 27//25 19//25
f 26//26 29//26 16//26
f 26//26 16//26 25//26
f 13//27 31//27 19//27
f 13//27 19//27 12//27
f 4//28 112//28 119//28
f 4//28 119//28 35//28
f 32//29 31//29 116//29
f 32//29 116//29 115//29
f 17//30 19//30 31//30
f 17//30 31//30 32//30
f 21//31 17//31 32//31
f 21//31 32//31 23//31
f 117//32 116//32 31//32
f 117//32 31//32 13//32
f 118//33 117//33 13//33
f 118//33 13//33 33//33
f 41//34 40//34 10//34
f 10//35 40//35 144//35
f 10//35 144//35 156//35
f 144//36 40//36 25//36
f 144//36 25//36 146//36
f 25//37 40//37 41//37
f 25//37 41//37 26//37
f 16//38 29//38 28//38
f 16//38 28//38 15//38
f 18//39 22//39 151//39
f 18//39 151//39 15//39
f 51//40 52//40 145//41
f 51//40 145//41 150//42
f 35//43 119//43 118//43
f 35//43 118//43 33//43
f 56//44 7//44 6//44
f 56//44 6//44 57//44
f 8//45 9//45 58//45
f 8//45 58//45 54//45
f 55//46 3//46 2//46
f 55//46 2//46 57//46
f 2//47 3//47 34//47
f 2//47 34//47 37//47
f 132//48 130//48 46//48
f 132//48 46//48 43//48
f 133//49 50//49 42//49
f 133//49 42//49 128//49
f 127//50 129//50 44//50
f 127//50 44//50 47//50
f 11//51 14//51 157//51
f 11//51 157//51 156//51
f 55//52 5//52 8//52
f 55//52 8//52 54//52
f 30//53 47//53 44//53
f 30//53 44//53 24//53
f 3//54 55//54 54//54
f 3//54 54//54 4//54
f 5//55 55//55 57//55
f 5//55 57//55 6//55
f 1//56 56//56 57//56
f 1//56 57//56 2//56
f 54//57 58//57 4//57
f 125//58 58//58 9//58
f 125//58 9//58 113//58
f 101//59 87//59 86//59
f 101//59 86//59 104//59
f 104//60 86//60 88//60
f 104//60 88//60 105//60
f 100//61 68//61 99//61
f 100//61 99//61 108//61
f 85//62 70//62 107//62
f 85//62 107//62 106//62
f 84//63 87//63 101//63
f 84//63 101//63 103//63
f 112//64 125//64 124//64
f 112//64 124//64 62//64
f 99//65 84//65 103//65
f 99//65 103//65 108//65
f 102//66 82//66 85//66
f 102//66 85//66 106//66
f 92//67 93//67 62//67
f 92//67 62//67 61//67
f 96//68 95//68 94//68
f 96//68 94//68 155//68
f 95//69 96//69 97//69
f 95//69 97//69 92//69
f 148//70 74//70 83//70
f 148//70 83//70 149//70
f 97//71 96//71 68//71
f 97//71 68//71 70//71
f 91//72 97//72 70//72
f 91//72 70//72 71//72
f 85//73 77//73 70//73
f 92//74 97//74 91//74
f 92//74 91//74 93//74
f 75//75 76//75 80//75
f 75//75 80//75 79//75
f 73//76 74//76 152//76
f 73//76 152//76 153//76
f 81//77 114//77 115//77
f 81//77 115//77 90//77
f 59//78 94//78 95//78
f 59//78 95//78 60//78
f 76//79 75//79 82//79
f 76//79 82//79 88//79
f 73//80 76//80 88//80
f 73//80 88//80 86//80
f 75//81 77//81 85//81
f 75//81 85//81 82//81
f 84//82 83//82 74//82
f 84//82 74//82 87//82
f 71//83 70//83 77//83
f 71//83 77//83 89//83
f 62//84 93//84 119//84
f 62//84 119//84 112//84
f 90//85 115//85 116//85
f 90//85 116//85 89//85
f 75//86 90//86 89//86
f 75//86 89//86 77//86
f 79//87 81//87 90//87
f 79//87 90//87 75//87
f 117//88 71//88 89//88
f 117//88 89//88 116//88
f 118//89 91//89 71//89
f 118//89 71//89 117//89
f 99//90 68//90 98//90
f 68//91 154//91 147//91
f 68//91 147//91 98//91
f 147//92 149//92 83//92
f 147//92 83//92 98//92
f 83//93 84//93 99//93
f 83//93 99//93 98//93
f 74//94 73//94 86//94
f 74//94 86//94 87//94
f 76//95 73//95 153//95
f 76//95 153//95 80//95
f 109//96 152//97 148//98
f 109//96 148//98 110//96
f 93//99 91//99 118//99
f 93//99 118//99 119//99
f 122//100 123//100 64//100
f 122//100 64//100 65//100
f 66//101 120//101 124//101
f 66//101 124//101 67//101
f 121//102 123//102 60//102
f 121//102 60//102 61//102
f 60//103 95//103 92//103
f 60//103 92//103 61//103
f 141//104 101//104 104//104
f 141//104 104//104 139//104
f 142//105 137//105 100//105
f 142//105 100//105 108//105
f 136//106 105//106 102//106
f 136//106 102//106 138//106
f 69//107 154//107 155//107
f 69//107 155//107 72//107
f 121//108 120//108 66//108
f 121//108 66//108 63//108
f 88//109 82//109 102//109
f 88//109 102//109 105//109
f 61//110 62//110 120//110
f 61//110 120//110 121//110
f 63//111 64//111 123//111
f 63//111 123//111 121//111
f 59//112 60//112 123//112
f 59//112 123//112 122//112
f 120//113 62//113 124//113
f 125//114 113//114 67//114
f 125//114 67//114 124//114
f 126//115 48//115 44//115
f 126//115 44//115 129//115
f 45//116 134//116 132//116
f 45//116 132//116 43//116
f 46//117 130//117 127//117
f 46//117 127//117 47//117
f 49//118 131//118 128//118
f 49//118 128//118 42//118
f 50//119 133//119 134//119
f 50//119 134//119 45//119
f 135//120 138//120 102//120
f 135//120 102//120 106//120
f 103//121 101//121 141//121
f 103//121 141//121 143//121
f 104//122 105//122 136//122
f 104//122 136//122 139//122
f 107//123 100//123 137//123
f 107//123 137//123 140//123
f 108//124 103//124 143//124
f 108//124 143//124 142//124
f 48//125 126//125 131//125
f 48//125 131//125 49//125
f 12//126 49//126 42//126
f 12//126 42//126 10//126
f 11//127 144//127 146//127
f 11//127 146//127 53//127
f 52//128 53//128 146//128
f 52//128 146//128 145//128
f 69//129 111//129 149//129
f 69//129 149//129 147//129
f 110//130 148//130 149//130
f 110//130 149//130 111//130
f 151//131 22//131 20//131
f 150//132 151//132 20//132
f 150//132 20//132 51//132
f 150//42 145//41 16//133
f 148//98 152//97 74//134
f 80//135 153//135 78//135
f 153//136 152//136 109//136
f 153//136 109//136 78//136
f 155//137 94//137 72//137
f 147//138 154//138 69//138
f 155//139 154//139 68//139
f 155//139 68//139 96//139
f 156//140 157//140 38//140
f 156//140 38//140 10//140
f 36//141 157//141 14//141
f 156//142 144//142 11//142
