# prebaked split of model.obj material Shirt2
mtllib Shirt2.mtl
usemtl Shirt2
v 0.102827 1.086498 0.108556
v 0.109401 0.975049 0.127835
v 0.119704 1.406980 0.133399
v 0.096349 1.238960 0.105638
v 0.191496 1.543089 0.073670
v 0.191408 1.551641 -0.022474
v 0.207322 1.543733 0.025269
v 0.153499 1.561539 -0.053754
v 0.098653 1.171161 0.096137
v 0.125850 1.527567 0.092349
v 0.122822 1.501564 0.119758
v 0.122234 1.454607 0.134188
v 0.105201 1.568927 0.066932
v 0.108497 1.576573 -0.009935
v 0.084162 1.580033 -0.041258
v 0.116531 1.573538 0.031748
v 0.066893 1.549000 0.085454
v 0.110287 0.983141 0.132084
v -0.106913 1.086555 0.109919
v -0.111138 0.975902 0.128286
v -0.123725 1.406418 0.135410
v -0.100491 1.238964 0.107066
v -0.194829 1.542646 0.071524
v -0.191785 1.548346 -0.024895
v -0.208643 1.541672 0.022375
v -0.155227 1.558655 -0.055283
v -0.102928 1.171160 0.097489
v -0.129315 1.527093 0.092817
v -0.126598 1.501113 0.120987
v -0.126438 1.454018 0.136319
v -0.001828 1.075619 0.138648
v -0.002034 1.513098 0.113307
v -0.001678 0.955041 0.158614
v -0.003378 1.556382 -0.071324
v -0.001942 1.484380 0.125517
v -0.001908 1.165277 0.128220
v -0.001892 1.232620 0.130930
v -0.001851 1.387446 0.137455
v -0.001866 1.433633 0.135673
v -0.108888 1.568610 0.066247
v -0.002053 1.526815 0.111072
v -0.112216 1.575518 -0.010812
v -0.088573 1.579047 -0.041918
v -0.120029 1.572807 0.030732
v -0.003242 1.572587 -0.052532
v -0.070723 1.548724 0.085611
v -0.001636 0.962801 0.164312
v -0.112147 0.983893 0.132677
vn 0.295900 0.942500 0.155400
vn 0.265000 0.962500 -0.058100
vn 0.127200 0.443900 0.887000
vn 0.281000 -0.081600 0.956200
vn 0.144700 -0.114900 0.982800
vn 0.006600 0.248100 0.968700
vn 0.006700 0.248100 0.968700
vn -0.009200 0.244100 0.969700
vn 0.020900 0.010000 0.999700
vn 0.012300 0.586000 0.810200
vn 0.318100 -0.517200 0.794600
vn 0.277600 0.131500 0.951700
vn 0.104300 0.558000 0.823300
vn 0.045100 0.717100 -0.695500
vn 0.303900 0.952100 0.035100
vn 0.239600 0.223500 0.944800
vn -0.310400 0.942000 0.127300
vn -0.295700 0.952300 -0.075100
vn -0.126200 0.445700 0.886200
vn -0.267600 -0.082400 0.960000
vn -0.129000 -0.115800 0.984800
vn 0.022500 0.252100 0.967400
vn -0.004200 0.009200 0.999900
vn -0.007500 0.593700 0.804700
vn -0.322000 -0.524600 0.788100
vn -0.264900 0.131200 0.955300
vn -0.120000 0.576300 0.808300
vn -0.052500 0.711500 -0.700700
vn -0.328600 0.944400 0.008500
vn -0.232900 0.218400 0.947700
f 16//1 13//1 5//1
f 16//1 5//1 7//1
f 14//2 6//2 8//2
f 14//2 8//2 15//2
f 17//3 41//3 32//3
f 17//3 32//3 10//3
f 9//4 4//4 37//4
f 9//4 37//4 36//4
f 4//5 3//5 38//5
f 4//5 38//5 37//5
f 35//6 39//7 12//8
f 35//6 12//8 11//8
f 3//9 12//9 39//9
f 3//9 39//9 38//9
f 11//10 10//10 32//10
f 11//10 32//10 35//10
f 47//11 33//11 2//11
f 47//11 2//11 18//11
f 9//12 36//12 31//12
f 9//12 31//12 1//12
f 5//13 13//13 17//13
f 5//13 17//13 10//13
f 34//14 45//14 15//14
f 34//14 15//14 8//14
f 6//15 14//15 16//15
f 6//15 16//15 7//15
f 31//16 47//16 18//16
f 31//16 18//16 1//16
f 44//17 25//17 23//17
f 44//17 23//17 40//17
f 42//18 43//18 26//18
f 42//18 26//18 24//18
f 46//19 28//19 32//19
f 46//19 32//19 41//19
f 27//20 36//20 37//20
f 27//20 37//20 22//20
f 22//21 37//21 38//21
f 22//21 38//21 21//21
f 35//6 29//22 30//22
f 35//6 30//22 39//7
f 21//23 38//23 39//23
f 21//23 39//23 30//23
f 29//24 35//24 32//24
f 29//24 32//24 28//24
f 47//25 48//25 20//25
f 47//25 20//25 33//25
f 27//26 19//26 31//26
f 27//26 31//26 36//26
f 23//27 28//27 46//27
f 23//27 46//27 40//27
f 34//28 26//28 43//28
f 34//28 43//28 45//28
f 24//29 25//29 44//29
f 24//29 44//29 42//29
f 31//30 19//30 48//30
f 31//30 48//30 47//30
