# prebaked split of model.obj material Shoes.001
mtllib Shoes_001.mtl
usemtl Shoes.001
v 0.163323 0.001316 0.064664
v 0.241026 0.001316 0.014806
v 0.211220 0.001140 -0.033436
v 0.197100 0.002278 -0.075007
v 0.127446 0.001917 -0.067483
v 0.141348 -0.001528 -0.006369
v 0.207959 0.001316 0.062160
v 0.153466 0.002872 -0.084931
v 0.134227 0.063487 -0.057284
v 0.134140 0.053990 -0.015882
v 0.211174 0.056698 -0.031715
v 0.153516 0.055725 0.007730
v 0.188289 0.064547 -0.067483
v 0.189428 0.057490 0.015943
v 0.156237 0.066569 -0.069915
v 0.168997 0.040786 0.057090
v 0.190620 0.045537 -0.070682
v 0.204794 0.041393 0.053132
v 0.156085 0.047488 -0.074754
v 0.132939 0.044487 -0.060623
v 0.136247 0.038500 -0.015277
v 0.212534 0.039324 -0.031606
v 0.237832 0.039677 0.016674
v 0.243922 0.001316 0.149140
v 0.269499 0.001316 0.104449
v 0.211710 0.024539 0.146236
v 0.205639 0.001316 0.148878
v 0.242632 0.025146 0.144263
v 0.265608 0.023759 0.111751
v -0.149610 0.001316 0.098162
v -0.233838 0.001316 0.060358
v -0.210577 0.001002 0.009071
v -0.203131 0.001872 -0.031373
v -0.132011 0.001532 -0.036221
v -0.137009 0.000686 0.025354
v -0.194125 0.001316 0.102295
v -0.165060 0.003981 -0.050868
v -0.138730 0.063839 -0.030967
v -0.126199 0.054945 0.009505
v -0.207136 0.056152 0.012762
v -0.143173 0.056058 0.038997
v -0.192806 0.062746 -0.021758
v -0.178096 0.057348 0.054454
v -0.163902 0.065816 -0.034894
v -0.156343 0.040786 0.091512
v -0.195427 0.043929 -0.024650
v -0.192332 0.041393 0.092898
v -0.164610 0.046859 -0.039271
v -0.137864 0.044807 -0.034278
v -0.132026 0.039071 0.013434
v -0.210049 0.038959 0.012254
v -0.230163 0.039855 0.061790
v -0.216814 0.001316 0.193640
v -0.248726 0.001316 0.153229
v -0.185387 0.024540 0.185999
v -0.178992 0.001316 0.187714
v -0.216260 0.025147 0.188626
v -0.243797 0.023760 0.159874
v 0.163524 0.002713 0.064396
v 0.197465 0.004841 -0.075237
v 0.154297 0.005642 -0.085431
v 0.127803 0.003483 -0.067596
v 0.141171 0.000116 -0.006552
v 0.211338 0.002340 -0.033492
v 0.240897 0.002533 0.014859
v 0.205853 0.002138 0.148785
v 0.243876 0.002159 0.148967
v 0.269361 0.002110 0.104708
v -0.149610 0.001316 0.098162
v -0.203145 0.002230 -0.029202
v -0.165637 0.004352 -0.050940
v -0.132895 0.001986 -0.039443
v -0.135925 0.000118 0.024559
v -0.209787 0.000703 0.009767
v -0.233676 0.001244 0.060445
v -0.178992 0.001316 0.187714
v -0.216814 0.001316 0.193640
v -0.248726 0.001316 0.153229
vn -0.558800 0.035900 -0.828500
vn -0.972400 0.074700 0.221200
vn 0.936100 -0.144500 -0.320800
vn 0.852000 0.002800 -0.523600
vn 0.005800 -1.000000 -0.004400
vn 0.011100 -0.999900 -0.008400
vn -0.000000 -1.000000 -0.000000
vn 0.009900 -0.999900 -0.007500
vn 0.219300 -0.180400 -0.958800
vn -0.953900 0.051300 0.295800
vn 0.016300 -0.999800 -0.012400
vn 0.487000 0.869100 0.086300
vn 0.107500 0.211100 -0.971500
vn -0.051900 0.934000 0.353400
vn 0.861400 0.129100 -0.491300
vn -0.999100 -0.026300 0.032400
vn -0.519400 0.198100 -0.831300
vn 0.865100 0.070800 0.496600
vn -0.005800 0.158400 0.987400
vn -0.002100 0.984000 0.178300
vn -0.868400 0.233900 0.437200
vn -0.868600 0.233900 0.436900
vn -0.866200 0.234200 0.441500
vn 0.949300 0.151600 -0.275300
vn 0.182800 0.977600 0.104500
vn -0.855000 0.251000 0.453800
vn 0.030800 -0.966300 -0.255500
vn -0.960800 0.271500 -0.055600
vn -0.112700 0.993600 0.010000
vn 0.273700 0.954500 0.118600
vn -0.001400 -1.000000 -0.003700
vn -0.002700 -1.000000 -0.007100
vn -0.002400 -1.000000 -0.006400
vn -0.257400 0.888100 -0.380700
vn -0.508200 -0.857500 -0.080500
vn -0.004000 -0.999900 -0.010400
vn -0.431200 0.891800 0.136500
vn -0.429400 0.207000 -0.879100
vn 0.108400 0.929700 0.351900
vn -0.922100 0.174300 -0.345500
vn 0.964300 -0.141000 -0.224300
vn 0.180800 0.195800 -0.963800
vn 0.763000 -0.000000 -0.646400
vn -0.000000 1.000000 -0.000000
vn 0.028400 0.984000 0.176000
vn -0.951000 -0.000000 -0.309100
vn -0.979100 0.152900 -0.134300
vn -0.164000 0.977700 0.131400
vn 0.931500 0.076200 0.355600
vn 0.939400 0.170300 -0.297600
vn -0.863800 0.234500 0.446000
vn 0.024200 0.155400 0.987600
vn 0.844300 0.066700 0.531700
vn -0.931200 0.081200 0.355300
vn 0.183800 0.189300 -0.964600
vn 0.868600 0.046500 -0.493400
vn 0.913800 0.099100 -0.393900
vn -0.987800 0.006100 0.155400
vn -0.544300 0.218100 -0.810100
vn 0.377500 0.924000 0.060500
vn 0.920400 0.234500 0.312900
vn 0.123400 0.155500 0.980100
vn -0.757300 0.066800 0.649600
vn 0.966500 0.089400 0.240400
vn -0.471200 0.213800 -0.855700
vn -0.913700 0.058700 -0.402100
vn -0.959300 0.112300 -0.259200
vn 0.999600 0.011300 -0.024400
vn 0.275500 0.198300 -0.940600
f 62//1 61//1 8//1
f 62//1 8//1 5//1
f 63//2 62//2 5//2
f 63//2 5//2 6//2
f 60//3 64//3 3//3
f 60//3 3//3 4//3
f 65//4 2//4 3//4
f 65//4 3//4 64//4
f 7//5 2//6 25//7
f 7//5 25//7 24//7
f 1//8 7//5 24//7
f 1//8 24//7 27//7
f 61//9 60//9 4//9
f 61//9 4//9 8//9
f 59//10 63//10 6//10
f 59//10 6//10 1//10
f 7//5 1//8 6//11
f 7//5 6//11 5//11
f 7//5 5//11 8//11
f 7//5 8//11 4//11
f 7//5 4//11 3//11
f 7//5 3//11 2//6
f 23//12 22//12 11//12
f 23//12 11//12 14//12
f 23//12 14//12 18//12
f 15//13 13//13 17//13
f 15//13 17//13 19//13
f 14//14 12//14 16//14
f 14//14 16//14 18//14
f 13//15 11//15 22//15
f 13//15 22//15 17//15
f 10//16 9//16 20//16
f 10//16 20//16 21//16
f 9//17 15//17 19//17
f 9//17 19//17 20//17
f 68//18 67//18 24//18
f 68//18 24//18 25//18
f 67//19 66//19 27//19
f 67//19 27//19 24//19
f 18//20 16//20 26//20
f 18//20 26//20 28//20
f 59//21 1//22 27//22
f 59//21 27//22 66//23
f 65//24 23//24 29//24
f 65//24 29//24 68//24
f 23//25 18//25 28//25
f 23//25 28//25 29//25
f 12//26 10//26 21//26
f 12//26 21//26 16//26
f 72//27 34//27 37//27
f 72//27 37//27 71//27
f 73//28 35//28 34//28
f 73//28 34//28 72//28
f 70//29 33//29 32//29
f 70//29 32//29 74//29
f 75//30 74//30 32//30
f 75//30 32//30 31//30
f 36//31 53//7 54//7
f 36//31 54//7 31//32
f 30//33 56//7 53//7
f 30//33 53//7 36//31
f 71//34 37//34 33//34
f 71//34 33//34 70//34
f 69//35 30//35 35//35
f 69//35 35//35 73//35
f 36//31 31//32 32//36
f 36//31 32//36 33//36
f 36//31 33//36 37//36
f 36//31 37//36 34//36
f 36//31 34//36 35//36
f 36//31 35//36 30//33
f 52//37 47//37 43//37
f 52//37 43//37 40//37
f 52//37 40//37 51//37
f 44//38 48//38 46//38
f 44//38 46//38 42//38
f 43//39 47//39 45//39
f 43//39 45//39 41//39
f 42//40 46//40 51//40
f 42//40 51//40 40//40
f 39//41 50//41 49//41
f 39//41 49//41 38//41
f 38//42 49//42 48//42
f 38//42 48//42 44//42
f 78//43 54//43 53//43
f 78//43 53//43 77//43
f 77//44 53//44 56//44
f 77//44 56//44 76//44
f 47//45 57//45 55//45
f 47//45 55//45 45//45
f 69//46 76//46 56//46
f 69//46 56//46 30//46
f 75//47 78//47 58//47
f 75//47 58//47 52//47
f 52//48 58//48 57//48
f 52//48 57//48 47//48
f 41//49 45//49 50//49
f 41//49 50//49 39//49
f 2//50 65//50 68//50
f 2//50 68//50 25//50
f 16//51 59//21 66//23
f 16//51 66//23 26//51
f 28//52 26//52 66//52
f 28//52 66//52 67//52
f 29//53 28//53 67//53
f 29//53 67//53 68//53
f 16//54 21//54 63//54
f 16//54 63//54 59//54
f 19//55 17//55 60//55
f 19//55 60//55 61//55
f 23//56 65//56 64//56
f 23//56 64//56 22//56
f 17//57 22//57 64//57
f 17//57 64//57 60//57
f 21//58 20//58 62//58
f 21//58 62//58 63//58
f 20//59 19//59 61//59
f 20//59 61//59 62//59
f 31//60 54//60 78//60
f 31//60 78//60 75//60
f 45//61 55//61 76//61
f 45//61 76//61 69//61
f 57//62 77//62 76//62
f 57//62 76//62 55//62
f 58//63 78//63 77//63
f 58//63 77//63 57//63
f 45//64 69//64 73//64
f 45//64 73//64 50//64
f 48//65 71//65 70//65
f 48//65 70//65 46//65
f 52//66 51//66 74//66
f 52//66 74//66 75//66
f 46//67 70//67 74//67
f 46//67 74//67 51//67
f 50//68 73//68 72//68
f 50//68 72//68 49//68
f 49//69 72//69 71//69
f 49//69 71//69 48//69
