# Blender 4.5.3 LTS
# www.blender.org
mtllib building-type-l_roof.mtl
o building-type-l.001
v -0.453206 0.800000 0.060000
v -0.453206 0.800000 0.451716
v -0.444922 0.800000 0.460000
v -0.053206 0.800000 0.460000
v -0.053206 0.850000 0.480000
v -0.453206 0.850000 0.480000
v -0.053206 0.850000 0.460000
v -0.473206 0.850000 0.460000
v -0.444922 0.850000 0.460000
v -0.453206 0.850000 0.451716
v -0.473206 0.850000 0.060000
v -0.453206 0.850000 0.060000
v -0.053206 0.800000 0.060000
v -0.053206 0.800000 -0.340000
v -0.444922 0.800000 -0.340000
v -0.453206 0.800000 -0.331716
v -0.453206 0.800000 0.060000
v -0.473206 0.850000 0.060000
v -0.473206 0.850000 -0.340000
v -0.453206 0.850000 0.060000
v -0.453206 0.850000 -0.360000
v -0.453206 0.850000 -0.331716
v -0.444922 0.850000 -0.340000
v -0.053206 0.850000 -0.360000
v -0.053206 0.850000 -0.340000
v -0.053206 0.800000 0.060000
v -0.117080 0.888500 0.333583
v -0.130041 0.888500 0.364873
v -0.205580 0.888500 0.333583
v -0.192620 0.888500 0.364873
v -0.130041 0.888500 0.302294
v -0.161330 0.888500 0.377833
v -0.161330 0.888500 0.289333
v -0.192620 0.888500 0.302294
v -0.131830 0.918000 0.333583
v -0.140470 0.918000 0.354443
v -0.182190 0.918000 0.312723
v -0.161330 0.918000 0.304083
v -0.140470 0.918000 0.312723
v -0.161330 0.918000 0.363083
v -0.182190 0.918000 0.354443
v -0.190830 0.918000 0.333583
v -0.473206 0.836000 -0.304000
v -0.473206 0.836000 -0.268000
v -0.499206 0.836000 -0.304000
v -0.499206 0.836000 -0.268000
v -0.509206 0.826000 -0.268000
v -0.509206 0.826000 -0.304000
v 0.404932 0.804472 0.060000
v 0.404932 0.804472 -0.340000
v 0.360210 0.826833 -0.390000
v -0.039790 1.026833 -0.390000
v -0.084511 1.049193 0.060000
v -0.084511 1.049193 -0.340000
v 0.391833 0.811021 -0.375355
v -0.071412 1.042644 -0.375355
v 0.404932 0.804472 0.060000
v 0.404932 0.804472 0.460000
v 0.360210 0.826833 0.510000
v -0.039790 1.026833 0.510000
v -0.084511 1.049193 0.060000
v -0.084511 1.049193 0.460000
v 0.391833 0.811021 0.495355
v -0.071412 1.042644 0.495355
v -0.453206 0.794000 0.060000
v -0.453206 0.794000 0.451716
v -0.444922 0.794000 0.460000
v -0.053206 0.794000 0.460000
v -0.053206 0.844000 0.480000
v -0.453206 0.844000 0.480000
v -0.053206 0.844000 0.460000
v -0.473206 0.844000 0.460000
v -0.444922 0.844000 0.460000
v -0.453206 0.844000 0.451716
v -0.473206 0.844000 0.060000
v -0.453206 0.844000 0.060000
v -0.053206 0.794000 0.060000
v -0.053206 0.794000 -0.340000
v -0.444922 0.794000 -0.340000
v -0.453206 0.794000 -0.331716
v -0.453206 0.794000 0.060000
v -0.473206 0.844000 0.060000
v -0.473206 0.844000 -0.340000
v -0.453206 0.844000 0.060000
v -0.453206 0.844000 -0.360000
v -0.453206 0.844000 -0.331716
v -0.444922 0.844000 -0.340000
v -0.053206 0.844000 -0.360000
v -0.053206 0.844000 -0.340000
v -0.053206 0.794000 0.060000
v -0.122803 0.885638 0.333583
v -0.134087 0.885638 0.360826
v -0.199857 0.885638 0.333583
v -0.188573 0.885638 0.360826
v -0.134087 0.885638 0.306340
v -0.161330 0.885638 0.372110
v -0.161330 0.885638 0.295056
v -0.188573 0.885638 0.306340
v -0.136216 0.912272 0.333583
v -0.143613 0.912196 0.351300
v -0.179047 0.912196 0.315866
v -0.161330 0.912159 0.308556
v -0.143606 0.912210 0.315859
v -0.161330 0.912159 0.358611
v -0.179054 0.912210 0.351308
v -0.186444 0.912272 0.333583
v -0.473206 0.830000 -0.304000
v -0.473206 0.830000 -0.268000
v -0.496721 0.830000 -0.304000
v -0.496721 0.830000 -0.268000
v -0.504964 0.821757 -0.268000
v -0.504964 0.821757 -0.304000
v 0.402248 0.799106 0.060000
v 0.402249 0.799106 -0.340000
v 0.357527 0.821466 -0.390000
v -0.042473 1.021466 -0.390000
v -0.087194 1.043826 0.060000
v -0.087194 1.043826 -0.340000
v 0.389150 0.805655 -0.375355
v -0.074096 1.037277 -0.375356
v 0.402249 0.799106 0.060000
v 0.402248 0.799106 0.460000
v 0.357527 0.821466 0.510000
v -0.042473 1.021466 0.510000
v -0.087194 1.043826 0.060000
v -0.087194 1.043826 0.460000
v 0.389150 0.805655 0.495355
v -0.074096 1.037277 0.495355
vn 0.5773 0.5774 -0.5773
vn 0.0277 0.6598 0.7509
vn 0.5774 0.5773 0.5774
vn -0.8867 0.2808 -0.3673
vn -0.6679 0.3285 0.6679
vn 0.5491 0.8042 -0.2275
vn -0.5773 0.5774 -0.5773
vn 0.5774 0.5774 -0.5774
vn -0.2971 0.6303 0.7173
vn 0.5773 0.5774 0.5773
vn -0.7509 0.6598 0.0277
vn -0.5774 0.5774 0.5774
vn -0.7173 0.6303 -0.2971
vn -0.2971 0.6303 -0.7173
vn 0.6453 0.6855 0.3372
vn 0.8594 0.5114 -0.0000
vn 0.5146 0.8154 0.2651
vn 0.6495 0.6826 -0.3349
vn 0.6113 0.5026 -0.6113
vn 0.2152 0.8164 -0.5360
vn -0.2221 0.3121 0.9237
vn -0.2152 0.8164 0.5360
vn -0.5618 0.6073 0.5618
vn -0.8045 0.3190 -0.5010
vn -0.5593 0.6118 -0.5593
vn -0.9622 -0.2702 0.0349
vn -0.5146 0.8154 -0.2651
vn 0.4961 0.3121 0.8102
vn -0.0471 0.9353 -0.3506
vn 0.0506 0.7503 0.6592
vn 0.7746 0.2582 0.5773
vn -0.3604 0.9319 -0.0417
vn -0.2582 0.7746 0.5774
vn 0.9062 0.3893 -0.1648
vn 0.5811 0.4614 0.6704
vn 0.6402 0.4601 0.6152
vn 0.2955 0.6045 0.7397
vn 0.9052 0.3865 0.1766
vn 0.0715 0.7731 0.6302
vn -0.3244 0.9138 0.2443
vn 0.7746 0.2582 -0.5773
vn -0.2582 0.7746 -0.5774
vn 0.7734 0.5469 0.3204
vn -0.7173 0.6303 0.2971
vn -0.5774 0.5774 -0.5774
vn 0.3673 0.2808 -0.8867
vn -0.6679 0.3285 -0.6679
vn -0.3204 0.5469 0.7734
vn 0.2275 0.8042 0.5491
vn 0.9622 -0.2702 -0.0350
vn -0.7157 -0.2683 -0.6448
vn -0.9452 0.1271 0.3006
vn -0.9432 -0.0000 -0.3323
vn -0.3234 0.8997 -0.2932
vn 0.6418 0.4634 -0.6110
vn 0.0527 0.7260 -0.6857
vn 0.2712 0.6163 -0.7393
vn 0.5773 -0.5774 -0.5773
vn 0.5773 -0.5774 0.5773
vn 0.0276 -0.6683 0.7434
vn -0.8867 -0.2808 -0.3673
vn -0.6679 -0.3285 0.6679
vn -0.5773 -0.5774 -0.5773
vn 0.5491 -0.8042 -0.2275
vn 0.5774 -0.5774 -0.5774
vn 0.5774 -0.5773 0.5774
vn -0.2971 -0.6303 0.7173
vn -0.5774 -0.5774 0.5774
vn -0.7434 -0.6683 0.0275
vn -0.7173 -0.6303 -0.2971
vn -0.2971 -0.6303 -0.7173
vn -0.3495 -0.7598 -0.5482
vn -0.4425 -0.8968 -0.0004
vn -0.6468 -0.6498 0.3991
vn -0.3305 -0.8828 0.3337
vn 0.1856 -0.7012 0.6883
vn 0.1055 -0.8315 0.5454
vn 0.5412 -0.6431 -0.5418
vn 0.5567 -0.7558 -0.3448
vn -0.1055 -0.8315 -0.5454
vn 0.3585 -0.6910 -0.6277
vn 0.5315 -0.6595 0.5315
vn 0.2905 -0.8359 0.4658
vn 0.4425 -0.8968 0.0004
vn 0.0003 -0.6434 -0.7655
vn 0.5856 -0.4571 -0.6695
vn 0.5774 -0.5773 -0.5774
vn 0.3101 -0.7486 0.5861
vn 0.2582 -0.7746 0.5773
vn -0.7746 -0.2582 0.5774
vn -0.9362 -0.3434 -0.0752
vn 0.3607 -0.9326 -0.0149
vn -0.3303 -0.5868 0.7393
vn -0.3073 -0.6010 0.7378
vn 0.0414 -0.7553 0.6541
vn -0.5812 -0.5312 0.6165
vn 0.3154 -0.9099 0.2693
vn -0.9169 -0.3650 0.1611
vn 0.2582 -0.7746 -0.5773
vn -0.7746 -0.2582 -0.5774
vn 0.7734 -0.5469 0.3204
vn -0.7173 -0.6303 0.2971
vn -0.5774 -0.5774 -0.5774
vn 0.3673 -0.2808 -0.8867
vn -0.6679 -0.3285 -0.6679
vn 0.2275 -0.8042 0.5491
vn -0.3204 -0.5469 0.7734
vn -0.5315 -0.6595 -0.5315
vn -0.3932 -0.6613 0.6388
vn -0.0000 -0.9598 0.2807
vn 0.2366 -0.7065 -0.6669
vn -0.5812 -0.5312 -0.6165
vn 0.2912 -0.8802 -0.3748
vn -0.3073 -0.6010 -0.7378
vn -0.0204 -0.7417 -0.6704
vt 0.093750 0.475000
vt 0.093750 0.275000
vt 0.093750 0.455000
vt 0.093750 0.425000
vt 0.093750 0.652905
vt 0.093750 0.725000
vt 0.093750 0.659492
vt 0.093750 0.654834
vt 0.093750 0.718413
vt 0.093750 0.723071
vt 0.093750 0.397222
s 1
usemtl Material.012
f 7/1/1 6/1/2 5/1/3
f 6/1/2 7/1/1 8/1/4
f 8/1/5 10/1/6 11/1/7
f 11/1/7 10/1/6 12/1/8
f 13/2/1 3/2/9 4/2/10
f 20/1/10 19/1/11 18/1/12
f 26/2/10 16/2/13 17/2/12
f 16/2/13 26/2/10 15/2/14
f 36/1/15 27/3/16 35/1/17
f 39/1/18 27/3/16 31/3/19
f 27/3/16 39/1/18 35/1/17
f 31/3/19 38/1/20 39/1/18
f 30/3/21 40/1/22 41/1/23
f 29/3/24 37/1/25 34/3/26
f 37/1/25 29/3/24 42/1/27
f 32/3/28 36/1/15 40/1/22
f 45/4/29 44/4/10 43/4/8
f 44/4/10 45/4/29 46/4/30
f 49/5/31 54/6/32 53/6/33
f 54/6/32 49/5/31 50/5/34
f 59/7/35 63/8/36 60/9/37
f 63/8/36 58/5/38 64/10/39
f 64/10/39 58/5/38 62/6/40
f 58/5/38 57/5/41 62/6/40
f 61/6/42 62/6/40 57/5/41
f 8/1/5 9/1/43 10/1/6
f 3/2/9 13/2/1 2/2/44
f 2/2/44 13/2/1 1/2/45
f 19/1/11 20/1/10 21/1/46
f 21/1/47 22/1/48 23/1/49
f 21/1/47 23/1/49 24/1/1
f 24/1/1 23/1/49 25/1/3
f 15/2/14 26/2/10 14/2/8
f 27/3/16 36/1/15 28/3/50
f 37/1/25 33/3/51 34/3/26
f 33/3/51 37/1/25 38/1/20
f 38/1/20 31/3/19 33/3/51
f 40/1/22 30/3/21 32/3/28
f 39/1/18 36/1/15 35/1/17
f 36/1/15 39/1/18 38/1/20
f 36/1/15 38/1/20 40/1/22
f 40/1/22 38/1/20 37/1/25
f 40/1/22 37/1/25 41/1/23
f 41/1/23 37/1/25 42/1/27
f 29/3/24 41/1/23 42/1/27
f 41/1/23 29/3/24 30/3/21
f 36/1/15 32/3/28 28/3/50
f 47/11/52 45/4/29 48/11/53
f 45/4/29 47/11/52 46/4/30
f 54/6/32 50/5/34 56/10/54
f 56/10/54 50/5/34 55/8/55
f 56/10/54 55/8/55 52/9/56
f 52/9/56 55/8/55 51/7/57
f 60/9/37 63/8/36 64/10/39
f 71/1/58 69/1/59 70/1/60
f 70/1/60 72/1/61 71/1/58
f 72/1/62 75/1/63 74/1/64
f 75/1/63 76/1/65 74/1/64
f 77/2/58 68/2/66 67/2/67
f 84/1/59 82/1/68 83/1/69
f 90/2/59 81/2/68 80/2/70
f 80/2/70 79/2/71 90/2/59
f 100/1/72 99/1/73 91/3/74
f 103/1/75 95/3/76 91/3/74
f 91/3/74 99/1/73 103/1/75
f 95/3/76 103/1/75 102/1/77
f 94/3/78 105/1/79 104/1/80
f 93/3/81 98/3/82 101/1/83
f 101/1/83 106/1/84 93/3/81
f 96/3/85 104/1/80 100/1/72
f 109/4/86 107/4/87 108/4/59
f 108/4/59 110/4/88 109/4/86
f 113/5/89 117/6/90 118/6/91
f 118/6/91 114/5/92 113/5/89
f 123/7/93 124/9/94 127/8/95
f 127/8/95 128/10/96 122/5/97
f 128/10/96 126/6/98 122/5/97
f 122/5/97 126/6/98 121/5/99
f 125/6/100 121/5/99 126/6/98
f 72/1/62 74/1/64 73/1/101
f 67/2/67 66/2/102 77/2/58
f 66/2/102 65/2/103 77/2/58
f 83/1/69 85/1/104 84/1/59
f 85/1/105 87/1/106 86/1/107
f 85/1/105 88/1/58 87/1/106
f 88/1/58 89/1/59 87/1/106
f 79/2/71 78/2/65 90/2/59
f 91/3/74 92/3/108 100/1/72
f 101/1/83 98/3/82 97/3/109
f 97/3/109 102/1/77 101/1/83
f 102/1/77 97/3/109 95/3/76
f 104/1/80 96/3/85 94/3/78
f 103/1/75 99/1/73 100/1/72
f 100/1/72 102/1/77 103/1/75
f 100/1/72 104/1/80 102/1/77
f 104/1/80 101/1/83 102/1/77
f 104/1/80 105/1/79 101/1/83
f 105/1/79 106/1/84 101/1/83
f 93/3/81 106/1/84 105/1/79
f 105/1/79 94/3/78 93/3/81
f 100/1/72 92/3/108 96/3/85
f 111/11/110 112/11/111 109/4/86
f 109/4/86 110/4/88 111/11/110
f 118/6/91 120/10/112 114/5/92
f 120/10/112 119/8/113 114/5/92
f 120/10/112 116/9/114 119/8/113
f 116/9/114 115/7/115 119/8/113
f 124/9/94 128/10/96 127/8/95
f 2/2/44 1/2/45 65/2/103 66/2/102
f 7/1/1 5/1/3 69/1/59 71/1/58
f 5/1/3 6/1/2 70/1/60 69/1/59
f 1/2/45 13/2/1 77/2/58 65/2/103
f 52/9/56 51/7/57 115/7/115 116/9/114
f 51/7/57 55/8/55 119/8/113 115/7/115
f 58/5/38 63/8/36 127/8/95 122/5/97
f 64/10/39 62/6/40 126/6/98 128/10/96
f 6/1/2 8/1/4 72/1/61 70/1/60
f 15/2/14 14/2/8 78/2/65 79/2/71
f 20/1/10 18/1/12 82/1/68 84/1/59
f 18/1/12 19/1/11 83/1/69 82/1/68
f 14/2/8 26/2/10 90/2/59 78/2/65
f 32/3/28 30/3/21 94/3/78 96/3/85
f 34/3/26 33/3/51 97/3/109 98/3/82
f 56/10/54 52/9/56 116/9/114 120/10/112
f 59/7/35 60/9/37 124/9/94 123/7/93
f 63/8/36 59/7/35 123/7/93 127/8/95
f 3/2/9 2/2/44 66/2/102 67/2/67
f 8/1/4 7/1/1 71/1/58 72/1/61
f 19/1/11 21/1/46 85/1/104 83/1/69
f 45/4/29 43/4/8 107/4/87 109/4/86
f 43/4/8 44/4/10 108/4/59 107/4/87
f 60/9/37 64/10/39 128/10/96 124/9/94
f 9/1/43 8/1/5 72/1/62 73/1/101
f 8/1/5 11/1/7 75/1/63 72/1/62
f 16/2/13 15/2/14 79/2/71 80/2/70
f 21/1/46 20/1/10 84/1/59 85/1/104
f 44/4/10 46/4/30 110/4/88 108/4/59
f 4/2/10 3/2/9 67/2/67 68/2/66
f 10/1/6 9/1/43 73/1/101 74/1/64
f 22/1/48 21/1/47 85/1/105 86/1/107
f 21/1/47 24/1/1 88/1/58 85/1/105
f 27/3/16 28/3/50 92/3/108 91/3/74
f 31/3/19 27/3/16 91/3/74 95/3/76
f 48/11/53 45/4/29 109/4/86 112/11/111
f 12/1/8 10/1/6 74/1/64 76/1/65
f 13/2/1 4/2/10 68/2/66 77/2/58
f 17/2/12 16/2/13 80/2/70 81/2/68
f 23/1/49 22/1/48 86/1/107 87/1/106
f 33/3/51 31/3/19 95/3/76 97/3/109
f 28/3/50 32/3/28 96/3/85 92/3/108
f 46/4/30 47/11/52 111/11/110 110/4/88
f 50/5/34 49/5/31 113/5/89 114/5/92
f 49/5/31 53/6/33 117/6/90 113/5/89
f 11/1/7 12/1/8 76/1/65 75/1/63
f 25/1/3 23/1/49 87/1/106 89/1/59
f 26/2/10 17/2/12 81/2/68 90/2/59
f 47/11/52 48/11/53 112/11/111 111/11/110
f 53/6/33 54/6/32 118/6/91 117/6/90
f 57/5/41 58/5/38 122/5/97 121/5/99
f 61/6/42 57/5/41 121/5/99 125/6/100
f 24/1/1 25/1/3 89/1/59 88/1/58
f 30/3/21 29/3/24 93/3/81 94/3/78
f 29/3/24 34/3/26 98/3/82 93/3/81
f 55/8/55 50/5/34 114/5/92 119/8/113
f 54/6/32 56/10/54 120/10/112 118/6/91
f 62/6/40 61/6/42 125/6/100 126/6/98
