# Blender 4.5.3 LTS
# www.blender.org
mtllib building-type-f_roof.mtl
o building-type-f.001
v 0.656000 0.400000 -0.555054
v -0.544000 0.400000 -0.155054
v 0.042261 1.010383 -0.240879
v 0.029301 1.010383 -0.209589
v -0.046239 1.010383 -0.240879
v -0.033278 1.010383 -0.209589
v 0.029301 1.010383 -0.272168
v -0.001989 1.010383 -0.196629
v -0.001989 1.010383 -0.285129
v -0.033278 1.010383 -0.272168
v 0.027511 1.039883 -0.240879
v 0.018871 1.039883 -0.220019
v -0.022848 1.039883 -0.261738
v -0.001989 1.039883 -0.270379
v 0.018871 1.039883 -0.261738
v -0.001989 1.039883 -0.211379
v -0.022848 1.039883 -0.220019
v -0.031489 1.039883 -0.240879
v -0.144000 0.794000 0.702946
v 0.256000 0.794000 0.702946
v -0.144000 1.137500 0.244946
v 0.256000 1.137500 0.244946
v -0.544000 0.794000 0.702946
v -0.594000 1.137500 0.244946
v -0.579355 0.802787 0.691230
v -0.594000 0.824000 0.662946
v 0.714000 0.794000 -0.555054
v 0.714000 0.794000 -0.155054
v 0.256000 1.137500 -0.155054
v 0.256000 1.137500 -0.605054
v 0.702284 0.802787 -0.590410
v 0.674000 0.824000 -0.605054
v 0.714000 0.794000 0.244946
v 0.714000 0.794000 -0.155054
v 0.256000 1.137500 0.244946
v 0.256000 1.137500 -0.155054
v 0.256000 1.137500 -0.155054
v 0.256000 1.137500 0.244946
v -0.144000 0.837500 -0.155054
v -0.144000 1.137500 0.244946
v -0.202000 0.794000 -0.555054
v -0.202000 0.794000 -0.155054
v 0.256000 1.137500 -0.155054
v 0.256000 1.137500 -0.605054
v -0.190284 0.802787 -0.590410
v -0.162000 0.824000 -0.605054
v 0.714000 0.794000 0.702946
v 0.256000 0.794000 0.702946
v 0.256000 1.137500 0.244946
v 0.714000 0.794000 0.244946
v -0.594000 0.824000 -0.173054
v -0.594000 1.137500 0.244946
v -0.579355 0.802787 -0.201339
v -0.144000 1.137500 0.244946
v -0.544000 0.794000 -0.213054
v -0.144000 0.794000 -0.213054
v -0.494000 0.965750 -0.133054
v -0.494000 0.965750 0.015946
v -0.479355 0.976660 -0.168410
v -0.344000 1.077500 0.164946
v -0.444000 1.003000 -0.183054
v -0.344000 1.077500 -0.183054
v -0.194000 0.965750 -0.133054
v -0.194000 0.965750 0.015946
v -0.208645 0.976660 -0.168410
v -0.244000 1.003000 -0.183054
v -0.144000 0.361633 -0.682946
v -0.144000 0.400000 -0.555054
v -0.124000 0.355633 -0.702946
v 0.636000 0.355633 -0.702946
v 0.656000 0.361633 -0.682946
v -0.544000 0.361633 -0.282946
v -0.524000 0.355633 -0.302946
v -0.164000 0.355633 -0.302946
v -0.144000 0.361633 -0.282946
v -0.144000 0.400000 -0.155054
v 0.656000 0.395211 -0.553618
v -0.544000 0.395211 -0.153618
v 0.037492 1.007998 -0.240879
v 0.025928 1.007998 -0.212962
v -0.041470 1.007998 -0.240879
v -0.029906 1.007998 -0.212962
v 0.025928 1.007998 -0.268796
v -0.001989 1.007998 -0.201398
v -0.001989 1.007998 -0.280360
v -0.029906 1.007998 -0.268796
v 0.023856 1.035110 -0.240879
v 0.016252 1.035046 -0.222638
v -0.020229 1.035046 -0.259120
v -0.001989 1.035015 -0.266652
v 0.016258 1.035058 -0.259126
v -0.001989 1.035015 -0.215106
v -0.020236 1.035058 -0.222632
v -0.027834 1.035110 -0.240879
v -0.144000 0.790000 0.699946
v 0.256000 0.790000 0.699946
v -0.144000 1.133500 0.241946
v 0.256000 1.133500 0.241946
v -0.544000 0.790000 0.699946
v -0.594000 1.133500 0.241946
v -0.579355 0.798787 0.688230
v -0.594000 0.820000 0.659946
v 0.711000 0.790000 -0.555054
v 0.711000 0.790000 -0.155054
v 0.253000 1.133500 -0.155054
v 0.253000 1.133500 -0.605054
v 0.699284 0.798787 -0.590410
v 0.671000 0.820000 -0.605054
v 0.711000 0.790000 0.244946
v 0.711000 0.790000 -0.155054
v 0.253000 1.133500 0.244946
v 0.253000 1.133500 -0.155054
v 0.259000 1.133500 -0.155054
v 0.257829 1.132622 0.246775
v -0.142171 0.832622 -0.153225
v -0.144000 1.133500 0.247946
v -0.199000 0.790000 -0.555054
v -0.199000 0.790000 -0.155054
v 0.259000 1.133500 -0.155054
v 0.259000 1.133500 -0.605054
v -0.187284 0.798787 -0.590410
v -0.159000 0.820000 -0.605054
v 0.712171 0.789122 0.701116
v 0.256000 0.790000 0.699946
v 0.254171 1.132622 0.243116
v 0.711000 0.790000 0.244946
v -0.594000 0.820000 -0.170054
v -0.594000 1.133500 0.247946
v -0.579355 0.798787 -0.198339
v -0.144000 1.133500 0.247946
v -0.544000 0.790000 -0.210054
v -0.144000 0.790000 -0.210054
v -0.491013 0.961740 -0.133054
v -0.491013 0.961740 0.015946
v -0.476368 0.972651 -0.168410
v -0.344000 1.071265 0.164946
v -0.441013 0.998990 -0.183054
v -0.344000 1.071265 -0.183054
v -0.196987 0.961740 -0.133054
v -0.196987 0.961740 0.015946
v -0.211632 0.972651 -0.168410
v -0.246987 0.998990 -0.183054
v -0.144000 0.356843 -0.681509
v -0.144000 0.395211 -0.553618
v -0.124000 0.350843 -0.701509
v 0.636000 0.350843 -0.701509
v 0.656000 0.356843 -0.681509
v -0.544000 0.356843 -0.281509
v -0.524000 0.350843 -0.301509
v -0.164000 0.350843 -0.301509
v -0.144000 0.356843 -0.281509
v -0.144000 0.395211 -0.153618
vn -0.3372 0.6856 -0.6452
vn -0.7157 -0.2683 -0.6448
vn -0.6167 0.4892 -0.6167
vn -0.0000 0.6356 -0.7720
vn 0.6495 0.6826 -0.3349
vn 0.6374 -0.2671 -0.7227
vn 0.6113 0.5026 -0.6113
vn 0.8054 0.5927 -0.0000
vn -0.1927 0.7009 0.6868
vn 0.0502 -0.2683 0.9620
vn -0.0000 0.5026 0.8645
vn -0.5618 0.6073 0.5618
vn -0.8045 0.3190 -0.5010
vn 0.5427 0.8161 0.1986
vn -0.5146 0.8154 0.2651
vn 0.5773 0.8083 -0.1155
vn -0.0000 0.1414 0.9899
vn 0.5774 0.1155 0.8083
vn -0.6704 0.3500 0.6543
vn -0.6264 0.3754 0.6832
vn -0.5773 0.8083 -0.1155
vn -0.0000 0.9900 -0.1414
vn 0.0028 0.0945 0.9955
vn 0.9775 0.2053 -0.0478
vn -0.1155 0.8083 0.5773
vn 0.8083 0.1155 0.5774
vn -0.1155 0.8083 -0.5773
vn 0.6832 0.3753 -0.6264
vn 0.3771 0.5578 -0.7393
vn -0.6945 0.1882 -0.6945
vn 0.3140 0.8960 0.3140
vn 0.2485 0.7321 -0.6343
vn -0.6343 0.7321 0.2485
vn -0.4111 0.8137 -0.4111
vn -0.5116 0.2418 0.8245
vn 0.7027 0.1111 0.7027
vn 0.5774 0.1155 -0.8083
vn -0.0353 0.2193 -0.9750
vn 0.5773 0.8083 0.1155
vn -0.6162 0.3432 -0.7089
vn -0.5773 0.8083 0.1155
vn 0.9267 0.1429 -0.3475
vn 0.9332 0.2137 -0.2889
vn 0.9381 0.1504 0.3121
vn 0.5786 0.4858 -0.6552
vn -0.0000 0.5360 0.8442
vn -0.0000 0.8043 -0.5942
vn -0.5097 0.5686 -0.6457
vn -0.8995 0.2137 -0.3811
vn -0.9381 0.1504 0.3121
vn -0.9958 0.0915 -0.0030
vn -0.5774 0.7189 0.3871
vn 0.0575 0.4156 -0.9077
vn -0.4397 0.6248 -0.6452
vn -0.7497 0.6485 -0.1315
vn 0.9622 -0.2702 -0.0350
vn 0.8083 0.1155 0.5773
vn -0.1155 0.8083 0.5774
vn 0.8083 0.1155 -0.5774
vn -0.6543 0.3500 -0.6704
vn -0.6832 0.3754 -0.6264
vn 0.1155 0.8083 -0.5773
vn -0.9546 0.2338 -0.1846
vn 0.1155 0.8083 0.5773
vn -0.8083 0.1155 0.5773
vn 0.8245 0.2418 -0.5116
vn -0.7393 0.5578 -0.3771
vn 0.5774 0.7189 0.3871
vn 0.5148 0.4745 -0.7140
vn 0.4091 0.5714 -0.7114
vn 0.5773 0.7189 0.3871
vn 0.3405 -0.8756 0.3425
vn 0.6749 -0.7162 -0.1775
vn -0.3953 -0.6613 0.6375
vn -0.1200 -0.7654 0.6323
vn -0.3312 -0.8825 0.3338
vn 0.1853 -0.7012 0.6884
vn -0.6451 -0.6501 -0.4015
vn -0.6407 -0.7465 -0.1796
vn 0.0001 -0.8657 -0.5005
vn -0.6175 -0.7016 -0.3556
vn 0.7302 -0.6612 -0.1722
vn 0.5573 -0.7553 -0.3448
vn 0.3587 -0.6911 -0.6275
vn -0.3929 -0.7321 -0.5565
vn 0.6408 -0.7466 -0.1789
vn 0.5773 -0.1155 -0.8083
vn 0.5773 -0.8083 0.1155
vn -0.0000 -0.9900 0.1414
vn -0.7393 -0.5182 -0.4299
vn -0.5773 -0.1155 -0.8083
vn -0.6750 -0.7261 -0.1307
vn -0.0478 -0.9959 0.0766
vn -0.0000 -0.1414 -0.9899
vn 0.1881 -0.9822 0.0028
vn 0.1155 -0.8083 0.5773
vn -0.8083 -0.1155 0.5773
vn -0.8083 -0.1155 -0.5773
vn 0.1444 -0.9325 -0.3311
vn -0.1528 -0.7261 -0.6704
vn -0.4095 -0.8152 -0.4095
vn 0.8245 -0.2413 -0.5118
vn 0.7026 -0.1131 0.7026
vn -0.5118 -0.2413 0.8245
vn -0.6943 -0.1894 -0.6943
vn 0.3136 -0.8963 0.3136
vn -0.6342 -0.7323 0.2481
vn 0.5773 -0.8083 -0.1155
vn 0.5773 -0.1155 0.8083
vn 0.0217 -0.9819 -0.1880
vn -0.5773 -0.1155 0.8083
vn -0.4734 -0.8708 0.1327
vn 0.1973 -0.9803 0.0069
vn 0.2651 -0.8974 0.3528
vn 0.1560 -0.9387 -0.3073
vn -0.2234 -0.6785 -0.6998
vn -0.0000 -0.5722 0.8201
vn -0.0000 -0.4950 -0.8689
vn 0.4152 -0.5356 -0.7354
vn -0.2652 -0.8974 0.3528
vn 0.0948 -0.9075 -0.4091
vn -0.1319 -0.9316 -0.3387
vn -0.5774 -0.3871 0.7189
vn 0.0362 -0.8475 -0.5296
vn 0.0599 -0.8649 -0.4984
vn -0.4996 -0.7927 -0.3492
vn -0.5317 -0.6592 -0.5318
vn -0.8083 -0.1155 0.5774
vn 0.1155 -0.8083 -0.5773
vn 0.4299 -0.5182 -0.7393
vn 0.8083 -0.1155 -0.5774
vn 0.1307 -0.7261 -0.6750
vn -0.1422 -0.9477 -0.2857
vn 0.8083 -0.1155 0.5773
vn -0.1155 -0.8083 0.5774
vn 0.2481 -0.7323 -0.6342
vn -0.6704 -0.7261 0.1528
vn 0.7505 -0.6206 0.2272
vn 0.5773 -0.3871 0.7189
vn 0.5042 -0.7916 -0.3452
vt 0.093750 0.475000
vt 0.093750 0.425000
vt 0.093750 0.725000
vt 0.093750 0.650225
vt 0.093750 0.656755
vt 0.093750 0.652137
vt 0.093750 0.653889
vt 0.093750 0.625000
vt 0.093750 0.634763
vt 0.093750 0.658333
vt 0.093750 0.605681
vt 0.093750 0.621817
s 1
usemtl Material.006
f 13/1/1 9/2/2 10/2/3
f 9/2/2 13/1/1 14/1/4
f 15/1/5 3/2/6 7/2/7
f 3/2/6 15/1/5 11/1/8
f 16/1/9 6/2/10 8/2/11
f 6/2/10 16/1/9 17/1/12
f 5/2/13 13/1/1 10/2/3
f 15/1/5 12/1/14 11/1/8
f 12/1/14 15/1/5 14/1/4
f 12/1/14 14/1/4 16/1/9
f 16/1/9 14/1/4 13/1/1
f 16/1/9 13/1/1 17/1/12
f 17/1/12 13/1/1 18/1/15
f 22/3/16 19/4/17 20/4/18
f 26/5/19 25/6/20 24/3/21
f 19/4/17 21/3/22 23/4/23
f 27/4/24 29/3/25 28/4/26
f 30/3/27 27/4/24 31/6/28
f 30/3/27 31/6/28 32/5/29
f 39/7/30 38/3/31 37/3/32
f 39/7/30 40/3/33 38/3/31
f 49/3/34 48/4/35 47/4/36
f 56/4/37 55/4/38 54/3/39
f 54/3/39 53/6/40 52/3/41
f 63/8/42 65/9/43 64/8/44
f 65/9/43 66/10/45 64/8/44
f 64/8/44 66/10/45 60/3/46
f 62/3/47 61/10/48 60/3/46
f 60/3/46 59/9/49 58/8/50
f 57/8/51 58/8/50 59/9/49
f 68/3/52 70/11/53 69/11/54
f 68/3/52 69/11/54 67/12/55
f 12/1/14 3/2/6 11/1/8
f 3/2/6 12/1/14 4/2/56
f 14/1/4 7/2/7 9/2/2
f 7/2/7 14/1/4 15/1/5
f 13/1/1 5/2/13 18/1/15
f 5/2/13 17/1/12 18/1/15
f 17/1/12 5/2/13 6/2/10
f 12/1/14 8/2/11 4/2/56
f 8/2/11 12/1/14 16/1/9
f 19/4/17 22/3/16 21/3/22
f 25/6/20 23/4/23 24/3/21
f 24/3/21 23/4/23 21/3/22
f 29/3/25 27/4/24 30/3/27
f 33/4/57 36/3/27 35/3/58
f 36/3/27 33/4/57 34/4/59
f 46/5/60 45/6/61 44/3/62
f 45/6/61 41/4/63 44/3/62
f 44/3/62 41/4/63 43/3/64
f 42/4/65 43/3/64 41/4/63
f 49/3/34 47/4/36 50/4/66
f 55/4/38 53/6/40 54/3/39
f 51/5/67 52/3/41 53/6/40
f 62/3/47 60/3/46 66/10/45
f 61/10/48 59/9/49 60/3/46
f 70/11/53 1/3/68 71/12/69
f 1/3/68 70/11/53 68/3/52
f 74/11/70 76/3/71 75/12/69
f 76/3/71 74/11/70 2/3/52
f 2/3/52 74/11/70 73/11/54
f 2/3/52 73/11/54 72/12/55
f 89/1/72 86/2/73 85/2/74
f 85/2/74 90/1/75 89/1/72
f 91/1/76 83/2/77 79/2/78
f 79/2/78 87/1/79 91/1/76
f 92/1/80 84/2/81 82/2/82
f 82/2/82 93/1/83 92/1/80
f 81/2/84 86/2/73 89/1/72
f 91/1/76 87/1/79 88/1/85
f 88/1/85 90/1/75 91/1/76
f 88/1/85 92/1/80 90/1/75
f 92/1/80 89/1/72 90/1/75
f 92/1/80 93/1/83 89/1/72
f 93/1/83 94/1/86 89/1/72
f 98/3/87 96/4/88 95/4/89
f 102/5/90 100/3/91 101/6/92
f 95/4/89 99/4/93 97/3/94
f 103/4/95 104/4/96 105/3/97
f 106/3/98 107/6/99 103/4/95
f 106/3/98 108/5/100 107/6/99
f 115/7/101 113/3/102 114/3/103
f 115/7/101 114/3/103 116/3/104
f 125/3/105 123/4/106 124/4/107
f 132/4/108 130/3/109 131/4/110
f 130/3/109 128/3/111 129/6/112
f 139/8/113 140/8/114 141/9/115
f 141/9/115 140/8/114 142/10/116
f 140/8/114 136/3/117 142/10/116
f 138/3/118 136/3/117 137/10/119
f 136/3/117 134/8/120 135/9/121
f 133/8/122 135/9/121 134/8/120
f 144/3/123 145/11/124 146/11/125
f 144/3/123 143/12/126 145/11/124
f 88/1/85 87/1/79 79/2/78
f 79/2/78 80/2/127 88/1/85
f 90/1/75 85/2/74 83/2/77
f 83/2/77 91/1/76 90/1/75
f 89/1/72 94/1/86 81/2/84
f 81/2/84 94/1/86 93/1/83
f 93/1/83 82/2/82 81/2/84
f 88/1/85 80/2/127 84/2/81
f 84/2/81 92/1/80 88/1/85
f 95/4/89 97/3/94 98/3/87
f 101/6/92 100/3/91 99/4/93
f 100/3/91 97/3/94 99/4/93
f 105/3/97 106/3/98 103/4/95
f 109/4/96 111/3/128 112/3/98
f 112/3/98 110/4/129 109/4/96
f 122/5/130 120/3/131 121/6/132
f 121/6/132 120/3/131 117/4/133
f 120/3/131 119/3/134 117/4/133
f 118/4/135 117/4/133 119/3/134
f 125/3/105 126/4/136 123/4/106
f 131/4/110 130/3/109 129/6/112
f 127/5/137 129/6/112 128/3/111
f 138/3/118 142/10/116 136/3/117
f 137/10/119 136/3/117 135/9/121
f 146/11/125 147/12/138 77/3/139
f 77/3/139 144/3/123 146/11/125
f 150/11/140 151/12/138 152/3/139
f 152/3/139 78/3/123 150/11/140
f 78/3/123 149/11/124 150/11/140
f 78/3/123 148/12/126 149/11/124
f 3/2/6 4/2/56 80/2/127 79/2/78
f 7/2/7 3/2/6 79/2/78 83/2/77
f 20/4/18 19/4/17 95/4/89 96/4/88
f 23/4/23 25/6/20 101/6/92 99/4/93
f 19/4/17 23/4/23 99/4/93 95/4/89
f 35/3/58 36/3/27 112/3/98 111/3/128
f 62/3/47 66/10/45 142/10/116 138/3/118
f 68/3/52 67/12/55 143/12/126 144/3/123
f 67/12/55 69/11/54 145/11/124 143/12/126
f 2/3/52 72/12/55 148/12/126 78/3/123
f 74/11/70 75/12/69 151/12/138 150/11/140
f 76/3/71 2/3/52 78/3/123 152/3/139
f 9/2/2 7/2/7 83/2/77 85/2/74
f 4/2/56 8/2/11 84/2/81 80/2/127
f 26/5/19 24/3/21 100/3/91 102/5/90
f 65/9/43 63/8/42 139/8/113 141/9/115
f 63/8/42 64/8/44 140/8/114 139/8/113
f 22/3/16 20/4/18 96/4/88 98/3/87
f 25/6/20 26/5/19 102/5/90 101/6/92
f 27/4/24 28/4/26 104/4/96 103/4/95
f 31/6/28 27/4/24 103/4/95 107/6/99
f 41/4/63 45/6/61 121/6/132 117/4/133
f 42/4/65 41/4/63 117/4/133 118/4/135
f 75/12/69 76/3/71 152/3/139 151/12/138
f 6/2/10 5/2/13 81/2/84 82/2/82
f 5/2/13 10/2/3 86/2/73 81/2/84
f 21/3/22 22/3/16 98/3/87 97/3/94
f 24/3/21 21/3/22 97/3/94 100/3/91
f 28/4/26 29/3/25 105/3/97 104/4/96
f 43/3/64 42/4/65 118/4/135 119/3/134
f 51/5/67 53/6/40 129/6/112 127/5/137
f 52/3/41 51/5/67 127/5/137 128/3/111
f 57/8/51 59/9/49 135/9/121 133/8/122
f 58/8/50 57/8/51 133/8/122 134/8/120
f 72/12/55 73/11/54 149/11/124 148/12/126
f 29/3/25 30/3/27 106/3/98 105/3/97
f 39/7/30 37/3/32 113/3/102 115/7/101
f 37/3/32 38/3/31 114/3/103 113/3/102
f 44/3/62 43/3/64 119/3/134 120/3/131
f 47/4/36 48/4/35 124/4/107 123/4/106
f 50/4/66 47/4/36 123/4/106 126/4/136
f 54/3/39 52/3/41 128/3/111 130/3/109
f 60/3/46 58/8/50 134/8/120 136/3/117
f 8/2/11 6/2/10 82/2/82 84/2/81
f 10/2/3 9/2/2 85/2/74 86/2/73
f 30/3/27 32/5/29 108/5/100 106/3/98
f 34/4/59 33/4/57 109/4/96 110/4/129
f 33/4/57 35/3/58 111/3/128 109/4/96
f 38/3/31 40/3/33 116/3/104 114/3/103
f 46/5/60 44/3/62 120/3/131 122/5/130
f 48/4/35 49/3/34 125/3/105 124/4/107
f 53/6/40 55/4/38 131/4/110 129/6/112
f 59/9/49 61/10/48 137/10/119 135/9/121
f 66/10/45 65/9/43 141/9/115 142/10/116
f 69/11/54 70/11/53 146/11/125 145/11/124
f 71/12/69 1/3/68 77/3/139 147/12/138
f 1/3/68 68/3/52 144/3/123 77/3/139
f 32/5/29 31/6/28 107/6/99 108/5/100
f 40/3/33 39/7/30 115/7/101 116/3/104
f 45/6/61 46/5/60 122/5/130 121/6/132
f 49/3/34 50/4/66 126/4/136 125/3/105
f 56/4/37 54/3/39 130/3/109 132/4/108
f 64/8/44 60/3/46 136/3/117 140/8/114
f 70/11/53 71/12/69 147/12/138 146/11/125
f 36/3/27 34/4/59 110/4/129 112/3/98
f 55/4/38 56/4/37 132/4/108 131/4/110
f 61/10/48 62/3/47 138/3/118 137/10/119
f 73/11/54 74/11/70 150/11/140 149/11/124
