# Blender 4.5.3 LTS
# www.blender.org
mtllib building-type-d_roof.mtl
o building-type-d.001
v 0.867690 1.237500 -0.003500
v 0.748690 1.237500 -0.003500
v 0.748690 1.237500 0.115500
v 0.867690 1.237500 0.115500
v -0.504343 0.585352 -0.236763
v -0.517304 0.585352 -0.205473
v -0.592843 0.585352 -0.236763
v -0.579882 0.585352 -0.205473
v -0.517304 0.585352 -0.268052
v -0.548593 0.585352 -0.192513
v -0.548593 0.585352 -0.281013
v -0.579882 0.585352 -0.268052
v -0.519093 0.614852 -0.236763
v -0.527733 0.614852 -0.215903
v -0.569453 0.614852 -0.257623
v -0.548593 0.614852 -0.266263
v -0.527733 0.614852 -0.257623
v -0.548593 0.614852 -0.207263
v -0.569453 0.614852 -0.215903
v -0.578093 0.614852 -0.236763
v -0.102760 1.123407 -0.051291
v -0.115721 1.123407 -0.020001
v -0.191260 1.123407 -0.051291
v -0.178300 1.123407 -0.020001
v -0.115721 1.123407 -0.082580
v -0.147010 1.123407 -0.007041
v -0.147010 1.123407 -0.095541
v -0.178300 1.123407 -0.082580
v -0.117510 1.152907 -0.051291
v -0.126151 1.152907 -0.030431
v -0.167870 1.152907 -0.072150
v -0.147010 1.152907 -0.080791
v -0.126151 1.152907 -0.072150
v -0.147010 1.152907 -0.021791
v -0.167870 1.152907 -0.030431
v -0.176510 1.152907 -0.051291
v 0.758190 0.794000 -0.402000
v 0.358190 0.794000 -0.402000
v 0.358190 1.137500 0.056000
v 0.808190 1.137500 0.056000
v 0.793545 0.802787 -0.390284
v 0.808190 0.824000 -0.362000
v -0.441810 0.794000 0.514000
v -0.041810 0.794000 0.514000
v -0.041810 1.137500 0.056000
v -0.491810 1.137500 0.056000
v -0.477165 0.802787 0.502284
v -0.491810 0.824000 0.474000
v 0.358190 0.794000 0.514000
v 0.358190 1.137500 0.056000
v -0.441810 0.794000 -0.402000
v -0.041810 0.794000 -0.402000
v -0.041810 1.137500 0.056000
v -0.491810 1.137500 0.056000
v -0.477165 0.802787 -0.390284
v -0.491810 0.824000 -0.362000
v 0.758190 0.794000 0.514000
v 0.358190 0.794000 0.514000
v 0.358190 1.137500 0.056000
v 0.808190 1.137500 0.056000
v 0.793545 0.802787 0.502284
v 0.808190 0.824000 0.474000
v -0.878190 0.421828 0.436000
v -0.878190 0.421828 0.056000
v -0.863983 0.425380 0.471355
v -0.829683 0.433955 0.486000
v -0.441810 0.530923 0.466000
v -0.441810 0.530923 0.056000
v -0.461810 0.525923 0.486000
v -0.878190 0.421828 -0.324000
v -0.878190 0.421828 0.056000
v -0.863983 0.425380 -0.359355
v -0.829683 0.433955 -0.374000
v -0.441810 0.530923 -0.354000
v -0.441810 0.530923 0.056000
v -0.461810 0.525923 -0.374000
v 0.358190 0.794000 -0.402000
v 0.358190 1.137500 0.056000
v 0.308190 0.965750 -0.322000
v 0.308190 0.965750 -0.173000
v 0.293546 0.976660 -0.357355
v 0.158190 1.077500 -0.024000
v 0.258190 1.003000 -0.372000
v 0.158190 1.077500 -0.372000
v 0.008190 0.965750 -0.322000
v 0.008190 0.965750 -0.173000
v 0.022835 0.976660 -0.357355
v 0.058190 1.003000 -0.372000
v -0.041810 0.361633 -0.471891
v -0.041810 0.400000 -0.344000
v -0.021810 0.355633 -0.491891
v 0.338190 0.355633 -0.491891
v 0.358190 0.361633 -0.471891
v 0.358190 0.400000 -0.344000
v 0.867690 1.232500 -0.003500
v 0.748690 1.232500 -0.003500
v 0.748690 1.232500 0.115500
v 0.867690 1.232500 0.115500
v -0.509112 0.582968 -0.236763
v -0.520676 0.582968 -0.208846
v -0.588074 0.582968 -0.236763
v -0.576510 0.582968 -0.208846
v -0.520676 0.582968 -0.264680
v -0.548593 0.582968 -0.197282
v -0.548593 0.582968 -0.276244
v -0.576510 0.582968 -0.264680
v -0.522748 0.610079 -0.236763
v -0.530352 0.610016 -0.218522
v -0.566834 0.610016 -0.255004
v -0.548593 0.609985 -0.262536
v -0.530346 0.610027 -0.255010
v -0.548593 0.609985 -0.210990
v -0.566840 0.610027 -0.218516
v -0.574438 0.610079 -0.236763
v -0.107529 1.121022 -0.051291
v -0.119093 1.121022 -0.023374
v -0.186491 1.121022 -0.051291
v -0.174927 1.121022 -0.023374
v -0.119093 1.121022 -0.079208
v -0.147010 1.121022 -0.011810
v -0.147010 1.121022 -0.090772
v -0.174927 1.121022 -0.079208
v -0.121165 1.148134 -0.051291
v -0.128770 1.148070 -0.033050
v -0.165251 1.148070 -0.069531
v -0.147010 1.148039 -0.077064
v -0.128763 1.148082 -0.069538
v -0.147010 1.148039 -0.025518
v -0.165257 1.148082 -0.033044
v -0.172855 1.148134 -0.051291
v 0.758190 0.790000 -0.399000
v 0.358190 0.790000 -0.399000
v 0.358190 1.133500 0.059000
v 0.808190 1.133500 0.059000
v 0.793545 0.798787 -0.387284
v 0.808190 0.820000 -0.359000
v -0.441810 0.790000 0.511000
v -0.041810 0.790000 0.511000
v -0.041810 1.133500 0.053000
v -0.491810 1.133500 0.053000
v -0.477165 0.798787 0.499284
v -0.491810 0.820000 0.471000
v 0.358190 0.790000 0.511000
v 0.358190 1.133500 0.053000
v -0.441810 0.790000 -0.399000
v -0.041810 0.790000 -0.399000
v -0.041810 1.133500 0.059000
v -0.491810 1.133500 0.059000
v -0.477165 0.798787 -0.387284
v -0.491810 0.820000 -0.359000
v 0.758190 0.790000 0.511000
v 0.358190 0.790000 0.511000
v 0.358190 1.133500 0.053000
v 0.808190 1.133500 0.053000
v 0.793545 0.798787 0.499284
v 0.808190 0.820000 0.471000
v -0.876978 0.416978 0.436000
v -0.876978 0.416977 0.056000
v -0.862770 0.420529 0.471355
v -0.828470 0.429104 0.486000
v -0.440597 0.526073 0.466000
v -0.440597 0.526073 0.056000
v -0.460597 0.521073 0.486000
v -0.876978 0.416977 -0.324000
v -0.876978 0.416977 0.056000
v -0.862770 0.420529 -0.359355
v -0.828470 0.429104 -0.374000
v -0.440597 0.526072 -0.354000
v -0.440597 0.526073 0.056000
v -0.460597 0.521073 -0.374000
v 0.358190 0.790000 -0.399000
v 0.358190 1.133500 0.059000
v 0.305203 0.961740 -0.322000
v 0.305203 0.961740 -0.173000
v 0.290558 0.972651 -0.357355
v 0.158190 1.071265 -0.024000
v 0.255203 0.998990 -0.372000
v 0.158190 1.071265 -0.372000
v 0.011177 0.961740 -0.322000
v 0.011177 0.961740 -0.173000
v 0.025822 0.972651 -0.357355
v 0.061177 0.998990 -0.372000
v -0.041810 0.356843 -0.470454
v -0.041810 0.395211 -0.342563
v -0.021810 0.350843 -0.490454
v 0.338190 0.350843 -0.490454
v 0.358190 0.356843 -0.470454
v 0.358190 0.395211 -0.342563
vn 0.6452 0.6856 0.3372
vn 0.8594 0.5114 -0.0000
vn 0.5146 0.8154 0.2651
vn -0.1927 0.7009 0.6868
vn 0.0502 -0.2683 0.9620
vn -0.0000 0.5026 0.8645
vn -0.5618 0.6073 0.5618
vn 0.4685 0.8652 -0.1787
vn -0.0000 0.9111 -0.4123
vn -0.4680 0.8643 -0.1843
vn -0.8045 0.3190 0.5010
vn -0.8054 0.5927 -0.0000
vn 0.6167 0.4892 0.6167
vn 0.6453 0.6855 0.3372
vn 0.9622 -0.2702 -0.0350
vn 0.6495 0.6826 -0.3349
vn 0.6113 0.5026 -0.6113
vn 0.1927 0.7009 -0.6868
vn -0.0000 0.5026 -0.8645
vn -0.6452 0.6856 -0.3372
vn -0.8594 0.5114 -0.0000
vn -0.5146 0.8154 -0.2651
vn -0.1048 0.8954 0.4327
vn -0.1933 0.8160 0.5448
vn -0.6113 0.5026 0.6113
vn 0.6704 0.3500 -0.6543
vn 0.6264 0.3754 -0.6832
vn 0.5773 0.8083 0.1155
vn -0.6704 0.3500 0.6543
vn -0.6264 0.3754 0.6832
vn -0.5773 0.8083 -0.1155
vn -0.1846 0.2338 0.9546
vn -0.0000 0.9900 -0.1414
vn -0.0478 0.2053 -0.9775
vn -0.0000 0.9900 0.1414
vn -0.0000 0.1414 -0.9899
vn -0.5773 0.8083 0.1155
vn -0.6264 0.3754 -0.6832
vn -0.7393 0.5578 -0.3771
vn 0.0478 0.2053 0.9775
vn -0.5774 0.1155 0.8083
vn 0.5773 0.8083 -0.1155
vn 0.6264 0.3754 0.6832
vn 0.7393 0.5578 0.3771
vn -0.8135 0.4898 0.3134
vn -0.8019 0.5469 0.2404
vn -0.7001 0.4201 -0.5773
vn -0.3694 0.6906 0.6218
vn -0.0535 0.7639 0.6431
vn 0.4201 0.7001 -0.5773
vn 0.5671 0.8202 -0.0754
vn 0.1676 0.8150 -0.5547
vn 0.4201 0.7001 0.5773
vn 0.2939 0.7519 -0.5902
vn -0.7001 0.4201 0.5773
vn -0.3694 0.6906 -0.6218
vn -0.9381 0.1504 0.3121
vn -0.5862 0.4083 -0.6998
vn -0.9332 0.2137 -0.2889
vn -0.5774 0.7189 0.3871
vn -0.5672 0.4901 -0.6619
vn -0.7497 0.6485 -0.1315
vn -0.5773 0.5774 -0.5773
vn 0.5773 0.5774 0.5773
vn 0.5774 0.5774 -0.5774
vn -0.5774 0.5774 0.5774
vn -0.7157 -0.2683 -0.6448
vn -0.6167 0.4892 -0.6167
vn 0.1846 0.2338 -0.9546
vn -0.5774 0.1155 -0.8083
vn -0.0000 0.1414 0.9899
vn 0.5774 0.1155 0.8083
vn -0.8019 0.5469 -0.2404
vn -0.8804 0.4731 0.0330
vn 0.5774 0.1155 -0.8083
vn 0.8995 0.2137 -0.3811
vn 0.9381 0.1504 0.3121
vn 0.9304 0.1402 -0.3387
vn -0.0000 0.5360 0.8442
vn 0.5097 0.5686 -0.6457
vn -0.0000 0.8043 -0.5942
vn -0.9958 0.0915 0.0069
vn 0.4091 0.5714 -0.7114
vn 0.5773 0.7189 0.3871
vn 0.5148 0.4745 -0.7140
vn -0.3502 -0.7594 -0.5483
vn -0.4433 -0.8964 -0.0003
vn -0.6453 -0.6501 0.4013
vn 0.0001 -0.8657 -0.5005
vn -0.6175 -0.7016 -0.3556
vn 0.7302 -0.6612 -0.1722
vn 0.5573 -0.7553 -0.3448
vn -0.3418 -0.7548 0.5599
vn 0.0581 -0.7215 0.6899
vn 0.4478 -0.7088 0.5451
vn 0.7754 -0.6315 0.0001
vn 0.6407 -0.7465 0.1796
vn -0.6749 -0.7162 0.1775
vn -0.5317 -0.6592 -0.5318
vn -0.3312 -0.8825 0.3338
vn 0.1853 -0.7012 0.6884
vn -0.0001 -0.8657 0.5005
vn 0.6175 -0.7016 0.3556
vn 0.3502 -0.7594 0.5483
vn 0.4433 -0.8964 0.0003
vn 0.6453 -0.6501 -0.4013
vn -0.1197 -0.7654 -0.6323
vn 0.3887 -0.7247 -0.5689
vn -0.1853 -0.7012 -0.6884
vn 0.7393 -0.5182 0.4299
vn 0.5773 -0.1155 0.8083
vn 0.6750 -0.7261 0.1307
vn -0.7393 -0.5182 -0.4299
vn -0.5773 -0.1155 -0.8083
vn -0.6750 -0.7261 -0.1307
vn -0.2857 -0.9477 0.1422
vn -0.0000 -0.1414 -0.9899
vn 0.0028 -0.9822 -0.1881
vn -0.0000 -0.9900 -0.1414
vn -0.0000 -0.1414 0.9899
vn -0.5773 -0.1155 0.8083
vn -0.3311 -0.9325 -0.1444
vn -0.6704 -0.7261 0.1528
vn -0.0028 -0.9822 0.1881
vn -0.5773 -0.8083 0.1155
vn 0.5773 -0.1155 -0.8083
vn 0.3311 -0.9325 0.1444
vn 0.6704 -0.7261 -0.1528
vn -0.5542 -0.8318 -0.0330
vn -0.4201 -0.7001 -0.5773
vn -0.5265 -0.8116 0.2532
vn -0.1165 -0.7227 0.6813
vn 0.2386 -0.6186 0.7486
vn 0.7001 -0.4201 -0.5773
vn 0.6132 -0.5251 0.5902
vn 0.6086 -0.5261 -0.5940
vn 0.8864 -0.4568 0.0754
vn 0.7001 -0.4201 0.5773
vn -0.4201 -0.7001 0.5773
vn 0.1686 -0.6514 -0.7397
vn -0.2651 -0.8974 0.3528
vn 0.2361 -0.6466 -0.7254
vn 0.2999 -0.6934 -0.6552
vn -0.5774 -0.3871 0.7189
vn -0.4996 -0.7927 -0.3492
vn -0.4397 -0.8768 -0.1947
vn -0.5773 -0.5774 -0.5773
vn 0.5774 -0.5774 -0.5774
vn 0.5773 -0.5774 0.5773
vn -0.5774 -0.5774 0.5774
vn 0.6749 -0.7162 -0.1775
vn -0.3953 -0.6613 0.6375
vn 0.2857 -0.9477 -0.1422
vn -0.5773 -0.8083 -0.1155
vn -0.0000 -0.9900 0.1414
vn 0.5773 -0.8083 0.1155
vn -0.0857 -0.7013 -0.7077
vn -0.4873 -0.8150 -0.3134
vn 0.5774 -0.8083 -0.1155
vn 0.1198 -0.9111 -0.3944
vn 0.1973 -0.9803 -0.0030
vn 0.2652 -0.8974 0.3528
vn -0.0000 -0.5722 0.8201
vn -0.2090 -0.6892 -0.6938
vn -0.0000 -0.4950 -0.8689
vn -0.1282 -0.9289 -0.3475
vn 0.5042 -0.7916 -0.3452
vn 0.7505 -0.6206 0.2272
vn 0.5773 -0.3871 0.7189
vt 0.093750 0.475000
vt 0.093750 0.425000
vt 0.093750 0.656755
vt 0.093750 0.652137
vt 0.093750 0.725000
vt 0.093750 0.650225
vt 0.093750 0.661848
vt 0.093750 0.663904
vt 0.093750 0.668868
vt 0.093750 0.722106
vt 0.093750 0.625000
vt 0.093750 0.658333
vt 0.093750 0.634763
vt 0.093750 0.605681
vt 0.093750 0.621817
s 1
usemtl Material.004
f 14/1/1 5/2/2 13/1/3
f 18/1/4 8/2/5 10/2/6
f 8/2/5 18/1/4 19/1/7
f 17/1/8 14/1/1 13/1/3
f 14/1/1 16/1/9 18/1/4
f 18/1/4 15/1/10 19/1/7
f 7/2/11 19/1/7 20/1/12
f 19/1/7 7/2/11 8/2/5
f 14/1/1 10/2/6 6/2/13
f 10/2/6 14/1/1 18/1/4
f 30/1/14 21/2/2 29/1/3
f 21/2/2 30/1/14 22/2/15
f 33/1/16 21/2/2 25/2/17
f 21/2/2 33/1/16 29/1/3
f 32/1/18 25/2/17 27/2/19
f 31/1/20 23/2/21 36/1/22
f 34/1/23 31/1/20 35/1/24
f 23/2/21 35/1/24 36/1/22
f 35/1/24 23/2/21 24/2/25
f 42/3/26 41/4/27 40/5/28
f 48/3/29 47/4/30 46/5/31
f 47/4/30 43/6/32 46/5/31
f 46/5/31 43/6/32 45/5/33
f 51/6/34 53/5/35 52/6/36
f 53/5/35 51/6/34 54/5/37
f 54/5/37 51/6/34 55/4/38
f 54/5/37 55/4/38 56/3/39
f 57/6/40 59/5/31 58/6/41
f 59/5/31 57/6/40 60/5/42
f 60/5/42 57/6/40 61/4/43
f 60/5/42 61/4/43 62/3/44
f 63/7/45 65/8/46 64/7/47
f 65/8/46 66/9/48 64/7/47
f 66/9/48 69/10/49 64/7/47
f 64/7/47 69/10/49 68/5/50
f 67/5/51 68/5/50 69/10/49
f 76/10/52 75/5/53 74/5/54
f 71/7/55 76/10/52 73/9/56
f 86/11/57 88/12/58 87/13/59
f 90/5/60 91/14/61 89/15/62
f 2/1/63 4/1/64 1/1/65
f 4/1/64 2/1/63 3/1/66
f 5/2/2 14/1/1 6/2/13
f 15/1/10 11/2/67 12/2/68
f 11/2/67 15/1/10 16/1/9
f 17/1/8 5/2/2 9/2/17
f 5/2/2 17/1/8 13/1/3
f 16/1/9 9/2/17 11/2/67
f 9/2/17 16/1/9 17/1/8
f 7/2/11 15/1/10 12/2/68
f 15/1/10 7/2/11 20/1/12
f 14/1/1 17/1/8 16/1/9
f 18/1/4 16/1/9 15/1/10
f 19/1/7 15/1/10 20/1/12
f 31/1/20 27/2/19 28/2/68
f 27/2/19 31/1/20 32/1/18
f 25/2/17 32/1/18 33/1/16
f 34/1/23 24/2/25 26/2/6
f 24/2/25 34/1/23 35/1/24
f 23/2/21 31/1/20 28/2/68
f 33/1/16 30/1/14 29/1/3
f 30/1/14 33/1/16 32/1/18
f 30/1/14 32/1/18 34/1/23
f 34/1/23 32/1/18 31/1/20
f 35/1/24 31/1/20 36/1/22
f 30/1/14 26/2/6 22/2/15
f 26/2/6 30/1/14 34/1/23
f 41/4/27 37/6/69 40/5/28
f 40/5/28 37/6/69 39/5/37
f 38/6/70 39/5/37 37/6/69
f 44/6/71 45/5/33 43/6/32
f 44/6/71 50/5/42 45/5/33
f 50/5/42 44/6/71 49/6/72
f 75/5/53 76/10/52 71/7/55
f 71/7/55 73/9/56 72/8/73
f 71/7/55 72/8/73 70/7/74
f 52/6/36 78/5/28 77/6/75
f 78/5/28 52/6/36 53/5/35
f 81/13/76 80/11/77 79/11/78
f 80/11/77 81/13/76 82/5/79
f 82/5/79 81/13/76 83/12/80
f 82/5/79 83/12/80 84/5/81
f 88/12/58 82/5/79 84/5/81
f 82/5/79 88/12/58 86/11/57
f 86/11/57 87/13/59 85/11/82
f 92/14/83 94/5/84 93/15/85
f 94/5/84 92/14/83 90/5/60
f 90/5/60 92/14/83 91/14/61
f 108/1/86 107/1/87 99/2/88
f 112/1/89 104/2/90 102/2/91
f 102/2/91 113/1/92 112/1/89
f 111/1/93 107/1/87 108/1/86
f 108/1/86 112/1/89 110/1/94
f 112/1/89 113/1/92 109/1/95
f 101/2/96 114/1/97 113/1/92
f 113/1/92 102/2/91 101/2/96
f 108/1/86 100/2/98 104/2/90
f 104/2/90 112/1/89 108/1/86
f 124/1/86 123/1/87 115/2/88
f 115/2/88 116/2/99 124/1/86
f 127/1/100 119/2/101 115/2/88
f 115/2/88 123/1/87 127/1/100
f 126/1/102 121/2/103 119/2/101
f 125/1/104 130/1/105 117/2/106
f 128/1/107 129/1/108 125/1/104
f 117/2/106 130/1/105 129/1/108
f 129/1/108 118/2/109 117/2/106
f 136/3/110 134/5/111 135/4/112
f 142/3/113 140/5/114 141/4/115
f 141/4/115 140/5/114 137/6/116
f 140/5/114 139/5/117 137/6/116
f 145/6/118 146/6/119 147/5/120
f 147/5/120 148/5/121 145/6/118
f 148/5/121 149/4/122 145/6/118
f 148/5/121 150/3/123 149/4/122
f 151/6/124 152/6/125 153/5/114
f 153/5/114 154/5/126 151/6/124
f 154/5/126 155/4/127 151/6/124
f 154/5/126 156/3/128 155/4/127
f 157/7/129 158/7/130 159/8/131
f 159/8/131 158/7/130 160/9/132
f 160/9/132 158/7/130 163/10/133
f 158/7/130 162/5/134 163/10/133
f 161/5/135 163/10/133 162/5/134
f 170/10/136 168/5/137 169/5/138
f 165/7/139 167/9/140 170/10/136
f 180/11/141 181/13/142 182/12/143
f 184/5/144 183/15/145 185/14/146
f 96/1/147 95/1/148 98/1/149
f 98/1/149 97/1/150 96/1/147
f 99/2/88 100/2/98 108/1/86
f 109/1/95 106/2/151 105/2/152
f 105/2/152 110/1/94 109/1/95
f 111/1/93 103/2/101 99/2/88
f 99/2/88 107/1/87 111/1/93
f 110/1/94 105/2/152 103/2/101
f 103/2/101 111/1/93 110/1/94
f 101/2/96 106/2/151 109/1/95
f 109/1/95 114/1/97 101/2/96
f 108/1/86 110/1/94 111/1/93
f 112/1/89 109/1/95 110/1/94
f 113/1/92 114/1/97 109/1/95
f 125/1/104 122/2/151 121/2/103
f 121/2/103 126/1/102 125/1/104
f 119/2/101 127/1/100 126/1/102
f 128/1/107 120/2/90 118/2/109
f 118/2/109 129/1/108 128/1/107
f 117/2/106 122/2/151 125/1/104
f 127/1/100 123/1/87 124/1/86
f 124/1/86 126/1/102 127/1/100
f 124/1/86 128/1/107 126/1/102
f 128/1/107 125/1/104 126/1/102
f 129/1/108 130/1/105 125/1/104
f 124/1/86 116/2/99 120/2/90
f 120/2/90 128/1/107 124/1/86
f 135/4/112 134/5/111 131/6/153
f 134/5/111 133/5/121 131/6/153
f 132/6/154 131/6/153 133/5/121
f 138/6/155 137/6/116 139/5/117
f 138/6/155 139/5/117 144/5/126
f 144/5/126 143/6/156 138/6/155
f 169/5/138 165/7/139 170/10/136
f 165/7/139 166/8/157 167/9/140
f 165/7/139 164/7/158 166/8/157
f 146/6/119 171/6/159 172/5/111
f 172/5/111 147/5/120 146/6/119
f 175/13/160 173/11/161 174/11/162
f 174/11/162 176/5/163 175/13/160
f 176/5/163 177/12/164 175/13/160
f 176/5/163 178/5/165 177/12/164
f 182/12/143 178/5/165 176/5/163
f 176/5/163 180/11/141 182/12/143
f 180/11/141 179/11/166 181/13/142
f 186/14/167 187/15/168 188/5/169
f 188/5/169 184/5/144 186/14/167
f 184/5/144 185/14/146 186/14/167
f 11/2/67 9/2/17 103/2/101 105/2/152
f 6/2/13 10/2/6 104/2/90 100/2/98
f 27/2/19 25/2/17 119/2/101 121/2/103
f 22/2/15 26/2/6 120/2/90 116/2/99
f 40/5/28 39/5/37 133/5/121 134/5/111
f 58/6/41 59/5/31 153/5/114 152/6/125
f 69/10/49 66/9/48 160/9/132 163/10/133
f 71/7/55 70/7/74 164/7/158 165/7/139
f 70/7/74 72/8/73 166/8/157 164/7/158
f 82/5/79 86/11/57 180/11/141 176/5/163
f 92/14/83 93/15/85 187/15/168 186/14/167
f 4/1/64 3/1/66 97/1/150 98/1/149
f 42/3/26 40/5/28 134/5/111 136/3/110
f 59/5/31 60/5/42 154/5/126 153/5/114
f 67/5/51 69/10/49 163/10/133 161/5/135
f 68/5/50 67/5/51 161/5/135 162/5/134
f 84/5/81 83/12/80 177/12/164 178/5/165
f 8/2/5 7/2/11 101/2/96 102/2/91
f 7/2/11 12/2/68 106/2/151 101/2/96
f 24/2/25 23/2/21 117/2/106 118/2/109
f 23/2/21 28/2/68 122/2/151 117/2/106
f 41/4/27 42/3/26 136/3/110 135/4/112
f 43/6/32 47/4/30 141/4/115 137/6/116
f 44/6/71 43/6/32 137/6/116 138/6/155
f 60/5/42 62/3/44 156/3/128 154/5/126
f 63/7/45 64/7/47 158/7/130 157/7/129
f 65/8/46 63/7/45 157/7/129 159/8/131
f 75/5/53 71/7/55 165/7/139 169/5/138
f 88/12/58 84/5/81 178/5/165 182/12/143
f 90/5/60 89/15/62 183/15/145 184/5/144
f 93/15/85 94/5/84 188/5/169 187/15/168
f 89/15/62 91/14/61 185/14/146 183/15/145
f 49/6/72 44/6/71 138/6/155 143/6/156
f 51/6/34 52/6/36 146/6/119 145/6/118
f 55/4/38 51/6/34 145/6/118 149/4/122
f 62/3/44 61/4/43 155/4/127 156/3/128
f 86/11/57 85/11/82 179/11/166 180/11/141
f 85/11/82 87/13/59 181/13/142 179/11/166
f 2/1/63 1/1/65 95/1/148 96/1/147
f 1/1/65 4/1/64 98/1/149 95/1/148
f 10/2/6 8/2/5 102/2/91 104/2/90
f 12/2/68 11/2/67 105/2/152 106/2/151
f 26/2/6 24/2/25 118/2/109 120/2/90
f 28/2/68 27/2/19 121/2/103 122/2/151
f 46/5/31 45/5/33 139/5/117 140/5/114
f 45/5/33 50/5/42 144/5/126 139/5/117
f 64/7/47 68/5/50 162/5/134 158/7/130
f 72/8/73 73/9/56 167/9/140 166/8/157
f 52/6/36 77/6/75 171/6/159 146/6/119
f 94/5/84 90/5/60 184/5/144 188/5/169
f 3/1/66 2/1/63 96/1/147 97/1/150
f 48/3/29 46/5/31 140/5/114 142/3/113
f 50/5/42 49/6/72 143/6/156 144/5/126
f 53/5/35 54/5/37 148/5/121 147/5/120
f 78/5/28 53/5/35 147/5/120 172/5/111
f 79/11/78 80/11/77 174/11/162 173/11/161
f 81/13/76 79/11/78 173/11/161 175/13/160
f 37/6/69 41/4/27 135/4/112 131/6/153
f 38/6/70 37/6/69 131/6/153 132/6/154
f 47/4/30 48/3/29 142/3/113 141/4/115
f 54/5/37 56/3/39 150/3/123 148/5/121
f 66/9/48 65/8/46 159/8/131 160/9/132
f 73/9/56 76/10/52 170/10/136 167/9/140
f 77/6/75 78/5/28 172/5/111 171/6/159
f 80/11/77 82/5/79 176/5/163 174/11/162
f 5/2/2 6/2/13 100/2/98 99/2/88
f 9/2/17 5/2/2 99/2/88 103/2/101
f 21/2/2 22/2/15 116/2/99 115/2/88
f 25/2/17 21/2/2 115/2/88 119/2/101
f 39/5/37 38/6/70 132/6/154 133/5/121
f 56/3/39 55/4/38 149/4/122 150/3/123
f 57/6/40 58/6/41 152/6/125 151/6/124
f 61/4/43 57/6/40 151/6/124 155/4/127
f 74/5/54 75/5/53 169/5/138 168/5/137
f 76/10/52 74/5/54 168/5/137 170/10/136
f 83/12/80 81/13/76 175/13/160 177/12/164
f 87/13/59 88/12/58 182/12/143 181/13/142
f 91/14/61 92/14/83 186/14/167 185/14/146
