# Blender 4.5.3 LTS
# www.blender.org
mtllib building-type-s_roof.mtl
o building-type-s.001
v 0.023002 1.071597 0.310985
v 0.010042 1.071597 0.342275
v -0.065498 1.071597 0.310985
v -0.052537 1.071597 0.342275
v 0.010042 1.071597 0.279696
v -0.021248 1.071597 0.355235
v -0.021248 1.071597 0.266735
v -0.052537 1.071597 0.279696
v 0.008252 1.101097 0.310985
v -0.000388 1.101097 0.331845
v -0.042107 1.101097 0.290126
v -0.021248 1.101097 0.281485
v -0.000388 1.101097 0.290126
v -0.021248 1.101097 0.340485
v -0.042107 1.101097 0.331845
v -0.050748 1.101097 0.310985
v -0.186739 0.404472 -0.156810
v -0.186739 0.404472 0.343190
v -0.444877 0.533541 -0.156810
v -0.444877 0.533541 0.343190
v -0.658293 0.426833 -0.156810
v -0.658293 0.426833 0.343190
v -0.703014 0.404472 -0.106810
v -0.703014 0.404472 0.293190
v -0.689916 0.411021 -0.142165
v -0.689916 0.411021 0.328545
v -0.262877 0.824000 -0.356810
v 0.155123 1.137500 -0.356810
v -0.302877 0.794000 -0.306810
v -0.291161 0.802787 -0.342165
v -0.302877 0.794000 0.073190
v -0.302877 0.794000 0.093190
v 0.155123 1.137500 0.093190
v 0.573123 0.824000 0.543190
v 0.155123 1.137500 0.543190
v 0.613123 0.794000 0.493190
v 0.601408 0.802787 0.528546
v 0.613123 0.794000 0.113190
v 0.613123 0.794000 0.093190
v 0.155123 1.137500 0.093190
v 0.573123 0.824000 -0.356810
v 0.613123 0.794000 -0.306810
v 0.601408 0.802787 -0.342165
v 0.613123 0.794000 0.073190
v 0.613123 0.794000 0.093190
v 0.155123 1.137500 0.093190
v -0.262877 0.824000 0.543190
v 0.155123 1.137500 0.543190
v -0.302877 0.794000 0.493190
v -0.291161 0.802787 0.528546
v -0.302877 0.794000 0.113190
v -0.302877 0.794000 0.093190
v -0.224877 0.421828 -0.543190
v 0.135123 0.421828 -0.543190
v 0.170479 0.425380 -0.528983
v 0.185123 0.433955 -0.494683
v 0.185123 0.481530 -0.304385
v 0.165123 0.486380 -0.284982
v -0.274877 0.433955 -0.494683
v -0.274877 0.481530 -0.304385
v -0.260232 0.425380 -0.528983
v -0.254877 0.486380 -0.284982
v 0.683015 0.361633 -0.306810
v 0.555123 0.400000 -0.306810
v 0.703015 0.355633 -0.286810
v 0.703014 0.355633 0.473190
v 0.683015 0.361633 0.493190
v 0.555123 0.400000 0.493190
v 0.017279 1.068735 0.310985
v 0.005995 1.068735 0.338228
v -0.059775 1.068735 0.310985
v -0.048490 1.068735 0.338228
v 0.005995 1.068735 0.283743
v -0.021248 1.068735 0.349512
v -0.021248 1.068735 0.272458
v -0.048490 1.068735 0.283743
v 0.003866 1.095369 0.310985
v -0.003531 1.095293 0.328702
v -0.038965 1.095293 0.293268
v -0.021248 1.095256 0.285958
v -0.003523 1.095307 0.293261
v -0.021248 1.095256 0.336013
v -0.038972 1.095307 0.328710
v -0.046362 1.095369 0.310985
v -0.189422 0.399106 -0.156810
v -0.189422 0.399106 0.343190
v -0.444877 0.526833 -0.156810
v -0.444877 0.526833 0.343190
v -0.655610 0.421466 -0.156810
v -0.655610 0.421466 0.343190
v -0.700331 0.399106 -0.106810
v -0.700331 0.399106 0.293190
v -0.687233 0.405655 -0.142165
v -0.687233 0.405655 0.328545
v -0.259277 0.819200 -0.356810
v 0.155123 1.130000 -0.356810
v -0.299277 0.789200 -0.306810
v -0.287561 0.797987 -0.342165
v -0.299277 0.789200 0.073190
v -0.299277 0.789200 0.093190
v 0.158723 1.132700 0.093190
v 0.569523 0.819200 0.543190
v 0.151523 1.132700 0.543190
v 0.609523 0.789200 0.493190
v 0.597808 0.797987 0.528546
v 0.609523 0.789200 0.113190
v 0.609523 0.789200 0.093190
v 0.155123 1.130000 0.093190
v 0.569523 0.819200 -0.356810
v 0.609523 0.789200 -0.306810
v 0.597808 0.797987 -0.342165
v 0.609523 0.789200 0.073190
v 0.609523 0.789200 0.093190
v 0.151523 1.132700 0.093190
v -0.259277 0.819200 0.543190
v 0.158723 1.132700 0.543190
v -0.299277 0.789200 0.493190
v -0.287561 0.797987 0.528546
v -0.299277 0.789200 0.113190
v -0.299277 0.789200 0.093190
v -0.224877 0.416007 -0.541735
v 0.135123 0.416007 -0.541735
v 0.170479 0.419559 -0.527528
v 0.185123 0.428134 -0.493228
v 0.185123 0.475709 -0.302929
v 0.165123 0.480559 -0.283526
v -0.274877 0.428134 -0.493228
v -0.274877 0.475709 -0.302929
v -0.260232 0.419559 -0.527528
v -0.254877 0.480559 -0.283526
v 0.681291 0.355886 -0.306810
v 0.553399 0.394253 -0.306810
v 0.701291 0.349886 -0.286810
v 0.701290 0.349886 0.473190
v 0.681290 0.355886 0.493190
v 0.553399 0.394253 0.493190
vn 0.6452 0.6856 0.3372
vn 0.8594 0.5114 -0.0000
vn 0.5146 0.8154 0.2651
vn 0.9622 -0.2702 -0.0349
vn -0.3372 0.6856 -0.6452
vn -0.7157 -0.2683 -0.6448
vn -0.6167 0.4892 -0.6167
vn -0.0000 0.6356 -0.7720
vn 0.6495 0.6826 -0.3349
vn 0.6113 0.5026 -0.6113
vn -0.8594 0.5114 -0.0000
vn -0.5146 0.8154 -0.2651
vn 0.2152 0.8164 0.5360
vn -0.1933 0.8160 0.5448
vn -0.6113 0.5026 0.6113
vn 0.7157 -0.2683 0.6448
vn -0.0000 0.7854 0.6189
vn -0.4844 0.6003 -0.6364
vn -0.3142 0.5951 0.7397
vn -0.8794 0.3834 -0.2822
vn -0.8794 0.3538 0.3187
vn -0.9626 0.2710 -0.0060
vn -0.9004 0.3017 0.3134
vn -0.9356 0.1224 -0.3311
vn -0.9489 0.2521 -0.1896
vn 0.2799 0.8410 -0.4630
vn -0.9899 0.1414 -0.0000
vn 0.2378 0.7145 0.6580
vn 0.6542 0.3500 0.6704
vn 0.6832 0.3754 0.6264
vn -0.2378 0.7145 0.6580
vn 0.9489 0.2521 0.1896
vn 0.9899 0.1414 -0.0000
vn -0.2799 0.8410 -0.4630
vn 0.8083 0.1155 0.5773
vn -0.8083 0.1155 -0.5774
vn -0.9489 0.2521 0.1896
vn -0.6832 0.3754 0.6264
vn -0.3771 0.5578 0.7393
vn -0.0626 0.8885 0.4545
vn 0.0183 0.4733 -0.8807
vn -0.1949 0.5986 -0.7769
vn -0.7426 0.6510 -0.1575
vn -0.6540 0.5465 -0.5231
vn -0.7393 0.6604 -0.1311
vn 0.7137 0.5694 0.4079
vn -0.3871 0.7189 0.5774
vn 0.7140 0.4745 0.5148
vn -0.3871 0.7189 -0.5774
vn 0.6452 0.6248 -0.4397
vn 0.1315 0.6485 -0.7497
vn -0.0000 0.7854 -0.6189
vn 0.7746 0.2582 0.5774
vn 0.7746 0.2582 -0.5774
vn -0.6543 0.3500 -0.6704
vn -0.8083 0.1155 0.5774
vn 0.8083 0.1155 -0.5774
vn 0.9489 0.2521 -0.1896
vn 0.6832 0.3754 -0.6264
vn 0.3771 0.5578 -0.7393
vn 0.6194 0.5841 -0.5245
vn 0.7512 0.6415 -0.1554
vn 0.6704 0.5764 -0.4672
vn 0.5080 0.7744 0.3773
vn -0.3495 -0.7598 -0.5482
vn -0.4425 -0.8968 -0.0004
vn -0.6468 -0.6498 0.3991
vn -0.5315 -0.6595 -0.5315
vn 0.3398 -0.8760 0.3423
vn 0.6747 -0.7164 -0.1777
vn -0.3932 -0.6613 0.6388
vn -0.1201 -0.7657 0.6318
vn -0.3305 -0.8828 0.3337
vn 0.1856 -0.7013 0.6883
vn 0.4425 -0.8968 0.0004
vn 0.6468 -0.6498 -0.3991
vn 0.0002 -0.7133 -0.7009
vn 0.3881 -0.7251 -0.5688
vn -0.1856 -0.7012 -0.6883
vn 0.3932 -0.6613 -0.6388
vn -0.0000 -0.5682 0.8229
vn 0.1896 -0.7476 0.6365
vn 0.2614 -0.7094 -0.6545
vn 0.0331 -0.7214 -0.6917
vn -0.3099 -0.8922 0.3285
vn -0.3605 -0.9322 -0.0330
vn -0.3577 -0.9338 -0.0060
vn 0.1690 -0.7609 -0.6264
vn 0.7188 -0.2420 -0.6517
vn -0.1361 -0.9429 -0.3040
vn 0.8115 -0.2681 0.5191
vn -0.1414 -0.9900 -0.0000
vn -0.4299 -0.5182 0.7393
vn -0.8115 -0.2681 0.5191
vn -0.1307 -0.7261 0.6750
vn 0.1361 -0.9429 0.3040
vn 0.1414 -0.9900 -0.0000
vn -0.7188 -0.2420 -0.6517
vn 0.1155 -0.8083 0.5774
vn -0.1155 -0.8083 -0.5774
vn -0.1880 -0.9819 -0.0227
vn -0.1444 -0.9325 0.3311
vn 0.1528 -0.7261 0.6704
vn -0.3304 -0.6502 0.6842
vn 0.0225 -0.8320 -0.5543
vn 0.0317 -0.8621 -0.5057
vn -0.7512 -0.6392 0.1648
vn -0.6704 -0.7285 -0.1410
vn -0.6194 -0.7622 -0.1880
vn 0.3473 -0.7921 0.5019
vn -0.2272 -0.6206 0.7505
vn -0.7189 -0.3871 0.5773
vn -0.7189 -0.3871 -0.5774
vn 0.5296 -0.8475 0.0362
vn 0.3492 -0.7927 -0.4996
vn -0.0000 -0.5682 -0.8229
vn 0.2582 -0.7746 -0.5774
vn 0.2582 -0.7746 0.5774
vn 0.4299 -0.5182 -0.7393
vn -0.1155 -0.8083 0.5774
vn 0.1155 -0.8083 -0.5773
vn 0.1880 -0.9819 0.0227
vn 0.1444 -0.9325 -0.3311
vn -0.1528 -0.7261 -0.6704
vn 0.6540 -0.7283 -0.2044
vn 0.7393 -0.6444 0.1951
vn 0.7426 -0.6485 0.1674
vn 0.3743 -0.6310 0.6795
vt 0.093750 0.475000
vt 0.093750 0.425000
vt 0.093750 0.725000
vt 0.093750 0.670243
vt 0.093750 0.662130
vt 0.093750 0.658769
vt 0.093750 0.652137
vt 0.093750 0.650225
vt 0.093750 0.656755
vt 0.093750 0.665216
vt 0.093750 0.720508
vt 0.093750 0.668505
vt 0.093750 0.676447
vt 0.093750 0.605681
vt 0.093750 0.621817
s 1
usemtl Material.019
f 10/1/1 1/2/2 9/1/3
f 1/2/2 10/1/1 2/2/4
f 11/1/5 7/2/6 8/2/7
f 7/2/6 11/1/5 12/1/8
f 13/1/9 1/2/2 5/2/10
f 12/1/8 5/2/10 7/2/6
f 5/2/10 12/1/8 13/1/9
f 11/1/5 3/2/11 16/1/12
f 13/1/9 10/1/1 9/1/3
f 10/1/1 13/1/9 12/1/8
f 10/1/1 12/1/8 14/1/13
f 14/1/13 12/1/8 11/1/5
f 14/1/13 11/1/5 15/1/14
f 15/1/14 11/1/5 16/1/12
f 15/1/14 3/2/11 4/2/15
f 10/1/1 6/2/16 2/2/4
f 6/2/16 10/1/1 14/1/13
f 20/3/17 21/4/18 22/4/19
f 22/4/19 21/4/18 25/5/20
f 26/5/21 23/6/22 24/6/23
f 30/7/24 29/8/25 28/3/26
f 28/3/26 31/8/27 33/3/28
f 34/9/29 37/7/30 35/3/31
f 37/7/30 36/8/32 35/3/31
f 36/8/32 38/8/33 35/3/31
f 35/3/31 38/8/33 40/3/34
f 44/8/33 46/3/31 45/8/35
f 51/8/27 40/3/26 52/8/36
f 40/3/26 51/8/27 48/3/28
f 48/3/28 51/8/27 49/8/37
f 48/3/28 49/8/37 50/7/38
f 48/3/28 50/7/38 47/9/39
f 62/3/40 54/10/41 53/10/42
f 60/11/43 61/12/44 59/13/45
f 66/14/46 68/3/47 67/15/48
f 68/3/47 66/14/46 64/3/49
f 64/3/49 66/14/46 65/14/50
f 64/3/49 65/14/50 63/15/51
f 1/2/2 13/1/9 9/1/3
f 14/1/13 4/2/15 6/2/16
f 4/2/15 14/1/13 15/1/14
f 3/2/11 11/1/5 8/2/7
f 3/2/11 15/1/14 16/1/12
f 19/3/52 18/6/53 17/6/54
f 18/6/53 19/3/52 20/3/17
f 21/4/18 20/3/17 19/3/52
f 22/4/19 25/5/20 26/5/21
f 26/5/21 25/5/20 23/6/22
f 27/9/55 30/7/24 28/3/26
f 29/8/25 31/8/27 28/3/26
f 32/8/56 33/3/28 31/8/27
f 39/8/57 40/3/34 38/8/33
f 46/3/31 44/8/33 28/3/34
f 28/3/34 44/8/33 42/8/58
f 28/3/34 42/8/58 43/7/59
f 28/3/34 43/7/59 41/9/60
f 55/12/61 57/11/62 56/13/63
f 57/11/62 55/12/61 58/3/64
f 58/3/64 55/12/61 54/10/41
f 58/3/64 54/10/41 62/3/40
f 62/3/40 53/10/42 61/12/44
f 62/3/40 61/12/44 60/11/43
f 78/1/65 77/1/66 69/2/67
f 69/2/67 70/2/68 78/1/65
f 79/1/69 76/2/70 75/2/71
f 75/2/71 80/1/72 79/1/69
f 81/1/73 73/2/74 69/2/67
f 80/1/72 75/2/71 73/2/74
f 73/2/74 81/1/73 80/1/72
f 79/1/69 84/1/75 71/2/76
f 81/1/73 77/1/66 78/1/65
f 78/1/65 80/1/72 81/1/73
f 78/1/65 82/1/77 80/1/72
f 82/1/77 79/1/69 80/1/72
f 82/1/77 83/1/78 79/1/69
f 83/1/78 84/1/75 79/1/69
f 83/1/78 72/2/79 71/2/76
f 78/1/65 70/2/68 74/2/80
f 74/2/80 82/1/77 78/1/65
f 88/3/81 90/4/82 89/4/83
f 90/4/82 93/5/84 89/4/83
f 94/5/85 92/6/86 91/6/87
f 98/7/88 96/3/89 97/8/90
f 96/3/89 101/3/91 99/8/92
f 102/9/93 103/3/94 105/7/95
f 105/7/95 103/3/94 104/8/96
f 104/8/96 103/3/94 106/8/97
f 103/3/94 108/3/98 106/8/97
f 112/8/97 113/8/99 114/3/94
f 119/8/92 120/8/100 108/3/89
f 108/3/89 116/3/91 119/8/92
f 116/3/91 117/8/101 119/8/92
f 116/3/91 118/7/102 117/8/101
f 116/3/91 115/9/103 118/7/102
f 130/3/104 121/10/105 122/10/106
f 128/11/107 127/13/108 129/12/109
f 134/14/110 135/15/111 136/3/112
f 136/3/112 132/3/113 134/14/110
f 132/3/113 133/14/114 134/14/110
f 132/3/113 131/15/115 133/14/114
f 69/2/67 77/1/66 81/1/73
f 82/1/77 74/2/80 72/2/79
f 72/2/79 83/1/78 82/1/77
f 71/2/76 76/2/70 79/1/69
f 71/2/76 84/1/75 83/1/78
f 87/3/116 85/6/117 86/6/118
f 86/6/118 88/3/81 87/3/116
f 89/4/83 87/3/116 88/3/81
f 90/4/82 94/5/85 93/5/84
f 94/5/85 91/6/87 93/5/84
f 95/9/119 96/3/89 98/7/88
f 97/8/90 96/3/89 99/8/92
f 100/8/120 99/8/92 101/3/91
f 107/8/121 106/8/97 108/3/98
f 114/3/94 96/3/98 112/8/97
f 96/3/98 110/8/122 112/8/97
f 96/3/98 111/7/123 110/8/122
f 96/3/98 109/9/124 111/7/123
f 123/12/125 124/13/126 125/11/127
f 125/11/127 126/3/128 123/12/125
f 126/3/128 122/10/106 123/12/125
f 126/3/128 130/3/104 122/10/106
f 130/3/104 129/12/109 121/10/105
f 130/3/104 128/11/107 129/12/109
f 26/5/21 24/6/23 92/6/86 94/5/85
f 33/3/28 32/8/56 100/8/120 101/3/91
f 36/8/32 37/7/30 105/7/95 104/8/96
f 38/8/33 36/8/32 104/8/96 106/8/97
f 44/8/33 45/8/35 113/8/99 112/8/97
f 68/3/47 64/3/49 132/3/113 136/3/112
f 19/3/52 17/6/54 85/6/117 87/3/116
f 17/6/54 18/6/53 86/6/118 85/6/117
f 41/9/60 43/7/59 111/7/123 109/9/124
f 57/11/62 58/3/64 126/3/128 125/11/127
f 1/2/2 2/2/4 70/2/68 69/2/67
f 5/2/10 1/2/2 69/2/67 73/2/74
f 18/6/53 20/3/17 88/3/81 86/6/118
f 29/8/25 30/7/24 98/7/88 97/8/90
f 31/8/27 29/8/25 97/8/90 99/8/92
f 45/8/35 46/3/31 114/3/94 113/8/99
f 50/7/38 49/8/37 117/8/101 118/7/102
f 49/8/37 51/8/27 119/8/92 117/8/101
f 7/2/6 5/2/10 73/2/74 75/2/71
f 2/2/4 6/2/16 74/2/80 70/2/68
f 21/4/18 19/3/52 87/3/116 89/4/83
f 22/4/19 26/5/21 94/5/85 90/4/82
f 34/9/29 35/3/31 103/3/94 102/9/93
f 37/7/30 34/9/29 102/9/93 105/7/95
f 53/10/42 54/10/41 122/10/106 121/10/105
f 61/12/44 53/10/42 121/10/105 129/12/109
f 58/3/64 62/3/40 130/3/104 126/3/128
f 65/14/50 66/14/46 134/14/110 133/14/114
f 20/3/17 22/4/19 90/4/82 88/3/81
f 35/3/31 40/3/34 108/3/98 103/3/94
f 39/8/57 38/8/33 106/8/97 107/8/121
f 43/7/59 42/8/58 110/8/122 111/7/123
f 42/8/58 44/8/33 112/8/97 110/8/122
f 54/10/41 55/12/61 123/12/125 122/10/106
f 66/14/46 67/15/48 135/15/111 134/14/110
f 4/2/15 3/2/11 71/2/76 72/2/79
f 3/2/11 8/2/7 76/2/70 71/2/76
f 27/9/55 28/3/26 96/3/89 95/9/119
f 30/7/24 27/9/55 95/9/119 98/7/88
f 48/3/28 47/9/39 115/9/103 116/3/91
f 47/9/39 50/7/38 118/7/102 115/9/103
f 55/12/61 56/13/63 124/13/126 123/12/125
f 60/11/43 59/13/45 127/13/108 128/11/107
f 59/13/45 61/12/44 129/12/109 127/13/108
f 24/6/23 23/6/22 91/6/87 92/6/86
f 23/6/22 25/5/20 93/5/84 91/6/87
f 28/3/26 33/3/28 101/3/91 96/3/89
f 32/8/56 31/8/27 99/8/92 100/8/120
f 40/3/34 39/8/57 107/8/121 108/3/98
f 28/3/34 41/9/60 109/9/124 96/3/98
f 46/3/31 28/3/34 96/3/98 114/3/94
f 51/8/27 52/8/36 120/8/100 119/8/92
f 62/3/40 60/11/43 128/11/107 130/3/104
f 64/3/49 63/15/51 131/15/115 132/3/113
f 67/15/48 68/3/47 136/3/112 135/15/111
f 63/15/51 65/14/50 133/14/114 131/15/115
f 6/2/16 4/2/15 72/2/79 74/2/80
f 8/2/7 7/2/6 75/2/71 76/2/70
f 25/5/20 21/4/18 89/4/83 93/5/84
f 52/8/36 40/3/26 108/3/89 120/8/100
f 40/3/26 48/3/28 116/3/91 108/3/89
f 56/13/63 57/11/62 125/11/127 124/13/126
