# Blender 4.5.3 LTS
# www.blender.org
mtllib building-type-m_roof.mtl
o building-type-m.001
v -0.052152 0.539574 -0.263346
v -0.065112 0.539574 -0.232056
v -0.140652 0.539574 -0.263346
v -0.127691 0.539574 -0.232056
v -0.065112 0.539574 -0.294635
v -0.096402 0.539574 -0.219096
v -0.096402 0.539574 -0.307596
v -0.127691 0.539574 -0.294635
v -0.066902 0.569074 -0.263346
v -0.075542 0.569074 -0.242486
v -0.117261 0.569074 -0.284205
v -0.096402 0.569074 -0.292846
v -0.075542 0.569074 -0.284205
v -0.096402 0.569074 -0.233846
v -0.117261 0.569074 -0.242486
v -0.125902 0.569074 -0.263346
v -0.052152 0.539574 -0.363346
v -0.065112 0.539574 -0.332056
v -0.140652 0.539574 -0.363346
v -0.127691 0.539574 -0.332056
v -0.065112 0.539574 -0.394635
v -0.096402 0.539574 -0.319096
v -0.096402 0.539574 -0.407596
v -0.127691 0.539574 -0.394635
v -0.066902 0.569074 -0.363346
v -0.075542 0.569074 -0.342486
v -0.117261 0.569074 -0.384205
v -0.096402 0.569074 -0.392846
v -0.075542 0.569074 -0.384205
v -0.096402 0.569074 -0.333846
v -0.117261 0.569074 -0.342486
v -0.125902 0.569074 -0.363346
v 0.256000 0.737500 -0.144000
v 0.256000 0.737500 0.256000
v -0.144000 0.437500 -0.144000
v -0.144000 0.737500 0.256000
v 0.714000 0.394000 0.714000
v 0.256000 0.394000 0.714000
v 0.256000 0.737500 0.256000
v 0.714000 0.394000 0.256000
v -0.544000 0.394000 0.714000
v -0.144000 0.394000 0.714000
v -0.144000 0.737500 0.256000
v -0.594000 0.737500 0.256000
v -0.579355 0.402787 0.702284
v -0.594000 0.424000 0.674000
v -0.202000 0.394000 -0.544000
v -0.202000 0.394000 -0.144000
v 0.256000 0.737500 -0.144000
v 0.256000 0.737500 -0.594000
v -0.190284 0.402787 -0.579355
v -0.162000 0.424000 -0.594000
v 0.714000 0.394000 -0.544000
v 0.714000 0.394000 -0.144000
v 0.256000 0.737500 -0.144000
v 0.256000 0.737500 -0.594000
v 0.702284 0.402787 -0.579355
v 0.674000 0.424000 -0.594000
v -0.144000 0.394000 0.714000
v 0.256000 0.394000 0.714000
v -0.144000 0.737500 0.256000
v 0.256000 0.737500 0.256000
v 0.714000 0.394000 0.256000
v 0.714000 0.394000 -0.144000
v 0.256000 0.737500 0.256000
v 0.256000 0.737500 -0.144000
v -0.594000 0.424000 -0.162000
v -0.594000 0.737500 0.256000
v -0.579355 0.402787 -0.190284
v -0.544000 0.394000 -0.202000
v -0.144000 0.394000 -0.202000
v -0.494000 0.565750 -0.122000
v -0.494000 0.565750 0.027000
v -0.479355 0.576660 -0.157355
v -0.344000 0.677500 0.176000
v -0.444000 0.603000 -0.172000
v -0.344000 0.677500 -0.172000
v -0.194000 0.565750 -0.122000
v -0.194000 0.565750 0.027000
v -0.208645 0.576660 -0.157355
v -0.244000 0.603000 -0.172000
v -0.057875 0.536712 -0.263346
v -0.069159 0.536712 -0.236103
v -0.134929 0.536712 -0.263346
v -0.123644 0.536712 -0.236103
v -0.069159 0.536712 -0.290588
v -0.096402 0.536712 -0.224819
v -0.096402 0.536712 -0.301873
v -0.123644 0.536712 -0.290588
v -0.071288 0.563346 -0.263346
v -0.078685 0.563270 -0.245629
v -0.114118 0.563270 -0.281063
v -0.096402 0.563233 -0.288373
v -0.078677 0.563283 -0.281070
v -0.096402 0.563233 -0.238318
v -0.114126 0.563283 -0.245621
v -0.121515 0.563346 -0.263346
v -0.057875 0.536712 -0.363346
v -0.069159 0.536712 -0.336103
v -0.134929 0.536712 -0.363346
v -0.123644 0.536712 -0.336103
v -0.069159 0.536712 -0.390588
v -0.096402 0.536712 -0.324819
v -0.096402 0.536712 -0.401873
v -0.123644 0.536712 -0.390588
v -0.071288 0.563346 -0.363346
v -0.078685 0.563270 -0.345629
v -0.114118 0.563270 -0.381063
v -0.096402 0.563233 -0.388373
v -0.078677 0.563283 -0.381070
v -0.096402 0.563233 -0.338318
v -0.114126 0.563283 -0.345621
v -0.121515 0.563346 -0.363346
v 0.259600 0.732700 -0.144000
v 0.258195 0.731646 0.258195
v -0.141805 0.431646 -0.141805
v -0.144000 0.732700 0.259600
v 0.711805 0.388146 0.711805
v 0.256000 0.389200 0.710400
v 0.253805 0.731646 0.253805
v 0.710400 0.389200 0.256000
v -0.544000 0.389200 0.710400
v -0.144000 0.389200 0.710400
v -0.144000 0.732700 0.252400
v -0.594000 0.732700 0.252400
v -0.579355 0.397987 0.698684
v -0.594000 0.419200 0.670400
v -0.198400 0.389200 -0.544000
v -0.198400 0.389200 -0.144000
v 0.259600 0.732700 -0.144000
v 0.259600 0.732700 -0.594000
v -0.186684 0.397987 -0.579355
v -0.158400 0.419200 -0.594000
v 0.710400 0.389200 -0.544000
v 0.710400 0.389200 -0.144000
v 0.252400 0.732700 -0.144000
v 0.252400 0.732700 -0.594000
v 0.698684 0.397987 -0.579355
v 0.670400 0.419200 -0.594000
v -0.144000 0.389200 0.710400
v 0.256000 0.389200 0.710400
v -0.144000 0.732700 0.252400
v 0.256000 0.732700 0.252400
v 0.710400 0.389200 0.256000
v 0.710400 0.389200 -0.144000
v 0.252400 0.732700 0.256000
v 0.252400 0.732700 -0.144000
v -0.594000 0.419200 -0.158400
v -0.594000 0.732700 0.259600
v -0.579355 0.397987 -0.186684
v -0.544000 0.389200 -0.198400
v -0.144000 0.389200 -0.198400
v -0.490415 0.560938 -0.122000
v -0.490415 0.560938 0.027000
v -0.475771 0.571849 -0.157355
v -0.344000 0.670018 0.176000
v -0.440415 0.598188 -0.172000
v -0.344000 0.670018 -0.172000
v -0.197585 0.560938 -0.122000
v -0.197585 0.560938 0.027000
v -0.212229 0.571849 -0.157355
v -0.247585 0.598188 -0.172000
vn 0.6452 0.6856 0.3372
vn 0.8594 0.5114 -0.0000
vn 0.5146 0.8154 0.2651
vn -0.3372 0.6856 -0.6452
vn -0.7157 -0.2683 -0.6448
vn -0.6167 0.4892 -0.6167
vn 0.5448 0.8160 -0.1933
vn 0.2221 0.3121 -0.9237
vn 0.2152 0.8164 -0.5360
vn -0.1927 0.7009 0.6868
vn 0.0502 -0.2683 0.9620
vn -0.0000 0.5026 0.8645
vn -0.1933 0.8160 0.5448
vn -0.8045 0.3190 0.5010
vn -0.8054 0.5927 -0.0000
vn 0.6167 0.4892 0.6167
vn 0.9622 -0.2702 -0.0349
vn 0.6495 0.6826 -0.3349
vn 0.6113 0.5026 -0.6113
vn 0.1927 0.7009 -0.6868
vn -0.8045 0.3190 -0.5010
vn -0.5146 0.8154 -0.2651
vn -0.6945 0.1879 -0.6945
vn 0.3141 0.8959 0.3141
vn 0.2483 0.7322 -0.6342
vn -0.6342 0.7322 0.2483
vn -0.3311 0.1224 0.9356
vn -0.1846 0.2338 0.9546
vn -0.5773 0.8083 -0.1155
vn 0.5773 0.8083 -0.1155
vn 0.5774 0.1155 0.8083
vn -0.9356 0.1224 -0.3311
vn -0.9546 0.2338 -0.1846
vn 0.1155 0.8083 -0.5773
vn 0.1155 0.8083 0.5773
vn -0.8083 0.1155 0.5774
vn 0.9775 0.2053 -0.0478
vn -0.1155 0.8083 0.5773
vn 0.8083 0.1155 0.5774
vn -0.5773 0.1155 0.8083
vn 0.8083 0.1155 0.5773
vn -0.1155 0.8083 -0.5773
vn -0.3031 0.1332 -0.9436
vn -0.4734 0.3712 -0.7988
vn 0.5773 0.8083 0.1155
vn -0.7393 0.5578 -0.3771
vn -0.5773 0.8083 0.1155
vn 0.9267 0.1429 -0.3475
vn 0.9332 0.2137 -0.2889
vn 0.9382 0.1502 0.3118
vn 0.5786 0.4858 -0.6552
vn -0.6006 0.3975 -0.6938
vn -0.8409 0.3529 -0.4104
vn -0.0000 0.5362 0.8441
vn -0.9382 0.1502 0.3118
vn -0.5618 0.6073 0.5618
vn -0.4110 0.8137 -0.4110
vn -0.5116 0.2417 0.8245
vn 0.7027 0.1112 0.7027
vn 0.8245 0.2417 -0.5116
vn -0.6704 0.3500 0.6543
vn -0.6543 0.3500 -0.6704
vn 0.6832 0.3754 -0.6264
vn 0.3771 0.5578 -0.7393
vn -0.5774 0.8083 -0.1155
vn 0.8083 0.1155 -0.5774
vn 0.5774 0.1155 -0.8083
vn -0.0000 0.8043 -0.5942
vn -0.9958 0.0915 -0.0030
vn -0.3495 -0.7598 -0.5482
vn -0.4425 -0.8968 -0.0004
vn -0.6468 -0.6498 0.3991
vn 0.3398 -0.8760 0.3423
vn 0.6747 -0.7164 -0.1777
vn -0.3932 -0.6613 0.6388
vn -0.2762 -0.8387 0.4693
vn -0.5412 -0.6431 0.5418
vn 0.1055 -0.8315 0.5454
vn 0.0002 -0.8661 -0.4999
vn -0.6176 -0.7017 -0.3553
vn 0.7296 -0.6612 -0.1748
vn 0.3881 -0.7251 -0.5688
vn 0.7754 -0.6315 0.0001
vn 0.6400 -0.7471 0.1795
vn -0.6747 -0.7164 0.1777
vn -0.5315 -0.6595 -0.5315
vn -0.3305 -0.8829 0.3337
vn 0.1856 -0.7012 0.6883
vn -0.0002 -0.8661 0.4999
vn 0.3585 -0.6910 -0.6277
vn 0.4425 -0.8968 0.0004
vn -0.4091 -0.8156 -0.4091
vn 0.8245 -0.2411 -0.5119
vn 0.7025 -0.1136 0.7025
vn -0.5119 -0.2411 0.8245
vn -0.6264 -0.7609 -0.1691
vn -0.5773 -0.1155 -0.8083
vn -0.2857 -0.9477 0.1422
vn 0.5773 -0.1155 -0.8083
vn 0.5774 -0.8083 0.1155
vn 0.1690 -0.7609 -0.6264
vn 0.8083 -0.1155 -0.5773
vn -0.1422 -0.9477 -0.2857
vn 0.8083 -0.1155 0.5773
vn -0.1155 -0.8083 0.5774
vn 0.1881 -0.9822 0.0028
vn 0.1155 -0.8083 0.5773
vn -0.8083 -0.1155 0.5773
vn -0.5773 -0.8083 0.1155
vn -0.8083 -0.1155 0.5774
vn -0.8083 -0.1155 -0.5773
vn -0.0353 -0.9974 -0.0625
vn 0.5773 -0.1155 0.8083
vn -0.3694 -0.9200 -0.1310
vn -0.6704 -0.7261 0.1528
vn -0.5773 -0.1155 0.8083
vn 0.1973 -0.9803 0.0069
vn 0.2650 -0.8976 0.3523
vn 0.1560 -0.9387 -0.3073
vn -0.2234 -0.6785 -0.6998
vn 0.3976 -0.6527 -0.6450
vn -0.0000 -0.5722 0.8201
vn 0.1611 -0.7018 -0.6939
vn -0.2650 -0.8976 0.3523
vn 0.5567 -0.7558 -0.3448
vn -0.6943 -0.1893 -0.6943
vn 0.3136 -0.8963 0.3136
vn -0.6341 -0.7325 0.2479
vn 0.2479 -0.7324 -0.6341
vn -0.7393 -0.5182 -0.4299
vn 0.4299 -0.5182 -0.7393
vn 0.1444 -0.9325 -0.3311
vn -0.1528 -0.7261 -0.6704
vn -0.5774 -0.1155 -0.8083
vn 0.1155 -0.8083 -0.5773
vn 0.5774 -0.8083 -0.1155
vn -0.0000 -0.4950 -0.8689
vn -0.1319 -0.9316 -0.3387
vt 0.093750 0.475000
vt 0.093750 0.425000
vt 0.093750 0.653889
vt 0.093750 0.725000
vt 0.093750 0.652137
vt 0.093750 0.650225
vt 0.093750 0.656755
vt 0.093750 0.625000
vt 0.093750 0.634763
vt 0.093750 0.658333
s 1
usemtl Material.013
f 10/1/1 1/2/2 9/1/3
f 11/1/4 7/2/5 8/2/6
f 1/2/2 13/1/7 9/1/3
f 5/2/8 12/1/9 13/1/7
f 14/1/10 4/2/11 6/2/12
f 10/1/1 13/1/7 12/1/9
f 10/1/1 12/1/9 14/1/10
f 14/1/10 11/1/4 15/1/13
f 3/2/14 15/1/13 16/1/15
f 15/1/13 3/2/14 4/2/11
f 10/1/1 6/2/12 2/2/16
f 26/1/1 17/2/2 25/1/3
f 17/2/2 26/1/1 18/2/17
f 27/1/4 23/2/5 24/2/6
f 29/1/18 17/2/2 21/2/19
f 17/2/2 29/1/18 25/1/3
f 28/1/20 21/2/19 23/2/5
f 21/2/19 28/1/20 29/1/18
f 30/1/10 20/2/11 22/2/12
f 19/2/21 27/1/4 24/2/6
f 27/1/4 19/2/21 32/1/22
f 29/1/18 26/1/1 25/1/3
f 26/1/1 29/1/18 28/1/20
f 30/1/10 28/1/20 27/1/4
f 22/2/12 26/1/1 30/1/10
f 35/3/23 34/4/24 33/4/25
f 35/3/23 36/4/26 34/4/24
f 45/5/27 41/6/28 44/4/29
f 44/4/29 41/6/28 43/4/30
f 42/6/31 43/4/30 41/6/28
f 51/5/32 47/6/33 50/4/34
f 50/4/34 47/6/33 49/4/35
f 48/6/36 49/4/35 47/6/33
f 53/6/37 55/4/38 54/6/39
f 62/4/30 59/6/40 60/6/31
f 63/6/41 66/4/42 65/4/38
f 70/6/43 69/5/44 36/4/45
f 67/7/46 68/4/47 69/5/44
f 78/8/48 80/9/49 79/8/50
f 80/9/49 81/10/51 79/8/50
f 76/10/52 74/9/53 75/4/54
f 75/4/54 74/9/53 73/8/55
f 1/2/2 10/1/1 2/2/16
f 7/2/5 11/1/4 12/1/9
f 13/1/7 1/2/2 5/2/8
f 12/1/9 5/2/8 7/2/5
f 4/2/11 14/1/10 15/1/13
f 3/2/14 11/1/4 8/2/6
f 11/1/4 3/2/14 16/1/15
f 13/1/7 10/1/1 9/1/3
f 14/1/10 12/1/9 11/1/4
f 15/1/13 11/1/4 16/1/15
f 6/2/12 10/1/1 14/1/10
f 23/2/5 27/1/4 28/1/20
f 20/2/11 30/1/10 31/1/56
f 26/1/1 28/1/20 30/1/10
f 30/1/10 27/1/4 31/1/56
f 31/1/56 27/1/4 32/1/22
f 19/2/21 31/1/56 32/1/22
f 31/1/56 19/2/21 20/2/11
f 26/1/1 22/2/12 18/2/17
f 39/4/57 38/6/58 37/6/59
f 39/4/57 37/6/59 40/6/60
f 46/7/61 45/5/27 44/4/29
f 52/7/62 51/5/32 50/4/34
f 55/4/38 53/6/37 56/4/42
f 56/4/42 53/6/37 57/5/63
f 56/4/42 57/5/63 58/7/64
f 59/6/40 62/4/30 61/4/65
f 66/4/42 63/6/41 64/6/66
f 71/6/67 70/6/43 36/4/45
f 36/4/45 69/5/44 68/4/47
f 79/8/50 81/10/51 75/4/54
f 77/4/68 75/4/54 81/10/51
f 77/4/68 76/10/52 75/4/54
f 72/8/69 73/8/55 74/9/53
f 91/1/70 90/1/71 82/2/72
f 92/1/73 89/2/74 88/2/75
f 82/2/72 90/1/71 94/1/76
f 86/2/77 94/1/76 93/1/78
f 95/1/79 87/2/80 85/2/81
f 91/1/70 93/1/78 94/1/76
f 91/1/70 95/1/79 93/1/78
f 95/1/79 96/1/82 92/1/73
f 84/2/83 97/1/84 96/1/82
f 96/1/82 85/2/81 84/2/83
f 91/1/70 83/2/85 87/2/80
f 107/1/70 106/1/71 98/2/72
f 98/2/72 99/2/86 107/1/70
f 108/1/73 105/2/74 104/2/75
f 110/1/87 102/2/88 98/2/72
f 98/2/72 106/1/71 110/1/87
f 109/1/89 104/2/75 102/2/88
f 102/2/88 110/1/87 109/1/89
f 111/1/79 103/2/80 101/2/81
f 100/2/90 105/2/74 108/1/73
f 108/1/73 113/1/91 100/2/90
f 110/1/87 106/1/71 107/1/70
f 107/1/70 109/1/89 110/1/87
f 111/1/79 108/1/73 109/1/89
f 103/2/80 111/1/79 107/1/70
f 116/3/92 114/4/93 115/4/94
f 116/3/92 115/4/94 117/4/95
f 126/5/96 125/4/97 122/6/98
f 125/4/97 124/4/99 122/6/98
f 123/6/100 122/6/98 124/4/99
f 132/5/101 131/4/102 128/6/103
f 131/4/102 130/4/104 128/6/103
f 129/6/105 128/6/103 130/4/104
f 134/6/106 135/6/107 136/4/108
f 143/4/99 141/6/100 140/6/109
f 144/6/107 146/4/110 147/4/111
f 151/6/112 117/4/113 150/5/114
f 148/7/115 150/5/114 149/4/116
f 159/8/117 160/8/118 161/9/119
f 161/9/119 160/8/118 162/10/120
f 157/10/121 156/4/122 155/9/123
f 156/4/122 154/8/124 155/9/123
f 82/2/72 83/2/85 91/1/70
f 88/2/75 93/1/78 92/1/73
f 94/1/76 86/2/77 82/2/72
f 93/1/78 88/2/75 86/2/77
f 85/2/81 96/1/82 95/1/79
f 84/2/83 89/2/74 92/1/73
f 92/1/73 97/1/84 84/2/83
f 94/1/76 90/1/71 91/1/70
f 95/1/79 92/1/73 93/1/78
f 96/1/82 97/1/84 92/1/73
f 87/2/80 95/1/79 91/1/70
f 104/2/75 109/1/89 108/1/73
f 101/2/81 112/1/125 111/1/79
f 107/1/70 111/1/79 109/1/89
f 111/1/79 112/1/125 108/1/73
f 112/1/125 113/1/91 108/1/73
f 100/2/90 113/1/91 112/1/125
f 112/1/125 101/2/81 100/2/90
f 107/1/70 99/2/86 103/2/80
f 120/4/126 118/6/127 119/6/128
f 120/4/126 121/6/129 118/6/127
f 127/7/130 125/4/97 126/5/96
f 133/7/131 131/4/102 132/5/101
f 136/4/108 137/4/111 134/6/106
f 137/4/111 138/5/132 134/6/106
f 137/4/111 139/7/133 138/5/132
f 140/6/109 142/4/134 143/4/99
f 147/4/111 145/6/135 144/6/107
f 152/6/136 117/4/113 151/6/112
f 117/4/113 149/4/116 150/5/114
f 160/8/118 156/4/122 162/10/120
f 158/4/137 162/10/120 156/4/122
f 158/4/137 156/4/122 157/10/121
f 153/8/138 155/9/123 154/8/124
f 34/4/24 36/4/26 117/4/95 115/4/94
f 45/5/27 46/7/61 127/7/130 126/5/96
f 47/6/33 51/5/32 132/5/101 128/6/103
f 48/6/36 47/6/33 128/6/103 129/6/105
f 58/7/64 57/5/63 138/5/132 139/7/133
f 69/5/44 70/6/43 151/6/112 150/5/114
f 79/8/50 75/4/54 156/4/122 160/8/118
f 4/2/11 3/2/14 84/2/83 85/2/81
f 3/2/14 8/2/6 89/2/74 84/2/83
f 20/2/11 19/2/21 100/2/90 101/2/81
f 19/2/21 24/2/6 105/2/74 100/2/90
f 36/4/26 35/3/23 116/3/92 117/4/95
f 49/4/35 48/6/36 129/6/105 130/4/104
f 62/4/30 60/6/31 141/6/100 143/4/99
f 66/4/42 64/6/66 145/6/135 147/4/111
f 70/6/43 71/6/67 152/6/136 151/6/112
f 76/10/52 77/4/68 158/4/137 157/10/121
f 50/4/34 49/4/35 130/4/104 131/4/102
f 61/4/65 62/4/30 143/4/99 142/4/134
f 65/4/38 66/4/42 147/4/111 146/4/110
f 71/6/67 36/4/45 117/4/113 152/6/136
f 36/4/45 68/4/47 149/4/116 117/4/113
f 77/4/68 81/10/51 162/10/120 158/4/137
f 6/2/12 4/2/11 85/2/81 87/2/80
f 8/2/6 7/2/5 88/2/75 89/2/74
f 22/2/12 20/2/11 101/2/81 103/2/80
f 24/2/6 23/2/5 104/2/75 105/2/74
f 37/6/59 38/6/58 119/6/128 118/6/127
f 40/6/60 37/6/59 118/6/127 121/6/129
f 52/7/62 50/4/34 131/4/102 133/7/131
f 80/9/49 78/8/48 159/8/117 161/9/119
f 78/8/48 79/8/50 160/8/118 159/8/117
f 38/6/58 39/4/57 120/4/126 119/6/128
f 41/6/28 45/5/27 126/5/96 122/6/98
f 42/6/31 41/6/28 122/6/98 123/6/100
f 51/5/32 52/7/62 133/7/131 132/5/101
f 53/6/37 54/6/39 135/6/107 134/6/106
f 57/5/63 53/6/37 134/6/106 138/5/132
f 39/4/57 40/6/60 121/6/129 120/4/126
f 43/4/30 42/6/31 123/6/100 124/4/99
f 54/6/39 55/4/38 136/4/108 135/6/107
f 72/8/69 74/9/53 155/9/123 153/8/138
f 73/8/55 72/8/69 153/8/138 154/8/124
f 1/2/2 2/2/16 83/2/85 82/2/72
f 5/2/8 1/2/2 82/2/72 86/2/77
f 17/2/2 18/2/17 99/2/86 98/2/72
f 21/2/19 17/2/2 98/2/72 102/2/88
f 44/4/29 43/4/30 124/4/99 125/4/97
f 55/4/38 56/4/42 137/4/111 136/4/108
f 67/7/46 69/5/44 150/5/114 148/7/115
f 68/4/47 67/7/46 148/7/115 149/4/116
f 75/4/54 73/8/55 154/8/124 156/4/122
f 7/2/5 5/2/8 86/2/77 88/2/75
f 2/2/16 6/2/12 87/2/80 83/2/85
f 23/2/5 21/2/19 102/2/88 104/2/75
f 18/2/17 22/2/12 103/2/80 99/2/86
f 35/3/23 33/4/25 114/4/93 116/3/92
f 33/4/25 34/4/24 115/4/94 114/4/93
f 46/7/61 44/4/29 125/4/97 127/7/130
f 56/4/42 58/7/64 139/7/133 137/4/111
f 60/6/31 59/6/40 140/6/109 141/6/100
f 59/6/40 61/4/65 142/4/134 140/6/109
f 64/6/66 63/6/41 144/6/107 145/6/135
f 63/6/41 65/4/38 146/4/110 144/6/107
f 74/9/53 76/10/52 157/10/121 155/9/123
f 81/10/51 80/9/49 161/9/119 162/10/120
