# Blender 4.5.3 LTS
# www.blender.org
mtllib building-type-q_roof.mtl
o building-type-q.001
v 0.620000 0.850000 -0.400000
v 0.620000 0.850000 -0.000000
v 0.200000 0.800000 -0.000000
v 0.208284 0.800000 -0.400000
v 0.591716 0.800000 -0.400000
v 0.600000 0.800000 -0.391716
v 0.600000 0.800000 -0.000000
v 0.591716 0.850000 -0.400000
v 0.208284 0.850000 -0.400000
v 0.600000 0.850000 -0.391716
v 0.600000 0.850000 -0.000000
v 0.600000 0.850000 -0.420000
v 0.200000 0.850000 -0.420000
v 0.200000 0.850000 -0.391716
v 0.180000 0.850000 -0.000000
v 0.180000 0.850000 -0.400000
v 0.200000 0.850000 -0.000000
v -0.200000 0.850000 -0.020000
v 0.200000 0.850000 -0.020000
v 0.200000 0.800000 0.400000
v -0.191716 0.800000 0.400000
v -0.200000 0.800000 0.391716
v -0.200000 0.800000 0.008284
v -0.191716 0.800000 -0.000000
v 0.200000 0.800000 -0.000000
v -0.200000 0.850000 0.008284
v -0.200000 0.850000 0.391716
v -0.191716 0.850000 -0.000000
v 0.200000 0.850000 -0.000000
v -0.220000 0.850000 -0.000000
v -0.220000 0.850000 0.400000
v -0.191716 0.850000 0.400000
v 0.200000 0.850000 0.420000
v -0.200000 0.850000 0.420000
v 0.200000 0.850000 0.400000
v 0.200000 0.400000 -0.400000
v -0.191716 0.400000 -0.400000
v -0.200000 0.400000 -0.391716
v -0.200000 0.400000 -0.000000
v -0.220000 0.450000 -0.000000
v -0.220000 0.450000 -0.400000
v -0.200000 0.450000 -0.000000
v -0.200000 0.450000 -0.420000
v -0.200000 0.450000 -0.391716
v -0.191716 0.450000 -0.400000
v 0.200000 0.450000 -0.420000
v 0.200000 0.450000 -0.400000
v 0.200000 0.400000 -0.000000
v 0.200000 0.800000 0.400000
v 0.591716 0.800000 0.400000
v 0.600000 0.800000 0.391716
v 0.620000 0.850000 0.400000
v 0.600000 0.850000 0.420000
v 0.600000 0.850000 0.391716
v 0.591716 0.850000 0.400000
v 0.200000 0.850000 0.420000
v 0.200000 0.850000 0.400000
v 0.200000 0.800000 -0.000000
v -0.600000 0.450000 -0.400000
v -0.220000 0.450000 -0.400000
v -0.620000 0.450000 -0.000000
v -0.220000 0.450000 -0.000000
v -0.600000 0.450000 0.400000
v -0.220000 0.450000 0.400000
v -0.048566 0.888500 0.297680
v -0.061526 0.888500 0.328970
v -0.137066 0.888500 0.297680
v -0.124105 0.888500 0.328970
v -0.061526 0.888500 0.266391
v -0.092816 0.888500 0.341930
v -0.092816 0.888500 0.253430
v -0.124105 0.888500 0.266391
v -0.063316 0.918000 0.297680
v -0.071956 0.918000 0.318540
v -0.113675 0.918000 0.276820
v -0.092816 0.918000 0.268180
v -0.071956 0.918000 0.276820
v -0.092816 0.918000 0.327180
v -0.113675 0.918000 0.318540
v -0.122316 0.918000 0.297680
v -0.164000 0.836000 0.420000
v -0.128000 0.836000 0.420000
v -0.164000 0.836000 0.446000
v -0.128000 0.836000 0.446000
v -0.128000 0.826000 0.456000
v -0.164000 0.826000 0.456000
v 0.600000 0.450000 0.420000
v 0.200000 0.450000 0.420000
v 0.620000 0.450000 0.400000
v 0.620000 0.450000 -0.000000
v 0.200000 0.450000 0.400000
v 0.600000 0.450000 0.400000
v 0.600000 0.450000 -0.000000
v 0.600000 0.450000 -0.420000
v 0.200000 0.450000 -0.420000
v 0.620000 0.450000 -0.400000
v 0.180000 0.450000 -0.400000
v 0.180000 0.450000 -0.000000
v 0.600000 0.450000 -0.400000
v 0.200000 0.450000 -0.400000
v 0.200000 0.450000 -0.000000
v -0.200000 0.450000 0.420000
v -0.220000 0.450000 0.400000
v -0.200000 0.450000 0.400000
v -0.200000 0.450000 -0.020000
v -0.220000 0.450000 -0.000000
v 0.200000 0.450000 -0.020000
v 0.620000 0.844000 -0.400000
v 0.620000 0.844000 -0.000000
v 0.200000 0.794000 -0.000000
v 0.208284 0.794000 -0.400000
v 0.591716 0.794000 -0.400000
v 0.600000 0.794000 -0.391716
v 0.600000 0.794000 -0.000000
v 0.591716 0.844000 -0.400000
v 0.208284 0.844000 -0.400000
v 0.600000 0.844000 -0.391716
v 0.600000 0.844000 -0.000000
v 0.600000 0.844000 -0.420000
v 0.200000 0.844000 -0.420000
v 0.200000 0.844000 -0.391716
v 0.180000 0.844000 -0.000000
v 0.180000 0.844000 -0.400000
v 0.200000 0.844000 -0.000000
v -0.200000 0.844000 -0.020000
v 0.200000 0.844000 -0.020000
v 0.200000 0.794000 0.400000
v -0.191716 0.794000 0.400000
v -0.200000 0.794000 0.391716
v -0.200000 0.794000 0.008284
v -0.191716 0.794000 -0.000000
v 0.200000 0.794000 -0.000000
v -0.200000 0.844000 0.008284
v -0.200000 0.844000 0.391716
v -0.191716 0.844000 -0.000000
v 0.200000 0.844000 -0.000000
v -0.220000 0.844000 -0.000000
v -0.220000 0.844000 0.400000
v -0.191716 0.844000 0.400000
v 0.200000 0.844000 0.420000
v -0.200000 0.844000 0.420000
v 0.200000 0.844000 0.400000
v 0.200000 0.394000 -0.400000
v -0.191716 0.394000 -0.400000
v -0.200000 0.394000 -0.391716
v -0.200000 0.394000 -0.000000
v -0.220000 0.444000 -0.000000
v -0.220000 0.444000 -0.400000
v -0.200000 0.444000 -0.000000
v -0.200000 0.444000 -0.420000
v -0.200000 0.444000 -0.391716
v -0.191716 0.444000 -0.400000
v 0.200000 0.444000 -0.420000
v 0.200000 0.444000 -0.400000
v 0.200000 0.394000 -0.000000
v 0.200000 0.794000 0.400000
v 0.591716 0.794000 0.400000
v 0.600000 0.794000 0.391716
v 0.620000 0.844000 0.400000
v 0.600000 0.844000 0.420000
v 0.600000 0.844000 0.391716
v 0.591716 0.844000 0.400000
v 0.200000 0.844000 0.420000
v 0.200000 0.844000 0.400000
v 0.200000 0.794000 -0.000000
v -0.600000 0.444000 -0.400000
v -0.220000 0.444000 -0.400000
v -0.620000 0.444000 -0.000000
v -0.220000 0.444000 -0.000000
v -0.600000 0.444000 0.400000
v -0.220000 0.444000 0.400000
v -0.054289 0.885638 0.297680
v -0.065573 0.885638 0.324923
v -0.131343 0.885638 0.297680
v -0.120058 0.885638 0.324923
v -0.065573 0.885638 0.270437
v -0.092816 0.885638 0.336207
v -0.092816 0.885638 0.259153
v -0.120058 0.885638 0.270437
v -0.067702 0.912272 0.297680
v -0.075099 0.912196 0.315397
v -0.110533 0.912196 0.279963
v -0.092816 0.912159 0.272653
v -0.075091 0.912210 0.279956
v -0.092816 0.912159 0.322707
v -0.110540 0.912210 0.315405
v -0.117929 0.912272 0.297680
v -0.164000 0.830000 0.420000
v -0.128000 0.830000 0.420000
v -0.164000 0.830000 0.443515
v -0.128000 0.830000 0.443515
v -0.128000 0.821757 0.451757
v -0.164000 0.821757 0.451757
v 0.600000 0.444000 0.420000
v 0.200000 0.444000 0.420000
v 0.620000 0.444000 0.400000
v 0.620000 0.444000 -0.000000
v 0.200000 0.444000 0.400000
v 0.600000 0.444000 0.400000
v 0.600000 0.444000 -0.000000
v 0.600000 0.444000 -0.420000
v 0.200000 0.444000 -0.420000
v 0.620000 0.444000 -0.400000
v 0.180000 0.444000 -0.400000
v 0.180000 0.444000 -0.000000
v 0.600000 0.444000 -0.400000
v 0.200000 0.444000 -0.400000
v 0.200000 0.444000 -0.000000
v -0.200000 0.444000 0.420000
v -0.220000 0.444000 0.400000
v -0.200000 0.444000 0.400000
v -0.200000 0.444000 -0.020000
v -0.220000 0.444000 -0.000000
v 0.200000 0.444000 -0.020000
vn 0.0215 0.5370 -0.8433
vn -0.5932 0.5747 0.5637
vn 0.5774 0.5774 0.5774
vn -0.5838 0.5763 0.5719
vn 0.7173 0.6303 -0.2971
vn 0.2971 0.6303 -0.7173
vn -0.0943 0.6625 -0.7431
vn 0.5773 0.5774 0.5773
vn 0.5774 0.5773 -0.5774
vn 0.2275 0.8042 0.5491
vn -0.5049 0.7808 -0.3681
vn 0.5491 0.8042 0.2275
vn -0.6498 0.3944 0.6498
vn 0.5491 0.8042 -0.2275
vn -0.7434 0.6683 0.0276
vn 0.3673 0.2808 -0.8867
vn -0.6679 0.3285 -0.6679
vn -0.3204 0.5469 0.7734
vn 0.5773 0.5774 -0.5773
vn -0.7173 0.6303 -0.2971
vn -0.2971 0.6303 -0.7173
vn 0.5774 0.5774 -0.5774
vn 0.6679 0.3285 0.6679
vn 0.3204 0.5469 -0.7734
vn -0.2275 0.8042 -0.5491
vn -0.7180 0.6960 -0.0000
vn -0.4279 0.7842 0.4494
vn 0.7071 0.7071 -0.0000
vn 0.6452 0.6856 0.3372
vn 0.8594 0.5114 -0.0000
vn 0.5146 0.8154 0.2651
vn -0.4961 0.3121 -0.8102
vn -0.1986 0.8161 -0.5427
vn -0.0000 0.6356 -0.7720
vn 0.6495 0.6826 -0.3349
vn 0.6113 0.5026 -0.6113
vn 0.2152 0.8164 0.5360
vn 0.7157 -0.2683 0.6448
vn 0.6167 0.4892 0.6167
vn -0.0000 0.7071 -0.7071
vn 0.3729 0.7911 0.4849
vn -0.3015 0.9045 -0.3015
vn 0.5167 0.7744 0.3651
vn 0.3607 0.3338 -0.8709
vn -0.5773 0.5774 0.5773
vn -0.7071 0.7071 -0.0000
vn 0.5167 0.7744 -0.3651
vn -0.3015 0.9045 0.3015
vn -0.7492 0.6583 0.0731
vn -0.0227 0.3019 0.9531
vn 0.3812 0.3346 -0.8618
vn 0.3015 0.9045 -0.3015
vn -0.0082 0.6676 0.7445
vn -0.0000 0.7071 0.7071
vn 0.7431 0.6625 -0.0943
vn -0.5491 0.8042 0.2275
vn 0.3681 0.7808 -0.5049
vn -0.2275 0.8042 0.5491
vn -0.6498 0.3944 -0.6498
vn -0.0201 0.5370 0.8434
vn 0.3792 0.3485 -0.8572
vn -0.7476 0.6569 0.0979
vn -0.5708 0.5784 -0.5827
vn 0.7734 0.5469 0.3204
vn 0.8434 0.5369 0.0201
vn -0.8572 0.3485 -0.3792
vn 0.0979 0.6569 0.7476
vn -0.8433 0.5370 -0.0215
vn 0.5637 0.5747 0.5932
vn -0.7173 0.6303 0.2971
vn -0.2971 0.6303 0.7173
vn -0.5774 0.5774 0.5774
vn 0.7509 0.6598 -0.0277
vn -0.3673 0.2808 0.8867
vn -0.5774 0.5774 -0.5774
vn -0.5773 0.5774 -0.5773
vn 0.7173 0.6303 0.2971
vn 0.2971 0.6303 0.7173
vn -0.4279 0.7842 -0.4494
vn -0.6167 0.4892 -0.6167
vn 0.0502 -0.2683 0.9620
vn -0.5618 0.6073 0.5618
vn -0.8045 0.3190 -0.5010
vn -0.5146 0.8154 -0.2651
vn -0.3506 0.9353 0.0471
vn -0.5774 0.5773 -0.5774
vn 0.6592 0.7503 -0.0506
vn 0.3006 0.1271 0.9452
vn -0.3323 -0.0000 0.9432
vn -0.6521 0.3866 -0.6521
vn 0.0081 0.6601 -0.7512
vn 0.0211 0.5370 -0.8433
vn -0.8398 0.4361 0.3235
vn 0.0215 -0.5370 -0.8433
vn 0.5774 -0.5774 0.5774
vn -0.5932 -0.5747 0.5637
vn -0.5838 -0.5763 0.5719
vn 0.2971 -0.6303 -0.7173
vn 0.7173 -0.6303 -0.2971
vn -0.0942 -0.6571 -0.7479
vn 0.5773 -0.5774 -0.5774
vn 0.5773 -0.5774 0.5773
vn 0.2275 -0.8042 0.5491
vn -0.5529 -0.6597 -0.5090
vn 0.5491 -0.8042 0.2275
vn 0.5491 -0.8042 -0.2275
vn -0.6498 -0.3944 0.6498
vn -0.5114 -0.6598 -0.5506
vn 0.3673 -0.2808 -0.8867
vn -0.6679 -0.3285 -0.6679
vn -0.3204 -0.5469 0.7734
vn 0.5773 -0.5774 -0.5773
vn -0.7173 -0.6303 -0.2971
vn -0.2971 -0.6303 -0.7173
vn 0.5774 -0.5774 -0.5774
vn 0.6679 -0.3285 0.6679
vn -0.2275 -0.8042 -0.5491
vn 0.3204 -0.5469 -0.7734
vn -0.7180 -0.6960 -0.0000
vn 0.7071 -0.7071 -0.0000
vn -0.6622 -0.6668 0.3419
vn -0.3495 -0.7598 -0.5482
vn -0.4425 -0.8968 -0.0004
vn -0.6468 -0.6498 0.3991
vn -0.0003 -0.6434 0.7655
vn -0.1201 -0.7657 0.6318
vn 0.4635 -0.8361 0.2933
vn -0.3305 -0.8829 0.3337
vn 0.1856 -0.7012 0.6883
vn 0.0002 -0.7133 -0.7009
vn -0.6747 -0.7164 0.1777
vn 0.3932 -0.6613 -0.6388
vn -0.0000 -0.7071 -0.7071
vn -0.3015 -0.9045 -0.3015
vn 0.0082 -0.6676 0.7445
vn 0.5623 -0.6594 0.4990
vn -0.5773 -0.5774 0.5773
vn 0.3607 -0.3338 -0.8709
vn -0.7071 -0.7071 -0.0000
vn -0.3015 -0.9045 0.3015
vn 0.7445 -0.6661 -0.0449
vn -0.4781 -0.6583 -0.5814
vn 0.3812 -0.3346 -0.8618
vn -0.0227 -0.3019 0.9531
vn 0.3015 -0.9045 -0.3015
vn -0.3729 -0.7911 0.4849
vn -0.0000 -0.7071 0.7071
vn 0.7479 -0.6571 -0.0942
vn -0.5491 -0.8042 0.2275
vn 0.5090 -0.6597 -0.5529
vn -0.2275 -0.8042 0.5491
vn -0.6498 -0.3944 -0.6498
vn -0.0201 -0.5370 0.8434
vn -0.4594 -0.6569 -0.5979
vn 0.3792 -0.3485 -0.8572
vn -0.5708 -0.5784 -0.5827
vn 0.7734 -0.5469 0.3204
vn 0.8433 -0.5370 0.0201
vn -0.5979 -0.6569 0.4594
vn -0.8572 -0.3485 -0.3792
vn -0.8433 -0.5370 -0.0215
vn 0.5637 -0.5747 0.5932
vn 0.5774 -0.5773 -0.5774
vn -0.7173 -0.6303 0.2971
vn -0.2971 -0.6303 0.7173
vn -0.5774 -0.5774 0.5774
vn 0.7434 -0.6683 -0.0276
vn -0.3673 -0.2808 0.8867
vn -0.5774 -0.5774 -0.5774
vn -0.5773 -0.5774 -0.5773
vn 0.7173 -0.6303 0.2971
vn 0.2971 -0.6303 0.7173
vn -0.5774 -0.5773 0.5774
vn -0.3084 -0.6668 -0.6785
vn 0.6747 -0.7164 -0.1777
vn 0.7296 -0.6612 -0.1749
vn 0.5567 -0.7558 -0.3448
vn 0.3585 -0.6910 -0.6277
vn 0.4425 -0.8968 0.0004
vn -0.6695 -0.4571 -0.5856
vn -0.5774 -0.5774 -0.5773
vn 0.5861 -0.7486 -0.3101
vn 0.2807 -0.9598 -0.0000
vn -0.6669 -0.7065 -0.2366
vn -0.6521 -0.3866 -0.6521
vn 0.0082 -0.6676 -0.7445
vn 0.0211 -0.5370 -0.8433
vn -0.8398 -0.4361 0.3235
vt 0.093750 0.475000
vt 0.093750 0.275000
vt 0.093750 0.455000
vt 0.093750 0.300000
vt 0.093750 0.425000
vt 0.093750 0.397222
s 1
usemtl Material.017
f 14/1/1 15/1/2 17/1/3
f 3/2/4 6/2/5 5/2/6
f 18/1/7 29/1/8 19/1/9
f 28/1/10 18/1/7 30/1/11
f 28/1/10 30/1/11 26/1/12
f 26/1/12 31/1/13 27/1/14
f 41/1/15 42/1/8 43/1/16
f 43/1/17 44/1/18 45/1/10
f 43/1/17 45/1/10 46/1/19
f 46/1/19 45/1/10 47/1/3
f 38/2/20 48/2/8 37/2/21
f 37/2/21 48/2/8 36/2/22
f 53/1/23 54/1/24 55/1/25
f 61/1/26 63/1/27 62/1/28
f 64/1/3 62/1/28 63/1/27
f 74/1/29 65/3/30 73/1/31
f 71/3/32 75/1/33 76/1/34
f 77/1/35 65/3/30 69/3/36
f 76/1/34 69/3/36 71/3/32
f 69/3/36 76/1/34 77/1/35
f 77/1/35 74/1/29 73/1/31
f 74/1/29 76/1/34 78/1/37
f 74/1/29 70/3/38 66/3/39
f 91/4/40 87/4/41 92/4/42
f 92/4/42 87/4/41 89/4/43
f 101/4/3 95/4/44 98/4/45
f 93/4/46 96/4/47 99/4/48
f 90/4/28 96/4/47 93/4/46
f 101/4/3 107/4/19 42/4/45
f 106/4/49 103/4/50 105/4/51
f 104/4/52 102/4/53 91/4/40
f 88/4/54 91/4/40 102/4/53
f 1/1/55 11/1/46 2/1/28
f 11/1/46 1/1/55 10/1/56
f 10/1/56 1/1/55 12/1/57
f 10/1/56 12/1/57 8/1/58
f 8/1/58 12/1/57 13/1/59
f 8/1/58 13/1/59 9/1/10
f 9/1/10 13/1/59 14/1/18
f 15/1/60 13/1/61 16/1/62
f 6/2/5 3/2/4 7/2/3
f 3/2/4 5/2/6 4/2/63
f 29/1/8 18/1/7 28/1/10
f 26/1/12 30/1/11 31/1/13
f 27/1/14 31/1/13 32/1/64
f 33/1/65 31/1/66 34/1/67
f 32/1/68 33/1/69 35/1/22
f 24/2/21 20/2/8 25/2/19
f 20/2/8 24/2/21 23/2/20
f 20/2/8 23/2/20 22/2/70
f 20/2/8 22/2/70 21/2/71
f 42/1/8 41/1/15 40/1/72
f 48/2/8 38/2/20 39/2/72
f 11/1/46 52/1/73 2/1/28
f 52/1/73 11/1/46 53/1/74
f 53/1/23 55/1/25 56/1/45
f 56/1/45 55/1/25 57/1/75
f 58/2/76 51/2/77 7/2/22
f 51/2/77 58/2/76 50/2/78
f 50/2/78 58/2/76 49/2/45
f 59/1/79 62/1/28 60/1/22
f 62/1/28 59/1/79 61/1/26
f 65/3/30 74/1/29 66/3/39
f 75/1/33 71/3/32 72/3/80
f 65/3/30 77/1/35 73/1/31
f 78/1/37 68/3/81 70/3/38
f 68/3/81 78/1/37 79/1/82
f 67/3/83 75/1/33 72/3/80
f 75/1/33 67/3/83 80/1/84
f 74/1/29 77/1/35 76/1/34
f 78/1/37 76/1/34 75/1/33
f 78/1/37 75/1/33 79/1/82
f 79/1/82 75/1/33 80/1/84
f 67/3/83 79/1/82 80/1/84
f 79/1/82 67/3/83 68/3/81
f 70/3/38 74/1/29 78/1/37
f 83/5/85 82/5/19 81/5/86
f 82/5/19 83/5/85 84/5/87
f 85/6/88 83/5/85 86/6/89
f 83/5/85 85/6/88 84/5/87
f 87/4/41 91/4/40 88/4/54
f 92/4/42 89/4/43 93/4/46
f 93/4/46 89/4/43 90/4/28
f 97/4/49 98/4/45 95/4/44
f 95/4/90 100/4/45 94/4/91
f 99/4/48 94/4/91 100/4/45
f 96/4/47 94/4/91 99/4/48
f 105/4/90 42/4/45 107/4/19
f 42/4/92 103/4/93 104/4/52
f 103/4/93 102/4/53 104/4/52
f 121/1/94 124/1/95 122/1/96
f 110/2/97 112/2/98 113/2/99
f 125/1/100 126/1/101 136/1/102
f 135/1/103 137/1/104 125/1/100
f 135/1/103 133/1/105 137/1/104
f 133/1/105 134/1/106 138/1/107
f 148/1/108 150/1/109 149/1/102
f 150/1/110 152/1/103 151/1/111
f 150/1/110 153/1/112 152/1/103
f 153/1/112 154/1/95 152/1/103
f 145/2/113 144/2/114 155/2/102
f 144/2/114 143/2/115 155/2/102
f 160/1/116 162/1/117 161/1/118
f 168/1/119 169/1/120 170/1/121
f 171/1/95 170/1/121 169/1/120
f 181/1/122 180/1/123 172/3/124
f 178/3/125 183/1/126 182/1/127
f 184/1/128 176/3/129 172/3/124
f 183/1/126 178/3/125 176/3/129
f 176/3/129 184/1/128 183/1/126
f 184/1/128 180/1/123 181/1/122
f 181/1/122 185/1/130 183/1/126
f 181/1/122 173/3/131 177/3/132
f 198/4/133 199/4/134 194/4/135
f 199/4/134 196/4/136 194/4/135
f 208/4/95 205/4/137 202/4/138
f 200/4/139 206/4/140 203/4/141
f 197/4/120 200/4/139 203/4/141
f 208/4/95 149/4/137 214/4/112
f 213/4/142 212/4/143 210/4/144
f 211/4/145 198/4/133 209/4/146
f 195/4/147 209/4/146 198/4/133
f 108/1/148 109/1/120 118/1/139
f 118/1/139 117/1/149 108/1/148
f 117/1/149 119/1/150 108/1/148
f 117/1/149 115/1/151 119/1/150
f 115/1/151 120/1/152 119/1/150
f 115/1/151 116/1/103 120/1/152
f 116/1/103 121/1/111 120/1/152
f 122/1/153 123/1/154 120/1/155
f 113/2/99 114/2/95 110/2/97
f 110/2/97 111/2/156 112/2/98
f 136/1/102 135/1/103 125/1/100
f 133/1/105 138/1/107 137/1/104
f 134/1/106 139/1/157 138/1/107
f 140/1/158 141/1/159 138/1/160
f 139/1/161 142/1/115 140/1/162
f 131/2/114 132/2/163 127/2/102
f 127/2/102 130/2/113 131/2/114
f 127/2/102 129/2/164 130/2/113
f 127/2/102 128/2/165 129/2/164
f 149/1/102 147/1/166 148/1/108
f 155/2/102 146/2/166 145/2/113
f 118/1/139 109/1/120 159/1/167
f 159/1/167 160/1/168 118/1/139
f 160/1/116 163/1/137 162/1/117
f 163/1/137 164/1/169 162/1/117
f 165/2/170 114/2/115 158/2/171
f 158/2/171 157/2/172 165/2/170
f 157/2/172 156/2/173 165/2/170
f 166/1/174 167/1/115 169/1/120
f 169/1/120 168/1/119 166/1/174
f 172/3/124 173/3/131 181/1/122
f 182/1/127 179/3/175 178/3/125
f 172/3/124 180/1/123 184/1/128
f 185/1/130 177/3/132 175/3/176
f 175/3/176 186/1/177 185/1/130
f 174/3/178 179/3/175 182/1/127
f 182/1/127 187/1/179 174/3/178
f 181/1/122 183/1/126 184/1/128
f 185/1/130 182/1/127 183/1/126
f 185/1/130 186/1/177 182/1/127
f 186/1/177 187/1/179 182/1/127
f 174/3/178 187/1/179 186/1/177
f 186/1/177 175/3/176 174/3/178
f 177/3/132 185/1/130 181/1/122
f 190/5/180 188/5/181 189/5/112
f 189/5/112 191/5/182 190/5/180
f 192/6/183 193/6/184 190/5/180
f 190/5/180 191/5/182 192/6/183
f 194/4/135 195/4/147 198/4/133
f 199/4/134 200/4/139 196/4/136
f 200/4/139 197/4/120 196/4/136
f 204/4/142 202/4/138 205/4/137
f 202/4/185 201/4/186 207/4/137
f 206/4/140 207/4/137 201/4/186
f 203/4/141 206/4/140 201/4/186
f 212/4/185 214/4/112 149/4/137
f 149/4/187 211/4/145 210/4/188
f 210/4/188 211/4/145 209/4/146
f 1/1/55 2/1/28 109/1/120 108/1/148
f 11/1/46 10/1/56 117/1/149 118/1/139
f 12/1/57 1/1/55 108/1/148 119/1/150
f 18/1/7 19/1/9 126/1/101 125/1/100
f 29/1/8 28/1/10 135/1/103 136/1/102
f 30/1/11 18/1/7 125/1/100 137/1/104
f 37/2/21 36/2/22 143/2/115 144/2/114
f 42/1/8 40/1/72 147/1/166 149/1/102
f 40/1/72 41/1/15 148/1/108 147/1/166
f 36/2/22 48/2/8 155/2/102 143/2/115
f 54/1/24 53/1/23 160/1/116 161/1/118
f 53/1/23 56/1/45 163/1/137 160/1/116
f 59/1/79 60/1/22 167/1/115 166/1/174
f 61/1/26 59/1/79 166/1/174 168/1/119
f 85/6/88 86/6/89 193/6/184 192/6/183
f 95/4/90 94/4/91 201/4/186 202/4/185
f 99/4/48 100/4/45 207/4/137 206/4/140
f 94/4/91 96/4/47 203/4/141 201/4/186
f 102/4/53 103/4/93 210/4/188 209/4/146
f 4/2/63 5/2/6 112/2/98 111/2/156
f 22/2/70 23/2/20 130/2/113 129/2/164
f 41/1/15 43/1/16 150/1/109 148/1/108
f 50/2/78 49/2/45 156/2/173 157/2/172
f 53/1/74 11/1/46 118/1/139 160/1/168
f 55/1/25 54/1/24 161/1/118 162/1/117
f 49/2/45 58/2/76 165/2/170 156/2/173
f 60/1/22 62/1/28 169/1/120 167/1/115
f 70/3/38 68/3/81 175/3/176 177/3/132
f 72/3/80 71/3/32 178/3/125 179/3/175
f 97/4/49 95/4/44 202/4/138 204/4/142
f 95/4/44 101/4/3 208/4/95 202/4/138
f 100/4/45 95/4/90 202/4/185 207/4/137
f 96/4/47 90/4/28 197/4/120 203/4/141
f 103/4/50 106/4/49 213/4/142 210/4/144
f 105/4/51 103/4/50 210/4/144 212/4/143
f 5/2/6 6/2/5 113/2/99 112/2/98
f 13/1/59 12/1/57 119/1/150 120/1/152
f 23/2/20 24/2/21 131/2/114 130/2/113
f 19/1/9 29/1/8 136/1/102 126/1/101
f 31/1/13 30/1/11 137/1/104 138/1/107
f 38/2/20 37/2/21 144/2/114 145/2/113
f 43/1/16 42/1/8 149/1/102 150/1/109
f 2/1/28 52/1/73 159/1/167 109/1/120
f 57/1/75 55/1/25 162/1/117 164/1/169
f 91/4/40 92/4/42 199/4/134 198/4/133
f 101/4/3 42/4/45 149/4/137 208/4/95
f 107/4/19 101/4/3 208/4/95 214/4/112
f 42/4/45 105/4/90 212/4/185 149/4/137
f 103/4/93 42/4/92 149/4/187 210/4/188
f 42/4/92 104/4/52 211/4/145 149/4/187
f 104/4/52 91/4/40 198/4/133 211/4/145
f 14/1/18 13/1/59 120/1/152 121/1/111
f 13/1/61 15/1/60 122/1/153 120/1/155
f 16/1/62 13/1/61 120/1/155 123/1/154
f 32/1/64 31/1/13 138/1/107 139/1/157
f 31/1/66 33/1/65 140/1/158 138/1/160
f 34/1/67 31/1/66 138/1/160 141/1/159
f 44/1/18 43/1/17 150/1/110 151/1/111
f 43/1/17 46/1/19 153/1/112 150/1/110
f 51/2/77 50/2/78 157/2/172 158/2/171
f 56/1/45 57/1/75 164/1/169 163/1/137
f 92/4/42 93/4/46 200/4/139 199/4/134
f 6/2/5 7/2/3 114/2/95 113/2/99
f 15/1/2 14/1/1 121/1/94 122/1/96
f 14/1/1 17/1/3 124/1/95 121/1/94
f 7/2/3 3/2/4 110/2/97 114/2/95
f 3/2/4 4/2/63 111/2/156 110/2/97
f 20/2/8 21/2/71 128/2/165 127/2/102
f 24/2/21 25/2/19 132/2/163 131/2/114
f 33/1/69 32/1/68 139/1/161 140/1/162
f 32/1/68 35/1/22 142/1/115 139/1/161
f 25/2/19 20/2/8 127/2/102 132/2/163
f 39/2/72 38/2/20 145/2/113 146/2/166
f 45/1/10 44/1/18 151/1/111 152/1/103
f 64/1/3 63/1/27 170/1/121 171/1/95
f 65/3/30 66/3/39 173/3/131 172/3/124
f 69/3/36 65/3/30 172/3/124 176/3/129
f 83/5/85 81/5/86 188/5/181 190/5/180
f 81/5/86 82/5/19 189/5/112 188/5/181
f 87/4/41 88/4/54 195/4/147 194/4/135
f 89/4/43 87/4/41 194/4/135 196/4/136
f 98/4/45 97/4/49 204/4/142 205/4/137
f 93/4/46 99/4/48 206/4/140 200/4/139
f 15/1/60 16/1/62 123/1/154 122/1/153
f 17/1/3 15/1/2 122/1/96 124/1/95
f 21/2/71 22/2/70 129/2/164 128/2/165
f 33/1/65 34/1/67 141/1/159 140/1/158
f 35/1/22 33/1/69 140/1/162 142/1/115
f 47/1/3 45/1/10 152/1/103 154/1/95
f 48/2/8 39/2/72 146/2/166 155/2/102
f 7/2/22 51/2/77 158/2/171 114/2/115
f 58/2/76 7/2/22 114/2/115 165/2/170
f 63/1/27 61/1/26 168/1/119 170/1/121
f 71/3/32 69/3/36 176/3/129 178/3/125
f 66/3/39 70/3/38 177/3/132 173/3/131
f 82/5/19 84/5/87 191/5/182 189/5/112
f 88/4/54 102/4/53 209/4/146 195/4/147
f 8/1/58 9/1/10 116/1/103 115/1/151
f 10/1/56 8/1/58 115/1/151 117/1/149
f 26/1/12 27/1/14 134/1/106 133/1/105
f 28/1/10 26/1/12 133/1/105 135/1/103
f 46/1/19 47/1/3 154/1/95 153/1/112
f 62/1/28 64/1/3 171/1/95 169/1/120
f 86/6/89 83/5/85 190/5/180 193/6/184
f 101/4/3 98/4/45 205/4/137 208/4/95
f 106/4/49 105/4/51 212/4/143 213/4/142
f 105/4/90 107/4/19 214/4/112 212/4/185
f 9/1/10 14/1/18 121/1/111 116/1/103
f 27/1/14 32/1/64 139/1/157 134/1/106
f 52/1/73 53/1/74 160/1/168 159/1/167
f 68/3/81 67/3/83 174/3/178 175/3/176
f 67/3/83 72/3/80 179/3/175 174/3/178
f 84/5/87 85/6/88 192/6/183 191/5/182
f 90/4/28 89/4/43 196/4/136 197/4/120
