# Blender 4.5.3 LTS
# www.blender.org
mtllib building-type-e_roof.mtl
o building-type-e.001
v -0.413088 1.076049 0.226434
v -0.426048 1.076049 0.257724
v -0.501588 1.076049 0.226434
v -0.488627 1.076049 0.257724
v -0.426048 1.076049 0.195145
v -0.457338 1.076049 0.270684
v -0.457338 1.076049 0.182184
v -0.488627 1.076049 0.195145
v -0.427838 1.105549 0.226434
v -0.436478 1.105549 0.247294
v -0.478197 1.105549 0.205575
v -0.457338 1.105549 0.196934
v -0.436478 1.105549 0.205575
v -0.457338 1.105549 0.255934
v -0.478197 1.105549 0.247294
v -0.486838 1.105549 0.226434
v -0.313088 1.076049 0.226434
v -0.326048 1.076049 0.257724
v -0.401588 1.076049 0.226434
v -0.388627 1.076049 0.257724
v -0.326048 1.076049 0.195145
v -0.357338 1.076049 0.270684
v -0.357338 1.076049 0.182184
v -0.388627 1.076049 0.195145
v -0.327838 1.105549 0.226434
v -0.336478 1.105549 0.247294
v -0.378197 1.105549 0.205575
v -0.357338 1.105549 0.196934
v -0.336478 1.105549 0.205575
v -0.357338 1.105549 0.255934
v -0.378197 1.105549 0.247294
v -0.386838 1.105549 0.226434
v -0.600000 0.836000 0.384000
v -0.600000 0.836000 0.420000
v -0.626000 0.836000 0.384000
v -0.626000 0.836000 0.420000
v -0.636000 0.826000 0.420000
v -0.636000 0.826000 0.384000
v -0.200000 0.794000 0.514000
v 0.200000 0.794000 0.514000
v -0.200000 1.137500 0.056000
v 0.200000 1.137500 0.056000
v 0.600000 0.794000 -0.402000
v 0.200000 0.794000 -0.402000
v 0.200000 1.137500 0.056000
v 0.650000 1.137500 0.056000
v 0.635355 0.802787 -0.390284
v 0.650000 0.824000 -0.362000
v 0.600000 0.794000 0.514000
v 0.200000 0.794000 0.514000
v 0.200000 1.137500 0.056000
v 0.650000 1.137500 0.056000
v 0.635355 0.802787 0.502284
v 0.650000 0.824000 0.474000
v -0.600000 0.794000 -0.402000
v -0.200000 0.794000 -0.402000
v -0.200000 1.137500 0.056000
v -0.650000 1.137500 0.056000
v -0.635355 0.802787 -0.390284
v -0.650000 0.824000 -0.362000
v -0.600000 0.794000 0.514000
v -0.200000 0.794000 0.514000
v -0.200000 1.137500 0.056000
v -0.650000 1.137500 0.056000
v -0.635355 0.802787 0.502284
v -0.650000 0.824000 0.474000
v -0.600000 0.361633 -0.471891
v -0.600000 0.400000 -0.344000
v -0.580000 0.355633 -0.491891
v 0.580000 0.355633 -0.491891
v 0.600000 0.361633 -0.471891
v 0.600000 0.400000 -0.344000
v -0.200000 0.794000 -0.402000
v 0.200000 0.794000 -0.402000
v 0.200000 1.137500 0.056000
v -0.200000 1.137500 0.056000
v 0.150000 0.965750 -0.322000
v 0.150000 0.965750 -0.173000
v 0.135355 0.976660 -0.357355
v -0.000000 1.077500 -0.024000
v 0.100000 1.003000 -0.372000
v -0.000000 1.077500 -0.372000
v -0.150000 0.965750 -0.322000
v -0.150000 0.965750 -0.173000
v -0.135355 0.976660 -0.357355
v -0.100000 1.003000 -0.372000
v -0.418811 1.073187 0.226434
v -0.430095 1.073187 0.253677
v -0.495865 1.073187 0.226434
v -0.484581 1.073187 0.253677
v -0.430095 1.073187 0.199192
v -0.457338 1.073187 0.264961
v -0.457338 1.073187 0.187907
v -0.484581 1.073187 0.199192
v -0.432224 1.099821 0.226434
v -0.439621 1.099745 0.244151
v -0.475055 1.099745 0.208717
v -0.457338 1.099708 0.201407
v -0.439613 1.099759 0.208710
v -0.457338 1.099708 0.251462
v -0.475062 1.099759 0.244159
v -0.482452 1.099821 0.226434
v -0.318811 1.073187 0.226434
v -0.330095 1.073187 0.253677
v -0.395865 1.073187 0.226434
v -0.384580 1.073187 0.253677
v -0.330095 1.073187 0.199192
v -0.357338 1.073187 0.264961
v -0.357338 1.073187 0.187907
v -0.384580 1.073187 0.199192
v -0.332224 1.099821 0.226434
v -0.339621 1.099745 0.244151
v -0.375055 1.099745 0.208717
v -0.357338 1.099708 0.201407
v -0.339613 1.099759 0.208710
v -0.357338 1.099708 0.251462
v -0.375062 1.099759 0.244159
v -0.382452 1.099821 0.226434
v -0.600000 0.811392 0.388244
v -0.600000 0.830000 0.420000
v -0.623488 0.829936 0.389328
v -0.623515 0.830000 0.420000
v -0.631757 0.821757 0.420000
v -0.626305 0.816306 0.388490
v -0.200000 0.789200 0.510400
v 0.200000 0.789200 0.510400
v -0.200000 1.132700 0.052400
v 0.200000 1.132700 0.052400
v 0.600000 0.789200 -0.398400
v 0.200000 0.789200 -0.398400
v 0.200000 1.132700 0.059600
v 0.650000 1.132700 0.059600
v 0.635355 0.797987 -0.386684
v 0.650000 0.819200 -0.358400
v 0.600000 0.789200 0.510400
v 0.200000 0.789200 0.510400
v 0.200000 1.132700 0.052400
v 0.650000 1.132700 0.052400
v 0.635355 0.797987 0.498684
v 0.650000 0.819200 0.470400
v -0.600000 0.789200 -0.398400
v -0.200000 0.789200 -0.398400
v -0.200000 1.132700 0.059600
v -0.650000 1.132700 0.059600
v -0.635355 0.797987 -0.386684
v -0.650000 0.819200 -0.358400
v -0.600000 0.789200 0.510400
v -0.200000 0.789200 0.510400
v -0.200000 1.132700 0.052400
v -0.650000 1.132700 0.052400
v -0.635355 0.797987 0.498684
v -0.650000 0.819200 0.470400
v -0.600000 0.355886 -0.470167
v -0.600000 0.394253 -0.342276
v -0.580000 0.349886 -0.490167
v 0.580000 0.349886 -0.490167
v 0.600000 0.355886 -0.470167
v 0.600000 0.394253 -0.342276
v -0.200000 0.789200 -0.398400
v 0.200000 0.789200 -0.398400
v 0.200000 1.132700 0.059600
v -0.200000 1.132700 0.059600
v 0.146415 0.960938 -0.322000
v 0.146415 0.960938 -0.173000
v 0.131771 0.971849 -0.357355
v 0.000000 1.070018 -0.024000
v 0.096415 0.998188 -0.372000
v -0.000000 1.070018 -0.372000
v -0.146415 0.960938 -0.322000
v -0.146415 0.960938 -0.173000
v -0.131771 0.971849 -0.357355
v -0.096415 0.998188 -0.372000
vn 0.6452 0.6856 0.3372
vn 0.8593 0.5114 -0.0000
vn 0.5146 0.8154 0.2650
vn 0.9622 -0.2702 -0.0350
vn -0.4962 0.3121 -0.8102
vn -0.1987 0.8161 -0.5427
vn -0.0000 0.6356 -0.7720
vn 0.6495 0.6827 -0.3349
vn 0.6113 0.5026 -0.6113
vn -0.2221 0.3121 0.9237
vn -0.2152 0.8164 0.5360
vn -0.5618 0.6073 0.5618
vn -0.8045 0.3191 0.5010
vn -0.8054 0.5928 -0.0000
vn 0.7158 -0.2683 0.6447
vn 0.5146 0.8154 0.2651
vn -0.8045 0.3191 -0.5010
vn -0.9622 -0.2702 0.0350
vn 0.4962 0.3121 0.8102
vn -0.0537 0.9319 -0.3587
vn 0.5773 0.5774 0.5773
vn 0.5824 0.5143 -0.6295
vn 0.0506 0.7503 0.6592
vn -0.6595 0.2283 -0.7162
vn -0.5773 0.1155 0.8083
vn 0.5773 0.8083 -0.1155
vn -0.5774 0.8083 -0.1155
vn 0.5774 0.1155 0.8083
vn 0.6705 0.3500 -0.6542
vn 0.6264 0.3753 -0.6832
vn 0.5773 0.8083 0.1155
vn 0.1846 0.2337 -0.9546
vn 0.6750 0.3288 0.6605
vn 0.7393 0.5578 0.3772
vn -0.5773 0.1155 -0.8083
vn 0.5774 0.1155 -0.8083
vn -0.0000 0.5362 0.8441
vn 0.3944 0.5511 -0.7354
vn -0.0000 0.8043 -0.5942
vn -0.5084 0.5548 -0.6586
vn -0.9382 0.1502 0.3118
vn -0.9332 0.2137 -0.2889
vn -0.6167 0.4893 -0.6167
vn -0.5146 0.8154 -0.2651
vn -0.9452 0.1271 0.3007
vn -0.5773 0.8083 0.1155
vn -0.5774 0.1155 -0.8083
vn 0.0478 0.2053 0.9775
vn -0.5773 0.8083 -0.1155
vn -0.5774 0.1155 0.8083
vn -0.0478 0.2053 -0.9775
vn -0.6264 0.3753 -0.6832
vn -0.7393 0.5578 -0.3772
vn -0.6705 0.3500 0.6542
vn -0.6264 0.3753 0.6832
vn -0.1846 0.2337 0.9546
vn 0.4075 0.5687 -0.7145
vn 0.5773 0.7189 0.3871
vn 0.5149 0.4745 -0.7139
vn -0.5774 0.7189 0.3871
vn -0.4396 0.6248 -0.6452
vn -0.7497 0.6485 -0.1315
vn -0.5774 0.8083 0.1155
vn 0.8995 0.2137 -0.3812
vn 0.9382 0.1502 0.3118
vn 0.9304 0.1402 -0.3387
vn -0.9958 0.0915 0.0068
vn -0.3495 -0.7598 -0.5482
vn -0.4425 -0.8967 -0.0004
vn -0.6469 -0.6498 0.3991
vn -0.5315 -0.6595 -0.5315
vn -0.0003 -0.6434 0.7655
vn -0.1200 -0.7657 0.6318
vn 0.4635 -0.8361 0.2933
vn -0.3305 -0.8828 0.3337
vn 0.1856 -0.7012 0.6884
vn 0.5412 -0.6431 -0.5418
vn 0.5567 -0.7558 -0.3448
vn -0.1054 -0.8315 -0.5454
vn 0.7754 -0.6314 0.0001
vn 0.6400 -0.7471 0.1795
vn 0.3932 -0.6613 -0.6388
vn -0.3496 -0.7598 -0.5482
vn -0.4425 -0.8968 -0.0004
vn 0.3585 -0.6909 -0.6278
vn 0.5315 -0.6595 0.5315
vn 0.0003 -0.6434 -0.7655
vn 0.4422 -0.7309 0.5198
vn 0.3988 -0.8828 -0.2484
vn 0.5613 -0.5110 0.6510
vn 0.3098 -0.7479 0.5871
vn 0.3433 -0.9109 -0.2290
vn -0.5773 -0.8083 0.1155
vn -0.5774 -0.1155 -0.8083
vn 0.5773 -0.1155 -0.8083
vn 0.5774 -0.8083 0.1155
vn 0.7393 -0.5183 0.4299
vn 0.5773 -0.1155 0.8083
vn 0.6750 -0.7261 0.1307
vn 0.2856 -0.9477 -0.1422
vn 0.6705 -0.7260 -0.1528
vn 0.6264 -0.7610 -0.1690
vn -0.5773 -0.8083 -0.1155
vn 0.5774 -0.8083 -0.1155
vn -0.0000 -0.5722 0.8201
vn -0.0000 -0.4950 -0.8689
vn -0.3975 -0.6526 -0.6450
vn 0.4001 -0.5469 -0.7354
vn -0.2650 -0.8976 0.3523
vn 0.2360 -0.6466 -0.7254
vn 0.6747 -0.7164 -0.1777
vn 0.4425 -0.8968 0.0004
vn 0.0546 -0.9478 0.3142
vn -0.5773 -0.1155 0.8083
vn -0.5774 -0.8083 -0.1155
vn -0.0027 -0.9822 0.1881
vn -0.5774 -0.8083 0.1155
vn -0.5773 -0.1155 -0.8083
vn 0.0027 -0.9822 -0.1881
vn -0.3311 -0.9325 -0.1444
vn -0.6705 -0.7260 0.1528
vn -0.7393 -0.5183 -0.4299
vn -0.6750 -0.7261 -0.1307
vn -0.2856 -0.9477 0.1422
vn 0.5010 -0.7923 -0.3481
vn 0.7505 -0.6206 0.2271
vn 0.5773 -0.3871 0.7189
vn -0.5774 -0.3871 0.7189
vn 0.0361 -0.8475 -0.5296
vn -0.4997 -0.7927 -0.3491
vn -0.5774 -0.1155 0.8083
vn 0.1197 -0.9111 -0.3945
vn 0.1973 -0.9803 -0.0030
vn 0.2650 -0.8976 0.3523
vn -0.1283 -0.9289 -0.3475
vt 0.093750 0.475000
vt 0.093750 0.425000
vt 0.093750 0.397222
vt 0.093750 0.650225
vt 0.093750 0.725000
vt 0.093750 0.656755
vt 0.093750 0.652137
vt 0.093750 0.658333
vt 0.093750 0.625000
vt 0.093750 0.634763
vt 0.093750 0.605681
vt 0.093750 0.621817
s 1
usemtl Material.005
f 10/1/1 1/2/2 9/1/3
f 1/2/2 10/1/1 2/2/4
f 7/2/5 11/1/6 12/1/7
f 13/1/8 1/2/2 5/2/9
f 1/2/2 13/1/8 9/1/3
f 5/2/9 12/1/7 13/1/8
f 4/2/10 14/1/11 15/1/12
f 3/2/13 15/1/12 16/1/14
f 10/1/1 6/2/15 2/2/4
f 6/2/15 10/1/1 14/1/11
f 26/1/1 17/2/2 25/1/16
f 17/2/2 26/1/1 18/2/4
f 23/2/5 27/1/6 28/1/7
f 29/1/8 17/2/2 21/2/9
f 17/2/2 29/1/8 25/1/16
f 20/2/10 30/1/11 31/1/12
f 19/2/17 27/1/6 24/2/18
f 29/1/8 26/1/1 25/1/16
f 26/1/1 29/1/8 28/1/7
f 26/1/1 28/1/7 30/1/11
f 30/1/11 28/1/7 27/1/6
f 30/1/11 27/1/6 31/1/12
f 22/2/19 26/1/1 30/1/11
f 35/2/20 34/2/21 33/2/22
f 34/2/21 35/2/20 36/2/23
f 33/2/22 38/3/24 35/2/20
f 39/4/25 42/5/26 41/5/27
f 42/5/26 39/4/25 40/4/28
f 48/6/29 47/7/30 46/5/31
f 47/7/30 43/4/32 46/5/31
f 52/5/26 53/7/33 54/6/34
f 73/4/35 75/5/31 74/4/36
f 80/5/37 81/8/38 82/5/39
f 86/8/40 80/5/37 82/5/39
f 80/5/37 86/8/40 84/9/41
f 84/9/41 86/8/40 85/10/42
f 11/1/6 7/2/5 8/2/43
f 12/1/7 5/2/9 7/2/5
f 14/1/11 4/2/10 6/2/15
f 3/2/13 11/1/6 8/2/43
f 11/1/6 3/2/13 16/1/14
f 13/1/8 10/1/1 9/1/3
f 10/1/1 13/1/8 12/1/7
f 10/1/1 12/1/7 14/1/11
f 14/1/11 12/1/7 11/1/6
f 14/1/11 11/1/6 15/1/12
f 15/1/12 11/1/6 16/1/14
f 15/1/12 3/2/13 4/2/10
f 27/1/6 23/2/5 24/2/18
f 28/1/7 21/2/9 23/2/5
f 21/2/9 28/1/7 29/1/8
f 30/1/11 20/2/10 22/2/19
f 27/1/6 19/2/17 32/1/44
f 31/1/12 27/1/6 32/1/44
f 19/2/17 31/1/12 32/1/44
f 31/1/12 19/2/17 20/2/10
f 26/1/1 22/2/19 18/2/4
f 37/3/45 35/2/20 38/3/24
f 35/2/20 37/3/45 36/2/23
f 46/5/31 43/4/32 45/5/46
f 44/4/47 45/5/46 43/4/32
f 49/4/48 51/5/49 50/4/50
f 51/5/49 49/4/48 52/5/26
f 52/5/26 49/4/48 53/7/33
f 55/4/51 57/5/31 56/4/36
f 57/5/31 55/4/51 58/5/46
f 58/5/46 55/4/51 59/7/52
f 58/5/46 59/7/52 60/6/53
f 66/6/54 65/7/55 64/5/49
f 65/7/55 61/4/56 64/5/49
f 64/5/49 61/4/56 63/5/26
f 62/4/28 63/5/26 61/4/56
f 70/11/57 72/5/58 71/12/59
f 72/5/58 70/11/57 68/5/60
f 68/5/60 70/11/57 69/11/61
f 68/5/60 69/11/61 67/12/62
f 75/5/31 73/4/35 76/5/63
f 79/10/64 78/9/65 77/9/66
f 78/9/65 79/10/64 80/5/37
f 80/5/37 79/10/64 81/8/38
f 84/9/41 85/10/42 83/9/67
f 96/1/68 95/1/69 87/2/70
f 87/2/70 88/2/71 96/1/68
f 93/2/72 98/1/73 97/1/74
f 99/1/75 91/2/76 87/2/70
f 87/2/70 95/1/69 99/1/75
f 91/2/76 99/1/75 98/1/73
f 90/2/77 101/1/78 100/1/79
f 89/2/80 102/1/81 101/1/78
f 96/1/68 88/2/71 92/2/82
f 92/2/82 100/1/79 96/1/68
f 112/1/83 111/1/84 103/2/70
f 103/2/70 104/2/71 112/1/83
f 109/2/72 114/1/73 113/1/74
f 115/1/75 107/2/76 103/2/70
f 103/2/70 111/1/84 115/1/75
f 106/2/77 117/1/78 116/1/79
f 105/2/85 110/2/86 113/1/74
f 115/1/75 111/1/84 112/1/83
f 112/1/83 114/1/73 115/1/75
f 112/1/83 116/1/79 114/1/73
f 116/1/79 113/1/74 114/1/73
f 116/1/79 117/1/78 113/1/74
f 108/2/87 116/1/79 112/1/83
f 121/2/88 119/2/89 120/2/90
f 120/2/90 122/2/91 121/2/88
f 119/2/89 121/2/88 124/3/92
f 125/4/93 127/5/94 128/5/95
f 128/5/95 126/4/96 125/4/93
f 134/6/97 132/5/98 133/7/99
f 133/7/99 132/5/98 129/4/100
f 138/5/95 140/6/101 139/7/102
f 159/4/103 160/4/104 161/5/98
f 166/5/105 168/5/106 167/8/107
f 172/8/108 168/5/106 166/5/105
f 166/5/105 170/9/109 172/8/108
f 170/9/109 171/10/110 172/8/108
f 97/1/74 94/2/111 93/2/72
f 98/1/73 93/2/72 91/2/76
f 100/1/79 92/2/82 90/2/77
f 89/2/80 94/2/111 97/1/74
f 97/1/74 102/1/81 89/2/80
f 99/1/75 95/1/69 96/1/68
f 96/1/68 98/1/73 99/1/75
f 96/1/68 100/1/79 98/1/73
f 100/1/79 97/1/74 98/1/73
f 100/1/79 101/1/78 97/1/74
f 101/1/78 102/1/81 97/1/74
f 101/1/78 90/2/77 89/2/80
f 113/1/74 110/2/86 109/2/72
f 114/1/73 109/2/72 107/2/76
f 107/2/76 115/1/75 114/1/73
f 116/1/79 108/2/87 106/2/77
f 113/1/74 118/1/112 105/2/85
f 117/1/78 118/1/112 113/1/74
f 105/2/85 118/1/112 117/1/78
f 117/1/78 106/2/77 105/2/85
f 112/1/83 104/2/71 108/2/87
f 123/3/113 124/3/92 121/2/88
f 121/2/88 122/2/91 123/3/113
f 132/5/98 131/5/114 129/4/100
f 130/4/115 129/4/100 131/5/114
f 135/4/116 136/4/117 137/5/118
f 137/5/118 138/5/95 135/4/116
f 138/5/95 139/7/102 135/4/116
f 141/4/119 142/4/104 143/5/98
f 143/5/98 144/5/114 141/4/119
f 144/5/114 145/7/120 141/4/119
f 144/5/114 146/6/121 145/7/120
f 152/6/122 150/5/118 151/7/123
f 151/7/123 150/5/118 147/4/124
f 150/5/118 149/5/95 147/4/124
f 148/4/96 147/4/124 149/5/95
f 156/11/125 157/12/126 158/5/127
f 158/5/127 154/5/128 156/11/125
f 154/5/128 155/11/129 156/11/125
f 154/5/128 153/12/130 155/11/129
f 161/5/98 162/5/131 159/4/103
f 165/10/132 163/9/133 164/9/134
f 164/9/134 166/5/105 165/10/132
f 166/5/105 167/8/107 165/10/132
f 170/9/109 169/9/135 171/10/110
f 37/3/45 38/3/24 124/3/92 123/3/113
f 40/4/28 39/4/25 125/4/93 126/4/96
f 39/4/25 41/5/27 127/5/94 125/4/93
f 51/5/49 52/5/26 138/5/95 137/5/118
f 61/4/56 65/7/55 151/7/123 147/4/124
f 62/4/28 61/4/56 147/4/124 148/4/96
f 80/5/37 84/9/41 170/9/109 166/5/105
f 43/4/32 47/7/30 133/7/99 129/4/100
f 44/4/47 43/4/32 129/4/100 130/4/115
f 52/5/26 54/6/34 140/6/101 138/5/95
f 63/5/26 62/4/28 148/4/96 149/5/95
f 69/11/61 70/11/57 156/11/125 155/11/129
f 73/4/35 74/4/36 160/4/104 159/4/103
f 76/5/63 73/4/35 159/4/103 162/5/131
f 82/5/39 81/8/38 167/8/107 168/5/106
f 85/10/42 86/8/40 172/8/108 171/10/110
f 1/2/2 2/2/4 88/2/71 87/2/70
f 5/2/9 1/2/2 87/2/70 91/2/76
f 17/2/2 18/2/4 104/2/71 103/2/70
f 21/2/9 17/2/2 103/2/70 107/2/76
f 42/5/26 40/4/28 126/4/96 128/5/95
f 45/5/46 44/4/47 130/4/115 131/5/114
f 54/6/34 53/7/33 139/7/102 140/6/101
f 64/5/49 63/5/26 149/5/95 150/5/118
f 70/11/57 71/12/59 157/12/126 156/11/125
f 74/4/36 75/5/31 161/5/98 160/4/104
f 86/8/40 82/5/39 168/5/106 172/8/108
f 7/2/5 5/2/9 91/2/76 93/2/72
f 2/2/4 6/2/15 92/2/82 88/2/71
f 23/2/5 21/2/9 107/2/76 109/2/72
f 18/2/4 22/2/19 108/2/87 104/2/71
f 41/5/27 42/5/26 128/5/95 127/5/94
f 46/5/31 45/5/46 131/5/114 132/5/98
f 55/4/51 56/4/36 142/4/104 141/4/119
f 59/7/52 55/4/51 141/4/119 145/7/120
f 66/6/54 64/5/49 150/5/118 152/6/122
f 33/2/22 34/2/21 120/2/90 119/2/89
f 38/3/24 33/2/22 119/2/89 124/3/92
f 48/6/29 46/5/31 132/5/98 134/6/97
f 56/4/36 57/5/31 143/5/98 142/4/104
f 65/7/55 66/6/54 152/6/122 151/7/123
f 68/5/60 67/12/62 153/12/130 154/5/128
f 71/12/59 72/5/58 158/5/127 157/12/126
f 67/12/62 69/11/61 155/11/129 153/12/130
f 77/9/66 78/9/65 164/9/134 163/9/133
f 79/10/64 77/9/66 163/9/133 165/10/132
f 84/9/41 83/9/67 169/9/135 170/9/109
f 83/9/67 85/10/42 171/10/110 169/9/135
f 4/2/10 3/2/13 89/2/80 90/2/77
f 3/2/13 8/2/43 94/2/111 89/2/80
f 20/2/10 19/2/17 105/2/85 106/2/77
f 19/2/17 24/2/18 110/2/86 105/2/85
f 34/2/21 36/2/23 122/2/91 120/2/90
f 47/7/30 48/6/29 134/6/97 133/7/99
f 57/5/31 58/5/46 144/5/114 143/5/98
f 75/5/31 76/5/63 162/5/131 161/5/98
f 78/9/65 80/5/37 166/5/105 164/9/134
f 49/4/48 50/4/50 136/4/117 135/4/116
f 53/7/33 49/4/48 135/4/116 139/7/102
f 58/5/46 60/6/53 146/6/121 144/5/114
f 72/5/58 68/5/60 154/5/128 158/5/127
f 6/2/15 4/2/10 90/2/77 92/2/82
f 8/2/43 7/2/5 93/2/72 94/2/111
f 22/2/19 20/2/10 106/2/77 108/2/87
f 24/2/18 23/2/5 109/2/72 110/2/86
f 36/2/23 37/3/45 123/3/113 122/2/91
f 50/4/50 51/5/49 137/5/118 136/4/117
f 60/6/53 59/7/52 145/7/120 146/6/121
f 81/8/38 79/10/64 165/10/132 167/8/107
