# Blender 4.5.3 LTS
# www.blender.org
mtllib building-type-h_roof.mtl
o building-type-h.001
v -0.600000 0.394000 -0.458000
v -0.200000 0.394000 -0.458000
v -0.200000 0.737500 -0.000000
v -0.650000 0.737500 -0.000000
v -0.635355 0.402787 -0.446284
v -0.650000 0.424000 -0.418000
v -0.200000 0.394000 0.458000
v 0.200000 0.394000 0.458000
v -0.200000 0.737500 -0.000000
v 0.200000 0.737500 -0.000000
v -0.600000 0.394000 0.458000
v -0.200000 0.394000 0.458000
v -0.635355 0.402787 0.446284
v -0.650000 0.424000 0.418000
v 0.600000 0.394000 -0.458000
v 0.200000 0.394000 -0.458000
v 0.200000 0.737500 -0.000000
v 0.650000 0.737500 -0.000000
v 0.635355 0.402787 -0.446284
v 0.650000 0.424000 -0.418000
v 0.600000 0.394000 0.458000
v 0.200000 0.394000 0.458000
v 0.635355 0.402787 0.446284
v 0.650000 0.424000 0.418000
v 0.200000 0.394000 -0.458000
v -0.200000 0.394000 -0.458000
v -0.600000 0.389200 -0.454400
v -0.200000 0.389200 -0.454400
v -0.200000 0.730000 -0.000000
v -0.650000 0.730000 -0.000000
v -0.635355 0.397987 -0.442684
v -0.650000 0.419200 -0.414400
v -0.200000 0.389200 0.454400
v 0.200000 0.389200 0.454400
v -0.200000 0.730000 0.000000
v 0.200000 0.730000 -0.000000
v -0.600000 0.389200 0.454400
v -0.200000 0.389200 0.454400
v -0.635355 0.397987 0.442684
v -0.650000 0.419200 0.414400
v 0.600000 0.389200 -0.454400
v 0.200000 0.389200 -0.454400
v 0.200000 0.730000 -0.000000
v 0.650000 0.730000 -0.000000
v 0.635355 0.397987 -0.442684
v 0.650000 0.419200 -0.414400
v 0.600000 0.389200 0.454400
v 0.200000 0.389200 0.454400
v 0.635355 0.397987 0.442684
v 0.650000 0.419200 0.414400
v 0.200000 0.389200 -0.454400
v -0.200000 0.389200 -0.454400
vn -0.5938 0.8046 -0.0000
vn -0.2857 0.1289 -0.9496
vn -0.6264 0.3754 -0.6832
vn -0.7393 0.5578 -0.3771
vn 0.5938 0.8046 -0.0000
vn -0.5773 0.1155 0.8083
vn 0.5773 0.1155 0.8083
vn -0.5774 0.1155 -0.8083
vn -0.0028 0.0945 -0.9955
vn 0.2857 0.1289 0.9496
vn 0.6264 0.3754 0.6832
vn 0.7393 0.5578 0.3771
vn 0.5773 0.1155 -0.8083
vn 0.5774 0.1155 -0.8083
vn -0.6704 0.3500 0.6543
vn -0.6264 0.3754 0.6832
vn -0.1846 0.2338 0.9546
vn 0.6704 0.3500 -0.6543
vn 0.6264 0.3754 -0.6832
vn -0.5774 0.1155 0.8083
vn -0.8697 -0.4936 -0.0000
vn -0.3311 -0.9325 -0.1444
vn -0.1848 -0.9818 -0.0429
vn -0.6704 -0.7261 0.1528
vn 0.8697 -0.4936 -0.0000
vn 0.5774 -0.8083 0.1155
vn -0.5773 -0.8083 0.1155
vn -0.5774 -0.8083 -0.1155
vn 0.0473 -0.9959 -0.0771
vn 0.3311 -0.9325 0.1444
vn 0.1848 -0.9818 0.0429
vn 0.6704 -0.7261 -0.1528
vn 0.5773 -0.8083 -0.1155
vn 0.5774 -0.8083 -0.1155
vn -0.7393 -0.5182 -0.4299
vn -0.6750 -0.7261 -0.1307
vn -0.2857 -0.9477 0.1422
vn 0.7393 -0.5182 0.4299
vn 0.6750 -0.7261 0.1307
vn -0.5774 -0.8083 0.1155
vt 0.093750 0.725000
vt 0.093750 0.650225
vt 0.093750 0.652137
vt 0.093750 0.656755
s 1
usemtl Material.008
f 4/1/1 1/2/2 5/3/3
f 4/1/1 5/3/3 6/4/4
f 10/1/5 7/2/6 8/2/7
f 16/2/8 17/1/1 15/2/9
f 18/1/5 21/2/10 23/3/11
f 18/1/5 23/3/11 24/4/12
f 9/1/1 25/2/13 26/2/8
f 1/2/2 3/1/5 2/2/14
f 3/1/5 1/2/2 4/1/1
f 7/2/6 10/1/5 9/1/1
f 14/4/15 13/3/16 4/1/1
f 13/3/16 11/2/17 4/1/1
f 4/1/1 11/2/17 3/1/5
f 12/2/7 3/1/5 11/2/17
f 20/4/18 19/3/19 18/1/5
f 19/3/19 15/2/9 18/1/5
f 18/1/5 15/2/9 17/1/1
f 21/2/10 17/1/1 22/2/20
f 17/1/1 21/2/10 18/1/5
f 25/2/13 9/1/1 10/1/5
f 30/1/21 31/3/22 27/2/23
f 30/1/21 32/4/24 31/3/22
f 36/1/25 34/2/26 33/2/27
f 42/2/28 41/2/29 43/1/21
f 44/1/25 49/3/30 47/2/31
f 44/1/25 50/4/32 49/3/30
f 35/1/21 52/2/28 51/2/33
f 27/2/23 28/2/34 29/1/25
f 29/1/25 30/1/21 27/2/23
f 33/2/27 35/1/21 36/1/25
f 40/4/35 30/1/21 39/3/36
f 39/3/36 30/1/21 37/2/37
f 30/1/21 29/1/25 37/2/37
f 38/2/26 37/2/37 29/1/25
f 46/4/38 44/1/25 45/3/39
f 45/3/39 44/1/25 41/2/29
f 44/1/25 43/1/21 41/2/29
f 47/2/31 48/2/40 43/1/21
f 43/1/21 44/1/25 47/2/31
f 51/2/33 36/1/25 35/1/21
f 3/1/5 12/2/7 38/2/26 29/1/25
f 24/4/12 23/3/11 49/3/30 50/4/32
f 4/1/1 6/4/4 32/4/24 30/1/21
f 8/2/7 7/2/6 33/2/27 34/2/26
f 7/2/6 9/1/1 35/1/21 33/2/27
f 14/4/15 4/1/1 30/1/21 40/4/35
f 6/4/4 5/3/3 31/3/22 32/4/24
f 11/2/17 13/3/16 39/3/36 37/2/37
f 12/2/7 11/2/17 37/2/37 38/2/26
f 15/2/9 19/3/19 45/3/39 41/2/29
f 16/2/8 15/2/9 41/2/29 42/2/28
f 10/1/5 8/2/7 34/2/26 36/1/25
f 17/1/1 16/2/8 42/2/28 43/1/21
f 13/3/16 14/4/15 40/4/35 39/3/36
f 22/2/20 17/1/1 43/1/21 48/2/40
f 9/1/1 26/2/8 52/2/28 35/1/21
f 20/4/18 18/1/5 44/1/25 46/4/38
f 18/1/5 24/4/12 50/4/32 44/1/25
f 26/2/8 25/2/13 51/2/33 52/2/28
f 25/2/13 10/1/5 36/1/25 51/2/33
f 1/2/2 2/2/14 28/2/34 27/2/23
f 5/3/3 1/2/2 27/2/23 31/3/22
f 19/3/19 20/4/18 46/4/38 45/3/39
f 21/2/10 22/2/20 48/2/40 47/2/31
f 23/3/11 21/2/10 47/2/31 49/3/30
f 2/2/14 3/1/5 29/1/25 28/2/34
