# Blender 4.5.3 LTS
# www.blender.org
mtllib building-type-u_roof.mtl
o building-type-u.001
v -0.144000 0.400000 -0.306533
v -0.535716 0.400000 -0.306533
v -0.544000 0.400000 -0.298248
v -0.544000 0.400000 0.093467
v -0.564000 0.450000 0.093467
v -0.564000 0.450000 -0.306533
v -0.544000 0.450000 0.093467
v -0.544000 0.450000 -0.326533
v -0.544000 0.450000 -0.298248
v -0.535716 0.450000 -0.306533
v -0.144000 0.450000 -0.326533
v -0.144000 0.450000 -0.306533
v -0.144000 0.400000 0.093467
v -0.544000 0.400000 0.093467
v -0.544000 0.400000 0.485183
v -0.535716 0.400000 0.493467
v -0.144000 0.400000 0.493467
v -0.144000 0.450000 0.513467
v -0.544000 0.450000 0.513467
v -0.144000 0.450000 0.493467
v -0.564000 0.450000 0.493467
v -0.535716 0.450000 0.493467
v -0.544000 0.450000 0.485183
v -0.564000 0.450000 0.093467
v -0.544000 0.450000 0.093467
v -0.144000 0.400000 0.093467
v 0.607400 0.973513 0.370811
v 0.594439 0.973513 0.402100
v 0.518900 0.973513 0.370811
v 0.531860 0.973513 0.402100
v 0.594439 0.973513 0.339521
v 0.563150 0.973513 0.415061
v 0.563150 0.973513 0.326561
v 0.531860 0.973513 0.339521
v 0.592650 1.003013 0.370811
v 0.584009 1.003013 0.391670
v 0.542290 1.003013 0.349951
v 0.563150 1.003013 0.341311
v 0.584009 1.003013 0.349951
v 0.563150 1.003013 0.400311
v 0.542290 1.003013 0.391670
v 0.533650 1.003013 0.370811
v 0.607400 0.973513 0.270811
v 0.594439 0.973513 0.302100
v 0.518900 0.973513 0.270811
v 0.531860 0.973513 0.302100
v 0.594439 0.973513 0.239521
v 0.563150 0.973513 0.315061
v 0.563150 0.973513 0.226561
v 0.531860 0.973513 0.239521
v 0.592650 1.003013 0.270811
v 0.584009 1.003013 0.291670
v 0.542290 1.003013 0.249951
v 0.563150 1.003013 0.241311
v 0.584009 1.003013 0.249951
v 0.563150 1.003013 0.300311
v 0.542290 1.003013 0.291670
v 0.533650 1.003013 0.270811
v 0.676000 0.450000 -0.306533
v 0.676000 0.450000 0.093467
v 0.256000 0.450000 -0.306533
v 0.656000 0.450000 -0.306533
v 0.656000 0.450000 0.093467
v -0.144000 0.450000 0.513467
v 0.256000 0.450000 0.513467
v -0.144000 0.450000 0.193467
v -0.144000 0.450000 0.093467
v -0.164000 0.450000 0.193467
v -0.164000 0.450000 0.093467
v -0.164000 0.450000 0.393467
v -0.164000 0.450000 0.493467
v 0.256000 0.450000 0.493467
v -0.144000 0.450000 0.493467
v -0.144000 0.450000 0.393467
v -0.144000 0.450000 -0.326533
v -0.164000 0.450000 -0.306533
v -0.164000 0.450000 0.093467
v -0.144000 0.450000 -0.306533
v -0.144000 0.450000 0.093467
v 0.656000 0.450000 0.513467
v 0.256000 0.450000 0.513467
v 0.676000 0.450000 0.493467
v 0.676000 0.450000 0.093467
v 0.256000 0.450000 0.493467
v 0.656000 0.450000 0.493467
v 0.656000 0.450000 0.093467
v 0.714000 0.794000 0.493467
v 0.714000 0.794000 0.093467
v 0.256000 1.137500 0.093467
v 0.256000 1.137500 0.543467
v 0.702284 0.802787 0.528823
v 0.674000 0.824000 0.543467
v 0.714000 0.794000 -0.306533
v 0.714000 0.794000 0.093467
v 0.256000 1.137500 0.093467
v 0.256000 1.137500 -0.356533
v 0.702284 0.802787 -0.341888
v 0.674000 0.824000 -0.356533
v -0.202000 0.794000 0.493467
v -0.202000 0.794000 0.093467
v 0.256000 1.137500 0.093467
v 0.256000 1.137500 0.543467
v -0.190284 0.802787 0.528823
v -0.162000 0.824000 0.543467
v -0.202000 0.794000 -0.306533
v -0.202000 0.794000 0.093467
v 0.256000 1.137500 0.093467
v 0.256000 1.137500 -0.356533
v -0.190284 0.802787 -0.341888
v -0.162000 0.824000 -0.356533
v 0.686000 0.434258 -0.495292
v 0.686000 0.486935 -0.305656
v 0.226000 0.486935 -0.305656
v 0.226000 0.434258 -0.495292
v 0.636000 0.420876 -0.543468
v 0.276000 0.420876 -0.543468
v 0.240645 0.424796 -0.529357
v 0.671355 0.424796 -0.529357
v -0.144000 0.393700 -0.306533
v -0.535716 0.393700 -0.306533
v -0.544000 0.393700 -0.298248
v -0.544000 0.393700 0.093467
v -0.564000 0.443700 0.093467
v -0.564000 0.443700 -0.306533
v -0.544000 0.443700 0.093467
v -0.544000 0.443700 -0.326533
v -0.544000 0.443700 -0.298248
v -0.535716 0.443700 -0.306533
v -0.144000 0.443700 -0.326533
v -0.144000 0.443700 -0.306533
v -0.144000 0.393700 0.093467
v -0.544000 0.393700 0.093467
v -0.544000 0.393700 0.485183
v -0.535716 0.393700 0.493467
v -0.144000 0.393700 0.493467
v -0.144000 0.443700 0.513467
v -0.544000 0.443700 0.513467
v -0.144000 0.443700 0.493467
v -0.564000 0.443700 0.493467
v -0.535716 0.443700 0.493467
v -0.544000 0.443700 0.485183
v -0.564000 0.443700 0.093467
v -0.544000 0.443700 0.093467
v -0.144000 0.393700 0.093467
v 0.601390 0.970508 0.370811
v 0.590190 0.970508 0.397851
v 0.524909 0.970508 0.370811
v 0.536109 0.970508 0.397851
v 0.590190 0.970508 0.343771
v 0.563150 0.970508 0.409052
v 0.563150 0.970508 0.332570
v 0.536109 0.970508 0.343770
v 0.588044 0.996998 0.370811
v 0.580709 0.996919 0.388370
v 0.545590 0.996919 0.353251
v 0.563149 0.996880 0.346007
v 0.580717 0.996933 0.353243
v 0.563150 0.996880 0.395615
v 0.545582 0.996933 0.388378
v 0.538255 0.996998 0.370811
v 0.601390 0.970508 0.270811
v 0.590190 0.970508 0.297851
v 0.524909 0.970508 0.270811
v 0.536109 0.970508 0.297851
v 0.590190 0.970508 0.243770
v 0.563150 0.970508 0.309052
v 0.563150 0.970508 0.232570
v 0.536109 0.970508 0.243770
v 0.588044 0.996998 0.270811
v 0.580709 0.996919 0.288370
v 0.545590 0.996919 0.253251
v 0.563149 0.996880 0.246007
v 0.580717 0.996933 0.253243
v 0.563150 0.996880 0.295615
v 0.545582 0.996933 0.288378
v 0.538255 0.996998 0.270811
v 0.676000 0.443700 -0.306533
v 0.676000 0.443700 0.093467
v 0.256000 0.443700 -0.306533
v 0.656000 0.443700 -0.306533
v 0.656000 0.443700 0.093467
v -0.144000 0.443700 0.513467
v 0.256000 0.443700 0.513467
v -0.144000 0.443700 0.193467
v -0.144000 0.443700 0.093467
v -0.164000 0.443700 0.193467
v -0.164000 0.443700 0.093467
v -0.164000 0.443700 0.393467
v -0.164000 0.443700 0.493467
v 0.256000 0.443700 0.493467
v -0.144000 0.443700 0.493467
v -0.144000 0.443700 0.393467
v -0.144000 0.443700 -0.326533
v -0.164000 0.443700 -0.306533
v -0.164000 0.443700 0.093467
v -0.144000 0.443700 -0.306533
v -0.144000 0.443700 0.093467
v 0.656000 0.443700 0.513467
v 0.256000 0.443700 0.513467
v 0.676000 0.443700 0.493467
v 0.676000 0.443700 0.093467
v 0.256000 0.443700 0.493467
v 0.656000 0.443700 0.493467
v 0.656000 0.443700 0.093467
v 0.710220 0.788960 0.493467
v 0.710220 0.788960 0.093467
v 0.252220 1.132460 0.093467
v 0.252220 1.132460 0.543467
v 0.698504 0.797747 0.528823
v 0.670220 0.818960 0.543468
v 0.710220 0.788960 -0.306533
v 0.710220 0.788960 0.093467
v 0.252220 1.132460 0.093467
v 0.252220 1.132460 -0.356533
v 0.698504 0.797747 -0.341888
v 0.670220 0.818960 -0.356533
v -0.198220 0.788960 0.493467
v -0.198220 0.788960 0.093467
v 0.259780 1.132460 0.093467
v 0.259780 1.132460 0.543467
v -0.186504 0.797747 0.528823
v -0.158220 0.818960 0.543467
v -0.198220 0.788960 -0.306533
v -0.198220 0.788960 0.093467
v 0.259780 1.132460 0.093467
v 0.259780 1.132460 -0.356533
v -0.186504 0.797747 -0.341888
v -0.158220 0.818960 -0.356533
v 0.686000 0.428188 -0.493605
v 0.686000 0.480865 -0.303970
v 0.226000 0.480865 -0.303970
v 0.226000 0.428188 -0.493605
v 0.636000 0.414806 -0.541781
v 0.276000 0.414806 -0.541781
v 0.240645 0.418725 -0.527671
v 0.671355 0.418725 -0.527671
vn -0.6679 0.3285 -0.6679
vn -0.3204 0.5469 0.7734
vn 0.2275 0.8042 0.5491
vn 0.5773 0.5774 -0.5773
vn 0.5774 0.5774 0.5774
vn 0.5773 0.5774 0.5773
vn -0.7173 0.6303 -0.2971
vn -0.5774 0.5774 0.5774
vn -0.2971 0.6303 -0.7173
vn 0.8330 0.3134 -0.4560
vn 0.0277 0.6598 0.7509
vn -0.7873 0.5233 -0.3261
vn -0.7173 0.6303 0.2971
vn -0.5774 0.5774 -0.5774
vn -0.3372 0.6856 -0.6452
vn -0.7157 -0.2683 -0.6448
vn -0.6167 0.4892 -0.6167
vn -0.0000 0.6356 -0.7720
vn 0.6495 0.6826 -0.3349
vn 0.6374 -0.2671 -0.7227
vn 0.6113 0.5026 -0.6113
vn -0.1927 0.7009 0.6868
vn 0.0502 -0.2683 0.9620
vn -0.0000 0.5026 0.8645
vn -0.5618 0.6073 0.5618
vn -0.8045 0.3190 -0.5010
vn -0.5146 0.8154 -0.2651
vn 0.5427 0.8161 0.1986
vn 0.5146 0.8154 -0.2651
vn 0.6167 0.4892 0.6167
vn 0.8045 0.3190 0.5010
vn 0.5593 0.6118 0.5593
vn 0.9622 -0.2702 -0.0349
vn 0.8054 0.5928 -0.0000
vn 0.2152 0.8164 -0.5360
vn -0.8045 0.3190 0.5010
vn -0.8054 0.5928 -0.0000
vn -0.5774 0.5773 0.5774
vn 0.5774 0.5773 -0.5774
vn 0.5774 0.5774 0.5773
vn 0.8433 0.5370 0.0211
vn -0.3557 0.7947 -0.4918
vn 0.3015 0.9045 0.3015
vn -0.5167 0.7744 -0.3651
vn -0.5773 0.5774 -0.5773
vn 0.3729 0.7911 0.4849
vn -0.3015 0.9045 -0.3015
vn 0.5167 0.7744 0.3651
vn 0.5774 0.5774 -0.5774
vn 0.9356 0.1224 0.3311
vn 0.9546 0.2338 0.1846
vn -0.1155 0.8083 0.5773
vn -0.1155 0.8083 -0.5773
vn 0.8083 0.1155 -0.5773
vn 0.9775 0.2053 -0.0478
vn 0.8083 0.1155 0.5774
vn 0.6832 0.3754 -0.6264
vn 0.3771 0.5578 -0.7393
vn -0.9775 0.2053 0.0478
vn 0.1155 0.8083 -0.5773
vn -0.8083 0.1155 -0.5774
vn 0.1155 0.8083 0.5773
vn -0.6832 0.3754 0.6264
vn -0.3771 0.5578 0.7393
vn -0.6543 0.3500 -0.6704
vn -0.6832 0.3754 -0.6264
vn -0.9546 0.2338 -0.1846
vn -0.8083 0.1155 0.5774
vn 0.5773 0.7108 0.4018
vn 0.3878 0.5945 -0.7044
vn -0.5774 0.7108 0.4018
vn -0.0170 0.4503 -0.8927
vn -0.2059 0.5586 -0.8035
vn -0.6321 0.5927 -0.4992
vn -0.7393 0.6568 -0.1482
vn -0.7509 0.6598 0.0277
vn 0.3673 0.2808 -0.8867
vn -0.5880 0.5554 0.5880
vn 0.9502 -0.0714 0.3034
vn 0.5491 0.8042 -0.2275
vn -0.2971 0.6303 0.7173
vn 0.6577 0.6747 -0.3348
vn -0.5773 0.5774 0.5773
vn -0.5774 0.5773 -0.5774
vn 0.5116 0.2801 0.8123
vn -0.5895 0.5524 0.5894
vn -0.7895 0.5194 -0.3270
vn -0.0054 0.6677 0.7444
vn 0.9236 0.0405 -0.3813
vn 0.6543 0.3500 0.6704
vn 0.6704 0.5641 -0.4820
vn -0.6679 -0.3285 -0.6679
vn 0.2275 -0.8042 0.5491
vn -0.3204 -0.5469 0.7734
vn 0.5773 -0.5774 -0.5773
vn 0.5774 -0.5774 0.5774
vn 0.5773 -0.5774 0.5773
vn -0.5774 -0.5774 0.5774
vn -0.7173 -0.6303 -0.2971
vn -0.2971 -0.6303 -0.7173
vn 0.5774 -0.5773 -0.5774
vn 0.4428 -0.3233 -0.8363
vn 0.0276 -0.6683 0.7434
vn -0.7873 -0.5233 -0.3261
vn -0.7173 -0.6303 0.2971
vn -0.5774 -0.5774 -0.5774
vn 0.3396 -0.8761 0.3422
vn 0.6746 -0.7165 -0.1777
vn -0.3926 -0.6613 0.6392
vn -0.1201 -0.7658 0.6317
vn -0.3303 -0.8829 0.3337
vn 0.1857 -0.7013 0.6883
vn -0.6472 -0.6497 -0.3988
vn 0.0002 -0.8662 -0.4997
vn -0.6176 -0.7017 -0.3552
vn 0.7294 -0.6611 -0.1757
vn 0.5565 -0.7559 -0.3448
vn 0.3585 -0.6909 -0.6278
vn 0.4423 -0.8969 0.0004
vn -0.6398 -0.7475 0.1786
vn -0.3922 -0.7326 -0.5564
vn -0.6746 -0.7165 0.1777
vn -0.3585 -0.6909 0.6278
vn -0.5314 -0.6597 -0.5314
vn -0.2902 -0.8361 -0.4656
vn -0.6398 -0.7473 -0.1795
vn 0.1054 -0.8317 0.5451
vn 0.7754 -0.6315 0.0001
vn 0.6398 -0.7473 0.1795
vn -0.5774 -0.5773 0.5774
vn 0.8433 -0.5370 0.0211
vn 0.3015 -0.9045 0.3015
vn 0.0163 -0.6599 -0.7511
vn -0.5623 -0.6594 -0.4990
vn -0.5773 -0.5774 -0.5773
vn -0.3015 -0.9045 -0.3015
vn 0.0082 -0.6676 0.7445
vn 0.5623 -0.6594 0.4990
vn 0.5774 -0.5774 -0.5774
vn -0.1690 -0.7609 0.6264
vn -0.8083 -0.1155 0.5773
vn 0.1422 -0.9477 0.2857
vn -0.8083 -0.1155 -0.5773
vn 0.1155 -0.8083 -0.5774
vn 0.1881 -0.9822 0.0028
vn 0.1155 -0.8083 0.5773
vn 0.1444 -0.9325 -0.3311
vn -0.1528 -0.7261 -0.6704
vn -0.1881 -0.9822 -0.0028
vn -0.1155 -0.8083 -0.5773
vn 0.8083 -0.1155 -0.5773
vn 0.8083 -0.1155 0.5773
vn -0.1444 -0.9325 0.3311
vn 0.1528 -0.7261 0.6704
vn 0.4299 -0.5182 -0.7393
vn 0.1307 -0.7261 -0.6750
vn -0.1422 -0.9477 -0.2857
vn -0.1155 -0.8083 0.5773
vn 0.5773 -0.4018 0.7108
vn -0.5774 -0.4018 0.7108
vn 0.6207 -0.7668 -0.1635
vn 0.0051 -0.8463 -0.5327
vn -0.0035 -0.8792 -0.4764
vn -0.3318 -0.8158 -0.4736
vn -0.6704 -0.7319 -0.1220
vn -0.7434 -0.6683 0.0276
vn 0.3673 -0.2808 -0.8867
vn -0.5880 -0.5554 0.5880
vn 0.5491 -0.8042 -0.2275
vn 0.8864 0.0714 0.4574
vn -0.2971 -0.6303 0.7173
vn -0.5773 -0.5774 0.5773
vn 0.6663 -0.6664 -0.3346
vn 0.3175 -0.4539 0.8326
vn -0.5774 -0.5773 -0.5774
vn -0.5895 -0.5524 0.5895
vn -0.7895 -0.5194 -0.3270
vn 0.9318 -0.3588 -0.0547
vn -0.5275 -0.6601 0.5349
vn -0.4299 -0.5182 0.7393
vn 0.7393 -0.6392 0.2118
vt 0.093750 0.475000
vt 0.093750 0.275000
vt 0.093750 0.425000
vt 0.093750 0.300000
vt 0.093750 0.652137
vt 0.093750 0.650225
vt 0.093750 0.725000
vt 0.093750 0.656755
vt 0.093750 0.672653
vt 0.093750 0.669351
vt 0.093750 0.680624
s 1
usemtl Material.023
f 8/1/1 9/1/2 10/1/3
f 11/1/4 10/1/3 12/1/5
f 13/2/6 3/2/7 4/2/8
f 3/2/7 13/2/6 2/2/9
f 2/2/9 13/2/6 1/2/4
f 20/1/10 19/1/11 18/1/5
f 19/1/11 20/1/10 21/1/12
f 15/2/13 26/2/4 14/2/14
f 37/1/15 33/3/16 34/3/17
f 33/3/16 37/1/15 38/1/18
f 39/1/19 27/3/20 31/3/21
f 38/1/18 31/3/21 33/3/16
f 31/3/21 38/1/18 39/1/19
f 40/1/22 30/3/23 32/3/24
f 30/3/23 40/1/22 41/1/25
f 29/3/26 37/1/15 34/3/17
f 37/1/15 29/3/26 42/1/27
f 39/1/19 36/1/28 35/1/29
f 36/1/28 39/1/19 38/1/18
f 36/1/28 38/1/18 40/1/22
f 40/1/22 37/1/15 41/1/25
f 41/1/25 37/1/15 42/1/27
f 29/3/26 41/1/25 42/1/27
f 41/1/25 29/3/26 30/3/23
f 36/1/28 32/3/24 28/3/30
f 32/3/24 36/1/28 40/1/22
f 43/3/31 52/1/32 44/3/33
f 53/1/15 49/3/16 50/3/17
f 55/1/19 43/3/31 47/3/21
f 43/3/31 55/1/19 51/1/34
f 47/3/21 54/1/35 55/1/19
f 56/1/22 46/3/23 48/3/24
f 46/3/23 56/1/22 57/1/25
f 55/1/19 52/1/32 51/1/34
f 45/3/36 57/1/25 58/1/37
f 57/1/25 45/3/36 46/3/23
f 48/3/24 52/1/32 56/1/22
f 69/4/14 68/4/38 67/4/39
f 66/4/40 67/4/39 68/4/38
f 61/4/41 75/4/42 78/4/43
f 78/4/43 75/4/42 76/4/44
f 79/4/6 76/4/44 77/4/8
f 84/4/45 80/4/46 85/4/47
f 85/4/47 80/4/46 82/4/48
f 85/4/47 82/4/48 86/4/45
f 86/4/45 82/4/48 83/4/49
f 91/5/50 87/6/51 90/7/52
f 90/7/52 87/6/51 89/7/53
f 88/6/54 89/7/53 87/6/51
f 93/6/55 95/7/52 94/6/56
f 96/7/53 93/6/55 97/5/57
f 96/7/53 97/5/57 98/8/58
f 99/6/59 101/7/60 100/6/61
f 101/7/60 99/6/59 102/7/62
f 102/7/62 99/6/59 103/5/63
f 102/7/62 103/5/63 104/8/64
f 110/8/65 109/5/66 108/7/60
f 109/5/66 105/6/67 108/7/60
f 108/7/60 105/6/67 107/7/62
f 106/6/68 107/7/62 105/6/67
f 112/7/69 118/9/70 113/7/71
f 113/7/71 115/10/72 116/10/73
f 113/7/71 116/10/73 117/9/74
f 113/7/71 117/9/74 114/11/75
f 7/1/6 6/1/76 5/1/8
f 6/1/76 7/1/6 8/1/77
f 8/1/1 10/1/3 11/1/4
f 21/1/78 22/1/79 23/1/80
f 21/1/78 23/1/80 24/1/45
f 24/1/45 23/1/80 25/1/39
f 26/2/4 16/2/81 17/2/5
f 16/2/81 26/2/4 15/2/13
f 36/1/28 27/3/20 35/1/29
f 27/3/20 36/1/28 28/3/30
f 27/3/20 39/1/19 35/1/29
f 40/1/22 38/1/18 37/1/15
f 52/1/32 43/3/31 51/1/34
f 49/3/16 53/1/15 54/1/35
f 54/1/35 47/3/21 49/3/16
f 45/3/36 53/1/15 50/3/17
f 53/1/15 45/3/36 58/1/37
f 52/1/32 55/1/19 54/1/35
f 52/1/32 54/1/35 56/1/22
f 56/1/22 54/1/35 53/1/15
f 56/1/22 53/1/15 57/1/25
f 57/1/25 53/1/15 58/1/37
f 52/1/32 48/3/24 44/3/33
f 60/4/5 59/4/82 63/4/83
f 63/4/83 59/4/82 62/4/14
f 74/4/49 70/4/84 73/4/85
f 70/4/84 71/4/86 73/4/85
f 71/4/87 64/4/88 72/4/89
f 65/4/5 72/4/89 64/4/88
f 78/4/43 76/4/44 79/4/6
f 80/4/46 84/4/45 81/4/8
f 92/8/90 91/5/50 90/7/52
f 95/7/52 93/6/55 96/7/53
f 118/9/70 112/7/69 111/11/91
f 113/7/71 118/9/70 115/10/72
f 126/1/92 128/1/93 127/1/94
f 129/1/95 130/1/96 128/1/93
f 131/2/97 122/2/98 121/2/99
f 121/2/99 120/2/100 131/2/97
f 120/2/100 119/2/101 131/2/97
f 138/1/102 136/1/96 137/1/103
f 137/1/103 139/1/104 138/1/102
f 133/2/105 132/2/106 144/2/95
f 155/1/107 152/3/108 151/3/109
f 151/3/109 156/1/110 155/1/107
f 157/1/111 149/3/112 145/3/113
f 156/1/110 151/3/109 149/3/112
f 149/3/112 157/1/111 156/1/110
f 158/1/114 150/3/115 148/3/116
f 148/3/116 159/1/117 158/1/114
f 147/3/118 152/3/108 155/1/107
f 155/1/107 160/1/119 147/3/118
f 157/1/111 153/1/120 154/1/121
f 154/1/121 156/1/110 157/1/111
f 154/1/121 158/1/114 156/1/110
f 158/1/114 159/1/117 155/1/107
f 159/1/117 160/1/119 155/1/107
f 147/3/118 160/1/119 159/1/117
f 159/1/117 148/3/116 147/3/118
f 154/1/121 146/3/122 150/3/115
f 150/3/115 158/1/114 154/1/121
f 161/3/123 162/3/124 170/1/125
f 171/1/107 168/3/108 167/3/109
f 173/1/111 165/3/112 161/3/123
f 161/3/123 169/1/126 173/1/111
f 165/3/112 173/1/111 172/1/127
f 174/1/114 166/3/115 164/3/116
f 164/3/116 175/1/117 174/1/114
f 173/1/111 169/1/126 170/1/125
f 163/3/128 176/1/129 175/1/117
f 175/1/117 164/3/116 163/3/128
f 166/3/115 174/1/114 170/1/125
f 187/4/106 185/4/101 186/4/130
f 184/4/96 186/4/130 185/4/101
f 179/4/131 196/4/132 193/4/133
f 196/4/132 194/4/134 193/4/133
f 197/4/97 195/4/98 194/4/134
f 202/4/135 203/4/136 198/4/137
f 203/4/136 200/4/138 198/4/137
f 203/4/136 204/4/135 200/4/138
f 204/4/135 201/4/139 200/4/138
f 209/5/140 208/7/141 205/6/142
f 208/7/141 207/7/143 205/6/142
f 206/6/144 205/6/142 207/7/143
f 211/6/145 212/6/146 213/7/141
f 214/7/143 215/5/147 211/6/145
f 214/7/143 216/8/148 215/5/147
f 217/6/149 218/6/150 219/7/151
f 219/7/151 220/7/152 217/6/149
f 220/7/152 221/5/153 217/6/149
f 220/7/152 222/8/154 221/5/153
f 228/8/155 226/7/151 227/5/156
f 227/5/156 226/7/151 223/6/157
f 226/7/151 225/7/152 223/6/157
f 224/6/158 223/6/157 225/7/152
f 230/7/159 231/7/160 236/9/161
f 231/7/160 234/10/162 233/10/163
f 231/7/160 235/9/164 234/10/162
f 231/7/160 232/11/165 235/9/164
f 125/1/97 123/1/98 124/1/166
f 124/1/166 126/1/167 125/1/97
f 126/1/92 129/1/95 128/1/93
f 139/1/168 141/1/169 140/1/170
f 139/1/168 142/1/135 141/1/169
f 142/1/135 143/1/95 141/1/169
f 144/2/95 135/2/96 134/2/171
f 134/2/171 133/2/105 144/2/95
f 154/1/121 153/1/120 145/3/113
f 145/3/113 146/3/122 154/1/121
f 145/3/113 153/1/120 157/1/111
f 158/1/114 155/1/107 156/1/110
f 170/1/125 169/1/126 161/3/123
f 167/3/109 172/1/127 171/1/107
f 172/1/127 167/3/109 165/3/112
f 163/3/128 168/3/108 171/1/107
f 171/1/107 176/1/129 163/3/128
f 170/1/125 172/1/127 173/1/111
f 170/1/125 174/1/114 172/1/127
f 174/1/114 171/1/107 172/1/127
f 174/1/114 175/1/117 171/1/107
f 175/1/117 176/1/129 171/1/107
f 170/1/125 162/3/124 166/3/115
f 178/4/96 181/4/172 177/4/173
f 181/4/172 180/4/106 177/4/173
f 192/4/139 191/4/174 188/4/175
f 188/4/175 191/4/174 189/4/176
f 189/4/177 190/4/178 182/4/179
f 183/4/96 182/4/179 190/4/178
f 196/4/132 197/4/97 194/4/134
f 198/4/137 199/4/98 202/4/135
f 210/8/180 208/7/141 209/5/140
f 213/7/141 214/7/143 211/6/145
f 236/9/161 229/11/181 230/7/159
f 231/7/160 233/10/163 236/9/161
f 2/2/9 1/2/4 119/2/101 120/2/100
f 7/1/6 5/1/8 123/1/98 125/1/97
f 5/1/8 6/1/76 124/1/166 123/1/98
f 1/2/4 13/2/6 131/2/97 119/2/101
f 27/3/20 28/3/30 146/3/122 145/3/113
f 31/3/21 27/3/20 145/3/113 149/3/112
f 43/3/31 44/3/33 162/3/124 161/3/123
f 47/3/21 43/3/31 161/3/123 165/3/112
f 69/4/14 67/4/39 185/4/101 187/4/106
f 79/4/6 77/4/8 195/4/98 197/4/97
f 85/4/47 86/4/45 204/4/135 203/4/136
f 90/7/52 89/7/53 207/7/143 208/7/141
f 101/7/60 102/7/62 220/7/152 219/7/151
f 116/10/73 115/10/72 233/10/163 234/10/162
f 115/10/72 118/9/70 236/9/161 233/10/163
f 6/1/76 8/1/77 126/1/167 124/1/166
f 15/2/13 14/2/14 132/2/106 133/2/105
f 20/1/10 18/1/5 136/1/96 138/1/102
f 18/1/5 19/1/11 137/1/103 136/1/96
f 14/2/14 26/2/4 144/2/95 132/2/106
f 33/3/16 31/3/21 149/3/112 151/3/109
f 28/3/30 32/3/24 150/3/115 146/3/122
f 49/3/16 47/3/21 165/3/112 167/3/109
f 44/3/33 48/3/24 166/3/115 162/3/124
f 59/4/82 60/4/5 178/4/96 177/4/173
f 62/4/14 59/4/82 177/4/173 180/4/106
f 70/4/84 74/4/49 192/4/139 188/4/175
f 71/4/86 70/4/84 188/4/175 189/4/176
f 68/4/38 69/4/14 187/4/106 186/4/130
f 78/4/43 79/4/6 197/4/97 196/4/132
f 80/4/46 81/4/8 199/4/98 198/4/137
f 82/4/48 80/4/46 198/4/137 200/4/138
f 92/8/90 90/7/52 208/7/141 210/8/180
f 102/7/62 104/8/64 222/8/154 220/7/152
f 113/7/71 114/11/75 232/11/165 231/7/160
f 117/9/74 116/10/73 234/10/162 235/9/164
f 3/2/7 2/2/9 120/2/100 121/2/99
f 8/1/77 7/1/6 125/1/97 126/1/167
f 19/1/11 21/1/12 139/1/104 137/1/103
f 73/4/85 71/4/86 189/4/176 191/4/174
f 71/4/87 72/4/89 190/4/178 189/4/177
f 81/4/8 84/4/45 202/4/135 199/4/98
f 91/5/50 92/8/90 210/8/180 209/5/140
f 93/6/55 94/6/56 212/6/146 211/6/145
f 97/5/57 93/6/55 211/6/145 215/5/147
f 104/8/64 103/5/63 221/5/153 222/8/154
f 105/6/67 109/5/66 227/5/156 223/6/157
f 106/6/68 105/6/67 223/6/157 224/6/158
f 9/1/2 8/1/1 126/1/92 127/1/94
f 8/1/1 11/1/4 129/1/95 126/1/92
f 16/2/81 15/2/13 133/2/105 134/2/171
f 21/1/12 20/1/10 138/1/102 139/1/104
f 30/3/23 29/3/26 147/3/118 148/3/116
f 29/3/26 34/3/17 152/3/108 147/3/118
f 46/3/23 45/3/36 163/3/128 164/3/116
f 45/3/36 50/3/17 168/3/108 163/3/128
f 60/4/5 63/4/83 181/4/172 178/4/96
f 64/4/88 71/4/87 189/4/177 182/4/179
f 65/4/5 64/4/88 182/4/179 183/4/96
f 94/6/56 95/7/52 213/7/141 212/6/146
f 107/7/62 106/6/68 224/6/158 225/7/152
f 4/2/8 3/2/7 121/2/99 122/2/98
f 10/1/3 9/1/2 127/1/94 128/1/93
f 22/1/79 21/1/78 139/1/168 140/1/170
f 21/1/78 24/1/45 142/1/135 139/1/168
f 76/4/44 75/4/42 193/4/133 194/4/134
f 75/4/42 61/4/41 179/4/131 193/4/133
f 61/4/41 78/4/43 196/4/132 179/4/131
f 83/4/49 82/4/48 200/4/138 201/4/139
f 95/7/52 96/7/53 214/7/143 213/7/141
f 108/7/60 107/7/62 225/7/152 226/7/151
f 111/11/91 112/7/69 230/7/159 229/11/181
f 118/9/70 111/11/91 229/11/181 236/9/161
f 12/1/5 10/1/3 128/1/93 130/1/96
f 13/2/6 4/2/8 122/2/98 131/2/97
f 17/2/5 16/2/81 134/2/171 135/2/96
f 23/1/80 22/1/79 140/1/170 141/1/169
f 32/3/24 30/3/23 148/3/116 150/3/115
f 34/3/17 33/3/16 151/3/109 152/3/108
f 48/3/24 46/3/23 164/3/116 166/3/115
f 50/3/17 49/3/16 167/3/109 168/3/108
f 63/4/83 62/4/14 180/4/106 181/4/172
f 74/4/49 73/4/85 191/4/174 192/4/139
f 72/4/89 65/4/5 183/4/96 190/4/178
f 96/7/53 98/8/58 216/8/148 214/7/143
f 110/8/65 108/7/60 226/7/151 228/8/155
f 11/1/4 12/1/5 130/1/96 129/1/95
f 25/1/39 23/1/80 141/1/169 143/1/95
f 26/2/4 17/2/5 135/2/96 144/2/95
f 77/4/8 76/4/44 194/4/134 195/4/98
f 86/4/45 83/4/49 201/4/139 204/4/135
f 87/6/51 91/5/50 209/5/140 205/6/142
f 88/6/54 87/6/51 205/6/142 206/6/144
f 98/8/58 97/5/57 215/5/147 216/8/148
f 99/6/59 100/6/61 218/6/150 217/6/149
f 103/5/63 99/6/59 217/6/149 221/5/153
f 109/5/66 110/8/65 228/8/155 227/5/156
f 112/7/69 113/7/71 231/7/160 230/7/159
f 24/1/45 25/1/39 143/1/95 142/1/135
f 66/4/40 68/4/38 186/4/130 184/4/96
f 67/4/39 66/4/40 184/4/96 185/4/101
f 84/4/45 85/4/47 203/4/136 202/4/135
f 89/7/53 88/6/54 206/6/144 207/7/143
f 100/6/61 101/7/60 219/7/151 218/6/150
f 114/11/75 117/9/74 235/9/164 232/11/165
