# Blender 4.5.3 LTS
# www.blender.org
mtllib building-type-o_roof.mtl
o building-type-o.001
v -0.215000 0.400000 -0.344000
v -0.606716 0.400000 -0.344000
v -0.615000 0.400000 -0.335716
v -0.615000 0.400000 0.056000
v -0.635000 0.450000 0.056000
v -0.635000 0.450000 -0.344000
v -0.615000 0.450000 0.056000
v -0.615000 0.450000 -0.364000
v -0.615000 0.450000 -0.335716
v -0.606716 0.450000 -0.344000
v -0.215000 0.450000 -0.364000
v -0.215000 0.450000 -0.344000
v -0.215000 0.400000 0.056000
v -0.615000 0.400000 0.056000
v -0.615000 0.400000 0.447716
v -0.606716 0.400000 0.456000
v -0.215000 0.400000 0.456000
v -0.215000 0.450000 0.476000
v -0.615000 0.450000 0.476000
v -0.215000 0.450000 0.456000
v -0.635000 0.450000 0.456000
v -0.606716 0.450000 0.456000
v -0.615000 0.450000 0.447716
v -0.635000 0.450000 0.056000
v -0.615000 0.450000 0.056000
v -0.215000 0.400000 0.056000
v -0.077976 0.949752 0.394831
v -0.090936 0.949752 0.426120
v -0.166476 0.949752 0.394831
v -0.153515 0.949752 0.426120
v -0.090936 0.949752 0.363541
v -0.122226 0.949752 0.439081
v -0.122226 0.949752 0.350581
v -0.153515 0.949752 0.363541
v -0.092726 0.979252 0.394831
v -0.101366 0.979252 0.415690
v -0.143085 0.979252 0.373971
v -0.122226 0.979252 0.365331
v -0.101366 0.979252 0.373971
v -0.122226 0.979252 0.424331
v -0.143085 0.979252 0.415690
v -0.151726 0.979252 0.394831
v -0.095000 0.884000 -0.282000
v 0.065000 0.884000 -0.282000
v -0.115000 0.896000 -0.266000
v -0.115000 1.035500 -0.080000
v 0.085000 0.896000 -0.266000
v 0.085000 1.035500 -0.080000
v -0.095000 1.047500 -0.064000
v 0.065000 1.047500 -0.064000
v -0.335000 0.450000 -0.224000
v -0.235000 0.450000 -0.224000
v -0.385000 0.450000 0.126000
v -0.385000 0.450000 -0.174000
v -0.370355 0.450000 -0.209355
v -0.335000 0.450000 0.176000
v -0.235000 0.450000 0.176000
v -0.370355 0.450000 0.161355
v -0.235000 0.450000 0.156000
v -0.331022 0.450000 0.156000
v -0.355048 0.450000 0.146048
v -0.365000 0.450000 0.122022
v -0.365000 0.450000 -0.170022
v -0.355048 0.450000 -0.194048
v -0.331022 0.450000 -0.204000
v -0.235000 0.450000 -0.204000
v -0.215000 0.450000 -0.364000
v -0.215000 0.450000 -0.344000
v -0.235000 0.450000 -0.344000
v -0.215000 0.450000 0.056000
v -0.235000 0.450000 0.056000
v -0.235000 0.450000 0.156000
v -0.215000 0.450000 0.156000
v -0.235000 0.450000 0.056000
v -0.215000 0.450000 0.056000
v -0.235000 0.450000 0.356000
v -0.235000 0.450000 0.456000
v -0.215000 0.450000 0.356000
v 0.465000 0.884000 -0.282000
v 0.305000 0.884000 -0.282000
v 0.485000 0.896000 -0.266000
v 0.485000 1.035500 -0.080000
v 0.285000 0.896000 -0.266000
v 0.285000 1.035500 -0.080000
v 0.465000 1.047500 -0.064000
v 0.305000 1.047500 -0.064000
v 0.585000 0.794000 0.514000
v 0.185000 0.794000 0.514000
v 0.185000 1.137500 0.056000
v 0.635000 1.137500 0.056000
v 0.620355 0.802787 0.502284
v 0.635000 0.824000 0.474000
v -0.215000 0.794000 0.514000
v 0.185000 0.794000 0.514000
v 0.185000 1.137500 0.056000
v -0.265000 1.137500 0.056000
v -0.250355 0.802787 0.502284
v -0.265000 0.824000 0.474000
v -0.215000 0.794000 -0.402000
v 0.185000 0.794000 -0.402000
v -0.265000 0.824000 -0.362000
v -0.250355 0.802787 -0.390284
v -0.115000 1.047500 -0.064000
v 0.085000 1.047500 -0.064000
v 0.185000 1.137500 0.056000
v 0.085000 0.884000 -0.282000
v -0.115000 0.884000 -0.282000
v 0.585000 0.794000 -0.402000
v 0.635000 0.824000 -0.362000
v 0.620355 0.802787 -0.390284
v 0.485000 1.047500 -0.064000
v 0.285000 1.047500 -0.064000
v 0.285000 0.884000 -0.282000
v 0.485000 0.884000 -0.282000
v -0.215000 0.394000 -0.344000
v -0.606716 0.394000 -0.344000
v -0.615000 0.394000 -0.335716
v -0.615000 0.394000 0.056000
v -0.635000 0.444000 0.056000
v -0.635000 0.444000 -0.344000
v -0.615000 0.444000 0.056000
v -0.615000 0.444000 -0.364000
v -0.615000 0.444000 -0.335716
v -0.606716 0.444000 -0.344000
v -0.215000 0.444000 -0.364000
v -0.215000 0.444000 -0.344000
v -0.215000 0.394000 0.056000
v -0.615000 0.394000 0.056000
v -0.615000 0.394000 0.447716
v -0.606716 0.394000 0.456000
v -0.215000 0.394000 0.456000
v -0.215000 0.444000 0.476000
v -0.615000 0.444000 0.476000
v -0.215000 0.444000 0.456000
v -0.635000 0.444000 0.456000
v -0.606716 0.444000 0.456000
v -0.615000 0.444000 0.447716
v -0.635000 0.444000 0.056000
v -0.615000 0.444000 0.056000
v -0.215000 0.394000 0.056000
v -0.083699 0.946890 0.394831
v -0.094983 0.946890 0.422073
v -0.160753 0.946890 0.394831
v -0.149468 0.946890 0.422073
v -0.094983 0.946890 0.367588
v -0.122226 0.946890 0.433358
v -0.122226 0.946890 0.356304
v -0.149468 0.946890 0.367588
v -0.097112 0.973524 0.394831
v -0.104509 0.973448 0.412548
v -0.139943 0.973448 0.377114
v -0.122226 0.973411 0.369803
v -0.104501 0.973461 0.377106
v -0.122226 0.973411 0.419858
v -0.139950 0.973462 0.412555
v -0.147340 0.973524 0.394831
v -0.095000 0.879200 -0.278400
v 0.065000 0.879200 -0.278400
v -0.115000 0.891200 -0.262400
v -0.115000 1.030700 -0.076400
v 0.085000 0.891200 -0.262400
v 0.085000 1.030700 -0.076400
v -0.095000 1.042700 -0.060400
v 0.065000 1.042700 -0.060400
v -0.335000 0.444000 -0.224000
v -0.235000 0.444000 -0.224000
v -0.385000 0.444000 0.126000
v -0.385000 0.444000 -0.174000
v -0.370355 0.444000 -0.209355
v -0.335000 0.444000 0.176000
v -0.235000 0.444000 0.176000
v -0.370355 0.444000 0.161355
v -0.235000 0.444000 0.156000
v -0.331022 0.444000 0.156000
v -0.355048 0.444000 0.146048
v -0.365000 0.444000 0.122022
v -0.365000 0.444000 -0.170022
v -0.355048 0.444000 -0.194048
v -0.331022 0.444000 -0.204000
v -0.235000 0.444000 -0.204000
v -0.215000 0.444000 -0.364000
v -0.215000 0.444000 -0.344000
v -0.235000 0.444000 -0.344000
v -0.215000 0.444000 0.056000
v -0.235000 0.444000 0.056000
v -0.235000 0.444000 0.156000
v -0.215000 0.444000 0.156000
v -0.235000 0.444000 0.056000
v -0.215000 0.444000 0.056000
v -0.235000 0.444000 0.356000
v -0.235000 0.444000 0.456000
v -0.215000 0.444000 0.356000
v 0.465000 0.879200 -0.278400
v 0.305000 0.879200 -0.278400
v 0.485000 0.891200 -0.262400
v 0.485000 1.030700 -0.076400
v 0.285000 0.891200 -0.262400
v 0.285000 1.030700 -0.076400
v 0.465000 1.042700 -0.060400
v 0.305000 1.042700 -0.060400
v 0.585000 0.789200 0.510400
v 0.185000 0.789200 0.510400
v 0.185000 1.132700 0.052400
v 0.635000 1.130000 0.056000
v 0.620355 0.797987 0.498684
v 0.635000 0.819200 0.470400
v -0.215000 0.789200 0.510400
v 0.185000 0.789200 0.510400
v 0.185000 1.132700 0.052400
v -0.265000 1.130000 0.056000
v -0.250355 0.797987 0.498684
v -0.265000 0.819200 0.470400
v -0.215000 0.789200 -0.398400
v 0.185000 0.789200 -0.398400
v -0.265000 0.819200 -0.358400
v -0.250355 0.797987 -0.386684
v -0.115000 1.042700 -0.060400
v 0.085000 1.042700 -0.060400
v 0.185000 1.132700 0.059600
v 0.085000 0.879200 -0.278400
v -0.115000 0.879200 -0.278400
v 0.585000 0.789200 -0.398400
v 0.635000 0.819200 -0.358400
v 0.620355 0.797987 -0.386684
v 0.485000 1.042700 -0.060400
v 0.285000 1.042700 -0.060400
v 0.285000 0.879200 -0.278400
v 0.485000 0.879200 -0.278400
vn 0.5773 0.5774 0.5773
vn -0.7509 0.6598 0.0277
vn -0.5774 0.5774 0.5774
vn -0.6679 0.3285 -0.6679
vn 0.2275 0.8042 0.5491
vn 0.5773 0.5774 -0.5773
vn 0.5774 0.5774 0.5774
vn -0.7173 0.6303 -0.2971
vn 0.0277 0.6598 0.7509
vn -0.8750 0.3209 -0.3624
vn -0.6580 0.3661 0.6580
vn 0.7734 0.5469 0.3204
vn 0.5491 0.8042 -0.2275
vn -0.2971 0.6303 0.7173
vn -0.7173 0.6303 0.2971
vn -0.5774 0.5774 -0.5774
vn 0.6452 0.6856 0.3372
vn 0.8594 0.5114 -0.0000
vn 0.5146 0.8154 0.2651
vn -0.1927 0.7009 0.6868
vn 0.0502 -0.2683 0.9620
vn -0.0000 0.5026 0.8645
vn -0.5618 0.6073 0.5618
vn -0.8045 0.3190 -0.5010
vn -0.5593 0.6118 -0.5593
vn -0.9622 -0.2702 0.0349
vn 0.4685 0.8652 -0.1787
vn -0.5146 0.8154 0.2651
vn -0.3463 0.6587 0.6680
vn 0.0330 0.6725 0.7393
vn -0.0037 0.7690 -0.6392
vn 0.2921 0.8970 -0.3318
vn -0.6977 0.6724 0.2472
vn 0.6154 0.7882 0.0068
vn 0.7066 0.6816 0.1899
vn -0.7396 0.6728 -0.0178
vn 0.2041 0.8013 0.5624
vn -0.4427 0.4581 -0.7708
vn 0.7234 0.6703 -0.1654
vn 0.7071 0.7071 -0.0000
vn 0.0635 0.7364 -0.6735
vn -0.5167 0.7744 -0.3651
vn 0.5774 0.5774 -0.5774
vn -0.5774 0.5773 -0.5774
vn 0.2801 0.8123 0.5116
vn -0.5773 0.5774 0.5774
vn 0.5774 0.5773 0.5774
vn 0.4630 0.8410 -0.2799
vn 0.2857 0.1289 0.9496
vn 0.6264 0.3754 0.6832
vn 0.7393 0.5578 0.3771
vn -0.6704 0.3500 0.6543
vn -0.6264 0.3754 0.6832
vn -0.4630 0.8410 -0.2799
vn -0.0478 0.2053 0.9775
vn 0.6579 0.7145 -0.2378
vn 0.5774 0.1155 0.8083
vn -0.4630 0.8410 0.2799
vn -0.6750 0.3288 -0.6605
vn -0.7393 0.5578 -0.3771
vn -0.2252 0.1137 -0.9677
vn 0.4758 0.3633 -0.8011
vn -0.0000 0.8000 -0.6000
vn -0.4170 0.3609 -0.8342
vn -0.0000 0.1414 -0.9899
vn 0.2508 0.8574 -0.4495
vn -0.0000 0.9488 0.3158
vn 0.0167 0.9989 -0.0444
vn 0.5639 0.6626 -0.4930
vn 0.0846 0.9714 -0.2217
vn -0.0445 0.9947 0.0921
vn -0.5639 0.6626 -0.4930
vn 0.0859 0.1525 -0.9846
vn 0.4579 0.8881 -0.0394
vn 0.2121 0.7280 -0.6519
vn 0.1328 0.9896 -0.0545
vn 0.4902 0.2777 -0.8262
vn 0.4630 0.8410 0.2799
vn 0.0564 0.1984 -0.9785
vn -0.4758 0.3633 -0.8010
vn -0.0470 0.3220 -0.9456
vn 0.3311 0.1224 -0.9356
vn 0.3673 0.2808 -0.8867
vn -0.3204 0.5469 0.7734
vn -0.2971 0.6303 -0.7173
vn -0.5773 0.5774 -0.5773
vn 0.9622 -0.2702 -0.0349
vn -0.7157 -0.2683 -0.6448
vn -0.0000 0.6356 -0.7720
vn 0.6113 0.5026 -0.6113
vn -0.9084 0.3855 0.1621
vn 0.5668 0.5753 0.5897
vn -0.3134 0.6725 -0.6704
vn -0.5524 0.5895 0.5894
vn -0.6579 0.7145 -0.2378
vn -0.5774 0.1155 0.8083
vn 0.0823 0.2163 -0.9728
vn -0.7553 0.5946 -0.2756
vn 0.5045 0.7254 -0.4682
vn 0.6704 0.3500 -0.6543
vn 0.5773 -0.5774 0.5773
vn -0.5774 -0.5774 0.5774
vn -0.7434 -0.6683 0.0276
vn -0.6679 -0.3285 -0.6679
vn 0.5773 -0.5774 -0.5773
vn 0.2275 -0.8042 0.5491
vn 0.5774 -0.5774 0.5774
vn -0.7173 -0.6303 -0.2971
vn 0.0276 -0.6683 0.7434
vn -0.8750 -0.3209 -0.3624
vn -0.6580 -0.3661 0.6580
vn 0.5491 -0.8042 -0.2275
vn 0.7734 -0.5469 0.3204
vn -0.2971 -0.6303 0.7173
vn -0.7173 -0.6303 0.2971
vn -0.5774 -0.5774 -0.5774
vn -0.3495 -0.7598 -0.5482
vn -0.4425 -0.8968 -0.0004
vn -0.6468 -0.6498 0.3991
vn 0.0002 -0.8661 -0.4999
vn -0.6176 -0.7017 -0.3553
vn 0.7296 -0.6612 -0.1748
vn 0.5567 -0.7558 -0.3448
vn 0.3585 -0.6910 -0.6277
vn 0.5315 -0.6595 0.5315
vn 0.2905 -0.8359 0.4658
vn -0.3411 -0.7551 0.5598
vn 0.6401 -0.7472 -0.1787
vn -0.3134 -0.6725 0.6704
vn -0.3380 -0.6951 0.6345
vn 0.2586 -0.7342 -0.6278
vn 0.2602 -0.8241 -0.5031
vn -0.6714 -0.7062 0.2246
vn 0.5684 -0.8222 -0.0294
vn 0.5617 -0.8064 0.1850
vn -0.6423 -0.7558 -0.1278
vn 0.2802 -0.7291 0.6244
vn -0.4427 -0.4581 -0.7708
vn 0.7417 -0.6703 -0.0241
vn 0.7071 -0.7071 -0.0000
vn -0.5623 -0.6594 -0.4990
vn 0.4314 -0.7364 -0.5211
vn 0.5774 -0.5774 -0.5774
vn 0.5116 -0.8123 0.2801
vn -0.5774 -0.5773 -0.5774
vn -0.5773 -0.5774 0.5774
vn 0.5774 -0.5773 0.5774
vn 0.6517 -0.2421 -0.7188
vn 0.3311 -0.9325 0.1444
vn 0.1848 -0.9818 0.0429
vn 0.6704 -0.7261 -0.1528
vn -0.7393 -0.5182 -0.4299
vn -0.6517 -0.2420 -0.7188
vn -0.6750 -0.7261 -0.1307
vn 0.5191 -0.2681 -0.8115
vn -0.1848 -0.9818 0.0429
vn 0.5774 -0.8083 0.1155
vn -0.6517 -0.2420 0.7188
vn -0.6704 -0.7261 0.1528
vn -0.6264 -0.7609 0.1690
vn -0.1681 -0.9801 -0.1057
vn 0.5638 -0.6712 0.4812
vn -0.0000 -0.8000 0.6000
vn -0.0152 -0.9989 0.0444
vn -0.0000 -0.9900 -0.1414
vn -0.0000 -0.3137 0.9495
vn 0.2890 -0.7992 0.5271
vn -0.4390 -0.3781 0.8150
vn 0.4723 -0.6871 0.5522
vn 0.0004 -0.3223 0.9466
vn -0.6693 -0.5651 0.4824
vn -0.0004 -0.3223 0.9466
vn 0.0925 -0.9881 -0.1232
vn 0.4390 -0.3781 0.8150
vn 0.2275 -0.7903 0.5689
vn -0.4829 -0.4825 0.7308
vn 0.4472 -0.7004 0.5563
vn 0.6517 -0.2420 0.7188
vn 0.0152 -0.9989 0.0444
vn -0.5099 -0.8536 0.1064
vn -0.0824 -0.9945 -0.0647
vn 0.6264 -0.7609 0.1690
vn 0.3673 -0.2808 -0.8867
vn -0.3204 -0.5469 0.7734
vn -0.2971 -0.6303 -0.7173
vn -0.5773 -0.5774 -0.5773
vn -0.5315 -0.6595 -0.5315
vn -0.3932 -0.6613 0.6388
vn -0.1201 -0.7657 0.6318
vn 0.1856 -0.7012 0.6883
vn 0.5668 -0.5753 0.5897
vn -0.9084 -0.3855 0.1621
vn 0.0330 -0.6725 -0.7393
vn -0.5895 -0.5894 0.5524
vn -0.5773 -0.8083 0.1155
vn -0.5191 -0.2681 -0.8115
vn 0.0471 -0.9979 0.0443
vn -0.5499 -0.5115 0.6603
vn -0.3138 -0.4493 0.8365
vn 0.7393 -0.5182 0.4299
vt 0.093750 0.475000
vt 0.093750 0.275000
vt 0.093750 0.425000
vt 0.093750 0.300000
vt 0.093750 0.725000
vt 0.093750 0.650225
vt 0.093750 0.652137
vt 0.093750 0.656755
vt 0.093750 0.645661
vt 0.093750 0.650689
vt 0.093750 0.645000
vt 0.093750 0.700822
vt 0.093750 0.703667
vt 0.093750 0.664911
vt 0.093750 0.667755
s 1
usemtl Material.015
f 7/1/1 6/1/2 5/1/3
f 8/1/4 10/1/5 11/1/6
f 11/1/6 10/1/5 12/1/7
f 13/2/1 3/2/8 4/2/3
f 20/1/6 19/1/9 18/1/7
f 19/1/9 20/1/6 21/1/10
f 21/1/11 22/1/12 23/1/13
f 26/2/6 16/2/14 17/2/7
f 16/2/14 26/2/6 15/2/15
f 15/2/15 26/2/6 14/2/16
f 36/1/17 27/3/18 35/1/19
f 40/1/20 30/3/21 32/3/22
f 30/3/21 40/1/20 41/1/23
f 29/3/24 37/1/25 34/3/26
f 39/1/27 36/1/17 35/1/19
f 40/1/20 37/1/25 41/1/23
f 41/1/23 37/1/25 42/1/28
f 29/3/24 41/1/23 42/1/28
f 41/1/23 29/3/24 30/3/21
f 32/3/22 36/1/17 40/1/20
f 57/1/1 58/1/29 56/1/30
f 59/1/6 58/1/29 57/1/1
f 60/1/31 58/1/29 59/1/6
f 61/1/32 53/1/33 58/1/29
f 62/1/34 53/1/33 61/1/32
f 63/1/35 53/1/33 62/1/34
f 63/1/35 54/1/36 53/1/33
f 64/1/37 54/1/36 63/1/35
f 55/1/38 64/1/37 65/1/39
f 68/4/40 67/4/41 69/4/42
f 68/4/40 69/4/42 70/4/1
f 70/4/1 69/4/42 71/4/3
f 78/4/43 76/4/44 20/4/45
f 72/4/46 73/4/47 74/4/44
f 90/5/48 87/6/49 91/7/50
f 90/5/48 91/7/50 92/8/51
f 98/8/52 97/7/53 96/5/54
f 96/5/54 93/6/55 95/5/56
f 94/6/57 95/5/56 93/6/55
f 96/5/58 102/9/59 101/10/60
f 96/5/58 99/11/61 102/9/59
f 46/12/62 99/11/61 103/13/63
f 96/5/58 104/13/63 50/13/64
f 100/11/65 106/14/66 105/5/67
f 106/14/66 100/11/65 99/11/61
f 106/14/66 99/11/61 44/14/68
f 107/14/63 99/11/61 45/15/69
f 43/14/70 99/11/61 107/14/63
f 114/14/63 79/14/71 81/15/72
f 114/14/63 108/11/73 79/14/71
f 81/15/72 108/11/73 114/14/63
f 79/14/71 108/11/73 80/14/74
f 80/14/74 108/11/73 113/14/75
f 113/14/75 83/15/76 80/14/74
f 108/11/73 100/11/65 113/14/75
f 105/5/67 113/14/75 100/11/65
f 84/12/77 113/14/75 105/5/67
f 84/12/77 105/5/67 112/13/63
f 90/5/78 112/13/63 105/5/67
f 84/12/77 112/13/63 86/13/79
f 86/13/79 112/13/63 90/5/78
f 82/12/80 108/11/73 81/15/72
f 82/12/80 85/13/81 111/13/63
f 111/13/63 108/11/73 82/12/80
f 110/9/82 108/11/73 90/5/78
f 6/1/2 7/1/1 8/1/83
f 8/1/4 9/1/84 10/1/5
f 3/2/8 13/2/1 2/2/85
f 2/2/85 13/2/1 1/2/43
f 21/1/11 23/1/13 24/1/86
f 24/1/86 23/1/13 25/1/43
f 27/3/18 36/1/17 28/3/87
f 37/1/25 33/3/88 34/3/26
f 33/3/88 37/1/25 38/1/89
f 39/1/27 27/3/18 31/3/90
f 27/3/18 39/1/27 35/1/19
f 38/1/89 31/3/90 33/3/88
f 31/3/90 38/1/89 39/1/27
f 37/1/25 29/3/24 42/1/28
f 36/1/17 39/1/27 38/1/89
f 36/1/17 38/1/89 40/1/20
f 40/1/20 38/1/89 37/1/25
f 36/1/17 32/3/22 28/3/87
f 61/1/32 58/1/29 60/1/31
f 64/1/37 55/1/38 54/1/36
f 52/1/6 55/1/91 66/1/92
f 55/1/91 52/1/6 51/1/93
f 76/4/44 77/4/94 20/4/45
f 75/4/43 74/4/44 73/4/47
f 87/6/49 89/5/95 88/6/96
f 89/5/95 87/6/49 90/5/48
f 97/7/53 93/6/55 96/5/54
f 96/5/58 103/13/63 99/11/61
f 103/13/63 49/13/97 46/12/62
f 96/5/58 49/13/97 103/13/63
f 96/5/58 50/13/64 49/13/97
f 45/15/69 99/11/61 46/12/62
f 50/13/64 104/13/63 48/12/98
f 105/5/67 104/13/63 96/5/58
f 104/13/63 105/5/67 48/12/98
f 105/5/67 106/14/66 48/12/98
f 44/14/68 47/15/99 106/14/66
f 44/14/68 99/11/61 43/14/70
f 45/15/69 43/14/70 107/14/63
f 85/13/81 86/13/79 90/5/78
f 111/13/63 85/13/81 90/5/78
f 108/11/73 111/13/63 90/5/78
f 109/10/100 110/9/82 90/5/78
f 121/1/101 119/1/102 120/1/103
f 122/1/104 125/1/105 124/1/106
f 125/1/105 126/1/107 124/1/106
f 127/2/101 118/2/102 117/2/108
f 134/1/105 132/1/107 133/1/109
f 133/1/109 135/1/110 134/1/105
f 135/1/111 137/1/112 136/1/113
f 140/2/105 131/2/107 130/2/114
f 130/2/114 129/2/115 140/2/105
f 129/2/115 128/2/116 140/2/105
f 150/1/117 149/1/118 141/3/119
f 154/1/120 146/3/121 144/3/122
f 144/3/122 155/1/123 154/1/120
f 143/3/124 148/3/125 151/1/126
f 153/1/127 149/1/118 150/1/117
f 154/1/120 155/1/123 151/1/126
f 155/1/123 156/1/128 151/1/126
f 143/3/124 156/1/128 155/1/123
f 155/1/123 144/3/122 143/3/124
f 146/3/121 154/1/120 150/1/117
f 171/1/101 170/1/129 172/1/130
f 173/1/105 171/1/101 172/1/130
f 174/1/131 173/1/105 172/1/130
f 175/1/132 172/1/130 167/1/133
f 176/1/134 175/1/132 167/1/133
f 177/1/135 176/1/134 167/1/133
f 177/1/135 167/1/133 168/1/136
f 178/1/137 177/1/135 168/1/136
f 169/1/138 179/1/139 178/1/137
f 182/4/140 183/4/141 181/4/142
f 182/4/140 184/4/101 183/4/141
f 184/4/101 185/4/102 183/4/141
f 192/4/143 134/4/144 190/4/145
f 186/4/146 188/4/145 187/4/147
f 204/5/148 205/7/149 201/6/150
f 204/5/148 206/8/151 205/7/149
f 212/8/152 210/5/153 211/7/154
f 210/5/153 209/5/155 207/6/156
f 208/6/157 207/6/156 209/5/155
f 210/5/158 215/10/159 216/9/160
f 210/5/158 216/9/160 213/11/161
f 160/12/162 217/13/163 213/11/161
f 210/5/158 164/13/164 218/13/163
f 214/11/165 219/5/166 220/14/167
f 220/14/167 213/11/161 214/11/165
f 220/14/167 158/14/168 213/11/161
f 221/14/163 159/15/169 213/11/161
f 157/14/170 221/14/163 213/11/161
f 228/14/163 195/15/171 193/14/172
f 228/14/163 193/14/172 222/11/173
f 195/15/171 228/14/163 222/11/173
f 193/14/172 194/14/174 222/11/173
f 194/14/174 227/14/175 222/11/173
f 227/14/175 194/14/174 197/15/176
f 222/11/173 227/14/175 214/11/165
f 219/5/166 214/11/165 227/14/175
f 198/12/177 219/5/166 227/14/175
f 198/12/177 226/13/163 219/5/166
f 204/5/178 219/5/166 226/13/163
f 198/12/177 200/13/179 226/13/163
f 200/13/179 204/5/178 226/13/163
f 196/12/180 195/15/171 222/11/173
f 196/12/180 225/13/163 199/13/181
f 225/13/163 196/12/180 222/11/173
f 224/9/182 204/5/178 222/11/173
f 120/1/103 122/1/183 121/1/101
f 122/1/104 124/1/106 123/1/184
f 117/2/108 116/2/185 127/2/101
f 116/2/185 115/2/143 127/2/101
f 135/1/111 138/1/186 137/1/112
f 138/1/186 139/1/143 137/1/112
f 141/3/119 142/3/187 150/1/117
f 151/1/126 148/3/125 147/3/188
f 147/3/188 152/1/189 151/1/126
f 153/1/127 145/3/190 141/3/119
f 141/3/119 149/1/118 153/1/127
f 152/1/189 147/3/188 145/3/190
f 145/3/190 153/1/127 152/1/189
f 151/1/126 156/1/128 143/3/124
f 150/1/117 152/1/189 153/1/127
f 150/1/117 154/1/120 152/1/189
f 154/1/120 151/1/126 152/1/189
f 150/1/117 142/3/187 146/3/121
f 175/1/132 174/1/131 172/1/130
f 178/1/137 168/1/136 169/1/138
f 166/1/105 180/1/191 169/1/192
f 169/1/192 165/1/193 166/1/105
f 190/4/145 134/4/144 191/4/194
f 189/4/143 187/4/147 188/4/145
f 201/6/150 202/6/195 203/5/196
f 203/5/196 204/5/148 201/6/150
f 211/7/154 210/5/153 207/6/156
f 210/5/158 213/11/161 217/13/163
f 217/13/163 160/12/162 163/13/197
f 210/5/158 217/13/163 163/13/197
f 210/5/158 163/13/197 164/13/164
f 159/15/169 160/12/162 213/11/161
f 164/13/164 162/12/198 218/13/163
f 219/5/166 210/5/158 218/13/163
f 218/13/163 162/12/198 219/5/166
f 219/5/166 162/12/198 220/14/167
f 158/14/168 220/14/167 161/15/199
f 158/14/168 157/14/170 213/11/161
f 159/15/169 221/14/163 157/14/170
f 199/13/181 204/5/178 200/13/179
f 225/13/163 204/5/178 199/13/181
f 222/11/173 204/5/178 225/13/163
f 223/10/200 204/5/178 224/9/182
f 2/2/85 1/2/43 115/2/143 116/2/185
f 7/1/1 5/1/3 119/1/102 121/1/101
f 5/1/3 6/1/2 120/1/103 119/1/102
f 1/2/43 13/2/1 127/2/101 115/2/143
f 45/15/69 46/12/62 160/12/162 159/15/169
f 62/1/34 61/1/32 175/1/132 176/1/134
f 52/1/6 66/1/92 180/1/191 166/1/105
f 81/15/72 79/14/71 193/14/172 195/15/171
f 79/14/71 80/14/74 194/14/174 193/14/172
f 88/6/96 89/5/95 203/5/196 202/6/195
f 100/11/65 108/11/73 222/11/173 214/11/165
f 6/1/2 8/1/83 122/1/183 120/1/103
f 15/2/15 14/2/16 128/2/116 129/2/115
f 20/1/6 18/1/7 132/1/107 134/1/105
f 18/1/7 19/1/9 133/1/109 132/1/107
f 14/2/16 26/2/6 140/2/105 128/2/116
f 32/3/22 30/3/21 144/3/122 146/3/121
f 34/3/26 33/3/88 147/3/188 148/3/125
f 46/12/62 49/13/97 163/13/197 160/12/162
f 57/1/1 56/1/30 170/1/129 171/1/101
f 56/1/30 58/1/29 172/1/130 170/1/129
f 63/1/35 62/1/34 176/1/134 177/1/135
f 80/14/74 83/15/76 197/15/176 194/14/174
f 89/5/95 90/5/48 204/5/148 203/5/196
f 101/10/60 102/9/59 216/9/160 215/10/159
f 83/15/76 113/14/75 227/14/175 197/15/176
f 3/2/8 2/2/85 116/2/185 117/2/108
f 8/1/83 7/1/1 121/1/101 122/1/183
f 19/1/9 21/1/10 135/1/110 133/1/109
f 44/14/68 43/14/70 157/14/170 158/14/168
f 43/14/70 45/15/69 159/15/169 157/14/170
f 64/1/37 63/1/35 177/1/135 178/1/137
f 72/4/46 74/4/44 188/4/145 186/4/146
f 73/4/47 72/4/46 186/4/146 187/4/147
f 90/5/48 92/8/51 206/8/151 204/5/148
f 109/10/100 90/5/78 204/5/178 223/10/200
f 90/5/78 105/5/67 219/5/166 204/5/178
f 9/1/84 8/1/4 122/1/104 123/1/184
f 8/1/4 11/1/6 125/1/105 122/1/104
f 16/2/14 15/2/15 129/2/115 130/2/114
f 21/1/10 20/1/6 134/1/105 135/1/110
f 47/15/99 44/14/68 158/14/168 161/15/199
f 59/1/6 57/1/1 171/1/101 173/1/105
f 65/1/39 64/1/37 178/1/137 179/1/139
f 78/4/43 20/4/45 134/4/144 192/4/143
f 20/4/45 77/4/94 191/4/194 134/4/144
f 75/4/43 73/4/47 187/4/147 189/4/143
f 84/12/77 86/13/79 200/13/179 198/12/177
f 92/8/51 91/7/50 205/7/149 206/8/151
f 93/6/55 97/7/53 211/7/154 207/6/156
f 94/6/57 93/6/55 207/6/156 208/6/157
f 106/14/66 47/15/99 161/15/199 220/14/167
f 113/14/75 84/12/77 198/12/177 227/14/175
f 4/2/3 3/2/8 117/2/108 118/2/102
f 10/1/5 9/1/84 123/1/184 124/1/106
f 22/1/12 21/1/11 135/1/111 136/1/113
f 21/1/11 24/1/86 138/1/186 135/1/111
f 27/3/18 28/3/87 142/3/187 141/3/119
f 31/3/90 27/3/18 141/3/119 145/3/190
f 53/1/33 54/1/36 168/1/136 167/1/133
f 58/1/29 53/1/33 167/1/133 172/1/130
f 67/4/41 68/4/40 182/4/140 181/4/142
f 69/4/42 67/4/41 181/4/142 183/4/141
f 76/4/44 78/4/43 192/4/143 190/4/145
f 77/4/94 76/4/44 190/4/145 191/4/194
f 74/4/44 75/4/43 189/4/143 188/4/145
f 86/13/79 85/13/81 199/13/181 200/13/179
f 95/5/56 94/6/57 208/6/157 209/5/155
f 108/11/73 110/9/82 224/9/182 222/11/173
f 12/1/7 10/1/5 124/1/106 126/1/107
f 13/2/1 4/2/3 118/2/102 127/2/101
f 17/2/7 16/2/14 130/2/114 131/2/107
f 23/1/13 22/1/12 136/1/113 137/1/112
f 33/3/88 31/3/90 145/3/190 147/3/188
f 28/3/87 32/3/22 146/3/121 142/3/187
f 50/13/64 48/12/98 162/12/198 164/13/164
f 54/1/36 55/1/38 169/1/138 168/1/136
f 68/4/40 70/4/1 184/4/101 182/4/140
f 96/5/54 95/5/56 209/5/155 210/5/153
f 48/12/98 106/14/66 220/14/167 162/12/198
f 110/9/82 109/10/100 223/10/200 224/9/182
f 11/1/6 12/1/7 126/1/107 125/1/105
f 25/1/43 23/1/13 137/1/112 139/1/143
f 26/2/6 17/2/7 131/2/107 140/2/105
f 49/13/97 50/13/64 164/13/164 163/13/197
f 51/1/93 52/1/6 166/1/105 165/1/193
f 55/1/91 51/1/93 165/1/193 169/1/192
f 60/1/31 59/1/6 173/1/105 174/1/131
f 71/4/3 69/4/42 183/4/141 185/4/102
f 82/12/80 81/15/72 195/15/171 196/12/180
f 98/8/52 96/5/54 210/5/153 212/8/152
f 96/5/58 101/10/60 215/10/159 210/5/158
f 105/5/67 96/5/58 210/5/158 219/5/166
f 24/1/86 25/1/43 139/1/143 138/1/186
f 30/3/21 29/3/24 143/3/124 144/3/122
f 29/3/24 34/3/26 148/3/125 143/3/124
f 61/1/32 60/1/31 174/1/131 175/1/132
f 55/1/38 65/1/39 179/1/139 169/1/138
f 66/1/92 55/1/91 169/1/192 180/1/191
f 70/4/1 71/4/3 185/4/102 184/4/101
f 85/13/81 82/12/80 196/12/180 199/13/181
f 87/6/49 88/6/96 202/6/195 201/6/150
f 91/7/50 87/6/49 201/6/150 205/7/149
f 97/7/53 98/8/52 212/8/152 211/7/154
f 99/11/61 100/11/65 214/11/165 213/11/161
f 102/9/59 99/11/61 213/11/161 216/9/160
