# prebaked split of model.obj material Eyebrows.001
mtllib Eyebrows_001.mtl
usemtl Eyebrows.001
v 0.063637 1.591894 0.054775
v 0.037830 1.591208 0.032863
v 0.074662 1.589488 0.084122
v 0.075449 1.627999 0.042989
v 0.082822 1.593301 0.173716
v 0.043715 1.627180 0.021214
v 0.088820 1.606468 0.150704
v 0.092238 1.624651 0.094727
v 0.079181 1.681597 0.044976
v 0.086706 1.649766 0.186517
v 0.094762 1.666843 0.131970
v 0.046173 1.680264 0.022896
v 0.091064 1.657388 0.159804
v 0.093529 1.669198 0.122699
v 0.078265 1.711316 0.050314
v 0.081564 1.677807 0.208147
v 0.091341 1.696825 0.140468
v 0.047890 1.715858 0.032653
v 0.055643 1.676702 0.227931
v 0.088020 1.683303 0.169897
v 0.086546 1.704371 0.100003
v 0.093193 1.642658 0.157455
v 0.096847 1.652736 0.130403
v 0.081257 1.667398 0.043275
v 0.088910 1.631245 0.177669
v 0.094937 1.656354 0.116109
v 0.046208 1.666500 0.021254
v 0.047648 1.734631 0.189586
v 0.047809 1.747537 0.149309
v 0.048021 1.752928 0.101027
v 0.048235 1.740012 0.060534
v 0.047591 1.703104 0.216063
v 0.071410 1.696389 0.204070
v 0.062961 1.722326 0.065467
v 0.078523 1.726062 0.147329
v 0.076907 1.711477 0.183357
v 0.074521 1.729626 0.100240
v -0.055158 1.591648 0.054223
v 0.004370 1.590177 0.026934
v -0.029147 1.591070 0.032551
v -0.066445 1.589198 0.083466
v -0.067011 1.627705 0.042329
v 0.004349 1.626047 0.015278
v -0.075451 1.592978 0.172981
v -0.035073 1.627016 0.020847
v -0.081290 1.606120 0.149913
v -0.084265 1.624287 0.093909
v -0.070982 1.681287 0.044280
v 0.004232 1.679144 0.017102
v -0.079688 1.649422 0.185746
v -0.087309 1.666467 0.131127
v -0.037766 1.680090 0.022507
v -0.083829 1.657027 0.158993
v -0.086000 1.668827 0.121868
v -0.070240 1.711010 0.049626
v 0.004076 1.722136 0.031473
v 0.003200 1.681702 0.238467
v -0.074863 1.677484 0.207422
v -0.084091 1.696463 0.139655
v -0.039720 1.715678 0.032247
v -0.049121 1.676486 0.227446
v -0.080986 1.682954 0.169114
v -0.078951 1.704029 0.099236
v -0.085876 1.642289 0.156625
v -0.089320 1.652352 0.129540
v -0.072984 1.667080 0.042560
v -0.081734 1.630893 0.176878
v -0.087293 1.655977 0.115264
v -0.037730 1.666327 0.020865
v 0.004268 1.665380 0.015460
v 0.003290 1.743831 0.191360
v -0.041011 1.734447 0.189175
v 0.003460 1.757082 0.148962
v -0.040851 1.747354 0.148898
v 0.003663 1.762129 0.102804
v -0.040638 1.752746 0.100616
v 0.003878 1.749227 0.062213
v -0.040424 1.739829 0.060123
v 0.003233 1.712303 0.217853
v -0.041069 1.702921 0.215652
v -0.064748 1.696108 0.203439
v -0.055121 1.722083 0.064920
v -0.071457 1.725753 0.146634
v -0.070115 1.711173 0.182676
v -0.067034 1.729333 0.099583
v 0.023392 1.630786 0.230962
v 0.066744 1.635114 0.217364
v 0.024716 1.623072 0.226212
v 0.067141 1.627772 0.214048
v 0.069400 1.631891 0.226323
v 0.026057 1.627855 0.238019
v 0.069798 1.624548 0.223008
v 0.027381 1.620143 0.233269
v -0.016712 1.630703 0.230776
v -0.059952 1.634852 0.216778
v -0.017959 1.622984 0.226014
v -0.060289 1.627509 0.213457
v -0.062679 1.631618 0.225711
v -0.019430 1.627761 0.237807
v -0.063016 1.624275 0.222392
v -0.020677 1.620043 0.233046
vt 0.000000 0.000000
vn 0.161700 -0.316400 -0.934700
vn 0.566300 -0.377300 -0.732800
vn 0.872300 -0.365100 -0.325100
vn 0.132800 0.117800 -0.984100
vn 0.535200 0.140000 -0.833000
vn 0.977600 0.119300 0.173400
vn 0.548600 -0.054400 -0.834300
vn 0.977300 0.058700 0.203800
vn 0.972800 0.172600 -0.154200
vn 0.094900 0.290500 -0.952200
vn 0.983600 0.155200 -0.091800
vn 0.142800 -0.001600 -0.989700
vn 0.986200 0.137400 -0.092200
vn 0.987000 0.065200 0.147200
vn 0.983700 0.047400 0.173300
vn 0.983700 0.076100 -0.163100
vn 0.528700 0.185000 -0.828400
vn 0.969400 -0.042200 -0.242000
vn 0.977100 -0.158400 0.142300
vn 0.162000 0.634600 0.755700
vn 0.202000 0.933500 0.296200
vn 0.207200 0.972300 0.108400
vn 0.182900 0.937100 -0.297400
vn 0.127500 0.746600 -0.653000
vn 0.181600 0.506000 0.843200
vn 0.513500 0.463800 0.721900
vn 0.889500 0.344300 0.300500
vn 0.927100 0.314000 0.204800
vn 0.558500 0.726800 -0.399800
vn 0.907400 0.418600 -0.038100
vn 0.747900 0.639400 -0.178400
vn 0.534700 0.568900 0.624900
vn 0.597100 0.750100 0.284200
vn 0.617000 0.785400 0.049200
vn 0.690400 0.665800 -0.282900
vn -0.151700 -0.317100 -0.936200
vn -0.557900 -0.379600 -0.738000
vn -0.867800 -0.368700 -0.333200
vn -0.124200 0.117200 -0.985300
vn -0.528100 0.137800 -0.838000
vn -0.979600 0.115300 0.164300
vn -0.540600 -0.056600 -0.839400
vn -0.979300 0.054700 0.194700
vn -0.972100 0.168600 -0.163300
vn -0.087300 0.290100 -0.953000
vn -0.983300 0.151200 -0.100900
vn -0.133600 -0.002100 -0.991000
vn -0.985900 0.133300 -0.101300
vn -0.988500 0.061100 0.138000
vn -0.985500 0.043300 0.164200
vn -0.982400 0.072000 -0.172300
vn -0.521800 0.182800 -0.833200
vn -0.966900 -0.046200 -0.251000
vn -0.977700 -0.162500 0.133200
vn -0.171600 0.633900 0.754200
vn -0.208600 0.932700 0.294300
vn -0.212200 0.971400 0.106400
vn -0.184000 0.936300 -0.299100
vn -0.124500 0.746100 -0.654100
vn -0.191500 0.505300 0.841500
vn -0.522100 0.461600 0.717100
vn -0.893600 0.340600 0.292200
vn -0.930200 0.310100 0.196200
vn -0.557800 0.724500 -0.404900
vn -0.908700 0.414900 -0.046500
vn -0.748900 0.636300 -0.185300
vn -0.542800 0.566700 0.619900
vn -0.602800 0.747700 0.278600
vn -0.620700 0.782800 0.043500
vn -0.690500 0.662900 -0.289300
vn -0.301200 0.423400 -0.854400
vn 0.263400 -0.432000 0.862600
vn 0.005000 -0.932900 -0.360000
vn 0.960900 0.155500 -0.229000
vn -0.927200 -0.298400 0.226300
vn 0.013300 0.934900 0.354700
vn 0.307300 0.424600 -0.851600
vn -0.269600 -0.433100 0.860100
vn 0.002200 -0.932900 -0.360100
vn -0.959400 0.151500 -0.237900
vn 0.926300 -0.294600 0.234900
vn -0.020400 0.934800 0.354600
f 39/1/1 43/1/1 6/1/1
f 39/1/1 6/1/1 2/1/1
f 1/1/2 2/1/2 6/1/2
f 1/1/2 6/1/2 4/1/2
f 3/1/3 1/1/3 4/1/3
f 3/1/3 4/1/3 8/1/3
f 70/1/4 49/1/4 12/1/4
f 70/1/4 12/1/4 27/1/4
f 27/1/5 12/1/5 9/1/5
f 27/1/5 9/1/5 24/1/5
f 22/1/6 23/1/6 11/1/6
f 22/1/6 11/1/6 13/1/6
f 4/1/7 6/1/7 27/1/7
f 4/1/7 27/1/7 24/1/7
f 25/1/8 22/1/8 13/1/8
f 25/1/8 13/1/8 10/1/8
f 26/1/9 24/1/9 9/1/9
f 26/1/9 9/1/9 14/1/9
f 12/1/10 49/1/10 56/1/10
f 12/1/10 56/1/10 18/1/10
f 23/1/11 26/1/11 14/1/11
f 23/1/11 14/1/11 11/1/11
f 6/1/12 43/1/12 70/1/12
f 6/1/12 70/1/12 27/1/12
f 11/1/13 14/1/13 21/1/13
f 11/1/13 21/1/13 17/1/13
f 13/1/14 11/1/14 17/1/14
f 13/1/14 17/1/14 20/1/14
f 10/1/15 13/1/15 20/1/15
f 10/1/15 20/1/15 16/1/15
f 14/1/16 9/1/16 15/1/16
f 14/1/16 15/1/16 21/1/16
f 9/1/17 12/1/17 18/1/17
f 9/1/17 18/1/17 15/1/17
f 8/1/18 4/1/18 24/1/18
f 8/1/18 24/1/18 26/1/18
f 5/1/19 7/1/19 22/1/19
f 5/1/19 22/1/19 25/1/19
f 79/1/20 32/1/20 28/1/20
f 79/1/20 28/1/20 71/1/20
f 71/1/21 28/1/21 29/1/21
f 71/1/21 29/1/21 73/1/21
f 73/1/22 29/1/22 30/1/22
f 73/1/22 30/1/22 75/1/22
f 75/1/23 30/1/23 31/1/23
f 75/1/23 31/1/23 77/1/23
f 77/1/24 31/1/24 18/1/24
f 77/1/24 18/1/24 56/1/24
f 57/1/25 19/1/25 32/1/25
f 57/1/25 32/1/25 79/1/25
f 19/1/26 16/1/26 33/1/26
f 19/1/26 33/1/26 32/1/26
f 16/1/27 20/1/27 36/1/27
f 16/1/27 36/1/27 33/1/27
f 20/1/28 17/1/28 35/1/28
f 20/1/28 35/1/28 36/1/28
f 15/1/29 18/1/29 31/1/29
f 15/1/29 31/1/29 34/1/29
f 17/1/30 21/1/30 37/1/30
f 17/1/30 37/1/30 35/1/30
f 21/1/31 15/1/31 34/1/31
f 21/1/31 34/1/31 37/1/31
f 32/1/32 33/1/32 36/1/32
f 32/1/32 36/1/32 28/1/32
f 28/1/33 36/1/33 35/1/33
f 28/1/33 35/1/33 29/1/33
f 29/1/34 35/1/34 37/1/34
f 29/1/34 37/1/34 30/1/34
f 30/1/35 37/1/35 34/1/35
f 30/1/35 34/1/35 31/1/35
f 39/1/36 40/1/36 45/1/36
f 39/1/36 45/1/36 43/1/36
f 38/1/37 42/1/37 45/1/37
f 38/1/37 45/1/37 40/1/37
f 41/1/38 47/1/38 42/1/38
f 41/1/38 42/1/38 38/1/38
f 70/1/39 69/1/39 52/1/39
f 70/1/39 52/1/39 49/1/39
f 69/1/40 66/1/40 48/1/40
f 69/1/40 48/1/40 52/1/40
f 64/1/41 53/1/41 51/1/41
f 64/1/41 51/1/41 65/1/41
f 42/1/42 66/1/42 69/1/42
f 42/1/42 69/1/42 45/1/42
f 67/1/43 50/1/43 53/1/43
f 67/1/43 53/1/43 64/1/43
f 68/1/44 54/1/44 48/1/44
f 68/1/44 48/1/44 66/1/44
f 52/1/45 60/1/45 56/1/45
f 52/1/45 56/1/45 49/1/45
f 65/1/46 51/1/46 54/1/46
f 65/1/46 54/1/46 68/1/46
f 45/1/47 69/1/47 70/1/47
f 45/1/47 70/1/47 43/1/47
f 51/1/48 59/1/48 63/1/48
f 51/1/48 63/1/48 54/1/48
f 53/1/49 62/1/49 59/1/49
f 53/1/49 59/1/49 51/1/49
f 50/1/50 58/1/50 62/1/50
f 50/1/50 62/1/50 53/1/50
f 54/1/51 63/1/51 55/1/51
f 54/1/51 55/1/51 48/1/51
f 48/1/52 55/1/52 60/1/52
f 48/1/52 60/1/52 52/1/52
f 47/1/53 68/1/53 66/1/53
f 47/1/53 66/1/53 42/1/53
f 44/1/54 67/1/54 64/1/54
f 44/1/54 64/1/54 46/1/54
f 79/1/55 71/1/55 72/1/55
f 79/1/55 72/1/55 80/1/55
f 71/1/56 73/1/56 74/1/56
f 71/1/56 74/1/56 72/1/56
f 73/1/57 75/1/57 76/1/57
f 73/1/57 76/1/57 74/1/57
f 75/1/58 77/1/58 78/1/58
f 75/1/58 78/1/58 76/1/58
f 77/1/59 56/1/59 60/1/59
f 77/1/59 60/1/59 78/1/59
f 57/1/60 79/1/60 80/1/60
f 57/1/60 80/1/60 61/1/60
f 61/1/61 80/1/61 81/1/61
f 61/1/61 81/1/61 58/1/61
f 58/1/62 81/1/62 84/1/62
f 58/1/62 84/1/62 62/1/62
f 62/1/63 84/1/63 83/1/63
f 62/1/63 83/1/63 59/1/63
f 55/1/64 82/1/64 78/1/64
f 55/1/64 78/1/64 60/1/64
f 59/1/65 83/1/65 85/1/65
f 59/1/65 85/1/65 63/1/65
f 63/1/66 85/1/66 82/1/66
f 63/1/66 82/1/66 55/1/66
f 80/1/67 72/1/67 84/1/67
f 80/1/67 84/1/67 81/1/67
f 72/1/68 74/1/68 83/1/68
f 72/1/68 83/1/68 84/1/68
f 74/1/69 76/1/69 85/1/69
f 74/1/69 85/1/69 83/1/69
f 76/1/70 78/1/70 82/1/70
f 76/1/70 82/1/70 85/1/70
f 88/1/71 86/1/71 87/1/71
f 88/1/71 87/1/71 89/1/71
f 93/1/72 92/1/72 90/1/72
f 93/1/72 90/1/72 91/1/72
f 88/1/73 89/1/73 92/1/73
f 88/1/73 92/1/73 93/1/73
f 89/1/74 87/1/74 90/1/74
f 89/1/74 90/1/74 92/1/74
f 86/1/75 88/1/75 93/1/75
f 86/1/75 93/1/75 91/1/75
f 87/1/76 86/1/76 91/1/76
f 87/1/76 91/1/76 90/1/76
f 96/1/77 97/1/77 95/1/77
f 96/1/77 95/1/77 94/1/77
f 101/1/78 99/1/78 98/1/78
f 101/1/78 98/1/78 100/1/78
f 96/1/79 101/1/79 100/1/79
f 96/1/79 100/1/79 97/1/79
f 97/1/80 100/1/80 98/1/80
f 97/1/80 98/1/80 95/1/80
f 94/1/81 99/1/81 101/1/81
f 94/1/81 101/1/81 96/1/81
f 95/1/82 98/1/82 99/1/82
f 95/1/82 99/1/82 94/1/82
