# prebaked split of model.obj material Moustache
mtllib Moustache.mtl
usemtl Moustache
v -0.003331 1.561108 0.219013
v -0.002511 1.551729 0.209628
v -0.001697 1.539085 0.213651
v -0.002517 1.548463 0.223035
v -0.009745 1.560719 0.218667
v -0.007432 1.551294 0.209182
v -0.006194 1.538427 0.213314
v -0.008506 1.547852 0.222799
v -0.015680 1.559139 0.217551
v -0.011909 1.550456 0.208795
v -0.010147 1.538332 0.212816
v -0.013917 1.547015 0.221574
v -0.020939 1.556448 0.215774
v -0.016209 1.549144 0.208403
v -0.013997 1.538597 0.212134
v -0.018727 1.545901 0.219506
v -0.025355 1.552798 0.213525
v -0.020521 1.547272 0.207929
v -0.018156 1.538953 0.211162
v -0.022990 1.544480 0.216759
v -0.028915 1.548377 0.211010
v -0.024941 1.544764 0.207319
v -0.022880 1.539092 0.209782
v -0.026854 1.542706 0.213474
v -0.031782 1.543333 0.208369
v -0.029503 1.541586 0.206559
v -0.028250 1.538748 0.207939
v -0.030529 1.540495 0.209748
v -0.034232 1.537732 0.205659
v 0.003543 1.560276 0.218555
v 0.003599 1.551810 0.210163
v 0.003606 1.540454 0.213775
v 0.003550 1.548920 0.222167
v 0.010408 1.561136 0.219076
v 0.009715 1.551754 0.209685
v 0.008916 1.539107 0.213700
v 0.009609 1.548489 0.223091
v 0.016827 1.560774 0.218790
v 0.014641 1.551340 0.209284
v 0.013418 1.538468 0.213405
v 0.015604 1.547903 0.222911
v 0.022779 1.559218 0.217730
v 0.019126 1.550520 0.208938
v 0.017376 1.538388 0.212944
v 0.021029 1.547087 0.221735
v 0.028066 1.556549 0.216001
v 0.023435 1.549226 0.208586
v 0.021231 1.538670 0.212298
v 0.025862 1.545993 0.219712
v 0.032518 1.552918 0.213794
v 0.027759 1.547370 0.208153
v 0.025398 1.539043 0.211364
v 0.030156 1.544590 0.217006
v 0.036119 1.548512 0.211311
v 0.032193 1.544882 0.207584
v 0.030133 1.539202 0.210028
v 0.034059 1.542831 0.213755
v 0.039031 1.543479 0.208698
v 0.036776 1.541723 0.206866
v 0.035522 1.538880 0.208234
v 0.037777 1.540635 0.210065
v 0.041529 1.537888 0.206010
vt 0.000000 0.000000
vn 0.105900 0.304700 0.946500
vn 0.045000 0.706100 -0.706600
vn 0.092800 -0.298900 -0.949800
vn 0.157300 -0.693100 0.703500
vn -0.068700 0.298700 0.951900
vn -0.002100 0.708200 -0.706000
vn 0.113000 -0.294300 -0.949000
vn 0.046400 -0.703700 0.709000
vn -0.250000 0.273100 0.928900
vn -0.059200 0.698500 -0.713100
vn 0.131900 -0.293100 -0.946900
vn -0.056100 -0.717900 0.693900
vn -0.421000 0.226600 0.878300
vn -0.116700 0.673900 -0.729500
vn 0.161800 -0.293800 -0.942100
vn -0.137300 -0.738700 0.659900
vn -0.561900 0.163000 0.811000
vn -0.167700 0.636200 -0.753100
vn 0.211600 -0.292900 -0.932400
vn -0.178400 -0.762100 0.622400
vn -0.660600 0.094300 0.744800
vn -0.208100 0.591200 -0.779200
vn 0.274100 -0.287000 -0.917900
vn -0.177300 -0.780300 0.599800
vn -0.716800 0.035300 0.696400
vn -0.237600 0.546800 -0.802900
vn 0.334400 -0.276600 -0.900900
vn -0.146900 -0.786700 0.599500
vn -0.741000 -0.000800 0.671500
vn -0.259900 0.510400 -0.819700
vn 0.382100 -0.262000 -0.886200
vn -0.103900 -0.778000 0.619600
vn -0.116000 0.304200 0.945500
vn -0.041400 0.706000 -0.707000
vn -0.082700 -0.299300 -0.950600
vn -0.160900 -0.693700 0.702000
vn 0.058700 0.299000 0.952500
vn 0.005700 0.708200 -0.706000
vn -0.103000 -0.294700 -0.950000
vn -0.050100 -0.703900 0.708500
vn 0.240200 0.274100 0.931200
vn 0.063000 0.698800 -0.712600
vn -0.121900 -0.293700 -0.948100
vn 0.052600 -0.717700 0.694400
vn 0.411900 0.228300 0.882200
vn 0.120700 0.674400 -0.728400
vn -0.151900 -0.294500 -0.943500
vn 0.134200 -0.738200 0.661100
vn 0.553700 0.165400 0.816100
vn 0.172000 0.636900 -0.751500
vn -0.201700 -0.293800 -0.934400
vn 0.175700 -0.761300 0.624100
vn 0.653300 0.097000 0.750900
vn 0.212900 0.592000 -0.777300
vn -0.264400 -0.288100 -0.920400
vn 0.175000 -0.779500 0.601400
vn 0.710200 0.038300 0.703000
vn 0.242800 0.547800 -0.800600
vn -0.324800 -0.277900 -0.904000
vn 0.144600 -0.786200 0.600900
vn 0.734800 0.002200 0.678300
vn 0.265400 0.511500 -0.817300
vn -0.372800 -0.263500 -0.889700
vn 0.101400 -0.777600 0.620600
f 30/1/1 1/1/1 4/1/1
f 30/1/1 4/1/1 33/1/1
f 31/1/2 2/1/2 1/1/2
f 31/1/2 1/1/2 30/1/2
f 32/1/3 3/1/3 2/1/3
f 32/1/3 2/1/3 31/1/3
f 33/1/4 4/1/4 3/1/4
f 33/1/4 3/1/4 32/1/4
f 1/1/5 5/1/5 8/1/5
f 1/1/5 8/1/5 4/1/5
f 2/1/6 6/1/6 5/1/6
f 2/1/6 5/1/6 1/1/6
f 3/1/7 7/1/7 6/1/7
f 3/1/7 6/1/7 2/1/7
f 4/1/8 8/1/8 7/1/8
f 4/1/8 7/1/8 3/1/8
f 5/1/9 9/1/9 12/1/9
f 5/1/9 12/1/9 8/1/9
f 6/1/10 10/1/10 9/1/10
f 6/1/10 9/1/10 5/1/10
f 7/1/11 11/1/11 10/1/11
f 7/1/11 10/1/11 6/1/11
f 8/1/12 12/1/12 11/1/12
f 8/1/12 11/1/12 7/1/12
f 9/1/13 13/1/13 16/1/13
f 9/1/13 16/1/13 12/1/13
f 10/1/14 14/1/14 13/1/14
f 10/1/14 13/1/14 9/1/14
f 11/1/15 15/1/15 14/1/15
f 11/1/15 14/1/15 10/1/15
f 12/1/16 16/1/16 15/1/16
f 12/1/16 15/1/16 11/1/16
f 13/1/17 17/1/17 20/1/17
f 13/1/17 20/1/17 16/1/17
f 14/1/18 18/1/18 17/1/18
f 14/1/18 17/1/18 13/1/18
f 15/1/19 19/1/19 18/1/19
f 15/1/19 18/1/19 14/1/19
f 16/1/20 20/1/20 19/1/20
f 16/1/20 19/1/20 15/1/20
f 17/1/21 21/1/21 24/1/21
f 17/1/21 24/1/21 20/1/21
f 18/1/22 22/1/22 21/1/22
f 18/1/22 21/1/22 17/1/22
f 19/1/23 23/1/23 22/1/23
f 19/1/23 22/1/23 18/1/23
f 20/1/24 24/1/24 23/1/24
f 20/1/24 23/1/24 19/1/24
f 21/1/25 25/1/25 28/1/25
f 21/1/25 28/1/25 24/1/25
f 22/1/26 26/1/26 25/1/26
f 22/1/26 25/1/26 21/1/26
f 23/1/27 27/1/27 26/1/27
f 23/1/27 26/1/27 22/1/27
f 24/1/28 28/1/28 27/1/28
f 24/1/28 27/1/28 23/1/28
f 25/1/29 29/1/29 28/1/29
f 26/1/30 29/1/30 25/1/30
f 27/1/31 29/1/31 26/1/31
f 28/1/32 29/1/32 27/1/32
f 30/1/33 33/1/33 37/1/33
f 30/1/33 37/1/33 34/1/33
f 31/1/34 30/1/34 34/1/34
f 31/1/34 34/1/34 35/1/34
f 32/1/35 31/1/35 35/1/35
f 32/1/35 35/1/35 36/1/35
f 33/1/36 32/1/36 36/1/36
f 33/1/36 36/1/36 37/1/36
f 34/1/37 37/1/37 41/1/37
f 34/1/37 41/1/37 38/1/37
f 35/1/38 34/1/38 38/1/38
f 35/1/38 38/1/38 39/1/38
f 36/1/39 35/1/39 39/1/39
f 36/1/39 39/1/39 40/1/39
f 37/1/40 36/1/40 40/1/40
f 37/1/40 40/1/40 41/1/40
f 38/1/41 41/1/41 45/1/41
f 38/1/41 45/1/41 42/1/41
f 39/1/42 38/1/42 42/1/42
f 39/1/42 42/1/42 43/1/42
f 40/1/43 39/1/43 43/1/43
f 40/1/43 43/1/43 44/1/43
f 41/1/44 40/1/44 44/1/44
f 41/1/44 44/1/44 45/1/44
f 42/1/45 45/1/45 49/1/45
f 42/1/45 49/1/45 46/1/45
f 43/1/46 42/1/46 46/1/46
f 43/1/46 46/1/46 47/1/46
f 44/1/47 43/1/47 47/1/47
f 44/1/47 47/1/47 48/1/47
f 45/1/48 44/1/48 48/1/48
f 45/1/48 48/1/48 49/1/48
f 46/1/49 49/1/49 53/1/49
f 46/1/49 53/1/49 50/1/49
f 47/1/50 46/1/50 50/1/50
f 47/1/50 50/1/50 51/1/50
f 48/1/51 47/1/51 51/1/51
f 48/1/51 51/1/51 52/1/51
f 49/1/52 48/1/52 52/1/52
f 49/1/52 52/1/52 53/1/52
f 50/1/53 53/1/53 57/1/53
f 50/1/53 57/1/53 54/1/53
f 51/1/54 50/1/54 54/1/54
f 51/1/54 54/1/54 55/1/54
f 52/1/55 51/1/55 55/1/55
f 52/1/55 55/1/55 56/1/55
f 53/1/56 52/1/56 56/1/56
f 53/1/56 56/1/56 57/1/56
f 54/1/57 57/1/57 61/1/57
f 54/1/57 61/1/57 58/1/57
f 55/1/58 54/1/58 58/1/58
f 55/1/58 58/1/58 59/1/58
f 56/1/59 55/1/59 59/1/59
f 56/1/59 59/1/59 60/1/59
f 57/1/60 56/1/60 60/1/60
f 57/1/60 60/1/60 61/1/60
f 58/1/61 61/1/61 62/1/61
f 59/1/62 58/1/62 62/1/62
f 60/1/63 59/1/63 62/1/63
f 61/1/64 60/1/64 62/1/64
