# prebaked split of model.obj material Worker_Vest
mtllib Worker_Vest.mtl
usemtl Worker_Vest
v 0.160668 1.436414 0.145237
v 0.157956 1.447057 0.028567
v 0.135387 1.370566 0.014924
v 0.136787 1.324448 0.153167
v 0.172344 1.458416 0.091973
v 0.074676 1.487115 0.123795
v 0.137509 1.068837 0.036267
v 0.094576 1.071758 -0.034585
v 0.132334 1.070257 0.006756
v 0.089732 1.502599 0.090137
v 0.077499 1.501560 0.044650
v 0.071478 1.069602 0.138898
v 0.023381 1.269679 0.184593
v 0.049062 1.435471 0.164698
v 0.087635 1.284885 0.165903
v 0.121737 1.069907 0.097585
v 0.108402 1.446016 0.156126
v 0.127595 1.294743 0.033388
v 0.134916 1.280338 0.133250
v 0.029049 1.254630 0.176517
v 0.087041 1.261388 0.154366
v 0.037370 1.494398 0.022585
v 0.055431 1.452727 0.002035
v 0.067375 1.347925 -0.024289
v 0.028261 1.076320 -0.034893
v 0.063381 1.289629 -0.024087
v 0.042879 1.474422 0.136924
v 0.086720 1.487991 0.046597
v 0.086466 1.473562 0.123969
v 0.100647 1.491745 0.087606
v 0.043115 1.478360 0.018962
v 0.040785 1.452228 0.150786
v 0.077370 1.459179 0.140817
v 0.097840 1.405346 0.169464
v 0.036177 1.386714 0.179193
v 0.149978 1.406466 0.157855
v 0.144311 1.417415 0.014523
v 0.061734 1.410740 -0.015350
v 0.167863 1.451761 0.119853
v 0.083433 1.495780 0.107512
v 0.096692 1.483778 0.103469
v 0.085355 1.503212 0.063112
v 0.168011 1.459724 0.054234
v 0.098419 1.492526 0.063041
v 0.138772 1.395059 0.011917
v 0.138930 1.374284 0.158476
v 0.027493 1.340788 0.187430
v 0.066201 1.379442 -0.021681
v 0.090347 1.357934 0.178977
v 0.090858 1.203570 0.146251
v 0.126394 1.201290 0.096257
v 0.032846 1.199678 0.165884
v 0.115015 1.229369 0.018889
v 0.054072 1.240076 -0.021420
v 0.128664 1.201906 0.061005
v 0.132212 1.235685 0.066919
v 0.068536 1.501666 0.046902
v 0.066895 1.488396 0.121312
v 0.080133 1.502292 0.089340
v 0.035667 1.495794 0.027546
v 0.040990 1.477535 0.133449
v 0.074721 1.496279 0.105665
v 0.076077 1.502838 0.064491
v 0.056415 1.479334 0.051602
v 0.053987 1.469031 0.108401
v 0.063206 1.480225 0.083889
v 0.032530 1.474170 0.036841
v 0.035267 1.459820 0.117685
v 0.059145 1.475325 0.096346
v 0.060868 1.480345 0.064904
v 0.135851 0.995999 0.094446
v 0.089226 0.993069 -0.048858
v 0.149010 0.990781 0.018120
v 0.133170 0.988294 -0.016209
v 0.096620 0.995596 0.132038
v 0.029149 0.997244 -0.056512
v 0.130272 1.482564 0.089948
v 0.124953 1.475999 0.108239
v 0.118954 1.463868 0.134082
v 0.109648 1.416781 0.002496
v 0.104762 1.356517 -0.005704
v 0.102047 1.293156 0.010221
v 0.120702 1.454183 0.017177
v 0.130342 1.481573 0.060079
v 0.106207 1.384085 -0.003880
v 0.126943 1.470294 0.035524
v 0.131628 1.101618 0.018104
v 0.135797 1.103249 0.046921
v 0.095439 1.105373 -0.026192
v 0.050899 1.103803 0.148758
v 0.115221 1.104570 0.109414
v 0.034616 1.113312 -0.033363
v 0.115312 1.305402 0.159493
v 0.134028 1.069372 0.064448
v 0.142909 1.439616 0.151086
v 0.114493 1.270262 0.142112
v 0.127106 1.405389 0.163474
v 0.120649 1.368858 0.166866
v 0.113538 1.201901 0.124638
v 0.148840 0.993956 0.052922
v 0.131509 1.104393 0.080470
v 0.157629 1.469427 0.091199
v 0.146986 1.449091 0.141262
v 0.159948 1.469242 0.056669
v 0.152499 1.453148 0.032205
v 0.153084 1.462971 0.113105
v 0.096326 1.232799 0.005975
v 0.069995 1.073102 -0.033708
v 0.073400 1.107451 -0.028465
v 0.128844 1.389582 0.005983
v 0.126149 1.362875 0.007013
v 0.118875 1.294151 0.025306
v 0.134077 1.417820 0.011026
v 0.147544 1.446522 0.026094
v 0.062839 0.993529 -0.048507
v 0.177162 1.454957 0.091154
v 0.155415 1.367171 0.146840
v 0.167263 1.433040 0.142425
v 0.145681 1.383451 0.022114
v 0.164632 1.445466 0.030879
v 0.149476 1.334621 0.125054
v 0.156798 1.405546 0.156574
v 0.152563 1.421082 0.022799
v 0.170985 1.445625 0.125333
v 0.173206 1.454864 0.052618
v 0.137249 1.339998 0.040331
v 0.147719 1.399546 0.017069
v 0.153817 1.391004 0.153663
v 0.145025 1.303707 0.082160
v -0.153828 1.442264 0.136418
v -0.141927 1.443596 0.020977
v 0.005173 1.292956 -0.026505
v 0.005339 1.450659 -0.006361
v -0.123975 1.368038 0.014073
v -0.129086 1.324401 0.152650
v 0.005089 1.344680 -0.028934
v -0.160134 1.460809 0.080426
v -0.065474 1.488684 0.118954
v -0.085538 1.069142 0.130850
v -0.110207 1.070140 0.051885
v -0.017312 1.076989 -0.022092
v -0.104020 1.069747 0.107789
v -0.079075 1.503671 0.083948
v 0.005255 1.491465 0.015711
v -0.065916 1.501340 0.039784
v 0.023042 1.069992 0.156370
v -0.009671 1.269620 0.185108
v -0.041218 1.436746 0.162486
v -0.076912 1.284588 0.166744
v -0.032941 1.070777 0.160376
v -0.100904 1.449131 0.150904
v -0.117833 1.294265 0.032458
v -0.124224 1.279872 0.135010
v -0.013466 1.254556 0.177517
v -0.072541 1.261110 0.158073
v -0.026452 1.494025 0.019921
v -0.043899 1.451687 -0.000320
v -0.056848 1.347282 -0.024874
v -0.061873 1.075922 0.000778
v -0.053365 1.289415 -0.024394
v -0.034272 1.475566 0.133988
v -0.074882 1.487628 0.041461
v -0.077239 1.475308 0.118728
v -0.089565 1.492812 0.080702
v 0.005278 1.475053 0.010006
v -0.032175 1.477845 0.016538
v -0.032561 1.453303 0.148505
v -0.068891 1.460952 0.136670
v -0.090843 1.407144 0.167171
v -0.028450 1.387389 0.178314
v -0.144853 1.411281 0.153380
v -0.129950 1.413280 0.011088
v 0.005228 1.407430 -0.023470
v -0.050283 1.409428 -0.016779
v -0.158307 1.456279 0.108969
v -0.073517 1.497200 0.101837
v -0.086359 1.485286 0.096952
v -0.073947 1.503470 0.057417
v -0.152949 1.458712 0.043918
v -0.086523 1.492695 0.056591
v -0.126088 1.391683 0.010208
v -0.132891 1.376170 0.157271
v 0.005065 1.373881 -0.028473
v -0.019377 1.340810 0.187188
v -0.055122 1.378286 -0.022562
v -0.082951 1.358499 0.178142
v -0.066733 1.203320 0.156810
v -0.107173 1.200927 0.114242
v -0.008954 1.199611 0.168282
v 0.003509 1.248229 -0.024354
v -0.107506 1.229001 0.029711
v -0.047922 1.239900 -0.018759
v -0.114368 1.201533 0.081176
v -0.120162 1.235267 0.078782
v -0.057238 1.501527 0.042452
v 0.005219 1.493196 0.021325
v -0.057677 1.489771 0.116875
v -0.069634 1.503233 0.083744
v -0.024836 1.495495 0.024854
v -0.032307 1.478612 0.130554
v -0.064866 1.497516 0.100509
v -0.064958 1.503105 0.059347
v -0.045951 1.479167 0.048727
v 0.004978 1.471676 0.031989
v -0.044843 1.469609 0.105748
v -0.053342 1.480566 0.080623
v -0.022272 1.473941 0.034971
v -0.026466 1.460291 0.115920
v -0.049657 1.475806 0.093367
v -0.050619 1.480371 0.061813
v -0.031181 0.998525 0.171762
v -0.119978 0.987049 0.046411
v -0.098676 0.992683 0.134458
v -0.029314 0.999528 -0.035518
v -0.117669 0.986796 0.102202
v 0.020689 0.997654 0.165692
v -0.085130 0.995085 -0.004305
v -0.118669 1.484070 0.081168
v -0.114490 1.478246 0.099979
v -0.110151 1.466942 0.126957
v -0.096957 1.414227 -0.000009
v -0.093686 1.354838 -0.006467
v -0.092516 1.292801 0.010307
v -0.106559 1.451658 0.011793
v -0.117193 1.481487 0.051699
v -0.094530 1.381969 -0.005134
v -0.112573 1.468635 0.028052
v -0.006226 1.116870 -0.027545
v -0.102035 1.101264 0.106172
v -0.087363 1.103261 0.128479
v -0.105348 1.104572 0.049615
v 0.010817 1.103761 0.157544
v -0.038607 1.104720 0.160414
v -0.054705 1.113232 -0.010099
v -0.106834 1.305047 0.158565
v -0.063296 1.070094 0.146854
v -0.135989 1.444735 0.143387
v -0.101485 1.269882 0.146114
v -0.120934 1.408378 0.160349
v -0.113838 1.369977 0.165782
v -0.090881 1.201581 0.139600
v -0.071182 0.996720 0.155524
v -0.064564 1.104620 0.149669
v -0.145383 1.471517 0.080210
v -0.139104 1.454019 0.132381
v -0.145215 1.468693 0.046205
v -0.136783 1.450248 0.024257
v -0.142669 1.466447 0.102689
v -0.089895 1.232487 0.014154
v -0.092375 1.071913 0.033294
v -0.089865 1.106978 0.031022
v -0.116631 1.386708 0.004519
v -0.114906 1.360672 0.006234
v -0.109178 1.293733 0.024842
v -0.120337 1.414267 0.007891
v -0.131977 1.443141 0.019291
v -0.102847 0.988443 0.025085
v -0.164929 1.457370 0.079502
v -0.149002 1.368356 0.146065
v -0.160491 1.439045 0.133445
v -0.133492 1.380054 0.021021
v -0.148586 1.442065 0.023049
v -0.141488 1.334305 0.124652
v -0.151936 1.410730 0.151886
v -0.137878 1.416931 0.018628
v -0.162176 1.450677 0.114724
v -0.157991 1.453596 0.042419
v -0.127154 1.338438 0.039868
v -0.134533 1.395689 0.015063
v -0.148665 1.394597 0.151054
v -0.135768 1.302866 0.082260
vt 0.000000 0.000000
vn 0.662900 0.745900 -0.064700
vn 0.345800 0.599500 0.721800
vn 0.938000 0.152300 -0.311300
vn 0.077900 0.277600 0.957500
vn 0.937900 0.151000 0.312400
vn 0.354000 -0.386700 0.851600
vn 0.240500 0.351100 -0.904900
vn 0.620800 0.519600 0.587100
vn 0.433900 -0.151500 0.888100
vn 0.670000 0.149700 -0.727100
vn 0.184800 0.301700 -0.935300
vn 0.088500 0.052000 -0.994700
vn 0.655700 0.123700 0.744800
vn 0.110500 0.178200 -0.977800
vn 0.963800 0.007400 0.266600
vn 0.346600 -0.131000 0.928800
vn 0.580200 -0.138400 -0.802600
vn 0.449300 0.275200 -0.849900
vn 0.137700 0.216400 -0.966500
vn 0.602700 -0.071000 -0.794800
vn 0.125200 0.571000 -0.811400
vn 0.430500 0.743000 0.512500
vn 0.669200 0.743100 -0.007100
vn 0.008700 0.704500 0.709700
vn 0.206500 0.520100 0.828800
vn 0.122900 0.380000 -0.916800
vn 0.094300 0.170200 0.980900
vn 0.154500 0.604900 -0.781100
vn 0.043200 -0.056000 -0.997500
vn 0.349400 0.187900 -0.918000
vn 0.522400 0.796500 0.304500
vn 0.671900 0.577200 0.464100
vn 0.509600 0.657400 -0.555100
vn 0.666000 0.575100 -0.475100
vn 0.996600 0.076400 -0.030700
vn 0.058500 -0.025900 -0.998000
vn 0.235900 -0.117600 0.964600
vn 0.415200 0.066200 -0.907300
vn -0.023600 0.061200 -0.997800
vn 0.990900 -0.125000 0.050000
vn 0.878000 0.117000 -0.464100
vn 0.941500 -0.086100 -0.325800
vn -0.024600 0.957600 -0.287200
vn -0.035200 0.999000 0.028000
vn -0.022100 0.892300 0.450900
vn -0.031800 0.968100 -0.248600
vn -0.027900 0.997400 -0.066200
vn -0.038500 0.773300 0.632900
vn -0.039800 0.938300 0.343500
vn -0.544300 0.667000 -0.508900
vn -0.526300 0.418400 0.740200
vn -0.797300 0.600000 -0.066600
vn -0.205600 0.424100 0.882000
vn -0.792500 0.609100 -0.030000
vn -0.806300 0.523100 0.276100
vn -0.811300 0.570700 0.127000
vn -0.294900 0.228600 -0.927800
vn 0.136200 0.872800 0.468600
vn 0.204800 0.879400 0.429800
vn 0.017900 0.765300 0.643400
vn 0.259900 0.864900 -0.429400
vn 0.188100 0.700100 -0.688800
vn 0.310700 0.950400 -0.016000
vn 0.382700 0.104500 -0.917900
vn 0.412700 -0.128200 0.901800
vn 0.326100 -0.027900 0.944900
vn 0.751000 -0.270800 0.602200
vn 0.986000 0.159800 0.047700
vn 0.534900 -0.374600 0.757400
vn 0.275200 0.248300 0.928800
vn 0.705200 -0.242900 -0.666100
vn 0.260100 0.331600 -0.906800
vn 0.678300 0.032300 -0.734100
vn 0.639700 -0.135600 -0.756600
vn 0.412900 0.049600 -0.909400
vn -0.017200 0.182000 -0.983200
vn 0.494100 0.662700 0.562800
vn 0.361200 0.281300 0.889000
vn 0.370600 -0.156200 0.915600
vn 0.529300 -0.141700 0.836500
vn 0.911300 -0.264500 0.315600
vn 0.970700 -0.222500 0.090300
vn 0.941300 -0.125300 -0.313400
vn 0.911100 -0.229300 -0.342600
vn 0.664000 -0.229900 -0.711500
vn 0.614100 0.004600 -0.789200
vn 0.571600 0.063000 -0.818100
vn 0.432500 0.740400 -0.514600
vn 0.629900 0.774600 -0.056100
vn 0.662600 0.689900 0.291500
vn -0.669100 0.734600 -0.112600
vn -0.349900 0.664900 0.659900
vn -0.826500 0.132100 0.547300
vn -0.094900 0.308800 0.946400
vn -0.389900 0.141700 0.909900
vn -0.323800 -0.371900 0.870000
vn -0.229300 0.317100 -0.920300
vn -0.655100 0.528200 0.540200
vn -0.082300 -0.056800 0.995000
vn -0.988000 0.134300 0.075900
vn -0.125300 0.286700 -0.949800
vn -0.078500 0.048100 -0.995800
vn 0.094200 0.140800 0.985500
vn -0.097300 0.171000 -0.980500
vn -0.759800 -0.099900 0.642400
vn -0.263400 -0.113300 0.958000
vn -0.580600 -0.138000 -0.802400
vn -0.420900 0.256500 -0.870100
vn -0.788600 0.208700 -0.578400
vn -0.632900 -0.112600 -0.766000
vn -0.094400 0.561900 -0.821800
vn -0.428700 0.795400 0.428400
vn -0.666100 0.736000 -0.120800
vn -0.019500 0.718800 0.694900
vn -0.236400 0.537900 0.809200
vn -0.101500 0.370300 -0.923400
vn -0.101500 0.185600 0.977400
vn -0.120700 0.512600 -0.850100
vn -0.060600 -0.084600 -0.994600
vn -0.349000 0.171800 -0.921200
vn -0.524800 0.826800 0.202300
vn -0.705200 0.573900 0.416300
vn -0.480800 0.589500 -0.649100
vn -0.652700 0.556400 -0.514100
vn -0.926600 -0.077600 0.367900
vn -0.050900 -0.028200 -0.998300
vn -0.231100 -0.114800 0.966100
vn -0.416800 0.063200 -0.906800
vn -0.224000 -0.006300 -0.974600
vn -0.965400 -0.218800 0.141700
vn -0.995700 -0.075000 -0.054100
vn -0.961100 -0.155700 -0.228000
vn 0.038100 0.954600 -0.295400
vn 0.043300 0.999100 0.001900
vn 0.012600 0.901700 0.432200
vn 0.040700 0.963300 -0.265200
vn 0.033700 0.995200 -0.091500
vn 0.020000 0.782600 0.622200
vn 0.033700 0.945900 0.322600
vn 0.578000 0.628700 -0.520300
vn 0.504200 0.437100 0.744800
vn 0.816400 0.574100 -0.062500
vn 0.135800 0.436400 0.889400
vn 0.812300 0.582600 -0.025900
vn 0.808200 0.514700 0.286200
vn 0.822100 0.552700 0.136700
vn -0.472900 0.205500 -0.856800
vn -0.145800 0.891300 0.429300
vn -0.223000 0.894500 0.387600
vn -0.031100 0.786400 0.616900
vn -0.239900 0.839000 -0.488300
vn -0.170900 0.671600 -0.721000
vn -0.310800 0.947600 -0.074000
vn -0.686300 -0.055000 -0.725200
vn -0.397100 -0.129000 0.908700
vn -0.332500 0.033400 0.942500
vn -0.691900 -0.255100 0.675400
vn -0.600500 0.148600 0.785700
vn -0.525700 -0.358600 0.771400
vn -0.294100 0.344200 0.891600
vn -0.696300 -0.236800 -0.677500
vn -0.241200 0.241800 -0.939900
vn -0.661400 -0.073200 -0.746500
vn -0.641200 -0.134400 -0.755500
vn -0.419900 0.013900 -0.907500
vn -0.750000 0.144200 -0.645500
vn -0.489200 0.733100 0.472500
vn -0.379500 0.389000 0.839500
vn -0.353700 -0.049300 0.934100
vn -0.524100 -0.127000 0.842100
vn -0.908500 -0.291800 0.299200
vn -0.962100 -0.253500 0.100000
vn -0.935100 -0.178800 -0.305900
vn -0.909300 -0.213600 -0.357200
vn -0.669500 -0.230400 -0.706100
vn -0.609500 -0.020300 -0.792500
vn -0.551300 -0.010200 -0.834300
vn -0.410400 0.669100 -0.619600
vn -0.619900 0.763800 -0.179900
vn -0.662100 0.728500 0.175800
f 44/1/1 42/1/1 10/1/1
f 44/1/1 10/1/1 30/1/1
f 1/1/2 103/1/2 95/1/2
f 74/1/3 9/1/3 7/1/3
f 74/1/3 7/1/3 73/1/3
f 34/1/4 17/1/4 14/1/4
f 34/1/4 14/1/4 35/1/4
f 100/1/5 94/1/5 16/1/5
f 100/1/5 16/1/5 71/1/5
f 21/1/6 15/1/6 13/1/6
f 21/1/6 13/1/6 20/1/6
f 38/1/7 23/1/7 83/1/7
f 38/1/7 83/1/7 80/1/7
f 41/1/8 40/1/8 6/1/8
f 41/1/8 6/1/8 29/1/8
f 52/1/9 90/1/9 91/1/9
f 52/1/9 91/1/9 50/1/9
f 72/1/10 8/1/10 9/1/10
f 72/1/10 9/1/10 74/1/10
f 31/1/11 165/1/11 144/1/11
f 31/1/11 144/1/11 22/1/11
f 183/1/12 48/1/12 24/1/12
f 183/1/12 24/1/12 136/1/12
f 71/1/13 16/1/13 12/1/13
f 71/1/13 12/1/13 75/1/13
f 183/1/14 173/1/14 38/1/14
f 183/1/14 38/1/14 48/1/14
f 101/1/15 88/1/15 51/1/15
f 101/1/15 51/1/15 99/1/15
f 50/1/16 21/1/16 20/1/16
f 50/1/16 20/1/16 52/1/16
f 26/1/17 24/1/17 81/1/17
f 26/1/17 81/1/17 82/1/17
f 28/1/18 31/1/18 22/1/18
f 28/1/18 22/1/18 11/1/18
f 76/1/19 25/1/19 108/1/19
f 76/1/19 108/1/19 115/1/19
f 54/1/20 26/1/20 82/1/20
f 54/1/20 82/1/20 107/1/20
f 31/1/21 23/1/21 133/1/21
f 31/1/21 133/1/21 165/1/21
f 39/1/22 106/1/22 103/1/22
f 39/1/22 103/1/22 1/1/22
f 43/1/23 104/1/23 102/1/23
f 43/1/23 102/1/23 5/1/23
f 17/1/24 33/1/24 32/1/24
f 17/1/24 32/1/24 14/1/24
f 32/1/25 33/1/25 29/1/25
f 32/1/25 29/1/25 6/1/25
f 32/1/25 6/1/25 27/1/25
f 133/1/26 23/1/26 38/1/26
f 133/1/26 38/1/26 173/1/26
f 49/1/27 34/1/27 35/1/27
f 49/1/27 35/1/27 47/1/27
f 2/1/28 114/1/28 105/1/28
f 132/1/29 26/1/29 54/1/29
f 132/1/29 54/1/29 190/1/29
f 48/1/30 38/1/30 80/1/30
f 48/1/30 80/1/30 85/1/30
f 5/1/31 102/1/31 106/1/31
f 5/1/31 106/1/31 39/1/31
f 30/1/32 10/1/32 40/1/32
f 30/1/32 40/1/32 41/1/32
f 2/1/33 105/1/33 104/1/33
f 2/1/33 104/1/33 43/1/33
f 28/1/34 11/1/34 42/1/34
f 28/1/34 42/1/34 44/1/34
f 51/1/35 88/1/35 87/1/35
f 51/1/35 87/1/35 55/1/35
f 136/1/36 24/1/36 26/1/36
f 136/1/36 26/1/36 132/1/36
f 15/1/37 49/1/37 47/1/37
f 15/1/37 47/1/37 13/1/37
f 24/1/38 48/1/38 85/1/38
f 24/1/38 85/1/38 81/1/38
f 228/1/39 190/1/39 54/1/39
f 228/1/39 54/1/39 92/1/39
f 51/1/40 55/1/40 56/1/40
f 51/1/40 56/1/40 19/1/40
f 87/1/41 89/1/41 53/1/41
f 87/1/41 53/1/41 55/1/41
f 18/1/42 56/1/42 55/1/42
f 18/1/42 55/1/42 53/1/42
f 22/1/43 144/1/43 196/1/43
f 22/1/43 196/1/43 60/1/43
f 10/1/44 42/1/44 63/1/44
f 10/1/44 63/1/44 59/1/44
f 6/1/45 40/1/45 62/1/45
f 6/1/45 62/1/45 58/1/45
f 11/1/46 22/1/46 60/1/46
f 11/1/46 60/1/46 57/1/46
f 42/1/47 11/1/47 57/1/47
f 42/1/47 57/1/47 63/1/47
f 27/1/48 6/1/48 58/1/48
f 27/1/48 58/1/48 61/1/48
f 40/1/49 10/1/49 59/1/49
f 40/1/49 59/1/49 62/1/49
f 61/1/50 58/1/50 65/1/50
f 61/1/50 65/1/50 68/1/50
f 57/1/51 60/1/51 67/1/51
f 57/1/51 67/1/51 64/1/51
f 58/1/52 62/1/52 69/1/52
f 58/1/52 69/1/52 65/1/52
f 60/1/53 196/1/53 204/1/53
f 60/1/53 204/1/53 67/1/53
f 62/1/54 59/1/54 66/1/54
f 62/1/54 66/1/54 69/1/54
f 63/1/55 57/1/55 64/1/55
f 63/1/55 64/1/55 70/1/55
f 59/1/56 63/1/56 70/1/56
f 59/1/56 70/1/56 66/1/56
f 141/1/57 25/1/57 76/1/57
f 141/1/57 76/1/57 214/1/57
f 79/1/58 78/1/58 41/1/58
f 79/1/58 41/1/58 29/1/58
f 78/1/59 77/1/59 30/1/59
f 78/1/59 30/1/59 41/1/59
f 17/1/60 79/1/60 29/1/60
f 17/1/60 29/1/60 33/1/60
f 84/1/61 86/1/61 28/1/61
f 84/1/61 28/1/61 44/1/61
f 86/1/62 83/1/62 23/1/62
f 86/1/62 23/1/62 31/1/62
f 86/1/62 31/1/62 28/1/62
f 77/1/63 84/1/63 44/1/63
f 77/1/63 44/1/63 30/1/63
f 54/1/64 107/1/64 109/1/64
f 54/1/64 109/1/64 92/1/64
f 4/1/65 46/1/65 98/1/65
f 4/1/65 98/1/65 93/1/65
f 46/1/66 36/1/66 97/1/66
f 46/1/66 97/1/66 98/1/66
f 51/1/67 19/1/67 96/1/67
f 51/1/67 96/1/67 99/1/67
f 73/1/68 7/1/68 94/1/68
f 73/1/68 94/1/68 100/1/68
f 19/1/69 4/1/69 93/1/69
f 19/1/69 93/1/69 96/1/69
f 36/1/70 1/1/70 95/1/70
f 36/1/70 95/1/70 97/1/70
f 112/1/71 111/1/71 3/1/71
f 112/1/71 3/1/71 18/1/71
f 113/1/72 114/1/72 2/1/72
f 113/1/72 2/1/72 37/1/72
f 53/1/73 112/1/73 18/1/73
f 111/1/74 110/1/74 45/1/74
f 111/1/74 45/1/74 3/1/74
f 110/1/75 113/1/75 37/1/75
f 110/1/75 37/1/75 45/1/75
f 115/1/76 108/1/76 8/1/76
f 115/1/76 8/1/76 72/1/76
f 1/1/77 118/1/77 124/1/77
f 1/1/77 124/1/77 39/1/77
f 36/1/78 122/1/78 118/1/78
f 36/1/78 118/1/78 1/1/78
f 46/1/79 128/1/79 122/1/79
f 46/1/79 122/1/79 36/1/79
f 4/1/80 117/1/80 128/1/80
f 4/1/80 128/1/80 46/1/80
f 19/1/81 121/1/81 117/1/81
f 19/1/81 117/1/81 4/1/81
f 56/1/82 129/1/82 121/1/82
f 56/1/82 121/1/82 19/1/82
f 18/1/83 126/1/83 129/1/83
f 18/1/83 129/1/83 56/1/83
f 3/1/84 119/1/84 126/1/84
f 3/1/84 126/1/84 18/1/84
f 45/1/85 127/1/85 119/1/85
f 45/1/85 119/1/85 3/1/85
f 37/1/86 123/1/86 127/1/86
f 37/1/86 127/1/86 45/1/86
f 2/1/87 120/1/87 123/1/87
f 2/1/87 123/1/87 37/1/87
f 43/1/88 125/1/88 120/1/88
f 43/1/88 120/1/88 2/1/88
f 5/1/89 116/1/89 125/1/89
f 5/1/89 125/1/89 43/1/89
f 39/1/90 124/1/90 116/1/90
f 39/1/90 116/1/90 5/1/90
f 180/1/91 164/1/91 143/1/91
f 180/1/91 143/1/91 178/1/91
f 130/1/92 237/1/92 245/1/92
f 215/1/93 213/1/93 139/1/93
f 215/1/93 139/1/93 142/1/93
f 169/1/94 170/1/94 148/1/94
f 169/1/94 148/1/94 151/1/94
f 242/1/95 211/1/95 150/1/95
f 242/1/95 150/1/95 236/1/95
f 155/1/96 154/1/96 147/1/96
f 155/1/96 147/1/96 149/1/96
f 174/1/97 221/1/97 224/1/97
f 174/1/97 224/1/97 157/1/97
f 177/1/98 163/1/98 138/1/98
f 177/1/98 138/1/98 176/1/98
f 189/1/99 187/1/99 233/1/99
f 189/1/99 233/1/99 232/1/99
f 212/1/100 215/1/100 142/1/100
f 212/1/100 142/1/100 140/1/100
f 166/1/101 156/1/101 144/1/101
f 166/1/101 144/1/101 165/1/101
f 183/1/102 136/1/102 158/1/102
f 183/1/102 158/1/102 185/1/102
f 211/1/103 216/1/103 146/1/103
f 211/1/103 146/1/103 150/1/103
f 183/1/104 185/1/104 174/1/104
f 183/1/104 174/1/104 173/1/104
f 243/1/105 241/1/105 188/1/105
f 243/1/105 188/1/105 230/1/105
f 187/1/106 189/1/106 154/1/106
f 187/1/106 154/1/106 155/1/106
f 160/1/107 223/1/107 222/1/107
f 160/1/107 222/1/107 158/1/107
f 162/1/108 145/1/108 156/1/108
f 162/1/108 156/1/108 166/1/108
f 217/1/109 257/1/109 250/1/109
f 217/1/109 250/1/109 159/1/109
f 192/1/110 249/1/110 223/1/110
f 192/1/110 223/1/110 160/1/110
f 166/1/111 165/1/111 133/1/111
f 166/1/111 133/1/111 157/1/111
f 175/1/112 130/1/112 245/1/112
f 175/1/112 245/1/112 248/1/112
f 179/1/113 137/1/113 244/1/113
f 179/1/113 244/1/113 246/1/113
f 151/1/114 148/1/114 167/1/114
f 151/1/114 167/1/114 168/1/114
f 167/1/115 161/1/115 138/1/115
f 167/1/115 138/1/115 163/1/115
f 167/1/115 163/1/115 168/1/115
f 133/1/116 173/1/116 174/1/116
f 133/1/116 174/1/116 157/1/116
f 186/1/117 184/1/117 170/1/117
f 186/1/117 170/1/117 169/1/117
f 131/1/118 247/1/118 256/1/118
f 132/1/119 190/1/119 192/1/119
f 132/1/119 192/1/119 160/1/119
f 185/1/120 226/1/120 221/1/120
f 185/1/120 221/1/120 174/1/120
f 137/1/121 175/1/121 248/1/121
f 137/1/121 248/1/121 244/1/121
f 164/1/122 177/1/122 176/1/122
f 164/1/122 176/1/122 143/1/122
f 131/1/123 179/1/123 246/1/123
f 131/1/123 246/1/123 247/1/123
f 162/1/124 180/1/124 178/1/124
f 162/1/124 178/1/124 145/1/124
f 188/1/125 193/1/125 229/1/125
f 188/1/125 229/1/125 230/1/125
f 136/1/126 132/1/126 160/1/126
f 136/1/126 160/1/126 158/1/126
f 149/1/127 147/1/127 184/1/127
f 149/1/127 184/1/127 186/1/127
f 158/1/128 222/1/128 226/1/128
f 158/1/128 226/1/128 185/1/128
f 228/1/129 234/1/129 192/1/129
f 228/1/129 192/1/129 190/1/129
f 188/1/130 153/1/130 194/1/130
f 188/1/130 194/1/130 193/1/130
f 229/1/131 193/1/131 191/1/131
f 229/1/131 191/1/131 231/1/131
f 152/1/132 191/1/132 193/1/132
f 152/1/132 193/1/132 194/1/132
f 156/1/133 199/1/133 196/1/133
f 156/1/133 196/1/133 144/1/133
f 143/1/134 198/1/134 202/1/134
f 143/1/134 202/1/134 178/1/134
f 138/1/135 197/1/135 201/1/135
f 138/1/135 201/1/135 176/1/135
f 145/1/136 195/1/136 199/1/136
f 145/1/136 199/1/136 156/1/136
f 178/1/137 202/1/137 195/1/137
f 178/1/137 195/1/137 145/1/137
f 161/1/138 200/1/138 197/1/138
f 161/1/138 197/1/138 138/1/138
f 176/1/139 201/1/139 198/1/139
f 176/1/139 198/1/139 143/1/139
f 200/1/140 208/1/140 205/1/140
f 200/1/140 205/1/140 197/1/140
f 195/1/141 203/1/141 207/1/141
f 195/1/141 207/1/141 199/1/141
f 197/1/142 205/1/142 209/1/142
f 197/1/142 209/1/142 201/1/142
f 199/1/143 207/1/143 204/1/143
f 199/1/143 204/1/143 196/1/143
f 201/1/144 209/1/144 206/1/144
f 201/1/144 206/1/144 198/1/144
f 202/1/145 210/1/145 203/1/145
f 202/1/145 203/1/145 195/1/145
f 198/1/146 206/1/146 210/1/146
f 198/1/146 210/1/146 202/1/146
f 141/1/147 214/1/147 217/1/147
f 141/1/147 217/1/147 159/1/147
f 220/1/148 163/1/148 177/1/148
f 220/1/148 177/1/148 219/1/148
f 219/1/149 177/1/149 164/1/149
f 219/1/149 164/1/149 218/1/149
f 151/1/150 168/1/150 163/1/150
f 151/1/150 163/1/150 220/1/150
f 225/1/151 180/1/151 162/1/151
f 225/1/151 162/1/151 227/1/151
f 227/1/152 162/1/152 166/1/152
f 227/1/152 166/1/152 157/1/152
f 227/1/152 157/1/152 224/1/152
f 218/1/153 164/1/153 180/1/153
f 218/1/153 180/1/153 225/1/153
f 192/1/154 234/1/154 251/1/154
f 192/1/154 251/1/154 249/1/154
f 135/1/155 235/1/155 240/1/155
f 135/1/155 240/1/155 182/1/155
f 182/1/156 240/1/156 239/1/156
f 182/1/156 239/1/156 171/1/156
f 188/1/157 241/1/157 238/1/157
f 188/1/157 238/1/157 153/1/157
f 213/1/158 242/1/158 236/1/158
f 213/1/158 236/1/158 139/1/158
f 153/1/159 238/1/159 235/1/159
f 153/1/159 235/1/159 135/1/159
f 171/1/160 239/1/160 237/1/160
f 171/1/160 237/1/160 130/1/160
f 254/1/161 152/1/161 134/1/161
f 254/1/161 134/1/161 253/1/161
f 255/1/162 172/1/162 131/1/162
f 255/1/162 131/1/162 256/1/162
f 191/1/163 152/1/163 254/1/163
f 253/1/164 134/1/164 181/1/164
f 253/1/164 181/1/164 252/1/164
f 252/1/165 181/1/165 172/1/165
f 252/1/165 172/1/165 255/1/165
f 257/1/166 212/1/166 140/1/166
f 257/1/166 140/1/166 250/1/166
f 130/1/167 175/1/167 266/1/167
f 130/1/167 266/1/167 260/1/167
f 171/1/168 130/1/168 260/1/168
f 171/1/168 260/1/168 264/1/168
f 182/1/169 171/1/169 264/1/169
f 182/1/169 264/1/169 270/1/169
f 135/1/170 182/1/170 270/1/170
f 135/1/170 270/1/170 259/1/170
f 153/1/171 135/1/171 259/1/171
f 153/1/171 259/1/171 263/1/171
f 194/1/172 153/1/172 263/1/172
f 194/1/172 263/1/172 271/1/172
f 152/1/173 194/1/173 271/1/173
f 152/1/173 271/1/173 268/1/173
f 134/1/174 152/1/174 268/1/174
f 134/1/174 268/1/174 261/1/174
f 181/1/175 134/1/175 261/1/175
f 181/1/175 261/1/175 269/1/175
f 172/1/176 181/1/176 269/1/176
f 172/1/176 269/1/176 265/1/176
f 131/1/177 172/1/177 265/1/177
f 131/1/177 265/1/177 262/1/177
f 179/1/178 131/1/178 262/1/178
f 179/1/178 262/1/178 267/1/178
f 137/1/179 179/1/179 267/1/179
f 137/1/179 267/1/179 258/1/179
f 175/1/180 137/1/180 258/1/180
f 175/1/180 258/1/180 266/1/180
