# prebaked split of model.obj material Hair.003
mtllib Hair_003.mtl
usemtl Hair.003
v 0.063738 1.703025 -0.032393
v 0.095775 1.754566 0.030453
v 0.092325 1.759837 0.054884
v 0.039765 1.701080 -0.042088
v 0.082736 1.758197 0.116662
v 0.074376 1.720150 -0.037432
v 0.081280 1.821697 0.104360
v 0.022659 1.830084 0.150664
v 0.069914 1.829444 0.131462
v 0.087530 1.759017 0.085773
v 0.041307 1.701528 -0.043777
v 0.098348 1.756046 0.030139
v 0.094833 1.761413 0.055019
v 0.065721 1.703526 -0.033893
v 0.089951 1.760578 0.086476
v 0.088385 1.822810 0.078433
v 0.083586 1.824413 0.105406
v 0.078605 1.856932 0.102860
v 0.072011 1.832302 0.133007
v 0.085069 1.759743 0.117934
v 0.076555 1.720996 -0.038996
v 0.093183 1.821207 0.051461
v 0.042828 1.719341 -0.056140
v 0.023885 1.832953 0.152562
v 0.023703 1.861561 0.122261
v 0.092356 1.813894 0.021495
v 0.072390 1.752774 -0.049077
v 0.082810 1.840762 0.014630
v 0.062544 1.817706 -0.049359
v 0.044040 1.750877 -0.067431
v 0.083296 1.851105 0.076692
v 0.087987 1.845277 0.050525
v 0.024538 1.886991 0.052059
v 0.024920 1.882058 0.008250
v 0.053168 1.877830 0.050149
v 0.052113 1.869930 0.009018
v 0.023969 1.875666 0.101042
v 0.069765 1.800713 -0.053532
v 0.031727 1.858328 -0.045946
v 0.035023 1.813951 -0.066744
v 0.037092 1.798907 -0.068335
v -0.069944 1.702984 -0.031498
v -0.101158 1.754516 0.031780
v -0.097381 1.759788 0.056162
v -0.046103 1.701053 -0.041513
v -0.086960 1.758153 0.117805
v -0.080658 1.720110 -0.036387
v -0.003260 1.697522 -0.055478
v -0.085702 1.821654 0.105485
v -0.026467 1.830071 0.150995
v -0.001880 1.829397 0.154376
v -0.073976 1.829408 0.132432
v -0.092170 1.758971 0.086984
v -0.047667 1.701500 -0.043182
v -0.003273 1.697906 -0.057400
v -0.103735 1.755994 0.031500
v -0.099889 1.761363 0.056331
v -0.071947 1.703485 -0.032972
v -0.094582 1.760530 0.087720
v -0.093156 1.822763 0.079657
v -0.087995 1.824368 0.106562
v -0.083066 1.856891 0.103949
v -0.076053 1.832264 0.134005
v -0.089276 1.759698 0.119109
v -0.082858 1.720955 -0.037922
v -0.002073 1.862682 0.127059
v -0.001867 1.832120 0.156359
v -0.098317 1.821157 0.052751
v -0.049364 1.719318 -0.055519
v -0.003364 1.719765 -0.070076
v -0.027669 1.832940 0.152910
v -0.027909 1.861547 0.122609
v -0.097890 1.813845 0.022777
v -0.078845 1.752735 -0.048058
v -0.088451 1.840718 0.015784
v -0.069038 1.817672 -0.048473
v -0.050745 1.750853 -0.066792
v -0.003447 1.750194 -0.081258
v -0.088106 1.851061 0.077847
v -0.093147 1.845230 0.051745
v -0.002572 1.888667 0.053984
v -0.002255 1.880381 0.100669
v -0.002880 1.885597 0.008158
v -0.029704 1.886977 0.052424
v -0.030674 1.882044 0.008624
v -0.003438 1.813322 -0.077369
v -0.003273 1.858659 -0.051221
v -0.003456 1.798132 -0.080674
v -0.058353 1.877802 0.050901
v -0.057848 1.869902 0.009760
v -0.028469 1.875653 0.101396
v -0.076305 1.800675 -0.052548
v -0.038198 1.858310 -0.045475
v -0.041752 1.813931 -0.066227
v -0.043834 1.798886 -0.067790
v 0.019275 1.762206 0.163702
v 0.018436 1.768548 0.163181
v 0.070052 1.757399 0.148793
v 0.020465 1.762651 0.167836
v 0.019626 1.768993 0.167315
v 0.071254 1.757646 0.152940
v 0.046735 1.764830 0.159640
v 0.045897 1.771172 0.159118
v 0.047925 1.765276 0.163773
v 0.047086 1.771618 0.163252
v -0.022873 1.762195 0.163986
v -0.022044 1.768537 0.163453
v -0.073844 1.757362 0.149763
v -0.024006 1.762640 0.168136
v -0.023178 1.768982 0.167603
v -0.074989 1.757608 0.153925
v -0.050387 1.764805 0.160294
v -0.049558 1.771148 0.159762
v -0.051521 1.765250 0.164443
v -0.050692 1.771592 0.163911
v 0.073123 1.871945 0.114543
v 0.074374 1.862775 0.141846
v 0.000009 1.877659 0.138542
v 0.000503 1.855361 0.165799
v 0.085122 1.839634 0.117026
v 0.026249 1.863426 0.161401
v 0.025621 1.876545 0.133774
v -0.073423 1.878167 0.115011
v -0.073694 1.868997 0.142324
v -0.025310 1.869673 0.161229
v -0.025668 1.882792 0.133600
vn 0.132200 -0.976700 -0.169100
vn 0.136800 -0.980600 -0.140600
vn 0.505500 -0.826000 0.249600
vn 0.505500 -0.825900 0.249800
vn 0.505200 -0.823600 0.257900
vn -0.547000 0.147100 0.824100
vn 0.593000 -0.673600 0.441200
vn 0.528700 -0.846700 0.059600
vn 0.290800 -0.611300 0.736000
vn 0.618200 -0.157900 0.770000
vn 0.505200 -0.823500 0.258300
vn 0.137000 -0.585100 0.799300
vn 0.268800 -0.332700 -0.903900
vn 0.951900 0.039900 -0.303900
vn 0.957300 0.256600 -0.133400
vn 0.272100 0.171800 -0.946800
vn 0.683900 0.709500 -0.169700
vn 0.186000 0.460600 -0.867900
vn 0.257500 0.803200 0.537200
vn 0.682600 0.729700 -0.040100
vn 0.090500 0.911400 -0.401500
vn 0.350100 0.925800 -0.142600
vn 0.661800 0.613600 -0.430700
vn 0.310300 0.925500 0.217400
vn 0.432500 0.279600 -0.857200
vn 0.490700 -0.258000 -0.832300
vn 0.122300 0.972200 0.199600
vn 0.614400 0.694400 -0.374500
vn 0.447700 0.406500 -0.796500
vn 0.091200 0.991900 -0.088500
vn 0.139200 0.823300 0.550200
vn 0.477500 -0.001400 -0.878600
vn 0.387900 -0.514400 -0.764800
vn 0.264600 -0.521500 -0.811200
vn 0.949700 0.025400 -0.312300
vn 0.284600 0.017400 -0.958500
vn 0.985400 0.049800 0.162600
vn 0.985800 0.041900 0.162800
vn 0.985800 0.041500 0.162800
vn 0.969400 0.197800 0.145400
vn 0.997100 0.068200 0.033100
vn 0.880800 0.315000 -0.353600
vn -0.355400 -0.184700 0.916300
vn 0.203800 -0.331500 0.921200
vn -0.971500 0.136100 0.194300
vn 0.973700 0.171800 0.149900
vn 0.985400 0.050000 0.162600
vn -0.133800 -0.976800 -0.167300
vn -0.138100 -0.980600 -0.138700
vn -0.501600 -0.826200 0.256400
vn -0.501200 -0.823900 0.264700
vn -0.501600 -0.826100 0.256600
vn 0.558000 0.147400 0.816600
vn -0.586700 -0.673900 0.449200
vn -0.527400 -0.847000 0.066700
vn -0.280600 -0.611400 0.739900
vn -0.607700 -0.158500 0.778200
vn -0.501200 -0.823700 0.265000
vn -0.125900 -0.585100 0.801100
vn -0.280800 -0.332900 -0.900200
vn -0.955900 0.039400 -0.291000
vn -0.959100 0.256100 -0.120400
vn -0.285000 0.171600 -0.943000
vn -0.686500 0.709200 -0.160500
vn -0.197900 0.460500 -0.865300
vn -0.250700 0.803100 0.540600
vn -0.683500 0.729300 -0.030900
vn -0.096300 0.911300 -0.400200
vn -0.352500 0.925600 -0.137900
vn -0.667900 0.613300 -0.421700
vn -0.307800 0.925300 0.221500
vn -0.444200 0.279400 -0.851300
vn -0.501700 -0.258300 -0.825600
vn -0.120100 0.972200 0.201200
vn -0.619800 0.694100 -0.366200
vn -0.458600 0.406300 -0.790400
vn -0.092900 0.991800 -0.087200
vn -0.132200 0.823200 0.552100
vn -0.489300 -0.001700 -0.872100
vn -0.397900 -0.514300 -0.759700
vn -0.275200 -0.521500 -0.807600
vn -0.953800 0.024900 -0.299400
vn -0.297500 0.017300 -0.954600
vn -0.983200 0.049300 0.175900
vn -0.983500 0.041000 0.176100
vn -0.983500 0.041300 0.176100
vn -0.967400 0.197300 0.158500
vn -0.996600 0.067700 0.046500
vn -0.885600 0.314500 -0.341700
vn -0.242900 0.575200 -0.781100
vn 0.284900 0.377300 -0.881200
vn -0.920700 0.167800 0.352400
vn -0.971700 0.171300 0.163000
vn -0.983200 0.049500 0.175900
vn -0.452400 -0.132300 -0.881900
vn 0.136400 0.099100 0.985700
vn -0.952900 -0.102600 0.285300
vn 0.106000 -0.991400 0.076300
vn -0.106000 0.991400 -0.076300
vn 0.423800 0.884200 -0.196300
vn -0.240200 -0.959100 0.149500
vn 0.452800 0.132400 0.881700
vn -0.136400 -0.099100 -0.985700
vn 0.440600 -0.132100 -0.887900
vn -0.123100 0.099000 0.987400
vn 0.956800 -0.102100 0.272400
vn -0.104500 -0.991500 0.077700
vn 0.104500 0.991500 -0.077700
vn -0.426900 0.884000 -0.190600
vn 0.242700 -0.959000 0.146300
vn -0.440900 0.132100 0.887800
vn 0.123100 -0.099000 -0.987400
vn -0.527500 -0.846900 0.066700
vn -0.016900 0.840000 0.542400
vn 0.197200 0.910800 0.362800
vn 0.932900 0.352200 0.075500
vn 0.213200 0.822400 0.527400
vn -0.194000 0.908900 0.369000
vn -0.118500 0.614400 -0.780000
vn 0.357400 -0.285600 0.889200
vn 0.192700 0.500600 -0.844000
vn 0.959400 0.239700 -0.148600
vn 0.800400 -0.300600 0.518700
vn -0.222400 -0.260700 0.939500
f 4//1 48//1 55//1
f 4//1 55//1 11//1
f 1//2 4//2 11//2
f 1//2 11//2 14//2
f 3//3 2//4 12//5
f 3//3 12//5 13//3
f 7//6 5//6 20//6
f 7//6 20//6 17//6
f 9//7 7//7 17//7
f 9//7 17//7 19//7
f 10//8 3//8 13//8
f 10//8 13//8 15//8
f 8//9 9//9 19//9
f 8//9 19//9 24//9
f 6//10 1//10 14//10
f 6//10 14//10 21//10
f 2//4 6//11 21//11
f 2//4 21//11 12//5
f 51//12 8//12 24//12
f 51//12 24//12 67//12
f 23//13 70//13 78//13
f 23//13 78//13 30//13
f 26//14 12//14 27//14
f 26//14 27//14 38//14
f 26//15 28//15 32//15
f 26//15 32//15 22//15
f 41//16 88//16 86//16
f 41//16 86//16 40//16
f 28//17 36//17 35//17
f 28//17 35//17 32//17
f 87//18 39//18 40//18
f 87//18 40//18 86//18
f 18//19 37//19 25//19
f 32//20 35//20 18//20
f 32//20 18//20 31//20
f 83//21 34//21 39//21
f 83//21 39//21 87//21
f 35//22 36//22 34//22
f 35//22 34//22 33//22
f 29//23 36//23 28//23
f 18//24 35//24 33//24
f 18//24 33//24 37//24
f 38//25 41//25 40//25
f 38//25 40//25 29//25
f 21//26 23//26 30//26
f 21//26 30//26 27//26
f 37//27 33//27 81//27
f 37//27 81//27 82//27
f 39//28 34//28 36//28
f 39//28 36//28 29//28
f 40//29 39//29 29//29
f 33//30 34//30 83//30
f 33//30 83//30 81//30
f 25//31 37//31 82//31
f 25//31 82//31 66//31
f 27//32 30//32 41//32
f 27//32 41//32 38//32
f 14//33 11//33 23//33
f 14//33 23//33 21//33
f 11//34 55//34 70//34
f 11//34 70//34 23//34
f 12//35 21//35 27//35
f 30//36 78//36 88//36
f 30//36 88//36 41//36
f 16//37 15//38 13//39
f 16//37 13//39 22//39
f 31//40 16//40 22//40
f 31//40 22//40 32//40
f 12//41 26//41 22//41
f 12//41 22//41 13//41
f 28//42 26//42 38//42
f 28//42 38//42 29//42
f 63//43 71//43 125//43
f 63//43 125//43 124//43
f 67//44 24//44 121//44
f 67//44 121//44 119//44
f 62//45 63//45 124//45
f 62//45 124//45 123//45
f 18//46 17//46 16//46
f 18//46 16//46 31//46
f 17//47 20//47 15//38
f 17//47 15//38 16//37
f 5//8 10//8 15//8
f 5//8 15//8 20//8
f 45//48 54//48 55//48
f 45//48 55//48 48//48
f 42//49 58//49 54//49
f 42//49 54//49 45//49
f 44//50 57//50 56//51
f 44//50 56//51 43//52
f 49//53 61//53 64//53
f 49//53 64//53 46//53
f 52//54 63//54 61//54
f 52//54 61//54 49//54
f 53//55 59//55 57//55
f 53//55 57//55 44//55
f 50//56 71//56 63//56
f 50//56 63//56 52//56
f 47//57 65//57 58//57
f 47//57 58//57 42//57
f 43//52 56//51 65//58
f 43//52 65//58 47//58
f 51//59 67//59 71//59
f 51//59 71//59 50//59
f 69//60 77//60 78//60
f 69//60 78//60 70//60
f 73//61 92//61 74//61
f 73//61 74//61 56//61
f 73//62 68//62 80//62
f 73//62 80//62 75//62
f 95//63 94//63 86//63
f 95//63 86//63 88//63
f 75//64 80//64 89//64
f 75//64 89//64 90//64
f 87//65 86//65 94//65
f 87//65 94//65 93//65
f 62//66 72//66 91//66
f 80//67 79//67 62//67
f 80//67 62//67 89//67
f 83//68 87//68 93//68
f 83//68 93//68 85//68
f 89//69 84//69 85//69
f 89//69 85//69 90//69
f 76//70 75//70 90//70
f 62//71 91//71 84//71
f 62//71 84//71 89//71
f 92//72 76//72 94//72
f 92//72 94//72 95//72
f 65//73 74//73 77//73
f 65//73 77//73 69//73
f 91//74 82//74 81//74
f 91//74 81//74 84//74
f 93//75 76//75 90//75
f 93//75 90//75 85//75
f 94//76 76//76 93//76
f 84//77 81//77 83//77
f 84//77 83//77 85//77
f 72//78 66//78 82//78
f 72//78 82//78 91//78
f 74//79 92//79 95//79
f 74//79 95//79 77//79
f 58//80 65//80 69//80
f 58//80 69//80 54//80
f 54//81 69//81 70//81
f 54//81 70//81 55//81
f 56//82 74//82 65//82
f 77//83 95//83 88//83
f 77//83 88//83 78//83
f 60//84 68//85 57//85
f 60//84 57//85 59//86
f 79//87 80//87 68//87
f 79//87 68//87 60//87
f 56//88 57//88 68//88
f 56//88 68//88 73//88
f 75//89 76//89 92//89
f 75//89 92//89 73//89
f 18//90 25//90 122//90
f 18//90 122//90 116//90
f 72//91 62//91 123//91
f 72//91 123//91 126//91
f 63//92 62//92 61//92
f 62//93 79//93 60//93
f 62//93 60//93 61//93
f 61//94 60//84 59//86
f 61//94 59//86 64//94
f 102//95 103//95 98//95
f 104//96 105//96 100//96
f 104//96 100//96 99//96
f 99//97 100//97 97//97
f 99//97 97//97 96//97
f 102//98 104//98 99//98
f 102//98 99//98 96//98
f 105//99 103//99 97//99
f 105//99 97//99 100//99
f 101//100 98//100 103//100
f 101//100 103//100 105//100
f 98//101 101//101 104//101
f 98//101 104//101 102//101
f 101//102 105//102 104//102
f 96//103 97//103 103//103
f 96//103 103//103 102//103
f 112//104 108//104 113//104
f 114//105 109//105 110//105
f 114//105 110//105 115//105
f 109//106 106//106 107//106
f 109//106 107//106 110//106
f 112//107 106//107 109//107
f 112//107 109//107 114//107
f 115//108 110//108 107//108
f 115//108 107//108 113//108
f 111//109 115//109 113//109
f 111//109 113//109 108//109
f 108//110 112//110 114//110
f 108//110 114//110 111//110
f 111//111 114//111 115//111
f 106//112 112//112 113//112
f 106//112 113//112 107//112
f 46//113 64//113 59//55
f 46//113 59//55 53//55
f 119//114 121//114 122//114
f 119//114 122//114 118//114
f 121//115 117//115 116//115
f 121//115 116//115 122//115
f 117//116 120//116 116//116
f 119//117 118//117 126//117
f 119//117 126//117 125//117
f 125//118 126//118 123//118
f 125//118 123//118 124//118
f 25//119 66//119 118//119
f 25//119 118//119 122//119
f 24//120 19//120 117//120
f 24//120 117//120 121//120
f 66//121 72//121 126//121
f 66//121 126//121 118//121
f 17//122 18//122 116//122
f 17//122 116//122 120//122
f 19//123 17//123 120//123
f 19//123 120//123 117//123
f 71//124 67//124 119//124
f 71//124 119//124 125//124
