# prebaked split of model.obj material Pants
mtllib Pants.mtl
usemtl Pants
v 0.149092 0.914590 0.016686
v 0.152253 0.930769 -0.047995
v 0.030101 0.894038 -0.080448
v 0.109069 0.901616 0.136812
v 0.106191 0.625803 0.117774
v 0.179162 0.640268 0.021100
v 0.175911 0.643390 -0.016564
v 0.074285 0.623620 0.001582
v 0.024714 0.856545 0.029284
v 0.070756 0.622117 0.073505
v 0.098894 0.516715 0.001490
v 0.169229 0.518061 -0.009611
v 0.097249 0.475480 0.077091
v 0.128097 0.471500 0.112594
v 0.198446 0.483812 0.025721
v 0.130991 0.521645 -0.019324
v 0.114058 0.922176 -0.079714
v 0.119148 0.632701 -0.019034
v 0.117676 0.547492 0.109646
v 0.190521 0.553410 0.028239
v 0.089892 0.531102 0.081038
v 0.134502 0.063617 -0.057401
v 0.134414 0.054100 -0.015914
v 0.211606 0.056814 -0.031780
v 0.153829 0.055839 0.007746
v 0.188674 0.064679 -0.067621
v 0.189815 0.057608 0.015976
v 0.156556 0.066705 -0.070058
v 0.043335 0.867991 0.147563
v 0.151600 0.980813 -0.049320
v 0.150543 0.983936 0.027424
v 0.109625 0.977040 0.128096
v 0.048004 0.900851 0.151048
v 0.114705 0.991818 -0.099439
v 0.077982 1.007869 -0.122845
v 0.206217 0.077672 -0.029009
v 0.130802 0.073428 -0.015039
v 0.136486 0.079407 -0.045562
v 0.160342 0.082082 -0.058363
v 0.178831 0.074263 0.004224
v 0.193131 0.082542 -0.055238
v 0.150597 0.072034 0.005676
v 0.110453 0.383458 -0.016601
v 0.106793 0.373183 0.053621
v 0.198384 0.382779 0.008915
v 0.132757 0.371259 0.071501
v 0.176240 0.386801 -0.023568
v 0.138810 0.386638 -0.032386
v 0.181172 0.477520 0.107106
v 0.156556 0.639487 0.110065
v 0.175827 0.372395 0.072698
v 0.165223 0.555518 0.102952
v 0.144263 0.258897 0.050341
v 0.169810 0.303350 -0.048604
v 0.140095 0.292978 -0.055778
v 0.114450 0.291204 -0.042169
v 0.113395 0.268974 0.024014
v 0.196062 0.277337 -0.006650
v 0.177010 0.257911 0.054238
v 0.050329 0.752385 -0.025174
v 0.083300 0.743668 0.142444
v 0.168443 0.783737 0.022000
v 0.164068 0.788778 -0.027293
v 0.042886 0.735441 0.072631
v 0.110583 0.779238 -0.040022
v 0.145974 0.771645 0.129879
v -0.161969 0.912936 0.024385
v -0.176156 0.928086 -0.041631
v -0.033874 0.893805 -0.085743
v -0.107277 0.902441 0.137683
v -0.074870 0.629951 0.117578
v -0.178179 0.637589 0.053167
v -0.188769 0.638986 0.016769
v -0.086605 0.623106 -0.002167
v -0.020749 0.856926 0.025112
v -0.057502 0.625177 0.063685
v -0.104793 0.516021 0.010451
v -0.174415 0.515056 0.025373
v -0.074360 0.478426 0.081678
v -0.090202 0.475671 0.127312
v -0.187485 0.482162 0.069335
v -0.142395 0.519117 0.002426
v -0.132979 0.920871 -0.080183
v -0.136234 0.629860 -0.005574
v -0.084990 0.551028 0.116828
v -0.182326 0.551000 0.067090
v -0.068576 0.534194 0.080899
v -0.139014 0.063969 -0.031030
v -0.126457 0.055057 0.009525
v -0.207559 0.056267 0.012788
v -0.143465 0.056173 0.039077
v -0.193199 0.062874 -0.021803
v -0.178460 0.057465 0.054565
v -0.164237 0.065951 -0.034965
v -0.032828 0.868815 0.145278
v -0.167088 0.979574 -0.046716
v -0.158775 0.983432 0.030259
v -0.111365 0.977895 0.128548
v -0.049183 0.901355 0.150348
v -0.129176 0.991117 -0.099683
v -0.090153 1.007533 -0.123953
v -0.197302 0.075842 0.019859
v -0.121319 0.074656 0.007502
v -0.137326 0.079862 -0.019265
v -0.164272 0.081352 -0.022702
v -0.160642 0.073942 0.041987
v -0.193802 0.080573 -0.008278
v -0.133293 0.072771 0.033978
v -0.116061 0.384946 -0.001473
v -0.087135 0.376196 0.062524
v -0.188976 0.381316 0.053479
v -0.104898 0.373511 0.088501
v -0.180081 0.385687 0.015258
v -0.148294 0.386760 -0.006167
v -0.142012 0.478824 0.139347
v -0.125215 0.641763 0.128026
v -0.144711 0.372911 0.105004
v -0.132090 0.557325 0.127415
v -0.001708 0.901563 0.154886
v -0.004986 0.896794 -0.089119
v -0.002748 0.863698 0.019562
v -0.001829 0.861481 0.138079
v -0.001681 0.956991 0.158938
v -0.003769 1.017648 -0.127319
v -0.118248 0.260440 0.072940
v -0.179348 0.302181 -0.010388
v -0.153724 0.292911 -0.027694
v -0.124859 0.292407 -0.024143
v -0.099281 0.271332 0.037315
v -0.187730 0.275813 0.038198
v -0.147371 0.258185 0.088278
v -0.075864 0.751439 -0.038923
v -0.052319 0.748975 0.130482
v -0.174275 0.781187 0.045208
v -0.187601 0.784178 -0.003788
v -0.036962 0.738956 0.050510
v -0.140367 0.775771 -0.034305
v -0.116890 0.774627 0.138574
vn 0.224300 0.110200 0.968300
vn 0.999500 -0.009000 0.029000
vn 0.729900 -0.118400 -0.673200
vn 0.951700 0.156900 0.263800
vn 0.994000 0.074900 -0.080100
vn -0.006100 -0.999100 0.041000
vn -0.019600 -0.999000 0.040600
vn -0.010300 -0.999100 0.040500
vn -0.674500 -0.266700 0.688400
vn 0.153200 -0.096100 -0.983500
vn -0.798600 -0.232500 0.555200
vn 0.816900 0.113500 -0.565500
vn -0.971700 -0.223000 -0.077400
vn -0.974500 -0.212600 -0.071600
vn -0.974100 -0.217600 -0.062100
vn 0.160900 -0.072500 0.984300
vn 0.129000 -0.025100 -0.991300
vn 0.225000 -0.141400 0.964000
vn 0.951000 0.000400 -0.309300
vn -0.724000 -0.103000 0.682100
vn -0.468000 -0.034300 -0.883000
vn -0.461900 -0.075700 -0.883700
vn 0.900600 -0.053300 0.431400
vn 0.027300 -0.315000 -0.948700
vn 0.083800 0.570900 -0.816800
vn -0.119600 0.340600 0.932600
vn 0.939300 -0.017800 0.342700
vn 0.864600 0.201000 -0.460500
vn -0.996400 -0.016000 -0.083300
vn -0.446900 0.590300 -0.672200
vn 0.156200 0.036800 -0.987000
vn 0.241100 0.111300 -0.964100
vn -0.972100 -0.218000 -0.086500
vn 0.226600 -0.134500 0.964700
vn -0.041100 -0.265300 0.963300
vn 0.963100 -0.088400 0.254100
vn 0.217600 -0.364200 -0.905600
vn 0.069500 -0.337000 -0.938900
vn -0.991800 -0.086200 -0.094300
vn -0.994900 -0.077900 -0.063700
vn 0.954000 0.111900 0.278300
vn -0.627400 -0.227100 0.744900
vn -0.065700 -0.175200 0.982300
vn 0.849400 0.073000 -0.522800
vn 0.067400 -0.344500 0.936400
vn -0.988200 -0.124400 -0.089300
vn -0.522900 0.061000 -0.850200
vn -0.729900 -0.134300 0.670200
vn 0.972300 0.058100 0.226400
vn -0.743400 -0.121100 0.657800
vn 0.819400 0.099300 -0.564600
vn 0.759000 0.445100 0.475200
vn -0.059900 -0.949600 -0.307800
vn 0.111000 0.064700 0.991700
vn 0.881000 0.102000 -0.462100
vn -0.033800 -0.248100 0.968100
vn -0.690700 -0.195300 0.696300
vn -0.998200 -0.041400 -0.044400
vn 0.186200 0.254100 -0.949100
vn 0.951000 -0.052100 0.304900
vn -0.482200 0.210300 -0.850400
vn 0.938900 0.200800 0.279400
vn -0.977000 -0.183500 -0.108500
vn -0.253300 -0.194300 -0.947700
vn 0.175700 0.006400 0.984400
vn -0.982600 -0.089000 0.163300
vn 0.457100 -0.171600 -0.872700
vn 0.993400 0.114500 0.010700
vn 0.205300 0.044300 0.977700
vn -0.209900 0.106300 0.971900
vn -0.981900 0.097700 0.162200
vn -0.746000 -0.055200 -0.663600
vn -0.799800 0.138100 0.584200
vn -0.961400 0.043700 0.271500
vn -0.001000 -0.999200 0.040400
vn 0.887200 -0.232300 0.398700
vn -0.483400 -0.150900 -0.862300
vn 0.951600 -0.175800 0.252100
vn -0.968700 0.064800 -0.239500
vn 0.891900 -0.201000 -0.405000
vn 0.895700 -0.192700 -0.400700
vn 0.896500 -0.190500 -0.399900
vn 0.205700 -0.029500 0.978200
vn -0.474400 -0.078600 -0.876800
vn 0.124300 -0.107100 0.986500
vn -0.997700 -0.042700 0.053100
vn 0.926200 -0.045500 0.374200
vn 0.123100 -0.029800 -0.991900
vn 0.117400 -0.106600 -0.987400
vn -0.692400 -0.079500 0.717100
vn -0.147100 -0.280600 -0.948500
vn -0.382500 0.563200 -0.732400
vn 0.352800 0.191000 0.916000
vn -0.900500 0.004200 0.434900
vn -0.916700 0.347000 -0.198300
vn 0.913600 -0.065500 -0.401400
vn 0.151100 0.597000 -0.787900
vn -0.497000 0.014500 -0.867700
vn -0.573500 0.083600 -0.815000
vn 0.892800 -0.198700 -0.404300
vn -0.210600 -0.253000 0.944300
vn 0.006400 -0.287100 0.957900
vn -0.803900 -0.124900 0.581500
vn -0.223400 -0.349200 -0.910000
vn -0.019800 -0.313900 -0.949300
vn 0.897800 -0.049000 -0.437800
vn 0.910000 -0.038800 -0.412800
vn -0.794700 0.097800 0.599100
vn 0.861200 -0.189000 0.471800
vn 0.419500 -0.156200 0.894200
vn -0.982300 0.029800 -0.185000
vn 0.271100 -0.339300 0.900800
vn 0.895100 -0.098900 -0.434700
vn 0.183200 0.064500 -0.981000
vn 0.926500 -0.079900 0.367700
vn -0.835500 0.031800 0.548500
vn 0.855400 -0.275500 0.438700
vn -0.970600 0.056500 -0.233800
vn -0.581300 0.545000 0.604200
vn 0.137000 -0.941000 -0.309500
vn 0.232100 0.117800 0.965500
vn -0.989800 0.061400 -0.128400
vn 0.375300 -0.234200 0.896800
vn 0.896200 -0.160500 0.413500
vn 0.917100 -0.000600 -0.398600
vn -0.521000 0.232300 -0.821400
vn -0.776300 -0.085800 0.624500
vn 0.138700 0.218500 -0.965900
vn -0.869400 0.113600 0.480900
vn 0.907300 -0.287900 -0.306600
vn -0.072900 -0.230000 -0.970500
vn -0.019400 -0.053800 0.998400
vn 0.987600 -0.112000 0.110300
vn -0.616600 -0.181700 -0.766000
vn -0.958500 0.135900 0.250700
vn -0.213000 0.031000 0.976600
vn 0.961200 -0.181900 0.207400
vn -0.815300 -0.282900 0.505300
f 4//1 32//1 33//1
f 31//2 1//2 2//2
f 31//2 2//2 30//2
f 30//3 2//3 17//3
f 30//3 17//3 34//3
f 49//4 15//4 20//4
f 49//4 20//4 52//4
f 62//5 6//5 7//5
f 62//5 7//5 63//5
f 121//6 9//7 29//7
f 121//6 29//7 122//8
f 13//9 44//9 46//9
f 13//9 46//9 14//9
f 63//10 7//10 18//10
f 63//10 18//10 65//10
f 64//11 10//11 5//11
f 64//11 5//11 61//11
f 12//12 20//12 15//12
f 10//13 8//14 11//15
f 10//13 11//15 21//15
f 52//16 50//16 5//16
f 52//16 5//16 19//16
f 18//17 7//17 12//17
f 18//17 12//17 16//17
f 66//18 61//18 5//18
f 66//18 5//18 50//18
f 7//19 6//19 20//19
f 7//19 20//19 12//19
f 19//20 21//20 13//20
f 19//20 13//20 14//20
f 56//21 55//21 39//21
f 56//21 39//21 38//21
f 8//22 18//22 16//22
f 8//22 16//22 11//22
f 58//23 59//23 40//23
f 58//23 40//23 36//23
f 60//24 3//24 17//24
f 60//24 17//24 65//24
f 39//25 41//25 26//25
f 39//25 26//25 28//25
f 40//26 42//26 25//26
f 40//26 25//26 27//26
f 32//27 4//27 1//27
f 32//27 1//27 31//27
f 41//28 36//28 24//28
f 41//28 24//28 26//28
f 37//29 38//29 22//29
f 37//29 22//29 23//29
f 38//30 39//30 28//30
f 38//30 28//30 22//30
f 55//31 54//31 41//31
f 55//31 41//31 39//31
f 16//32 12//32 47//32
f 16//32 47//32 48//32
f 60//33 8//14 10//13
f 60//33 10//13 64//33
f 29//34 4//34 33//34
f 122//35 29//35 33//35
f 122//35 33//35 119//35
f 45//36 15//36 49//36
f 45//36 49//36 51//36
f 3//37 35//37 34//37
f 3//37 34//37 17//37
f 3//38 120//38 124//38
f 3//38 124//38 35//38
f 57//39 56//39 38//39
f 57//39 38//39 37//39
f 11//40 43//40 44//40
f 11//40 44//40 13//40
f 20//41 6//41 50//41
f 20//41 50//41 52//41
f 53//42 46//42 44//42
f 53//42 44//42 57//42
f 53//43 59//43 51//43
f 53//43 51//43 46//43
f 58//44 54//44 47//44
f 58//44 47//44 45//44
f 51//45 49//45 14//45
f 51//45 14//45 46//45
f 21//46 11//46 13//46
f 11//47 16//47 48//47
f 11//47 48//47 43//47
f 5//48 10//48 21//48
f 5//48 21//48 19//48
f 66//49 50//49 6//49
f 66//49 6//49 62//49
f 42//50 37//50 23//50
f 42//50 23//50 25//50
f 12//51 15//51 45//51
f 12//51 45//51 47//51
f 27//52 24//52 36//52
f 27//52 36//52 40//52
f 120//53 3//53 9//53
f 120//53 9//53 121//53
f 49//54 52//54 19//54
f 49//54 19//54 14//54
f 36//55 41//55 54//55
f 36//55 54//55 58//55
f 42//56 40//56 59//56
f 42//56 59//56 53//56
f 42//57 53//57 57//57
f 42//57 57//57 37//57
f 44//58 43//58 56//58
f 44//58 56//58 57//58
f 48//59 47//59 54//59
f 48//59 54//59 55//59
f 45//60 51//60 59//60
f 45//60 59//60 58//60
f 43//61 48//61 55//61
f 43//61 55//61 56//61
f 4//62 66//62 62//62
f 4//62 62//62 1//62
f 3//63 60//63 64//63
f 3//63 64//63 9//63
f 8//64 60//64 65//64
f 8//64 65//64 18//64
f 4//65 29//65 61//65
f 4//65 61//65 66//65
f 9//66 64//66 29//66
f 2//67 63//67 65//67
f 2//67 65//67 17//67
f 1//68 62//68 63//68
f 1//68 63//68 2//68
f 123//69 119//69 33//69
f 123//69 33//69 32//69
f 70//70 99//70 98//70
f 97//71 96//71 68//71
f 97//71 68//71 67//71
f 96//72 100//72 83//72
f 96//72 83//72 68//72
f 115//73 118//73 86//73
f 115//73 86//73 81//73
f 134//74 135//74 73//74
f 134//74 73//74 72//74
f 121//6 122//8 95//75
f 121//6 95//75 75//75
f 79//76 80//76 112//76
f 79//76 112//76 110//76
f 135//77 137//77 84//77
f 135//77 84//77 73//77
f 136//78 133//78 71//78
f 136//78 71//78 76//78
f 78//79 81//79 86//79
f 76//80 87//81 77//81
f 76//80 77//81 74//82
f 118//83 85//83 71//83
f 118//83 71//83 116//83
f 84//84 82//84 78//84
f 84//84 78//84 73//84
f 138//85 116//85 71//85
f 138//85 71//85 133//85
f 73//86 78//86 86//86
f 73//86 86//86 72//86
f 85//87 80//87 79//87
f 85//87 79//87 87//87
f 128//88 104//88 105//88
f 128//88 105//88 127//88
f 74//89 77//89 82//89
f 74//89 82//89 84//89
f 130//90 102//90 106//90
f 130//90 106//90 131//90
f 132//91 137//91 83//91
f 132//91 83//91 69//91
f 105//92 94//92 92//92
f 105//92 92//92 107//92
f 106//93 93//93 91//93
f 106//93 91//93 108//93
f 98//94 97//94 67//94
f 98//94 67//94 70//94
f 107//95 92//95 90//95
f 107//95 90//95 102//95
f 103//96 89//96 88//96
f 103//96 88//96 104//96
f 104//97 88//97 94//97
f 104//97 94//97 105//97
f 127//98 105//98 107//98
f 127//98 107//98 126//98
f 82//99 114//99 113//99
f 82//99 113//99 78//99
f 132//100 136//100 76//80
f 132//100 76//80 74//82
f 95//101 99//101 70//101
f 122//102 119//102 99//102
f 122//102 99//102 95//102
f 111//103 117//103 115//103
f 111//103 115//103 81//103
f 69//104 83//104 100//104
f 69//104 100//104 101//104
f 69//105 101//105 124//105
f 69//105 124//105 120//105
f 129//106 103//106 104//106
f 129//106 104//106 128//106
f 77//107 79//107 110//107
f 77//107 110//107 109//107
f 86//108 118//108 116//108
f 86//108 116//108 72//108
f 125//109 129//109 110//109
f 125//109 110//109 112//109
f 125//110 112//110 117//110
f 125//110 117//110 131//110
f 130//111 111//111 113//111
f 130//111 113//111 126//111
f 117//112 112//112 80//112
f 117//112 80//112 115//112
f 87//113 79//113 77//113
f 77//114 109//114 114//114
f 77//114 114//114 82//114
f 71//115 85//115 87//115
f 71//115 87//115 76//115
f 138//116 134//116 72//116
f 138//116 72//116 116//116
f 108//117 91//117 89//117
f 108//117 89//117 103//117
f 78//118 113//118 111//118
f 78//118 111//118 81//118
f 93//119 106//119 102//119
f 93//119 102//119 90//119
f 120//120 121//120 75//120
f 120//120 75//120 69//120
f 115//121 80//121 85//121
f 115//121 85//121 118//121
f 102//122 130//122 126//122
f 102//122 126//122 107//122
f 108//123 125//123 131//123
f 108//123 131//123 106//123
f 108//124 103//124 129//124
f 108//124 129//124 125//124
f 110//125 129//125 128//125
f 110//125 128//125 109//125
f 114//126 127//126 126//126
f 114//126 126//126 113//126
f 111//127 130//127 131//127
f 111//127 131//127 117//127
f 109//128 128//128 127//128
f 109//128 127//128 114//128
f 70//129 67//129 134//129
f 70//129 134//129 138//129
f 69//130 75//130 136//130
f 69//130 136//130 132//130
f 74//131 84//131 137//131
f 74//131 137//131 132//131
f 70//132 138//132 133//132
f 70//132 133//132 95//132
f 75//133 95//133 136//133
f 68//134 83//134 137//134
f 68//134 137//134 135//134
f 67//135 68//135 135//135
f 67//135 135//135 134//135
f 123//136 98//136 99//136
f 123//136 99//136 119//136
f 136//137 95//137 133//137
f 29//138 64//138 61//138
