# prebaked split of model.obj material Pants.002
mtllib Pants_002.mtl
usemtl Pants.002
v 0.149092 0.914590 0.016686
v 0.152253 0.930769 -0.047994
v 0.030101 0.894038 -0.080448
v 0.109069 0.901616 0.136812
v 0.106190 0.625802 0.117774
v 0.179161 0.640268 0.021100
v 0.175911 0.643390 -0.016564
v 0.074285 0.623620 0.001582
v 0.024714 0.856545 0.029284
v 0.070756 0.622117 0.073505
v 0.114058 0.922176 -0.079714
v 0.119148 0.632701 -0.019034
v 0.043335 0.867991 0.147563
v 0.151600 0.980813 -0.049320
v 0.150543 0.983935 0.027424
v 0.109625 0.977040 0.128096
v 0.048004 0.900851 0.151048
v 0.114705 0.991818 -0.099439
v 0.077982 1.007869 -0.122845
v 0.156556 0.639487 0.110065
v 0.050329 0.752385 -0.025174
v 0.083300 0.743668 0.142444
v 0.168443 0.783737 0.022000
v 0.164068 0.788778 -0.027293
v 0.042886 0.735441 0.072631
v 0.110583 0.779238 -0.040022
v 0.145974 0.771645 0.129879
v -0.161969 0.912936 0.024385
v -0.176156 0.928086 -0.041631
v -0.033874 0.893805 -0.085743
v -0.107277 0.902441 0.137682
v -0.074870 0.629951 0.117578
v -0.178179 0.637589 0.053167
v -0.188769 0.638986 0.016769
v -0.086605 0.623106 -0.002166
v -0.020749 0.856926 0.025112
v -0.057502 0.625177 0.063685
v -0.132978 0.920871 -0.080183
v -0.136234 0.629860 -0.005574
v -0.032828 0.868815 0.145278
v -0.167088 0.979574 -0.046717
v -0.158775 0.983432 0.030259
v -0.111365 0.977895 0.128548
v -0.049183 0.901355 0.150348
v -0.129176 0.991116 -0.099683
v -0.090153 1.007533 -0.123953
v -0.125215 0.641763 0.128026
v -0.001708 0.901563 0.154886
v -0.004986 0.896794 -0.089119
v -0.002748 0.863698 0.019562
v -0.001829 0.861481 0.138079
v -0.001681 0.956991 0.158938
v -0.003769 1.017647 -0.127319
v -0.075864 0.751439 -0.038923
v -0.052319 0.748975 0.130482
v -0.174275 0.781187 0.045208
v -0.187601 0.784178 -0.003788
v -0.036962 0.738956 0.050510
v -0.140366 0.775771 -0.034305
v -0.116890 0.774627 0.138574
vn 0.224300 0.110200 0.968300
vn 0.999500 -0.009000 0.029000
vn 0.729900 -0.118400 -0.673200
vn 0.994000 0.074900 -0.080100
vn -0.006100 -0.999100 0.041000
vn -0.019600 -0.999000 0.040600
vn -0.010300 -0.999100 0.040500
vn 0.153200 -0.096100 -0.983500
vn -0.798600 -0.232500 0.555200
vn -0.971700 -0.223000 -0.077400
vn -0.974500 -0.212600 -0.071600
vn 0.225000 -0.141400 0.964000
vn 0.027300 -0.315000 -0.948700
vn 0.939300 -0.017800 0.342700
vn -0.972100 -0.218000 -0.086500
vn 0.226600 -0.134500 0.964700
vn -0.041100 -0.265300 0.963300
vn 0.217600 -0.364200 -0.905600
vn 0.069500 -0.337000 -0.938900
vn 0.972300 0.058100 0.226400
vn -0.059900 -0.949600 -0.307800
vn 0.938900 0.200800 0.279400
vn -0.977000 -0.183500 -0.108500
vn -0.253300 -0.194300 -0.947700
vn 0.175700 0.006400 0.984400
vn -0.982600 -0.089000 0.163300
vn 0.457100 -0.171600 -0.872700
vn 0.993400 0.114500 0.010700
vn 0.205300 0.044300 0.977700
vn -0.209900 0.106300 0.971900
vn -0.981900 0.097700 0.162200
vn -0.746000 -0.055200 -0.663600
vn -0.961400 0.043700 0.271500
vn -0.001000 -0.999200 0.040400
vn -0.483400 -0.150900 -0.862300
vn 0.951600 -0.175800 0.252100
vn 0.891900 -0.201000 -0.405000
vn 0.896500 -0.190500 -0.399900
vn 0.124300 -0.107100 0.986500
vn -0.147100 -0.280600 -0.948500
vn -0.900500 0.004200 0.434900
vn 0.892800 -0.198700 -0.404300
vn -0.210600 -0.253000 0.944300
vn 0.006400 -0.287100 0.957900
vn -0.223400 -0.349200 -0.910000
vn -0.019800 -0.313900 -0.949300
vn -0.835500 0.031800 0.548500
vn 0.137000 -0.941000 -0.309500
vn -0.869400 0.113600 0.480900
vn 0.907300 -0.287900 -0.306600
vn -0.072900 -0.230000 -0.970500
vn -0.019400 -0.053800 0.998400
vn 0.987600 -0.112000 0.110300
vn -0.616600 -0.181700 -0.766000
vn -0.958500 0.135900 0.250700
vn -0.213000 0.031000 0.976600
vn 0.961200 -0.181900 0.207400
vn -0.815300 -0.282900 0.505300
f 4//1 16//1 17//1
f 15//2 1//2 2//2
f 15//2 2//2 14//2
f 14//3 2//3 11//3
f 14//3 11//3 18//3
f 23//4 6//4 7//4
f 23//4 7//4 24//4
f 50//5 9//6 13//6
f 50//5 13//6 51//7
f 24//8 7//8 12//8
f 24//8 12//8 26//8
f 25//9 10//9 5//9
f 25//9 5//9 22//9
f 27//12 22//12 5//12
f 27//12 5//12 20//12
f 21//13 3//13 11//13
f 21//13 11//13 26//13
f 16//14 4//14 1//14
f 16//14 1//14 15//14
f 21//15 8//11 10//10
f 21//15 10//10 25//15
f 13//16 4//16 17//16
f 51//17 13//17 17//17
f 51//17 17//17 48//17
f 3//18 19//18 18//18
f 3//18 18//18 11//18
f 3//19 49//19 53//19
f 3//19 53//19 19//19
f 27//20 20//20 6//20
f 27//20 6//20 23//20
f 49//21 3//21 9//21
f 49//21 9//21 50//21
f 4//22 27//22 23//22
f 4//22 23//22 1//22
f 3//23 21//23 25//23
f 3//23 25//23 9//23
f 8//24 21//24 26//24
f 8//24 26//24 12//24
f 4//25 13//25 22//25
f 4//25 22//25 27//25
f 9//26 25//26 13//26
f 2//27 24//27 26//27
f 2//27 26//27 11//27
f 1//28 23//28 24//28
f 1//28 24//28 2//28
f 52//29 48//29 17//29
f 52//29 17//29 16//29
f 31//30 44//30 43//30
f 42//31 41//31 29//31
f 42//31 29//31 28//31
f 41//32 45//32 38//32
f 41//32 38//32 29//32
f 56//33 57//33 34//33
f 56//33 34//33 33//33
f 50//5 51//7 40//34
f 50//5 40//34 36//34
f 57//35 59//35 39//35
f 57//35 39//35 34//35
f 58//36 55//36 32//36
f 58//36 32//36 37//36
f 60//39 47//39 32//39
f 60//39 32//39 55//39
f 54//40 59//40 38//40
f 54//40 38//40 30//40
f 43//41 42//41 28//41
f 43//41 28//41 31//41
f 54//42 58//42 37//37
f 54//42 37//37 35//38
f 40//43 44//43 31//43
f 51//44 48//44 44//44
f 51//44 44//44 40//44
f 30//45 38//45 45//45
f 30//45 45//45 46//45
f 30//46 46//46 53//46
f 30//46 53//46 49//46
f 60//47 56//47 33//47
f 60//47 33//47 47//47
f 49//48 50//48 36//48
f 49//48 36//48 30//48
f 31//49 28//49 56//49
f 31//49 56//49 60//49
f 30//50 36//50 58//50
f 30//50 58//50 54//50
f 35//51 39//51 59//51
f 35//51 59//51 54//51
f 31//52 60//52 55//52
f 31//52 55//52 40//52
f 36//53 40//53 58//53
f 29//54 38//54 59//54
f 29//54 59//54 57//54
f 28//55 29//55 57//55
f 28//55 57//55 56//55
f 52//56 43//56 44//56
f 52//56 44//56 48//56
f 58//57 40//57 55//57
f 13//58 25//58 22//58
