# prebaked split of model.obj material Shirt.002
mtllib Shirt_002.mtl
usemtl Shirt.002
v 0.103037 1.088717 0.108778
v 0.141823 1.084524 0.032954
v 0.147518 1.081403 -0.030925
v 0.080837 1.076653 -0.077349
v 0.151600 0.980813 -0.049320
v 0.150543 0.983935 0.027424
v 0.109625 0.977040 0.128096
v 0.114705 0.991818 -0.099439
v 0.077982 1.007869 -0.122845
v 0.175284 1.420381 0.076565
v 0.119645 1.400768 0.125569
v 0.176589 1.427635 -0.021844
v 0.110543 1.372896 -0.082898
v 0.096546 1.241490 0.105854
v 0.241384 1.473209 0.082492
v 0.215502 1.462466 0.122246
v 0.227104 1.486367 -0.045474
v 0.251768 1.476660 0.023593
v 0.198142 1.466617 -0.060391
v 0.191887 1.546240 0.073820
v 0.191799 1.554809 -0.022520
v 0.207745 1.546886 0.025321
v 0.153813 1.564728 -0.053864
v 0.250720 1.426035 -0.026936
v 0.179709 1.445413 0.124711
v 0.196845 1.400995 0.116419
v 0.215599 1.417538 -0.036486
v 0.246415 1.417204 0.068844
v 0.227270 1.408689 0.107929
v 0.256246 1.423827 0.024461
v 0.142654 1.466196 -0.081941
v 0.154399 1.526128 -0.067634
v 0.100383 1.287373 -0.074394
v 0.117987 1.175800 -0.025794
v 0.085151 1.168079 -0.059519
v 0.098855 1.173553 0.096333
v 0.121886 1.174282 0.026172
v 0.125068 1.258447 0.039385
v 0.120465 1.271911 -0.025314
v 0.161088 1.435235 0.113204
v 0.170639 1.393192 0.100625
v 0.167499 1.316432 0.037504
v 0.240214 1.335015 0.092450
v 0.261253 1.344252 -0.017476
v 0.207117 1.325855 0.091352
v 0.256134 1.340983 0.047733
v 0.263355 1.343871 0.020824
v 0.233396 1.336560 -0.023619
v 0.193337 1.325495 -0.026918
v 0.171606 1.316515 0.072765
v 0.126107 1.530686 0.092538
v 0.123073 1.504630 0.120003
v 0.122484 1.457577 0.134462
v 0.105416 1.572130 0.067069
v 0.108718 1.579793 -0.009956
v 0.084334 1.583260 -0.041342
v 0.116769 1.576751 0.031813
v 0.067030 1.552163 0.085629
v 0.204369 1.330013 0.098933
v 0.263803 1.351325 -0.021664
v 0.160054 1.319310 0.040500
v 0.240658 1.340297 0.099671
v 0.258291 1.347257 0.051185
v 0.266379 1.350709 0.020849
v 0.232541 1.342543 -0.028623
v 0.187938 1.330021 -0.031531
v 0.165579 1.319698 0.078576
v 0.114031 0.998420 -0.103259
v 0.155598 0.988151 -0.050930
v 0.110512 0.985149 0.132354
v 0.153806 0.991475 0.028679
v 0.078266 1.013674 -0.126206
v -0.107132 1.088775 0.110144
v -0.147793 1.084447 0.034601
v -0.155923 1.081128 -0.029295
v -0.088405 1.076607 -0.076632
v -0.167088 0.979574 -0.046717
v -0.158775 0.983432 0.030259
v -0.111365 0.977895 0.128548
v -0.129176 0.991116 -0.099683
v -0.090153 1.007533 -0.123953
v -0.179742 1.419818 0.080032
v -0.123805 1.400148 0.127614
v -0.181097 1.426640 -0.018580
v -0.117049 1.373432 -0.081246
v -0.100696 1.241494 0.107285
v -0.246521 1.472959 0.080563
v -0.224273 1.463804 0.123267
v -0.224473 1.479507 -0.045311
v -0.252017 1.473096 0.020985
v -0.200095 1.462328 -0.056981
v -0.195227 1.545796 0.071670
v -0.192177 1.551508 -0.024946
v -0.209069 1.544820 0.022420
v -0.155544 1.561838 -0.055395
v -0.248782 1.418699 -0.025447
v -0.188815 1.445413 0.130150
v -0.207739 1.401238 0.123475
v -0.214194 1.408802 -0.030631
v -0.252462 1.416146 0.069791
v -0.237232 1.409555 0.111386
v -0.258098 1.420135 0.024535
v -0.147240 1.464413 -0.079793
v -0.156978 1.523198 -0.067148
v -0.107164 1.287352 -0.072890
v -0.124048 1.175782 -0.024026
v -0.091706 1.168060 -0.058227
v -0.103138 1.173551 0.097688
v -0.127189 1.174271 0.027991
v -0.130185 1.258437 0.041238
v -0.126527 1.271893 -0.023523
v -0.167988 1.433837 0.120452
v -0.180010 1.391203 0.111048
v -0.175033 1.310136 0.054461
v -0.251568 1.335016 0.101200
v -0.262255 1.337998 -0.010697
v -0.218875 1.324485 0.103903
v -0.263294 1.338739 0.054363
v -0.267901 1.340093 0.026835
v -0.234259 1.328945 -0.013515
v -0.194511 1.316202 -0.012173
v -0.182272 1.312633 0.089246
v -0.129579 1.530211 0.093006
v -0.126857 1.504179 0.121234
v -0.126696 1.456988 0.136598
v -0.001832 1.077816 0.138932
v -0.002039 1.516188 0.113538
v -0.003539 1.076085 -0.095394
v -0.001681 0.956991 0.158938
v -0.003769 1.017647 -0.127319
v -0.003385 1.559560 -0.071470
v -0.003517 1.530735 -0.089617
v -0.003535 1.460018 -0.092407
v -0.003552 1.373852 -0.095300
v -0.003501 1.289190 -0.088875
v -0.003376 1.166464 -0.072389
v -0.001946 1.487411 0.125773
v -0.001912 1.167657 0.128482
v -0.001895 1.235138 0.131198
v -0.001855 1.390279 0.137736
v -0.001870 1.436561 0.135950
v -0.109110 1.571813 0.066382
v -0.002057 1.529933 0.111299
v -0.112445 1.578735 -0.010834
v -0.088754 1.582272 -0.042003
v -0.120275 1.576019 0.030795
v -0.003248 1.575798 -0.052639
v -0.070867 1.551887 0.085786
v -0.216899 1.329467 0.110542
v -0.264242 1.344486 -0.016549
v -0.168083 1.313153 0.056762
v -0.252666 1.341154 0.107109
v -0.265689 1.345406 0.056146
v -0.270785 1.346919 0.025136
v -0.232837 1.334155 -0.019755
v -0.188715 1.319718 -0.017744
v -0.176888 1.316312 0.094622
v -0.128088 0.997771 -0.103457
v -0.170339 0.986997 -0.048206
v -0.001639 0.964767 0.164648
v -0.112376 0.985903 0.132948
v -0.161664 0.991019 0.031579
v -0.090296 1.013350 -0.127204
v -0.003797 1.024571 -0.131126
v 0.144569 1.433715 0.119178
v 0.178916 1.503267 0.121272
v 0.159046 1.469658 0.129636
v 0.187925 1.511264 0.108925
v 0.210971 1.530486 0.076556
v -0.149871 1.432729 0.124039
v -0.184645 1.503595 0.122287
v -0.165363 1.469355 0.133402
v -0.191038 1.512978 0.108318
v -0.206586 1.537324 0.073080
v -0.153768 1.396437 0.114994
v -0.123340 1.246850 0.087340
v 0.152134 1.396807 0.111670
v 0.120897 1.246145 0.088342
vn 0.295900 0.942500 0.155400
vn 0.912200 0.091800 0.399300
vn 0.962800 0.111600 0.246000
vn -0.993700 0.096900 0.055900
vn 0.220000 -0.584100 -0.781300
vn 0.212100 -0.808600 0.548700
vn -0.014900 -0.880900 0.473100
vn 0.265000 0.962500 -0.058100
vn 0.146400 0.585500 -0.797400
vn 0.249700 -0.034800 -0.967700
vn 0.920600 -0.386200 -0.058000
vn 0.603600 0.177900 -0.777200
vn 0.965700 -0.162100 0.202800
vn 0.996800 -0.025500 -0.075900
vn 0.137200 0.060700 0.988700
vn 0.948900 -0.310200 -0.058600
vn 0.804600 -0.232500 -0.546400
vn -0.414800 -0.513400 -0.751200
vn 0.833500 -0.104800 -0.542500
vn 0.831700 0.513400 -0.211500
vn 0.634500 0.459700 0.621400
vn 0.112000 0.425800 -0.897900
vn 0.909200 0.167600 0.381000
vn 0.955000 0.199400 -0.219600
vn 0.978300 0.062300 0.197600
vn 0.421000 -0.186300 -0.887700
vn 0.218200 -0.157500 0.963100
vn 0.632800 -0.438100 -0.638400
vn 0.169400 0.212000 -0.962500
vn 0.104700 0.119800 -0.987300
vn 0.127200 0.443900 0.887000
vn 0.360700 0.153100 -0.920000
vn 0.541900 0.429500 -0.722400
vn 0.087400 0.005700 -0.996200
vn 0.120700 -0.093900 -0.988200
vn -0.941100 -0.119100 -0.316300
vn 0.763300 -0.202400 0.613500
vn 0.001300 -0.430700 0.902500
vn -0.391700 -0.328400 0.859500
vn 0.867700 0.006200 0.497100
vn 0.852300 0.502400 0.145900
vn 0.034900 0.754200 0.655700
vn 0.255800 0.665200 0.701500
vn 0.277900 0.653700 0.703900
vn 0.139300 -0.135800 -0.980900
vn 0.873700 -0.350600 0.337400
vn 0.325000 -0.466000 -0.822900
vn 0.993800 0.100900 0.047300
vn 0.965700 0.259500 0.011400
vn 0.475600 -0.202300 0.856100
vn 0.281000 -0.081600 0.956200
vn 0.174400 -0.094700 0.980100
vn 0.006600 0.248100 0.968700
vn 0.006700 0.248100 0.968700
vn -0.009200 0.244100 0.969700
vn 0.064300 -0.070400 0.995400
vn 0.685500 -0.400300 -0.608100
vn -0.448200 -0.842600 -0.298600
vn 0.012300 0.586000 0.810200
vn 0.318100 -0.517200 0.794600
vn 0.277600 0.131500 0.951700
vn 0.104300 0.558000 0.823300
vn 0.045100 0.717100 -0.695500
vn 0.303900 0.952100 0.035100
vn -0.985000 0.056700 -0.162700
vn 0.984800 0.153800 -0.080300
vn 0.326200 -0.572200 -0.752500
vn -0.417700 -0.246400 0.874500
vn 0.155600 -0.156800 0.975300
vn -0.138600 -0.012300 -0.990300
vn -0.379200 -0.923600 0.055800
vn 0.893700 -0.404600 0.194200
vn 0.867400 -0.428600 0.252800
vn 0.239600 0.223500 0.944800
vn 0.643500 0.338700 -0.686400
vn 0.898500 -0.437700 0.034400
vn 0.901200 0.129800 0.413600
vn 0.609900 0.470100 -0.638000
vn -0.011900 -0.490400 -0.871400
vn -0.310400 0.942000 0.127300
vn -0.939800 0.154300 0.305000
vn -0.975500 0.162100 0.149000
vn 0.987800 0.048100 0.147900
vn -0.207500 -0.721900 -0.660200
vn -0.287300 -0.706800 0.646500
vn -0.025000 -0.803600 0.594600
vn -0.295700 0.952300 -0.075100
vn -0.141800 0.596600 -0.789900
vn -0.154200 -0.095300 -0.983400
vn -0.909400 -0.399100 -0.117100
vn -0.606600 0.191300 -0.771600
vn -0.959600 -0.145800 0.240500
vn -0.997800 -0.025600 -0.061400
vn -0.181000 0.144500 0.972800
vn -0.950600 -0.306000 -0.051400
vn -0.816300 -0.226000 -0.531600
vn 0.517700 -0.483800 -0.705700
vn -0.841300 -0.104900 -0.530300
vn -0.835200 0.478400 -0.271400
vn -0.652600 0.528000 0.543400
vn -0.121300 0.404500 -0.906400
vn -0.901600 0.170400 0.397500
vn -0.938000 0.191100 -0.289200
vn -0.988900 0.101100 0.109000
vn -0.367100 -0.240000 -0.898700
vn -0.309200 -0.078500 0.947800
vn -0.647700 -0.434100 -0.626100
vn -0.179800 0.215500 -0.959800
vn -0.117700 0.108800 -0.987100
vn -0.126200 0.445700 0.886200
vn -0.385100 0.120000 -0.915000
vn -0.565700 0.384300 -0.729600
vn -0.103000 0.006900 -0.994700
vn -0.135500 -0.093300 -0.986400
vn 0.953800 -0.225000 -0.199300
vn -0.719400 -0.360200 0.594000
vn 0.034900 -0.344600 0.938100
vn 0.294800 -0.274600 0.915200
vn -0.906700 0.069400 0.416100
vn -0.848100 0.520800 0.097400
vn -0.025400 0.763000 0.645900
vn -0.255500 0.703900 0.662800
vn -0.281500 0.694300 0.662300
vn -0.153500 -0.135900 -0.978800
vn -0.848400 -0.355900 0.391900
vn -0.335300 -0.442900 -0.831500
vn -0.984800 0.135900 0.108200
vn -0.961100 0.273700 0.037100
vn -0.518500 -0.218700 0.826600
vn -0.267600 -0.082400 0.960000
vn -0.158600 -0.095800 0.982700
vn 0.022500 0.252100 0.967400
vn -0.047000 -0.070900 0.996400
vn -0.722100 -0.336800 -0.604300
vn 0.407100 -0.892200 -0.195500
vn -0.007500 0.593700 0.804700
vn -0.322000 -0.524600 0.788100
vn -0.264900 0.131200 0.955300
vn -0.120000 0.576300 0.808300
vn -0.052500 0.711500 -0.700700
vn -0.328600 0.944400 0.008500
vn 0.991800 0.031700 -0.123500
vn -0.969100 0.173800 -0.175000
vn -0.293200 -0.693900 -0.657700
vn 0.319700 -0.198600 0.926500
vn -0.252200 -0.074200 0.964800
vn 0.182300 -0.089500 -0.979200
vn 0.393700 -0.905700 0.157500
vn -0.922400 -0.361700 0.135200
vn -0.908200 -0.367800 0.199800
vn -0.232900 0.218400 0.947700
vn -0.643700 0.377400 -0.665800
vn -0.919500 -0.374800 0.118500
vn -0.883400 0.131400 0.449800
vn -0.598400 0.511100 -0.617000
vn 0.022900 -0.484200 -0.874700
vn 0.350100 -0.253500 0.901700
vn 0.005600 0.270900 0.962600
vn -0.261200 -0.235100 0.936200
vn 0.524600 0.487100 0.698200
vn 0.604800 0.768700 0.208000
vn 0.134800 0.694300 0.707000
vn 0.017100 0.312900 0.949600
vn -0.579600 0.801500 0.147000
vn -0.105500 0.734800 0.670100
vn -0.545400 0.558600 0.624900
vn -0.669500 -0.080200 0.738500
vn -0.361200 -0.188800 0.913200
vn -0.923900 -0.290800 0.248600
vn 0.941400 -0.281300 0.185900
vn 0.592900 -0.092000 0.800000
vn 0.379700 -0.109100 0.918700
f 57//1 54//1 20//1
f 57//1 20//1 22//1
f 62//2 63//2 28//2
f 62//2 28//2 29//2
f 63//3 64//3 30//3
f 63//3 30//3 28//3
f 61//4 67//4 41//4
f 61//4 41//4 10//4
f 65//5 48//5 49//5
f 65//5 49//5 66//5
f 59//6 45//6 43//6
f 59//6 43//6 62//6
f 67//7 50//7 45//7
f 67//7 45//7 59//7
f 55//8 21//8 23//8
f 55//8 23//8 56//8
f 128//9 4//9 72//9
f 128//9 72//9 164//9
f 60//10 65//10 27//10
f 60//10 27//10 24//10
f 64//11 47//11 44//11
f 64//11 44//11 60//11
f 34//12 3//12 4//12
f 34//12 4//12 35//12
f 38//13 178//13 36//13
f 38//13 36//13 37//13
f 37//14 34//14 39//14
f 37//14 39//14 38//14
f 166//15 167//15 25//15
f 166//15 25//15 16//15
f 39//16 12//16 10//16
f 39//16 10//16 38//16
f 33//17 13//17 12//17
f 33//17 12//17 39//17
f 27//18 12//18 19//18
f 34//19 35//19 33//19
f 34//19 33//19 39//19
f 17//20 21//20 22//20
f 17//20 22//20 18//20
f 15//21 169//21 168//21
f 15//21 168//21 16//21
f 23//22 32//22 132//22
f 23//22 132//22 131//22
f 1//23 2//23 37//23
f 1//23 37//23 36//23
f 18//24 30//24 24//24
f 18//24 24//24 17//24
f 15//25 28//25 30//25
f 15//25 30//25 18//25
f 17//26 24//26 27//26
f 17//26 27//26 19//26
f 26//27 29//27 16//27
f 26//27 16//27 25//27
f 13//28 31//28 19//28
f 13//28 19//28 12//28
f 4//29 128//29 136//29
f 4//29 136//29 35//29
f 32//30 31//30 133//30
f 32//30 133//30 132//30
f 58//31 143//31 127//31
f 58//31 127//31 51//31
f 17//32 19//32 31//32
f 17//32 31//32 32//32
f 21//33 17//33 32//33
f 21//33 32//33 23//33
f 134//34 133//34 31//34
f 134//34 31//34 13//34
f 135//35 134//35 13//35
f 135//35 13//35 33//35
f 41//36 40//36 10//36
f 10//37 40//37 165//37
f 10//37 165//37 177//37
f 165//38 40//38 25//38
f 165//38 25//38 167//38
f 25//39 40//39 41//39
f 25//39 41//39 26//39
f 16//40 29//40 28//40
f 16//40 28//40 15//40
f 18//41 22//41 169//41
f 18//41 169//41 15//41
f 51//42 52//42 166//43
f 51//42 166//43 168//44
f 35//45 136//45 135//45
f 35//45 135//45 33//45
f 70//46 7//46 6//46
f 70//46 6//46 71//46
f 8//47 9//47 72//47
f 8//47 72//47 68//47
f 69//48 3//48 2//48
f 69//48 2//48 71//48
f 2//49 3//49 34//49
f 2//49 34//49 37//49
f 11//50 14//50 178//50
f 11//50 178//50 177//50
f 36//51 14//51 139//51
f 36//51 139//51 138//51
f 14//52 11//52 140//52
f 14//52 140//52 139//52
f 137//53 141//54 53//55
f 137//53 53//55 52//55
f 11//56 53//56 141//56
f 11//56 141//56 140//56
f 69//57 5//57 8//57
f 69//57 8//57 68//57
f 66//58 49//58 42//58
f 66//58 42//58 61//58
f 52//59 51//59 127//59
f 52//59 127//59 137//59
f 160//60 129//60 7//60
f 160//60 7//60 70//60
f 36//61 138//61 126//61
f 36//61 126//61 1//61
f 20//62 54//62 58//62
f 20//62 58//62 51//62
f 131//63 147//63 56//63
f 131//63 56//63 23//63
f 21//64 55//64 57//64
f 21//64 57//64 22//64
f 12//65 66//65 61//65
f 12//65 61//65 10//65
f 30//66 64//66 60//66
f 30//66 60//66 24//66
f 44//67 48//67 65//67
f 44//67 65//67 60//67
f 41//68 67//68 59//68
f 41//68 59//68 26//68
f 26//69 59//69 62//69
f 26//69 62//69 29//69
f 27//70 65//70 66//70
f 27//70 66//70 12//70
f 42//71 50//71 67//71
f 42//71 67//71 61//71
f 46//72 47//72 64//72
f 46//72 64//72 63//72
f 43//73 46//73 63//73
f 43//73 63//73 62//73
f 126//74 160//74 70//74
f 126//74 70//74 1//74
f 3//75 69//75 68//75
f 3//75 68//75 4//75
f 5//76 69//76 71//76
f 5//76 71//76 6//76
f 1//77 70//77 71//77
f 1//77 71//77 2//77
f 68//78 72//78 4//78
f 164//79 72//79 9//79
f 164//79 9//79 130//79
f 146//80 94//80 92//80
f 146//80 92//80 142//80
f 152//81 101//81 100//81
f 152//81 100//81 153//81
f 153//82 100//82 102//82
f 153//82 102//82 154//82
f 151//83 82//83 113//83
f 151//83 113//83 157//83
f 155//84 156//84 121//84
f 155//84 121//84 120//84
f 149//85 152//85 115//85
f 149//85 115//85 117//85
f 157//86 149//86 117//86
f 157//86 117//86 122//86
f 144//87 145//87 95//87
f 144//87 95//87 93//87
f 128//88 164//88 163//88
f 128//88 163//88 76//88
f 150//89 96//89 99//89
f 150//89 99//89 155//89
f 154//90 150//90 116//90
f 154//90 116//90 119//90
f 106//91 107//91 76//91
f 106//91 76//91 75//91
f 110//92 109//92 108//92
f 110//92 108//92 176//92
f 109//93 110//93 111//93
f 109//93 111//93 106//93
f 171//94 88//94 97//94
f 171//94 97//94 172//94
f 111//95 110//95 82//95
f 111//95 82//95 84//95
f 105//96 111//96 84//96
f 105//96 84//96 85//96
f 99//97 91//97 84//97
f 106//98 111//98 105//98
f 106//98 105//98 107//98
f 89//99 90//99 94//99
f 89//99 94//99 93//99
f 87//100 88//100 173//100
f 87//100 173//100 174//100
f 95//101 131//101 132//101
f 95//101 132//101 104//101
f 73//102 108//102 109//102
f 73//102 109//102 74//102
f 90//103 89//103 96//103
f 90//103 96//103 102//103
f 87//104 90//104 102//104
f 87//104 102//104 100//104
f 89//105 91//105 99//105
f 89//105 99//105 96//105
f 98//106 97//106 88//106
f 98//106 88//106 101//106
f 85//107 84//107 91//107
f 85//107 91//107 103//107
f 76//108 107//108 136//108
f 76//108 136//108 128//108
f 104//109 132//109 133//109
f 104//109 133//109 103//109
f 148//110 123//110 127//110
f 148//110 127//110 143//110
f 89//111 104//111 103//111
f 89//111 103//111 91//111
f 93//112 95//112 104//112
f 93//112 104//112 89//112
f 134//113 85//113 103//113
f 134//113 103//113 133//113
f 135//114 105//114 85//114
f 135//114 85//114 134//114
f 113//115 82//115 112//115
f 82//116 175//116 170//116
f 82//116 170//116 112//116
f 170//117 172//117 97//117
f 170//117 97//117 112//117
f 97//118 98//118 113//118
f 97//118 113//118 112//118
f 88//119 87//119 100//119
f 88//119 100//119 101//119
f 90//120 87//120 174//120
f 90//120 174//120 94//120
f 123//121 173//122 171//123
f 123//121 171//123 124//121
f 107//124 105//124 135//124
f 107//124 135//124 136//124
f 161//125 162//125 78//125
f 161//125 78//125 79//125
f 80//126 158//126 163//126
f 80//126 163//126 81//126
f 159//127 162//127 74//127
f 159//127 74//127 75//127
f 74//128 109//128 106//128
f 74//128 106//128 75//128
f 83//129 175//129 176//129
f 83//129 176//129 86//129
f 108//130 138//130 139//130
f 108//130 139//130 86//130
f 86//131 139//131 140//131
f 86//131 140//131 83//131
f 137//53 124//132 125//132
f 137//53 125//132 141//54
f 83//133 140//133 141//133
f 83//133 141//133 125//133
f 159//134 158//134 80//134
f 159//134 80//134 77//134
f 156//135 151//135 114//135
f 156//135 114//135 121//135
f 124//136 137//136 127//136
f 124//136 127//136 123//136
f 160//137 161//137 79//137
f 160//137 79//137 129//137
f 108//138 73//138 126//138
f 108//138 126//138 138//138
f 92//139 123//139 148//139
f 92//139 148//139 142//139
f 131//140 95//140 145//140
f 131//140 145//140 147//140
f 93//141 94//141 146//141
f 93//141 146//141 144//141
f 84//142 82//142 151//142
f 84//142 151//142 156//142
f 102//143 96//143 150//143
f 102//143 150//143 154//143
f 116//144 150//144 155//144
f 116//144 155//144 120//144
f 113//145 98//145 149//145
f 113//145 149//145 157//145
f 98//146 101//146 152//146
f 98//146 152//146 149//146
f 99//147 84//147 156//147
f 99//147 156//147 155//147
f 114//148 151//148 157//148
f 114//148 157//148 122//148
f 118//149 153//149 154//149
f 118//149 154//149 119//149
f 115//150 152//150 153//150
f 115//150 153//150 118//150
f 126//151 73//151 161//151
f 126//151 161//151 160//151
f 75//152 76//152 158//152
f 75//152 158//152 159//152
f 77//153 78//153 162//153
f 77//153 162//153 159//153
f 73//154 74//154 162//154
f 73//154 162//154 161//154
f 158//155 76//155 163//155
f 164//156 130//156 81//156
f 164//156 81//156 163//156
f 11//157 165//157 167//157
f 11//157 167//157 53//157
f 52//158 53//158 167//158
f 52//158 167//158 166//158
f 83//159 125//159 172//159
f 83//159 172//159 170//159
f 168//44 166//43 16//160
f 169//161 22//161 20//161
f 168//162 169//162 20//162
f 168//162 20//162 51//162
f 124//163 171//163 172//163
f 124//163 172//163 125//163
f 94//164 174//164 92//164
f 174//165 173//165 123//165
f 174//165 123//165 92//165
f 171//123 173//122 88//166
f 176//167 108//167 86//167
f 170//168 175//168 83//168
f 176//169 175//169 82//169
f 176//169 82//169 110//169
f 177//170 178//170 38//170
f 177//170 38//170 10//170
f 36//171 178//171 14//171
f 177//172 165//172 11//172
