# prebaked split of model.obj material Socks.002
mtllib Socks_002.mtl
usemtl Socks.002
v 0.134501 0.063617 -0.057401
v 0.134414 0.054100 -0.015914
v 0.211605 0.056814 -0.031780
v 0.153829 0.055839 0.007746
v 0.188674 0.064679 -0.067621
v 0.189815 0.057608 0.015976
v 0.156555 0.066705 -0.070058
v 0.206216 0.077672 -0.029009
v 0.130801 0.073428 -0.015040
v 0.136486 0.079407 -0.045562
v 0.160341 0.082082 -0.058363
v 0.178830 0.074263 0.004224
v 0.193130 0.082542 -0.055238
v 0.150596 0.072034 0.005675
v -0.139014 0.063969 -0.031030
v -0.126457 0.055057 0.009525
v -0.207559 0.056267 0.012789
v -0.143465 0.056173 0.039077
v -0.193199 0.062874 -0.021802
v -0.178460 0.057465 0.054565
v -0.164237 0.065951 -0.034965
v -0.197302 0.075842 0.019860
v -0.121319 0.074656 0.007503
v -0.137326 0.079862 -0.019265
v -0.164272 0.081352 -0.022701
v -0.160642 0.073942 0.041987
v -0.193802 0.080573 -0.008277
v -0.133293 0.072771 0.033978
vn 0.083800 0.570900 -0.816800
vn -0.119600 0.340600 0.932600
vn 0.864600 0.201000 -0.460500
vn -0.996400 -0.016000 -0.083300
vn -0.446900 0.590300 -0.672200
vn -0.743400 -0.121100 0.657800
vn 0.759000 0.445100 0.475200
vn -0.382500 0.563200 -0.732400
vn 0.352800 0.191000 0.916000
vn -0.916700 0.347000 -0.198300
vn 0.913600 -0.065500 -0.401400
vn 0.151100 0.597000 -0.787900
vn 0.855400 -0.275500 0.438700
vn -0.581300 0.545000 0.604200
f 11//1 13//1 5//1
f 11//1 5//1 7//1
f 12//2 14//2 4//2
f 12//2 4//2 6//2
f 13//3 8//3 3//3
f 13//3 3//3 5//3
f 9//4 10//4 1//4
f 9//4 1//4 2//4
f 10//5 11//5 7//5
f 10//5 7//5 1//5
f 14//6 9//6 2//6
f 14//6 2//6 4//6
f 6//7 3//7 8//7
f 6//7 8//7 12//7
f 25//8 21//8 19//8
f 25//8 19//8 27//8
f 26//9 20//9 18//9
f 26//9 18//9 28//9
f 27//10 19//10 17//10
f 27//10 17//10 22//10
f 23//11 16//11 15//11
f 23//11 15//11 24//11
f 24//12 15//12 21//12
f 24//12 21//12 25//12
f 28//13 18//13 16//13
f 28//13 16//13 23//13
f 20//14 26//14 22//14
f 20//14 22//14 17//14
