# material split: Aluminium_x
v 0.892636 3.279761 -4.621957
v 1.000000 3.280434 -16.979490
v 1.000000 3.280434 -4.409265
v -1.000000 3.280434 -16.979490
v -0.892758 3.280055 -16.767805
v -1.000000 3.280434 -4.409265
v -0.892520 3.279481 -4.622226
v 0.892707 3.279932 -16.767925
vt 0.979069 0.924855
vt 0.018739 0.924855
vt 0.018739 0.924855
vt 0.979069 0.924855
vt 0.001974 0.916388
vt 0.001974 0.916388
vt 0.995834 0.916389
vn -0.000200 1.000000 -0.000000
vn 0.000100 1.000000 -0.000000
vn -0.000100 1.000000 -0.003800
vn -0.000000 1.000000 0.002100
vn -0.005500 1.000000 -0.000000
vn 0.006200 1.000000 -0.000000
f 8/1/1 7/2/1 1/3/1
f 5/4/2 7/2/2 8/1/2
f 6/5/3 3/6/3 1/3/3
f 6/5/3 1/3/3 7/2/3
f 8/1/4 2/7/4 4/7/4
f 8/1/4 4/7/4 5/4/4
f 3/6/5 2/7/5 8/1/5
f 3/6/5 8/1/5 1/3/5
f 5/4/6 4/7/6 6/5/6
f 5/4/6 6/5/6 7/2/6
