# material split: Aluminium_z
v 1.000000 0.955800 -4.409265
v 0.892915 3.088601 -4.410728
v 1.000000 3.280434 -16.979490
v 0.892915 3.088601 -16.979490
v 0.999348 1.147633 -16.767441
v 1.000000 0.955800 -16.979490
v 0.893216 1.147633 -16.895849
v 0.999298 3.088601 -16.767441
v 1.000000 3.280434 -4.409265
v 0.998683 1.147633 -4.621310
v 0.998777 3.088601 -4.621310
v 0.892915 1.147633 -4.410642
v 0.990689 0.955800 -16.977512
v 0.893129 3.088601 -16.895849
v 0.894361 3.088601 -4.646014
v -1.000000 0.955800 -4.409265
v -1.000000 3.280434 -16.979490
v -0.992368 0.955800 -16.977720
v -0.892915 3.088601 -4.410995
v -0.892915 3.088601 -16.979490
v -0.892915 1.147633 -16.979490
v -0.893183 1.147633 -16.895849
v -0.999349 1.147633 -16.767441
v -0.999298 3.088601 -16.767441
v 0.892915 1.147633 -16.979490
v -1.000000 3.280434 -4.409265
v -0.998684 1.147633 -4.621310
v -0.998778 3.088601 -4.621310
v -0.892915 1.147633 -4.411093
v 0.990689 0.955800 -16.769417
v -0.990854 0.955800 -16.769417
v -0.893130 3.088601 -16.895849
v -0.894362 3.088601 -4.646014
v 0.894361 1.147633 -4.646014
v -0.894362 1.147633 -4.646014
v -0.881659 1.147632 -16.986141
v -0.881659 3.088601 -16.986141
v -1.331900 3.088601 -17.757233
v -1.334060 1.147632 -17.755974
v -1.336212 3.088601 -17.754700
v 0.883990 1.147632 -16.985573
v 0.881981 3.088601 -16.987061
v 1.411690 1.147632 -17.705883
v 1.411690 3.088601 -17.705883
v 0.879965 1.147632 -16.988537
vt 0.000000 0.000000
vt 0.996202 0.725718
vt 0.979434 0.725718
vt 0.076485 0.543793
vt 0.084971 0.528591
vt 0.901317 0.512157
vt 0.909802 0.527357
vt 0.969792 0.201244
vt 0.969792 0.047449
vt 0.969794 0.201244
vt 0.899042 0.201244
vt 0.899042 0.047449
vt 0.969793 0.047449
vt 0.899042 0.047449
vt 0.084971 0.712817
vt 0.084971 0.712817
vt 0.076485 0.697614
vt 0.909802 0.681153
vt 0.901317 0.696353
vt 0.002208 0.725718
vt 0.018975 0.740887
vt 0.018975 0.894370
vt 0.002208 0.909539
vt 0.979434 0.740887
vt 0.996202 0.909539
vt 0.979434 0.894370
vt 0.084971 0.528591
vt 0.979430 0.725718
vt 0.969792 0.201244
vt 0.899042 0.201244
vn -0.000000 -1.000000 -0.000000
vn -0.000000 1.000000 -0.000000
vn 1.000000 -0.000000 -0.000000
vn -1.000000 -0.000000 -0.000000
vn -0.000300 0.007000 1.000000
vn -0.000000 -0.000000 -1.000000
vn -0.000900 -0.008800 -1.000000
vn 0.206300 0.576900 -0.790400
vn 0.343000 -0.735900 0.583800
vn -0.790800 0.576800 -0.204500
vn 0.392800 0.631800 0.668300
vn -0.807800 -0.576800 0.121500
vn 0.460300 -0.630900 -0.624600
vn 0.123300 -0.576900 0.807500
vn -0.000000 -0.009000 1.000000
vn -0.000200 -0.000000 1.000000
vn 1.000000 -0.000000 -0.006000
vn 1.000000 -0.000000 0.003200
vn -0.000100 -0.007500 1.000000
vn -0.000000 0.009500 1.000000
vn -1.000000 -0.000000 0.003100
vn 1.000000 0.005100 -0.000000
vn 1.000000 -0.005000 -0.000000
vn -0.013300 -0.000000 0.999900
vn -1.000000 -0.000000 0.000100
vn -0.008600 -0.000400 -1.000000
vn -1.000000 -0.000000 -0.006000
vn -0.999900 -0.001800 -0.014900
vn 1.000000 -0.000000 0.002900
vn -0.999000 -0.044300 0.007300
vn -0.999800 -0.018900 -0.000300
vn -1.000000 -0.005000 -0.000000
vn 0.016600 -0.000000 0.999900
vn 1.000000 -0.000000 0.000100
vn 0.460300 -0.417900 0.783200
vn 0.539000 0.417800 -0.731400
vn 0.401700 0.735900 -0.545100
f 6/2/1 30/3/1 13/2/1
f 22/1/2 7/1/2 25/1/2
f 12/4/5 29/4/5 1/5/5
f 6/1/1 1/1/1 30/1/1
f 22/1/2 34/1/2 7/1/2
f 18/6/7 21/7/7 6/6/7
f 6/6/1 13/6/1 18/6/1
f 32/1/1 20/1/1 4/1/1
f 22/1/2 25/1/2 21/1/2
f 16/1/1 31/1/1 30/1/1
f 38/8/8 39/9/9 40/10/10
f 37/11/11 38/8/8 40/10/10
f 45/12/12 43/13/13 41/14/14
f 9/15/15 26/16/15 19/17/15
f 4/18/6 20/18/6 17/19/6
f 4/18/6 17/19/6 3/19/6
f 29/4/16 12/4/16 2/17/16
f 29/4/16 2/17/16 19/17/16
f 6/6/6 25/7/6 4/18/6
f 6/6/6 4/18/6 3/19/6
f 1/20/17 10/21/17 11/22/17
f 1/20/17 11/22/17 9/23/17
f 5/24/18 6/2/18 3/25/18
f 5/24/18 3/25/18 8/26/18
f 2/17/19 9/15/19 19/17/19
f 1/5/20 29/4/20 16/27/20
f 14/1/21 4/1/21 25/1/21
f 14/1/21 25/1/21 7/1/21
f 1/20/22 6/2/22 5/24/22
f 1/20/22 5/24/22 10/21/22
f 4/1/1 14/1/1 32/1/1
f 10/21/3 5/24/3 8/26/3
f 10/21/3 8/26/3 11/22/3
f 11/22/23 8/26/23 3/25/23
f 11/22/23 3/25/23 9/23/23
f 30/1/1 1/1/1 16/1/1
f 12/4/24 1/5/24 9/15/24
f 12/4/24 9/15/24 2/17/24
f 33/1/1 32/1/1 14/1/1
f 33/1/1 14/1/1 15/1/1
f 15/1/25 14/1/25 7/1/25
f 15/1/25 7/1/25 34/1/25
f 33/1/6 15/1/6 34/1/6
f 33/1/6 34/1/6 35/1/6
f 20/18/26 21/7/26 18/6/26
f 20/18/26 18/6/26 17/19/26
f 28/22/27 27/21/27 16/20/27
f 28/22/27 16/20/27 26/23/27
f 17/25/28 18/2/28 23/24/28
f 17/25/28 23/24/28 24/26/28
f 6/6/6 21/7/6 25/7/6
f 21/1/29 20/1/29 32/1/29
f 21/1/29 32/1/29 22/1/29
f 31/28/30 23/24/30 18/2/30
f 23/24/31 31/28/31 16/20/31
f 23/24/31 16/20/31 27/21/31
f 24/26/4 23/24/4 27/21/4
f 24/26/4 27/21/4 28/22/4
f 17/25/32 24/26/32 28/22/32
f 17/25/32 28/22/32 26/23/32
f 26/16/33 16/27/33 29/4/33
f 26/16/33 29/4/33 19/17/33
f 22/1/34 32/1/34 33/1/34
f 22/1/34 33/1/34 35/1/34
f 35/1/2 34/1/2 22/1/2
f 40/10/10 39/9/9 36/14/35
f 40/10/10 36/14/35 37/11/11
f 36/14/35 39/9/9 38/8/8
f 36/14/35 38/8/8 37/11/11
f 41/14/14 43/13/13 44/29/36
f 41/14/14 44/29/36 42/30/37
f 44/29/36 43/13/13 45/12/12
f 44/29/36 45/12/12 42/30/37
f 42/30/37 45/12/12 41/14/14
