# material split: Glass_Tinted
v 1.003898 1.932565 -2.711262
v 1.003898 1.772703 -2.711262
v 1.003898 1.772703 -2.479338
v 1.003898 1.932565 -2.479338
v 0.997764 1.932565 -2.238498
v 0.997764 1.772703 -2.238498
v 0.997764 1.772703 -2.470422
v 0.997764 1.932565 -2.470422
v 1.003898 1.772703 -2.711262
v 1.003898 1.932565 -2.711262
v 1.003898 1.772703 -2.479338
v 1.003898 1.932565 -2.479338
v 1.003898 1.772703 -2.711262
v 1.003898 1.772703 -2.479338
v 1.003898 1.772703 -2.711262
v 1.003898 1.772703 -2.479338
v 1.003898 1.932565 -2.711262
v 1.003898 1.932565 -2.479338
v 1.003898 1.932565 -2.711262
v 1.003898 1.932565 -2.479338
v 0.997764 1.772703 -2.470422
v 0.997764 1.932565 -2.470422
v 0.997764 1.772703 -2.238498
v 0.997764 1.932565 -2.238498
v 0.997764 1.932565 -2.238498
v 0.997764 1.932565 -2.470422
v 0.997764 1.932565 -2.470422
v 0.997764 1.932565 -2.238498
v 0.997764 1.772703 -2.238498
v 0.997764 1.772703 -2.470422
v 0.997764 1.772703 -2.470422
v 0.997764 1.772703 -2.238498
v -0.984157 1.932565 -2.711262
v -0.984157 1.772703 -2.711262
v -0.984157 1.772703 -2.479338
v -0.984157 1.932565 -2.479338
v -0.978023 1.932565 -2.238498
v -0.978023 1.772703 -2.238498
v -0.978023 1.772703 -2.470422
v -0.978023 1.932565 -2.470422
v -0.984157 1.772703 -2.711262
v -0.984157 1.932565 -2.711262
v -0.984157 1.772703 -2.479338
v -0.984157 1.932565 -2.479338
v -0.984157 1.772703 -2.711262
v -0.984157 1.772703 -2.479338
v -0.984157 1.772703 -2.711262
v -0.984157 1.772703 -2.479338
v -0.984157 1.932565 -2.711262
v -0.984157 1.932565 -2.479338
v -0.984157 1.932565 -2.711262
v -0.984157 1.932565 -2.479338
v -0.978023 1.772703 -2.470422
v -0.978023 1.932565 -2.470422
v -0.978023 1.772703 -2.238498
v -0.978023 1.932565 -2.238498
v -0.978023 1.932565 -2.238498
v -0.978023 1.932565 -2.470422
v -0.978023 1.932565 -2.470422
v -0.978023 1.932565 -2.238498
v -0.978023 1.772703 -2.238498
v -0.978023 1.772703 -2.470422
v -0.978023 1.772703 -2.470422
v -0.978023 1.772703 -2.238498
vt 0.000000 0.000000
vn -0.000000 1.000000 -0.000000
vn 0.316200 0.948700 -0.000000
vn 0.242500 0.970100 -0.000000
vn -0.316200 0.948700 -0.000000
vn -0.242500 0.970100 -0.000000
f 28/1/3 5/1/1 25/1/1
f 20/1/3 4/1/1 18/1/1
f 17/1/1 10/1/1 19/1/2
f 19/1/2 12/1/1 20/1/3
f 9/1/1 16/1/2 11/1/1
f 2/1/1 15/1/3 9/1/1
f 11/1/1 14/1/1 3/1/1
f 13/1/1 19/1/2 15/1/3
f 16/1/2 18/1/1 14/1/1
f 26/1/1 22/1/1 27/1/2
f 27/1/2 24/1/1 28/1/3
f 30/1/1 27/1/2 31/1/3
f 32/1/2 25/1/1 29/1/1
f 23/1/1 29/1/1 6/1/1
f 7/1/1 31/1/3 21/1/1
f 21/1/1 32/1/2 23/1/1
f 60/1/5 37/1/1 56/1/1
f 52/1/5 36/1/1 44/1/1
f 49/1/1 42/1/1 33/1/1
f 51/1/4 44/1/1 42/1/1
f 41/1/1 48/1/4 47/1/5
f 34/1/1 47/1/5 45/1/1
f 43/1/1 46/1/1 48/1/4
f 45/1/1 51/1/4 49/1/1
f 48/1/4 50/1/1 52/1/5
f 58/1/1 54/1/1 40/1/1
f 59/1/4 56/1/1 54/1/1
f 62/1/1 59/1/4 58/1/1
f 64/1/4 57/1/1 60/1/5
f 55/1/1 61/1/1 64/1/4
f 39/1/1 63/1/5 62/1/1
f 53/1/1 64/1/4 63/1/5
f 28/1/3 24/1/1 5/1/1
f 20/1/3 12/1/1 4/1/1
f 16/1/2 15/1/3 19/1/2
f 16/1/2 19/1/2 20/1/3
f 17/1/1 1/1/1 10/1/1
f 19/1/2 10/1/1 12/1/1
f 9/1/1 15/1/3 16/1/2
f 2/1/1 13/1/1 15/1/3
f 11/1/1 16/1/2 14/1/1
f 32/1/2 31/1/3 27/1/2
f 32/1/2 27/1/2 28/1/3
f 13/1/1 17/1/1 19/1/2
f 16/1/2 20/1/3 18/1/1
f 26/1/1 8/1/1 22/1/1
f 27/1/2 22/1/1 24/1/1
f 30/1/1 26/1/1 27/1/2
f 32/1/2 28/1/3 25/1/1
f 23/1/1 32/1/2 29/1/1
f 7/1/1 30/1/1 31/1/3
f 21/1/1 31/1/3 32/1/2
f 60/1/5 57/1/1 37/1/1
f 52/1/5 50/1/1 36/1/1
f 51/1/4 47/1/5 48/1/4
f 51/1/4 48/1/4 52/1/5
f 49/1/1 51/1/4 42/1/1
f 51/1/4 52/1/5 44/1/1
f 41/1/1 43/1/1 48/1/4
f 34/1/1 41/1/1 47/1/5
f 43/1/1 35/1/1 46/1/1
f 59/1/4 63/1/5 64/1/4
f 59/1/4 64/1/4 60/1/5
f 45/1/1 47/1/5 51/1/4
f 48/1/4 46/1/1 50/1/1
f 58/1/1 59/1/4 54/1/1
f 59/1/4 60/1/5 56/1/1
f 62/1/1 63/1/5 59/1/4
f 64/1/4 61/1/1 57/1/1
f 55/1/1 38/1/1 61/1/1
f 39/1/1 53/1/1 63/1/5
f 53/1/1 55/1/1 64/1/4
