# material split: Light_Amber
v -1.054411 1.918247 -1.162704
v -1.045237 1.764306 -1.154590
v -1.040427 1.917913 -1.152986
v 0.622229 0.482034 -0.712761
v 0.619152 0.605072 -0.720795
v 0.619073 0.719270 -0.720711
v 0.622247 0.824639 -0.713059
v 1.006360 0.852054 -2.177198
v 1.008394 0.843366 -2.198836
v 1.008267 0.849758 -2.293894
v 1.006564 0.836368 -2.446969
v 1.008614 0.848085 -2.419547
v 1.006335 0.852073 -2.552207
v 1.009130 0.836437 -2.561064
v 1.008758 0.850284 -2.677060
v 1.006333 0.852076 -2.802217
v 1.006339 0.852067 -2.927217
v 1.008295 0.843731 -2.948833
v 1.008778 0.850231 -3.301970
v 0.627915 0.852068 -1.381025
v 0.629932 0.841336 -1.368203
v 0.629614 0.851110 -1.506191
v 0.628033 0.852030 -1.631043
v 0.628033 0.852030 -1.756045
v 0.629614 0.851108 -1.881185
v 0.629616 0.851110 -2.006193
v 0.619607 0.461972 -0.721487
v 0.619188 0.469487 -0.838626
v 0.617236 0.489631 -0.828956
v 0.615698 0.492360 -0.707378
v 0.623028 0.587895 -0.712291
v 0.619244 0.597743 -0.838678
v 0.617014 0.577105 -0.827469
v 0.615765 0.573336 -0.714888
v 0.623011 0.702186 -0.712055
v 0.619205 0.711948 -0.838618
v 0.617022 0.691319 -0.827490
v 0.615733 0.687539 -0.714888
v 0.619594 0.804595 -0.721429
v 0.619143 0.812076 -0.838618
v 0.619398 0.829853 -0.826501
v 0.615718 0.834957 -0.707355
v 1.006636 0.841194 -2.163288
v 1.006332 0.833114 -2.185987
v 1.006361 0.835047 -2.294569
v 1.006904 0.840882 -2.325845
v 1.006451 0.838008 -2.415076
v 1.006378 0.850138 -2.443641
v 1.006624 0.839519 -2.538419
v 1.006598 0.842596 -2.575607
v 1.006506 0.841069 -2.663269
v 1.006339 0.833117 -2.686001
v 1.006640 0.843993 -2.699950
v 1.006493 0.841069 -2.788265
v 1.008967 0.835097 -2.810412
v 1.006501 0.844119 -2.824947
v 1.006671 0.841168 -2.913302
v 1.006341 0.833117 -2.936005
v 1.006567 0.844128 -3.038295
v 1.008026 0.834047 -3.052279
v 1.006582 0.841065 -3.074916
v 1.006443 0.852035 -3.060981
v 1.008095 0.845848 -3.163904
v 1.006531 0.833131 -3.185679
v 1.006717 0.845563 -3.199797
v 1.006591 0.839487 -3.288411
v 1.006928 0.839381 -3.325470
v 0.627931 0.833114 -1.389811
v 0.628161 0.844116 -1.403720
v 0.628144 0.841060 -1.492101
v 0.628023 0.833140 -1.514787
v 0.628159 0.844139 -1.528693
v 0.628144 0.841060 -1.617101
v 0.629579 0.833990 -1.639661
v 0.628151 0.844116 -1.653725
v 0.628144 0.841060 -1.742100
v 0.629579 0.833990 -1.764661
v 0.628151 0.844117 -1.778725
v 0.628144 0.841060 -1.867100
v 0.628016 0.833138 -1.889798
v 0.628151 0.844113 -1.903725
v 0.628161 0.841064 -1.992110
v 0.628033 0.833153 -2.014781
v 0.628161 0.844117 -2.028720
v 0.629853 0.844106 -1.244529
v 0.631305 0.834072 -1.258613
v 0.629844 0.841058 -1.281123
v 0.629719 0.852028 -1.267179
v 0.633786 0.844091 -1.122000
v 0.635231 0.834076 -1.136066
v 0.633773 0.841068 -1.158596
v 0.633649 0.852024 -1.144669
v -0.599895 0.491057 -0.721401
v -0.599655 0.465760 -0.826389
v -0.602162 0.603748 -0.721543
v -0.599883 0.719451 -0.721491
v -0.602530 0.824638 -0.713124
v -0.988741 0.850866 -2.178919
v -0.989156 0.845435 -2.541650
v -0.988739 0.850870 -2.803928
v -0.988738 0.850869 -3.053936
v -0.989536 0.848783 -3.179000
v -0.988915 0.841075 -3.290021
v -0.610229 0.841283 -1.527356
v -0.608809 0.836345 -1.650479
v -0.608809 0.836345 -1.775479
v -0.602543 0.471145 -0.713135
v -0.599450 0.483544 -0.838622
v -0.596061 0.459174 -0.714855
v -0.599993 0.578586 -0.715217
v -0.599458 0.583698 -0.838632
v -0.599651 0.601462 -0.826424
v -0.602531 0.699499 -0.712888
v -0.599469 0.711952 -0.838619
v -0.597517 0.691821 -0.828895
v -0.595911 0.689075 -0.707391
v -0.596056 0.836503 -0.714888
v -0.599899 0.804607 -0.721465
v -0.599452 0.812089 -0.838641
v -0.599651 0.829867 -0.826428
v -0.987182 0.836010 -2.165382
v -0.986902 0.842555 -2.200592
v -0.987394 0.840815 -2.287668
v -0.986637 0.835040 -2.318652
v -0.988437 0.849877 -2.319309
v -0.986659 0.851670 -2.422194
v -0.987055 0.837778 -2.415443
v -0.986624 0.835047 -2.443641
v -0.988844 0.846003 -2.446708
v -0.986658 0.851668 -2.566025
v -0.986837 0.835009 -2.544807
v -0.986712 0.838009 -2.573142
v -0.986849 0.845693 -2.663411
v -0.989035 0.834956 -2.676963
v -0.987183 0.845796 -2.700473
v -0.986765 0.841068 -2.788269
v -0.986983 0.833138 -2.810167
v -0.986765 0.844114 -2.824947
v -0.986713 0.852030 -2.935983
v -0.986681 0.845610 -2.914403
v -0.988783 0.835886 -2.921223
v -0.986851 0.839490 -2.949804
v -0.987193 0.835998 -3.040381
v -0.986888 0.842591 -3.075599
v -0.986840 0.842598 -3.162604
v -0.986588 0.833109 -3.186017
v -0.986837 0.845690 -3.199798
v -0.986601 0.852065 -3.302206
v -0.986593 0.833106 -3.310997
v -0.986809 0.844144 -3.324927
v -0.608913 0.840793 -1.366410
v -0.608224 0.835050 -1.397458
v -0.610037 0.849858 -1.398067
v -0.608182 0.852065 -1.514805
v -0.608418 0.844120 -1.492109
v -0.608180 0.833114 -1.506019
v -0.608556 0.839622 -1.617224
v -0.609640 0.852382 -1.640788
v -0.608554 0.839624 -1.742221
v -0.609624 0.852426 -1.765802
v -0.608425 0.845708 -1.867218
v -0.610486 0.834787 -1.880596
v -0.608765 0.845830 -1.904281
v -0.608255 0.851677 -2.019820
v -0.608496 0.842631 -1.991457
v -0.610157 0.835822 -2.023526
v -0.610673 0.840755 -1.243922
v -0.609902 0.835046 -1.274856
v -0.611723 0.849855 -1.275477
v -0.613811 0.852054 -1.144703
v -0.613981 0.844085 -1.121971
v -0.616199 0.834872 -1.135638
v -0.614093 0.841186 -1.158633
v 1.068246 1.914452 -1.142122
v 1.050853 1.767950 -1.136181
v 1.068204 1.772730 -1.142139
v 1.050759 1.919249 -1.136198
vt 0.000000 0.000000
vn 0.266000 0.509600 -0.818300
vn 0.500600 -0.220900 -0.837000
vn 0.038000 0.931100 -0.362800
vn 0.956800 -0.263100 -0.123700
vn 0.010400 0.687200 0.726400
vn 0.927400 0.051300 0.370500
vn 0.876500 -0.433700 0.209000
vn 0.934300 0.326800 -0.142400
vn -0.053800 -0.905500 -0.421000
vn -0.043700 -0.893000 0.448000
vn 0.799600 -0.157800 0.579400
vn 0.827700 0.559400 0.044400
vn 0.934900 0.326000 -0.140400
vn -0.052900 -0.904500 -0.423100
vn -0.044400 -0.894400 0.445100
vn 0.792100 -0.157900 0.589600
vn 0.828100 0.558900 0.043000
vn 0.073300 0.746100 0.661800
vn 0.826000 0.561500 -0.049300
vn 0.951600 -0.264500 -0.156700
vn 0.928300 0.055400 0.367700
vn 0.896500 -0.387300 0.215400
vn 0.846900 0.531200 0.023600
vn 0.628600 -0.777700 -0.011800
vn 0.902900 0.130200 -0.409700
vn 0.930000 -0.039600 0.365400
vn 0.599800 -0.724100 0.340500
vn 0.817900 0.458500 0.347700
vn 0.818700 -0.070100 -0.570000
vn 0.814800 0.516500 -0.263300
vn 0.890400 -0.404200 -0.209600
vn 0.834700 -0.418200 0.358300
vn 0.900300 0.390500 0.192000
vn 0.702000 0.692500 0.166500
vn 0.919000 0.071800 -0.387700
vn 0.849400 -0.273400 0.451500
vn 0.911200 -0.411600 -0.014400
vn 0.809100 0.565500 0.159900
vn 0.638400 -0.746300 -0.188300
vn 0.903800 -0.135000 0.406100
vn 0.906900 0.087000 -0.412300
vn 0.845700 0.533300 0.017400
vn 0.835900 -0.547100 -0.043600
vn 0.878200 0.188000 -0.439800
vn 0.923400 -0.030400 0.382600
vn 0.846600 0.531700 0.022800
vn 0.632700 -0.774300 -0.015600
vn 0.899700 0.156100 -0.407500
vn 0.930000 -0.040400 0.365300
vn 0.842400 0.538300 -0.023000
vn 0.874600 -0.483700 0.033800
vn 0.826900 -0.194500 -0.527600
vn 0.665200 -0.745400 -0.043200
vn 0.885800 0.267900 0.378900
vn 0.933000 0.163600 -0.320500
vn 0.910900 0.411300 0.032000
vn 0.864900 -0.212900 -0.454500
vn 0.915700 -0.217500 0.338000
vn 0.834200 -0.550400 -0.033800
vn 0.824100 0.566400 0.010800
vn 0.830500 0.187600 -0.524400
vn 0.844200 -0.143400 0.516500
vn 0.886300 0.462700 0.018800
vn 0.663900 -0.746800 -0.039500
vn 0.891100 0.163200 -0.423500
vn 0.925200 -0.072900 0.372300
vn 0.687000 -0.726500 0.012400
vn 0.794200 0.600000 0.095600
vn 0.853400 -0.233700 0.466000
vn 0.928900 0.143500 -0.341400
vn 0.928900 0.143500 -0.341500
vn 0.886500 0.462400 0.018900
vn 0.663500 -0.747100 -0.039400
vn 0.891000 0.160900 -0.424600
vn 0.925300 -0.073000 0.372200
vn 0.765700 0.622000 0.163500
vn 0.656000 -0.731300 -0.186400
vn 0.908400 -0.124100 0.399300
vn 0.721000 0.674600 -0.158200
vn 0.772400 -0.634100 0.037900
vn 0.888700 -0.098700 -0.447700
vn 0.928800 0.143200 0.341900
vn 0.842500 0.538200 -0.023600
vn 0.874800 -0.483500 0.030600
vn 0.826900 -0.194000 -0.527800
vn 0.066000 -0.885200 0.460400
vn -0.843200 -0.534800 -0.054100
vn -0.804100 -0.199100 0.560200
vn -0.889800 0.453000 0.055700
vn -0.948300 -0.277800 -0.153400
vn -0.880800 0.470800 -0.051300
vn -0.925900 -0.273300 0.261000
vn -0.896300 0.384200 0.221500
vn 0.030700 -0.928300 -0.370600
vn -0.956800 0.262600 -0.124700
vn -0.927900 -0.052800 0.369200
vn -0.876400 0.433900 0.209000
vn -0.087300 -0.752300 0.653000
vn 0.067900 0.885800 0.459100
vn -0.801600 0.202000 0.562700
vn -0.937300 -0.310000 -0.159300
vn -0.890000 -0.452500 0.055500
vn -0.844900 0.532100 -0.054100
vn -0.895400 -0.010900 -0.445100
vn -0.888000 0.459700 -0.011500
vn -0.855400 -0.447200 0.261400
vn -0.747500 -0.572200 -0.337300
vn -0.913100 0.232700 -0.334900
vn -0.835700 0.507400 0.210200
vn -0.912900 -0.302400 0.274300
vn -0.549800 -0.805400 -0.221300
vn -0.805200 0.535500 -0.254900
vn -0.815800 0.431200 0.385400
vn -0.710600 -0.628400 0.316400
vn -0.863700 -0.383100 -0.327700
vn -0.866900 0.261200 0.424600
vn -0.855900 -0.499700 0.133200
vn -0.918800 0.169500 -0.356400
vn -0.824900 0.174100 -0.537800
vn -0.872300 0.489000 -0.006600
vn -0.828500 -0.560000 -0.001400
vn -0.823800 -0.167200 0.541600
vn -0.781000 -0.281900 -0.557300
vn -0.871700 0.304600 0.383800
vn -0.771600 -0.570000 0.282500
vn -0.650100 0.733700 -0.197900
vn -0.895500 -0.008600 -0.445000
vn -0.887800 0.460000 -0.012100
vn -0.854900 -0.448000 0.261600
vn -0.828900 -0.558600 -0.031000
vn -0.869900 -0.087800 0.485300
vn -0.898100 0.439500 0.016100
vn -0.851700 0.256600 -0.456900
vn -0.930100 0.048700 -0.364000
vn -0.626900 0.778900 0.014600
vn -0.843400 -0.536600 -0.028300
vn -0.901600 -0.184900 0.391100
vn -0.748100 -0.571700 -0.336900
vn -0.915400 0.102100 0.389400
vn -0.635200 -0.746400 0.198500
vn -0.919300 -0.071700 -0.387000
vn -0.626100 0.761500 -0.167500
vn -0.849400 0.525500 -0.048900
vn -0.905600 -0.373800 -0.200500
vn -0.874700 -0.229800 0.426800
vn -0.848000 0.527800 -0.049200
vn -0.905700 -0.373600 -0.200400
vn -0.874600 -0.229800 0.426800
vn -0.820700 -0.569700 0.042300
vn -0.873500 0.278900 0.399000
vn -0.844900 0.297500 -0.444600
vn -0.823100 -0.436100 -0.363700
vn -0.551100 0.788100 -0.274300
vn -0.923000 -0.194100 0.332300
vn -0.747200 -0.572600 -0.337300
vn -0.756800 -0.653700 -0.003400
vn -0.924300 0.150400 0.350900
vn -0.852400 -0.229800 -0.469600
vn -0.782700 0.614600 -0.097700
vn -0.224500 -0.284700 0.932000
vn -0.228000 0.281100 0.932200
vn 0.097600 -0.197100 -0.975500
vn 0.823600 0.204000 0.529200
vn 0.907900 0.102000 -0.406600
vn 0.824900 0.196700 0.529900
vn -0.937600 0.309800 -0.158000
vn -0.943200 -0.162800 0.289700
vn -0.695800 0.629200 -0.346200
vn -0.942900 -0.164000 0.289800
vn -0.698400 0.627300 -0.344500
vn -0.942500 -0.165900 0.290000
vn -0.698300 0.627100 -0.345100
vn 0.347400 -0.105400 0.931800
vn 0.346100 0.104800 0.932300
f 30/1/5 4/1/6 29/1/3
f 28/1/4 29/1/3 27/1/7
f 34/1/10 33/1/9 31/1/11
f 5/1/12 31/1/11 32/1/8
f 38/1/15 37/1/14 35/1/16
f 6/1/17 35/1/16 36/1/13
f 42/1/18 7/1/21 41/1/19
f 40/1/20 41/1/19 39/1/22
f 8/1/23 43/1/26 9/1/25
f 44/1/24 9/1/25 43/1/26
f 11/1/31 12/1/33 47/1/32
f 48/1/30 12/1/33 11/1/31
f 13/1/34 14/1/37 50/1/35
f 13/1/34 49/1/36 14/1/37
f 52/1/39 15/1/38 51/1/40
f 52/1/39 53/1/41 15/1/38
f 16/1/42 55/1/43 56/1/44
f 17/1/46 57/1/49 18/1/48
f 62/1/50 60/1/51 61/1/52
f 67/1/57 19/1/56 66/1/58
f 68/1/59 69/1/61 21/1/62
f 71/1/64 22/1/63 70/1/66
f 23/1/68 74/1/67 75/1/70
f 24/1/68 77/1/67 78/1/71
f 80/1/73 25/1/72 79/1/75
f 83/1/77 26/1/76 82/1/78
f 88/1/79 86/1/80 87/1/81
f 92/1/83 90/1/84 91/1/85
f 107/1/88 93/1/89 94/1/87
f 109/1/86 107/1/88 94/1/87
f 110/1/92 95/1/93 112/1/91
f 113/1/96 96/1/97 115/1/94
f 116/1/98 113/1/96 115/1/94
f 118/1/102 97/1/100 120/1/103
f 97/1/100 117/1/99 120/1/103
f 121/1/106 98/1/105 122/1/104
f 126/1/109 129/1/108 127/1/110
f 99/1/113 130/1/112 132/1/115
f 135/1/118 134/1/117 133/1/116
f 137/1/121 100/1/120 138/1/119
f 139/1/126 141/1/125 140/1/124
f 141/1/125 139/1/126 142/1/123
f 143/1/129 101/1/128 144/1/127
f 102/1/132 146/1/130 145/1/131
f 146/1/130 102/1/132 147/1/133
f 149/1/136 103/1/137 150/1/134
f 158/1/143 105/1/144 157/1/145
f 160/1/146 106/1/147 159/1/148
f 163/1/151 162/1/149 161/1/150
f 170/1/159 172/1/156 171/1/157
f 1/1/2 3/1/162 2/1/1
f 27/1/7 29/1/3 4/1/6
f 32/1/8 31/1/11 33/1/9
f 36/1/13 35/1/16 37/1/14
f 39/1/22 41/1/19 7/1/21
f 45/1/27 46/1/29 10/1/28
f 16/1/42 54/1/45 55/1/43
f 58/1/47 18/1/48 57/1/49
f 62/1/50 59/1/163 60/1/51
f 64/1/53 65/1/55 63/1/54
f 20/1/60 21/1/62 69/1/61
f 71/1/64 72/1/65 22/1/63
f 23/1/68 73/1/69 74/1/67
f 24/1/68 76/1/69 77/1/67
f 80/1/73 81/1/74 25/1/72
f 83/1/77 84/1/164 26/1/76
f 88/1/79 85/1/82 86/1/80
f 92/1/83 89/1/165 90/1/84
f 94/1/87 93/1/89 108/1/166
f 111/1/90 110/1/92 112/1/91
f 115/1/94 96/1/97 114/1/95
f 119/1/101 118/1/102 120/1/103
f 124/1/107 123/1/167 125/1/168
f 128/1/111 127/1/110 129/1/108
f 132/1/115 131/1/114 99/1/113
f 100/1/120 137/1/121 136/1/122
f 150/1/134 103/1/137 148/1/135
f 152/1/138 151/1/169 153/1/170
f 154/1/142 104/1/141 155/1/139
f 155/1/139 104/1/141 156/1/140
f 164/1/153 166/1/152 165/1/154
f 168/1/155 167/1/171 169/1/172
f 173/1/158 172/1/156 170/1/159
f 175/1/160 176/1/173 174/1/174
f 175/1/160 174/1/174 177/1/161
