# material split: Mesh_alpha
v 0.828268 1.546176 -1.136593
v 0.921064 1.546228 -0.912352
v 0.641956 1.546180 -0.855378
v 0.641191 1.545978 -1.098721
v 0.885059 1.545765 -0.856385
v 0.884154 1.545761 -1.099458
v 0.604505 1.545763 -0.911123
v 0.829626 1.545986 -0.818944
v 0.921700 1.546178 -1.043859
v 0.591102 1.546175 -0.976814
v 0.763733 1.546181 -0.805487
v 0.934952 1.545758 -0.978130
v 0.604076 1.545973 -1.042891
v 0.697877 1.545757 -0.818410
v 0.857766 1.433167 -1.120614
v 0.859078 1.433161 -0.835192
v 0.759070 1.433550 -0.806499
v 0.698317 1.433545 -0.819188
v 0.642674 1.433546 -0.856025
v 0.607607 1.433042 -0.908645
v 0.594554 1.432826 -0.977463
v 0.607927 1.433092 -1.046444
v 0.696936 1.545984 -1.136149
v 0.935259 1.433766 -0.959042
v 0.922441 1.433560 -1.039458
v 0.714611 1.433770 -1.143778
v 0.641631 1.433549 -1.097855
v 0.762775 1.545795 -1.148299
v -0.808303 1.545972 -1.136649
v -0.901278 1.545787 -0.912391
v -0.622200 1.546178 -0.855395
v -0.621465 1.545980 -1.098732
v -0.865362 1.546177 -0.856320
v -0.864268 1.545974 -1.099672
v -0.584769 1.545763 -0.911110
v -0.809444 1.545986 -0.818762
v -0.901098 1.546227 -1.043143
v -0.571400 1.545977 -0.976573
v -0.743630 1.545808 -0.806621
v -0.915256 1.545976 -0.977879
v -0.584206 1.546180 -1.042670
v -0.678378 1.545975 -0.818263
v -0.743048 1.545799 -1.148296
v -0.837697 1.433050 -1.120761
v -0.839600 1.433043 -0.835440
v -0.622936 1.433547 -0.856024
v -0.587868 1.433042 -0.908647
v -0.574814 1.432824 -0.977464
v -0.588187 1.433093 -1.046443
v -0.677171 1.545986 -1.136135
v -0.915523 1.433764 -0.959031
v -0.694860 1.433769 -1.143774
v -0.700159 1.433437 -0.809162
v -0.621892 1.433547 -1.097858
vt 0.000000 0.000000
vt 0.875069 0.986720
vt 0.812597 0.987666
vt 0.874893 0.013463
vt 0.562662 0.989877
vt 0.500167 0.990036
vt 0.562610 0.016283
vt 0.000000 0.000000
vt 0.625153 0.989561
vt 0.687638 0.989085
vt 0.719853 0.015347
vt 0.812597 0.987666
vt 0.500167 0.990036
vt 0.312649 0.989570
vt 0.375159 0.989890
vt 0.407503 0.016172
vt 0.625074 0.016048
vt 0.719516 0.015350
vt 0.625153 0.989561
vt 0.750120 0.988460
vt 0.312692 0.015669
vt 0.407165 0.016171
vt 0.312649 0.989570
vt 0.437665 0.990049
vt 0.250202 0.015125
vt 0.250135 0.989089
vt 0.187707 0.014421
vt 0.187616 0.988442
vt 0.125211 0.013558
vt 0.125092 0.987599
vt 0.062718 0.012525
vt 0.062554 0.986489
vt 0.000031 0.985132
vt 0.937338 0.012449
vt 0.999795 0.011340
vt 0.999967 0.984357
vt 0.937532 0.985623
vt 0.437665 0.990049
vt 0.125092 0.987599
vn 0.747900 0.576000 0.330000
vn 0.612400 0.558800 0.559200
vn -0.582200 0.571100 -0.578800
vn -0.320100 0.567700 -0.758500
vn 0.291700 0.558800 -0.776300
vn 0.580800 0.580300 -0.570900
vn -0.573300 0.590400 0.568100
vn -0.745900 0.594400 0.300700
vn 0.025600 0.545000 -0.838000
vn -0.805600 0.592400 0.006600
vn -0.755900 0.581700 -0.300400
vn 0.017800 0.563100 0.826200
vn -0.315900 0.575000 0.754700
vn -0.782900 0.231600 -0.577500
vn 0.375500 0.686400 -0.622700
vn 0.939000 0.073900 -0.335900
vn 0.430100 0.689300 0.583000
vn -0.043100 0.057100 0.997400
vn 0.988100 -0.047800 0.146000
vn -0.243400 -0.049000 -0.968700
vn -0.252400 0.942000 0.221200
vn 0.797400 0.603500 -0.007700
vn 0.571200 0.589900 -0.570800
vn 0.317000 0.587100 -0.744900
vn -0.609200 0.553500 -0.567900
vn -0.285300 0.553000 -0.782800
vn 0.577500 0.569000 0.585400
vn 0.758900 0.575000 0.305800
vn -0.601400 0.582500 0.546900
vn -0.290700 0.567400 0.770400
vn -0.021600 0.556900 -0.830300
vn -0.751500 0.576000 -0.321800
vn 0.808800 0.588000 -0.007800
vn -0.035000 0.560000 0.827800
vn -0.807800 0.589300 -0.010400
vn 0.311400 0.571500 0.759200
vn -0.739400 0.582200 0.338000
vn 0.744600 0.594900 -0.302800
vn 0.798100 0.227300 -0.558100
vn -0.986300 -0.056500 0.154800
vn 0.243400 -0.049200 -0.968700
vn -0.374500 0.687300 -0.622400
vn -0.407900 0.694300 0.592900
vn 0.780500 0.623300 -0.048200
vn 0.648100 0.366500 0.667600
vn 0.318500 0.563700 0.762100
vn 0.739600 0.593200 -0.318000
vn -0.379900 0.023200 0.924700
vn -0.703000 0.030400 0.710500
vn -0.706100 0.046400 -0.706600
vn -0.722500 0.236100 0.649800
vn 0.221200 -0.077000 0.972200
vn 0.694300 0.054800 0.717600
vn 0.706100 0.046500 -0.706600
f 23/2/4 28/3/9 26/4/20
f 12/5/22 2/6/1 24/7/19
f 37/9/32 34/10/25 44/11/42
f 43/12/31 50/2/24 52/4/41
f 30/13/37 40/5/35 51/7/40
f 39/14/34 36/15/30 45/16/43
f 25/17/16 15/18/15 6/10/6
f 25/17/16 6/10/6 9/19/47
f 1/20/5 6/10/6 15/18/15
f 24/7/19 25/17/16 9/19/47
f 24/7/19 9/19/47 12/5/22
f 17/21/18 16/22/17 8/15/46
f 17/21/18 8/15/46 11/23/12
f 2/6/1 5/24/2 16/22/17
f 5/24/2 8/15/46 16/22/17
f 18/25/48 17/21/18 11/23/12
f 18/25/48 11/23/12 14/26/13
f 19/27/49 18/25/48 14/26/13
f 19/27/49 14/26/13 3/28/7
f 20/29/51 19/27/49 3/28/7
f 20/29/51 3/28/7 7/30/8
f 21/31/21 20/29/51 7/30/8
f 21/31/21 7/30/8 10/32/10
f 22/1/14 21/31/21 10/32/10
f 22/1/14 10/32/10 13/33/11
f 27/34/50 22/35/14 13/36/11
f 27/34/50 13/36/11 4/37/3
f 26/4/20 27/34/50 4/37/3
f 26/4/20 4/37/3 23/2/4
f 28/3/9 1/20/5 15/18/15
f 42/26/36 53/25/52 46/27/53
f 42/26/36 46/27/53 31/28/27
f 44/11/42 34/10/25 29/20/26
f 51/7/40 40/5/35 37/9/32
f 45/16/43 33/38/29 30/13/37
f 45/16/43 36/15/30 33/38/29
f 53/25/52 42/26/36 39/14/34
f 31/28/27 46/27/53 47/29/45
f 31/28/27 47/29/45 35/39/28
f 35/39/28 47/29/45 48/31/44
f 35/39/28 48/31/44 38/32/33
f 38/32/33 48/31/44 49/8/39
f 38/32/33 49/8/39 41/33/38
f 41/36/38 49/35/39 54/34/54
f 41/36/38 54/34/54 32/37/23
f 32/37/23 54/34/54 52/4/41
f 32/37/23 52/4/41 50/2/24
f 44/11/42 29/20/26 43/12/31
