# material split: forklight_tire
v 0.886147 -0.199888 -1.195560
v 0.886147 -0.333214 -1.222080
v 0.886147 -0.333214 -1.222080
v 0.886147 -0.086859 -1.120036
v 0.886147 -0.011336 -1.007008
v 0.886147 0.015185 -0.873681
v 0.886147 -0.011336 -0.740355
v 0.886147 -0.086859 -0.627326
v 0.886147 -0.199888 -0.551803
v 0.886147 -0.333214 -0.525283
v 0.886147 -0.333214 -0.525283
v 0.886147 -0.466541 -0.551803
v 0.886147 -0.579569 -0.627326
v 0.886147 -0.655092 -0.740355
v 0.886147 -0.681613 -0.873681
v 0.886147 -0.655092 -1.007008
v 0.886147 -0.579569 -1.120036
v 0.886147 -0.466541 -1.195560
v 0.532103 -0.199888 -1.195560
v 0.532103 -0.333214 -1.222080
v 0.532103 -0.333214 -1.222080
v 0.532103 -0.086859 -1.120036
v 0.532103 -0.011336 -1.007008
v 0.532103 0.015185 -0.873681
v 0.532103 -0.011336 -0.740355
v 0.532103 -0.086859 -0.627326
v 0.532103 -0.199888 -0.551803
v 0.532103 -0.333214 -0.525283
v 0.532103 -0.333214 -0.525283
v 0.532103 -0.466541 -0.551803
v 0.532103 -0.579569 -0.627326
v 0.532103 -0.655092 -0.740355
v 0.532103 -0.681613 -0.873681
v 0.532103 -0.655092 -1.007008
v 0.532103 -0.579569 -1.120036
v 0.532103 -0.466541 -1.195560
vt 0.404388 0.987929
vt 0.404388 -0.010293
vt 0.950221 -0.010293
vt 0.950221 0.987929
vt -2.130335 0.987930
vt -2.130335 -0.010291
vt -1.600904 -0.010292
vt -1.600904 0.987930
vt -3.077100 0.987931
vt -3.077100 -0.010290
vt -2.592326 -0.010291
vt -2.592324 0.987931
vt 3.911948 0.987928
vt 3.911948 -0.010293
vt 4.289337 -0.010293
vt 4.289337 0.987928
vt 3.030512 0.987928
vt 3.030512 -0.010294
vt 3.492503 -0.010294
vt 3.492502 0.987928
vt 1.971649 0.987928
vt 1.971649 -0.010293
vt 2.501081 -0.010293
vt 2.501081 0.987928
vt -0.553485 0.987929
vt -0.553485 -0.010292
vt -0.078042 -0.010293
vt -0.078042 0.987929
vt 1.509659 -0.010293
vt 1.509659 0.987928
vt -1.071472 -0.010292
vt -1.071472 0.987930
vt -3.594479 0.987932
vt -3.594481 -0.010290
vn -0.000000 -0.195100 0.980800
vn -0.000000 0.195100 -0.980800
vn -0.000000 -0.195100 -0.980800
vn -0.000000 0.195100 0.980800
vn -0.000000 1.000000 -0.000000
vn -0.000000 -1.000000 -0.000000
vn -0.000000 0.345000 -0.938600
vn -0.000000 -0.918600 0.395100
vn -0.000000 -0.345000 0.938600
vn -0.000000 -0.686400 0.727200
vn -0.000000 0.345000 0.938600
vn -0.000000 0.918600 0.395100
vn -0.000000 0.686400 0.727200
vn -0.000000 0.918600 -0.395100
vn -0.000000 -0.686400 -0.727200
vn -0.000000 -0.345000 -0.938600
vn -0.000000 0.686400 -0.727200
vn -0.000000 -0.918600 -0.395100
f 2/1/2 20/2/2 19/3/7
f 2/1/2 19/3/7 1/4/7
f 14/5/8 32/6/8 33/7/6
f 14/5/8 33/7/6 15/8/6
f 12/9/9 30/10/9 31/11/10
f 12/9/9 31/11/10 13/12/10
f 9/13/11 27/14/11 28/15/4
f 9/13/11 28/15/4 10/16/4
f 7/17/12 25/18/12 26/19/13
f 7/17/12 26/19/13 8/20/13
f 5/21/14 23/22/14 24/23/5
f 5/21/14 24/23/5 6/24/5
f 17/25/15 35/26/15 36/27/16
f 17/25/15 36/27/16 18/28/16
f 1/4/7 19/3/7 22/29/17
f 1/4/7 22/29/17 4/30/17
f 15/8/6 33/7/6 34/31/18
f 15/8/6 34/31/18 16/32/18
f 13/12/10 31/11/10 32/6/8
f 13/12/10 32/6/8 14/5/8
f 11/33/1 29/34/1 30/10/9
f 11/33/1 30/10/9 12/9/9
f 8/20/13 26/19/13 27/14/11
f 8/20/13 27/14/11 9/13/11
f 6/24/5 24/23/5 25/18/12
f 6/24/5 25/18/12 7/17/12
f 18/28/16 36/27/16 21/2/3
f 18/28/16 21/2/3 3/1/3
f 4/30/17 22/29/17 23/22/14
f 4/30/17 23/22/14 5/21/14
f 16/32/18 34/31/18 35/26/15
f 16/32/18 35/26/15 17/25/15
