# prebaked split of model.obj material Jacket
mtllib Jacket.mtl
usemtl Jacket
v 0.091832 1.024602 0.107017
v 0.116847 1.021601 0.032231
v 0.121769 1.020806 -0.031895
v 0.067802 1.016573 -0.075936
v 0.135798 1.336232 0.077996
v 0.150976 1.349760 -0.026889
v 0.089831 1.221111 0.104207
v 0.187594 1.435202 0.076563
v 0.178639 1.418002 0.115676
v 0.194905 1.438711 -0.044504
v 0.193817 1.441139 0.019184
v 0.170499 1.393963 -0.048103
v 0.141934 1.475190 -0.022515
v 0.161801 1.471800 0.024398
v 0.093013 1.478346 -0.049159
v 0.162581 1.391600 0.121786
v 0.175774 1.358283 -0.016406
v 0.229841 1.367038 0.069128
v 0.212322 1.373776 0.108739
v 0.238907 1.369366 0.025292
v 0.088067 1.140634 0.098927
v 0.155221 1.357787 0.117623
v 0.168833 1.338596 0.080810
v 0.167860 1.272261 0.044686
v 0.225276 1.285181 0.095703
v 0.247160 1.294224 -0.012235
v 0.197847 1.279266 0.095907
v 0.240870 1.290506 0.051077
v 0.247926 1.293144 0.024668
v 0.224609 1.289295 -0.017067
v 0.193280 1.281203 -0.018554
v 0.171638 1.273679 0.079137
v 0.251016 1.180821 -0.021905
v 0.269877 1.181455 0.024251
v 0.200871 1.163775 0.026698
v 0.270427 1.185486 -0.017893
v 0.266458 1.180225 0.037428
v 0.219231 1.175812 -0.024145
v 0.256698 1.163666 0.081876
v 0.204057 1.150520 0.061835
v 0.232992 1.158306 0.078739
v 0.137341 1.343232 0.122758
v 0.133022 1.434208 0.107033
v 0.137421 1.382848 0.128246
v 0.160762 1.458777 0.074182
v 0.129254 1.309900 0.109699
v 0.104824 1.023510 0.110965
v 0.123341 1.022149 0.033215
v 0.128663 1.021915 -0.033830
v 0.072321 1.017399 -0.079062
v 0.091130 1.364141 -0.071689
v 0.150079 1.473957 -0.024971
v 0.169121 1.469232 0.023660
v 0.098517 1.478330 -0.052903
v 0.097036 1.401808 -0.069786
v 0.105933 1.446353 -0.064169
v 0.088334 1.326599 -0.071434
v 0.117451 1.156072 -0.020149
v 0.075098 1.151728 -0.055609
v 0.093200 1.140407 0.103149
v 0.121040 1.149317 0.032490
v 0.132425 1.303973 0.073077
v 0.124065 1.240112 0.053267
v 0.137801 1.326297 -0.023349
v 0.122924 1.254244 -0.012594
v 0.083968 1.266417 -0.063291
v 0.143955 1.342443 0.126592
v 0.167358 1.455807 0.075408
v 0.095031 1.220600 0.108141
v 0.143723 1.381754 0.132047
v 0.139573 1.432706 0.109752
v 0.136023 1.309185 0.113245
v 0.279608 1.130564 0.024084
v 0.229879 1.129504 -0.027001
v 0.215435 1.109201 0.057730
v 0.247119 1.114170 0.072727
v 0.261341 1.128382 -0.024414
v 0.214976 1.125300 0.017273
v 0.279306 1.130940 -0.021202
v 0.269447 1.115565 0.077510
v -0.095433 1.024685 0.107911
v -0.122722 1.021573 0.033111
v -0.130712 1.020544 -0.031181
v -0.077074 1.016446 -0.076775
v -0.140560 1.335305 0.080186
v -0.156303 1.348611 -0.024324
v -0.093909 1.221095 0.105556
v -0.191335 1.434315 0.076046
v -0.184048 1.418134 0.116870
v -0.186427 1.439797 -0.044863
v -0.193735 1.438892 0.018066
v -0.174448 1.391488 -0.045660
v -0.140103 1.472682 -0.023754
v -0.162999 1.470011 0.022462
v -0.094668 1.476443 -0.049411
v -0.167330 1.391348 0.124430
v -0.180307 1.356631 -0.013137
v -0.234568 1.365754 0.069503
v -0.219796 1.374225 0.111024
v -0.239795 1.366426 0.024941
v -0.092215 1.140621 0.100240
v -0.159659 1.357271 0.120433
v -0.173497 1.337775 0.084284
v -0.174161 1.266520 0.057266
v -0.235698 1.285515 0.101376
v -0.247196 1.287263 -0.008515
v -0.208658 1.278594 0.104737
v -0.246895 1.288058 0.055211
v -0.251383 1.288971 0.028134
v -0.224933 1.281626 -0.010642
v -0.193854 1.271995 -0.008406
v -0.181125 1.270695 0.091184
v -0.003527 1.016870 -0.094903
v -0.003243 1.477229 -0.059013
v -0.254767 1.174554 -0.009147
v -0.277657 1.178241 0.034886
v -0.209922 1.158200 0.044598
v -0.274276 1.180115 -0.007213
v -0.275461 1.177599 0.048422
v -0.223146 1.168114 -0.008295
v -0.269780 1.162123 0.095340
v -0.216239 1.146211 0.080658
v -0.246179 1.155851 0.094535
v -0.141585 1.342484 0.125101
v -0.136725 1.433910 0.107903
v -0.141556 1.382422 0.130450
v -0.164257 1.458113 0.073005
v -0.133255 1.309889 0.111612
v -0.108293 1.023591 0.112132
v -0.129095 1.022108 0.034434
v -0.137400 1.021653 -0.032731
v -0.081569 1.017262 -0.079665
v -0.003512 1.017694 -0.098588
v -0.003274 1.477357 -0.063156
v -0.003375 1.440017 -0.077289
v -0.003470 1.395093 -0.090579
v -0.003430 1.358778 -0.085211
v -0.096711 1.361801 -0.070310
v -0.147322 1.471361 -0.026366
v -0.170125 1.467363 0.021650
v -0.099849 1.476335 -0.053174
v -0.101306 1.399417 -0.068643
v -0.107414 1.443487 -0.063792
v -0.094980 1.326591 -0.070098
v -0.123333 1.156062 -0.018394
v -0.081499 1.151721 -0.054468
v -0.097285 1.140392 0.104535
v -0.126153 1.149306 0.034291
v -0.003432 1.323119 -0.085763
v -0.003382 1.261947 -0.079201
v -0.136960 1.303961 0.075040
v -0.128883 1.240099 0.055128
v -0.143673 1.325758 -0.021174
v -0.128704 1.254232 -0.010760
v -0.090491 1.266409 -0.062020
v -0.148110 1.341994 0.129089
v -0.003304 1.151666 -0.069164
v -0.170877 1.455142 0.074243
v -0.099051 1.220584 0.109565
v -0.147979 1.381385 0.134416
v -0.143399 1.432484 0.110680
v -0.139973 1.309173 0.115257
v -0.284968 1.124449 0.039424
v -0.232448 1.127470 -0.008515
v -0.222922 1.094156 0.073413
v -0.255538 1.099786 0.087782
v -0.264162 1.127025 -0.008246
v -0.219630 1.116502 0.035972
v -0.282423 1.129445 -0.006272
v -0.277980 1.101937 0.091508
vn 0.929000 0.066400 0.364100
vn 0.968300 0.099100 0.229200
vn -0.991300 -0.039600 -0.125300
vn -0.449700 -0.310300 -0.837500
vn 0.143900 -0.154800 0.977400
vn -0.168500 -0.346700 0.922700
vn 0.293100 -0.116000 -0.949000
vn 0.378900 -0.322300 -0.867500
vn 0.247400 0.007700 -0.968900
vn 0.653800 0.751400 -0.089100
vn -0.508000 0.180000 0.842300
vn -0.011200 0.999900 0.006400
vn -0.490000 -0.216900 0.844300
vn 0.847000 0.531600 -0.005800
vn 0.836900 0.520700 0.168900
vn 0.272300 0.056700 0.960500
vn 0.049400 -0.977800 -0.203900
vn 0.363900 0.727800 0.581300
vn -0.620800 -0.036200 0.783200
vn 0.351000 0.903700 0.245100
vn 0.729900 0.661800 0.170800
vn -0.370900 0.337000 0.865400
vn 0.623400 -0.161400 0.765100
vn 0.942500 0.226400 -0.246000
vn 0.927800 -0.356500 -0.110100
vn -0.408500 0.035300 0.912100
vn 0.800000 0.497600 0.335200
vn -0.518000 -0.118500 0.847100
vn 0.098000 0.329700 0.939000
vn 0.124100 -0.992100 0.017500
vn 0.930500 0.191900 0.312000
vn -0.959200 -0.278400 0.048600
vn 0.979600 0.200700 0.010300
vn 0.213300 -0.967500 -0.135700
vn 0.179400 0.087100 -0.979900
vn 0.185700 0.089800 -0.978500
vn 0.185700 0.083800 -0.979000
vn -0.027200 -0.134100 0.990600
vn 0.173300 0.084500 -0.981200
vn 0.984800 0.173400 0.011500
vn -0.953700 -0.293100 -0.067800
vn 0.945300 0.185500 0.268300
vn 0.946800 0.181400 0.265800
vn 0.946600 0.183000 0.265600
vn -0.900300 -0.205900 -0.383400
vn 0.944500 0.203500 0.257900
vn -0.460400 -0.247800 0.852400
vn 0.046400 0.060000 -0.997100
vn 0.083600 0.996400 -0.016500
vn 0.136000 -0.988100 -0.071200
vn -0.032800 -0.999300 0.019200
vn 0.236000 0.971700 -0.013600
vn 0.079600 0.780800 0.619700
vn 0.023300 -0.883000 0.468900
vn 0.478400 -0.542600 -0.690400
vn 0.621000 0.126500 -0.773500
vn 0.914700 -0.085500 0.395000
vn 0.998200 -0.037900 -0.046500
vn 0.616800 -0.208700 -0.758900
vn 0.724200 -0.049200 -0.687900
vn 0.091000 0.351100 -0.931900
vn 0.951600 0.064800 0.300500
vn 0.206300 0.187000 -0.960500
vn 0.145100 0.190600 -0.970900
vn 0.305000 0.582300 -0.753600
vn 0.176500 -0.060000 -0.982500
vn 0.147900 -0.001700 -0.989000
vn 0.176600 -0.084100 -0.980700
vn 0.998600 0.050800 0.017200
vn 0.922800 -0.331000 0.197200
vn 0.992800 -0.092100 -0.077000
vn 0.170500 -0.124500 -0.977500
vn 0.717400 -0.199800 -0.667400
vn 0.985800 -0.167700 -0.012000
vn 0.957300 -0.285400 0.046900
vn -0.145800 -0.152500 0.977500
vn 0.947800 0.180400 0.262800
vn -0.910000 -0.214300 -0.354800
vn -0.415400 -0.228200 0.880600
vn 0.071700 0.069300 -0.995000
vn -0.976600 -0.057300 -0.207200
vn -0.953900 0.122400 0.274200
vn -0.980600 0.141400 0.136100
vn 0.991300 -0.118600 -0.057200
vn 0.510900 -0.330400 -0.793600
vn -0.194900 -0.086900 0.977000
vn 0.142100 -0.278000 0.950000
vn -0.291800 -0.133900 -0.947100
vn -0.395700 -0.322000 -0.860100
vn -0.266100 0.006800 -0.963900
vn -0.656900 0.739800 -0.145600
vn 0.520200 0.180100 0.834800
vn -0.008800 0.999900 0.008300
vn 0.502000 -0.222700 0.835700
vn -0.844400 0.528100 -0.090500
vn -0.841400 0.532900 0.089900
vn -0.276100 0.097500 0.956200
vn -0.046300 -0.976200 -0.211900
vn -0.364100 0.756100 0.543900
vn 0.632100 -0.036200 0.774100
vn -0.364900 0.908100 0.205300
vn -0.742900 0.660100 0.111400
vn 0.375200 0.352400 0.857400
vn -0.602900 -0.161000 0.781400
vn -0.912400 0.228700 -0.339400
vn -0.925000 -0.368700 -0.092400
vn 0.426800 0.033200 0.903800
vn -0.802600 0.534400 0.265000
vn 0.529800 -0.114200 0.840400
vn -0.085100 0.360000 0.929000
vn -0.125400 -0.991700 0.026700
vn -0.945600 0.241400 0.218200
vn 0.942400 -0.301400 0.145200
vn -0.967900 0.233600 -0.092500
vn -0.213300 -0.968200 -0.130400
vn -0.098400 0.005600 -0.995100
vn -0.104100 0.002800 -0.994600
vn -0.093600 0.011900 -0.995500
vn -0.062700 -0.047500 0.996900
vn -0.103000 -0.000300 -0.994700
vn -0.988100 0.143300 -0.055500
vn 0.982800 -0.179400 0.044700
vn -0.957100 0.237300 0.166600
vn -0.966700 0.194600 0.166100
vn -0.967000 0.193300 0.166200
vn 0.919700 -0.264800 -0.289700
vn -0.975500 0.132500 0.175700
vn 0.376200 -0.186600 0.907500
vn 0.044100 -0.020000 -0.998800
vn -0.104500 0.994300 -0.019600
vn -0.140100 -0.987300 -0.075200
vn 0.034500 -0.999200 0.019200
vn -0.254100 0.965600 -0.054900
vn -0.086000 0.801000 0.592500
vn -0.006600 -0.879100 0.476600
vn -0.496800 -0.545900 -0.674600
vn -0.633200 0.145100 -0.760300
vn -0.908800 -0.085700 0.408300
vn -0.998800 -0.038000 -0.032000
vn -0.631100 -0.199500 -0.749600
vn -0.734100 -0.049300 -0.677300
vn -0.105200 0.340900 -0.934200
vn -0.945100 0.064200 0.320500
vn -0.206700 0.195300 -0.958700
vn -0.162900 0.186500 -0.968900
vn -0.313600 0.570400 -0.759200
vn -0.191200 -0.061000 -0.979700
vn -0.163100 0.000800 -0.986600
vn -0.190900 -0.084200 -0.978000
vn -0.996900 0.062200 0.048900
vn -0.919800 -0.331000 0.210600
vn -0.992700 -0.104000 -0.060900
vn -0.184800 -0.124500 -0.974900
vn -0.727200 -0.199600 -0.656700
vn -0.985800 -0.168000 0.002500
vn -0.955900 -0.288300 0.056500
vn 0.078900 -0.102200 0.991600
vn -0.975300 0.146500 0.165200
vn 0.938600 -0.185500 -0.290800
vn 0.369900 -0.173100 0.912800
vn 0.008300 -0.009500 -0.999900
vn 0.983400 -0.065400 -0.169500
f 25//1 28//1 18//1
f 25//1 18//1 19//1
f 28//2 29//2 20//2
f 28//2 20//2 18//2
f 24//3 32//3 22//3
f 24//3 22//3 23//3
f 12//4 30//4 31//4
f 12//4 31//4 17//4
f 16//5 27//5 25//5
f 16//5 25//5 19//5
f 22//6 32//6 27//6
f 22//6 27//6 16//6
f 26//7 30//7 12//7
f 26//7 12//7 10//7
f 51//8 55//8 12//8
f 51//8 12//8 6//8
f 12//9 55//9 56//9
f 12//9 56//9 10//9
f 10//10 52//10 53//10
f 10//10 53//10 11//10
f 46//11 7//11 69//11
f 46//11 69//11 72//11
f 114//12 15//12 54//12
f 114//12 54//12 134//12
f 42//13 46//13 72//13
f 42//13 72//13 67//13
f 11//14 20//14 10//14
f 8//15 18//15 20//15
f 8//15 20//15 11//15
f 16//16 19//16 9//16
f 4//17 113//17 133//17
f 4//17 133//17 50//17
f 8//18 68//18 71//18
f 8//18 71//18 9//18
f 7//19 21//19 60//19
f 7//19 60//19 69//19
f 14//20 45//20 68//20
f 14//20 68//20 53//20
f 11//21 53//21 68//21
f 11//21 68//21 8//21
f 43//22 44//22 70//22
f 43//22 70//22 71//22
f 67//23 22//23 16//23
f 67//23 16//23 70//23
f 20//24 29//24 26//24
f 20//24 26//24 10//24
f 22//25 67//25 72//25
f 22//25 72//25 5//25
f 21//26 1//26 47//26
f 21//26 47//26 60//26
f 9//27 19//27 18//27
f 9//27 18//27 8//27
f 44//28 42//28 67//28
f 44//28 67//28 70//28
f 71//29 70//29 16//29
f 71//29 16//29 9//29
f 2//30 3//30 49//30
f 2//30 49//30 48//30
f 39//31 37//31 28//31
f 39//31 28//31 25//31
f 40//32 32//32 24//32
f 40//32 24//32 35//32
f 34//33 36//33 26//33
f 34//33 26//33 29//33
f 6//34 17//34 23//34
f 6//34 23//34 5//34
f 33//35 30//36 26//36
f 33//35 26//36 36//37
f 27//38 41//38 39//38
f 27//38 39//38 25//38
f 77//39 33//35 36//37
f 77//39 36//37 79//39
f 73//40 79//40 36//40
f 73//40 36//40 34//40
f 75//41 40//41 35//41
f 75//41 35//41 78//41
f 28//42 37//43 34//44
f 28//42 34//44 29//42
f 31//45 38//45 35//45
f 31//45 35//45 24//45
f 80//46 73//46 37//46
f 80//46 37//46 39//46
f 32//47 40//47 41//47
f 32//47 41//47 27//47
f 30//48 33//48 38//48
f 30//48 38//48 31//48
f 15//49 13//49 52//49
f 15//49 52//49 54//49
f 3//50 4//50 50//50
f 3//50 50//50 49//50
f 1//51 2//51 48//51
f 1//51 48//51 47//51
f 13//52 14//52 53//52
f 13//52 53//52 52//52
f 45//53 43//53 71//53
f 45//53 71//53 68//53
f 23//54 22//54 5//54
f 17//55 6//55 12//55
f 58//56 49//56 50//56
f 58//56 50//56 59//56
f 63//57 69//57 60//57
f 63//57 60//57 61//57
f 61//58 58//58 65//58
f 61//58 65//58 63//58
f 57//59 51//59 6//59
f 57//59 6//59 64//59
f 58//60 59//60 66//60
f 58//60 66//60 65//60
f 54//61 56//61 135//61
f 54//61 135//61 134//61
f 47//62 48//62 61//62
f 47//62 61//62 60//62
f 50//63 133//63 157//63
f 50//63 157//63 59//63
f 56//64 55//64 136//64
f 56//64 136//64 135//64
f 52//65 10//65 56//65
f 52//65 56//65 54//65
f 137//66 136//66 55//66
f 137//66 55//66 51//66
f 149//67 137//67 51//67
f 149//67 51//67 57//67
f 59//68 157//68 150//68
f 59//68 150//68 66//68
f 48//69 49//69 58//69
f 48//69 58//69 61//69
f 72//70 69//70 63//70
f 72//70 63//70 62//70
f 72//71 62//71 5//71
f 150//72 149//72 57//72
f 150//72 57//72 66//72
f 66//73 57//73 64//73
f 66//73 64//73 65//73
f 65//74 64//74 62//74
f 65//74 62//74 63//74
f 64//75 6//75 5//75
f 64//75 5//75 62//75
f 41//76 76//76 80//76
f 41//76 80//76 39//76
f 37//43 73//77 34//44
f 38//78 74//78 78//78
f 38//78 78//78 35//78
f 40//79 75//79 76//79
f 40//79 76//79 41//79
f 33//80 77//80 74//80
f 33//80 74//80 38//80
f 31//81 24//81 23//81
f 31//81 23//81 17//81
f 105//82 99//82 98//82
f 105//82 98//82 108//82
f 108//83 98//83 100//83
f 108//83 100//83 109//83
f 104//84 103//84 102//84
f 104//84 102//84 112//84
f 92//85 97//85 111//85
f 92//85 111//85 110//85
f 96//86 99//86 105//86
f 96//86 105//86 107//86
f 102//87 96//87 107//87
f 102//87 107//87 112//87
f 106//88 90//88 92//88
f 106//88 92//88 110//88
f 138//89 86//89 92//89
f 138//89 92//89 142//89
f 92//90 90//90 143//90
f 92//90 143//90 142//90
f 90//91 91//91 140//91
f 90//91 140//91 139//91
f 128//92 162//92 159//92
f 128//92 159//92 87//92
f 114//93 134//93 141//93
f 114//93 141//93 95//93
f 124//94 156//94 162//94
f 124//94 162//94 128//94
f 91//95 90//95 100//95
f 88//96 91//96 100//96
f 88//96 100//96 98//96
f 96//97 89//97 99//97
f 84//98 132//98 133//98
f 84//98 133//98 113//98
f 88//99 89//99 161//99
f 88//99 161//99 158//99
f 87//100 159//100 147//100
f 87//100 147//100 101//100
f 94//101 140//101 158//101
f 94//101 158//101 127//101
f 91//102 88//102 158//102
f 91//102 158//102 140//102
f 125//103 161//103 160//103
f 125//103 160//103 126//103
f 156//104 160//104 96//104
f 156//104 96//104 102//104
f 100//105 90//105 106//105
f 100//105 106//105 109//105
f 102//106 85//106 162//106
f 102//106 162//106 156//106
f 101//107 147//107 129//107
f 101//107 129//107 81//107
f 89//108 88//108 98//108
f 89//108 98//108 99//108
f 126//109 160//109 156//109
f 126//109 156//109 124//109
f 161//110 89//110 96//110
f 161//110 96//110 160//110
f 82//111 130//111 131//111
f 82//111 131//111 83//111
f 121//112 105//112 108//112
f 121//112 108//112 119//112
f 122//113 117//113 104//113
f 122//113 104//113 112//113
f 116//114 109//114 106//114
f 116//114 106//114 118//114
f 86//115 85//115 103//115
f 86//115 103//115 97//115
f 115//116 118//117 106//118
f 115//116 106//118 110//118
f 107//119 105//119 121//119
f 107//119 121//119 123//119
f 167//120 169//120 118//117
f 167//120 118//117 115//116
f 163//121 116//121 118//121
f 163//121 118//121 169//121
f 165//122 168//122 117//122
f 165//122 117//122 122//122
f 108//123 109//123 116//124
f 108//123 116//124 119//125
f 111//126 104//126 117//126
f 111//126 117//126 120//126
f 170//127 121//127 119//127
f 170//127 119//127 163//127
f 112//128 107//128 123//128
f 112//128 123//128 122//128
f 110//129 111//129 120//129
f 110//129 120//129 115//129
f 95//130 141//130 139//130
f 95//130 139//130 93//130
f 83//131 131//131 132//131
f 83//131 132//131 84//131
f 81//132 129//132 130//132
f 81//132 130//132 82//132
f 93//133 139//133 140//133
f 93//133 140//133 94//133
f 127//134 158//134 161//134
f 127//134 161//134 125//134
f 103//135 85//135 102//135
f 97//136 92//136 86//136
f 145//137 146//137 132//137
f 145//137 132//137 131//137
f 152//138 148//138 147//138
f 152//138 147//138 159//138
f 148//139 152//139 154//139
f 148//139 154//139 145//139
f 144//140 153//140 86//140
f 144//140 86//140 138//140
f 145//141 154//141 155//141
f 145//141 155//141 146//141
f 141//142 134//142 135//142
f 141//142 135//142 143//142
f 129//143 147//143 148//143
f 129//143 148//143 130//143
f 132//144 146//144 157//144
f 132//144 157//144 133//144
f 143//145 135//145 136//145
f 143//145 136//145 142//145
f 139//146 141//146 143//146
f 139//146 143//146 90//146
f 137//147 138//147 142//147
f 137//147 142//147 136//147
f 149//148 144//148 138//148
f 149//148 138//148 137//148
f 146//149 155//149 150//149
f 146//149 150//149 157//149
f 130//150 148//150 145//150
f 130//150 145//150 131//150
f 162//151 151//151 152//151
f 162//151 152//151 159//151
f 162//152 85//152 151//152
f 150//153 155//153 144//153
f 150//153 144//153 149//153
f 155//154 154//154 153//154
f 155//154 153//154 144//154
f 154//155 152//155 151//155
f 154//155 151//155 153//155
f 153//156 151//156 85//156
f 153//156 85//156 86//156
f 123//157 121//157 170//157
f 123//157 170//157 166//157
f 119//125 116//124 163//158
f 120//159 117//159 168//159
f 120//159 168//159 164//159
f 122//160 123//160 166//160
f 122//160 166//160 165//160
f 115//161 120//161 164//161
f 115//161 164//161 167//161
f 111//162 97//162 103//162
f 111//162 103//162 104//162
