# prebaked split of model.obj material LightJacket
mtllib LightJacket.mtl
usemtl LightJacket
v 0.280398 1.106451 0.029283
v 0.215945 1.080693 0.060218
v 0.248717 1.086170 0.074978
v 0.270474 1.086725 0.080717
v 0.264593 1.108613 -0.021733
v 0.217674 1.099162 0.016299
v 0.281264 1.110502 -0.018331
v 0.233439 1.109007 -0.025407
v 0.279608 1.130564 0.024084
v 0.229879 1.129504 -0.027001
v 0.215435 1.109201 0.057730
v 0.247119 1.114170 0.072727
v 0.261341 1.128382 -0.024414
v 0.214976 1.125300 0.017273
v 0.279306 1.130940 -0.021202
v 0.248647 1.088640 0.083074
v 0.269447 1.115565 0.077510
v 0.275129 1.089500 0.089909
v 0.208872 1.082545 0.064709
v 0.286754 1.108192 0.030289
v 0.287666 1.112953 -0.027358
v 0.286701 1.129673 0.025852
v 0.226419 1.126860 -0.035764
v 0.229694 1.108588 -0.035438
v 0.267303 1.110172 -0.031376
v 0.211459 1.097669 0.013348
v 0.208194 1.108746 0.065330
v 0.246895 1.114260 0.083692
v 0.264540 1.127650 -0.032970
v 0.208016 1.122014 0.017682
v 0.286395 1.130987 -0.029123
v 0.274069 1.115982 0.089351
v -0.285134 1.097254 0.041823
v -0.223799 1.064269 0.069465
v -0.257021 1.069141 0.084086
v -0.278862 1.070285 0.089389
v -0.265686 1.101784 -0.007807
v -0.221813 1.091669 0.031275
v -0.283284 1.103538 -0.005813
v -0.234005 1.104303 -0.008676
v -0.284968 1.124449 0.039424
v -0.232448 1.127470 -0.008515
v -0.222922 1.094156 0.073413
v -0.255538 1.099786 0.087782
v -0.264162 1.127025 -0.008246
v -0.219630 1.116502 0.035972
v -0.282423 1.129445 -0.006272
v -0.257594 1.070651 0.092839
v -0.277980 1.101937 0.091508
v -0.284028 1.072635 0.099280
v -0.217177 1.065151 0.074938
v -0.291889 1.099086 0.042417
v -0.289811 1.107347 -0.015313
v -0.292116 1.123023 0.040502
v -0.228409 1.125384 -0.017512
v -0.229979 1.104809 -0.018615
v -0.268278 1.104322 -0.017743
v -0.215175 1.091131 0.029534
v -0.215820 1.091534 0.080901
v -0.255424 1.097368 0.098488
v -0.266800 1.126480 -0.017324
v -0.212589 1.113065 0.036226
v -0.289034 1.129652 -0.014910
v -0.282837 1.100226 0.103026
vn -0.191700 0.961200 0.198500
vn 0.066500 0.997700 0.016400
vn 0.150900 -0.979100 -0.136700
vn 0.091300 -0.038000 -0.995100
vn -0.071100 0.946100 0.315900
vn 0.019500 0.981300 -0.191600
vn 0.267900 -0.960400 -0.075900
vn 0.517000 -0.835000 -0.188500
vn -0.131700 0.990700 -0.033400
vn -0.418500 -0.041300 0.907300
vn -0.929600 -0.113600 -0.350700
vn -0.226200 -0.013300 0.974000
vn 0.977900 0.044000 0.204200
vn -0.996000 -0.076700 -0.046200
vn 0.999400 0.034600 0.007200
vn 0.192600 -0.070700 -0.978700
vn 0.023900 -0.998000 -0.059100
vn -0.050900 -0.951900 0.302300
vn -0.124800 0.985000 -0.118900
vn 0.311500 -0.945000 -0.099800
vn 0.002000 -0.945400 0.325800
vn -0.060600 0.998100 -0.010500
vn -0.064100 -0.940200 -0.334400
vn -0.449900 0.890300 -0.070900
vn 0.124100 0.928700 0.349500
vn -0.144900 0.983800 0.105100
vn -0.144800 -0.958600 -0.245100
vn -0.013500 0.036500 -0.999200
vn 0.113600 0.872500 0.475200
vn 0.008300 0.989600 -0.143400
vn -0.305200 -0.941700 -0.141400
vn -0.551400 -0.770600 -0.319600
vn 0.229200 0.957600 0.174400
vn 0.368900 -0.221900 0.902600
vn 0.954200 -0.038900 -0.296700
vn 0.181100 -0.178500 0.967100
vn -0.989000 0.013300 0.147500
vn 0.996300 -0.084700 0.013200
vn -0.999000 0.010400 -0.044200
vn -0.106600 0.023800 -0.994000
vn 0.038700 -0.988100 -0.148600
vn -0.015300 -0.980000 0.198200
vn 0.127200 0.988200 -0.085300
vn -0.234500 -0.948800 -0.211500
vn -0.055000 -0.980600 0.188200
vn 0.131900 0.969200 0.208200
vn 0.169300 -0.834300 -0.524700
vn 0.485800 0.871700 0.065000
f 9//1 17//1 32//1
f 9//1 32//1 22//1
f 15//2 9//2 22//2
f 15//2 22//2 31//2
f 7//3 5//3 25//3
f 7//3 25//3 21//3
f 29//4 25//4 24//4
f 29//4 24//4 23//4
f 11//5 14//5 30//5
f 11//5 30//5 27//5
f 10//6 13//6 29//6
f 10//6 29//6 23//6
f 1//7 7//7 21//7
f 1//7 21//7 20//7
f 4//8 1//8 20//8
f 4//8 20//8 18//8
f 12//9 11//9 27//9
f 12//9 27//9 28//9
f 27//10 19//10 16//10
f 27//10 16//10 28//10
f 23//11 24//11 26//11
f 23//11 26//11 30//11
f 28//12 16//12 18//12
f 28//12 18//12 32//12
f 18//13 20//13 22//13
f 18//13 22//13 32//13
f 19//14 27//14 30//14
f 19//14 30//14 26//14
f 20//15 21//15 31//15
f 20//15 31//15 22//15
f 25//16 29//16 31//16
f 25//16 31//16 21//16
f 5//17 8//17 24//17
f 5//17 24//17 25//17
f 3//18 4//18 18//18
f 3//18 18//18 16//18
f 13//19 15//19 31//19
f 13//19 31//19 29//19
f 8//20 6//20 26//20
f 8//20 26//20 24//20
f 2//21 3//21 16//21
f 2//21 16//21 19//21
f 17//22 12//22 28//22
f 17//22 28//22 32//22
f 6//23 2//23 19//23
f 6//23 19//23 26//23
f 14//24 10//24 23//24
f 14//24 23//24 30//24
f 41//25 54//25 64//25
f 41//25 64//25 49//25
f 47//26 63//26 54//26
f 47//26 54//26 41//26
f 39//27 53//27 57//27
f 39//27 57//27 37//27
f 61//28 55//28 56//28
f 61//28 56//28 57//28
f 43//29 59//29 62//29
f 43//29 62//29 46//29
f 42//30 55//30 61//30
f 42//30 61//30 45//30
f 33//31 52//31 53//31
f 33//31 53//31 39//31
f 36//32 50//32 52//32
f 36//32 52//32 33//32
f 44//33 60//33 59//33
f 44//33 59//33 43//33
f 59//34 60//34 48//34
f 59//34 48//34 51//34
f 55//35 62//35 58//35
f 55//35 58//35 56//35
f 60//36 64//36 50//36
f 60//36 50//36 48//36
f 50//37 64//37 54//37
f 50//37 54//37 52//37
f 51//38 58//38 62//38
f 51//38 62//38 59//38
f 52//39 54//39 63//39
f 52//39 63//39 53//39
f 57//40 53//40 63//40
f 57//40 63//40 61//40
f 37//41 57//41 56//41
f 37//41 56//41 40//41
f 35//42 48//42 50//42
f 35//42 50//42 36//42
f 45//43 61//43 63//43
f 45//43 63//43 47//43
f 40//44 56//44 58//44
f 40//44 58//44 38//44
f 34//45 51//45 48//45
f 34//45 48//45 35//45
f 49//46 64//46 60//46
f 49//46 60//46 44//46
f 38//47 58//47 51//47
f 38//47 51//47 34//47
f 46//48 62//48 55//48
f 46//48 55//48 42//48
