# prebaked split of model.obj material Pants.005
mtllib Pants_005.mtl
usemtl Pants.005
v 0.157882 0.856210 0.010442
v 0.153546 0.872130 -0.053242
v 0.027742 0.832578 -0.076234
v 0.122711 0.842837 0.133570
v 0.105518 0.602020 0.115844
v 0.177243 0.616238 0.020820
v 0.174049 0.619307 -0.016201
v 0.074228 0.600104 0.001889
v 0.024977 0.796218 0.032717
v 0.070688 0.598397 0.072331
v 0.098121 0.495865 0.001169
v 0.166884 0.500846 -0.009914
v 0.096027 0.454585 0.073966
v 0.126257 0.450269 0.108508
v 0.195189 0.463789 0.022853
v 0.129596 0.502432 -0.019088
v 0.106790 0.862398 -0.079080
v 0.118358 0.609130 -0.018260
v 0.116702 0.525084 0.107570
v 0.188395 0.531370 0.027918
v 0.089351 0.508863 0.079310
v 0.046406 0.808440 0.146704
v 0.147744 0.921058 -0.051300
v 0.150984 0.923310 0.024997
v 0.102995 0.915902 0.126601
v 0.050817 0.840869 0.150029
v 0.109133 0.931897 -0.098074
v 0.065053 0.947718 -0.119916
v 0.108859 0.368614 -0.017473
v 0.105222 0.358559 0.051451
v 0.195250 0.367992 0.007509
v 0.130743 0.356669 0.069026
v 0.173314 0.372235 -0.024825
v 0.136656 0.371890 -0.033164
v 0.177878 0.454497 0.101181
v 0.155024 0.615470 0.108267
v 0.173078 0.357785 0.070203
v 0.163530 0.532948 0.101242
v 0.142052 0.246223 0.048227
v 0.167163 0.289919 -0.049029
v 0.137956 0.279723 -0.056080
v 0.112748 0.277979 -0.042703
v 0.111711 0.256129 0.022349
v 0.192967 0.264349 -0.007790
v 0.174240 0.245255 0.052058
v 0.051970 0.695002 -0.023178
v 0.084755 0.686824 0.139989
v 0.169413 0.726190 0.021896
v 0.164330 0.731386 -0.027592
v 0.045749 0.678699 0.071316
v 0.111373 0.721801 -0.039191
v 0.148563 0.714418 0.127774
v 0.145029 0.153880 0.026672
v 0.178625 0.181367 -0.052182
v 0.147911 0.176028 -0.057351
v 0.174967 0.154449 0.028052
v 0.123583 0.173841 -0.044372
v 0.120231 0.159849 0.003297
v 0.197905 0.166093 -0.018361
v -0.171629 0.853583 0.025936
v -0.185415 0.867648 -0.039506
v -0.044669 0.832194 -0.079766
v -0.105474 0.845188 0.134861
v -0.074041 0.606089 0.116507
v -0.175586 0.613596 0.053196
v -0.185996 0.614969 0.017420
v -0.085555 0.599699 -0.000814
v -0.029635 0.796667 0.028388
v -0.056970 0.601396 0.063534
v -0.103407 0.495682 0.010735
v -0.171700 0.498914 0.025013
v -0.073574 0.457918 0.078424
v -0.089257 0.453307 0.121351
v -0.184750 0.462353 0.065855
v -0.140294 0.500660 0.003012
v -0.142915 0.858826 -0.078414
v -0.134332 0.606414 -0.004076
v -0.083991 0.528495 0.115647
v -0.179639 0.529088 0.066986
v -0.067863 0.512003 0.080021
v -0.041609 0.809850 0.143138
v -0.167935 0.919056 -0.046935
v -0.159703 0.922539 0.029616
v -0.102046 0.916568 0.126774
v -0.048176 0.841896 0.147707
v -0.130602 0.930408 -0.099362
v -0.080572 0.947151 -0.123102
v -0.114399 0.370108 -0.002471
v -0.085968 0.361498 0.060382
v -0.186071 0.366530 0.051492
v -0.103428 0.358859 0.085916
v -0.177326 0.371131 0.013452
v -0.146081 0.372039 -0.007277
v -0.140233 0.455246 0.132751
v -0.123527 0.617699 0.126777
v -0.142561 0.358269 0.102137
v -0.130284 0.534700 0.126164
v -0.116550 0.247718 0.070620
v -0.176607 0.288746 -0.011285
v -0.151421 0.279635 -0.028296
v -0.123049 0.279140 -0.024805
v -0.097907 0.258424 0.035603
v -0.184846 0.262829 0.036472
v -0.145176 0.245501 0.085697
v -0.076195 0.693969 -0.035001
v -0.052763 0.691922 0.131023
v -0.172814 0.723655 0.047595
v -0.186020 0.726605 -0.000560
v -0.037739 0.682117 0.052269
v -0.139561 0.718192 -0.030617
v -0.116353 0.717407 0.139349
v -0.001676 0.841837 0.152288
v -0.007747 0.834489 -0.083229
v -0.002641 0.803344 0.022648
v -0.001795 0.802439 0.135768
v -0.001650 0.906215 0.156369
v -0.006755 0.956510 -0.123817
v -0.122961 0.154987 0.051627
v -0.183658 0.179780 -0.010045
v -0.156607 0.175613 -0.025841
v -0.150430 0.154358 0.063610
v -0.129179 0.174633 -0.022407
v -0.108425 0.161576 0.020930
v -0.188908 0.164292 0.028443
vn 0.216700 0.150500 0.964600
vn 0.992500 0.114700 -0.042500
vn 0.644600 -0.090500 -0.759200
vn 0.953700 0.128500 0.271800
vn 0.993300 0.074400 -0.087900
vn -0.014100 -0.998500 0.053200
vn -0.029400 -0.998200 0.052600
vn -0.015100 -0.998500 0.053200
vn -0.673000 -0.273300 0.687300
vn 0.146900 -0.130100 -0.980600
vn -0.784100 -0.293600 0.546800
vn 0.816100 0.124300 -0.564400
vn -0.974300 -0.216000 -0.064300
vn 0.158700 -0.074900 0.984500
vn 0.121900 -0.021900 -0.992300
vn 0.235700 -0.191400 0.952800
vn 0.949800 -0.002000 -0.312800
vn -0.721400 -0.114000 0.683100
vn -0.458900 -0.069900 -0.885700
vn 0.000400 -0.316900 -0.948500
vn 0.921600 0.155800 0.355400
vn 0.230700 0.120000 -0.965600
vn -0.958700 -0.271100 -0.086300
vn 0.224600 -0.129600 0.965800
vn -0.069900 -0.261600 0.962700
vn 0.962400 -0.085700 0.257600
vn 0.181600 -0.350800 -0.918700
vn 0.061000 -0.342900 -0.937400
vn -0.994800 -0.076300 -0.067900
vn 0.953800 0.112100 0.278800
vn -0.627400 -0.227100 0.744900
vn -0.065700 -0.175200 0.982300
vn 0.849800 0.072400 -0.522100
vn 0.080900 -0.346200 0.934700
vn -0.989300 -0.112600 -0.092300
vn -0.525900 0.071300 -0.847600
vn -0.729800 -0.136100 0.669900
vn 0.974500 0.045000 0.220000
vn 0.817400 0.100100 -0.567300
vn -0.055600 -0.952700 -0.298800
vn 0.134100 0.026600 0.990600
vn 0.876100 0.100800 -0.471400
vn -0.082600 -0.242200 0.966700
vn -0.684000 -0.193100 0.703500
vn -0.998200 -0.041100 -0.044600
vn 0.181800 0.251700 -0.950600
vn 0.951000 -0.052100 0.304900
vn -0.485300 0.209800 -0.848800
vn 0.957500 0.144000 0.250000
vn -0.973700 -0.206400 -0.096400
vn -0.244100 -0.242500 -0.939000
vn 0.179400 -0.003200 0.983800
vn -0.974800 -0.108300 0.194900
vn 0.377200 -0.190500 -0.906300
vn 0.995000 0.072500 -0.069300
vn 0.196000 0.062400 0.978600
vn -0.818400 -0.285600 0.498600
vn -0.993800 -0.089000 -0.067000
vn 0.189800 0.039600 -0.981000
vn 0.933900 -0.037000 0.355500
vn -0.467300 -0.034300 -0.883400
vn -0.210600 0.120000 0.970200
vn -0.956700 0.238900 0.166200
vn -0.753000 0.030700 -0.657300
vn -0.797100 0.104300 0.594700
vn -0.961300 0.040900 0.272600
vn -0.000400 -0.998600 0.053800
vn 0.884200 -0.236000 0.403100
vn -0.481800 -0.182100 -0.857100
vn 0.938600 -0.233200 0.254400
vn -0.967800 0.078200 -0.239300
vn 0.894700 -0.191500 -0.403500
vn 0.206600 -0.030500 0.978000
vn -0.467400 -0.075900 -0.880800
vn 0.108900 -0.159900 0.981100
vn -0.997800 -0.045800 0.048700
vn 0.921300 -0.066100 0.383100
vn 0.113000 -0.100600 -0.988500
vn -0.128200 -0.300700 -0.945100
vn -0.848700 0.109100 0.517500
vn -0.563700 0.095000 -0.820500
vn 0.879500 -0.249000 -0.405600
vn -0.225100 -0.182600 0.957100
vn 0.006500 -0.282600 0.959200
vn -0.802100 -0.121300 0.584800
vn -0.178900 -0.340700 -0.923000
vn -0.000400 -0.333900 -0.942600
vn 0.907600 -0.036800 -0.418200
vn -0.794300 0.098400 0.599500
vn 0.861200 -0.189000 0.471800
vn 0.419500 -0.156200 0.894200
vn -0.982500 0.029100 -0.184100
vn 0.271600 -0.334700 0.902300
vn 0.894500 -0.081500 -0.439700
vn 0.186800 0.078200 -0.979300
vn 0.926800 -0.081400 0.366700
vn -0.835700 0.021400 0.548800
vn -0.969600 0.057700 -0.237800
vn 0.089400 -0.948500 -0.303900
vn 0.223900 0.055300 0.973000
vn -0.990200 0.057200 -0.127400
vn 0.432700 -0.222600 0.873600
vn 0.897800 -0.153500 0.412900
vn 0.917100 -0.000500 -0.398700
vn -0.517800 0.229400 -0.824100
vn -0.776300 -0.085800 0.624500
vn 0.142200 0.217500 -0.965700
vn -0.846600 0.092800 0.524100
vn 0.923500 -0.228500 -0.308200
vn -0.086800 -0.280000 -0.956100
vn -0.013800 -0.029800 0.999500
vn 0.992900 -0.047500 0.109100
vn -0.623600 -0.235600 -0.745400
vn -0.969100 0.059900 0.239200
vn -0.224400 0.031100 0.974000
vn 0.973400 -0.112600 0.199700
vn 0.907300 -0.049600 -0.417500
vn -0.528900 0.015700 -0.848500
vn -0.743000 -0.069200 0.665700
vn 0.122300 -0.029700 -0.992000
f 4//1 25//1 26//1
f 24//2 1//2 2//2
f 24//2 2//2 23//2
f 23//3 2//3 17//3
f 23//3 17//3 27//3
f 35//4 15//4 20//4
f 35//4 20//4 38//4
f 48//5 6//5 7//5
f 48//5 7//5 49//5
f 114//6 9//7 22//7
f 114//6 22//7 115//8
f 13//9 30//9 32//9
f 13//9 32//9 14//9
f 49//10 7//10 18//10
f 49//10 18//10 51//10
f 50//11 10//11 5//11
f 50//11 5//11 47//11
f 12//12 20//12 15//12
f 10//13 8//13 11//13
f 10//13 11//13 21//13
f 38//14 36//14 5//14
f 38//14 5//14 19//14
f 18//15 7//15 12//15
f 18//15 12//15 16//15
f 52//16 47//16 5//16
f 52//16 5//16 36//16
f 7//17 6//17 20//17
f 7//17 20//17 12//17
f 19//18 21//18 13//18
f 19//18 13//18 14//18
f 8//19 18//19 16//19
f 8//19 16//19 11//19
f 46//20 3//20 17//20
f 46//20 17//20 51//20
f 25//21 4//21 1//21
f 25//21 1//21 24//21
f 16//22 12//22 33//22
f 16//22 33//22 34//22
f 46//23 8//23 10//23
f 46//23 10//23 50//23
f 22//24 4//24 26//24
f 115//25 22//25 26//25
f 115//25 26//25 112//25
f 31//26 15//26 35//26
f 31//26 35//26 37//26
f 3//27 28//27 27//27
f 3//27 27//27 17//27
f 3//28 113//28 117//28
f 3//28 117//28 28//28
f 11//29 29//29 30//29
f 11//29 30//29 13//29
f 20//30 6//30 36//30
f 20//30 36//30 38//30
f 39//31 32//31 30//31
f 39//31 30//31 43//31
f 39//32 45//32 37//32
f 39//32 37//32 32//32
f 44//33 40//33 33//33
f 44//33 33//33 31//33
f 37//34 35//34 14//34
f 37//34 14//34 32//34
f 21//35 11//35 13//35
f 11//36 16//36 34//36
f 11//36 34//36 29//36
f 5//37 10//37 21//37
f 5//37 21//37 19//37
f 52//38 36//38 6//38
f 52//38 6//38 48//38
f 12//39 15//39 31//39
f 12//39 31//39 33//39
f 113//40 3//40 9//40
f 113//40 9//40 114//40
f 35//41 38//41 19//41
f 35//41 19//41 14//41
f 59//42 54//42 40//42
f 59//42 40//42 44//42
f 53//43 56//43 45//43
f 53//43 45//43 39//43
f 53//44 39//44 43//44
f 53//44 43//44 58//44
f 30//45 29//45 42//45
f 30//45 42//45 43//45
f 34//46 33//46 40//46
f 34//46 40//46 41//46
f 31//47 37//47 45//47
f 31//47 45//47 44//47
f 29//48 34//48 41//48
f 29//48 41//48 42//48
f 4//49 52//49 48//49
f 4//49 48//49 1//49
f 3//50 46//50 50//50
f 3//50 50//50 9//50
f 8//51 46//51 51//51
f 8//51 51//51 18//51
f 4//52 22//52 47//52
f 4//52 47//52 52//52
f 9//53 50//53 22//53
f 2//54 49//54 51//54
f 2//54 51//54 17//54
f 1//55 48//55 49//55
f 1//55 49//55 2//55
f 116//56 112//56 26//56
f 116//56 26//56 25//56
f 22//57 50//57 47//57
f 43//58 42//58 57//58
f 43//58 57//58 58//58
f 41//59 40//59 54//59
f 41//59 54//59 55//59
f 44//60 45//60 56//60
f 44//60 56//60 59//60
f 42//61 41//61 55//61
f 42//61 55//61 57//61
f 63//62 85//62 84//62
f 83//63 82//63 61//63
f 83//63 61//63 60//63
f 82//64 86//64 76//64
f 82//64 76//64 61//64
f 94//65 97//65 79//65
f 94//65 79//65 74//65
f 107//66 108//66 66//66
f 107//66 66//66 65//66
f 114//6 115//8 81//67
f 114//6 81//67 68//67
f 72//68 73//68 91//68
f 72//68 91//68 89//68
f 108//69 110//69 77//69
f 108//69 77//69 66//69
f 109//70 106//70 64//70
f 109//70 64//70 69//70
f 71//71 74//71 79//71
f 69//72 80//72 70//72
f 69//72 70//72 67//72
f 97//73 78//73 64//73
f 97//73 64//73 95//73
f 77//74 75//74 71//74
f 77//74 71//74 66//74
f 111//75 95//75 64//75
f 111//75 64//75 106//75
f 66//76 71//76 79//76
f 66//76 79//76 65//76
f 78//77 73//77 72//77
f 78//77 72//77 80//77
f 67//78 70//78 75//78
f 67//78 75//78 77//78
f 105//79 110//79 76//79
f 105//79 76//79 62//79
f 84//80 83//80 60//80
f 84//80 60//80 63//80
f 75//81 93//81 92//81
f 75//81 92//81 71//81
f 105//82 109//82 69//82
f 105//82 69//82 67//82
f 81//83 85//83 63//83
f 115//84 112//84 85//84
f 115//84 85//84 81//84
f 90//85 96//85 94//85
f 90//85 94//85 74//85
f 62//86 76//86 86//86
f 62//86 86//86 87//86
f 62//87 87//87 117//87
f 62//87 117//87 113//87
f 70//88 72//88 89//88
f 70//88 89//88 88//88
f 79//89 97//89 95//89
f 79//89 95//89 65//89
f 98//90 102//90 89//90
f 98//90 89//90 91//90
f 98//91 91//91 96//91
f 98//91 96//91 104//91
f 103//92 90//92 92//92
f 103//92 92//92 99//92
f 96//93 91//93 73//93
f 96//93 73//93 94//93
f 80//94 72//94 70//94
f 70//95 88//95 93//95
f 70//95 93//95 75//95
f 64//96 78//96 80//96
f 64//96 80//96 69//96
f 111//97 107//97 65//97
f 111//97 65//97 95//97
f 71//98 92//98 90//98
f 71//98 90//98 74//98
f 113//99 114//99 68//99
f 113//99 68//99 62//99
f 94//100 73//100 78//100
f 94//100 78//100 97//100
f 124//101 103//101 99//101
f 124//101 99//101 119//101
f 118//102 98//102 104//102
f 118//102 104//102 121//102
f 118//103 123//103 102//103
f 118//103 102//103 98//103
f 89//104 102//104 101//104
f 89//104 101//104 88//104
f 93//105 100//105 99//105
f 93//105 99//105 92//105
f 90//106 103//106 104//106
f 90//106 104//106 96//106
f 88//107 101//107 100//107
f 88//107 100//107 93//107
f 63//108 60//108 107//108
f 63//108 107//108 111//108
f 62//109 68//109 109//109
f 62//109 109//109 105//109
f 67//110 77//110 110//110
f 67//110 110//110 105//110
f 63//111 111//111 106//111
f 63//111 106//111 81//111
f 68//112 81//112 109//112
f 61//113 76//113 110//113
f 61//113 110//113 108//113
f 60//114 61//114 108//114
f 60//114 108//114 107//114
f 116//115 84//115 85//115
f 116//115 85//115 112//115
f 81//116 106//116 109//116
f 102//117 123//117 122//117
f 102//117 122//117 101//117
f 100//118 120//118 119//118
f 100//118 119//118 99//118
f 103//119 124//119 121//119
f 103//119 121//119 104//119
f 101//120 122//120 120//120
f 101//120 120//120 100//120
