# prebaked split of model.obj material Shirt.005
mtllib Shirt_005.mtl
usemtl Shirt.005
v 0.091832 1.024602 0.107017
v 0.116847 1.021601 0.032231
v 0.121769 1.020806 -0.031895
v 0.067802 1.016573 -0.075936
v 0.147744 0.921058 -0.051300
v 0.150984 0.923310 0.024997
v 0.102995 0.915902 0.126601
v 0.109133 0.931897 -0.098074
v 0.065053 0.947718 -0.119916
v 0.089831 1.221111 0.104207
v 0.143805 1.469217 0.072323
v 0.141934 1.475190 -0.022515
v 0.161801 1.471800 0.024398
v 0.093013 1.478346 -0.049159
v 0.088067 1.140634 0.098927
v 0.081565 1.447316 0.093053
v 0.100306 1.483036 0.066326
v 0.103342 1.490857 -0.008738
v 0.075313 1.492467 -0.038617
v 0.111841 1.487504 0.025183
v 0.061596 1.467448 0.085262
v 0.109012 0.938557 -0.101883
v 0.151924 0.928405 -0.052975
v 0.102495 0.923805 0.130779
v 0.154196 0.930712 0.025997
v 0.065485 0.953658 -0.123379
v 0.137341 1.343232 0.122758
v 0.133022 1.434208 0.107033
v 0.137421 1.382848 0.128246
v 0.160762 1.458777 0.074182
v 0.129254 1.309900 0.109699
v 0.088075 1.258734 0.136989
v 0.052901 1.393043 0.136961
v 0.121547 1.305867 0.132796
v 0.121066 1.351669 0.133340
v 0.103616 1.394628 0.128258
v 0.051676 1.347037 0.149638
v 0.085041 1.269158 0.151093
v 0.105372 1.349850 0.142941
v 0.102923 1.300746 0.168194
v 0.057583 1.298609 0.180950
v -0.095433 1.024685 0.107911
v -0.122722 1.021573 0.033111
v -0.130712 1.020544 -0.031181
v -0.077074 1.016446 -0.076775
v -0.167935 0.919056 -0.046935
v -0.159703 0.922539 0.029616
v -0.102046 0.916568 0.126774
v -0.130602 0.930408 -0.099362
v -0.080572 0.947151 -0.123102
v -0.093909 1.221095 0.105556
v -0.147352 1.468689 0.070997
v -0.140103 1.472682 -0.023754
v -0.162999 1.470011 0.022462
v -0.094668 1.476443 -0.049411
v -0.092215 1.140621 0.100240
v -0.085357 1.447039 0.093315
v -0.104031 1.482721 0.065697
v -0.105155 1.489575 -0.009366
v -0.078317 1.491315 -0.038786
v -0.114593 1.486588 0.024316
v -0.065559 1.467287 0.085341
v -0.129521 0.937191 -0.103134
v -0.171095 0.926541 -0.048584
v -0.102142 0.924372 0.131108
v -0.162513 0.930010 0.030545
v -0.080706 0.953112 -0.126355
v -0.001796 1.014138 0.136878
v -0.001986 1.434641 0.113379
v -0.003527 1.016870 -0.094903
v -0.001650 0.906215 0.156369
v -0.006755 0.956510 -0.123817
v -0.003243 1.477229 -0.059013
v -0.001860 1.132804 0.128842
v -0.001796 1.205582 0.138199
v -0.002111 1.456995 0.096704
v -0.003167 1.492384 -0.048422
v -0.001609 0.913863 0.162020
v -0.006610 0.963738 -0.127841
v -0.141585 1.342484 0.125101
v -0.136725 1.433910 0.107903
v -0.141556 1.382422 0.130450
v -0.164257 1.458113 0.073005
v -0.133255 1.309889 0.111612
v -0.091678 1.258697 0.138341
v -0.001737 1.252608 0.146517
v -0.001811 1.388765 0.137255
v -0.001693 1.344733 0.153086
v -0.056291 1.392591 0.137667
v -0.125213 1.305856 0.134594
v -0.125025 1.350890 0.135374
v -0.107359 1.394179 0.129690
v -0.055108 1.347032 0.150416
v -0.001659 1.275067 0.157402
v -0.088440 1.269119 0.152401
v -0.109035 1.349143 0.144633
v -0.106075 1.300737 0.169717
v -0.060552 1.298604 0.181811
v -0.001530 1.307490 0.175212
vn 0.288200 0.942300 0.170200
vn 0.380300 0.903500 0.197800
vn 0.337600 0.922600 0.186600
vn 0.313900 0.881400 -0.353000
vn 0.173100 0.555400 -0.813400
vn 0.098200 0.531100 0.841600
vn 0.869600 -0.289400 0.400000
vn 0.241700 -0.489500 -0.837800
vn 0.938800 0.344300 0.009900
vn 0.341300 -0.093400 0.935300
vn 0.258800 -0.417700 0.871000
vn 0.636500 -0.434100 -0.637500
vn 0.285500 -0.505900 0.814000
vn 0.302500 0.070300 0.950500
vn 0.117700 0.554600 0.823800
vn 0.083900 0.615900 -0.783300
vn 0.328400 0.943800 -0.036500
vn 0.263700 0.241400 0.933900
vn 0.635200 0.441000 -0.634000
vn 0.893500 -0.448600 -0.018500
vn 0.886600 0.257200 0.384400
vn 0.516700 0.503300 -0.692600
vn -0.014200 -0.493700 -0.869500
vn 0.491800 0.839800 0.229900
vn 0.071400 0.691100 0.719200
vn 0.790700 -0.380700 0.479300
vn 0.072300 -0.599300 0.797200
vn 0.057200 0.548400 0.834300
vn 0.790700 -0.176700 0.586100
vn 0.786100 -0.530000 0.318000
vn 0.101000 0.288800 0.952000
vn 0.014600 0.301700 0.953300
vn 0.020600 0.561400 0.827300
vn 0.013700 0.529900 0.848000
vn 0.247900 -0.566000 0.786300
vn 0.142700 0.500300 0.854000
vn 0.776100 0.143800 0.614000
vn 0.746900 -0.589400 0.307700
vn -0.155500 -0.475100 0.866100
vn 0.127900 0.286900 0.949400
vn 0.474500 0.291000 0.830800
vn 0.002800 -0.710700 0.703500
vn 0.496700 -0.120100 0.859600
vn -0.308400 0.940300 0.144200
vn -0.355400 0.921600 0.156000
vn -0.399200 0.902100 0.163900
vn -0.349900 0.859100 -0.373400
vn -0.149800 0.577300 -0.802600
vn -0.097900 0.531900 0.841200
vn -0.821900 -0.319000 0.471900
vn -0.256600 -0.451800 -0.854400
vn -0.917600 0.386300 0.093900
vn -0.327500 -0.093500 0.940200
vn -0.245700 -0.418100 0.874500
vn -0.724200 -0.334600 -0.603000
vn -0.295400 -0.519200 0.802000
vn -0.291800 0.067800 0.954100
vn -0.133500 0.562000 0.816300
vn -0.097700 0.609400 -0.786800
vn -0.358100 0.930300 -0.079100
vn -0.263200 0.234100 0.935900
vn -0.646300 0.493300 -0.582200
vn -0.924400 -0.363300 0.116100
vn -0.863200 0.256000 0.435200
vn -0.498100 0.552000 -0.668700
vn 0.052200 -0.482400 -0.874400
vn -0.505200 0.842800 0.185800
vn -0.078800 0.714100 0.695600
vn -0.784000 -0.380900 0.490100
vn -0.060000 -0.599400 0.798200
vn -0.053900 0.550700 0.832900
vn -0.776800 -0.191700 0.599900
vn -0.781600 -0.529600 0.329400
vn -0.082900 0.302500 0.949500
vn -0.002700 0.303900 0.952700
vn -0.011200 0.570000 0.821600
vn -0.001400 0.529900 0.848100
vn -0.236500 -0.564900 0.790600
vn -0.132200 0.501900 0.854700
vn -0.765600 0.140600 0.627700
vn -0.742700 -0.588900 0.318900
vn 0.168100 -0.475100 0.863700
vn -0.114200 0.291000 0.949900
vn -0.454300 0.295700 0.840300
vn 0.008100 -0.710000 0.704100
vn -0.480400 -0.116100 0.869300
f 20//1 17//1 11//2
f 20//1 11//2 13//3
f 18//4 12//4 14//4
f 18//4 14//4 19//4
f 70//5 4//5 26//5
f 70//5 26//5 79//5
f 21//6 76//6 69//6
f 21//6 69//6 16//6
f 24//7 7//7 6//7
f 24//7 6//7 25//7
f 8//8 9//8 26//8
f 8//8 26//8 22//8
f 23//9 3//9 2//9
f 23//9 2//9 25//9
f 15//10 10//10 75//10
f 15//10 75//10 74//10
f 10//11 32//11 86//11
f 10//11 86//11 75//11
f 23//12 5//12 8//12
f 23//12 8//12 22//12
f 78//13 71//13 7//13
f 78//13 7//13 24//13
f 15//14 74//14 68//14
f 15//14 68//14 1//14
f 11//15 17//15 21//15
f 11//15 21//15 16//15
f 73//16 77//16 19//16
f 73//16 19//16 14//16
f 12//17 18//17 20//17
f 12//17 20//17 13//17
f 68//18 78//18 24//18
f 68//18 24//18 1//18
f 3//19 23//19 22//19
f 3//19 22//19 4//19
f 5//20 23//20 25//20
f 5//20 25//20 6//20
f 1//21 24//21 25//21
f 1//21 25//21 2//21
f 22//22 26//22 4//22
f 79//23 26//23 9//23
f 79//23 9//23 72//23
f 30//24 13//3 11//2
f 28//25 30//25 11//25
f 28//25 11//25 16//25
f 31//26 32//26 10//26
f 86//27 32//27 38//27
f 86//27 38//27 94//27
f 16//28 69//28 87//28
f 16//28 87//28 33//28
f 31//29 27//29 35//29
f 31//29 35//29 34//29
f 32//30 31//30 34//30
f 32//30 34//30 38//30
f 29//31 28//31 36//31
f 29//31 36//31 35//31
f 33//32 87//32 88//32
f 33//32 88//32 37//32
f 28//33 16//33 33//33
f 28//33 33//33 36//33
f 41//34 37//34 88//34
f 41//34 88//34 99//34
f 40//35 41//35 38//35
f 40//36 39//36 37//36
f 40//36 37//36 41//36
f 34//37 35//37 39//37
f 34//37 39//37 40//37
f 34//38 40//38 38//38
f 41//39 99//39 94//39
f 36//40 33//40 37//40
f 36//40 37//40 39//40
f 36//41 39//41 35//41
f 38//42 41//42 94//42
f 35//43 27//43 29//43
f 61//44 54//45 52//46
f 61//44 52//46 58//44
f 59//47 60//47 55//47
f 59//47 55//47 53//47
f 70//48 79//48 67//48
f 70//48 67//48 45//48
f 62//49 57//49 69//49
f 62//49 69//49 76//49
f 65//50 66//50 47//50
f 65//50 47//50 48//50
f 49//51 63//51 67//51
f 49//51 67//51 50//51
f 64//52 66//52 43//52
f 64//52 43//52 44//52
f 56//53 74//53 75//53
f 56//53 75//53 51//53
f 51//54 75//54 86//54
f 51//54 86//54 85//54
f 64//55 63//55 49//55
f 64//55 49//55 46//55
f 78//56 65//56 48//56
f 78//56 48//56 71//56
f 56//57 42//57 68//57
f 56//57 68//57 74//57
f 52//58 57//58 62//58
f 52//58 62//58 58//58
f 73//59 55//59 60//59
f 73//59 60//59 77//59
f 53//60 54//60 61//60
f 53//60 61//60 59//60
f 68//61 42//61 65//61
f 68//61 65//61 78//61
f 44//62 45//62 63//62
f 44//62 63//62 64//62
f 46//63 47//63 66//63
f 46//63 66//63 64//63
f 42//64 43//64 66//64
f 42//64 66//64 65//64
f 63//65 45//65 67//65
f 79//66 72//66 50//66
f 79//66 50//66 67//66
f 83//67 52//46 54//45
f 81//68 57//68 52//68
f 81//68 52//68 83//68
f 84//69 51//69 85//69
f 86//70 94//70 95//70
f 86//70 95//70 85//70
f 57//71 89//71 87//71
f 57//71 87//71 69//71
f 84//72 90//72 91//72
f 84//72 91//72 80//72
f 85//73 95//73 90//73
f 85//73 90//73 84//73
f 82//74 91//74 92//74
f 82//74 92//74 81//74
f 89//75 93//75 88//75
f 89//75 88//75 87//75
f 81//76 92//76 89//76
f 81//76 89//76 57//76
f 98//77 99//77 88//77
f 98//77 88//77 93//77
f 97//78 95//78 98//78
f 97//79 98//79 93//79
f 97//79 93//79 96//79
f 90//80 97//80 96//80
f 90//80 96//80 91//80
f 90//81 95//81 97//81
f 98//82 94//82 99//82
f 92//83 96//83 93//83
f 92//83 93//83 89//83
f 92//84 91//84 96//84
f 95//85 94//85 98//85
f 91//86 82//86 80//86
